<?xml version="1.0" encoding="UTF-8" standalone="no"?>
<svg
   viewBox="0 0 24 24"
   width="24"
   height="24"
   version="1.1"
   id="svg8"
   sodipodi:docname="lockbox_locked_focus.svg"
   inkscape:version="1.2.1 (9c6d41e410, 2022-07-14)"
   xml:space="preserve"
   xmlns:inkscape="http://www.inkscape.org/namespaces/inkscape"
   xmlns:sodipodi="http://sodipodi.sourceforge.net/DTD/sodipodi-0.dtd"
   xmlns="http://www.w3.org/2000/svg"
   xmlns:svg="http://www.w3.org/2000/svg"><sodipodi:namedview
     id="namedview10"
     pagecolor="#505050"
     bordercolor="#ffffff"
     borderopacity="1"
     inkscape:showpageshadow="0"
     inkscape:pageopacity="0"
     inkscape:pagecheckerboard="1"
     inkscape:deskcolor="#505050"
     showgrid="false"
     inkscape:zoom="9.8333333"
     inkscape:cx="11.949153"
     inkscape:cy="12"
     inkscape:window-width="1366"
     inkscape:window-height="694"
     inkscape:window-x="0"
     inkscape:window-y="0"
     inkscape:window-maximized="1"
     inkscape:current-layer="svg8" /><defs
     id="defs3051"><style
       type="text/css"
       id="current-color-scheme">
      .ColorScheme-Text {
        color:#232629;
      }
      </style></defs><g
     transform="matrix(1.379886,0,0,1.379886,-3.1787465,-3.1787465)"
     id="g6"
     style="fill:#0090f2;fill-opacity:1"><path
       style="fill:#0090f2;fill-opacity:1;stroke:none"
       d="M 11,3 C 8.784,3 7,4.784 7,7 v 4 H 5 c 0,2.666667 0,5.333333 0,8 4,0 8,0 12,0 v -8 c -0.666667,0 -1.333333,0 -2,0 V 7 C 15,4.784 13.216,3 11,3 m 0,1 c 1.662,0 3,1.561 3,3.5 V 11 H 8 V 7.5 C 8,5.561 9.338,4 11,4"
       class="ColorScheme-Text"
       id="path4" /></g></svg>
