<?xml version="1.0" encoding="UTF-8" standalone="no"?>
<!-- Created with Inkscape (http://www.inkscape.org/) -->

<svg
   width="128"
   height="48"
   viewBox="0 0 33.866624 12.700004"
   version="1.1"
   id="svg5"
   xml:space="preserve"
   inkscape:export-filename="./ψηφιογραφία.png"
   inkscape:export-xdpi="30.49"
   inkscape:export-ydpi="30.49"
   inkscape:version="1.3 (0e150ed6c4, 2023-07-21)"
   sodipodi:docname="DatatexLogo.svg"
   xmlns:inkscape="http://www.inkscape.org/namespaces/inkscape"
   xmlns:sodipodi="http://sodipodi.sourceforge.net/DTD/sodipodi-0.dtd"
   xmlns="http://www.w3.org/2000/svg"
   xmlns:svg="http://www.w3.org/2000/svg"><sodipodi:namedview
     id="namedview7"
     pagecolor="#505050"
     bordercolor="#ffffff"
     borderopacity="1"
     inkscape:showpageshadow="0"
     inkscape:pageopacity="0"
     inkscape:pagecheckerboard="1"
     inkscape:deskcolor="#505050"
     inkscape:document-units="mm"
     showgrid="false"
     inkscape:zoom="1.9862092"
     inkscape:cx="75.017275"
     inkscape:cy="16.8663"
     inkscape:window-width="1366"
     inkscape:window-height="694"
     inkscape:window-x="0"
     inkscape:window-y="0"
     inkscape:window-maximized="1"
     inkscape:current-layer="layer1" /><defs
     id="defs2"><rect
       x="48.463921"
       y="-4.6255555"
       width="66.298515"
       height="56.582798"
       id="rect295" /><rect
       x="618.3222"
       y="128.32988"
       width="507.40704"
       height="342.70807"
       id="rect3353" /><rect
       x="48.463921"
       y="-4.6255555"
       width="66.298515"
       height="56.582798"
       id="rect295-5" /><rect
       x="618.3222"
       y="128.32988"
       width="507.40704"
       height="342.70807"
       id="rect3353-3" /></defs><g
     inkscape:label="Στρώση 1"
     inkscape:groupmode="layer"
     id="layer1"
     transform="translate(-320.95598,384.77756)"><g
       aria-label="DataTex"
       transform="matrix(0.41689879,0,0,0.41689879,310.74795,-381.56879)"
       id="text293"
       style="font-size:18.6667px;line-height:1.25;white-space:pre;shape-inside:url(#rect295);fill:#f2f2f2" /><g
       inkscape:label="Στρώση 1"
       id="layer1-5"
       transform="translate(4.0798218e-5)"><g
         id="g8631-5-3"
         transform="matrix(0.10906299,0,0,0.10906299,315.99112,-392.59168)"
         style="fill:#f2f2f2;fill-opacity:1"><path
           style="color:#000000;fill:#f2f2f2;fill-opacity:1;stroke-width:0.660111"
           d="M 97.334089,91.701184 67.7275,108.91478 a 4.5376733,4.5376733 0 0 0 -2.256879,3.93659 l 0.103991,34.24717 a 4.5375989,4.5375989 0 0 0 2.280765,3.92279 l 29.711837,17.03362 a 4.5376965,4.5376965 0 0 0 4.537646,-0.0142 l 29.6066,-17.21359 a 3.445093,3.445093 0 0 0 2.26087,-2.59962 l -0.10802,-35.58414 a 4.5376082,4.5376082 0 0 0 -2.28076,-3.92279 L 101.87178,91.687033 a 4.5376904,4.5376904 0 0 0 -4.537628,0.01415 z m 4.553121,5.114912 25.26247,14.482224 a 4.5375185,4.5375185 0 0 1 2.28081,3.92275 l 0.0885,29.11841 a 4.5377363,4.5377363 0 0 1 -2.25686,3.93665 l -25.17279,14.63622 a 4.5377116,4.5377116 0 0 1 -4.537654,0.0142 L 72.289251,148.44428 a 4.5375212,4.5375212 0 0 1 -2.280795,-3.92274 l -0.08851,-29.11843 a 4.5377385,4.5377385 0 0 1 2.256851,-3.93663 L 97.349576,96.830262 a 4.53771,4.53771 0 0 1 4.537644,-0.01415 z"
           id="path28632-3-6"
           sodipodi:nodetypes="ccccccccccccccc" /></g><path
         style="fill:#f2f2f2;stroke:#f2f2f2;stroke-width:0.2;stroke-linecap:butt;stroke-linejoin:miter;stroke-dasharray:none;stroke-opacity:1"
         d="m 326.89881,-374.97984 v -1.21735"
         id="path14948-5-0" /><path
         style="fill:#f2f2f2;stroke:#f2f2f2;stroke-width:0.2;stroke-linecap:butt;stroke-linejoin:miter;stroke-dasharray:none;stroke-opacity:1"
         d="m 323.87603,-380.17675 1.05425,0.60868"
         id="path14948-7-6-6" /><path
         style="fill:#f2f2f2;stroke:#f2f2f2;stroke-width:0.2;stroke-linecap:butt;stroke-linejoin:miter;stroke-dasharray:none;stroke-opacity:1"
         d="m 329.86641,-380.1565 -1.05426,0.60867"
         id="path14948-7-5-2-2" /><path
         d="m 333.62275,-376.64366 q -0.45495,0.22149 -1.34092,0.22748 h -0.99372 v -4.0946 h 0.97576 q 0.96978,0 1.47262,0.29333 0.70039,0.41305 0.86801,1.28105 0.0479,0.23347 0.0479,0.48489 0,0.92787 -0.58067,1.49656 -0.012,0.006 -0.018,0.012 -0.19156,0.17958 -0.43101,0.29931 z m -0.41904,-2.90932 q -0.31727,-0.16163 -0.96378,-0.16163 h -0.11374 v 2.50824 h 0.12571 q 0.6525,0 0.97576,-0.17959 0.40706,-0.2155 0.53278,-0.72433 0.0419,-0.16762 0.0419,-0.34122 0,-0.64651 -0.41305,-0.98174 -0.0838,-0.0718 -0.18558,-0.11973 z"
         style="font-weight:bold;font-size:18.6667px;line-height:1.25;font-family:KerkisSans;-inkscape-font-specification:'KerkisSans Bold';white-space:pre;fill:#f2f2f2;stroke-width:0.416899"
         id="path401" /><path
         d="m 337.49585,-376.41618 v -0.32326 q -0.37713,0.37713 -0.97575,0.39509 -0.74829,0 -1.20324,-0.52679 -0.37115,-0.43101 -0.37115,-1.05358 0,-0.76025 0.52679,-1.22119 0.437,-0.38312 1.06555,-0.38312 0.59863,0 0.95182,0.39509 v -0.32326 h 0.75427 v 3.04102 z m -0.87997,-2.37655 q -0.4789,0 -0.71237,0.38312 -0.13768,0.21551 -0.13768,0.50285 0,0.48489 0.38312,0.70638 0.20952,0.11972 0.4789,0.11972 0.40706,0 0.62855,-0.25142 0.21551,-0.24544 0.21551,-0.58067 0,-0.50883 -0.38312,-0.74828 -0.20353,-0.1317 -0.47291,-0.1317 z"
         style="font-weight:bold;font-size:18.6667px;line-height:1.25;font-family:KerkisSans;-inkscape-font-specification:'KerkisSans Bold';white-space:pre;fill:#f2f2f2;stroke-width:0.416899"
         id="path403" /><path
         d="m 339.62097,-378.74484 v 2.32866 h -0.81413 v -2.32866 h -0.35918 v -0.7363 h 0.35918 v -0.98774 h 0.80814 v 0.98774 h 0.44299 v 0.7363 z"
         style="font-weight:bold;font-size:18.6667px;line-height:1.25;font-family:KerkisSans;-inkscape-font-specification:'KerkisSans Bold';white-space:pre;fill:#f2f2f2;stroke-width:0.416899"
         id="path405" /><path
         d="m 342.75776,-376.41618 v -0.32326 q -0.37713,0.37713 -0.97576,0.39509 -0.74828,0 -1.20323,-0.52679 -0.37115,-0.43101 -0.37115,-1.05358 0,-0.76025 0.52679,-1.22119 0.437,-0.38312 1.06555,-0.38312 0.59863,0 0.95182,0.39509 v -0.32326 h 0.75426 v 3.04102 z m -0.87998,-2.37655 q -0.4789,0 -0.71236,0.38312 -0.13768,0.21551 -0.13768,0.50285 0,0.48489 0.38312,0.70638 0.20952,0.11972 0.4789,0.11972 0.40706,0 0.62855,-0.25142 0.21551,-0.24544 0.21551,-0.58067 0,-0.50883 -0.38312,-0.74828 -0.20353,-0.1317 -0.47292,-0.1317 z"
         style="font-weight:bold;font-size:18.6667px;line-height:1.25;font-family:KerkisSans;-inkscape-font-specification:'KerkisSans Bold';white-space:pre;fill:#f2f2f2;stroke-width:0.416899"
         id="path407" /><path
         id="path1152-1-2"
         style="font-size:18.6667px;line-height:1.25;white-space:pre;fill:none;fill-opacity:1;stroke:#f2f2f2;stroke-width:0.164702;stroke-dasharray:none;stroke-opacity:1"
         d="m 326.88062,-380.28144 c -0.0324,-1e-4 -0.0646,10e-5 -0.0969,7e-4 -0.0321,6.9e-4 -0.0643,10e-4 -0.096,0.003 -0.0317,10e-4 -0.0632,0.003 -0.0944,0.005 -0.0312,0.002 -0.0624,0.004 -0.0932,0.006 -0.0308,0.003 -0.0613,0.005 -0.0914,0.009 -0.0302,0.003 -0.06,0.006 -0.0895,0.0102 -0.0294,0.004 -0.0585,0.008 -0.0872,0.0121 -0.0287,0.004 -0.0569,0.009 -0.0847,0.0136 -0.0279,0.005 -0.0551,0.0101 -0.082,0.0155 -0.0269,0.005 -0.0535,0.011 -0.0793,0.0169 -0.0259,0.006 -0.0513,0.0122 -0.0762,0.0186 -0.0248,0.006 -0.0491,0.013 -0.0728,0.0201 -0.0237,0.007 -0.0467,0.0141 -0.0691,0.0215 -0.0224,0.007 -0.0443,0.0149 -0.0654,0.0228 -0.0106,0.004 -0.0209,0.008 -0.0312,0.0119 -0.0102,0.004 -0.0204,0.008 -0.0303,0.0123 -0.01,0.004 -0.0194,0.008 -0.0289,0.0126 -0.01,0.004 -0.0189,0.008 -0.0281,0.0128 -0.009,0.004 -0.0179,0.009 -0.0268,0.0131 -0.009,0.004 -0.0174,0.009 -0.0257,0.0135 -0.009,0.005 -0.0166,0.009 -0.0246,0.0138 -0.008,0.005 -0.0156,0.009 -0.0232,0.014 -0.008,0.005 -0.0149,0.01 -0.022,0.0143 -0.007,0.005 -0.0142,0.01 -0.0209,0.0147 -0.007,0.005 -0.0132,0.01 -0.0195,0.0148 -0.006,0.005 -0.0121,0.0101 -0.018,0.0152 -0.006,0.005 -0.0115,0.0102 -0.0168,0.0153 -0.006,0.005 -0.0106,0.0103 -0.0154,0.0155 -0.005,0.005 -0.01,0.0105 -0.014,0.0159 -0.005,0.005 -0.009,0.0108 -0.0124,0.0162 -0.004,0.005 -0.008,0.0107 -0.0111,0.0162 -0.004,0.005 -0.007,0.011 -0.01,0.0165 -0.003,0.006 -0.006,0.0112 -0.008,0.0169 -0.002,0.006 -0.005,0.0112 -0.007,0.0169 -0.002,0.006 -0.004,0.0115 -0.005,0.0172 -9.7e-4,0.006 -0.002,0.0114 -0.003,0.0172 -6.8e-4,0.006 -9.7e-4,0.0117 -0.002,0.0175 -2.8e-4,0.006 -2.8e-4,0.0118 0,0.0177 2.7e-4,0.007 9.7e-4,0.0146 0.002,0.0218 9.5e-4,0.007 0.003,0.0143 0.005,0.0213 0.002,0.007 0.004,0.014 0.007,0.0211 0.003,0.007 0.006,0.0138 0.009,0.0206 0.003,0.007 0.007,0.0134 0.0111,0.0201 0.004,0.007 0.009,0.0134 0.0133,0.02 0.005,0.007 0.01,0.0131 0.0154,0.0196 0.006,0.006 0.0115,0.0129 0.0179,0.0193 0.007,0.006 0.0129,0.0126 0.02,0.0189 0.007,0.006 0.0144,0.0126 0.0222,0.0187 0.008,0.006 0.0161,0.0123 0.0248,0.0184 0.009,0.006 0.0176,0.0122 0.0269,0.0182 0.01,0.006 0.0191,0.012 0.0292,0.0179 0.0101,0.006 0.0205,0.0117 0.0314,0.0175 0.0109,0.006 0.0222,0.0118 0.034,0.0176 0.0117,0.006 0.0239,0.0115 0.0363,0.0172 0.0133,0.006 0.0271,0.0121 0.0413,0.0181 0.0143,0.006 0.029,0.0118 0.0443,0.0175 0.0152,0.006 0.0309,0.0113 0.0469,0.0169 0.016,0.006 0.0325,0.0111 0.0492,0.0164 0.0168,0.005 0.034,0.0104 0.0514,0.0155 0.0176,0.005 0.0353,0.0102 0.0535,0.015 0.0181,0.005 0.0367,0.01 0.0555,0.0142 0.0187,0.005 0.0378,0.009 0.057,0.0133 0.0192,0.004 0.0387,0.008 0.0585,0.0124 0.0197,0.004 0.0397,0.008 0.0599,0.0116 0.0201,0.004 0.0404,0.007 0.0609,0.0108 0.0205,0.003 0.0412,0.007 0.0618,0.01 0.0207,0.003 0.0414,0.006 0.0624,0.009 0.0209,0.003 0.042,0.005 0.0631,0.008 0.0211,0.002 0.0421,0.005 0.0632,0.006 0.0211,0.002 0.0422,0.004 0.0634,0.005 0.0487,0.004 0.10072,0.008 0.1155,0.009 0.008,6.9e-4 0.0216,9.7e-4 0.0413,10e-4 0.0197,2.8e-4 0.0447,6.9e-4 0.0733,6.9e-4 0.0572,-4e-5 0.12875,-6.9e-4 0.20056,-0.002 0.0718,-9.7e-4 0.14394,-0.002 0.20257,-0.004 0.0293,-7e-4 0.0552,-0.002 0.076,-0.002 0.0209,-9.6e-4 0.0366,-0.002 0.0454,-0.003 0.0351,-0.003 0.0696,-0.007 0.10356,-0.0111 0.034,-0.004 0.0673,-0.008 0.10002,-0.013 0.0327,-0.005 0.0647,-0.009 0.0962,-0.0147 0.0313,-0.005 0.0621,-0.0108 0.0921,-0.0165 0.03,-0.006 0.0593,-0.0117 0.0879,-0.0181 0.0286,-0.006 0.0564,-0.0129 0.0836,-0.0198 0.0136,-0.003 0.027,-0.007 0.0402,-0.0104 0.0132,-0.004 0.026,-0.007 0.0388,-0.0109 0.0128,-0.004 0.0254,-0.007 0.0379,-0.0112 0.0124,-0.004 0.0247,-0.008 0.0367,-0.0116 0.012,-0.004 0.0239,-0.008 0.0354,-0.0121 0.0115,-0.004 0.0229,-0.008 0.0342,-0.0123 0.0112,-0.004 0.0222,-0.008 0.033,-0.0128 0.0108,-0.004 0.0213,-0.009 0.0315,-0.013 0.0104,-0.004 0.0206,-0.009 0.0304,-0.0135 0.01,-0.005 0.0196,-0.009 0.0291,-0.0136 0.01,-0.005 0.0187,-0.009 0.0278,-0.0141 0.009,-0.005 0.0179,-0.009 0.0264,-0.0143 0.009,-0.005 0.017,-0.01 0.025,-0.0146 0.008,-0.005 0.0161,-0.01 0.0237,-0.015 0.008,-0.005 0.015,-0.0102 0.0222,-0.0153 0.007,-0.005 0.0142,-0.0104 0.0209,-0.0157 0.007,-0.005 0.0131,-0.0105 0.0193,-0.0159 0.006,-0.005 0.0122,-0.0108 0.0179,-0.0162 0.006,-0.005 0.0111,-0.0108 0.0163,-0.0164 0.005,-0.006 0.0103,-0.0111 0.0149,-0.0167 0.005,-0.006 0.009,-0.0113 0.0133,-0.0169 0.004,-0.006 0.008,-0.0111 0.0115,-0.0167 0.004,-0.006 0.007,-0.0111 0.01,-0.0167 0.003,-0.006 0.006,-0.0112 0.008,-0.0169 0.002,-0.006 0.005,-0.0114 0.007,-0.0172 0.002,-0.006 0.003,-0.0116 0.005,-0.0175 9.7e-4,-0.006 0.002,-0.0122 0.003,-0.0184 9.5e-4,-0.006 0.002,-0.0126 0.002,-0.0191 2.7e-4,-0.008 6.8e-4,-0.0154 6.8e-4,-0.0218 -7e-5,-0.003 -2.7e-4,-0.006 -6.8e-4,-0.009 -2.7e-4,-0.003 -6.8e-4,-0.006 -9.7e-4,-0.009 -6.8e-4,-0.003 -9.5e-4,-0.006 -0.002,-0.009 -6.8e-4,-0.003 -0.002,-0.006 -0.003,-0.009 -0.002,-0.006 -0.005,-0.0136 -0.008,-0.0222 -0.002,-0.006 -0.005,-0.0116 -0.008,-0.0174 -0.003,-0.006 -0.006,-0.0113 -0.01,-0.0171 -0.004,-0.006 -0.007,-0.0114 -0.0111,-0.0171 -0.004,-0.006 -0.008,-0.0111 -0.0126,-0.0167 -0.005,-0.006 -0.01,-0.0112 -0.0143,-0.0167 -0.005,-0.005 -0.0103,-0.011 -0.0158,-0.0164 -0.006,-0.005 -0.0113,-0.0107 -0.0173,-0.016 -0.006,-0.005 -0.0124,-0.0108 -0.019,-0.016 -0.007,-0.005 -0.0133,-0.0105 -0.0204,-0.0157 -0.007,-0.005 -0.0144,-0.0103 -0.0218,-0.0153 -0.008,-0.005 -0.0151,-0.0102 -0.0232,-0.0152 -0.008,-0.005 -0.0162,-0.01 -0.0247,-0.0148 -0.009,-0.005 -0.0172,-0.01 -0.026,-0.0145 -0.009,-0.005 -0.0181,-0.01 -0.0274,-0.0143 -0.01,-0.005 -0.0191,-0.009 -0.0289,-0.0138 -0.01,-0.005 -0.0198,-0.009 -0.0301,-0.0136 -0.0103,-0.005 -0.0208,-0.009 -0.0315,-0.0133 -0.0107,-0.004 -0.0215,-0.009 -0.0326,-0.013 -0.0111,-0.004 -0.0224,-0.008 -0.034,-0.0126 -0.0115,-0.004 -0.0231,-0.008 -0.0349,-0.0123 -0.0119,-0.004 -0.024,-0.008 -0.0363,-0.0118 -0.0123,-0.004 -0.0247,-0.008 -0.0375,-0.0114 -0.0127,-0.004 -0.0256,-0.007 -0.0386,-0.0111 -0.0131,-0.004 -0.0264,-0.007 -0.0399,-0.0108 -0.0134,-0.003 -0.0271,-0.007 -0.0409,-0.0102 -0.0138,-0.003 -0.0278,-0.007 -0.0418,-0.01 -0.0283,-0.006 -0.0573,-0.0125 -0.087,-0.0182 -0.0297,-0.006 -0.06,-0.0114 -0.0909,-0.0165 -0.031,-0.005 -0.0625,-0.01 -0.0946,-0.0143 -0.0326,-0.005 -0.0655,-0.009 -0.0984,-0.0126 -0.0328,-0.004 -0.0656,-0.007 -0.0985,-0.0101 -0.0329,-0.003 -0.0658,-0.006 -0.0987,-0.008 -0.0329,-0.002 -0.0659,-0.004 -0.0987,-0.006 -0.0328,-0.002 -0.0657,-0.003 -0.0983,-0.004 -0.0327,-6.9e-4 -0.0652,-9.6e-4 -0.0977,-10e-4 z" /><path
         id="path84552-0-2-9-1"
         style="font-size:18.6667px;line-height:1.25;white-space:pre;fill:#f2f2f2;fill-opacity:1;stroke-width:0.007;stroke-dasharray:none"
         d="m 325.22317,-379.70676 c -0.005,-6.9e-4 -0.005,0.0728 -0.004,0.36838 l 10e-4,0.38886 0.0138,0.0332 c 0.008,0.0183 0.0279,0.0498 0.0452,0.07 0.1705,0.19987 0.6658,0.35056 1.28627,0.39135 l -7e-5,-7e-5 c 0.11883,0.008 0.47201,0.008 0.59074,5.5e-4 0.21407,-0.0138 0.4008,-0.0376 0.57511,-0.0732 0.41483,-0.0849 0.70516,-0.23132 0.77058,-0.38865 l 0.0138,-0.0332 10e-4,-0.38886 c 9.8e-4,-0.33785 9e-5,-0.38556 -0.007,-0.36397 -0.0656,0.20803 -0.46542,0.38493 -1.04015,0.46018 -0.22495,0.0294 -0.29661,0.0334 -0.60196,0.0334 -0.30535,0 -0.37709,-0.004 -0.60203,-0.0334 -0.57502,-0.0753 -0.97447,-0.25205 -1.04008,-0.46018 -8.4e-4,-0.003 -0.002,-0.004 -0.002,-0.004 z m 2.88655,0.52829 a 0.12773154,0.12549734 0 0 1 0.12773,0.1255 0.12773154,0.12549734 0 0 1 -0.12773,0.12549 0.12773154,0.12549734 0 0 1 -0.12773,-0.12549 0.12773154,0.12549734 0 0 1 0.12773,-0.1255 z m -0.37783,0.10125 a 0.12773154,0.12549734 0 0 1 0.12773,0.1255 0.12773154,0.12549734 0 0 1 -0.12773,0.1255 0.12773154,0.12549734 0 0 1 -0.12773,-0.1255 0.12773154,0.12549734 0 0 1 0.12773,-0.1255 z m -0.38616,0.0651 a 0.12773154,0.12549734 0 0 1 0.12773,0.1255 0.12773154,0.12549734 0 0 1 -0.12773,0.12549 0.12773154,0.12549734 0 0 1 -0.12773,-0.12549 0.12773154,0.12549734 0 0 1 0.12773,-0.1255 z m 1.16614,0.24907 c -7e-4,1.4e-4 -10e-4,0.002 -0.002,0.004 -0.0887,0.28393 -0.79249,0.49694 -1.64203,0.49694 -0.1862,0 -0.31993,-0.007 -0.4861,-0.0237 -0.63018,-0.065 -1.08617,-0.25171 -1.15602,-0.47326 -0.007,-0.0216 -0.008,0.0261 -0.007,0.36397 l 10e-4,0.38886 0.0135,0.0321 c 0.0964,0.23018 0.63304,0.4155 1.34033,0.46274 0.11155,0.007 0.57139,0.003 0.67549,-0.006 0.21158,-0.0191 0.39989,-0.0475 0.5568,-0.084 0.39877,-0.0927 0.65644,-0.23716 0.70364,-0.39447 0.007,-0.0245 0.008,-0.0845 0.008,-0.40834 -2.8e-4,-0.28863 -10e-4,-0.36039 -0.006,-0.35936 z m -3.28863,0.94403 c -0.005,-0.002 -0.006,0.0673 -0.006,0.36163 l -2.8e-4,0.38218 0.0162,0.0404 c 0.0713,0.17712 0.40755,0.33429 0.88709,0.4146 0.17257,0.0289 0.2798,0.0404 0.52655,0.0562 h 2.8e-4 c 0.0708,0.004 0.51198,-0.002 0.59053,-0.009 0.68644,-0.0593 1.17376,-0.23723 1.26406,-0.46167 l 0.0163,-0.0404 -2.8e-4,-0.38217 c -2.8e-4,-0.33642 -0.001,-0.37916 -0.008,-0.35672 -0.0661,0.21192 -0.49721,0.39469 -1.09913,0.466 -0.18668,0.0221 -0.27989,0.0267 -0.54269,0.0267 -0.26281,0 -0.35594,-0.005 -0.54262,-0.0267 -0.60193,-0.0713 -1.0331,-0.25408 -1.0992,-0.466 -8.4e-4,-0.003 -0.002,-0.005 -0.002,-0.005 z" /><g
         id="g39888"
         style="fill:#f2f2f2;fill-opacity:1"
         transform="matrix(0.09890539,0,0,0.10442164,367.72434,-391.13724)"><path
           d="m -228.07739,109.39237 v 31.59068 h -7.7551 v -31.59068 h -7.09037 v -7.62534 h 21.88044 v 7.62534 z"
           style="font-size:40px;line-height:1.25;white-space:pre;fill:#f2f2f2;fill-opacity:1;stroke-width:1.83154"
           id="path76388-7-4-6-4-3-9" /><path
           d="m -161.47155,140.98305 -8.91836,-12.95734 -8.58599,12.95734 h -9.25071 l 13.23903,-19.49334 -13.23903,-19.72268 h 9.25071 l 8.58599,13.12935 8.91836,-13.12935 h 9.02913 l -13.34982,19.72268 13.34982,19.49334 z"
           style="font-size:40px;line-height:1.25;white-space:pre;fill:#f2f2f2;fill-opacity:1;stroke-width:1.83154"
           id="path76392-2-0-9-7-1-7" /><g
           id="g39880"
           style="fill:#f2f2f2;fill-opacity:1"><path
             id="rect37146-3"
             style="fill:#f2f2f2;fill-opacity:1;stroke:none;stroke-width:1.10742;stroke-dasharray:none;stroke-opacity:1"
             d="m -220.0803,111.16969 v 7.16721 h 29.8978 v -7.16721 z m 14.75008,1.65615 a 1.862081,1.9272896 0 0 1 1.86165,1.92808 1.862081,1.9272896 0 0 1 -1.86165,1.92685 1.862081,1.9272896 0 0 1 -1.86285,-1.92685 1.862081,1.9272896 0 0 1 1.86285,-1.92808 z m 4.98729,0 a 1.862081,1.9272896 0 0 1 1.86166,1.92808 1.862081,1.9272896 0 0 1 -1.86166,1.92685 1.862081,1.9272896 0 0 1 -1.86283,-1.92685 1.862081,1.9272896 0 0 1 1.86283,-1.92808 z m 4.98731,0 a 1.862081,1.9272896 0 0 1 1.86166,1.92808 1.862081,1.9272896 0 0 1 -1.86166,1.92685 1.862081,1.9272896 0 0 1 -1.86165,-1.92685 1.862081,1.9272896 0 0 1 1.86165,-1.92808 z" /><rect
             style="fill:#f2f2f2;fill-opacity:1;stroke:none;stroke-width:1.10742;stroke-dasharray:none;stroke-opacity:1"
             id="rect37146-6-8"
             width="29.897966"
             height="7.1671715"
             x="-220.08066"
             y="122.49277" /><rect
             style="fill:#f2f2f2;fill-opacity:1;stroke:none;stroke-width:1.10742;stroke-dasharray:none;stroke-opacity:1"
             id="rect37146-2-8"
             width="29.897966"
             height="7.1671715"
             x="-220.08066"
             y="133.81587" /></g></g></g></g><style
     type="text/css"
     id="style2">.st0{fill-rule:evenodd;clip-rule:evenodd;}</style><style
     type="text/css"
     id="style2-6">.st0{fill-rule:evenodd;clip-rule:evenodd;}</style></svg>
