<?xml version="1.0" encoding="UTF-8" standalone="no"?>
<!-- Created with Inkscape (http://www.inkscape.org/) -->

<svg
   width="128"
   height="48"
   viewBox="0 0 33.866624 12.700004"
   version="1.1"
   id="svg5"
   xml:space="preserve"
   inkscape:export-filename="./ψηφιογραφία.png"
   inkscape:export-xdpi="30.49"
   inkscape:export-ydpi="30.49"
   inkscape:version="1.2.2 (b0a8486541, 2022-12-01)"
   sodipodi:docname="datatex_white.svg"
   xmlns:inkscape="http://www.inkscape.org/namespaces/inkscape"
   xmlns:sodipodi="http://sodipodi.sourceforge.net/DTD/sodipodi-0.dtd"
   xmlns="http://www.w3.org/2000/svg"
   xmlns:svg="http://www.w3.org/2000/svg"><sodipodi:namedview
     id="namedview7"
     pagecolor="#505050"
     bordercolor="#ffffff"
     borderopacity="1"
     inkscape:showpageshadow="0"
     inkscape:pageopacity="0"
     inkscape:pagecheckerboard="1"
     inkscape:deskcolor="#505050"
     inkscape:document-units="mm"
     showgrid="false"
     inkscape:zoom="5.5703397"
     inkscape:cx="39.853943"
     inkscape:cy="22.530044"
     inkscape:window-width="1366"
     inkscape:window-height="694"
     inkscape:window-x="0"
     inkscape:window-y="0"
     inkscape:window-maximized="1"
     inkscape:current-layer="text293" /><defs
     id="defs2"><rect
       x="48.463921"
       y="-4.6255555"
       width="66.298515"
       height="56.582798"
       id="rect295" /><rect
       x="618.3222"
       y="128.32988"
       width="507.40704"
       height="342.70807"
       id="rect3353" /></defs><g
     inkscape:label="Στρώση 1"
     inkscape:groupmode="layer"
     id="layer1"
     transform="translate(-320.95598,384.77756)"><g
       id="g8631-5-3"
       transform="matrix(0.10906299,0,0,0.10906299,315.99112,-392.59168)"
       style="fill:#f2f2f2;fill-opacity:1"><path
         style="color:#000000;fill:#f2f2f2;fill-opacity:1;stroke-width:0.660111"
         d="M 97.334089,91.701184 67.7275,108.91478 a 4.5376733,4.5376733 0 0 0 -2.256879,3.93659 l 0.103991,34.24717 a 4.5375989,4.5375989 0 0 0 2.280765,3.92279 l 29.711837,17.03362 a 4.5376965,4.5376965 0 0 0 4.537646,-0.0142 l 29.6066,-17.21359 a 3.445093,3.445093 0 0 0 2.26087,-2.59962 l -0.10802,-35.58414 a 4.5376082,4.5376082 0 0 0 -2.28076,-3.92279 L 101.87178,91.687033 a 4.5376904,4.5376904 0 0 0 -4.537628,0.01415 z m 4.553121,5.114912 25.26247,14.482224 a 4.5375185,4.5375185 0 0 1 2.28081,3.92275 l 0.0885,29.11841 a 4.5377363,4.5377363 0 0 1 -2.25686,3.93665 l -25.17279,14.63622 a 4.5377116,4.5377116 0 0 1 -4.537654,0.0142 L 72.289251,148.44428 a 4.5375212,4.5375212 0 0 1 -2.280795,-3.92274 l -0.08851,-29.11843 a 4.5377385,4.5377385 0 0 1 2.256851,-3.93663 L 97.349576,96.830262 a 4.53771,4.53771 0 0 1 4.537644,-0.01415 z"
         id="path28632-3-6"
         sodipodi:nodetypes="ccccccccccccccc" /></g><path
       style="fill:#f2f2f2;stroke:#f2f2f2;stroke-width:0.2;stroke-linecap:butt;stroke-linejoin:miter;stroke-dasharray:none;stroke-opacity:1"
       d="m 326.89881,-374.97984 v -1.21735"
       id="path14948-5-0" /><path
       style="fill:#f2f2f2;stroke:#f2f2f2;stroke-width:0.2;stroke-linecap:butt;stroke-linejoin:miter;stroke-dasharray:none;stroke-opacity:1"
       d="m 323.87603,-380.17675 1.05425,0.60868"
       id="path14948-7-6-6" /><path
       style="fill:#f2f2f2;stroke:#f2f2f2;stroke-width:0.2;stroke-linecap:butt;stroke-linejoin:miter;stroke-dasharray:none;stroke-opacity:1"
       d="m 329.86641,-380.1565 -1.05426,0.60867"
       id="path14948-7-5-2-2" /><path
       d="m 328.51743,-379.77481 v 0.33681 c 0,0.29682 -0.73923,0.5389 -1.65038,0.5389 -0.91116,0 -1.65039,-0.24208 -1.65039,-0.5389 v -0.33681 c 0,-0.29682 0.73923,-0.5389 1.65039,-0.5389 0.91115,0 1.65038,0.24208 1.65038,0.5389 z m 0,0.75783 v 0.75783 c 0,0.29682 -0.73923,0.5389 -1.65038,0.5389 -0.91116,0 -1.65039,-0.24208 -1.65039,-0.5389 v -0.75783 c 0.35457,0.24419 1.00355,0.35787 1.65039,0.35787 0.64683,0 1.2958,-0.11368 1.65038,-0.35787 z m 0,1.17885 v 0.75783 c 0,0.29682 -0.73923,0.5389 -1.65038,0.5389 -0.91116,0 -1.65039,-0.24208 -1.65039,-0.5389 v -0.75783 c 0.35457,0.24419 1.00355,0.35787 1.65039,0.35787 0.64683,0 1.2958,-0.11368 1.65038,-0.35787 z"
       id="path2"
       style="fill:#f2f2f2;stroke-width:0.0073678" /><g
       aria-label="DataTex"
       transform="matrix(0.41689879,0,0,0.41689879,310.74795,-381.56879)"
       id="text293"
       style="font-size:18.6667px;line-height:1.25;white-space:pre;shape-inside:url(#rect295);fill:#f2f2f2"><path
         d="m 54.868958,11.813725 q -1.091284,0.531283 -3.216416,0.545642 H 49.268948 V 2.5378112 h 2.340517 q 2.326158,0 3.532314,0.703591 1.680003,0.9907711 2.082055,3.0728261 0.114872,0.560001 0.114872,1.163079 0,2.2256451 -1.392823,3.5897497 -0.02872,0.01436 -0.04308,0.02872 -0.459488,0.43077 -1.033848,0.71795 z m -1.00513,-6.9784737 q -0.761027,-0.387693 -2.311799,-0.387693 h -0.272821 v 6.0164207 h 0.301539 q 1.565131,0 2.340517,-0.43077 0.976412,-0.5169236 1.277951,-1.7374387 0.100513,-0.402052 0.100513,-0.818463 0,-1.550772 -0.990771,-2.354876 -0.201026,-0.172308 -0.445129,-0.28718 z"
         style="font-weight:bold;font-family:KerkisSans;-inkscape-font-specification:'KerkisSans Bold'"
         id="path401" /><path
         d="m 64.159228,12.359367 v -0.775386 q -0.904617,0.904617 -2.340517,0.947694 -1.794875,0 -2.886159,-1.263592 -0.890258,-1.033848 -0.890258,-2.5271837 0,-1.823593 1.263592,-2.929236 1.048207,-0.918976 2.555902,-0.918976 1.4359,0 2.283081,0.947694 v -0.775386 h 1.809234 V 12.359367 Z M 62.048455,6.6588443 q -1.14872,0 -1.708721,0.918976 -0.330257,0.516924 -0.330257,1.206156 0,1.1630791 0.918976,1.6943617 0.502565,0.28718 1.14872,0.28718 0.976412,0 1.507695,-0.603078 0.516924,-0.5887186 0.516924,-1.3928227 0,-1.220515 -0.918976,-1.794875 -0.488206,-0.315898 -1.134361,-0.315898 z"
         style="font-weight:bold;font-family:KerkisSans;-inkscape-font-specification:'KerkisSans Bold'"
         id="path403" /><path
         d="M 69.256663,6.7737163 V 12.359367 H 67.303839 V 6.7737163 h -0.86154 v -1.766157 h 0.86154 V 2.6383242 h 1.938465 v 2.3692351 h 1.062566 v 1.766157 z"
         style="font-weight:bold;font-family:KerkisSans;-inkscape-font-specification:'KerkisSans Bold'"
         id="path405" /><path
         d="m 76.780777,12.359367 v -0.775386 q -0.904617,0.904617 -2.340517,0.947694 -1.794875,0 -2.886159,-1.263592 -0.890258,-1.033848 -0.890258,-2.5271837 0,-1.823593 1.263592,-2.929236 1.048207,-0.918976 2.555902,-0.918976 1.4359,0 2.283081,0.947694 v -0.775386 h 1.809234 V 12.359367 Z M 74.670004,6.6588443 q -1.14872,0 -1.708721,0.918976 -0.330257,0.516924 -0.330257,1.206156 0,1.1630791 0.918976,1.6943617 0.502565,0.28718 1.14872,0.28718 0.976412,0 1.507695,-0.603078 0.516924,-0.5887186 0.516924,-1.3928227 0,-1.220515 -0.918976,-1.794875 -0.488206,-0.315898 -1.134361,-0.315898 z"
         style="font-weight:bold;font-family:KerkisSans;-inkscape-font-specification:'KerkisSans Bold'"
         id="path407" /><path
         d="m 82.883343,4.4475583 v 7.9118087 h -2.01026 V 4.4475583 H 79.035131 V 2.5378112 h 5.671805 v 1.9097471 z"
         style="font-weight:bold;font-family:KerkisSans;-inkscape-font-specification:'KerkisSans Bold'"
         id="path409" /><path
         d="M 92.633111,9.5737214 H 87.04746 q 0.28718,0.9046166 1.306669,1.1343606 0.272821,0.05744 0.57436,0.05744 0.86154,0 1.407182,-0.531283 0.07179,-0.07179 0.157949,-0.172308 h 2.082055 q -0.201026,0.631796 -0.631796,1.14872 -1.14872,1.321028 -2.972313,1.321028 -1.823593,0 -3.01539,-1.220515 -1.048207,-1.076925 -1.048207,-2.5702607 0,-1.680003 1.234874,-2.814364 1.134361,-1.033848 2.713851,-1.033848 1.809234,0 2.929236,1.277951 0.947694,1.091284 0.947694,2.6420561 0,0.301539 -0.100513,0.761027 z M 88.885412,6.6588443 q -1.450259,0 -1.895388,1.206156 h 3.776417 q -0.344616,-1.206156 -1.881029,-1.206156 z"
         style="font-weight:bold;font-family:KerkisSans;-inkscape-font-specification:'KerkisSans Bold'"
         id="path411" /><path
         d="M 98.161331,12.359367 96.682354,10.01885 95.203377,12.359367 H 92.86286 l 2.642056,-3.7620577 -2.29744,-3.532314 h 2.211286 l 1.263592,2.053337 1.234874,-2.053337 h 2.211282 l -2.283077,3.532314 2.656417,3.7620577 z"
         style="font-weight:bold;font-family:KerkisSans;-inkscape-font-specification:'KerkisSans Bold'"
         id="path413" /></g></g><style
     type="text/css"
     id="style2">.st0{fill-rule:evenodd;clip-rule:evenodd;}</style></svg>
