<?xml version="1.0" encoding="UTF-8" standalone="no"?>
<svg
   viewBox="0 0 576 512"
   version="1.1"
   id="svg1"
   sodipodi:docname="plug-circle-minus.svg"
   inkscape:version="1.3 (0e150ed6c4, 2023-07-21)"
   xmlns:inkscape="http://www.inkscape.org/namespaces/inkscape"
   xmlns:sodipodi="http://sodipodi.sourceforge.net/DTD/sodipodi-0.dtd"
   xmlns="http://www.w3.org/2000/svg"
   xmlns:svg="http://www.w3.org/2000/svg">
  <defs
     id="defs1" />
  <sodipodi:namedview
     id="namedview1"
     pagecolor="#505050"
     bordercolor="#eeeeee"
     borderopacity="1"
     inkscape:showpageshadow="0"
     inkscape:pageopacity="0"
     inkscape:pagecheckerboard="0"
     inkscape:deskcolor="#d1d1d1"
     inkscape:zoom="0.77951389"
     inkscape:cx="288"
     inkscape:cy="255.92873"
     inkscape:window-width="1366"
     inkscape:window-height="694"
     inkscape:window-x="0"
     inkscape:window-y="0"
     inkscape:window-maximized="1"
     inkscape:current-layer="svg1" />
  <!--! Font Awesome Free 6.4.0 by @fontawesome - https://fontawesome.com License - https://fontawesome.com/license/free (Icons: CC BY 4.0, Fonts: SIL OFL 1.1, Code: MIT License) Copyright 2023 Fonticons, Inc. -->
  <path
     d="M96 0C78.3 0 64 14.3 64 32v96h64V32c0-17.7-14.3-32-32-32zM288 0c-17.7 0-32 14.3-32 32v96h64V32c0-17.7-14.3-32-32-32zM32 160c-17.7 0-32 14.3-32 32s14.3 32 32 32v32c0 77.4 55 142 128 156.8V480c0 17.7 14.3 32 32 32s32-14.3 32-32V412.8c12.3-2.5 24.1-6.4 35.1-11.5c-2.1-10.8-3.1-21.9-3.1-33.3c0-80.3 53.8-148 127.3-169.2c.5-2.2 .7-4.5 .7-6.8c0-17.7-14.3-32-32-32H32zM576 368a144 144 0 1 0 -288 0 144 144 0 1 0 288 0zm-64 0c0 8.8-7.2 16-16 16H368c-8.8 0-16-7.2-16-16s7.2-16 16-16H496c8.8 0 16 7.2 16 16z"
     id="path1"
     style="fill:#f2f2f2" />
  <path
     style="fill:#ff2a2a;stroke-width:87.2743;stroke-linecap:round;stroke-linejoin:round;stroke-miterlimit:14.9;paint-order:markers fill stroke"
     d="m 416.7556,510.54176 c -25.6951,-2.89197 -51.04799,-13.12366 -71.8082,-28.97971 -3.95733,-3.02248 -12.03929,-10.64387 -17.95991,-16.93641 -59.90496,-63.66801 -47.79298,-165.82948 25.55925,-215.58592 50.38022,-34.17401 118.27594,-31.89312 167.00783,5.61045 27.00687,20.78422 46.9217,53.44747 53.33104,87.47075 3.18119,16.88697 1.96412,46.80263 -2.56804,63.12297 -12.29717,44.28214 -44.57329,79.96031 -87.32425,96.52866 -19.51019,7.56127 -45.91303,11.05673 -66.23772,8.76921 z m 87.01435,-128.19578 c 5.81969,-3.5485 8.50557,-8.26297 8.40739,-14.75735 -0.0974,-6.44461 -3.04299,-11.59109 -8.14378,-14.22881 -5.55959,-2.87498 -138.09416,-2.75704 -143.67293,0.12785 -8.26649,4.27477 -11.2152,15.30097 -6.26375,23.42229 4.82653,7.91645 4.07125,7.84026 78.22383,7.89027 64.54218,0.0435 67.52056,-0.0588 71.44924,-2.45425 z"
     id="path2" />
</svg>
