<?xml version="1.0" encoding="UTF-8" standalone="no"?>
<svg
   viewBox="0 0 512 512"
   version="1.1"
   id="svg1"
   sodipodi:docname="server.svg"
   xml:space="preserve"
   inkscape:version="1.3 (0e150ed6c4, 2023-07-21)"
   xmlns:inkscape="http://www.inkscape.org/namespaces/inkscape"
   xmlns:sodipodi="http://sodipodi.sourceforge.net/DTD/sodipodi-0.dtd"
   xmlns="http://www.w3.org/2000/svg"
   xmlns:svg="http://www.w3.org/2000/svg"><defs
     id="defs1" /><sodipodi:namedview
     id="namedview1"
     pagecolor="#505050"
     bordercolor="#eeeeee"
     borderopacity="1"
     inkscape:showpageshadow="0"
     inkscape:pageopacity="0"
     inkscape:pagecheckerboard="0"
     inkscape:deskcolor="#d1d1d1"
     inkscape:zoom="0.6253882"
     inkscape:cx="207.07138"
     inkscape:cy="312.60583"
     inkscape:window-width="1366"
     inkscape:window-height="694"
     inkscape:window-x="0"
     inkscape:window-y="0"
     inkscape:window-maximized="1"
     inkscape:current-layer="svg1"
     showguides="false" /><!--! Font Awesome Free 6.4.0 by @fontawesome - https://fontawesome.com License - https://fontawesome.com/license/free (Icons: CC BY 4.0, Fonts: SIL OFL 1.1, Code: MIT License) Copyright 2023 Fonticons, Inc. --><path
     style="color:#000000;fill:#ff2a2a;-inkscape-stroke:none"
     d="M 455.76758,29.505859 29.505859,455.76758 56.232422,482.49414 482.49414,56.232422 Z"
     id="path7" /><path
     id="path6"
     style="color:#000000;fill:#f2f2f2;-inkscape-stroke:none"
     d="m 149.56055,16.513672 c -17.14528,0 -31.08594,13.938725 -31.08594,31.083984 V 187.48047 c 0,17.14525 13.94066,31.08594 31.08594,31.08594 h 85.48437 l -5.16601,15.44921 77.61914,-77.61914 H 149.56055 V 47.597656 H 367.1543 V 96.740234 L 398.24023,65.654297 V 47.597656 c 0,-17.145259 -13.94068,-31.083984 -31.08593,-31.083984 z m 248.67968,145.351558 -56.70117,56.70118 h 25.61524 c 17.14525,0 31.08593,-13.94069 31.08593,-31.08594 z M 196.1875,234.10938 c -8.59691,0 -15.54297,6.9441 -15.54297,15.54101 0,8.59692 6.94606,15.54297 15.54297,15.54297 h 2.51367 l 31.08399,-31.08398 z m 129.01758,0.79101 -30.29297,30.29297 h 25.61523 c 8.59694,0 15.54297,-6.94605 15.54297,-15.54297 0,-6.95488 -4.57682,-12.76016 -10.86523,-14.75 z m -68.57227,68.57227 -5.36328,5.36328 h 133.23242 v 18.42968 c -39.60007,0.51302 -71.29101,12.1039 -71.29101,26.37891 v 15.85742 c 0,14.6018 33.13484,26.42969 74,26.42969 40.86515,0 74,-11.82789 74,-26.42969 v -15.85742 c 0,-13.32213 -27.61077,-24.30304 -63.48047,-26.13086 V 295.60742 H 264.49805 l -1.88477,1.88477 z m -142.36328,-7.86524 v 31.13867 c -35.869718,1.82782 -63.480468,12.81068 -63.480468,26.13282 v 15.85742 c 0,7.81625 9.675331,14.76424 24.767579,19.60156 l 61.384769,-61.38477 c -3.1198,-0.18556 -6.20476,-0.41312 -9.44336,-0.45507 v -17.66211 h 27.56054 l 13.22852,-13.22852 z m 84.51953,65.70899 -27.96094,27.96093 c 16.91468,-4.84222 27.96094,-12.19259 27.96094,-20.54101 z M 50.789062,387.92969 v 25.17578 L 67.183594,396.71094 C 60.98805,394.37042 55.29362,391.49705 50.789062,387.92969 Z m 147.999998,0 c -4.9223,3.86515 -11.2321,7.00265 -18.10351,9.44726 -6.93992,2.47303 -15.03145,4.40789 -23.78125,5.82422 l -44.37891,44.37891 c 4.00994,0.24015 8.06276,0.4414 12.26367,0.4414 40.86515,0 74,-11.82792 74,-26.42968 z m 114.42188,0.76562 v 33.66407 c 0,14.60176 33.13484,26.42968 74,26.42968 40.86515,0 74,-11.82792 74,-26.42968 v -33.66407 c -4.92233,3.86518 -11.23209,7.00458 -18.10352,9.44922 -14.83301,5.28573 -34.58846,8.35742 -55.89648,8.35742 -21.30803,0 -41.06345,-3.07169 -55.89649,-8.35742 -6.87142,-2.44464 -13.1812,-5.55099 -18.10351,-9.44922 z m -114.42188,52.0918 c -4.9223,3.86518 -11.2321,7.00263 -18.10351,9.44727 -14.83303,5.2857 -34.58847,8.35742 -55.89649,8.35742 -7.62879,0 -14.92975,-0.52144 -22.00586,-1.26953 l -30.472653,30.47265 c 13.404417,4.81627 31.963463,7.79883 52.478513,7.79883 40.86515,0 74,-11.82791 74,-26.42969 z m 114.42188,0.76562 v 28.37891 c 0,14.60178 33.13484,26.42774 74,26.42774 40.86515,0 74,-11.82596 74,-26.42774 v -28.37891 c -4.92233,3.86518 -11.23209,7.00461 -18.10352,9.44922 -14.83301,5.28573 -34.58846,8.35742 -55.89648,8.35743 -21.30803,-10e-6 -41.06345,-3.0717 -55.89649,-8.35743 -6.87142,-2.44461 -13.1812,-5.55099 -18.10351,-9.44922 z"
     sodipodi:nodetypes="ssssccccccccsssccsscsssccsccsscccccssssscccccccsscccccccccscccccccccssccsssccsccccsccssccsssccscc" /><g
     id="g1"
     transform="translate(-10.29485,2)"
     style="fill:#ff2a2a" /></svg>
