<?xml version="1.0" encoding="UTF-8" standalone="no"?>
<!-- Created with Inkscape (http://www.inkscape.org/) -->

<svg
   width="128"
   height="128"
   viewBox="0 0 33.866666 33.866667"
   version="1.1"
   id="svg5"
   inkscape:version="1.2.2 (b0a8486541, 2022-12-01)"
   sodipodi:docname="σχεδίαση.svg"
   xml:space="preserve"
   xmlns:inkscape="http://www.inkscape.org/namespaces/inkscape"
   xmlns:sodipodi="http://sodipodi.sourceforge.net/DTD/sodipodi-0.dtd"
   xmlns="http://www.w3.org/2000/svg"
   xmlns:svg="http://www.w3.org/2000/svg"><sodipodi:namedview
     id="namedview7"
     pagecolor="#505050"
     bordercolor="#eeeeee"
     borderopacity="1"
     inkscape:showpageshadow="0"
     inkscape:pageopacity="0"
     inkscape:pagecheckerboard="0"
     inkscape:deskcolor="#505050"
     inkscape:document-units="mm"
     showgrid="false"
     inkscape:zoom="2.3786088"
     inkscape:cx="36.996416"
     inkscape:cy="72.73159"
     inkscape:window-width="1366"
     inkscape:window-height="694"
     inkscape:window-x="0"
     inkscape:window-y="0"
     inkscape:window-maximized="1"
     inkscape:current-layer="layer1" /><defs
     id="defs2"><rect
       x="7.9878625"
       y="68.107038"
       width="200.11697"
       height="95.013523"
       id="rect387" /><rect
       x="-96.244639"
       y="47.086347"
       width="219.45601"
       height="95.85435"
       id="rect369" /></defs><g
     inkscape:label="Στρώση 1"
     inkscape:groupmode="layer"
     id="layer1"><g
       id="g453"
       transform="translate(-0.90217765,2.2088038)"><g
         id="g446"
         transform="translate(-0.4325234)"><path
           d="M 8.6715161,10.362706 V 8.4920066 H 5.9204873 c -0.1829431,0 -0.3301236,0.14718 -0.3301236,0.3301237 v 6.3823877 c 0,0.182943 0.1471805,0.330124 0.3301236,0.330124 h 4.6217297 c 0.182943,0 0.330123,-0.147181 0.330123,-0.330124 V 10.69283 H 9.0016401 c -0.181568,0 -0.330124,-0.148556 -0.330124,-0.330124 z m 0.88033,3.246215 c 0,0.09078 -0.07428,0.165062 -0.165062,0.165062 H 7.0759196 c -0.090784,0 -0.1650618,-0.07428 -0.1650618,-0.165062 V 13.49888 c 0,-0.09078 0.074278,-0.165062 0.1650618,-0.165062 h 2.3108645 c 0.09078,0 0.165062,0.07428 0.165062,0.165062 z m 0,-0.880329 c 0,0.09078 -0.07428,0.165062 -0.165062,0.165062 H 7.0759196 c -0.090784,0 -0.1650618,-0.07428 -0.1650618,-0.165062 V 12.61855 c 0,-0.09078 0.074278,-0.165061 0.1650618,-0.165061 h 2.3108645 c 0.09078,0 0.165062,0.07428 0.165062,0.165061 z m 0,-0.990371 v 0.110041 c 0,0.09078 -0.07428,0.165062 -0.165062,0.165062 H 7.0759196 c -0.090784,0 -0.1650618,-0.07428 -0.1650618,-0.165062 v -0.110041 c 0,-0.09078 0.074278,-0.165061 0.1650618,-0.165061 h 2.3108645 c 0.09078,0 0.165062,0.07428 0.165062,0.165061 z M 10.87234,10.168759 v 0.08391 H 9.1116821 V 8.4920066 h 0.08391 c 0.08803,0 0.171939,0.034385 0.233837,0.096286 l 1.3466289,1.3480045 c 0.0619,0.0619 0.09629,0.1458049 0.09629,0.2324619 z"
           id="path2"
           style="fill:#f2f2f2;stroke-width:0.0137551" /><text
           xml:space="preserve"
           transform="matrix(0.33271755,0,0,0.33271755,43.926142,-12.363783)"
           id="text367"
           style="font-style:normal;font-weight:normal;font-size:40px;line-height:1.25;font-family:sans-serif;white-space:pre;shape-inside:url(#rect369);display:inline;fill:#f2f2f2;fill-opacity:1;stroke:none"><tspan
             x="-96.244141"
             y="83.480945"
             id="tspan469"><tspan
               style="font-weight:bold;font-family:KerkisSans;-inkscape-font-specification:'KerkisSans Bold'"
               id="tspan467">Files</tspan></tspan></text></g><text
         xml:space="preserve"
         transform="matrix(0.1725254,0,0,0.1725254,-0.73967257,4.7093007)"
         id="text385"
         style="font-style:normal;font-variant:normal;font-weight:normal;font-stretch:normal;font-size:18.6667px;line-height:0.75;font-family:KerkisSans;-inkscape-font-specification:KerkisSans;text-align:center;white-space:pre;shape-inside:url(#rect387);fill:#f2f2f2;fill-opacity:1;stroke:none"
         x="86.240227"
         y="0"><tspan
           x="35.404636"
           y="80.482662"
           id="tspan471">Create a new DataTeX
</tspan><tspan
           x="32.173884"
           y="94.482685"
           id="tspan473">database for LaTeX files.</tspan></text></g></g></svg>
