<?xml version="1.0" encoding="UTF-8" standalone="no"?>
<!-- Created with Inkscape (http://www.inkscape.org/) -->

<svg
   width="366.95224"
   height="430.05975"
   viewBox="0 0 97.089323 113.78668"
   version="1.1"
   id="svg5"
   xml:space="preserve"
   inkscape:export-filename="./ψηφιογραφία.png"
   inkscape:export-xdpi="30.49"
   inkscape:export-ydpi="30.49"
   inkscape:version="1.2.1 (9c6d41e410, 2022-07-14, custom)"
   sodipodi:docname="datatexfile_color.svg"
   xmlns:inkscape="http://www.inkscape.org/namespaces/inkscape"
   xmlns:sodipodi="http://sodipodi.sourceforge.net/DTD/sodipodi-0.dtd"
   xmlns="http://www.w3.org/2000/svg"
   xmlns:svg="http://www.w3.org/2000/svg"><sodipodi:namedview
     id="namedview7"
     pagecolor="#505050"
     bordercolor="#ffffff"
     borderopacity="1"
     inkscape:showpageshadow="0"
     inkscape:pageopacity="0"
     inkscape:pagecheckerboard="1"
     inkscape:deskcolor="#505050"
     inkscape:document-units="mm"
     showgrid="false"
     inkscape:zoom="1.9694125"
     inkscape:cx="156.6457"
     inkscape:cy="171.62479"
     inkscape:window-width="1366"
     inkscape:window-height="694"
     inkscape:window-x="0"
     inkscape:window-y="0"
     inkscape:window-maximized="1"
     inkscape:current-layer="layer1" /><defs
     id="defs2"><rect
       x="618.3222"
       y="128.32988"
       width="507.40704"
       height="342.70807"
       id="rect3353" /></defs><g
     inkscape:label="Στρώση 1"
     inkscape:groupmode="layer"
     id="layer1"
     transform="translate(-320.95598,384.77756)"><g
       id="g8631-5-3"
       transform="matrix(0.80046467,0,0,0.80046467,289.67687,-443.21532)"
       style="fill:#00aaaa;fill-opacity:1"><path
         style="color:#000000;fill:#00aaaa;fill-opacity:1;stroke-width:0.660111"
         d="M 97.334089,91.701184 67.7275,108.91478 a 4.5376733,4.5376733 0 0 0 -2.256879,3.93659 l 0.103991,34.24717 a 4.5375989,4.5375989 0 0 0 2.280765,3.92279 l 29.711837,17.03362 a 4.5376965,4.5376965 0 0 0 4.537646,-0.0142 l 29.6066,-17.21359 a 3.445093,3.445093 0 0 0 2.26087,-2.59962 l -0.10802,-35.58414 a 4.5376082,4.5376082 0 0 0 -2.28076,-3.92279 L 101.87178,91.687033 a 4.5376904,4.5376904 0 0 0 -4.537628,0.01415 z m 4.553121,5.114912 25.26247,14.482224 a 4.5375185,4.5375185 0 0 1 2.28081,3.92275 l 0.0885,29.11841 a 4.5377363,4.5377363 0 0 1 -2.25686,3.93665 l -25.17279,14.63622 a 4.5377116,4.5377116 0 0 1 -4.537654,0.0142 L 72.289251,148.44428 a 4.5375212,4.5375212 0 0 1 -2.280795,-3.92274 l -0.08851,-29.11843 a 4.5377385,4.5377385 0 0 1 2.256851,-3.93663 L 97.349576,96.830262 a 4.53771,4.53771 0 0 1 4.537644,-0.01415 z"
         id="path28632-3-6"
         sodipodi:nodetypes="ccccccccccccccc" /></g><path
       style="fill:#000000;stroke:#00aaaa;stroke-width:0.684811;stroke-linecap:butt;stroke-linejoin:miter;stroke-dasharray:none;stroke-opacity:1"
       d="m 369.73357,-313.95378 v -8.93469"
       id="path14948-5-0" /><path
       style="fill:#000000;stroke:#00aaaa;stroke-width:0.684811;stroke-linecap:butt;stroke-linejoin:miter;stroke-dasharray:none;stroke-opacity:1"
       d="m 347.54794,-352.09632 7.73766,4.46733"
       id="path14948-7-6-6" /><path
       style="fill:#000000;stroke:#00aaaa;stroke-width:0.684811;stroke-linecap:butt;stroke-linejoin:miter;stroke-dasharray:none;stroke-opacity:1"
       d="m 391.51413,-351.94775 -7.73766,4.46734"
       id="path14948-7-5-2-2" /><path
       d="m 362.20743,-346.72062 c 1.85097,0.60127 4.428,0.9716 7.2896,0.9716 2.86162,0 5.43864,-0.37251 7.28961,-0.9716 1.62464,-0.5272 2.63081,-1.16549 2.63081,-1.79071 0,-0.62523 -1.00392,-1.26353 -2.63081,-1.79073 -1.85097,-0.59908 -4.42799,-0.9716 -7.28961,-0.9716 -2.8616,0 -5.43863,0.37252 -7.2896,0.9716 -3.44648,1.11975 -3.54284,2.4312 0,3.58144 z m 17.21226,12.72239 c -0.57816,0.38559 -1.31541,0.72325 -2.18711,1.00646 -1.99439,0.64701 -4.73051,1.04785 -7.73555,1.04785 -3.00502,0 -5.74115,-0.40084 -7.73554,-1.04785 -0.8605,-0.27885 -1.59327,-0.61433 -2.16918,-0.99121 v 4.10645 c 0.12773,0.58166 1.10252,1.16985 2.61512,1.66001 1.85097,0.60126 4.428,0.97161 7.2896,0.97161 2.86162,0 5.43864,-0.37253 7.28961,-0.97161 1.12269,-0.36381 1.94733,-0.78208 2.35294,-1.20906 0.33388,-0.35292 0.28011,-0.58602 0.28011,-1.01083 z m -21.25259,-14.5131 c 0,-1.27878 1.37367,-2.36367 3.59439,-3.08475 1.99439,-0.64701 4.73052,-1.04785 7.73554,-1.04785 3.00504,0 5.74116,0.40084 7.73555,1.04785 2.02128,0.65573 3.34117,1.61426 3.56077,2.74707 0.0269,0.0719 0.0403,0.15032 0.0403,0.23092 v 18.89624 c 0,1.30927 -2.57477,2.46823 -3.6011,2.80153 -1.99439,0.64701 -4.73051,1.04785 -7.73554,1.04785 -3.00504,0 -5.74116,-0.40084 -7.73555,-1.04785 -1.05098,-0.34203 -3.5787,-1.46177 -3.5787,-2.80153 0,-0.15686 0,-0.28757 0,-0.43789 0,-6.11937 -0.0157,-12.23657 -0.0157,-18.35159 z m 1.42521,12.56334 c 0.12773,0.58166 1.10252,1.16986 2.61512,1.66001 1.85097,0.60127 4.428,0.97161 7.2896,0.97161 2.86162,0 5.43864,-0.37252 7.28961,-0.97161 1.62464,-0.52719 2.63081,-1.16548 2.63081,-1.79071 h 0.006 v -3.98882 c -0.57814,0.3856 -1.31988,0.72326 -2.19159,1.00646 -1.99439,0.64702 -4.73052,1.04786 -7.73554,1.04786 -3.00504,0 -5.74116,-0.40084 -7.73555,-1.04786 -0.8605,-0.27884 -1.59327,-0.61433 -2.16918,-0.99121 z m 0,-6.06927 c 0.12773,0.58165 1.10252,1.16985 2.61512,1.66001 1.85097,0.60127 4.428,0.97161 7.2896,0.97161 2.86162,0 5.43864,-0.37252 7.28961,-0.97161 1.62464,-0.52719 2.63081,-1.16549 2.63081,-1.79072 h 0.006 v -4.28291 c -0.57814,0.38559 -1.31988,0.72327 -2.19159,1.00646 -1.99439,0.64701 -4.73052,1.04786 -7.73554,1.04786 -3.00504,0 -5.74116,-0.40085 -7.73555,-1.04786 -0.86051,-0.27884 -1.59327,-0.61433 -2.16919,-0.99121 z"
       id="path2-6"
       style="fill:#00aaaa;fill-opacity:1;stroke-width:0.220947" /><g
       aria-label="DataTEX"
       transform="matrix(0.69324589,0,0,0.69324589,-98.536013,-399.91533)"
       id="text3351-0-3"
       style="font-size:40px;line-height:1.25;white-space:pre;shape-inside:url(#rect3353);fill:#00aaaa;fill-opacity:1"><path
         d="m 632.04534,163.55585 q -2.33846,1.13847 -6.89231,1.16924 h -5.10769 v -21.04616 h 5.01539 q 4.98461,0 7.56923,1.50769 3.6,2.12308 4.46154,6.58462 0.24615,1.2 0.24615,2.49231 0,4.76923 -2.98462,7.6923 -0.0615,0.0308 -0.0923,0.0615 -0.98462,0.92308 -2.21539,1.53846 z m -2.15384,-14.95384 q -1.63077,-0.83077 -4.95385,-0.83077 h -0.58462 v 12.89231 h 0.64616 q 3.35384,0 5.01538,-0.92308 2.09231,-1.10769 2.73846,-3.72308 0.21539,-0.86154 0.21539,-1.75384 0,-3.32308 -2.12308,-5.04616 -0.43077,-0.36923 -0.95384,-0.61538 z"
         style="font-weight:bold;font-family:KerkisSans;-inkscape-font-specification:'KerkisSans Bold';fill:#00aaaa;fill-opacity:1"
         id="path76380-6-1" /><path
         d="m 651.95303,164.72509 v -1.66154 q -1.93846,1.93846 -5.01539,2.03077 -3.84615,0 -6.18461,-2.7077 -1.9077,-2.21538 -1.9077,-5.41538 0,-3.90769 2.7077,-6.27692 2.24615,-1.96923 5.47692,-1.96923 3.07692,0 4.89231,2.03076 v -1.66153 h 3.87692 v 15.63077 z m -4.52308,-12.21539 q -2.46154,0 -3.66154,1.96923 -0.70769,1.10769 -0.70769,2.58462 0,2.4923 1.96923,3.63077 1.07692,0.61538 2.46154,0.61538 2.09231,0 3.23077,-1.29231 1.10769,-1.26154 1.10769,-2.98461 0,-2.61539 -1.96923,-3.84616 -1.04615,-0.67692 -2.43077,-0.67692 z"
         style="font-weight:bold;font-family:KerkisSans;-inkscape-font-specification:'KerkisSans Bold';fill:#00aaaa;fill-opacity:1"
         id="path76382-2-9" /><path
         d="m 662.87608,152.75585 v 11.96924 h -4.18461 v -11.96924 h -1.84616 v -3.78461 h 1.84616 v -5.07692 h 4.15384 v 5.07692 h 2.27693 v 3.78461 z"
         style="font-weight:bold;font-family:KerkisSans;-inkscape-font-specification:'KerkisSans Bold';fill:#00aaaa;fill-opacity:1"
         id="path76384-6-4" /><path
         d="m 678.99915,164.72509 v -1.66154 q -1.93846,1.93846 -5.01538,2.03077 -3.84615,0 -6.18462,-2.7077 -1.90769,-2.21538 -1.90769,-5.41538 0,-3.90769 2.70769,-6.27692 2.24616,-1.96923 5.47693,-1.96923 3.07692,0 4.8923,2.03076 v -1.66153 h 3.87693 v 15.63077 z m -4.52307,-12.21539 q -2.46154,0 -3.66154,1.96923 -0.70769,1.10769 -0.70769,2.58462 0,2.4923 1.96923,3.63077 1.07692,0.61538 2.46154,0.61538 2.0923,0 3.23076,-1.29231 1.1077,-1.26154 1.1077,-2.98461 0,-2.61539 -1.96923,-3.84616 -1.04616,-0.67692 -2.43077,-0.67692 z"
         style="font-weight:bold;font-family:KerkisSans;-inkscape-font-specification:'KerkisSans Bold';fill:#00aaaa;fill-opacity:1"
         id="path76386-1-7" /><g
         id="g76403-8-8"
         style="fill:#00aaaa;fill-opacity:1"><path
           d="m 692.07606,147.77124 v 16.95385 h -4.3077 v -16.95385 h -3.93846 v -4.09231 h 12.15385 v 4.09231 z"
           style="fill:#00aaaa;fill-opacity:1"
           id="path76388-7-4" /><path
           d="m 697.52223,164.72509 v -21.04616 h 11.75384 v 4.09231 h -7.44615 v 4.43077 h 7.10769 v 4.06154 h -7.10769 v 4.4 h 7.44615 v 4.06154 z"
           style="fill:#00aaaa;fill-opacity:1"
           id="path76390-9-5" /><path
           d="m 725.21457,164.72509 -4.95385,-6.95385 -4.76923,6.95385 h -5.13846 l 7.35384,-10.46154 -7.35384,-10.58462 h 5.13846 l 4.76923,7.04616 4.95385,-7.04616 h 5.01538 l -7.41538,10.58462 7.41538,10.46154 z"
           style="fill:#00aaaa;fill-opacity:1"
           id="path76392-2-0" /></g></g><path
       style="fill:none;stroke:#00aaaa;stroke-width:4.16821;stroke-linecap:butt;stroke-linejoin:round;stroke-miterlimit:4;stroke-dasharray:none;stroke-opacity:1"
       d="m 415.96103,-364.0922 -19.64583,-18.60126 h -73.27546 v 109.61849 l 92.92129,-0.0875 z"
       id="path843"
       sodipodi:nodetypes="cccccc" /></g><style
     type="text/css"
     id="style2">.st0{fill-rule:evenodd;clip-rule:evenodd;}</style></svg>
