<?xml version="1.0" encoding="UTF-8" standalone="no"?>
<!-- Created with Inkscape (http://www.inkscape.org/) -->

<svg
   width="366.95224"
   height="430.05975"
   viewBox="0 0 97.089323 113.78668"
   version="1.1"
   id="svg5"
   xml:space="preserve"
   inkscape:export-filename="./ψηφιογραφία.png"
   inkscape:export-xdpi="30.49"
   inkscape:export-ydpi="30.49"
   inkscape:version="1.2.1 (9c6d41e410, 2022-07-14, custom)"
   sodipodi:docname="datatexfile_2.svg"
   xmlns:inkscape="http://www.inkscape.org/namespaces/inkscape"
   xmlns:sodipodi="http://sodipodi.sourceforge.net/DTD/sodipodi-0.dtd"
   xmlns="http://www.w3.org/2000/svg"
   xmlns:svg="http://www.w3.org/2000/svg"><sodipodi:namedview
     id="namedview7"
     pagecolor="#505050"
     bordercolor="#ffffff"
     borderopacity="1"
     inkscape:showpageshadow="0"
     inkscape:pageopacity="0"
     inkscape:pagecheckerboard="1"
     inkscape:deskcolor="#505050"
     inkscape:document-units="mm"
     showgrid="false"
     inkscape:zoom="0.49235313"
     inkscape:cx="124.91035"
     inkscape:cy="199.04413"
     inkscape:window-width="1366"
     inkscape:window-height="694"
     inkscape:window-x="0"
     inkscape:window-y="0"
     inkscape:window-maximized="1"
     inkscape:current-layer="layer1" /><defs
     id="defs2"><rect
       x="618.3222"
       y="128.32988"
       width="507.40704"
       height="342.70807"
       id="rect3353" /></defs><g
     inkscape:label="Στρώση 1"
     inkscape:groupmode="layer"
     id="layer1"
     transform="translate(-320.95598,384.77756)"><g
       id="g1540"
       transform="matrix(0.90028339,0,0,0.90028339,141.59858,-36.340248)"><g
         id="g8631-5-3"
         transform="matrix(1.1688837,0,0,1.1688837,136.58172,-488.27362)"
         style="fill:#000000;fill-opacity:1"><path
           style="color:#000000;fill:#000000;fill-opacity:1;stroke-width:0.660111"
           d="M 97.334089,91.701184 67.7275,108.91478 a 4.5376733,4.5376733 0 0 0 -2.256879,3.93659 l 0.103991,34.24717 a 4.5375989,4.5375989 0 0 0 2.280765,3.92279 l 29.711837,17.03362 a 4.5376965,4.5376965 0 0 0 4.537646,-0.0142 l 29.6066,-17.21359 a 3.445093,3.445093 0 0 0 2.26087,-2.59962 l -0.10802,-35.58414 a 4.5376082,4.5376082 0 0 0 -2.28076,-3.92279 L 101.87178,91.687033 a 4.5376904,4.5376904 0 0 0 -4.537628,0.01415 z m 4.553121,5.114912 25.26247,14.482224 a 4.5375185,4.5375185 0 0 1 2.28081,3.92275 l 0.0885,29.11841 a 4.5377363,4.5377363 0 0 1 -2.25686,3.93665 l -25.17279,14.63622 a 4.5377116,4.5377116 0 0 1 -4.537654,0.0142 L 72.289251,148.44428 a 4.5375212,4.5375212 0 0 1 -2.280795,-3.92274 l -0.08851,-29.11843 a 4.5377385,4.5377385 0 0 1 2.256851,-3.93663 L 97.349576,96.830262 a 4.53771,4.53771 0 0 1 4.537644,-0.01415 z"
           id="path28632-3-6"
           sodipodi:nodetypes="ccccccccccccccc" /></g><path
         style="fill:#000000;stroke:#000000;stroke-width:1;stroke-linecap:butt;stroke-linejoin:miter;stroke-dasharray:none;stroke-opacity:1"
         d="m 253.48502,-299.51862 v -13.04693"
         id="path14948-5-0" /><path
         style="fill:#000000;stroke:#000000;stroke-width:1;stroke-linecap:butt;stroke-linejoin:miter;stroke-dasharray:none;stroke-opacity:1"
         d="m 221.08831,-355.21651 11.29897,6.52345"
         id="path14948-7-6-6" /><path
         style="fill:#000000;stroke:#000000;stroke-width:1;stroke-linecap:butt;stroke-linejoin:miter;stroke-dasharray:none;stroke-opacity:1"
         d="m 285.29023,-354.99956 -11.29897,6.52346"
         id="path14948-7-5-2-2" /><path
         d="m 242.49493,-347.3666 c 2.70289,0.878 6.46601,1.41878 10.64469,1.41878 4.1787,0 7.94181,-0.54396 10.6447,-1.41878 2.37239,-0.76985 3.84165,-1.70192 3.84165,-2.61491 0,-0.91299 -1.46598,-1.84507 -3.84165,-2.61492 -2.70289,-0.87481 -6.466,-1.41878 -10.6447,-1.41878 -4.17868,0 -7.9418,0.54397 -10.64469,1.41878 -5.03275,1.63513 -5.17346,3.55018 0,5.22983 z m 25.13432,18.57794 c -0.84426,0.56307 -1.92084,1.05614 -3.19375,1.4697 -2.91232,0.9448 -6.90776,1.53013 -11.29588,1.53013 -4.38811,0 -8.38355,-0.58533 -11.29587,-1.53013 -1.25656,-0.4072 -2.32659,-0.89709 -3.16757,-1.44743 v 5.99648 c 0.18653,0.84937 1.60997,1.70828 3.81875,2.42403 2.70289,0.878 6.46601,1.4188 10.64469,1.4188 4.1787,0 7.94181,-0.54398 10.6447,-1.4188 1.63941,-0.53125 2.8436,-1.14203 3.43589,-1.76554 0.48756,-0.51535 0.40904,-0.85573 0.40904,-1.47606 z m -31.03423,-21.19285 c 0,-1.86734 2.00591,-3.45156 5.24873,-4.50452 2.91232,-0.9448 6.90776,-1.53013 11.29587,-1.53013 4.38812,0 8.38356,0.58533 11.29588,1.53013 2.95159,0.95753 4.87897,2.35724 5.19964,4.01143 0.0393,0.10494 0.0589,0.21951 0.0589,0.3372 v 27.59335 c 0,1.91187 -3.75983,3.60425 -5.25853,4.09096 -2.91232,0.9448 -6.90777,1.53013 -11.29588,1.53013 -4.38813,0 -8.38356,-0.58533 -11.29588,-1.53013 -1.5347,-0.49945 -5.22582,-2.13456 -5.22582,-4.09096 0,-0.22905 0,-0.41992 0,-0.63942 0,-8.93585 -0.0229,-17.86854 -0.0229,-26.79804 z m 2.08116,18.34571 c 0.18653,0.84937 1.60997,1.70829 3.81875,2.42404 2.70289,0.878 6.46601,1.4188 10.64469,1.4188 4.1787,0 7.94181,-0.54398 10.6447,-1.4188 2.37239,-0.76983 3.84165,-1.70191 3.84165,-2.6149 h 0.009 v -5.8247 c -0.84424,0.56307 -1.92737,1.05615 -3.20028,1.46969 -2.91232,0.94481 -6.90777,1.53014 -11.29588,1.53014 -4.38813,0 -8.38356,-0.58533 -11.29588,-1.53014 -1.25655,-0.40718 -2.32659,-0.89708 -3.16756,-1.44742 z m 0,-8.86269 c 0.18653,0.84936 1.60997,1.70827 3.81875,2.42404 2.70289,0.878 6.46601,1.41879 10.64469,1.41879 4.1787,0 7.94181,-0.54397 10.6447,-1.41879 2.37239,-0.76984 3.84165,-1.70192 3.84165,-2.61491 h 0.009 v -6.25415 c -0.84424,0.56306 -1.92737,1.05615 -3.20028,1.46969 -2.91232,0.9448 -6.90777,1.53014 -11.29588,1.53014 -4.38813,0 -8.38356,-0.58534 -11.29588,-1.53014 -1.25657,-0.40718 -2.32659,-0.89708 -3.16758,-1.44743 z"
         id="path2-6"
         style="fill:#000000;fill-opacity:1;stroke-width:0.32264" /></g><g
       aria-label="DataTEX"
       transform="matrix(0.69324589,0,0,0.69324589,-98.536013,-393.03615)"
       id="text3351-0-3"
       style="font-size:40px;line-height:1.25;white-space:pre;shape-inside:url(#rect3353);fill:#000000"><path
         d="m 632.04534,163.55585 q -2.33846,1.13847 -6.89231,1.16924 h -5.10769 v -21.04616 h 5.01539 q 4.98461,0 7.56923,1.50769 3.6,2.12308 4.46154,6.58462 0.24615,1.2 0.24615,2.49231 0,4.76923 -2.98462,7.6923 -0.0615,0.0308 -0.0923,0.0615 -0.98462,0.92308 -2.21539,1.53846 z m -2.15384,-14.95384 q -1.63077,-0.83077 -4.95385,-0.83077 h -0.58462 v 12.89231 h 0.64616 q 3.35384,0 5.01538,-0.92308 2.09231,-1.10769 2.73846,-3.72308 0.21539,-0.86154 0.21539,-1.75384 0,-3.32308 -2.12308,-5.04616 -0.43077,-0.36923 -0.95384,-0.61538 z"
         style="font-weight:bold;font-family:KerkisSans;-inkscape-font-specification:'KerkisSans Bold';fill:#000000"
         id="path76380-6-1" /><path
         d="m 651.95303,164.72509 v -1.66154 q -1.93846,1.93846 -5.01539,2.03077 -3.84615,0 -6.18461,-2.7077 -1.9077,-2.21538 -1.9077,-5.41538 0,-3.90769 2.7077,-6.27692 2.24615,-1.96923 5.47692,-1.96923 3.07692,0 4.89231,2.03076 v -1.66153 h 3.87692 v 15.63077 z m -4.52308,-12.21539 q -2.46154,0 -3.66154,1.96923 -0.70769,1.10769 -0.70769,2.58462 0,2.4923 1.96923,3.63077 1.07692,0.61538 2.46154,0.61538 2.09231,0 3.23077,-1.29231 1.10769,-1.26154 1.10769,-2.98461 0,-2.61539 -1.96923,-3.84616 -1.04615,-0.67692 -2.43077,-0.67692 z"
         style="font-weight:bold;font-family:KerkisSans;-inkscape-font-specification:'KerkisSans Bold';fill:#000000"
         id="path76382-2-9" /><path
         d="m 662.87608,152.75585 v 11.96924 h -4.18461 v -11.96924 h -1.84616 v -3.78461 h 1.84616 v -5.07692 h 4.15384 v 5.07692 h 2.27693 v 3.78461 z"
         style="font-weight:bold;font-family:KerkisSans;-inkscape-font-specification:'KerkisSans Bold';fill:#000000"
         id="path76384-6-4" /><path
         d="m 678.99915,164.72509 v -1.66154 q -1.93846,1.93846 -5.01538,2.03077 -3.84615,0 -6.18462,-2.7077 -1.90769,-2.21538 -1.90769,-5.41538 0,-3.90769 2.70769,-6.27692 2.24616,-1.96923 5.47693,-1.96923 3.07692,0 4.8923,2.03076 v -1.66153 h 3.87693 v 15.63077 z m -4.52307,-12.21539 q -2.46154,0 -3.66154,1.96923 -0.70769,1.10769 -0.70769,2.58462 0,2.4923 1.96923,3.63077 1.07692,0.61538 2.46154,0.61538 2.0923,0 3.23076,-1.29231 1.1077,-1.26154 1.1077,-2.98461 0,-2.61539 -1.96923,-3.84616 -1.04616,-0.67692 -2.43077,-0.67692 z"
         style="font-weight:bold;font-family:KerkisSans;-inkscape-font-specification:'KerkisSans Bold';fill:#000000"
         id="path76386-1-7" /><g
         id="g76403-8-8"
         style="fill:#000000;fill-opacity:1"><path
           d="m 692.07606,147.77124 v 16.95385 h -4.3077 v -16.95385 h -3.93846 v -4.09231 h 12.15385 v 4.09231 z"
           style="fill:#000000;fill-opacity:1"
           id="path76388-7-4" /><path
           d="m 697.52223,164.72509 v -21.04616 h 11.75384 v 4.09231 h -7.44615 v 4.43077 h 7.10769 v 4.06154 h -7.10769 v 4.4 h 7.44615 v 4.06154 z"
           style="fill:#000000;fill-opacity:1"
           id="path76390-9-5" /><path
           d="m 725.21457,164.72509 -4.95385,-6.95385 -4.76923,6.95385 h -5.13846 l 7.35384,-10.46154 -7.35384,-10.58462 h 5.13846 l 4.76923,7.04616 4.95385,-7.04616 h 5.01538 l -7.41538,10.58462 7.41538,10.46154 z"
           style="fill:#000000;fill-opacity:1"
           id="path76392-2-0" /></g></g></g><style
     type="text/css"
     id="style2">.st0{fill-rule:evenodd;clip-rule:evenodd;}</style></svg>
