<?xml version="1.0" encoding="UTF-8" standalone="no"?>
<!-- Created with Inkscape (http://www.inkscape.org/) -->

<svg
   width="48"
   height="48"
   viewBox="0 0 12.699984 12.700004"
   version="1.1"
   id="svg5"
   xml:space="preserve"
   inkscape:export-filename="./ψηφιογραφία.png"
   inkscape:export-xdpi="30.49"
   inkscape:export-ydpi="30.49"
   inkscape:version="1.2.2 (b0a8486541, 2022-12-01)"
   sodipodi:docname="datatex_white.svg"
   xmlns:inkscape="http://www.inkscape.org/namespaces/inkscape"
   xmlns:sodipodi="http://sodipodi.sourceforge.net/DTD/sodipodi-0.dtd"
   xmlns="http://www.w3.org/2000/svg"
   xmlns:svg="http://www.w3.org/2000/svg"><sodipodi:namedview
     id="namedview7"
     pagecolor="#505050"
     bordercolor="#ffffff"
     borderopacity="1"
     inkscape:showpageshadow="0"
     inkscape:pageopacity="0"
     inkscape:pagecheckerboard="1"
     inkscape:deskcolor="#505050"
     inkscape:document-units="mm"
     showgrid="false"
     inkscape:zoom="5.5703397"
     inkscape:cx="-3.2314007"
     inkscape:cy="25.4024"
     inkscape:window-width="1366"
     inkscape:window-height="694"
     inkscape:window-x="0"
     inkscape:window-y="0"
     inkscape:window-maximized="1"
     inkscape:current-layer="layer1" /><defs
     id="defs2"><rect
       x="618.3222"
       y="128.32988"
       width="507.40704"
       height="342.70807"
       id="rect3353" /></defs><g
     inkscape:label="Στρώση 1"
     inkscape:groupmode="layer"
     id="layer1"
     transform="translate(-320.95598,384.77756)"><g
       id="g8631-5-3"
       transform="matrix(0.10906299,0,0,0.10906299,316.43005,-392.59167)"
       style="fill:#f2f2f2;fill-opacity:1"><path
         style="color:#000000;fill:#f2f2f2;fill-opacity:1;stroke-width:0.660111"
         d="M 97.334089,91.701184 67.7275,108.91478 a 4.5376733,4.5376733 0 0 0 -2.256879,3.93659 l 0.103991,34.24717 a 4.5375989,4.5375989 0 0 0 2.280765,3.92279 l 29.711837,17.03362 a 4.5376965,4.5376965 0 0 0 4.537646,-0.0142 l 29.6066,-17.21359 a 3.445093,3.445093 0 0 0 2.26087,-2.59962 l -0.10802,-35.58414 a 4.5376082,4.5376082 0 0 0 -2.28076,-3.92279 L 101.87178,91.687033 a 4.5376904,4.5376904 0 0 0 -4.537628,0.01415 z m 4.553121,5.114912 25.26247,14.482224 a 4.5375185,4.5375185 0 0 1 2.28081,3.92275 l 0.0885,29.11841 a 4.5377363,4.5377363 0 0 1 -2.25686,3.93665 l -25.17279,14.63622 a 4.5377116,4.5377116 0 0 1 -4.537654,0.0142 L 72.289251,148.44428 a 4.5375212,4.5375212 0 0 1 -2.280795,-3.92274 l -0.08851,-29.11843 a 4.5377385,4.5377385 0 0 1 2.256851,-3.93663 L 97.349576,96.830262 a 4.53771,4.53771 0 0 1 4.537644,-0.01415 z"
         id="path28632-3-6"
         sodipodi:nodetypes="ccccccccccccccc" /></g><path
       style="fill:#f2f2f2;stroke:#f2f2f2;stroke-width:0.2;stroke-linecap:butt;stroke-linejoin:miter;stroke-dasharray:none;stroke-opacity:1"
       d="m 327.33774,-374.97984 v -1.21735"
       id="path14948-5-0" /><path
       style="fill:#f2f2f2;stroke:#f2f2f2;stroke-width:0.2;stroke-linecap:butt;stroke-linejoin:miter;stroke-dasharray:none;stroke-opacity:1"
       d="m 324.31496,-380.17675 1.05425,0.60868"
       id="path14948-7-6-6" /><path
       style="fill:#f2f2f2;stroke:#f2f2f2;stroke-width:0.2;stroke-linecap:butt;stroke-linejoin:miter;stroke-dasharray:none;stroke-opacity:1"
       d="m 330.30534,-380.1565 -1.05426,0.60867"
       id="path14948-7-5-2-2" /><path
       d="m 328.95636,-379.77481 v 0.33681 c 0,0.29682 -0.73923,0.5389 -1.65038,0.5389 -0.91116,0 -1.65039,-0.24208 -1.65039,-0.5389 v -0.33681 c 0,-0.29682 0.73923,-0.5389 1.65039,-0.5389 0.91115,0 1.65038,0.24208 1.65038,0.5389 z m 0,0.75783 v 0.75783 c 0,0.29682 -0.73923,0.5389 -1.65038,0.5389 -0.91116,0 -1.65039,-0.24208 -1.65039,-0.5389 v -0.75783 c 0.35457,0.24419 1.00355,0.35787 1.65039,0.35787 0.64683,0 1.2958,-0.11368 1.65038,-0.35787 z m 0,1.17885 v 0.75783 c 0,0.29682 -0.73923,0.5389 -1.65038,0.5389 -0.91116,0 -1.65039,-0.24208 -1.65039,-0.5389 v -0.75783 c 0.35457,0.24419 1.00355,0.35787 1.65039,0.35787 0.64683,0 1.2958,-0.11368 1.65038,-0.35787 z"
       id="path2"
       style="fill:#f2f2f2;stroke-width:0.0073678" /></g><style
     type="text/css"
     id="style2">.st0{fill-rule:evenodd;clip-rule:evenodd;}</style></svg>
