<?xml version="1.0" encoding="UTF-8" standalone="no"?>
<svg
   width="64"
   viewBox="0 0 64 64"
   height="64"
   version="1.1"
   id="svg27938"
   sodipodi:docname="text-x-datatex.svg"
   inkscape:version="1.2.1 (9c6d41e410, 2022-07-14, custom)"
   xmlns:inkscape="http://www.inkscape.org/namespaces/inkscape"
   xmlns:sodipodi="http://sodipodi.sourceforge.net/DTD/sodipodi-0.dtd"
   xmlns="http://www.w3.org/2000/svg"
   xmlns:svg="http://www.w3.org/2000/svg">
  <sodipodi:namedview
     id="namedview27940"
     pagecolor="#505050"
     bordercolor="#ffffff"
     borderopacity="1"
     inkscape:showpageshadow="0"
     inkscape:pageopacity="0"
     inkscape:pagecheckerboard="1"
     inkscape:deskcolor="#505050"
     showgrid="false"
     inkscape:zoom="7.375"
     inkscape:cx="22.440678"
     inkscape:cy="29.423729"
     inkscape:window-width="1366"
     inkscape:window-height="694"
     inkscape:window-x="0"
     inkscape:window-y="0"
     inkscape:window-maximized="1"
     inkscape:current-layer="svg27938" />
  <defs
     id="defs27920">
    <linearGradient
       id="a"
       y1="3"
       y2="61"
       x2="0"
       gradientUnits="userSpaceOnUse"
       gradientTransform="matrix(1 0 0-1 0 64)">
      <stop
         stop-color="#09a9a9"
         id="stop27905" />
      <stop
         offset="1"
         stop-color="#09a9a9"
         id="stop27907" />
    </linearGradient>
    <linearGradient
       id="b"
       y1="61"
       y2="47"
       x2="0"
       gradientUnits="userSpaceOnUse"
       gradientTransform="matrix(1,0,0,-1,0,64)">
      <stop
         stop-color="#d3bdd7"
         id="stop27910"
         offset="0"
         style="stop-color:#bdd2d7;stop-opacity:1;" />
      <stop
         offset="1"
         stop-color="#e8d9eb"
         id="stop27912" />
    </linearGradient>
    <linearGradient
       id="c"
       y1="17"
       x1="40"
       y2="31"
       x2="54"
       gradientUnits="userSpaceOnUse">
      <stop
         stop-color="#383e51"
         id="stop27915" />
      <stop
         offset="1"
         stop-color="#655c6f"
         stop-opacity="0"
         id="stop27917" />
    </linearGradient>
  </defs>
  <path
     fill="url(#a)"
     d="m10 61v-58h30l14 14v44h-14z"
     id="path27922" />
  <g
     transform="scale(1-1)"
     id="g27928">
    <rect
       width="30"
       x="10"
       y="-4"
       fill="#ffffff"
       height="1"
       fill-opacity=".412"
       id="rect27924" />
    <rect
       width="44"
       x="10"
       y="-61"
       fill="#2e3132"
       height="1"
       fill-opacity=".294"
       id="rect27926" />
  </g>
  <path
     fill="url(#b)"
     d="M 54,17 40,3 v 14 z"
     id="path27930"
     style="fill:url(#b);fill-rule:evenodd" />
  <path
     opacity="0.2"
     fill="url(#c)"
     d="M 40,17 54,31 V 17 Z"
     id="path27932"
     style="fill:url(#c);fill-rule:evenodd" />
  <g
     id="g8631-5-5"
     transform="matrix(0.33110275,0,0,0.33110275,-1.0180511,-11.000638)"
     style="fill:#d9e8eb;fill-opacity:1">
    <path
       style="color:#000000;fill:#d9e8eb;fill-opacity:1;stroke-width:0.660111"
       d="M 97.334089,91.701184 67.7275,108.91478 a 4.5376733,4.5376733 0 0 0 -2.256879,3.93659 l 0.103991,34.24717 a 4.5375989,4.5375989 0 0 0 2.280765,3.92279 l 29.711837,17.03362 a 4.5376965,4.5376965 0 0 0 4.537646,-0.0142 l 29.6066,-17.21359 a 3.445093,3.445093 0 0 0 2.26087,-2.59962 l -0.10802,-35.58414 a 4.5376082,4.5376082 0 0 0 -2.28076,-3.92279 L 101.87178,91.687033 a 4.5376904,4.5376904 0 0 0 -4.537628,0.01415 z m 4.553121,5.114912 25.26247,14.482224 a 4.5375185,4.5375185 0 0 1 2.28081,3.92275 l 0.0885,29.11841 a 4.5377363,4.5377363 0 0 1 -2.25686,3.93665 l -25.17279,14.63622 a 4.5377116,4.5377116 0 0 1 -4.537654,0.0142 L 72.289251,148.44428 a 4.5375212,4.5375212 0 0 1 -2.280795,-3.92274 l -0.08851,-29.11843 a 4.5377385,4.5377385 0 0 1 2.256851,-3.93663 L 97.349576,96.830262 a 4.53771,4.53771 0 0 1 4.537644,-0.01415 z"
       id="path28632-3-3"
       sodipodi:nodetypes="ccccccccccccccc" />
  </g>
  <path
     style="fill:#d9e9eb;fill-opacity:1;stroke:#d9e8eb;stroke-width:0.187073;stroke-linecap:butt;stroke-linejoin:miter;stroke-dasharray:none;stroke-opacity:1"
     d="M 32.096449,42.466873 V 38.771146"
     id="path14948-5-5" />
  <path
     style="fill:#d9e9eb;fill-opacity:1;stroke:#d9e8eb;stroke-width:0.187073;stroke-linecap:butt;stroke-linejoin:miter;stroke-dasharray:none;stroke-opacity:1"
     d="m 22.919626,26.689663 3.200592,1.847857"
     id="path14948-7-6-6" />
  <path
     style="fill:#d9e9eb;fill-opacity:1;stroke:#d9e8eb;stroke-width:0.187073;stroke-linecap:butt;stroke-linejoin:miter;stroke-dasharray:none;stroke-opacity:1"
     d="M 41.105722,26.751116 37.90513,28.598977"
     id="path14948-7-5-2-2" />
  <path
     d="m 28.98335,28.91326 c 0.765632,0.248705 1.83159,0.401888 3.015259,0.401888 1.183676,0 2.24963,-0.154084 3.015261,-0.401888 0.672013,-0.218072 1.088201,-0.482093 1.088201,-0.740711 0,-0.258617 -0.41526,-0.522643 -1.088201,-0.740713 -0.765631,-0.247802 -1.831585,-0.401889 -3.015261,-0.401889 -1.183669,0 -2.249627,0.154087 -3.015259,0.401889 -1.425596,0.463175 -1.465454,1.005638 0,1.481424 z m 7.119651,5.262462 c -0.23915,0.159497 -0.544105,0.299166 -0.904675,0.416314 -0.824956,0.267627 -1.95672,0.43343 -3.199717,0.43343 -1.242993,0 -2.374757,-0.165803 -3.199713,-0.43343 -0.355939,-0.115346 -0.65904,-0.254115 -0.897259,-0.410005 v 1.698587 c 0.05284,0.240596 0.456046,0.483893 1.081713,0.686639 0.765632,0.248706 1.83159,0.401896 3.015259,0.401896 1.183676,0 2.24963,-0.15409 3.015261,-0.401896 0.464386,-0.150483 0.805489,-0.323496 0.973265,-0.500114 0.138108,-0.14598 0.115866,-0.242397 0.115866,-0.418113 z M 27.31212,28.172549 c 0,-0.528951 0.568201,-0.977703 1.486776,-1.275969 0.824956,-0.267626 1.95672,-0.43343 3.199713,-0.43343 1.242997,0 2.374761,0.165804 3.199717,0.43343 0.836079,0.271234 1.382037,0.667722 1.472872,1.136295 0.01113,0.02973 0.01668,0.06218 0.01668,0.09552 v 7.816204 c 0,0.541563 -1.065024,1.020956 -1.489552,1.158823 -0.824956,0.267627 -1.956723,0.433431 -3.199717,0.433431 -1.242998,0 -2.374761,-0.165804 -3.199717,-0.433431 -0.434726,-0.141478 -1.480286,-0.604645 -1.480286,-1.158823 0,-0.06488 0,-0.118947 0,-0.181124 0,-2.531206 -0.0065,-5.061516 -0.0065,-7.590922 z m 0.589517,5.19668 c 0.05284,0.240596 0.456046,0.483897 1.081713,0.686643 0.765632,0.248707 1.83159,0.401897 3.015259,0.401897 1.183676,0 2.24963,-0.154091 3.015261,-0.401897 0.672013,-0.218065 1.088201,-0.482089 1.088201,-0.740706 h 0.0026 v -1.649929 c -0.239144,0.159497 -0.545955,0.29917 -0.906525,0.416312 -0.824955,0.267629 -1.956723,0.433433 -3.199716,0.433433 -1.243,0 -2.374762,-0.165804 -3.199718,-0.433433 -0.355956,-0.115342 -0.65906,-0.254112 -0.897278,-0.410003 z m 0,-2.510482 c 0.05284,0.240593 0.456046,0.483892 1.081713,0.686645 0.765632,0.248706 1.83159,0.401892 3.015259,0.401892 1.183676,0 2.24963,-0.154088 3.015261,-0.401892 0.672013,-0.218069 1.088201,-0.482092 1.088201,-0.740711 h 0.0026 v -1.771576 c -0.239144,0.159495 -0.545955,0.29917 -0.906525,0.416311 -0.824955,0.267628 -1.956723,0.433434 -3.199716,0.433434 -1.243,0 -2.374762,-0.165806 -3.199718,-0.433434 -0.35594,-0.115341 -0.659039,-0.254111 -0.89726,-0.410004 z"
     id="path2-9"
     style="fill:#d9e8eb;fill-opacity:1;stroke-width:0.0913923" />
</svg>
