<?xml version="1.0" encoding="UTF-8" standalone="no"?>
<svg
   width="6.704"
   height="10.285"
   viewBox="0 0 6.704 10.285"
   version="1.1"
   id="svg363"
   xmlns="http://www.w3.org/2000/svg"
   xmlns:svg="http://www.w3.org/2000/svg">
  <defs
     id="defs355" />
  <path
     style="fill:#000000;stroke-width:0.0618432"
     d="M 1.9567668,9.7097375 C 1.9334866,9.6720635 2.0679936,9.4859405 2.2584503,9.2922955 2.6265435,8.9180435 2.8738968,8.4877155 2.9762648,8.0434985 3.0142356,7.8787317 3.0404026,6.7192036 3.0413071,5.1614581 3.0429433,2.2165795 3.0592816,2.0903202 3.5225926,1.425986 3.7770844,1.0610756 4.4829572,0.48359238 4.637783,0.51363608 4.8269028,0.55033468 4.7783064,0.68853818 4.4794932,0.96379218 4.1827789,1.237112 3.9075242,1.6628816 3.7678611,2.0645583 3.7226818,2.1944932 3.6867236,3.2638446 3.6644623,5.1394821 L 3.6303293,8.0151925 3.434625,8.4282805 c -0.2234186,0.471588 -0.6067141,0.918471 -1.0068855,1.173929 -0.2964617,0.18925 -0.4051312,0.214062 -0.4709727,0.107528 z"
     id="path342" />
  <title>\\lmoustache</title>
</svg>
