<?xml version="1.0" encoding="UTF-8" standalone="no"?>
<svg
   width="6.704"
   height="10.285"
   viewBox="0 0 6.704 10.285"
   version="1.1"
   id="svg363"
   xmlns="http://www.w3.org/2000/svg"
   xmlns:svg="http://www.w3.org/2000/svg">
  <defs
     id="defs355" />
  <path
     style="fill:#000000;stroke-width:0.0647893"
     d="m 2.4040591,9.6989552 c 0,-0.0394 0.1692586,-0.23293 0.3761256,-0.43007 0.2185646,-0.20829 0.4676584,-0.53408 0.5946089,-0.77772 l 0.2184833,-0.41928 0.022106,-2.71791 c 0.015666,-1.9246 -0.00137,-2.81709 -0.058045,-3.05766 -0.1149075,-0.48702 -0.4450767,-1.0152 -0.8325881,-1.33189001 -0.2160284,-0.17656 -0.3214082,-0.30704 -0.2961959,-0.36676 0.063469,-0.15031 0.2076064,-0.10924 0.6458883,0.18404 0.4766638,0.31897001 0.8250001,0.72113001 1.044365,1.20576001 0.1503864,0.33223 0.1542313,0.39886 0.1742293,3.01588 0.017832,2.3354 0.00612,2.72056 -0.091098,3.02491 -0.1544622,0.48299 -0.33255,0.78044 -0.6645094,1.10988 C 3.0793322,9.5927552 2.404,9.9269152 2.404,9.6989552 Z"
     id="path338" />
  <title>\rgroup</title>
</svg>
