<?xml version="1.0" encoding="UTF-8" standalone="no"?>
<svg
   width="6.704"
   height="10.285"
   viewBox="0 0 6.704 10.285"
   version="1.1"
   id="svg363"
   xmlns="http://www.w3.org/2000/svg"
   xmlns:svg="http://www.w3.org/2000/svg">
  <defs
     id="defs355" />
  <path
     style="fill:#000000;stroke-width:0.0615523"
     d="m 4.2641359,9.5891416 c -0.397165,-0.254976 -0.77758,-0.701019 -0.99932,-1.171719 l -0.194234,-0.412313 -0.03069,-2.904566 -0.03069,-2.904567 -0.231145,-0.4701379 C 2.6204669,1.4053126 2.4474664,1.1657854 2.2344094,0.97314168 c -0.201919,-0.1825725 -0.299994,-0.3153425 -0.277155,-0.3751999 0.05146,-0.1348533 0.14648,-0.1154966 0.475581,0.096886 0.5323685,0.34355772 0.9390535,0.89903832 1.1235255,1.53459882 0.08189,0.282125 0.09755,0.74689 0.09881,2.932024 9.26e-4,1.524477 0.02712,2.708531 0.06355,2.867447 0.104635,0.456445 0.369684,0.919911 0.712606,1.246073 0.497079,0.472783 0.390829,0.672421 -0.167203,0.314171 z"
     id="path344" />
  <title>\rmoustache</title>
</svg>
