<?xml version="1.0" encoding="UTF-8" standalone="no"?>
<svg
   width="6.704"
   height="10.285"
   viewBox="0 0 6.704 10.285"
   version="1.1"
   id="svg363"
   xmlns="http://www.w3.org/2000/svg"
   xmlns:svg="http://www.w3.org/2000/svg">
  <defs
     id="defs355" />
  <path
     style="fill:#000000;stroke-width:0.0649196"
     d="m 3.7597339,9.5890608 c -0.441617,-0.25509 -0.864606,-0.70133 -1.111163,-1.17223 l -0.215973,-0.4124914 -0.02041,-2.71151 c -0.01933,-2.568241 -0.01316,-2.733081 0.116643,-3.119851 0.07539,-0.22458 0.25443,-0.5606 0.397873,-0.7466995 0.281858,-0.3657001 1.060737,-0.94271022 1.231927,-0.91265022 0.208712,0.0366 0.155078,0.17465 -0.174683,0.4495001 -0.378809,0.31574002 -0.669579,0.75745962 -0.807779,1.22709962 -0.115063,0.39103 -0.134681,5.399041 -0.02286,5.837901 0.116345,0.4566514 0.411055,0.9203214 0.79236,1.2466214 0.552706,0.47299 0.434564,0.67272 -0.18592,0.31431 z"
     id="path340" />
  <title>\lgroup</title>
</svg>
