<?xml version="1.0" encoding="UTF-8" standalone="no"?>
<!-- Created with Inkscape (http://www.inkscape.org/) -->

<svg
   width="255.99998"
   height="128"
   viewBox="0 0 67.733321 33.866667"
   version="1.1"
   id="svg5"
   inkscape:version="1.2.2 (b0a8486541, 2022-12-01)"
   sodipodi:docname="BibliographyDB.svg"
   xml:space="preserve"
   inkscape:export-filename="../../../Επιφάνεια εργασίας/DocumentsDB.svg"
   inkscape:export-xdpi="102.557"
   inkscape:export-ydpi="102.557"
   xmlns:inkscape="http://www.inkscape.org/namespaces/inkscape"
   xmlns:sodipodi="http://sodipodi.sourceforge.net/DTD/sodipodi-0.dtd"
   xmlns="http://www.w3.org/2000/svg"
   xmlns:svg="http://www.w3.org/2000/svg"><sodipodi:namedview
     id="namedview7"
     pagecolor="#505050"
     bordercolor="#eeeeee"
     borderopacity="1"
     inkscape:showpageshadow="0"
     inkscape:pageopacity="0"
     inkscape:pagecheckerboard="0"
     inkscape:deskcolor="#505050"
     inkscape:document-units="mm"
     showgrid="false"
     inkscape:zoom="2.3786088"
     inkscape:cx="122.13021"
     inkscape:cy="113.09132"
     inkscape:window-width="1366"
     inkscape:window-height="694"
     inkscape:window-x="0"
     inkscape:window-y="0"
     inkscape:window-maximized="1"
     inkscape:current-layer="text385" /><defs
     id="defs2"><rect
       x="7.9878626"
       y="68.10704"
       width="390.31607"
       height="59.552677"
       id="rect387" /><rect
       x="-96.244637"
       y="47.086346"
       width="219.45601"
       height="95.854347"
       id="rect369" /></defs><g
     inkscape:label="Στρώση 1"
     inkscape:groupmode="layer"
     id="layer1"><g
       id="g453"
       transform="translate(-0.90217765,2.2088038)"><g
         id="g598"
         transform="translate(1.5792373,1.2076798)"><g
           id="g1807"
           transform="translate(-2.1932715,-1.9458126)"><g
             aria-label="Create a database for the bibliographical references used in DataTex"
             transform="matrix(0.2587881,0,0,0.2587881,-17.161144,0.65019162)"
             id="text385"
             style="font-size:18.6667px;line-height:0.75;font-family:KerkisSans;-inkscape-font-specification:KerkisSans;text-align:center;white-space:pre;shape-inside:url(#rect387);display:inline;fill:#f2f2f2"><g
               id="g459"
               transform="translate(64.068914)"><path
                 d="m 25.209608,80.65497 q -2.268722,0 -3.776417,-1.464618 -1.493336,-1.450259 -1.493336,-3.575391 0,-2.225645 1.522054,-3.690263 1.464618,-1.4359 3.675904,-1.4359 2.311799,0 3.790776,1.550772 0.01436,0.02872 0.02872,0.04308 0.516924,0.560001 0.86154,1.277951 h -1.321028 q -0.531283,-0.789745 -1.076925,-1.14872 -0.976412,-0.646155 -2.240004,-0.646155 -1.809234,0 -2.986672,1.263592 -0.01436,0.01436 -0.01436,0.02872 -1.033848,1.120002 -1.033848,2.713851 0,1.680003 1.234874,2.8718 1.177438,1.134361 2.814364,1.134361 1.349746,0 2.354876,-0.775386 0.373334,-0.272821 1.00513,-1.048207 h 1.306669 q -1.608208,2.900518 -4.652316,2.900518 z"
                 id="path7569" /><path
                 d="m 32.116271,76.419065 v 4.063597 h -1.14872 v -6.992833 h 1.134361 v 0.71795 q 0.603078,-0.832822 1.995901,-0.875899 v 1.076925 q -1.86667,0.172308 -1.967183,1.780516 l -0.01436,0.01436 z"
                 id="path7566" /><path
                 d="m 35.677314,77.395477 q 0.114872,1.105643 1.105643,1.751798 0.689232,0.459488 1.522054,0.459488 1.206157,0 1.981543,-0.904617 0.244103,-0.28718 0.387693,-0.646155 h 1.177438 q -0.488206,1.478977 -1.823593,2.182568 -0.789745,0.416411 -1.694363,0.416411 -1.694362,0 -2.814364,-1.191797 -0.990771,-1.048207 -0.990771,-2.512825 0,-1.608208 1.191797,-2.670774 1.062566,-0.947694 2.541543,-0.947694 1.59385,0 2.699493,1.091284 0.330257,0.330257 0.560001,0.71795 0.473847,0.86154 0.488206,2.254363 z m 2.570261,-3.029749 q -1.306669,0 -2.067696,1.00513 -0.330257,0.43077 -0.459488,0.990771 h 5.111805 q -0.358975,-1.349746 -1.565131,-1.809234 -0.473848,-0.186667 -1.01949,-0.186667 z"
                 id="path7563" /><path
                 d="m 49.289663,80.482662 v -1.00513 q -0.933335,1.076925 -2.311799,1.163079 -0.14359,0.01436 -0.301539,0.01436 -1.794875,0 -2.914877,-1.206156 -0.933335,-1.019489 -0.933335,-2.44103 0,-1.694362 1.249233,-2.771287 1.048207,-0.904617 2.541543,-0.904617 1.680003,0 2.656415,1.177438 V 73.48983 h 1.14872 v 6.992833 z m -2.656415,-6.116934 q -1.263592,0 -2.067696,0.947694 -0.588719,0.703591 -0.588719,1.622567 0,1.306669 1.00513,2.096414 0.732309,0.57436 1.708721,0.57436 1.249233,0 2.024619,-0.976412 0.57436,-0.71795 0.57436,-1.680003 0,-1.277951 -0.990771,-2.038978 -0.71795,-0.545642 -1.665644,-0.545642 z"
                 id="path7560" /><path
                 d="m 53.827102,74.4806 v 6.002062 h -1.14872 V 74.4806 h -1.507695 v -1.033848 h 1.507695 V 71.03444 h 1.134361 v 2.412312 h 1.57949 V 74.4806 Z"
                 id="path7557" /><path
                 d="m 57.014805,77.395477 q 0.114872,1.105643 1.105643,1.751798 0.689232,0.459488 1.522054,0.459488 1.206156,0 1.981542,-0.904617 0.244103,-0.28718 0.387693,-0.646155 h 1.177438 q -0.488206,1.478977 -1.823593,2.182568 -0.789745,0.416411 -1.694362,0.416411 -1.694362,0 -2.814364,-1.191797 -0.990772,-1.048207 -0.990772,-2.512825 0,-1.608208 1.191798,-2.670774 1.062566,-0.947694 2.541543,-0.947694 1.593849,0 2.699492,1.091284 0.330257,0.330257 0.560001,0.71795 0.473847,0.86154 0.488206,2.254363 z m 2.570261,-3.029749 q -1.306669,0 -2.067696,1.00513 -0.330257,0.43077 -0.459488,0.990771 h 5.111804 q -0.358975,-1.349746 -1.565131,-1.809234 -0.473847,-0.186667 -1.019489,-0.186667 z"
                 id="path7554" /><path
                 d="m 74.604612,80.482662 v -1.00513 q -0.933335,1.076925 -2.311799,1.163079 -0.14359,0.01436 -0.301539,0.01436 -1.794875,0 -2.914877,-1.206156 -0.933335,-1.019489 -0.933335,-2.44103 0,-1.694362 1.249233,-2.771287 1.048207,-0.904617 2.541543,-0.904617 1.680003,0 2.656415,1.177438 V 73.48983 h 1.14872 v 6.992833 z m -2.656415,-6.116934 q -1.263592,0 -2.067696,0.947694 -0.588719,0.703591 -0.588719,1.622567 0,1.306669 1.00513,2.096414 0.732309,0.57436 1.708721,0.57436 1.249233,0 2.024619,-0.976412 0.57436,-0.71795 0.57436,-1.680003 0,-1.277951 -0.990771,-2.038978 -0.71795,-0.545642 -1.665644,-0.545642 z"
                 id="path7551" /><path
                 d="m 87.312331,80.482662 v -1.048207 q -0.918976,1.14872 -2.354877,1.220515 h -0.201026 q -1.780516,0 -2.929236,-1.206156 -0.990771,-1.033848 -0.990771,-2.484107 0,-1.680003 1.249233,-2.756928 1.062566,-0.918976 2.570261,-0.918976 1.59385,0 2.656416,1.091284 V 71.03444 h 1.14872 v 9.448222 z m -2.670775,-6.160011 q -1.277951,0 -2.067696,0.962053 -0.588719,0.71795 -0.588719,1.651285 0,1.306669 1.00513,2.096414 0.746668,0.57436 1.737439,0.57436 1.220516,0 2.010261,-0.962053 0.617437,-0.746668 0.617437,-1.708721 0,-1.206156 -0.962053,-1.995901 -0.761028,-0.617437 -1.751799,-0.617437 z"
                 id="path7548" /><path
                 d="m 96.042608,80.482662 v -1.00513 q -0.933335,1.076925 -2.311799,1.163079 -0.14359,0.01436 -0.301539,0.01436 -1.794875,0 -2.914877,-1.206156 -0.933335,-1.019489 -0.933335,-2.44103 0,-1.694362 1.249233,-2.771287 1.048207,-0.904617 2.541543,-0.904617 1.680003,0 2.656415,1.177438 V 73.48983 h 1.14872 v 6.992833 z m -2.656415,-6.116934 q -1.263592,0 -2.067696,0.947694 -0.588719,0.703591 -0.588719,1.622567 0,1.306669 1.00513,2.096414 0.732309,0.57436 1.708721,0.57436 1.249233,0 2.024619,-0.976412 0.57436,-0.71795 0.57436,-1.680003 0,-1.277951 -0.990771,-2.038978 -0.71795,-0.545642 -1.665644,-0.545642 z"
                 id="path7545" /><path
                 d="m 100.58005,74.4806 v 6.002062 H 99.431331 V 74.4806 h -1.507695 v -1.033848 h 1.507695 V 71.03444 h 1.134359 v 2.412312 h 1.57949 V 74.4806 Z"
                 id="path7542" /><path
                 d="m 109.08059,80.482662 v -1.00513 q -0.93334,1.076925 -2.3118,1.163079 -0.14359,0.01436 -0.30154,0.01436 -1.79488,0 -2.91488,-1.206156 -0.93333,-1.019489 -0.93333,-2.44103 0,-1.694362 1.24923,-2.771287 1.04821,-0.904617 2.54154,-0.904617 1.68001,0 2.65642,1.177438 V 73.48983 h 1.14872 v 6.992833 z m -2.65642,-6.116934 q -1.26359,0 -2.06769,0.947694 -0.58872,0.703591 -0.58872,1.622567 0,1.306669 1.00513,2.096414 0.73231,0.57436 1.70872,0.57436 1.24923,0 2.02462,-0.976412 0.57436,-0.71795 0.57436,-1.680003 0,-1.277951 -0.99077,-2.038978 -0.71795,-0.545642 -1.66565,-0.545642 z"
                 id="path7539" /><path
                 d="m 115.38418,80.65497 q -1.66564,0 -2.6277,-1.163079 v 0.990771 h -1.14872 V 71.03444 h 1.13436 v 3.403083 q 0.97642,-1.14872 2.65642,-1.14872 1.70872,0 2.82872,1.191797 0.96205,1.033848 0.96205,2.469748 0,1.708721 -1.23487,2.785646 -1.06257,0.918976 -2.57026,0.918976 z m 0,-6.332319 q -1.32103,0 -2.12513,0.976412 -0.57436,0.703591 -0.57436,1.636926 0,1.076925 0.77538,1.881029 0.77539,0.789745 1.90975,0.789745 1.34975,0 2.12513,-1.00513 0.54564,-0.71795 0.54564,-1.665644 0,-1.306669 -1.00513,-2.067696 -0.70359,-0.545642 -1.65128,-0.545642 z"
                 id="path7536" /><path
                 d="m 126.49805,80.482662 v -1.00513 q -0.93333,1.076925 -2.3118,1.163079 -0.14359,0.01436 -0.30154,0.01436 -1.79487,0 -2.91487,-1.206156 -0.93334,-1.019489 -0.93334,-2.44103 0,-1.694362 1.24924,-2.771287 1.0482,-0.904617 2.54154,-0.904617 1.68,0 2.65641,1.177438 V 73.48983 h 1.14872 v 6.992833 z m -2.65641,-6.116934 q -1.26359,0 -2.0677,0.947694 -0.58872,0.703591 -0.58872,1.622567 0,1.306669 1.00513,2.096414 0.73231,0.57436 1.70872,0.57436 1.24924,0 2.02462,-0.976412 0.57436,-0.71795 0.57436,-1.680003 0,-1.277951 -0.99077,-2.038978 -0.71795,-0.545642 -1.66564,-0.545642 z"
                 id="path7533" /><path
                 d="m 130.80574,80.65497 q -1.4359,0 -2.05333,-1.105643 -0.28718,-0.531283 -0.30154,-1.249233 h 1.12 q 0.0861,1.234874 1.23487,1.306669 0.70359,0 0.97642,-0.588719 0.10051,-0.229744 0.10051,-0.488206 0,-0.560001 -0.40205,-0.804104 -0.24411,-0.157949 -0.89026,-0.43077 l -0.91898,-0.373334 q -0.2441,-0.14359 -0.40205,-0.301539 -0.56,-0.502565 -0.56,-1.29231 0,-1.076925 0.8759,-1.651285 0.51692,-0.344616 1.20615,-0.344616 1.22052,0 1.78052,0.976412 v 0 q 0.14359,0.244103 0.21539,0.531283 0.0574,0.244103 0.0718,0.516924 h -1.14872 q -0.0862,-0.990771 -0.93333,-0.990771 -0.58872,0 -0.83283,0.502565 -0.0862,0.172308 -0.0862,0.387693 0,0.545642 0.58872,0.804104 l 1.52205,0.646155 q 0.9477,0.502565 1.04821,1.464618 0.0144,0.129231 0.0144,0.272821 0,1.191797 -0.91898,1.823593 -0.56,0.387693 -1.30667,0.387693 z"
                 id="path7530" /><path
                 d="m 134.85498,77.395477 q 0.11488,1.105643 1.10565,1.751798 0.68923,0.459488 1.52205,0.459488 1.20616,0 1.98154,-0.904617 0.24411,-0.28718 0.3877,-0.646155 h 1.17743 q -0.4882,1.478977 -1.82359,2.182568 -0.78974,0.416411 -1.69436,0.416411 -1.69436,0 -2.81437,-1.191797 -0.99077,-1.048207 -0.99077,-2.512825 0,-1.608208 1.1918,-2.670774 1.06257,-0.947694 2.54154,-0.947694 1.59385,0 2.6995,1.091284 0.33025,0.330257 0.56,0.71795 0.47384,0.86154 0.4882,2.254363 z m 2.57027,-3.029749 q -1.30667,0 -2.0677,1.00513 -0.33026,0.43077 -0.45949,0.990771 h 5.11181 q -0.35898,-1.349746 -1.56514,-1.809234 -0.47384,-0.186667 -1.01948,-0.186667 z"
                 id="path7527" /><path
                 d="m 147.89298,74.4806 v 6.002062 h -1.13436 V 74.4806 h -1.10564 v -1.033848 h 1.09128 q 0.0287,-2.412312 2.88616,-2.412312 v 1.019489 q -1.26359,0.01436 -1.57949,0.588719 v 0 q 0,0 0,0 -0.15795,0.28718 -0.15795,0.804104 h 1.73744 V 74.4806 Z"
                 id="path7524" /><path
                 d="m 153.8376,80.65497 q -1.83796,0 -2.9436,-1.249233 -0.90462,-1.019489 -0.90462,-2.469748 0,-1.636926 1.22052,-2.685133 1.06256,-0.918976 2.5559,-0.918976 1.78052,0 2.85744,1.234874 0.8759,1.00513 0.8759,2.44103 0,1.72308 -1.23487,2.785646 -1.00513,0.86154 -2.42667,0.86154 z m -0.0718,-6.289242 q -1.33539,0 -2.09641,0.990771 -0.53129,0.689232 -0.53129,1.608208 0,1.407182 1.04821,2.15385 0.68923,0.488206 1.62257,0.488206 1.33538,0 2.05333,-1.00513 0.48821,-0.674873 0.48821,-1.57949 0,-1.364105 -1.00513,-2.139491 -0.68923,-0.516924 -1.57949,-0.516924 z"
                 id="path7521" /><path
                 d="m 159.76787,76.419065 v 4.063597 h -1.14872 v -6.992833 h 1.13436 v 0.71795 q 0.60308,-0.832822 1.99591,-0.875899 v 1.076925 q -1.86667,0.172308 -1.96719,1.780516 l -0.0144,0.01436 z"
                 id="path7518" /><path
                 d="m 170.05104,80.65497 q -1.66565,0 -2.6277,-1.163079 v 0.990771 h -1.14872 V 71.03444 h 1.13436 v 3.403083 q 0.97641,-1.14872 2.65642,-1.14872 1.70872,0 2.82872,1.191797 0.96205,1.033848 0.96205,2.469748 0,1.708721 -1.23487,2.785646 -1.06257,0.918976 -2.57026,0.918976 z m 0,-6.332319 q -1.32103,0 -2.12513,0.976412 -0.57436,0.703591 -0.57436,1.636926 0,1.076925 0.77538,1.881029 0.77539,0.789745 1.90975,0.789745 1.34974,0 2.12513,-1.00513 0.54564,-0.71795 0.54564,-1.665644 0,-1.306669 -1.00513,-2.067696 -0.70359,-0.545642 -1.65128,-0.545642 z"
                 id="path7506" /><path
                 d="m 174.99053,72.800597 -0.0144,-1.766157 h 1.14872 v 1.766157 z m -0.0144,7.682065 v -7.03591 h 1.14872 v 7.03591 z"
                 id="path7503" /><path
                 d="m 181.3085,80.65497 q -1.66565,0 -2.6277,-1.163079 v 0.990771 h -1.14872 V 71.03444 h 1.13436 v 3.403083 q 0.97641,-1.14872 2.65642,-1.14872 1.70872,0 2.82872,1.191797 0.96205,1.033848 0.96205,2.469748 0,1.708721 -1.23487,2.785646 -1.06257,0.918976 -2.57026,0.918976 z m 0,-6.332319 q -1.32103,0 -2.12513,0.976412 -0.57436,0.703591 -0.57436,1.636926 0,1.076925 0.77538,1.881029 0.77539,0.789745 1.90975,0.789745 1.34975,0 2.12513,-1.00513 0.54564,-0.71795 0.54564,-1.665644 0,-1.306669 -1.00513,-2.067696 -0.70359,-0.545642 -1.65128,-0.545642 z"
                 id="path7500" /><path
                 d="m 186.24799,80.482662 -0.0144,-9.448222 h 1.14872 v 9.448222 z"
                 id="path7497" /><path
                 d="m 188.80389,72.800597 -0.0144,-1.766157 h 1.14872 v 1.766157 z m -0.0144,7.682065 v -7.03591 h 1.14872 v 7.03591 z"
                 id="path7494" /><path
                 d="m 194.92083,80.65497 q -1.83795,0 -2.9436,-1.249233 -0.90461,-1.019489 -0.90461,-2.469748 0,-1.636926 1.22051,-2.685133 1.06257,-0.918976 2.5559,-0.918976 1.78052,0 2.85744,1.234874 0.8759,1.00513 0.8759,2.44103 0,1.72308 -1.23487,2.785646 -1.00513,0.86154 -2.42667,0.86154 z m -0.0718,-6.289242 q -1.33538,0 -2.09641,0.990771 -0.53128,0.689232 -0.53128,1.608208 0,1.407182 1.0482,2.15385 0.68923,0.488206 1.62257,0.488206 1.33539,0 2.05334,-1.00513 0.4882,-0.674873 0.4882,-1.57949 0,-1.364105 -1.00513,-2.139491 -0.68923,-0.516924 -1.57949,-0.516924 z"
                 id="path7491" /><path
                 d="m 206.22137,81.961639 q -0.8759,1.14872 -2.61334,1.249233 l -0.30154,0.01436 q -2.57026,0 -3.50359,-2.268722 -0.0718,-0.201026 -0.14359,-0.402052 h 1.10564 q 0.40205,0.689232 0.70359,0.976412 0.74667,0.660514 1.80924,0.660514 1.4359,0 2.06769,-0.947694 0.0718,-0.114872 0.12923,-0.244103 0.28718,-0.57436 0.28718,-1.493336 v -0.114872 q -0.84718,1.306669 -2.58462,1.306669 -1.68,0 -2.78564,-1.191797 -0.96206,-1.019489 -0.96206,-2.455389 0,-1.737439 1.22052,-2.814364 1.03385,-0.904617 2.46975,-0.904617 1.65128,0 2.62769,1.191797 V 73.48983 h 1.14872 v 5.729241 q 0,1.72308 -0.53128,2.541543 z m -3.05847,-7.595911 q -1.3641,0 -2.09641,1.019489 -0.48821,0.674873 -0.48821,1.57949 0,1.378464 1.01949,2.15385 0.67488,0.531283 1.57949,0.531283 1.2636,0 2.02462,-0.990771 0.56,-0.732309 0.56,-1.72308 0,-1.263592 -0.97641,-2.024619 -0.68923,-0.545642 -1.62257,-0.545642 z"
                 id="path7488" /><path
                 d="m 209.43776,76.419065 v 4.063597 h -1.14872 v -6.992833 h 1.13436 v 0.71795 q 0.60308,-0.832822 1.9959,-0.875899 v 1.076925 q -1.86667,0.172308 -1.96718,1.780516 l -0.0144,0.01436 z"
                 id="path7485" /><path
                 d="m 218.31165,80.482662 v -1.00513 q -0.93334,1.076925 -2.3118,1.163079 -0.14359,0.01436 -0.30154,0.01436 -1.79488,0 -2.91488,-1.206156 -0.93333,-1.019489 -0.93333,-2.44103 0,-1.694362 1.24923,-2.771287 1.04821,-0.904617 2.54154,-0.904617 1.68001,0 2.65642,1.177438 V 73.48983 h 1.14872 v 6.992833 z m -2.65642,-6.116934 q -1.26359,0 -2.06769,0.947694 -0.58872,0.703591 -0.58872,1.622567 0,1.306669 1.00513,2.096414 0.73231,0.57436 1.70872,0.57436 1.24923,0 2.02462,-0.976412 0.57436,-0.71795 0.57436,-1.680003 0,-1.277951 -0.99077,-2.038978 -0.71795,-0.545642 -1.66565,-0.545642 z"
                 id="path7482" /><path
                 d="m 224.61523,80.698047 q -1.66564,0 -2.6277,-1.163079 v 3.403083 h -1.14872 v -9.448222 h 1.13437 V 74.4806 q 0.97641,-1.14872 2.65641,-1.14872 1.72308,0 2.82872,1.206156 0.96206,1.033848 0.96206,2.498466 0,1.636926 -1.22052,2.713851 -1.09128,0.947694 -2.58462,0.947694 z m -0.0144,-6.332319 q -1.30667,0 -2.11077,0.976412 -0.57436,0.703591 -0.57436,1.636926 0,1.349746 1.01949,2.125132 0.71795,0.545642 1.68,0.545642 1.32103,0 2.09642,-0.990771 0.56,-0.689232 0.56,-1.622567 0,-1.364105 -1.03385,-2.139491 -0.70359,-0.531283 -1.63693,-0.531283 z"
                 id="path7479" /><path
                 d="m 234.79578,80.482662 v -3.776417 q 0,-1.076925 -0.45949,-1.665644 -0.60308,-0.71795 -1.60821,-0.71795 -1.07692,0 -1.68,0.804104 -0.35898,0.502565 -0.35898,1.507695 v 3.848212 h -1.14872 V 71.03444 h 1.13436 v 3.115903 q 0.78975,-0.875899 2.13949,-0.875899 1.52206,0 2.36924,0.962053 l 0.0144,0.01436 0.0144,0.01436 0.0862,0.114872 q 0.6318,0.789745 0.6318,2.326158 v 3.776417 z"
                 id="path7476" /><path
                 d="m 237.33732,72.800597 -0.0144,-1.766157 h 1.14872 v 1.766157 z m -0.0144,7.682065 v -7.03591 h 1.14872 v 7.03591 z"
                 id="path7473" /><path
                 d="m 245.90965,79.850866 q -1.04821,0.804104 -2.3836,0.804104 -1.76615,0 -2.91487,-1.191797 -1.00513,-1.048207 -1.00513,-2.498466 0,-1.593849 1.22051,-2.656415 1.10565,-0.976412 2.6277,-0.976412 1.83795,0 2.97231,1.335387 0.40205,0.473847 0.64616,1.076925 h -1.24924 q -0.81846,-1.378464 -2.38359,-1.378464 -1.30667,0 -2.11077,0.976412 -0.57436,0.71795 -0.57436,1.651285 0,1.234874 0.99077,2.024619 0.74667,0.588719 1.73744,0.588719 1.10564,0 1.90974,-0.804104 0.15795,-0.157949 0.3159,-0.358975 l 0.11487,-0.14359 h 1.27796 q -0.56001,1.033848 -1.09129,1.464618 z"
                 id="path7470" /><path
                 d="m 254.32404,80.482662 v -1.00513 q -0.93334,1.076925 -2.3118,1.163079 -0.14359,0.01436 -0.30154,0.01436 -1.79488,0 -2.91488,-1.206156 -0.93333,-1.019489 -0.93333,-2.44103 0,-1.694362 1.24923,-2.771287 1.04821,-0.904617 2.54154,-0.904617 1.68001,0 2.65642,1.177438 V 73.48983 h 1.14872 v 6.992833 z m -2.65642,-6.116934 q -1.26359,0 -2.06769,0.947694 -0.58872,0.703591 -0.58872,1.622567 0,1.306669 1.00513,2.096414 0.73231,0.57436 1.70872,0.57436 1.24923,0 2.02462,-0.976412 0.57436,-0.71795 0.57436,-1.680003 0,-1.277951 -0.99077,-2.038978 -0.71795,-0.545642 -1.66565,-0.545642 z"
                 id="path7467" /><path
                 d="m 256.86556,80.482662 -0.0144,-9.448222 h 1.14872 v 9.448222 z"
                 id="path7464" /></g><g
               id="g421"
               transform="translate(52.321665)"><g
                 id="g380"
                 transform="translate(4.089575)"><path
                   d="m 62.335538,90.419088 v 4.063597 h -1.14872 v -6.992833 h 1.13436 v 0.71795 q 0.60308,-0.832822 1.9959,-0.875899 v 1.076925 q -1.86667,0.172308 -1.96718,1.780516 l -0.0144,0.01436 z"
                   id="path7461" /><path
                   d="m 65.896578,91.223192 q 0.11487,1.105643 1.10564,1.751798 0.68924,0.459488 1.52206,0.459488 1.20615,0 1.98154,-0.904617 0.2441,-0.28718 0.38769,-0.646155 h 1.17744 q -0.4882,1.478977 -1.82359,2.182568 -0.78975,0.416411 -1.69436,0.416411 -1.69437,0 -2.81437,-1.191797 -0.99077,-1.048207 -0.99077,-2.512825 0,-1.608208 1.1918,-2.670774 1.06256,-0.947694 2.54154,-0.947694 1.59385,0 2.69949,1.091284 0.33026,0.330257 0.56,0.71795 0.47385,0.86154 0.48821,2.254363 z m 2.57026,-3.029749 q -1.30667,0 -2.06769,1.00513 -0.33026,0.43077 -0.45949,0.990771 h 5.1118 q -0.35897,-1.349746 -1.56513,-1.809234 -0.47385,-0.186667 -1.01949,-0.186667 z"
                   id="path7458" /><path
                   d="m 74.957138,88.480623 v 6.002062 h -1.13436 v -6.002062 h -1.10565 v -1.033848 h 1.09129 q 0.0287,-2.412312 2.88616,-2.412312 v 1.019489 q -1.26359,0.01436 -1.57949,0.588719 v 0 q 0,0 0,0 -0.15795,0.28718 -0.15795,0.804104 h 1.73744 v 1.033848 z"
                   id="path7455" /><path
                   d="m 78.202248,91.223192 q 0.11487,1.105643 1.10564,1.751798 0.68923,0.459488 1.52205,0.459488 1.20616,0 1.98154,-0.904617 0.24411,-0.28718 0.3877,-0.646155 h 1.17744 q -0.48821,1.478977 -1.8236,2.182568 -0.78974,0.416411 -1.69436,0.416411 -1.69436,0 -2.81436,-1.191797 -0.99077,-1.048207 -0.99077,-2.512825 0,-1.608208 1.19179,-2.670774 1.06257,-0.947694 2.54155,-0.947694 1.59384,0 2.69949,1.091284 0.33025,0.330257 0.56,0.71795 0.47385,0.86154 0.4882,2.254363 z m 2.57026,-3.029749 q -1.30667,0 -2.0677,1.00513 -0.33026,0.43077 -0.45949,0.990771 h 5.11181 q -0.35898,-1.349746 -1.56513,-1.809234 -0.47385,-0.186667 -1.01949,-0.186667 z"
                   id="path7452" /><path
                   d="m 86.774598,90.419088 v 4.063597 h -1.14872 v -6.992833 h 1.13436 v 0.71795 q 0.60308,-0.832822 1.9959,-0.875899 v 1.076925 q -1.86667,0.172308 -1.96718,1.780516 l -0.0144,0.01436 z"
                   id="path7449" /><path
                   d="m 90.335638,91.223192 q 0.11487,1.105643 1.10564,1.751798 0.68923,0.459488 1.52205,0.459488 1.20616,0 1.98155,-0.904617 0.2441,-0.28718 0.38769,-0.646155 h 1.17744 q -0.48821,1.478977 -1.8236,2.182568 -0.78974,0.416411 -1.69436,0.416411 -1.69436,0 -2.81436,-1.191797 -0.99077,-1.048207 -0.99077,-2.512825 0,-1.608208 1.19179,-2.670774 1.06257,-0.947694 2.54155,-0.947694 1.59385,0 2.69949,1.091284 0.33026,0.330257 0.56,0.71795 0.47385,0.86154 0.48821,2.254363 z m 2.57026,-3.029749 q -1.30667,0 -2.0677,1.00513 -0.33025,0.43077 -0.45949,0.990771 h 5.11181 q -0.35898,-1.349746 -1.56513,-1.809234 -0.47385,-0.186667 -1.01949,-0.186667 z"
                   id="path7446" /><path
                   d="M 103.01466,94.482685 V 90.82114 q 0,-1.220515 -0.44513,-1.751798 -0.54564,-0.703591 -1.62256,-0.703591 -1.148722,0 -1.694372,0.789745 -0.34461,0.473847 -0.34461,1.493336 v 3.833853 h -1.14872 v -6.992833 h 1.13436 v 0.732309 q 0.8759,-0.890258 2.168212,-0.890258 1.59385,0 2.44103,1.091284 0.58872,0.746668 0.63179,1.981542 l 0.0144,0.416411 v 3.661545 z"
                   id="path7443" /><path
                   d="m 111.57261,93.678581 q -1.04821,0.804104 -2.38359,0.804104 -1.76616,0 -2.91488,-1.191797 -1.00513,-1.048207 -1.00513,-2.498466 0,-1.593849 1.22051,-2.656415 1.10565,-0.976412 2.6277,-0.976412 1.83795,0 2.97232,1.335387 0.40205,0.473847 0.64615,1.076925 h -1.24923 q -0.81847,-1.378464 -2.3836,-1.378464 -1.30667,0 -2.11077,0.976412 -0.57436,0.71795 -0.57436,1.651285 0,1.234874 0.99077,2.024619 0.74667,0.588719 1.73744,0.588719 1.10564,0 1.90975,-0.804104 0.15795,-0.157949 0.3159,-0.358975 l 0.11487,-0.14359 h 1.27795 q -0.56,1.033848 -1.09129,1.464618 z"
                   id="path7440" /><path
                   d="m 114.67417,91.223192 q 0.11487,1.105643 1.10564,1.751798 0.68923,0.459488 1.52206,0.459488 1.20615,0 1.98154,-0.904617 0.2441,-0.28718 0.38769,-0.646155 h 1.17744 q -0.48821,1.478977 -1.82359,2.182568 -0.78975,0.416411 -1.69437,0.416411 -1.69436,0 -2.81436,-1.191797 -0.99077,-1.048207 -0.99077,-2.512825 0,-1.608208 1.1918,-2.670774 1.06256,-0.947694 2.54154,-0.947694 1.59385,0 2.69949,1.091284 0.33026,0.330257 0.56,0.71795 0.47385,0.86154 0.48821,2.254363 z m 2.57026,-3.029749 q -1.30667,0 -2.0677,1.00513 -0.33025,0.43077 -0.45948,0.990771 h 5.1118 q -0.35897,-1.349746 -1.56513,-1.809234 -0.47385,-0.186667 -1.01949,-0.186667 z"
                   id="path7437" /><path
                   d="m 123.87832,94.482685 q -1.4359,0 -2.05334,-1.105643 -0.28718,-0.531283 -0.30154,-1.249233 h 1.12 q 0.0862,1.234874 1.23488,1.306669 0.70359,0 0.97641,-0.588719 0.10051,-0.229744 0.10051,-0.488206 0,-0.560001 -0.40205,-0.804104 -0.2441,-0.157949 -0.89026,-0.43077 l -0.91897,-0.373334 q -0.24411,-0.14359 -0.40206,-0.301539 -0.56,-0.502565 -0.56,-1.29231 0,-1.076925 0.8759,-1.651285 0.51693,-0.344616 1.20616,-0.344616 1.22051,0 1.78051,0.976412 v 0 q 0.14359,0.244103 0.21539,0.531283 0.0574,0.244103 0.0718,0.516924 h -1.14872 q -0.0861,-0.990771 -0.93333,-0.990771 -0.58872,0 -0.83282,0.502565 -0.0862,0.172308 -0.0862,0.387693 0,0.545642 0.58872,0.804104 l 1.52206,0.646155 q 0.94769,0.502565 1.0482,1.464618 0.0144,0.129231 0.0144,0.272821 0,1.191797 -0.91897,1.823593 -0.56001,0.387693 -1.30667,0.387693 z"
                   id="path7434" /><path
                   d="m 136.25578,94.310377 v -0.818463 q -0.71795,0.990771 -2.15385,0.990771 -1.66564,0 -2.49846,-1.134361 -0.57436,-0.761027 -0.57436,-2.254363 v -3.776417 h 1.13436 v 3.776417 q 0,0.976412 0.31589,1.536413 0.50257,0.804104 1.69437,0.804104 1.10564,0 1.66564,-0.804104 0.40205,-0.545642 0.40205,-1.72308 v -3.58975 h 1.14872 v 6.992833 z"
                   id="path7431" /><path
                   d="m 140.57784,94.482685 q -1.4359,0 -2.05334,-1.105643 -0.28718,-0.531283 -0.30154,-1.249233 h 1.12001 q 0.0861,1.234874 1.23487,1.306669 0.70359,0 0.97641,-0.588719 0.10052,-0.229744 0.10052,-0.488206 0,-0.560001 -0.40206,-0.804104 -0.2441,-0.157949 -0.89025,-0.43077 l -0.91898,-0.373334 q -0.2441,-0.14359 -0.40205,-0.301539 -0.56,-0.502565 -0.56,-1.29231 0,-1.076925 0.8759,-1.651285 0.51692,-0.344616 1.20615,-0.344616 1.22052,0 1.78052,0.976412 v 0 q 0.14359,0.244103 0.21538,0.531283 0.0574,0.244103 0.0718,0.516924 h -1.14872 q -0.0862,-0.990771 -0.93334,-0.990771 -0.58872,0 -0.83282,0.502565 -0.0862,0.172308 -0.0862,0.387693 0,0.545642 0.58872,0.804104 l 1.52205,0.646155 q 0.94769,0.502565 1.04821,1.464618 0.0144,0.129231 0.0144,0.272821 0,1.191797 -0.91898,1.823593 -0.56,0.387693 -1.30667,0.387693 z"
                   id="path7428" /><path
                   d="m 144.62708,91.223192 q 0.11487,1.105643 1.10564,1.751798 0.68924,0.459488 1.52206,0.459488 1.20615,0 1.98154,-0.904617 0.2441,-0.28718 0.38769,-0.646155 h 1.17744 q -0.48821,1.478977 -1.82359,2.182568 -0.78975,0.416411 -1.69436,0.416411 -1.69437,0 -2.81437,-1.191797 -0.99077,-1.048207 -0.99077,-2.512825 0,-1.608208 1.1918,-2.670774 1.06256,-0.947694 2.54154,-0.947694 1.59385,0 2.69949,1.091284 0.33026,0.330257 0.56,0.71795 0.47385,0.86154 0.48821,2.254363 z m 2.57026,-3.029749 q -1.30667,0 -2.06769,1.00513 -0.33026,0.43077 -0.45949,0.990771 h 5.1118 q -0.35897,-1.349746 -1.56513,-1.809234 -0.47385,-0.186667 -1.01949,-0.186667 z"
                   id="path7425" /><path
                   d="M 158.25377,94.310377 V 93.26217 q -0.91898,1.14872 -2.35488,1.220515 h -0.20102 q -1.78052,0 -2.92924,-1.206156 -0.99077,-1.033848 -0.99077,-2.484107 0,-1.680003 1.24923,-2.756928 1.06257,-0.918976 2.57026,-0.918976 1.59385,0 2.65642,1.091284 v -3.345647 h 1.14872 v 9.448222 z M 155.583,88.150366 q -1.27796,0 -2.0677,0.962053 -0.58872,0.71795 -0.58872,1.651285 0,1.306669 1.00513,2.096414 0.74667,0.57436 1.73744,0.57436 1.22051,0 2.01026,-0.962053 0.61744,-0.746668 0.61744,-1.708721 0,-1.206156 -0.96206,-1.995901 -0.76102,-0.617437 -1.75179,-0.617437 z"
                   id="path7422" /></g><g
                 id="g384"><path
                   d="m 170.7382,86.80062 -0.0144,-1.766157 h 1.14872 v 1.766157 z m -0.0144,7.682065 v -7.03591 h 1.14872 v 7.03591 z"
                   id="path7419" /><path
                   d="M 178.53514,94.482685 V 90.82114 q 0,-1.220515 -0.44513,-1.751798 -0.54564,-0.703591 -1.62257,-0.703591 -1.14872,0 -1.69436,0.789745 -0.34462,0.473847 -0.34462,1.493336 v 3.833853 h -1.14872 v -6.992833 h 1.13436 v 0.732309 q 0.8759,-0.890258 2.16821,-0.890258 1.59385,0 2.44103,1.091284 0.58872,0.746668 0.6318,1.981542 l 0.0144,0.416411 v 3.661545 z"
                   id="path7416" /></g><g
                 id="g393"><path
                   d="m 191.41518,93.750376 q -1.29231,0.732309 -3.4318,0.732309 h -2.74257 v -9.821556 h 2.41231 q 2.28308,0 3.51796,0.617437 0.14359,0.0718 0.28718,0.157949 2.05333,1.191797 2.25436,3.661545 0.0287,0.244103 0.0287,0.516924 0,2.627697 -2.09642,3.991802 -0.11487,0.07179 -0.22974,0.14359 z m -0.61744,-7.409244 q -1.00513,-0.617437 -3.10154,-0.617437 h -1.27795 v 7.696424 h 1.27795 q 2.32616,0 3.38872,-0.775386 l 0.0718,-0.05744 q 1.30667,-1.048207 1.39282,-2.800005 0,-0.114872 0,-0.215385 0,-1.837952 -1.27795,-2.900518 -0.22974,-0.186667 -0.47385,-0.330257 z"
                   id="path7413" /><path
                   d="m 201.10749,94.310376 v -1.00513 q -0.93333,1.076925 -2.3118,1.163079 -0.14359,0.01436 -0.30154,0.01436 -1.79487,0 -2.91487,-1.206156 -0.93334,-1.019489 -0.93334,-2.44103 0,-1.694362 1.24924,-2.771287 1.0482,-0.904617 2.54154,-0.904617 1.68,0 2.65641,1.177438 v -1.019489 h 1.14872 v 6.992833 z m -2.65641,-6.116934 q -1.26359,0 -2.0677,0.947694 -0.58872,0.703591 -0.58872,1.622567 0,1.306669 1.00513,2.096414 0.73231,0.57436 1.70872,0.57436 1.24924,0 2.02462,-0.976412 0.57436,-0.71795 0.57436,-1.680003 0,-1.277951 -0.99077,-2.038978 -0.71795,-0.545642 -1.66564,-0.545642 z"
                   id="path7410" /><path
                   d="m 205.64493,88.480623 v 6.002062 h -1.14872 v -6.002062 h -1.5077 v -1.033848 h 1.5077 v -2.412312 h 1.13436 v 2.412312 h 1.57949 v 1.033848 z"
                   id="path7407" /><path
                   d="m 214.14547,94.310376 v -1.00513 q -0.93334,1.076925 -2.3118,1.163079 -0.14359,0.01436 -0.30154,0.01436 -1.79488,0 -2.91488,-1.206156 -0.93333,-1.019489 -0.93333,-2.44103 0,-1.694362 1.24923,-2.771287 1.04821,-0.904617 2.54154,-0.904617 1.68,0 2.65642,1.177438 v -1.019489 h 1.14872 v 6.992833 z m -2.65642,-6.116934 q -1.26359,0 -2.0677,0.947694 -0.58871,0.703591 -0.58871,1.622567 0,1.306669 1.00513,2.096414 0.7323,0.57436 1.70872,0.57436 1.24923,0 2.02462,-0.976412 0.57436,-0.71795 0.57436,-1.680003 0,-1.277951 -0.99078,-2.038978 -0.71795,-0.545642 -1.66564,-0.545642 z"
                   id="path7404" /><path
                   d="m 219.40085,85.723695 v 8.75899 h -1.19179 v -8.75899 h -2.25437 v -1.062566 h 5.68617 v 1.062566 z"
                   id="path7401" /><path
                   d="m 223.206,91.223192 q 0.11488,1.105643 1.10565,1.751798 0.68923,0.459488 1.52205,0.459488 1.20616,0 1.98154,-0.904617 0.24411,-0.28718 0.3877,-0.646155 h 1.17743 q -0.4882,1.478977 -1.82359,2.182568 -0.78974,0.416411 -1.69436,0.416411 -1.69436,0 -2.81437,-1.191797 -0.99077,-1.048207 -0.99077,-2.512825 0,-1.608208 1.1918,-2.670774 1.06257,-0.947694 2.54154,-0.947694 1.59385,0 2.6995,1.091284 0.33025,0.330257 0.56,0.71795 0.47384,0.86154 0.4882,2.254363 z m 2.57026,-3.029749 q -1.30666,0 -2.06769,1.00513 -0.33026,0.43077 -0.45949,0.990771 h 5.1118 q -0.35897,-1.349746 -1.56513,-1.809234 -0.47384,-0.186667 -1.01949,-0.186667 z"
                   id="path7398" /><path
                   d="m 234.82245,94.482685 -1.82359,-2.642056 -1.83795,2.642056 h -1.32103 l 2.51282,-3.575391 -2.52718,-3.417442 h 1.33539 l 1.83795,2.555902 1.82359,-2.555902 h 1.33539 l -2.51283,3.417442 2.49847,3.575391 z"
                   id="path7395" /></g></g></g><g
             aria-label="Bibliography"
             transform="matrix(0.33271755,0,0,0.33271755,41.992072,-12.363783)"
             id="text367"
             style="font-size:40px;line-height:1.25;white-space:pre;shape-inside:url(#rect369);display:inline;fill:#f2f2f2"><path
               d="m -83.259525,82.311714 q -1.969231,1.169231 -5.446154,1.169231 h -5.815385 V 62.434791 h 4.553846 q 3.723077,0 5.261539,0.769231 0.246154,0.123077 0.523077,0.276923 2.184615,1.353846 2.492308,3.969231 0.03077,0.338461 0.03077,0.676923 0,2.461538 -1.753846,3.661538 -0.153847,0.123077 -0.338462,0.215385 1.538462,0.676923 2.246154,1.630769 1.076923,1.415385 1.076923,3.507692 0,3.015385 -2.246154,4.769231 z m -5.569231,-15.723077 h -1.384615 v 3.784616 h 1.046153 q 2.8,0 3.107693,-1.384616 l 0.03077,-0.03077 0.03077,-0.461539 q 0,-1.907692 -2.830769,-1.907692 z m 0.276923,7.969231 h -1.661538 v 4.861538 h 1.753846 q 3.230769,0 3.630769,-1.692307 0.06154,-0.307693 0.06154,-0.676923 0,-2.153847 -2.76923,-2.43077 z"
               style="font-weight:bold;font-family:KerkisSans;-inkscape-font-specification:'KerkisSans Bold'"
               id="path7605" /><path
               d="m -78.428754,66.496329 -0.03077,-3.846153 h 4.215384 v 3.846153 z m -0.03077,16.984616 V 67.727099 h 4.215384 v 15.753846 z"
               style="font-weight:bold;font-family:KerkisSans;-inkscape-font-specification:'KerkisSans Bold'"
               id="path7602" /><path
               d="m -56.674936,81.080945 q -2.184615,2.769231 -5.96923,2.769231 -2.923077,0 -4.83077,-1.692308 -0.153846,-0.153846 -0.338461,-0.338462 v 1.661539 H -71.72109 V 62.650176 h 4.184616 v 6.246153 q 1.938461,-1.692307 4.646154,-1.692307 3.723077,0 6.061538,2.676923 2.030769,2.338461 2.030769,5.630769 0,3.2 -1.876923,5.569231 z m -6.738461,-10.092308 q -2.4,0 -3.630769,1.907692 -0.707693,1.138462 -0.707693,2.615385 0,2.646154 1.969231,3.876923 1.046154,0.676923 2.430769,0.676923 2.492308,0 3.692308,-1.969231 0.676923,-1.107692 0.676923,-2.584615 0,-2.461538 -1.876923,-3.753846 -1.107692,-0.769231 -2.553846,-0.769231 z"
               style="font-weight:bold;font-family:KerkisSans;-inkscape-font-specification:'KerkisSans Bold'"
               id="path7599" /><path
               d="m -53.105726,83.480945 -0.03077,-20.830769 h 4.215385 v 20.830769 z"
               style="font-weight:bold;font-family:KerkisSans;-inkscape-font-specification:'KerkisSans Bold'"
               id="path7596" /><path
               d="m -46.367292,66.496329 -0.03077,-3.846153 h 4.215385 v 3.846153 z m -0.03077,16.984616 V 67.727099 h 4.215385 v 15.753846 z"
               style="font-weight:bold;font-family:KerkisSans;-inkscape-font-specification:'KerkisSans Bold'"
               id="path7593" /><path
               d="m -31.813473,83.850176 q -3.63077,0 -6.153846,-2.553847 -2.369231,-2.36923 -2.369231,-5.630769 0,-3.446154 2.615384,-5.876923 2.461539,-2.307692 5.876923,-2.307692 3.846154,0 6.338462,2.646154 2.246154,2.36923 2.246154,5.661538 0,3.353846 -2.615385,5.753846 -2.492307,2.307693 -5.938461,2.307693 z m 0,-12.584616 q -2.123077,0 -3.415385,1.723077 -0.892308,1.169231 -0.892308,2.615385 0,2.338461 1.815385,3.630769 1.107692,0.830769 2.523077,0.830769 2.153846,0 3.446154,-1.753846 0.861538,-1.169231 0.861538,-2.646154 0,-2.215384 -1.753846,-3.538461 -1.138461,-0.861539 -2.584615,-0.861539 z"
               style="font-weight:bold;font-family:KerkisSans;-inkscape-font-specification:'KerkisSans Bold'"
               id="path7590" /><path
               d="m -7.1057732,86.834791 q -2.2461539,2.892308 -6.6769228,2.892308 -4.984616,0 -7.446154,-3.63077 -0.523077,-0.76923 -0.892308,-1.661538 h 4.646154 q 1.323077,1.415385 3.076923,1.569231 l 0.769231,0.03077 q 3.6923075,0 4.0923075,-4.092308 -1.9384615,2.03077 -4.8615385,2.03077 -3.815385,0 -6.061538,-2.83077 -1.846154,-2.276923 -1.846154,-5.538461 0,-3.753846 2.553846,-6.092308 2.215385,-2.030769 5.384615,-2.030769 3.2,0 4.8615388,1.938461 v -1.56923 h 4.0307692 v 12.646153 q 0,4.276924 -1.6307692,6.338462 z M -13.936542,71.26556 q -2.523077,0 -3.6,2.092308 -0.553847,1.046154 -0.553847,2.430769 0,2.8 2.061539,3.876923 0.923077,0.492308 2.123077,0.492308 2.646154,0 3.753846,-2.061539 0.5230769,-1.015384 0.5230769,-2.307692 0,-2.676923 -1.9999999,-3.907692 -1.015385,-0.615385 -2.307692,-0.615385 z"
               style="font-weight:bold;font-family:KerkisSans;-inkscape-font-specification:'KerkisSans Bold'"
               id="path7587" /><path
               d="m 1.1711292,74.834791 v 8.646154 H -3.0442554 V 67.850176 h 3.87692306 v 1.046153 Q 1.9095907,67.573253 3.6018984,67.480945 h 0.4 0.523077 v 3.938461 q -2.8923077,0.03077 -3.2923077,2.43077 z"
               style="font-weight:bold;font-family:KerkisSans;-inkscape-font-specification:'KerkisSans Bold'"
               id="path7584" /><path
               d="m 18.371118,83.480945 v -1.661539 q -1.938462,1.938462 -5.015385,2.03077 -3.8461538,0 -6.1846153,-2.707693 -1.9076923,-2.215384 -1.9076923,-5.415384 0,-3.907693 2.7076923,-6.276923 2.2461543,-1.969231 5.4769233,-1.969231 3.076923,0 4.892307,2.030769 v -1.661538 h 3.876924 V 83.480945 Z M 13.848041,71.26556 q -2.461539,0 -3.661539,1.969231 -0.707692,1.107692 -0.707692,2.584615 0,2.492308 1.969231,3.63077 1.076923,0.615384 2.461538,0.615384 2.092308,0 3.230769,-1.292307 1.107693,-1.261539 1.107693,-2.984616 0,-2.615384 -1.969231,-3.846154 -1.046154,-0.676923 -2.430769,-0.676923 z"
               style="font-weight:bold;font-family:KerkisSans;-inkscape-font-specification:'KerkisSans Bold'"
               id="path7581" /><path
               d="m 33.294174,83.942483 q -2.615385,0 -4.553846,-1.56923 v 6.338461 H 24.524943 V 67.850176 h 3.876923 v 1.476923 q 1.907693,-1.846154 4.923077,-1.846154 3.815385,0 6.123077,2.738461 1.907692,2.215385 1.907692,5.446154 0,3.907693 -2.646153,6.276923 -2.246154,2 -5.415385,2 z M 32.863405,71.26556 q -2.369231,0 -3.63077,1.876923 -0.738461,1.107693 -0.738461,2.553846 0,2.4 1.846154,3.692308 1.107692,0.769231 2.553846,0.769231 2.184615,0 3.446154,-1.784615 0.8,-1.169231 0.8,-2.615385 0,-2.430769 -1.815385,-3.723077 Q 34.24802,71.26556 32.863405,71.26556 Z"
               style="font-weight:bold;font-family:KerkisSans;-inkscape-font-specification:'KerkisSans Bold'"
               id="path7578" /><path
               d="m 53.232615,83.480945 v -8.030769 q 0,-3.323077 -1.476923,-4.03077 v 0 q -0.553846,-0.246153 -1.353846,-0.246153 -1.815385,0 -2.584616,1.353846 -0.492307,0.861538 -0.492307,2.984615 v 7.969231 H 43.109538 V 62.650176 h 4.184615 v 5.907692 q 1.569231,-1.169231 3.784616,-1.169231 3.538461,0 5.230769,2.492308 1.076923,1.630769 1.107692,4.738461 v 8.861539 z"
               style="font-weight:bold;font-family:KerkisSans;-inkscape-font-specification:'KerkisSans Bold'"
               id="path7575" /><path
               d="m 65.878757,88.711714 h -4.492308 l 3.015385,-6.769231 -5.815385,-14.092307 h 4.738462 l 3.353846,9.507692 3.630769,-9.507692 h 4.769231 z"
               style="font-weight:bold;font-family:KerkisSans;-inkscape-font-specification:'KerkisSans Bold'"
               id="path7572" /></g><path
             d="M 9.075661,13.361479 V 8.7395087 c 0,-0.182952 -0.126155,-0.330141 -0.282964,-0.330141 H 4.9255178 c -0.624879,0 -1.131857,0.5915034 -1.131857,1.3205624 v 4.4018769 c 0,0.729058 0.506978,1.320561 1.131857,1.320561 H 8.792697 c 0.156809,0 0.282964,-0.147188 0.282964,-0.330141 v -0.220093 c 0,-0.103165 -0.04127,-0.196709 -0.104933,-0.257234 -0.04952,-0.21184 -0.04952,-0.815722 0,-1.027563 0.06367,-0.05915 0.104933,-0.152689 0.104933,-0.255858 z M 5.3028038,10.252652 c 0,-0.04539 0.03183,-0.08254 0.07074,-0.08254 H 7.873062 c 0.03891,0 0.07074,0.03714 0.07074,0.08254 v 0.275117 c 0,0.04539 -0.03183,0.08254 -0.07074,0.08254 H 5.3735438 c -0.03891,0 -0.07074,-0.03713 -0.07074,-0.08254 z m 0,0.880375 c 0,-0.04539 0.03183,-0.08254 0.07074,-0.08254 H 7.873062 c 0.03891,0 0.07074,0.03713 0.07074,0.08254 v 0.275117 c 0,0.0454 -0.03183,0.08254 -0.07074,0.08254 H 5.3735438 c -0.03891,0 -0.07074,-0.03714 -0.07074,-0.08254 z M 8.290435,14.571994 H 4.9255178 c -0.208686,0 -0.377286,-0.196709 -0.377286,-0.440187 0,-0.242102 0.169779,-0.440187 0.377286,-0.440187 H 8.290435 c -0.0224,0.235224 -0.0224,0.64515 0,0.880374 z"
             id="path2"
             style="fill:#f2f2f2;stroke-width:0.0127351" /></g></g></g></g></svg>
