<?xml version="1.0" encoding="UTF-8" standalone="no"?>
<!-- Created with Inkscape (http://www.inkscape.org/) -->

<svg
   width="255.99998"
   height="128"
   viewBox="0 0 67.733321 33.866667"
   version="1.1"
   id="svg5"
   xml:space="preserve"
   sodipodi:docname="ClassesDB.svg"
   inkscape:version="1.2.2 (b0a8486541, 2022-12-01)"
   xmlns:inkscape="http://www.inkscape.org/namespaces/inkscape"
   xmlns:sodipodi="http://sodipodi.sourceforge.net/DTD/sodipodi-0.dtd"
   xmlns="http://www.w3.org/2000/svg"
   xmlns:svg="http://www.w3.org/2000/svg"><sodipodi:namedview
     id="namedview10300"
     pagecolor="#505050"
     bordercolor="#eeeeee"
     borderopacity="1"
     inkscape:showpageshadow="0"
     inkscape:pageopacity="0"
     inkscape:pagecheckerboard="0"
     inkscape:deskcolor="#505050"
     showgrid="false"
     inkscape:zoom="2.6074563"
     inkscape:cx="107.57611"
     inkscape:cy="71.333891"
     inkscape:window-width="1366"
     inkscape:window-height="694"
     inkscape:window-x="0"
     inkscape:window-y="0"
     inkscape:window-maximized="1"
     inkscape:current-layer="svg5" /><defs
     id="defs2"><rect
       x="7.9878626"
       y="68.10704"
       width="390.31607"
       height="59.552677"
       id="rect387" /><rect
       x="-96.244637"
       y="47.086346"
       width="219.45601"
       height="95.854347"
       id="rect369" /><rect
       x="7.9878626"
       y="68.10704"
       width="390.31607"
       height="59.552677"
       id="rect387-6" /></defs><g
     aria-label="Classes"
     transform="matrix(0.33271755,0,0,0.33271755,55.872459,-10.452515)"
     id="text367"
     style="font-size:40px;line-height:1.25;white-space:pre;shape-inside:url(#rect369);display:inline;fill:#f2f2f2"><path
       d="m -84.305679,83.850176 q -4.584615,0 -7.876923,-3.076923 -3.230769,-3.015385 -3.446154,-7.323077 v -0.553847 q 0,-4.276923 3.046154,-7.415384 3.015384,-3.138462 7.323077,-3.384616 l 0.676923,-0.03077 q 4.061538,0 7.107692,2.430769 1.661539,1.323077 2.676923,3.2 v 0 l 0.523077,1.076924 h -4.8 q -1.815384,-2.338462 -4.676923,-2.553847 -0.338461,-0.03077 -0.738461,-0.03077 -3.169231,0 -5.076924,2.184616 -1.692307,1.938461 -1.692307,4.553846 0,3.015384 2.276923,5.046154 1.969231,1.784615 4.584615,1.784615 2.430769,0 4.338462,-1.692308 l 0.03077,-0.03077 q 0.369231,-0.307692 0.738462,-0.707692 h 4.984615 q -1.723077,3.96923 -5.6,5.630769 -2.061539,0.892308 -4.4,0.892308 z"
       style="font-weight:bold;font-family:KerkisSans;-inkscape-font-specification:'KerkisSans Bold'"
       id="path10954" /><path
       d="m -72.736463,83.480945 -0.03077,-20.830769 h 4.215385 v 20.830769 z"
       style="font-weight:bold;font-family:KerkisSans;-inkscape-font-specification:'KerkisSans Bold'"
       id="path10951" /><path
       d="m -53.598029,83.480945 v -1.661539 q -1.938462,1.938462 -5.015385,2.03077 -3.846153,0 -6.184615,-2.707693 -1.907692,-2.215384 -1.907692,-5.415384 0,-3.907693 2.707692,-6.276923 2.246154,-1.969231 5.476923,-1.969231 3.076923,0 4.892308,2.030769 v -1.661538 h 3.876923 V 83.480945 Z M -58.121106,71.26556 q -2.461538,0 -3.661538,1.969231 -0.707693,1.107692 -0.707693,2.584615 0,2.492308 1.969231,3.63077 1.076923,0.615384 2.461539,0.615384 2.092307,0 3.230769,-1.292307 1.107692,-1.261539 1.107692,-2.984616 0,-2.615384 -1.969231,-3.846154 -1.046154,-0.676923 -2.430769,-0.676923 z"
       style="font-weight:bold;font-family:KerkisSans;-inkscape-font-specification:'KerkisSans Bold'"
       id="path10948" /><path
       d="m -42.459588,83.850176 q -2.769231,0 -4.492308,-1.784616 l -0.369231,-0.430769 q -0.830769,-1.138462 -1.076923,-3.169231 l -0.03077,-0.246154 h 4.184615 q 0.461539,1.6 1.415385,1.784616 l 0.492308,0.06154 q 1.169231,0 1.446154,-0.892307 l 0.06154,-0.369231 q 0,-1.015385 -2.092308,-1.630769 0.09231,0.03077 -0.246153,-0.06154 l -0.03077,-0.03077 -0.153846,-0.03077 q -3.415384,-1.138462 -4.215384,-2.984616 -0.307693,-0.738461 -0.307693,-1.723077 0,-2.4 2.061539,-3.846154 1.476923,-1.015384 3.353846,-1.015384 2.584615,0 4.184615,1.753846 1.046154,1.107692 1.169231,2.984615 v 0.03077 l 0.03077,0.215384 h -4.061538 q -0.307693,-1.2 -1.323077,-1.2 -0.892308,0 -1.169231,0.738462 v 0.03077 l -0.03077,0.03077 q -0.03077,0.123077 -0.03077,0.276923 0,0.584616 1.046153,0.984616 v 0 h 0.03077 q 0,0 0.09231,0.03077 l 2.738462,0.892308 q 0.984615,0.4 1.569231,0.892307 1.538461,1.2 1.538461,3.292308 0,2.615385 -2.123077,4.246154 -1.6,1.169231 -3.661538,1.169231 z"
       style="font-weight:bold;font-family:KerkisSans;-inkscape-font-specification:'KerkisSans Bold'"
       id="path10945" /><path
       d="m -30.090356,83.850176 q -2.769231,0 -4.492308,-1.784616 l -0.36923,-0.430769 q -0.83077,-1.138462 -1.076924,-3.169231 l -0.03077,-0.246154 h 4.184616 q 0.461538,1.6 1.415384,1.784616 l 0.492308,0.06154 q 1.169231,0 1.446154,-0.892307 l 0.06154,-0.369231 q 0,-1.015385 -2.092307,-1.630769 0.09231,0.03077 -0.246154,-0.06154 l -0.03077,-0.03077 -0.153846,-0.03077 q -3.415384,-1.138462 -4.215384,-2.984616 -0.307693,-0.738461 -0.307693,-1.723077 0,-2.4 2.061539,-3.846154 1.476923,-1.015384 3.353846,-1.015384 2.584615,0 4.184615,1.753846 1.046154,1.107692 1.169231,2.984615 v 0.03077 l 0.03077,0.215384 h -4.061538 q -0.307692,-1.2 -1.323077,-1.2 -0.892308,0 -1.169231,0.738462 v 0.03077 l -0.03077,0.03077 q -0.03077,0.123077 -0.03077,0.276923 0,0.584616 1.046154,0.984616 v 0 h 0.03077 q 0,0 0.09231,0.03077 l 2.738461,0.892308 q 0.984615,0.4 1.569231,0.892307 1.538461,1.2 1.538461,3.292308 0,2.615385 -2.123077,4.246154 -1.6,1.169231 -3.661538,1.169231 z"
       style="font-weight:bold;font-family:KerkisSans;-inkscape-font-specification:'KerkisSans Bold'"
       id="path10942" /><path
       d="M -6.8288161,77.511714 H -18.798047 q 0.615385,1.938462 2.8,2.430769 0.584616,0.123077 1.230769,0.123077 1.846154,0 3.015385,-1.138461 0.153846,-0.153846 0.338462,-0.369231 h 4.461538 q -0.4307693,1.353846 -1.3538462,2.461538 -2.4615388,2.83077 -6.3692308,2.83077 -3.907692,0 -6.461538,-2.615385 -2.246154,-2.307692 -2.246154,-5.507692 0,-3.6 2.646154,-6.03077 2.430769,-2.215384 5.815384,-2.215384 3.876923,0 6.2769233,2.738461 2.0307692,2.338462 2.0307692,5.661539 0,0.646154 -0.2153846,1.630769 z M -14.859585,71.26556 q -3.107693,0 -4.061539,2.584616 h 8.092308 q -0.738462,-2.584616 -4.030769,-2.584616 z"
       style="font-weight:bold;font-family:KerkisSans;-inkscape-font-specification:'KerkisSans Bold'"
       id="path10939" /><path
       d="m 0.30965318,83.850176 q -2.76923078,0 -4.49230768,-1.784616 L -4.5518853,81.634791 Q -5.3826545,80.496329 -5.6288084,78.46556 l -0.030769,-0.246154 h 4.1846154 q 0.4615385,1.6 1.41538461,1.784616 l 0.49230769,0.06154 q 1.1692308,0 1.4461538,-0.892307 l 0.061539,-0.369231 q 0,-1.015385 -2.09230768,-1.630769 0.09230769,0.03077 -0.24615385,-0.06154 l -0.0307692,-0.03077 -0.15384615,-0.03077 Q -3.9980391,75.911714 -4.7980391,74.06556 q -0.3076923,-0.738461 -0.3076923,-1.723077 0,-2.4 2.0615384,-3.846154 1.4769231,-1.015384 3.35384618,-1.015384 2.58461542,0 4.18461542,1.753846 1.0461538,1.107692 1.1692307,2.984615 v 0.03077 l 0.030769,0.215384 H 1.6327301 q -0.3076923,-1.2 -1.32307692,-1.2 -0.89230769,0 -1.16923077,0.738462 v 0.03077 l -0.0307692,0.03077 q -0.0307692,0.123077 -0.0307692,0.276923 0,0.584616 1.04615384,0.984616 v 0 h 0.0307692 q 0,0 0.0923077,0.03077 l 2.73846155,0.892308 q 0.9846153,0.4 1.5692307,0.892307 1.5384616,1.2 1.5384616,3.292308 0,2.615385 -2.123077,4.246154 -1.6,1.169231 -3.66153839,1.169231 z"
       style="font-weight:bold;font-family:KerkisSans;-inkscape-font-specification:'KerkisSans Bold'"
       id="path10936" /></g><g
     id="g489"
     transform="matrix(0.01947583,0,0,0.01947583,9.6176439,8.9756047)"
     style="fill:#f2f2f2"><path
       d="M 36.465046,95.476889 H 229.90251 q 11.13309,0 16.35173,2.783273 5.21864,2.435368 6.95818,8.001908 1.73955,5.56655 1.73955,14.61219 0,9.04563 -1.73955,14.61218 -1.73954,5.21864 -5.91445,7.30609 -6.26237,3.13118 -17.74337,3.13118 h -66.45064 v 174.9983 q 0,8.00191 -0.69582,11.82891 -0.34791,3.827 -3.13118,9.04563 -2.43536,4.87073 -9.04564,6.95818 -6.61027,2.08746 -17.39545,2.08746 -10.78518,0 -17.39546,-2.08746 -6.26236,-2.08745 -9.04563,-6.95818 -2.43536,-5.21863 -3.13118,-9.04563 -0.34791,-4.17491 -0.34791,-12.17682 V 145.92371 H 36.117137 q -11.133092,0 -16.351729,-2.43536 -5.218637,-2.78327 -6.958182,-8.34982 -1.739546,-5.56654 -1.739546,-14.61218 0,-9.04564 1.739546,-14.26428 1.739545,-5.56654 5.914455,-7.653999 6.262364,-3.131182 17.743365,-3.131182 z"
       style="font-weight:bold;font-size:40px;line-height:1.25;font-family:'Fredoka One';-inkscape-font-specification:'Fredoka One Bold';white-space:pre;fill:#f2f2f2;stroke-width:8.69773"
       id="path476" /><path
       d="m 255.6672,389.26228 h 107.15601 q 8.00191,0 11.82891,0.69581 4.17491,0.34791 9.39354,3.13119 9.39355,4.87072 9.39355,27.13691 0,24.35364 -12.87264,28.52854 -5.91445,2.08746 -18.09127,2.08746 H 224.70329 q -24.35364,0 -28.52855,-13.22055 -2.08746,-5.56654 -2.08746,-17.74336 V 226.44081 q 0,-17.74337 6.61028,-24.00574 6.61027,-6.61027 25.04945,-6.61027 h 137.0762 q 8.00191,0 11.82891,0.69582 4.17491,0.34791 9.39354,3.13118 9.39355,4.87073 9.39355,27.13692 0,24.35364 -12.87264,28.52854 -5.91445,2.08746 -18.09127,2.08746 H 255.6672 v 35.13882 h 68.886 q 8.00191,0 11.82891,0.69582 4.17491,0.34791 9.39355,3.13118 9.39355,4.87073 9.39355,27.13691 0,24.35364 -13.22055,28.52855 -5.91446,2.08745 -18.09128,2.08745 H 255.6672 Z"
       style="font-weight:bold;font-size:40px;line-height:1.25;font-family:'Fredoka One';-inkscape-font-specification:'Fredoka One Bold';white-space:pre;fill:#f2f2f2;stroke-width:8.69773"
       id="path478" /><path
       d="m 552.96049,221.76791 69.92973,76.88791 q 11.82891,13.22055 11.82891,22.26619 0,9.04563 -13.56845,21.22245 -13.22055,12.17682 -22.6141,12.17682 -9.04563,0 -21.22245,-13.91636 l -66.10274,-75.84419 -66.10273,75.84419 q -12.52473,13.91636 -21.57036,13.91636 -8.69773,0 -22.6141,-12.17682 -13.56845,-12.52473 -13.56845,-21.22245 0,-8.69773 12.17682,-22.26619 l 69.92973,-76.88791 -69.92973,-76.88792 q -12.17682,-12.87264 -12.17682,-21.91828 0,-9.04564 13.56845,-21.22246 13.56846,-12.524725 22.6141,-12.524725 9.39354,0 21.57036,13.916365 l 66.10273,75.84419 66.10274,-75.84419 q 12.52472,-13.916365 21.22245,-13.916365 9.04564,0 22.6141,12.176815 13.56845,12.17682 13.56845,21.57037 0,9.39355 -11.82891,21.91828 z"
       style="font-weight:bold;font-size:40px;line-height:1.25;font-family:'Fredoka One';-inkscape-font-specification:'Fredoka One Bold';white-space:pre;fill:#f2f2f2;stroke-width:8.69773"
       id="path480" /></g><style
     type="text/css"
     id="current-color-scheme">
        .ColorScheme-Text {
            color:#232629;
        }
    </style><g
     aria-label="A new database to store your classes, 
or classes from online resources."
     transform="matrix(0.2587881,0,0,0.2587881,-18.19057,1.19368)"
     id="text385"
     style="font-size:18.6667px;line-height:0.75;font-family:KerkisSans;-inkscape-font-specification:KerkisSans;text-align:center;white-space:pre;shape-inside:url(#rect387-6);display:inline;fill:#f2f2f2"><path
       d="m 91.189259,80.482662 -1.421541,-3.245134 h -4.436931 l -1.4359,3.245134 h -1.249233 l 4.293341,-9.821556 h 1.234874 l 4.293341,9.821556 z m -3.632827,-8.371297 -1.780516,4.063597 h 3.517955 z"
       id="path4933" /><path
       d="m 102.40364,80.482662 v -3.661545 q 0,-1.220515 -0.44512,-1.751798 -0.54565,-0.703591 -1.62257,-0.703591 -1.148721,0 -1.694363,0.789745 -0.344616,0.473847 -0.344616,1.493336 v 3.833853 H 97.14825 v -6.992833 h 1.134362 v 0.732309 q 0.875899,-0.890258 2.168208,-0.890258 1.59385,0 2.44103,1.091284 0.58872,0.746668 0.6318,1.981542 l 0.0144,0.416411 v 3.661545 z"
       id="path4930" /><path
       d="m 105.80674,77.395477 q 0.11487,1.105643 1.10564,1.751798 0.68923,0.459488 1.52205,0.459488 1.20616,0 1.98155,-0.904617 0.2441,-0.28718 0.38769,-0.646155 h 1.17744 q -0.48821,1.478977 -1.8236,2.182568 -0.78974,0.416411 -1.69436,0.416411 -1.69436,0 -2.81436,-1.191797 -0.99077,-1.048207 -0.99077,-2.512825 0,-1.608208 1.19179,-2.670774 1.06257,-0.947694 2.54155,-0.947694 1.59385,0 2.69949,1.091284 0.33026,0.330257 0.56,0.71795 0.47385,0.86154 0.48821,2.254363 z m 2.57026,-3.029749 q -1.30667,0 -2.0677,1.00513 -0.33026,0.43077 -0.45949,0.990771 h 5.11181 q -0.35898,-1.349746 -1.56513,-1.809234 -0.47385,-0.186667 -1.01949,-0.186667 z"
       id="path4927" /><path
       d="m 120.40986,80.482662 h -1.13436 l -1.46462,-4.3077 -1.4359,4.3077 h -1.14872 l -2.75693,-6.992833 h 1.16308 l 2.15385,5.513856 1.57949,-4.681034 h 0.90462 l 1.6082,4.681034 2.19693,-5.513856 h 1.12 z"
       id="path4924" /><path
       d="m 134.02222,80.482662 v -1.048207 q -0.91898,1.14872 -2.35488,1.220515 h -0.20103 q -1.78051,0 -2.92923,-1.206156 -0.99077,-1.033848 -0.99077,-2.484107 0,-1.680003 1.24923,-2.756928 1.06257,-0.918976 2.57026,-0.918976 1.59385,0 2.65642,1.091284 V 71.03444 h 1.14872 v 9.448222 z m -2.67078,-6.160011 q -1.27795,0 -2.06769,0.962053 -0.58872,0.71795 -0.58872,1.651285 0,1.306669 1.00513,2.096414 0.74666,0.57436 1.73744,0.57436 1.22051,0 2.01026,-0.962053 0.61743,-0.746668 0.61743,-1.708721 0,-1.206156 -0.96205,-1.995901 -0.76103,-0.617437 -1.7518,-0.617437 z"
       id="path4921" /><path
       d="m 142.7525,80.482662 v -1.00513 q -0.93334,1.076925 -2.3118,1.163079 -0.14359,0.01436 -0.30154,0.01436 -1.79488,0 -2.91488,-1.206156 -0.93333,-1.019489 -0.93333,-2.44103 0,-1.694362 1.24923,-2.771287 1.04821,-0.904617 2.54154,-0.904617 1.68001,0 2.65642,1.177438 v -1.019489 h 1.14872 v 6.992833 z m -2.65642,-6.116934 q -1.26359,0 -2.06769,0.947694 -0.58872,0.703591 -0.58872,1.622567 0,1.306669 1.00513,2.096414 0.73231,0.57436 1.70872,0.57436 1.24923,0 2.02462,-0.976412 0.57436,-0.71795 0.57436,-1.680003 0,-1.277951 -0.99077,-2.038978 -0.71795,-0.545642 -1.66565,-0.545642 z"
       id="path4918" /><path
       d="m 147.28994,74.4806 v 6.002062 h -1.14872 V 74.4806 h -1.5077 v -1.033848 h 1.5077 V 71.03444 h 1.13436 v 2.412312 h 1.57949 V 74.4806 Z"
       id="path4915" /><path
       d="m 155.79047,80.482662 v -1.00513 q -0.93334,1.076925 -2.3118,1.163079 -0.14359,0.01436 -0.30154,0.01436 -1.79487,0 -2.91488,-1.206156 -0.93333,-1.019489 -0.93333,-2.44103 0,-1.694362 1.24923,-2.771287 1.04821,-0.904617 2.54154,-0.904617 1.68001,0 2.65642,1.177438 v -1.019489 h 1.14872 v 6.992833 z m -2.65642,-6.116934 q -1.26359,0 -2.06769,0.947694 -0.58872,0.703591 -0.58872,1.622567 0,1.306669 1.00513,2.096414 0.73231,0.57436 1.70872,0.57436 1.24923,0 2.02462,-0.976412 0.57436,-0.71795 0.57436,-1.680003 0,-1.277951 -0.99077,-2.038978 -0.71795,-0.545642 -1.66565,-0.545642 z"
       id="path4912" /><path
       d="m 162.09406,80.65497 q -1.66564,0 -2.6277,-1.163079 v 0.990771 h -1.14872 V 71.03444 h 1.13437 v 3.403083 q 0.97641,-1.14872 2.65641,-1.14872 1.70872,0 2.82872,1.191797 0.96206,1.033848 0.96206,2.469748 0,1.708721 -1.23488,2.785646 -1.06256,0.918976 -2.57026,0.918976 z m 0,-6.332319 q -1.32103,0 -2.12513,0.976412 -0.57436,0.703591 -0.57436,1.636926 0,1.076925 0.77539,1.881029 0.77538,0.789745 1.90974,0.789745 1.34975,0 2.12513,-1.00513 0.54565,-0.71795 0.54565,-1.665644 0,-1.306669 -1.00513,-2.067696 -0.70359,-0.545642 -1.65129,-0.545642 z"
       id="path4909" /><path
       d="m 173.20793,80.482662 v -1.00513 q -0.93333,1.076925 -2.31179,1.163079 -0.14359,0.01436 -0.30154,0.01436 -1.79488,0 -2.91488,-1.206156 -0.93334,-1.019489 -0.93334,-2.44103 0,-1.694362 1.24924,-2.771287 1.0482,-0.904617 2.54154,-0.904617 1.68,0 2.65642,1.177438 v -1.019489 h 1.14872 v 6.992833 z m -2.65641,-6.116934 q -1.26359,0 -2.0677,0.947694 -0.58872,0.703591 -0.58872,1.622567 0,1.306669 1.00513,2.096414 0.73231,0.57436 1.70873,0.57436 1.24923,0 2.02461,-0.976412 0.57436,-0.71795 0.57436,-1.680003 0,-1.277951 -0.99077,-2.038978 -0.71795,-0.545642 -1.66564,-0.545642 z"
       id="path4906" /><path
       d="m 177.51563,80.65497 q -1.4359,0 -2.05334,-1.105643 -0.28718,-0.531283 -0.30154,-1.249233 h 1.12 q 0.0862,1.234874 1.23488,1.306669 0.70359,0 0.97641,-0.588719 0.10051,-0.229744 0.10051,-0.488206 0,-0.560001 -0.40205,-0.804104 -0.2441,-0.157949 -0.89026,-0.43077 l -0.91898,-0.373334 q -0.2441,-0.14359 -0.40205,-0.301539 -0.56,-0.502565 -0.56,-1.29231 0,-1.076925 0.8759,-1.651285 0.51692,-0.344616 1.20616,-0.344616 1.22051,0 1.78051,0.976412 v 0 q 0.14359,0.244103 0.21539,0.531283 0.0574,0.244103 0.0718,0.516924 h -1.14872 q -0.0862,-0.990771 -0.93333,-0.990771 -0.58872,0 -0.83282,0.502565 -0.0862,0.172308 -0.0862,0.387693 0,0.545642 0.58872,0.804104 l 1.52205,0.646155 q 0.9477,0.502565 1.04821,1.464618 0.0144,0.129231 0.0144,0.272821 0,1.191797 -0.91898,1.823593 -0.56,0.387693 -1.30666,0.387693 z"
       id="path4903" /><path
       d="m 181.56487,77.395477 q 0.11487,1.105643 1.10564,1.751798 0.68923,0.459488 1.52205,0.459488 1.20616,0 1.98154,-0.904617 0.24411,-0.28718 0.3877,-0.646155 h 1.17744 q -0.48821,1.478977 -1.8236,2.182568 -0.78974,0.416411 -1.69436,0.416411 -1.69436,0 -2.81436,-1.191797 -0.99077,-1.048207 -0.99077,-2.512825 0,-1.608208 1.19179,-2.670774 1.06257,-0.947694 2.54155,-0.947694 1.59384,0 2.69949,1.091284 0.33025,0.330257 0.56,0.71795 0.47385,0.86154 0.4882,2.254363 z m 2.57026,-3.029749 q -1.30667,0 -2.0677,1.00513 -0.33026,0.43077 -0.45949,0.990771 h 5.11181 q -0.35898,-1.349746 -1.56513,-1.809234 -0.47385,-0.186667 -1.01949,-0.186667 z"
       id="path4900" /><path
       d="m 194.9762,74.4806 v 6.002062 h -1.14872 V 74.4806 h -1.50769 v -1.033848 h 1.50769 V 71.03444 h 1.13437 v 2.412312 h 1.57949 V 74.4806 Z"
       id="path4897" /><path
       d="m 200.8634,80.65497 q -1.83795,0 -2.94359,-1.249233 -0.90462,-1.019489 -0.90462,-2.469748 0,-1.636926 1.22052,-2.685133 1.06256,-0.918976 2.5559,-0.918976 1.78051,0 2.85744,1.234874 0.8759,1.00513 0.8759,2.44103 0,1.72308 -1.23488,2.785646 -1.00513,0.86154 -2.42667,0.86154 z m -0.0718,-6.289242 q -1.33539,0 -2.09642,0.990771 -0.53128,0.689232 -0.53128,1.608208 0,1.407182 1.04821,2.15385 0.68923,0.488206 1.62256,0.488206 1.33539,0 2.05334,-1.00513 0.48821,-0.674873 0.48821,-1.57949 0,-1.364105 -1.00513,-2.139491 -0.68923,-0.516924 -1.57949,-0.516924 z"
       id="path4894" /><path
       d="m 211.40292,80.65497 q -1.4359,0 -2.05333,-1.105643 -0.28718,-0.531283 -0.30154,-1.249233 h 1.12 q 0.0862,1.234874 1.23487,1.306669 0.70359,0 0.97642,-0.588719 0.10051,-0.229744 0.10051,-0.488206 0,-0.560001 -0.40205,-0.804104 -0.24411,-0.157949 -0.89026,-0.43077 l -0.91898,-0.373334 q -0.2441,-0.14359 -0.40205,-0.301539 -0.56,-0.502565 -0.56,-1.29231 0,-1.076925 0.8759,-1.651285 0.51692,-0.344616 1.20615,-0.344616 1.22052,0 1.78052,0.976412 v 0 q 0.14359,0.244103 0.21539,0.531283 0.0574,0.244103 0.0718,0.516924 h -1.14872 q -0.0861,-0.990771 -0.93333,-0.990771 -0.58872,0 -0.83283,0.502565 -0.0862,0.172308 -0.0862,0.387693 0,0.545642 0.58872,0.804104 l 1.52205,0.646155 q 0.9477,0.502565 1.04821,1.464618 0.0144,0.129231 0.0144,0.272821 0,1.191797 -0.91898,1.823593 -0.56,0.387693 -1.30667,0.387693 z"
       id="path4891" /><path
       d="m 216.58653,74.4806 v 6.002062 h -1.14872 V 74.4806 h -1.5077 v -1.033848 h 1.5077 V 71.03444 h 1.13436 v 2.412312 h 1.57949 V 74.4806 Z"
       id="path4888" /><path
       d="m 222.47372,80.65497 q -1.83795,0 -2.94359,-1.249233 -0.90462,-1.019489 -0.90462,-2.469748 0,-1.636926 1.22052,-2.685133 1.06256,-0.918976 2.5559,-0.918976 1.78051,0 2.85744,1.234874 0.8759,1.00513 0.8759,2.44103 0,1.72308 -1.23488,2.785646 -1.00513,0.86154 -2.42667,0.86154 z m -0.0718,-6.289242 q -1.33539,0 -2.09642,0.990771 -0.53128,0.689232 -0.53128,1.608208 0,1.407182 1.04821,2.15385 0.68923,0.488206 1.62257,0.488206 1.33538,0 2.05333,-1.00513 0.48821,-0.674873 0.48821,-1.57949 0,-1.364105 -1.00513,-2.139491 -0.68923,-0.516924 -1.57949,-0.516924 z"
       id="path4885" /><path
       d="m 228.404,76.419065 v 4.063597 h -1.14872 v -6.992833 h 1.13436 v 0.71795 q 0.60308,-0.832822 1.9959,-0.875899 v 1.076925 q -1.86667,0.172308 -1.96718,1.780516 l -0.0144,0.01436 z"
       id="path4882" /><path
       d="m 231.96504,77.395477 q 0.11487,1.105643 1.10565,1.751798 0.68923,0.459488 1.52205,0.459488 1.20616,0 1.98154,-0.904617 0.2441,-0.28718 0.38769,-0.646155 h 1.17744 q -0.4882,1.478977 -1.82359,2.182568 -0.78975,0.416411 -1.69436,0.416411 -1.69436,0 -2.81437,-1.191797 -0.99077,-1.048207 -0.99077,-2.512825 0,-1.608208 1.1918,-2.670774 1.06257,-0.947694 2.54154,-0.947694 1.59385,0 2.69949,1.091284 0.33026,0.330257 0.56001,0.71795 0.47384,0.86154 0.4882,2.254363 z m 2.57026,-3.029749 q -1.30667,0 -2.06769,1.00513 -0.33026,0.43077 -0.45949,0.990771 h 5.1118 q -0.35897,-1.349746 -1.56513,-1.809234 -0.47384,-0.186667 -1.01949,-0.186667 z"
       id="path4879" /><path
       d="m 245.41946,82.938051 h -1.20616 l 1.17744,-2.72821 -2.75693,-6.720012 h 1.24924 l 2.13949,5.31283 2.29744,-5.31283 h 1.22051 z"
       id="path4876" /><path
       d="m 253.79074,80.65497 q -1.83795,0 -2.94359,-1.249233 -0.90462,-1.019489 -0.90462,-2.469748 0,-1.636926 1.22051,-2.685133 1.06257,-0.918976 2.55591,-0.918976 1.78051,0 2.85744,1.234874 0.8759,1.00513 0.8759,2.44103 0,1.72308 -1.23488,2.785646 -1.00513,0.86154 -2.42667,0.86154 z m -0.0718,-6.289242 q -1.33539,0 -2.09642,0.990771 -0.53128,0.689232 -0.53128,1.608208 0,1.407182 1.04821,2.15385 0.68923,0.488206 1.62256,0.488206 1.33539,0 2.05334,-1.00513 0.48821,-0.674873 0.48821,-1.57949 0,-1.364105 -1.00513,-2.139491 -0.68924,-0.516924 -1.57949,-0.516924 z"
       id="path4873" /><path
       d="m 263.79897,80.482662 v -0.818463 q -0.71795,0.990771 -2.15385,0.990771 -1.66564,0 -2.49846,-1.134361 -0.57436,-0.761027 -0.57436,-2.254363 v -3.776417 h 1.13436 v 3.776417 q 0,0.976412 0.3159,1.536413 0.50256,0.804104 1.69436,0.804104 1.10564,0 1.66564,-0.804104 0.40206,-0.545642 0.40206,-1.72308 v -3.58975 h 1.14872 v 6.992833 z"
       id="path4870" /><path
       d="m 267.48922,76.419065 v 4.063597 h -1.14872 v -6.992833 h 1.13436 v 0.71795 q 0.60308,-0.832822 1.9959,-0.875899 v 1.076925 q -1.86667,0.172308 -1.96718,1.780516 l -0.0144,0.01436 z"
       id="path4867" /><path
       d="m 280.18261,79.850866 q -1.04821,0.804104 -2.3836,0.804104 -1.76615,0 -2.91487,-1.191797 -1.00513,-1.048207 -1.00513,-2.498466 0,-1.593849 1.22051,-2.656415 1.10564,-0.976412 2.6277,-0.976412 1.83795,0 2.97231,1.335387 0.40205,0.473847 0.64616,1.076925 h -1.24924 q -0.81846,-1.378464 -2.38359,-1.378464 -1.30667,0 -2.11077,0.976412 -0.57436,0.71795 -0.57436,1.651285 0,1.234874 0.99077,2.024619 0.74666,0.588719 1.73744,0.588719 1.10564,0 1.90974,-0.804104 0.15795,-0.157949 0.3159,-0.358975 l 0.11487,-0.14359 h 1.27795 q -0.56,1.033848 -1.09128,1.464618 z"
       id="path4864" /><path
       d="m 282.42262,80.482662 -0.0143,-9.448222 h 1.14872 v 9.448222 z"
       id="path4861" /><path
       d="m 291.15289,80.482662 v -1.00513 q -0.93334,1.076925 -2.3118,1.163079 -0.14359,0.01436 -0.30154,0.01436 -1.79488,0 -2.91488,-1.206156 -0.93333,-1.019489 -0.93333,-2.44103 0,-1.694362 1.24923,-2.771287 1.04821,-0.904617 2.54154,-0.904617 1.68001,0 2.65642,1.177438 v -1.019489 h 1.14872 v 6.992833 z m -2.65642,-6.116934 q -1.26359,0 -2.06769,0.947694 -0.58872,0.703591 -0.58872,1.622567 0,1.306669 1.00513,2.096414 0.73231,0.57436 1.70872,0.57436 1.24923,0 2.02462,-0.976412 0.57436,-0.71795 0.57436,-1.680003 0,-1.277951 -0.99077,-2.038978 -0.71795,-0.545642 -1.66565,-0.545642 z"
       id="path4858" /><path
       d="m 295.46059,80.65497 q -1.4359,0 -2.05334,-1.105643 -0.28718,-0.531283 -0.30154,-1.249233 h 1.12 q 0.0862,1.234874 1.23488,1.306669 0.70359,0 0.97641,-0.588719 0.10051,-0.229744 0.10051,-0.488206 0,-0.560001 -0.40205,-0.804104 -0.2441,-0.157949 -0.89026,-0.43077 l -0.91897,-0.373334 q -0.24411,-0.14359 -0.40206,-0.301539 -0.56,-0.502565 -0.56,-1.29231 0,-1.076925 0.8759,-1.651285 0.51693,-0.344616 1.20616,-0.344616 1.22051,0 1.78051,0.976412 v 0 q 0.14359,0.244103 0.21539,0.531283 0.0574,0.244103 0.0718,0.516924 h -1.14872 q -0.0862,-0.990771 -0.93333,-0.990771 -0.58872,0 -0.83282,0.502565 -0.0862,0.172308 -0.0862,0.387693 0,0.545642 0.58872,0.804104 l 1.52206,0.646155 q 0.94769,0.502565 1.0482,1.464618 0.0144,0.129231 0.0144,0.272821 0,1.191797 -0.91897,1.823593 -0.56001,0.387693 -1.30667,0.387693 z"
       id="path4855" /><path
       d="m 300.41443,80.65497 q -1.4359,0 -2.05334,-1.105643 -0.28718,-0.531283 -0.30154,-1.249233 h 1.12 q 0.0862,1.234874 1.23488,1.306669 0.70359,0 0.97641,-0.588719 0.10051,-0.229744 0.10051,-0.488206 0,-0.560001 -0.40205,-0.804104 -0.2441,-0.157949 -0.89026,-0.43077 l -0.91897,-0.373334 q -0.24411,-0.14359 -0.40205,-0.301539 -0.56001,-0.502565 -0.56001,-1.29231 0,-1.076925 0.8759,-1.651285 0.51693,-0.344616 1.20616,-0.344616 1.22051,0 1.78052,0.976412 v 0 q 0.14359,0.244103 0.21538,0.531283 0.0574,0.244103 0.0718,0.516924 h -1.14872 q -0.0862,-0.990771 -0.93334,-0.990771 -0.58872,0 -0.83282,0.502565 -0.0862,0.172308 -0.0862,0.387693 0,0.545642 0.58872,0.804104 l 1.52206,0.646155 q 0.94769,0.502565 1.04821,1.464618 0.0143,0.129231 0.0143,0.272821 0,1.191797 -0.91897,1.823593 -0.56,0.387693 -1.30667,0.387693 z"
       id="path4852" /><path
       d="m 304.46367,77.395477 q 0.11487,1.105643 1.10564,1.751798 0.68923,0.459488 1.52206,0.459488 1.20615,0 1.98154,-0.904617 0.2441,-0.28718 0.38769,-0.646155 h 1.17744 q -0.48821,1.478977 -1.82359,2.182568 -0.78975,0.416411 -1.69437,0.416411 -1.69436,0 -2.81436,-1.191797 -0.99077,-1.048207 -0.99077,-2.512825 0,-1.608208 1.1918,-2.670774 1.06256,-0.947694 2.54154,-0.947694 1.59385,0 2.69949,1.091284 0.33026,0.330257 0.56,0.71795 0.47385,0.86154 0.48821,2.254363 z m 2.57026,-3.029749 q -1.30667,0 -2.0677,1.00513 -0.33025,0.43077 -0.45948,0.990771 h 5.1118 q -0.35897,-1.349746 -1.56513,-1.809234 -0.47385,-0.186667 -1.01949,-0.186667 z"
       id="path4849" /><path
       d="m 313.66782,80.65497 q -1.4359,0 -2.05334,-1.105643 -0.28718,-0.531283 -0.30154,-1.249233 h 1.12 q 0.0862,1.234874 1.23488,1.306669 0.70359,0 0.97641,-0.588719 0.10051,-0.229744 0.10051,-0.488206 0,-0.560001 -0.40205,-0.804104 -0.2441,-0.157949 -0.89026,-0.43077 l -0.91897,-0.373334 q -0.24411,-0.14359 -0.40206,-0.301539 -0.56,-0.502565 -0.56,-1.29231 0,-1.076925 0.8759,-1.651285 0.51693,-0.344616 1.20616,-0.344616 1.22051,0 1.78051,0.976412 v 0 q 0.14359,0.244103 0.21539,0.531283 0.0574,0.244103 0.0718,0.516924 h -1.14872 q -0.0861,-0.990771 -0.93333,-0.990771 -0.58872,0 -0.83282,0.502565 -0.0862,0.172308 -0.0862,0.387693 0,0.545642 0.58872,0.804104 l 1.52206,0.646155 q 0.94769,0.502565 1.0482,1.464618 0.0144,0.129231 0.0144,0.272821 0,1.191797 -0.91897,1.823593 -0.56001,0.387693 -1.30667,0.387693 z"
       id="path4846" /><path
       d="m 318.30578,81.344202 h -1.16308 l 1.22051,-2.469748 h 1.16308 z"
       id="path4843" /><path
       d="m 108.2334,94.654993 q -1.83796,0 -2.9436,-1.249233 -0.90462,-1.019489 -0.90462,-2.469748 0,-1.636926 1.22052,-2.685133 1.06256,-0.918976 2.5559,-0.918976 1.78052,0 2.85744,1.234874 0.8759,1.00513 0.8759,2.44103 0,1.72308 -1.23487,2.785646 -1.00513,0.86154 -2.42667,0.86154 z m -0.0718,-6.289242 q -1.33539,0 -2.09641,0.990771 -0.53129,0.689232 -0.53129,1.608208 0,1.407182 1.04821,2.15385 0.68923,0.488206 1.62257,0.488206 1.33538,0 2.05333,-1.00513 0.48821,-0.674873 0.48821,-1.57949 0,-1.364105 -1.00513,-2.139491 -0.68923,-0.516924 -1.57949,-0.516924 z"
       id="path4840" /><path
       d="m 114.16367,90.419088 v 4.063597 h -1.14872 v -6.992833 h 1.13436 v 0.71795 q 0.60308,-0.832822 1.99591,-0.875899 v 1.076925 q -1.86667,0.172308 -1.96719,1.780516 l -0.0144,0.01436 z"
       id="path4837" /><path
       d="m 126.85705,93.850889 q -1.0482,0.804104 -2.38359,0.804104 -1.76616,0 -2.91488,-1.191797 -1.00513,-1.048207 -1.00513,-2.498466 0,-1.593849 1.22052,-2.656415 1.10564,-0.976412 2.62769,-0.976412 1.83796,0 2.97232,1.335387 0.40205,0.473847 0.64615,1.076925 h -1.24923 q -0.81846,-1.378464 -2.3836,-1.378464 -1.30666,0 -2.11077,0.976412 -0.57436,0.71795 -0.57436,1.651285 0,1.234874 0.99077,2.024619 0.74667,0.588719 1.73744,0.588719 1.10564,0 1.90975,-0.804104 0.15795,-0.157949 0.3159,-0.358975 l 0.11487,-0.14359 h 1.27795 q -0.56,1.033848 -1.09128,1.464618 z"
       id="path4834" /><path
       d="m 129.09707,94.482685 -0.0144,-9.448222 h 1.14872 v 9.448222 z"
       id="path4831" /><path
       d="m 137.82734,94.482685 v -1.00513 q -0.93334,1.076925 -2.3118,1.163079 -0.14359,0.01436 -0.30154,0.01436 -1.79488,0 -2.91488,-1.206156 -0.93333,-1.019489 -0.93333,-2.44103 0,-1.694362 1.24923,-2.771287 1.04821,-0.904617 2.54154,-0.904617 1.68001,0 2.65642,1.177438 v -1.019489 h 1.14872 v 6.992833 z m -2.65642,-6.116934 q -1.26359,0 -2.06769,0.947694 -0.58872,0.703591 -0.58872,1.622567 0,1.306669 1.00513,2.096414 0.73231,0.57436 1.70872,0.57436 1.24923,0 2.02462,-0.976412 0.57436,-0.71795 0.57436,-1.680003 0,-1.277951 -0.99077,-2.038978 -0.71795,-0.545642 -1.66565,-0.545642 z"
       id="path4828" /><path
       d="m 142.13503,94.654993 q -1.4359,0 -2.05334,-1.105643 -0.28718,-0.531283 -0.30154,-1.249233 h 1.12001 q 0.0862,1.234874 1.23487,1.306669 0.70359,0 0.97641,-0.588719 0.10052,-0.229744 0.10052,-0.488206 0,-0.560001 -0.40206,-0.804104 -0.2441,-0.157949 -0.89025,-0.43077 l -0.91898,-0.373334 q -0.2441,-0.14359 -0.40205,-0.301539 -0.56,-0.502565 -0.56,-1.29231 0,-1.076925 0.8759,-1.651285 0.51692,-0.344616 1.20615,-0.344616 1.22052,0 1.78052,0.976412 v 0 q 0.14359,0.244103 0.21538,0.531283 0.0574,0.244103 0.0718,0.516924 h -1.14872 q -0.0862,-0.990771 -0.93334,-0.990771 -0.58872,0 -0.83282,0.502565 -0.0862,0.172308 -0.0862,0.387693 0,0.545642 0.58872,0.804104 l 1.52205,0.646155 q 0.94769,0.502565 1.04821,1.464618 0.0144,0.129231 0.0144,0.272821 0,1.191797 -0.91898,1.823593 -0.56,0.387693 -1.30667,0.387693 z"
       id="path4825" /><path
       d="m 147.08889,94.654993 q -1.4359,0 -2.05334,-1.105643 -0.28718,-0.531283 -0.30154,-1.249233 h 1.12 q 0.0862,1.234874 1.23488,1.306669 0.70359,0 0.97641,-0.588719 0.10051,-0.229744 0.10051,-0.488206 0,-0.560001 -0.40205,-0.804104 -0.2441,-0.157949 -0.89026,-0.43077 l -0.91897,-0.373334 q -0.24411,-0.14359 -0.40205,-0.301539 -0.56001,-0.502565 -0.56001,-1.29231 0,-1.076925 0.8759,-1.651285 0.51693,-0.344616 1.20616,-0.344616 1.22051,0 1.78052,0.976412 v 0 q 0.14359,0.244103 0.21538,0.531283 0.0574,0.244103 0.0718,0.516924 h -1.14872 q -0.0862,-0.990771 -0.93334,-0.990771 -0.58872,0 -0.83282,0.502565 -0.0862,0.172308 -0.0862,0.387693 0,0.545642 0.58872,0.804104 l 1.52206,0.646155 q 0.94769,0.502565 1.0482,1.464618 0.0144,0.129231 0.0144,0.272821 0,1.191797 -0.91897,1.823593 -0.56,0.387693 -1.30667,0.387693 z"
       id="path4822" /><path
       d="m 151.13813,91.3955 q 0.11487,1.105643 1.10564,1.751798 0.68923,0.459488 1.52206,0.459488 1.20615,0 1.98154,-0.904617 0.2441,-0.28718 0.38769,-0.646155 h 1.17744 q -0.48821,1.478977 -1.82359,2.182568 -0.78975,0.416411 -1.69437,0.416411 -1.69436,0 -2.81436,-1.191797 -0.99077,-1.048207 -0.99077,-2.512825 0,-1.608208 1.1918,-2.670774 1.06256,-0.947694 2.54154,-0.947694 1.59385,0 2.69949,1.091284 0.33026,0.330257 0.56,0.71795 0.47385,0.86154 0.48821,2.254363 z m 2.57026,-3.029749 q -1.30667,0 -2.0677,1.00513 -0.33025,0.43077 -0.45948,0.990771 h 5.1118 q -0.35898,-1.349746 -1.56513,-1.809234 -0.47385,-0.186667 -1.01949,-0.186667 z"
       id="path4819" /><path
       d="m 160.34226,94.654993 q -1.4359,0 -2.05333,-1.105643 -0.28718,-0.531283 -0.30154,-1.249233 h 1.12 q 0.0862,1.234874 1.23487,1.306669 0.7036,0 0.97642,-0.588719 0.10051,-0.229744 0.10051,-0.488206 0,-0.560001 -0.40205,-0.804104 -0.24411,-0.157949 -0.89026,-0.43077 l -0.91898,-0.373334 q -0.2441,-0.14359 -0.40205,-0.301539 -0.56,-0.502565 -0.56,-1.29231 0,-1.076925 0.8759,-1.651285 0.51692,-0.344616 1.20616,-0.344616 1.22051,0 1.78051,0.976412 v 0 q 0.14359,0.244103 0.21539,0.531283 0.0574,0.244103 0.0718,0.516924 h -1.14872 q -0.0862,-0.990771 -0.93333,-0.990771 -0.58872,0 -0.83283,0.502565 -0.0862,0.172308 -0.0862,0.387693 0,0.545642 0.58872,0.804104 l 1.52205,0.646155 q 0.9477,0.502565 1.04821,1.464618 0.0144,0.129231 0.0144,0.272821 0,1.191797 -0.91898,1.823593 -0.56,0.387693 -1.30667,0.387693 z"
       id="path4816" /><path
       d="m 169.12998,88.480623 v 6.002062 h -1.13436 v -6.002062 h -1.10564 v -1.033848 h 1.09128 q 0.0287,-2.412312 2.88616,-2.412312 v 1.019489 q -1.26359,0.01436 -1.57949,0.588719 v 0 q 0,0 0,0 -0.15795,0.28718 -0.15795,0.804104 h 1.73744 v 1.033848 z"
       id="path4813" /><path
       d="m 172.64793,90.419088 v 4.063597 h -1.14872 v -6.992833 h 1.13436 v 0.71795 q 0.60308,-0.832822 1.9959,-0.875899 v 1.076925 q -1.86667,0.172308 -1.96718,1.780516 l -0.0144,0.01436 z"
       id="path4810" /><path
       d="m 178.90847,94.654993 q -1.83795,0 -2.9436,-1.249233 -0.90461,-1.019489 -0.90461,-2.469748 0,-1.636926 1.22051,-2.685133 1.06257,-0.918976 2.5559,-0.918976 1.78052,0 2.85744,1.234874 0.8759,1.00513 0.8759,2.44103 0,1.72308 -1.23487,2.785646 -1.00513,0.86154 -2.42667,0.86154 z m -0.0718,-6.289242 q -1.33538,0 -2.09641,0.990771 -0.53128,0.689232 -0.53128,1.608208 0,1.407182 1.0482,2.15385 0.68923,0.488206 1.62257,0.488206 1.33539,0 2.05334,-1.00513 0.4882,-0.674873 0.4882,-1.57949 0,-1.364105 -1.00513,-2.139491 -0.68923,-0.516924 -1.57949,-0.516924 z"
       id="path4807" /><path
       d="m 193.13825,94.482685 v -4.034879 q 0,-0.990771 -0.37334,-1.478977 -0.45948,-0.617437 -1.39282,-0.617437 -1.00513,0 -1.50769,0.732309 -0.3159,0.502565 -0.3159,1.364105 v 4.034879 h -1.13436 v -4.063597 q 0,-1.00513 -0.41642,-1.464618 -0.50256,-0.588719 -1.37846,-0.588719 -1.33539,0 -1.68,1.234874 -0.10052,0.358975 -0.10052,0.818463 v 4.063597 h -1.14872 v -6.992833 h 1.13437 v 0.617437 q 0.68923,-0.746668 1.88102,-0.775386 1.45026,0 2.22565,1.14872 l 0.0574,0.0718 q 0.86154,-1.234874 2.42667,-1.234874 1.46462,0 2.26872,1.00513 0.58872,0.761027 0.58872,2.024619 v 4.135392 z"
       id="path4804" /><path
       d="m 203.21827,94.654993 q -1.83795,0 -2.94359,-1.249233 -0.90462,-1.019489 -0.90462,-2.469748 0,-1.636926 1.22052,-2.685133 1.06256,-0.918976 2.5559,-0.918976 1.78051,0 2.85744,1.234874 0.8759,1.00513 0.8759,2.44103 0,1.72308 -1.23488,2.785646 -1.00513,0.86154 -2.42667,0.86154 z m -0.0718,-6.289242 q -1.33539,0 -2.09642,0.990771 -0.53128,0.689232 -0.53128,1.608208 0,1.407182 1.04821,2.15385 0.68923,0.488206 1.62257,0.488206 1.33538,0 2.05333,-1.00513 0.48821,-0.674873 0.48821,-1.57949 0,-1.364105 -1.00513,-2.139491 -0.68923,-0.516924 -1.57949,-0.516924 z"
       id="path4801" /><path
       d="M 213.25523,94.482685 V 90.82114 q 0,-1.220515 -0.44513,-1.751798 -0.54565,-0.703591 -1.62257,-0.703591 -1.14872,0 -1.69436,0.789745 -0.34462,0.473847 -0.34462,1.493336 v 3.833853 h -1.14872 v -6.992833 h 1.13436 v 0.732309 q 0.8759,-0.890258 2.16821,-0.890258 1.59385,0 2.44103,1.091284 0.58872,0.746668 0.6318,1.981542 l 0.0144,0.416411 v 3.661545 z"
       id="path4798" /><path
       d="m 215.79678,94.482685 -0.0144,-9.448222 h 1.14872 v 9.448222 z"
       id="path4795" /><path
       d="m 218.35268,86.80062 -0.0144,-1.766157 h 1.14872 v 1.766157 z m -0.0144,7.682065 v -7.03591 h 1.14872 v 7.03591 z"
       id="path4792" /><path
       d="M 226.14961,94.482685 V 90.82114 q 0,-1.220515 -0.44513,-1.751798 -0.54564,-0.703591 -1.62256,-0.703591 -1.14872,0 -1.69437,0.789745 -0.34461,0.473847 -0.34461,1.493336 v 3.833853 h -1.14872 v -6.992833 h 1.13436 v 0.732309 q 0.8759,-0.890258 2.16821,-0.890258 1.59385,0 2.44103,1.091284 0.58872,0.746668 0.63179,1.981542 l 0.0144,0.416411 v 3.661545 z"
       id="path4789" /><path
       d="m 229.5527,91.3955 q 0.11487,1.105643 1.10565,1.751798 0.68923,0.459488 1.52205,0.459488 1.20616,0 1.98154,-0.904617 0.2441,-0.28718 0.38769,-0.646155 h 1.17744 q -0.4882,1.478977 -1.82359,2.182568 -0.78975,0.416411 -1.69436,0.416411 -1.69436,0 -2.81437,-1.191797 -0.99077,-1.048207 -0.99077,-2.512825 0,-1.608208 1.1918,-2.670774 1.06257,-0.947694 2.54154,-0.947694 1.59385,0 2.69949,1.091284 0.33026,0.330257 0.56001,0.71795 0.47384,0.86154 0.4882,2.254363 z m 2.57026,-3.029749 q -1.30667,0 -2.06769,1.00513 -0.33026,0.43077 -0.45949,0.990771 h 5.1118 q -0.35897,-1.349746 -1.56513,-1.809234 -0.47384,-0.186667 -1.01949,-0.186667 z"
       id="path4786" /><path
       d="m 242.1025,90.419088 v 4.063597 h -1.14872 v -6.992833 h 1.13436 v 0.71795 q 0.60308,-0.832822 1.9959,-0.875899 v 1.076925 q -1.86667,0.172308 -1.96718,1.780516 l -0.0144,0.01436 z"
       id="path4783" /><path
       d="m 245.66354,91.3955 q 0.11487,1.105643 1.10565,1.751798 0.68923,0.459488 1.52205,0.459488 1.20616,0 1.98154,-0.904617 0.2441,-0.28718 0.38769,-0.646155 h 1.17744 q -0.4882,1.478977 -1.82359,2.182568 -0.78975,0.416411 -1.69436,0.416411 -1.69436,0 -2.81437,-1.191797 -0.99077,-1.048207 -0.99077,-2.512825 0,-1.608208 1.1918,-2.670774 1.06257,-0.947694 2.54154,-0.947694 1.59385,0 2.69949,1.091284 0.33026,0.330257 0.56001,0.71795 0.47384,0.86154 0.4882,2.254363 z m 2.57026,-3.029749 q -1.30667,0 -2.06769,1.00513 -0.33026,0.43077 -0.45949,0.990771 h 5.1118 q -0.35897,-1.349746 -1.56513,-1.809234 -0.47384,-0.186667 -1.01949,-0.186667 z"
       id="path4780" /><path
       d="m 254.86767,94.654993 q -1.4359,0 -2.05333,-1.105643 -0.28718,-0.531283 -0.30154,-1.249233 h 1.12 q 0.0862,1.234874 1.23487,1.306669 0.70359,0 0.97642,-0.588719 0.10051,-0.229744 0.10051,-0.488206 0,-0.560001 -0.40205,-0.804104 -0.24411,-0.157949 -0.89026,-0.43077 l -0.91898,-0.373334 q -0.2441,-0.14359 -0.40205,-0.301539 -0.56,-0.502565 -0.56,-1.29231 0,-1.076925 0.8759,-1.651285 0.51692,-0.344616 1.20615,-0.344616 1.22052,0 1.78052,0.976412 v 0 q 0.14359,0.244103 0.21539,0.531283 0.0574,0.244103 0.0718,0.516924 h -1.14872 q -0.0862,-0.990771 -0.93333,-0.990771 -0.58872,0 -0.83283,0.502565 -0.0862,0.172308 -0.0862,0.387693 0,0.545642 0.58872,0.804104 l 1.52205,0.646155 q 0.9477,0.502565 1.04821,1.464618 0.0144,0.129231 0.0144,0.272821 0,1.191797 -0.91898,1.823593 -0.56,0.387693 -1.30667,0.387693 z"
       id="path4777" /><path
       d="m 261.61641,94.654993 q -1.83796,0 -2.9436,-1.249233 -0.90462,-1.019489 -0.90462,-2.469748 0,-1.636926 1.22052,-2.685133 1.06257,-0.918976 2.5559,-0.918976 1.78052,0 2.85744,1.234874 0.8759,1.00513 0.8759,2.44103 0,1.72308 -1.23487,2.785646 -1.00513,0.86154 -2.42667,0.86154 z m -0.0718,-6.289242 q -1.33539,0 -2.09641,0.990771 -0.53129,0.689232 -0.53129,1.608208 0,1.407182 1.04821,2.15385 0.68923,0.488206 1.62257,0.488206 1.33539,0 2.05334,-1.00513 0.4882,-0.674873 0.4882,-1.57949 0,-1.364105 -1.00513,-2.139491 -0.68923,-0.516924 -1.57949,-0.516924 z"
       id="path4774" /><path
       d="m 271.62464,94.482685 v -0.818463 q -0.71795,0.990771 -2.15385,0.990771 -1.66564,0 -2.49847,-1.134361 -0.57436,-0.761027 -0.57436,-2.254363 v -3.776417 h 1.13437 v 3.776417 q 0,0.976412 0.31589,1.536413 0.50257,0.804104 1.69437,0.804104 1.10564,0 1.66564,-0.804104 0.40205,-0.545642 0.40205,-1.72308 v -3.58975 h 1.14872 v 6.992833 z"
       id="path4771" /><path
       d="m 275.31489,90.419088 v 4.063597 h -1.14872 v -6.992833 h 1.13436 v 0.71795 q 0.60308,-0.832822 1.9959,-0.875899 v 1.076925 q -1.86667,0.172308 -1.96718,1.780516 l -0.0144,0.01436 z"
       id="path4768" /><path
       d="m 284.03081,93.850889 q -1.04821,0.804104 -2.38359,0.804104 -1.76616,0 -2.91488,-1.191797 -1.00513,-1.048207 -1.00513,-2.498466 0,-1.593849 1.22051,-2.656415 1.10565,-0.976412 2.6277,-0.976412 1.83795,0 2.97231,1.335387 0.40206,0.473847 0.64616,1.076925 h -1.24923 q -0.81847,-1.378464 -2.3836,-1.378464 -1.30667,0 -2.11077,0.976412 -0.57436,0.71795 -0.57436,1.651285 0,1.234874 0.99077,2.024619 0.74667,0.588719 1.73744,0.588719 1.10564,0 1.90975,-0.804104 0.15795,-0.157949 0.31589,-0.358975 l 0.11488,-0.14359 h 1.27795 q -0.56,1.033848 -1.09129,1.464618 z"
       id="path4765" /><path
       d="m 287.13237,91.3955 q 0.11487,1.105643 1.10564,1.751798 0.68923,0.459488 1.52206,0.459488 1.20615,0 1.98154,-0.904617 0.2441,-0.28718 0.38769,-0.646155 h 1.17744 q -0.48821,1.478977 -1.82359,2.182568 -0.78975,0.416411 -1.69437,0.416411 -1.69436,0 -2.81436,-1.191797 -0.99077,-1.048207 -0.99077,-2.512825 0,-1.608208 1.1918,-2.670774 1.06256,-0.947694 2.54154,-0.947694 1.59385,0 2.69949,1.091284 0.33026,0.330257 0.56,0.71795 0.47385,0.86154 0.48821,2.254363 z m 2.57026,-3.029749 q -1.30667,0 -2.0677,1.00513 -0.33025,0.43077 -0.45948,0.990771 h 5.1118 q -0.35898,-1.349746 -1.56513,-1.809234 -0.47385,-0.186667 -1.01949,-0.186667 z"
       id="path4762" /><path
       d="m 296.3365,94.654993 q -1.4359,0 -2.05334,-1.105643 -0.28718,-0.531283 -0.30154,-1.249233 h 1.12001 q 0.0861,1.234874 1.23487,1.306669 0.70359,0 0.97641,-0.588719 0.10052,-0.229744 0.10052,-0.488206 0,-0.560001 -0.40206,-0.804104 -0.2441,-0.157949 -0.89025,-0.43077 l -0.91898,-0.373334 q -0.2441,-0.14359 -0.40205,-0.301539 -0.56,-0.502565 -0.56,-1.29231 0,-1.076925 0.8759,-1.651285 0.51692,-0.344616 1.20615,-0.344616 1.22052,0 1.78052,0.976412 v 0 q 0.14359,0.244103 0.21538,0.531283 0.0574,0.244103 0.0718,0.516924 h -1.14872 q -0.0862,-0.990771 -0.93334,-0.990771 -0.58872,0 -0.83282,0.502565 -0.0862,0.172308 -0.0862,0.387693 0,0.545642 0.58872,0.804104 l 1.52205,0.646155 q 0.94769,0.502565 1.04821,1.464618 0.0144,0.129231 0.0144,0.272821 0,1.191797 -0.91898,1.823593 -0.56,0.387693 -1.30667,0.387693 z"
       id="path4759" /><path
       d="m 300.01241,94.482685 -0.0144,-1.608208 h 1.14872 v 1.608208 z"
       id="path4756" /></g></svg>
