<?xml version="1.0" encoding="UTF-8" standalone="no"?>
<!-- Created with Inkscape (http://www.inkscape.org/) -->

<svg
   width="255.99998"
   height="128"
   viewBox="0 0 67.733321 33.866667"
   version="1.1"
   id="svg5"
   xml:space="preserve"
   sodipodi:docname="CommandsDB.svg"
   inkscape:version="1.2.2 (b0a8486541, 2022-12-01)"
   xmlns:inkscape="http://www.inkscape.org/namespaces/inkscape"
   xmlns:sodipodi="http://sodipodi.sourceforge.net/DTD/sodipodi-0.dtd"
   xmlns="http://www.w3.org/2000/svg"
   xmlns:svg="http://www.w3.org/2000/svg"><sodipodi:namedview
     id="namedview5223"
     pagecolor="#505050"
     bordercolor="#eeeeee"
     borderopacity="1"
     inkscape:showpageshadow="0"
     inkscape:pageopacity="0"
     inkscape:pagecheckerboard="0"
     inkscape:deskcolor="#505050"
     showgrid="false"
     inkscape:zoom="1.3037281"
     inkscape:cx="-55.609754"
     inkscape:cy="44.487803"
     inkscape:window-width="1366"
     inkscape:window-height="694"
     inkscape:window-x="0"
     inkscape:window-y="0"
     inkscape:window-maximized="1"
     inkscape:current-layer="text385" /><defs
     id="defs2"><rect
       x="7.9878626"
       y="68.10704"
       width="390.31607"
       height="59.552677"
       id="rect387" /><rect
       x="-96.244637"
       y="47.086346"
       width="219.45601"
       height="95.854347"
       id="rect369" /></defs><g
     id="layer1"><g
       aria-label="Store your comands, environments and scripts in a DataTeX database."
       transform="matrix(0.2587881,0,0,0.2587881,-18.740529,0.21561391)"
       id="text385"
       style="font-size:18.6667px;line-height:0.75;font-family:KerkisSans;-inkscape-font-specification:KerkisSans;text-align:center;white-space:pre;shape-inside:url(#rect387);display:inline;fill:#f2f2f2"><g
         id="g1762"
         transform="translate(77.883263,2.0447874)"><path
           d="m 21.038324,80.65497 q -1.766157,0 -2.627697,-1.29231 -0.488206,-0.732309 -0.545642,-1.766157 h 1.249233 q 0.08615,0.86154 0.445129,1.29231 0.531283,0.689232 1.507695,0.689232 1.048207,0 1.565131,-0.818463 0.272821,-0.445129 0.272821,-1.00513 0,-0.86154 -0.631796,-1.29231 -0.459488,-0.315898 -1.665644,-0.674873 -1.191797,-0.358975 -1.694362,-0.832822 -0.703591,-0.631796 -0.732309,-1.766157 0,-1.392823 1.076925,-2.15385 0.732309,-0.545642 1.751798,-0.545642 1.608208,0 2.383594,1.191797 0.445129,0.689232 0.473847,1.622567 h -1.220515 q -0.08615,-1.249233 -1.019489,-1.622567 -0.301539,-0.114872 -0.646155,-0.114872 -0.918976,0 -1.378464,0.746668 -0.229744,0.373334 -0.229744,0.847181 0,0.689232 0.445129,1.033848 0.301539,0.258462 1.321028,0.560001 l 0.02872,0.01436 q 0.02872,0 0.05744,0.01436 1.306669,0.387693 1.852311,0.789745 0.976412,0.689232 1.033848,2.139491 0,1.450259 -1.105643,2.29744 -0.832822,0.646155 -1.967183,0.646155 z"
           id="path8266" /><path
           d="m 26.997298,74.4806 v 6.002062 h -1.14872 V 74.4806 h -1.507695 v -1.033848 h 1.507695 V 71.03444 h 1.134361 v 2.412312 h 1.57949 V 74.4806 Z"
           id="path8263" /><path
           d="m 32.884494,80.65497 q -1.837952,0 -2.943595,-1.249233 -0.904617,-1.019489 -0.904617,-2.469748 0,-1.636926 1.220515,-2.685133 1.062566,-0.918976 2.555902,-0.918976 1.780516,0 2.857441,1.234874 0.875899,1.00513 0.875899,2.44103 0,1.72308 -1.234874,2.785646 -1.00513,0.86154 -2.426671,0.86154 z m -0.07179,-6.289242 q -1.335387,0 -2.096414,0.990771 -0.531283,0.689232 -0.531283,1.608208 0,1.407182 1.048207,2.15385 0.689232,0.488206 1.622567,0.488206 1.335387,0 2.053337,-1.00513 0.488206,-0.674873 0.488206,-1.57949 0,-1.364105 -1.00513,-2.139491 -0.689232,-0.516924 -1.57949,-0.516924 z"
           id="path8260" /><path
           d="m 38.814772,76.419065 v 4.063597 h -1.14872 v -6.992833 h 1.134361 v 0.71795 q 0.603078,-0.832822 1.995901,-0.875899 v 1.076925 q -1.86667,0.172308 -1.967183,1.780516 l -0.01436,0.01436 z"
           id="path8257" /><path
           d="m 42.375815,77.395477 q 0.114872,1.105643 1.105643,1.751798 0.689232,0.459488 1.522054,0.459488 1.206156,0 1.981542,-0.904617 0.244103,-0.28718 0.387693,-0.646155 h 1.177438 q -0.488206,1.478977 -1.823593,2.182568 -0.789745,0.416411 -1.694362,0.416411 -1.694362,0 -2.814364,-1.191797 -0.990771,-1.048207 -0.990771,-2.512825 0,-1.608208 1.191797,-2.670774 1.062566,-0.947694 2.541543,-0.947694 1.593849,0 2.699492,1.091284 0.330257,0.330257 0.560001,0.71795 0.473847,0.86154 0.488206,2.254363 z m 2.570261,-3.029749 q -1.306669,0 -2.067696,1.00513 -0.330257,0.43077 -0.459488,0.990771 h 5.111804 q -0.358975,-1.349746 -1.565131,-1.809234 -0.473847,-0.186667 -1.019489,-0.186667 z"
           id="path8254" /><path
           d="m 55.830227,82.938051 h -1.206156 l 1.177438,-2.72821 -2.756928,-6.720012 h 1.249233 l 2.139491,5.31283 2.29744,-5.31283 h 1.220515 z"
           id="path8251" /><path
           d="m 64.201513,80.65497 q -1.837952,0 -2.943595,-1.249233 -0.904617,-1.019489 -0.904617,-2.469748 0,-1.636926 1.220515,-2.685133 1.062566,-0.918976 2.555902,-0.918976 1.780516,0 2.857441,1.234874 0.875899,1.00513 0.875899,2.44103 0,1.72308 -1.234874,2.785646 -1.00513,0.86154 -2.426671,0.86154 z m -0.0718,-6.289242 q -1.335387,0 -2.096414,0.990771 -0.531283,0.689232 -0.531283,1.608208 0,1.407182 1.048207,2.15385 0.689232,0.488206 1.622567,0.488206 1.335387,0 2.053337,-1.00513 0.488206,-0.674873 0.488206,-1.57949 0,-1.364105 -1.00513,-2.139491 -0.689232,-0.516924 -1.57949,-0.516924 z"
           id="path8248" /><path
           d="m 74.209747,80.482662 v -0.818463 q -0.71795,0.990771 -2.15385,0.990771 -1.665644,0 -2.498466,-1.134361 -0.57436,-0.761027 -0.57436,-2.254363 v -3.776417 h 1.134361 v 3.776417 q 0,0.976412 0.315898,1.536413 0.502565,0.804104 1.694362,0.804104 1.105643,0 1.665644,-0.804104 0.402052,-0.545642 0.402052,-1.72308 v -3.58975 h 1.14872 v 6.992833 z"
           id="path8245" /><path
           d="m 77.899991,76.419065 v 4.063597 h -1.14872 v -6.992833 h 1.134361 v 0.71795 q 0.603078,-0.832822 1.995901,-0.875899 v 1.076925 q -1.86667,0.172308 -1.967183,1.780516 l -0.01436,0.01436 z"
           id="path8242" /><path
           d="m 90.593368,79.850866 q -1.048207,0.804104 -2.383594,0.804104 -1.766157,0 -2.914877,-1.191797 -1.00513,-1.048207 -1.00513,-2.498466 0,-1.593849 1.220515,-2.656415 1.105643,-0.976412 2.627697,-0.976412 1.837952,0 2.972313,1.335387 0.402052,0.473847 0.646155,1.076925 h -1.249233 q -0.818463,-1.378464 -2.383594,-1.378464 -1.306669,0 -2.110773,0.976412 -0.57436,0.71795 -0.57436,1.651285 0,1.234874 0.990771,2.024619 0.746668,0.588719 1.737439,0.588719 1.105643,0 1.909747,-0.804104 0.157949,-0.157949 0.315898,-0.358975 l 0.114872,-0.14359 h 1.277951 q -0.560001,1.033848 -1.091284,1.464618 z"
           id="path8239" /><path
           d="m 96.394418,80.65497 q -1.837952,0 -2.943595,-1.249233 -0.904617,-1.019489 -0.904617,-2.469748 0,-1.636926 1.220515,-2.685133 1.062566,-0.918976 2.555902,-0.918976 1.780516,0 2.857441,1.234874 0.875896,1.00513 0.875896,2.44103 0,1.72308 -1.234871,2.785646 -1.00513,0.86154 -2.426671,0.86154 z m -0.0718,-6.289242 q -1.335387,0 -2.096414,0.990771 -0.531283,0.689232 -0.531283,1.608208 0,1.407182 1.048207,2.15385 0.689232,0.488206 1.622567,0.488206 1.335387,0 2.053337,-1.00513 0.488206,-0.674873 0.488206,-1.57949 0,-1.364105 -1.00513,-2.139491 -0.689232,-0.516924 -1.57949,-0.516924 z"
           id="path8236" /><path
           d="m 110.6242,80.482662 v -4.034879 q 0,-0.990771 -0.37334,-1.478977 -0.45948,-0.617437 -1.39282,-0.617437 -1.00513,0 -1.50769,0.732309 -0.3159,0.502565 -0.3159,1.364105 v 4.034879 h -1.13436 v -4.063597 q 0,-1.00513 -0.41641,-1.464618 -0.50257,-0.588719 -1.37847,-0.588719 -1.33538,0 -1.68,1.234874 -0.10051,0.358975 -0.10051,0.818463 v 4.063597 h -1.14872 v -6.992833 h 1.13436 v 0.617437 q 0.68923,-0.746668 1.88103,-0.775386 1.45026,0 2.22564,1.14872 l 0.0574,0.0718 q 0.86154,-1.234874 2.42667,-1.234874 1.46462,0 2.26872,1.00513 0.58872,0.761027 0.58872,2.024619 v 4.135392 z"
           id="path8233" /><path
           d="m 119.34012,80.482662 v -1.00513 q -0.93334,1.076925 -2.3118,1.163079 -0.14359,0.01436 -0.30154,0.01436 -1.79488,0 -2.91488,-1.206156 -0.93333,-1.019489 -0.93333,-2.44103 0,-1.694362 1.24923,-2.771287 1.04821,-0.904617 2.54154,-0.904617 1.68,0 2.65642,1.177438 V 73.48983 h 1.14872 v 6.992833 z m -2.65642,-6.116934 q -1.26359,0 -2.0677,0.947694 -0.58871,0.703591 -0.58871,1.622567 0,1.306669 1.00513,2.096414 0.7323,0.57436 1.70872,0.57436 1.24923,0 2.02462,-0.976412 0.57436,-0.71795 0.57436,-1.680003 0,-1.277951 -0.99078,-2.038978 -0.71795,-0.545642 -1.66564,-0.545642 z"
           id="path8230" /><path
           d="m 127.12269,80.482662 v -3.661545 q 0,-1.220515 -0.44513,-1.751798 -0.54564,-0.703591 -1.62256,-0.703591 -1.14872,0 -1.69437,0.789745 -0.34461,0.473847 -0.34461,1.493336 v 3.833853 h -1.14872 v -6.992833 h 1.13436 v 0.732309 q 0.8759,-0.890258 2.16821,-0.890258 1.59385,0 2.44103,1.091284 0.58872,0.746668 0.63179,1.981542 l 0.0144,0.416411 v 3.661545 z"
           id="path8227" /><path
           d="m 135.85297,80.482662 v -1.048207 q -0.91897,1.14872 -2.35487,1.220515 h -0.20103 q -1.78052,0 -2.92924,-1.206156 -0.99077,-1.033848 -0.99077,-2.484107 0,-1.680003 1.24924,-2.756928 1.06256,-0.918976 2.57026,-0.918976 1.59385,0 2.65641,1.091284 V 71.03444 h 1.14872 v 9.448222 z m -2.67077,-6.160011 q -1.27795,0 -2.0677,0.962053 -0.58872,0.71795 -0.58872,1.651285 0,1.306669 1.00513,2.096414 0.74667,0.57436 1.73744,0.57436 1.22052,0 2.01026,-0.962053 0.61744,-0.746668 0.61744,-1.708721 0,-1.206156 -0.96205,-1.995901 -0.76103,-0.617437 -1.7518,-0.617437 z"
           id="path8224" /><path
           d="m 140.17504,80.65497 q -1.4359,0 -2.05334,-1.105643 -0.28718,-0.531283 -0.30154,-1.249233 h 1.12 q 0.0862,1.234874 1.23488,1.306669 0.70359,0 0.97641,-0.588719 0.10051,-0.229744 0.10051,-0.488206 0,-0.560001 -0.40205,-0.804104 -0.2441,-0.157949 -0.89026,-0.43077 l -0.91897,-0.373334 q -0.24411,-0.14359 -0.40206,-0.301539 -0.56,-0.502565 -0.56,-1.29231 0,-1.076925 0.8759,-1.651285 0.51693,-0.344616 1.20616,-0.344616 1.22051,0 1.78051,0.976412 v 0 q 0.14359,0.244103 0.21539,0.531283 0.0574,0.244103 0.0718,0.516924 h -1.14872 q -0.0861,-0.990771 -0.93333,-0.990771 -0.58872,0 -0.83282,0.502565 -0.0862,0.172308 -0.0862,0.387693 0,0.545642 0.58872,0.804104 l 1.52206,0.646155 q 0.94769,0.502565 1.0482,1.464618 0.0144,0.129231 0.0144,0.272821 0,1.191797 -0.91897,1.823593 -0.56001,0.387693 -1.30667,0.387693 z"
           id="path8221" /><path
           d="m 151.73403,77.395477 q 0.11488,1.105643 1.10565,1.751798 0.68923,0.459488 1.52205,0.459488 1.20616,0 1.98154,-0.904617 0.24411,-0.28718 0.3877,-0.646155 h 1.17743 q -0.4882,1.478977 -1.82359,2.182568 -0.78974,0.416411 -1.69436,0.416411 -1.69436,0 -2.81436,-1.191797 -0.99078,-1.048207 -0.99078,-2.512825 0,-1.608208 1.1918,-2.670774 1.06257,-0.947694 2.54154,-0.947694 1.59385,0 2.6995,1.091284 0.33025,0.330257 0.56,0.71795 0.47384,0.86154 0.4882,2.254363 z m 2.57027,-3.029749 q -1.30667,0 -2.0677,1.00513 -0.33026,0.43077 -0.45949,0.990771 h 5.11181 q -0.35898,-1.349746 -1.56514,-1.809234 -0.47384,-0.186667 -1.01948,-0.186667 z"
           id="path8215" /><path
           d="m 164.41304,80.482662 v -3.661545 q 0,-1.220515 -0.44512,-1.751798 -0.54565,-0.703591 -1.62257,-0.703591 -1.14872,0 -1.69436,0.789745 -0.34462,0.473847 -0.34462,1.493336 v 3.833853 h -1.14872 v -6.992833 h 1.13436 v 0.732309 q 0.8759,-0.890258 2.16821,-0.890258 1.59385,0 2.44103,1.091284 0.58872,0.746668 0.6318,1.981542 l 0.0144,0.416411 v 3.661545 z"
           id="path8212" /><path
           d="m 170.34333,80.482662 h -1.13436 l -3.0154,-6.992833 h 1.16308 l 2.39796,5.571292 2.44103,-5.571292 h 1.16308 z"
           id="path8209" /><path
           d="m 174.03358,72.800597 -0.0144,-1.766157 h 1.14872 v 1.766157 z m -0.0144,7.682065 v -7.03591 h 1.14872 v 7.03591 z"
           id="path8206" /><path
           d="m 177.72384,76.419065 v 4.063597 h -1.14872 v -6.992833 h 1.13436 v 0.71795 q 0.60307,-0.832822 1.9959,-0.875899 v 1.076925 q -1.86667,0.172308 -1.96719,1.780516 l -0.0144,0.01436 z"
           id="path8203" /><path
           d="m 183.98437,80.65497 q -1.83795,0 -2.9436,-1.249233 -0.90461,-1.019489 -0.90461,-2.469748 0,-1.636926 1.22051,-2.685133 1.06257,-0.918976 2.5559,-0.918976 1.78052,0 2.85744,1.234874 0.8759,1.00513 0.8759,2.44103 0,1.72308 -1.23487,2.785646 -1.00513,0.86154 -2.42667,0.86154 z m -0.0718,-6.289242 q -1.33538,0 -2.09641,0.990771 -0.53128,0.689232 -0.53128,1.608208 0,1.407182 1.0482,2.15385 0.68924,0.488206 1.62257,0.488206 1.33539,0 2.05334,-1.00513 0.4882,-0.674873 0.4882,-1.57949 0,-1.364105 -1.00513,-2.139491 -0.68923,-0.516924 -1.57949,-0.516924 z"
           id="path8200" /><path
           d="m 194.02132,80.482662 v -3.661545 q 0,-1.220515 -0.44513,-1.751798 -0.54564,-0.703591 -1.62257,-0.703591 -1.14872,0 -1.69436,0.789745 -0.34461,0.473847 -0.34461,1.493336 v 3.833853 h -1.14872 v -6.992833 h 1.13436 v 0.732309 q 0.8759,-0.890258 2.16821,-0.890258 1.59385,0 2.44103,1.091284 0.58872,0.746668 0.63179,1.981542 l 0.0144,0.416411 v 3.661545 z"
           id="path8197" /><path
           d="m 205.99674,80.482662 v -4.034879 q 0,-0.990771 -0.37333,-1.478977 -0.45949,-0.617437 -1.39283,-0.617437 -1.00513,0 -1.50769,0.732309 -0.3159,0.502565 -0.3159,1.364105 v 4.034879 h -1.13436 v -4.063597 q 0,-1.00513 -0.41641,-1.464618 -0.50257,-0.588719 -1.37846,-0.588719 -1.33539,0 -1.68001,1.234874 -0.10051,0.358975 -0.10051,0.818463 v 4.063597 h -1.14872 v -6.992833 h 1.13436 v 0.617437 q 0.68923,-0.746668 1.88103,-0.775386 1.45026,0 2.22564,1.14872 l 0.0574,0.0718 q 0.86154,-1.234874 2.42667,-1.234874 1.46462,0 2.26872,1.00513 0.58872,0.761027 0.58872,2.024619 v 4.135392 z"
           id="path8194" /><path
           d="m 209.39982,77.395477 q 0.11487,1.105643 1.10564,1.751798 0.68924,0.459488 1.52206,0.459488 1.20615,0 1.98154,-0.904617 0.2441,-0.28718 0.38769,-0.646155 h 1.17744 q -0.4882,1.478977 -1.82359,2.182568 -0.78975,0.416411 -1.69436,0.416411 -1.69437,0 -2.81437,-1.191797 -0.99077,-1.048207 -0.99077,-2.512825 0,-1.608208 1.1918,-2.670774 1.06256,-0.947694 2.54154,-0.947694 1.59385,0 2.69949,1.091284 0.33026,0.330257 0.56,0.71795 0.47385,0.86154 0.48821,2.254363 z m 2.57026,-3.029749 q -1.30667,0 -2.06769,1.00513 -0.33026,0.43077 -0.45949,0.990771 h 5.1118 q -0.35897,-1.349746 -1.56513,-1.809234 -0.47385,-0.186667 -1.01949,-0.186667 z"
           id="path8191" /><path
           d="m 222.07885,80.482662 v -3.661545 q 0,-1.220515 -0.44513,-1.751798 -0.54564,-0.703591 -1.62257,-0.703591 -1.14872,0 -1.69436,0.789745 -0.34462,0.473847 -0.34462,1.493336 v 3.833853 h -1.14872 v -6.992833 h 1.13436 v 0.732309 q 0.8759,-0.890258 2.16821,-0.890258 1.59385,0 2.44103,1.091284 0.58872,0.746668 0.6318,1.981542 l 0.0144,0.416411 v 3.661545 z"
           id="path8188" /><path
           d="m 226.61629,74.4806 v 6.002062 h -1.14872 V 74.4806 h -1.5077 v -1.033848 h 1.5077 V 71.03444 h 1.13436 v 2.412312 h 1.57949 V 74.4806 Z"
           id="path8185" /><path
           d="m 230.70861,80.65497 q -1.4359,0 -2.05333,-1.105643 -0.28718,-0.531283 -0.30154,-1.249233 h 1.12 q 0.0862,1.234874 1.23487,1.306669 0.70359,0 0.97642,-0.588719 0.10051,-0.229744 0.10051,-0.488206 0,-0.560001 -0.40205,-0.804104 -0.24411,-0.157949 -0.89026,-0.43077 l -0.91898,-0.373334 q -0.2441,-0.14359 -0.40205,-0.301539 -0.56,-0.502565 -0.56,-1.29231 0,-1.076925 0.8759,-1.651285 0.51692,-0.344616 1.20615,-0.344616 1.22052,0 1.78052,0.976412 v 0 q 0.14359,0.244103 0.21539,0.531283 0.0574,0.244103 0.0718,0.516924 h -1.14872 q -0.0861,-0.990771 -0.93333,-0.990771 -0.58872,0 -0.83283,0.502565 -0.0862,0.172308 -0.0862,0.387693 0,0.545642 0.58872,0.804104 l 1.52205,0.646155 q 0.9477,0.502565 1.04821,1.464618 0.0144,0.129231 0.0144,0.272821 0,1.191797 -0.91898,1.823593 -0.56,0.387693 -1.30667,0.387693 z"
           id="path8182" /></g><g
         id="g1732"
         transform="translate(78.240572,2.0447874)"><path
           d="m 144.813,81.344202 h -1.16308 l 1.22051,-2.469748 h 1.16308 z"
           id="path8218" /><path
           d="m 22.240687,94.345627 v -1.00513 q -0.93333,1.076925 -2.3118,1.163079 -0.14359,0.01436 -0.30154,0.01436 -1.79487,0 -2.91487,-1.206156 -0.93334,-1.019489 -0.93334,-2.44103 0,-1.694362 1.24923,-2.771287 1.04821,-0.904617 2.54155,-0.904617 1.68,0 2.65641,1.177438 v -1.019489 h 1.14872 v 6.992833 z m -2.65641,-6.116934 q -1.2636,0 -2.0677,0.947694 -0.58872,0.703591 -0.58872,1.622567 0,1.306669 1.00513,2.096414 0.73231,0.57436 1.70872,0.57436 1.24924,0 2.02462,-0.976412 0.57436,-0.71795 0.57436,-1.680003 0,-1.277951 -0.99077,-2.038978 -0.71795,-0.545642 -1.66564,-0.545642 z"
           id="path8179" /><path
           d="m 30.023267,94.345627 v -3.661545 q 0,-1.220515 -0.44513,-1.751798 -0.54564,-0.703591 -1.62257,-0.703591 -1.14872,0 -1.69436,0.789745 -0.34462,0.473847 -0.34462,1.493336 v 3.833853 h -1.14872 v -6.992833 h 1.13436 v 0.732309 q 0.8759,-0.890258 2.16821,-0.890258 1.59385,0 2.44103,1.091284 0.58872,0.746668 0.6318,1.981542 l 0.0144,0.416411 v 3.661545 z"
           id="path8176" /><path
           d="M 38.753547,94.345627 V 93.29742 q -0.91897,1.14872 -2.35487,1.220515 h -0.20103 q -1.78051,0 -2.92923,-1.206156 -0.99077,-1.033848 -0.99077,-2.484107 0,-1.680003 1.24923,-2.756928 1.06256,-0.918976 2.57026,-0.918976 1.59385,0 2.65641,1.091284 v -3.345647 h 1.14872 v 9.448222 z m -2.67077,-6.160011 q -1.27795,0 -2.0677,0.962053 -0.58871,0.71795 -0.58871,1.651285 0,1.306669 1.00513,2.096414 0.74666,0.57436 1.73743,0.57436 1.22052,0 2.01026,-0.962053 0.61744,-0.746668 0.61744,-1.708721 0,-1.206156 -0.96205,-1.995901 -0.76103,-0.617437 -1.7518,-0.617437 z"
           id="path8173" /><path
           d="m 47.053067,94.517935 q -1.4359,0 -2.05333,-1.105643 -0.28718,-0.531283 -0.30154,-1.249233 h 1.12 q 0.0862,1.234874 1.23487,1.306669 0.7036,0 0.97642,-0.588719 0.10051,-0.229744 0.10051,-0.488206 0,-0.560001 -0.40205,-0.804104 -0.24411,-0.157949 -0.89026,-0.43077 l -0.91898,-0.373334 q -0.2441,-0.14359 -0.40205,-0.301539 -0.56,-0.502565 -0.56,-1.29231 0,-1.076925 0.8759,-1.651285 0.51692,-0.344616 1.20616,-0.344616 1.22051,0 1.78051,0.976412 v 0 q 0.14359,0.244103 0.21539,0.531283 0.0574,0.244103 0.0718,0.516924 h -1.14872 q -0.0861,-0.990771 -0.93333,-0.990771 -0.58872,0 -0.83283,0.502565 -0.0861,0.172308 -0.0861,0.387693 0,0.545642 0.58872,0.804104 l 1.52205,0.646155 q 0.9477,0.502565 1.04821,1.464618 0.0144,0.129231 0.0144,0.272821 0,1.191797 -0.91898,1.823593 -0.56,0.387693 -1.30667,0.387693 z"
           id="path8170" /><path
           d="m 56.257197,93.713831 q -1.04821,0.804104 -2.3836,0.804104 -1.76616,0 -2.91488,-1.191797 -1.00513,-1.048207 -1.00513,-2.498466 0,-1.593849 1.22052,-2.656415 1.10564,-0.976412 2.6277,-0.976412 1.83795,0 2.97231,1.335387 0.40205,0.473847 0.64615,1.076925 h -1.24923 q -0.81846,-1.378464 -2.38359,-1.378464 -1.30667,0 -2.11078,0.976412 -0.57436,0.71795 -0.57436,1.651285 0,1.234874 0.99078,2.024619 0.74666,0.588719 1.73743,0.588719 1.10565,0 1.90975,-0.804104 0.15795,-0.157949 0.3159,-0.358975 l 0.11487,-0.14359 h 1.27795 q -0.56,1.033848 -1.09128,1.464618 z"
           id="path8167" /><path
           d="m 59.631567,90.28203 v 4.063597 h -1.14872 v -6.992833 h 1.13437 v 0.71795 q 0.60307,-0.832822 1.9959,-0.875899 v 1.076925 q -1.86667,0.172308 -1.96719,1.780516 l -0.0144,0.01436 z"
           id="path8164" /><path
           d="m 62.331077,86.663562 -0.0144,-1.766157 h 1.14872 v 1.766157 z m -0.0144,7.682065 v -7.03591 h 1.14872 v 7.03591 z"
           id="path8161" /><path
           d="m 68.649037,94.561012 q -1.66564,0 -2.62769,-1.163079 v 3.403083 h -1.14872 v -9.448222 h 1.13436 v 0.990771 q 0.97641,-1.14872 2.65641,-1.14872 1.72308,0 2.82872,1.206156 0.96206,1.033848 0.96206,2.498466 0,1.636926 -1.22052,2.713851 -1.09128,0.947694 -2.58462,0.947694 z m -0.0144,-6.332319 q -1.30667,0 -2.11077,0.976412 -0.57436,0.703591 -0.57436,1.636926 0,1.349746 1.01949,2.125132 0.71795,0.545642 1.68,0.545642 1.32103,0 2.09642,-0.990771 0.56,-0.689232 0.56,-1.622567 0,-1.364105 -1.03385,-2.139491 -0.70359,-0.531283 -1.63693,-0.531283 z"
           id="path8158" /><path
           d="m 75.584417,88.343565 v 6.002062 h -1.14872 v -6.002062 h -1.50769 v -1.033848 h 1.50769 v -2.412312 h 1.13436 v 2.412312 h 1.57949 v 1.033848 z"
           id="path8155" /><path
           d="m 79.676757,94.517935 q -1.4359,0 -2.05334,-1.105643 -0.28718,-0.531283 -0.30153,-1.249233 h 1.12 q 0.0862,1.234874 1.23487,1.306669 0.70359,0 0.97641,-0.588719 0.10052,-0.229744 0.10052,-0.488206 0,-0.560001 -0.40205,-0.804104 -0.24411,-0.157949 -0.89026,-0.43077 l -0.91898,-0.373334 q -0.2441,-0.14359 -0.40205,-0.301539 -0.56,-0.502565 -0.56,-1.29231 0,-1.076925 0.8759,-1.651285 0.51692,-0.344616 1.20615,-0.344616 1.22052,0 1.78052,0.976412 v 0 q 0.14359,0.244103 0.21538,0.531283 0.0574,0.244103 0.0718,0.516924 h -1.14872 q -0.0862,-0.990771 -0.93334,-0.990771 -0.58871,0 -0.83282,0.502565 -0.0861,0.172308 -0.0861,0.387693 0,0.545642 0.58872,0.804104 l 1.52205,0.646155 q 0.9477,0.502565 1.04821,1.464618 0.0144,0.129231 0.0144,0.272821 0,1.191797 -0.91898,1.823593 -0.56,0.387693 -1.30667,0.387693 z"
           id="path8152" /><path
           d="m 86.841907,86.663562 -0.0144,-1.766157 h 1.14872 v 1.766157 z m -0.0144,7.682065 v -7.03591 h 1.14872 v 7.03591 z"
           id="path8149" /><path
           d="m 94.638847,94.345627 v -3.661545 q 0,-1.220515 -0.44513,-1.751798 -0.54564,-0.703591 -1.62256,-0.703591 -1.14872,0 -1.69436,0.789745 -0.34462,0.473847 -0.34462,1.493336 v 3.833853 h -1.14872 v -6.992833 h 1.13436 v 0.732309 q 0.8759,-0.890258 2.16821,-0.890258 1.59385,0 2.44103,1.091284 0.58872,0.746668 0.6318,1.981542 l 0.0143,0.416411 v 3.661545 z"
           id="path8146" /><path
           d="m 107.33223,94.345627 v -1.00513 q -0.93334,1.076925 -2.3118,1.163079 -0.14359,0.01436 -0.30154,0.01436 -1.79487,0 -2.91488,-1.206156 -0.93333,-1.019489 -0.93333,-2.44103 0,-1.694362 1.24923,-2.771287 1.04821,-0.904617 2.54154,-0.904617 1.68001,0 2.65642,1.177438 v -1.019489 h 1.14872 v 6.992833 z m -2.65642,-6.116934 q -1.26359,0 -2.06769,0.947694 -0.58872,0.703591 -0.58872,1.622567 0,1.306669 1.00513,2.096414 0.73231,0.57436 1.70872,0.57436 1.24923,0 2.02462,-0.976412 0.57436,-0.71795 0.57436,-1.680003 0,-1.277951 -0.99077,-2.038978 -0.71795,-0.545642 -1.66565,-0.545642 z"
           id="path8143" /><path
           d="m 120.21225,93.613318 q -1.29231,0.732309 -3.4318,0.732309 h -2.74257 v -9.821556 h 2.41232 q 2.28308,0 3.51795,0.617437 0.14359,0.07179 0.28718,0.157949 2.05334,1.191797 2.25436,3.661545 0.0287,0.244103 0.0287,0.516924 0,2.627697 -2.09641,3.991802 -0.11487,0.07179 -0.22975,0.14359 z m -0.61743,-7.409244 q -1.00513,-0.617437 -3.10155,-0.617437 h -1.27795 v 7.696424 h 1.27795 q 2.32616,0 3.38873,-0.775386 l 0.0718,-0.05744 q 1.30667,-1.048207 1.39283,-2.800005 0,-0.114872 0,-0.215385 0,-1.837952 -1.27796,-2.900518 -0.22974,-0.186667 -0.47384,-0.330257 z"
           id="path8140" /><path
           d="m 129.90456,94.345627 v -1.00513 q -0.93334,1.076925 -2.3118,1.163079 -0.14359,0.01436 -0.30154,0.01436 -1.79488,0 -2.91488,-1.206156 -0.93333,-1.019489 -0.93333,-2.44103 0,-1.694362 1.24923,-2.771287 1.04821,-0.904617 2.54154,-0.904617 1.68,0 2.65642,1.177438 v -1.019489 h 1.14872 v 6.992833 z m -2.65642,-6.116934 q -1.26359,0 -2.0677,0.947694 -0.58871,0.703591 -0.58871,1.622567 0,1.306669 1.00513,2.096414 0.7323,0.57436 1.70872,0.57436 1.24923,0 2.02462,-0.976412 0.57436,-0.71795 0.57436,-1.680003 0,-1.277951 -0.99078,-2.038978 -0.71795,-0.545642 -1.66564,-0.545642 z"
           id="path8137" /><path
           d="m 134.442,88.343565 v 6.002062 h -1.14872 v -6.002062 h -1.5077 v -1.033848 h 1.5077 v -2.412312 h 1.13436 v 2.412312 h 1.57949 v 1.033848 z"
           id="path8134" /><path
           d="m 142.94252,94.345627 v -1.00513 q -0.93334,1.076925 -2.3118,1.163079 -0.14359,0.01436 -0.30154,0.01436 -1.79487,0 -2.91488,-1.206156 -0.93333,-1.019489 -0.93333,-2.44103 0,-1.694362 1.24923,-2.771287 1.04821,-0.904617 2.54155,-0.904617 1.68,0 2.65641,1.177438 v -1.019489 h 1.14872 v 6.992833 z m -2.65642,-6.116934 q -1.26359,0 -2.06769,0.947694 -0.58872,0.703591 -0.58872,1.622567 0,1.306669 1.00513,2.096414 0.73231,0.57436 1.70872,0.57436 1.24923,0 2.02462,-0.976412 0.57436,-0.71795 0.57436,-1.680003 0,-1.277951 -0.99077,-2.038978 -0.71795,-0.545642 -1.66565,-0.545642 z"
           id="path8131" /><path
           d="m 148.19791,85.586637 v 8.75899 h -1.1918 v -8.75899 h -2.25436 v -1.062566 h 5.68617 v 1.062566 z"
           id="path8128" /><path
           d="m 152.00307,91.258442 q 0.11487,1.105643 1.10564,1.751798 0.68924,0.459488 1.52206,0.459488 1.20615,0 1.98154,-0.904617 0.2441,-0.28718 0.38769,-0.646155 h 1.17744 q -0.4882,1.478977 -1.82359,2.182568 -0.78975,0.416411 -1.69436,0.416411 -1.69437,0 -2.81437,-1.191797 -0.99077,-1.048207 -0.99077,-2.512825 0,-1.608208 1.1918,-2.670774 1.06256,-0.947694 2.54154,-0.947694 1.59385,0 2.69949,1.091284 0.33026,0.330257 0.56,0.71795 0.47385,0.86154 0.48821,2.254363 z m 2.57026,-3.029749 q -1.30667,0 -2.06769,1.00513 -0.33026,0.43077 -0.45949,0.990771 h 5.1118 q -0.35897,-1.349746 -1.56513,-1.809234 -0.47385,-0.186667 -1.01949,-0.186667 z"
           id="path8125" /><path
           d="m 165.50053,94.345627 -2.72821,-4.034879 -2.72821,4.034879 h -1.40718 l 3.40308,-5.02565 -3.21642,-4.795906 h 1.40719 l 2.54154,3.776417 2.54154,-3.776417 h 1.37847 l -3.21642,4.795906 3.41744,5.02565 z"
           id="path8122" /><path
           d="m 177.70233,94.173318 v -1.048207 q -0.91897,1.14872 -2.35487,1.220515 h -0.20103 q -1.78051,0 -2.92923,-1.206156 -0.99078,-1.033848 -0.99078,-2.484107 0,-1.680003 1.24924,-2.756928 1.06256,-0.918976 2.57026,-0.918976 1.59385,0 2.65641,1.091284 v -3.345647 h 1.14872 v 9.448222 z m -2.67077,-6.160011 q -1.27795,0 -2.0677,0.962053 -0.58872,0.71795 -0.58872,1.651285 0,1.306669 1.00513,2.096414 0.74667,0.57436 1.73744,0.57436 1.22052,0 2.01026,-0.962053 0.61744,-0.746668 0.61744,-1.708721 0,-1.206156 -0.96205,-1.995901 -0.76103,-0.617437 -1.7518,-0.617437 z"
           id="path8119" /><path
           d="m 186.43261,94.173318 v -1.00513 q -0.93333,1.076925 -2.3118,1.163079 -0.14359,0.01436 -0.30153,0.01436 -1.79488,0 -2.91488,-1.206156 -0.93334,-1.019489 -0.93334,-2.44103 0,-1.694362 1.24924,-2.771287 1.0482,-0.904617 2.54154,-0.904617 1.68,0 2.65641,1.177438 v -1.019489 h 1.14872 v 6.992833 z m -2.65641,-6.116934 q -1.26359,0 -2.0677,0.947694 -0.58872,0.703591 -0.58872,1.622567 0,1.306669 1.00513,2.096414 0.73231,0.57436 1.70872,0.57436 1.24924,0 2.02462,-0.976412 0.57436,-0.71795 0.57436,-1.680003 0,-1.277951 -0.99077,-2.038978 -0.71795,-0.545642 -1.66564,-0.545642 z"
           id="path8116" /><path
           d="m 190.97005,88.171256 v 6.002062 h -1.14872 v -6.002062 h -1.50769 v -1.033848 h 1.50769 v -2.412312 h 1.13436 v 2.412312 h 1.57949 v 1.033848 z"
           id="path8113" /><path
           d="m 199.47059,94.173318 v -1.00513 q -0.93334,1.076925 -2.3118,1.163079 -0.14359,0.01436 -0.30154,0.01436 -1.79488,0 -2.91488,-1.206156 -0.93333,-1.019489 -0.93333,-2.44103 0,-1.694362 1.24923,-2.771287 1.04821,-0.904617 2.54154,-0.904617 1.68001,0 2.65642,1.177438 v -1.019489 h 1.14872 v 6.992833 z m -2.65642,-6.116934 q -1.26359,0 -2.06769,0.947694 -0.58872,0.703591 -0.58872,1.622567 0,1.306669 1.00513,2.096414 0.73231,0.57436 1.70872,0.57436 1.24923,0 2.02462,-0.976412 0.57436,-0.71795 0.57436,-1.680003 0,-1.277951 -0.99077,-2.038978 -0.71795,-0.545642 -1.66565,-0.545642 z"
           id="path8110" /><path
           d="m 205.77418,94.345626 q -1.66564,0 -2.6277,-1.163079 v 0.990771 h -1.14872 v -9.448222 h 1.13436 v 3.403083 q 0.97642,-1.14872 2.65642,-1.14872 1.70872,0 2.82872,1.191797 0.96206,1.033848 0.96206,2.469748 0,1.708721 -1.23488,2.785646 -1.06256,0.918976 -2.57026,0.918976 z m 0,-6.332319 q -1.32103,0 -2.12513,0.976412 -0.57436,0.703591 -0.57436,1.636926 0,1.076925 0.77538,1.881029 0.77539,0.789745 1.90975,0.789745 1.34975,0 2.12513,-1.00513 0.54565,-0.71795 0.54565,-1.665644 0,-1.306669 -1.00513,-2.067696 -0.7036,-0.545642 -1.65129,-0.545642 z"
           id="path8107" /><path
           d="m 216.88805,94.173318 v -1.00513 q -0.93333,1.076925 -2.3118,1.163079 -0.14359,0.01436 -0.30154,0.01436 -1.79487,0 -2.91487,-1.206156 -0.93334,-1.019489 -0.93334,-2.44103 0,-1.694362 1.24923,-2.771287 1.04821,-0.904617 2.54155,-0.904617 1.68,0 2.65641,1.177438 v -1.019489 h 1.14872 v 6.992833 z m -2.65641,-6.116934 q -1.2636,0 -2.0677,0.947694 -0.58872,0.703591 -0.58872,1.622567 0,1.306669 1.00513,2.096414 0.73231,0.57436 1.70872,0.57436 1.24924,0 2.02462,-0.976412 0.57436,-0.71795 0.57436,-1.680003 0,-1.277951 -0.99077,-2.038978 -0.71795,-0.545642 -1.66564,-0.545642 z"
           id="path8104" /><path
           d="m 221.19575,94.345626 q -1.4359,0 -2.05334,-1.105643 -0.28718,-0.531283 -0.30154,-1.249233 h 1.12 q 0.0862,1.234874 1.23488,1.306669 0.70359,0 0.97641,-0.588719 0.10051,-0.229744 0.10051,-0.488206 0,-0.560001 -0.40205,-0.804104 -0.2441,-0.157949 -0.89026,-0.43077 l -0.91897,-0.373334 q -0.24411,-0.14359 -0.40206,-0.301539 -0.56,-0.502565 -0.56,-1.29231 0,-1.076925 0.8759,-1.651285 0.51693,-0.344616 1.20616,-0.344616 1.22051,0 1.78051,0.976412 v 0 q 0.14359,0.244103 0.21539,0.531283 0.0574,0.244103 0.0718,0.516924 h -1.14872 q -0.0862,-0.990771 -0.93333,-0.990771 -0.58872,0 -0.83282,0.502565 -0.0862,0.172308 -0.0862,0.387693 0,0.545642 0.58872,0.804104 l 1.52206,0.646155 q 0.94769,0.502565 1.0482,1.464618 0.0144,0.129231 0.0144,0.272821 0,1.191797 -0.91897,1.823593 -0.56001,0.387693 -1.30667,0.387693 z"
           id="path8101" /><path
           d="m 225.24499,91.086133 q 0.11487,1.105643 1.10564,1.751798 0.68923,0.459488 1.52205,0.459488 1.20616,0 1.98155,-0.904617 0.2441,-0.28718 0.38769,-0.646155 h 1.17744 q -0.48821,1.478977 -1.8236,2.182568 -0.78974,0.416411 -1.69436,0.416411 -1.69436,0 -2.81436,-1.191797 -0.99077,-1.048207 -0.99077,-2.512825 0,-1.608208 1.19179,-2.670774 1.06257,-0.947694 2.54155,-0.947694 1.59385,0 2.69949,1.091284 0.33026,0.330257 0.56,0.71795 0.47385,0.86154 0.48821,2.254363 z m 2.57026,-3.029749 q -1.30667,0 -2.0677,1.00513 -0.33026,0.43077 -0.45949,0.990771 h 5.11181 q -0.35898,-1.349746 -1.56513,-1.809234 -0.47385,-0.186667 -1.01949,-0.186667 z"
           id="path8098" /><path
           d="m 233.17117,94.173318 -0.0144,-1.608208 h 1.14872 v 1.608208 z"
           id="path8095" /></g></g><g
       aria-label="Commands"
       transform="matrix(0.33271755,0,0,0.33271755,44.515168,-10.452515)"
       id="text367"
       style="font-size:40px;line-height:1.25;white-space:pre;shape-inside:url(#rect369);display:inline;fill:#f2f2f2"><path
         d="m -84.305679,83.850176 q -4.584615,0 -7.876923,-3.076923 -3.230769,-3.015385 -3.446154,-7.323077 v -0.553847 q 0,-4.276923 3.046154,-7.415384 3.015384,-3.138462 7.323077,-3.384616 l 0.676923,-0.03077 q 4.061538,0 7.107692,2.430769 1.661539,1.323077 2.676923,3.2 v 0 l 0.523077,1.076924 h -4.8 q -1.815384,-2.338462 -4.676923,-2.553847 -0.338461,-0.03077 -0.738461,-0.03077 -3.169231,0 -5.076924,2.184616 -1.692307,1.938461 -1.692307,4.553846 0,3.015384 2.276923,5.046154 1.969231,1.784615 4.584615,1.784615 2.430769,0 4.338462,-1.692308 l 0.03077,-0.03077 q 0.369231,-0.307692 0.738462,-0.707692 h 4.984615 q -1.723077,3.96923 -5.6,5.630769 -2.061539,0.892308 -4.4,0.892308 z"
         style="font-weight:bold;font-family:KerkisSans;-inkscape-font-specification:'KerkisSans Bold'"
         id="path8290" /><path
         d="m -64.921078,83.850176 q -3.630769,0 -6.153846,-2.553847 -2.369231,-2.36923 -2.369231,-5.630769 0,-3.446154 2.615384,-5.876923 2.461539,-2.307692 5.876924,-2.307692 3.846153,0 6.338461,2.646154 2.246154,2.36923 2.246154,5.661538 0,3.353846 -2.615385,5.753846 -2.492307,2.307693 -5.938461,2.307693 z m 0,-12.584616 q -2.123077,0 -3.415385,1.723077 -0.892308,1.169231 -0.892308,2.615385 0,2.338461 1.815385,3.630769 1.107692,0.830769 2.523077,0.830769 2.153846,0 3.446154,-1.753846 0.861538,-1.169231 0.861538,-2.646154 0,-2.215384 -1.753846,-3.538461 -1.138461,-0.861539 -2.584615,-0.861539 z"
         style="font-weight:bold;font-family:KerkisSans;-inkscape-font-specification:'KerkisSans Bold'"
         id="path8287" /><path
         d="m -35.013378,83.480945 v -8.553846 q 0,-2.03077 -0.676923,-2.8 -0.738462,-0.892308 -2.061539,-0.892308 -1.692307,0 -2.430769,1.353846 -0.492308,0.892308 -0.492308,3.2 v 7.692308 h -4.184615 v -8.553846 q 0,-2.061539 -0.615385,-2.8 -0.738461,-0.892308 -2.246154,-0.892308 -1.784615,0 -2.430769,1.476923 -0.369231,0.738462 -0.369231,3.076923 v 7.692308 h -4.215384 V 67.850176 h 3.876923 v 1.107692 q 1.476923,-1.476923 3.846154,-1.476923 3.076923,0 4.615384,2.246154 1.846154,-2.246154 5.015385,-2.246154 3.415385,0 5.138462,2.092308 l 0.03077,0.03077 0.307692,0.4 q 1.076923,1.692307 1.076923,4.492307 v 8.984616 z"
         style="font-weight:bold;font-family:KerkisSans;-inkscape-font-specification:'KerkisSans Bold'"
         id="path8284" /><path
         d="m -8.5210686,83.480945 v -8.553846 q 0,-2.03077 -0.6769231,-2.8 -0.7384615,-0.892308 -2.0615383,-0.892308 -1.692308,0 -2.430769,1.353846 -0.492308,0.892308 -0.492308,3.2 v 7.692308 h -4.184615 v -8.553846 q 0,-2.061539 -0.615385,-2.8 -0.738462,-0.892308 -2.246154,-0.892308 -1.784615,0 -2.430769,1.476923 -0.369231,0.738462 -0.369231,3.076923 v 7.692308 h -4.215385 V 67.850176 h 3.876924 v 1.107692 q 1.476923,-1.476923 3.846153,-1.476923 3.076923,0 4.615385,2.246154 1.846154,-2.246154 5.015385,-2.246154 3.4153842,0 5.1384611,2.092308 l 0.030769,0.03077 0.3076923,0.4 q 1.0769231,1.692307 1.0769231,4.492307 v 8.984616 z"
         style="font-weight:bold;font-family:KerkisSans;-inkscape-font-specification:'KerkisSans Bold'"
         id="path8281" /><path
         d="m 10.678933,83.480945 v -1.661539 q -1.9384613,1.938462 -5.0153844,2.03077 -3.8461538,0 -6.18461535,-2.707693 -1.90769235,-2.215384 -1.90769235,-5.415384 0,-3.907693 2.70769235,-6.276923 2.24615385,-1.969231 5.47692305,-1.969231 3.0769231,0 4.8923077,2.030769 v -1.661538 h 3.876923 V 83.480945 Z M 6.1558563,71.26556 q -2.4615384,0 -3.6615384,1.969231 -0.7076923,1.107692 -0.7076923,2.584615 0,2.492308 1.9692307,3.63077 1.0769231,0.615384 2.4615385,0.615384 2.0923077,0 3.2307692,-1.292307 1.107692,-1.261539 1.107692,-2.984616 0,-2.615384 -1.9692304,-3.846154 Q 7.5404717,71.26556 6.1558563,71.26556 Z"
         style="font-weight:bold;font-family:KerkisSans;-inkscape-font-specification:'KerkisSans Bold'"
         id="path8278" /><path
         d="m 26.986605,83.480945 v -7.630769 q 0,-2.83077 -0.707692,-3.723077 -0.646154,-0.892308 -2.092308,-0.892308 -1.692308,0 -2.584615,1.323077 -0.553847,0.861538 -0.553847,3.538461 v 7.384616 H 16.832759 V 67.850176 h 3.907692 v 1.2 q 1.815385,-1.569231 4.184615,-1.569231 3.446154,0 5.046154,2.276923 1.076923,1.538461 1.2,4.430769 0,0 0,0 0,0.430769 0,0.923077 v 8.369231 z"
         style="font-weight:bold;font-family:KerkisSans;-inkscape-font-specification:'KerkisSans Bold'"
         id="path8275" /><path
         d="m 46.125055,83.480945 v -1.661539 q -2.061539,2.03077 -4.984616,2.03077 -3.6,0 -5.96923,-2.646154 -2.092308,-2.338462 -2.092308,-5.630769 0,-3.692308 2.553846,-6.153847 2.307692,-2.215384 5.476923,-2.215384 2.830769,0 4.676923,1.6 v -6.153846 h 4.184616 V 83.480945 Z M 41.663516,70.988637 q -2.276923,0 -3.569231,1.815385 -0.8,1.138461 -0.8,2.615384 0,2.4 1.815385,3.784616 1.169231,0.861538 2.646154,0.861538 2.184615,0 3.476923,-1.815384 0.861538,-1.2 0.861538,-2.738462 0,-2.369231 -1.815384,-3.692308 -1.169231,-0.830769 -2.615385,-0.830769 z"
         style="font-weight:bold;font-family:KerkisSans;-inkscape-font-specification:'KerkisSans Bold'"
         id="path8272" /><path
         d="m 57.325034,83.850176 q -2.769231,0 -4.492308,-1.784616 l -0.36923,-0.430769 q -0.83077,-1.138462 -1.076923,-3.169231 l -0.03077,-0.246154 h 4.184616 q 0.461538,1.6 1.415384,1.784616 l 0.492308,0.06154 q 1.169231,0 1.446154,-0.892307 l 0.06154,-0.369231 q 0,-1.015385 -2.092307,-1.630769 0.09231,0.03077 -0.246154,-0.06154 l -0.03077,-0.03077 -0.153847,-0.03077 q -3.415384,-1.138462 -4.215384,-2.984616 -0.307693,-0.738461 -0.307693,-1.723077 0,-2.4 2.061539,-3.846154 1.476923,-1.015384 3.353846,-1.015384 2.584615,0 4.184615,1.753846 1.046154,1.107692 1.169231,2.984615 v 0.03077 l 0.03077,0.215384 h -4.061538 q -0.307692,-1.2 -1.323077,-1.2 -0.892308,0 -1.169231,0.738462 v 0.03077 l -0.03077,0.03077 q -0.03077,0.123077 -0.03077,0.276923 0,0.584616 1.046154,0.984616 v 0 h 0.03077 q 0,0 0.09231,0.03077 l 2.738461,0.892308 q 0.984616,0.4 1.569231,0.892307 1.538461,1.2 1.538461,3.292308 0,2.615385 -2.123076,4.246154 -1.6,1.169231 -3.661539,1.169231 z"
         style="font-weight:bold;font-family:KerkisSans;-inkscape-font-specification:'KerkisSans Bold'"
         id="path8269" /></g><path
       d="m 5.7145049,17.439049 -0.839171,-0.243497 c -0.08805,-0.02476 -0.137569,-0.116933 -0.112806,-0.204978 l 1.877816,-6.46849 c 0.02476,-0.08804 0.116934,-0.13757 0.204978,-0.112807 l 0.83917,0.243497 c 0.08805,0.02476 0.137569,0.116933 0.112807,0.204977 l -1.877816,6.468492 c -0.02614,0.08805 -0.116934,0.138944 -0.204978,0.112806 z m -1.568286,-1.543523 0.598425,-0.63832 c 0.06328,-0.06741 0.05916,-0.174713 -0.01101,-0.236618 l -1.24637,-1.096425 1.246375,-1.096424 c 0.07016,-0.06191 0.07566,-0.16921 0.01101,-0.236619 L 4.1462199,11.9528 c -0.06191,-0.06603 -0.166458,-0.07016 -0.233867,-0.0069 l -1.982368,1.857181 c -0.07016,0.06466 -0.07016,0.176088 0,0.240746 l 1.982368,1.858556 c 0.0674,0.06328 0.171961,0.06053 0.233867,-0.0068 z m 4.501255,0.0082 1.9823691,-1.858557 c 0.07016,-0.06466 0.07016,-0.176088 0,-0.240746 L 8.6474739,11.944546 c -0.06604,-0.06191 -0.170585,-0.05915 -0.233866,0.0069 l -0.598425,0.638317 c -0.06328,0.06741 -0.05916,0.174713 0.01101,0.236619 l 1.246374,1.0978 -1.246374,1.096424 c -0.07016,0.0619 -0.07566,0.16921 -0.01101,0.236619 l 0.598425,0.63832 c 0.0619,0.0674 0.166458,0.07016 0.233866,0.0082 z"
       id="path2"
       style="fill:#f2f2f2;stroke-width:0.0137568" /></g></svg>
