<?xml version="1.0" encoding="UTF-8" standalone="no"?>
<svg
   viewBox="0 0 576 512"
   version="1.1"
   id="svg1"
   sodipodi:docname="ConnectDB.svg"
   inkscape:version="1.3 (0e150ed6c4, 2023-07-21)"
   xmlns:inkscape="http://www.inkscape.org/namespaces/inkscape"
   xmlns:sodipodi="http://sodipodi.sourceforge.net/DTD/sodipodi-0.dtd"
   xmlns="http://www.w3.org/2000/svg"
   xmlns:svg="http://www.w3.org/2000/svg">
  <defs
     id="defs1" />
  <sodipodi:namedview
     id="namedview1"
     pagecolor="#505050"
     bordercolor="#eeeeee"
     borderopacity="1"
     inkscape:showpageshadow="0"
     inkscape:pageopacity="0"
     inkscape:pagecheckerboard="0"
     inkscape:deskcolor="#d1d1d1"
     inkscape:zoom="0.88476562"
     inkscape:cx="288.77704"
     inkscape:cy="346.41943"
     inkscape:window-width="1366"
     inkscape:window-height="694"
     inkscape:window-x="0"
     inkscape:window-y="0"
     inkscape:window-maximized="1"
     inkscape:current-layer="svg1" />
  <!--! Font Awesome Free 6.4.0 by @fontawesome - https://fontawesome.com License - https://fontawesome.com/license/free (Icons: CC BY 4.0, Fonts: SIL OFL 1.1, Code: MIT License) Copyright 2023 Fonticons, Inc. -->
  <path
     d="M96 0C78.3 0 64 14.3 64 32v96h64V32c0-17.7-14.3-32-32-32zM288 0c-17.7 0-32 14.3-32 32v96h64V32c0-17.7-14.3-32-32-32zM32 160c-17.7 0-32 14.3-32 32s14.3 32 32 32v32c0 77.4 55 142 128 156.8V480c0 17.7 14.3 32 32 32s32-14.3 32-32V412.8c12.3-2.5 24.1-6.4 35.1-11.5c-2.1-10.8-3.1-21.9-3.1-33.3c0-80.3 53.8-148 127.3-169.2c.5-2.2 .7-4.5 .7-6.8c0-17.7-14.3-32-32-32H32zM576 368a144 144 0 1 0 -288 0 144 144 0 1 0 288 0zm-76.7-43.3c6.2 6.2 6.2 16.4 0 22.6l-72 72c-6.2 6.2-16.4 6.2-22.6 0l-40-40c-6.2-6.2-6.2-16.4 0-22.6s16.4-6.2 22.6 0L416 385.4l60.7-60.7c6.2-6.2 16.4-6.2 22.6 0z"
     id="path1"
     style="fill:#f2f2f2" />
  <path
     style="fill:#ccff00;stroke-linecap:round;paint-order:markers fill stroke;stroke-miterlimit:14.9;stroke-linejoin:round;stroke:none;stroke-width:68.03149606"
     d="m 419.88521,510.62421 c -56.13804,-4.02653 -106.59058,-44.00289 -124.24311,-98.44475 -4.90681,-15.133 -6.71488,-27.10428 -6.6886,-44.28542 0.0456,-29.83449 7.38637,-54.32124 23.58217,-78.66387 27.18148,-40.85434 70.87159,-64.31185 119.78221,-64.31185 29.56571,0 58.21239,8.97395 81.7733,25.61654 9.80325,6.92468 26.06032,22.75228 32.89482,32.02585 34.36372,46.62724 37.65345,108.9317 8.35891,158.31025 -7.09549,11.96007 -20.73917,28.22319 -30.27839,36.09151 -31.06237,25.62145 -65.15589,36.53258 -105.18131,33.66174 z m 0.90215,-86.78315 c 1.66061,0 14.51598,-12.06648 41.24168,-38.71082 21.35596,-21.29095 39.55583,-40.08423 40.44414,-41.76285 3.77399,-7.1316 1.12497,-16.73795 -5.89116,-21.3636 -3.62124,-2.38744 -11.59467,-2.84954 -15.45544,-0.89571 -1.35781,0.68715 -16.57296,15.29657 -33.81145,32.46539 L 415.97242,384.7895 399.84493,368.81089 C 386.3691,355.45947 383.00264,352.69917 379.37,352.02266 c -9.11551,-1.69758 -17.86559,3.96983 -19.48893,12.62295 -1.54212,8.22021 0.32434,10.87867 24.77458,35.28721 22.84361,22.80466 26.95975,25.9167 32.21383,24.35551 0.82788,-0.246 2.59093,-0.44727 3.91788,-0.44727 z"
     id="path2" />
  <path
     id="path3"
     style="fill:#ccff00;stroke:none;stroke-width:76.8921;stroke-linecap:round;stroke-linejoin:round;stroke-miterlimit:14.9;paint-order:markers fill stroke"
     d="M 431.6582 225.83789 C 428.31076 225.88122 424.94243 226.05828 421.57812 226.31055 C 420.53328 226.38076 419.50737 226.51534 418.46875 226.60742 C 416.557 226.78736 414.65118 226.96667 412.75586 227.21289 C 411.03295 227.43445 409.32837 227.7064 407.625 227.98828 C 406.06344 228.24362 404.52193 228.51781 402.98633 228.81836 C 401.68724 229.07768 400.39182 229.34226 399.10547 229.63672 C 396.78522 230.15769 394.52827 230.73954 392.30273 231.36523 C 391.65161 231.54893 390.99506 231.71732 390.34766 231.91016 C 389.77109 232.08261 389.15832 232.22081 388.58984 232.40039 C 386.35649 233.10591 384.1448 233.87739 381.95117 234.70117 C 380.33788 235.29582 378.76986 235.98395 377.18359 236.63672 C 376.36395 236.98096 375.5338 237.2977 374.7207 237.6582 C 348.39486 249.09087 326.04694 268.56643 310.22852 294.4082 C 309.58105 295.4534 308.95421 296.51165 308.33203 297.57422 C 307.59099 298.85212 306.84026 300.11848 306.13086 301.42578 C 304.7872 303.88703 303.49413 306.3799 302.28906 308.92383 C 302.24743 309.01172 302.21136 309.10525 302.16992 309.19336 C 302.06672 309.41107 301.94611 309.6136 301.84375 309.83203 C 297.03823 320.08676 293.58102 332.03801 291.56055 344.45117 C 291.45357 345.10038 291.33323 345.74516 291.23438 346.39648 C 291.16356 346.86897 291.10955 347.34477 291.04297 347.81836 C 288.68884 364.35142 288.93587 381.43597 292.12305 396.53125 C 292.51762 398.40007 292.94985 400.25554 293.41797 402.09766 C 300.88048 431.51306 317.49736 457.2835 339.81836 476.32422 C 339.96732 476.45175 340.11225 476.58401 340.26172 476.71094 C 341.12764 477.4436 342.0118 478.15297 342.89453 478.86523 C 343.52918 479.37938 344.1577 479.90088 344.80078 480.4043 C 345.20536 480.71967 345.61944 481.02289 346.02734 481.33398 C 366.00714 496.63875 389.89457 506.7917 415.48242 509.70312 C 417.19622 509.89812 419.08933 510.03546 421.07227 510.13867 C 432.25004 510.96887 443.71113 510.38521 454.99414 508.48047 C 457.34728 508.14441 459.62723 507.78027 461.70508 507.36133 C 478.24797 504.02595 494.18969 497.25148 508.63672 487.87109 C 508.95477 487.6658 509.27166 487.45955 509.58789 487.25195 C 511.01428 486.30994 512.42914 485.35258 513.82422 484.35938 C 514.70921 483.73318 515.57397 483.08393 516.44336 482.43945 C 517.38124 481.7401 518.32797 481.05619 519.25 480.33398 C 523.25874 477.21121 527.07639 473.88175 530.7168 470.38281 C 530.85179 470.25281 530.98462 470.12076 531.11914 469.99023 C 532.87766 468.28697 534.58708 466.53941 536.25391 464.75391 C 536.41024 464.58648 536.56708 464.42012 536.72266 464.25195 C 538.47523 462.35674 540.18391 460.42561 541.83008 458.44336 C 541.83567 458.43662 541.84206 458.43056 541.84766 458.42383 C 541.84974 458.42133 541.85144 458.41852 541.85352 458.41602 C 543.57479 456.34229 545.24698 454.23021 546.84766 452.06641 C 548.25121 450.16907 549.5985 448.23235 550.90625 446.26953 C 551.47401 445.42122 552.01673 444.55781 552.56641 443.69727 C 553.26128 442.60445 553.94444 441.50581 554.60938 440.39453 C 555.29787 439.24883 555.97295 438.09706 556.62891 436.93164 C 557.04585 436.18816 557.44406 435.4346 557.84766 434.68359 C 558.43559 433.59285 559.06029 432.52277 559.61914 431.41602 C 561.73262 427.2305 563.54686 423.0414 565.17969 418.82227 C 565.86731 417.04549 566.51047 415.25607 567.11523 413.46289 C 567.19527 413.22815 567.28838 412.99891 567.36719 412.76367 C 567.45981 412.48721 567.53233 412.19945 567.62305 411.92188 C 568.14896 410.29439 568.6557 408.65695 569.11523 407.00977 C 569.36309 406.12697 569.58493 405.23184 569.81445 404.33984 C 570.16964 402.95053 570.53401 401.56209 570.84375 400.1543 C 571.33149 397.95889 571.76382 395.74153 572.14453 393.50391 C 572.16372 393.3887 572.19008 393.27747 572.20898 393.16211 C 573.87657 383.20941 574.46103 372.89054 574.04883 362.58789 C 574.00496 361.28174 573.94105 359.98136 573.86328 358.68359 C 573.83149 358.19613 573.7981 357.70978 573.76172 357.22266 C 573.28582 350.41399 572.34566 343.72996 570.94922 337.19727 C 570.91697 337.04341 570.88429 336.89002 570.85156 336.73633 C 570.48971 335.07086 570.09845 333.41617 569.67773 331.77148 C 569.40989 330.69797 569.12935 329.63164 568.83789 328.56836 C 568.69175 328.04895 568.54268 327.53083 568.39062 327.01367 C 566.14493 319.17307 563.29189 311.62082 559.76758 304.59961 C 550.64005 286.41551 537.34349 270.38105 521.48633 257.57227 C 505.10184 243.99774 487.34695 234.90388 467.62695 230.0957 C 464.16975 229.19064 460.69186 228.37404 457.17773 227.75391 C 449.22032 226.34968 440.52349 225.72315 431.6582 225.83789 z M 481.17969 319.85938 L 487.93945 319.85938 C 491.75117 319.85938 494.86912 320.62109 497.3418 322.07031 C 497.8612 322.51364 498.36803 322.95397 499.01367 323.59961 C 500.78383 325.36977 502.14629 327.36024 503.07812 329.4707 C 503.74821 331.57283 504.08789 334.01183 504.08789 336.79102 L 504.08789 340.06641 C 504.03516 340.294 504.01182 340.52326 503.94922 340.75 C 503.48846 342.41873 501.7103 344.95455 497.15625 349.99219 L 494.31641 353.04883 C 488.54595 359.21788 479.72636 368.18185 465.22461 382.68359 C 455.99428 391.91392 447.62361 400.11005 440.48828 407.01758 C 432.89594 414.27938 426.48881 420.28508 424.51953 421.73242 C 422.4221 423.27395 420.42571 424.22924 418.43945 424.67383 C 418.15714 424.72561 417.87404 424.80392 417.5918 424.83594 C 417.49039 424.85068 417.38854 424.84946 417.28711 424.86133 C 414.57262 425.10087 411.85147 424.43825 409.01953 422.8418 C 408.28585 422.4173 407.54138 421.94041 406.77539 421.38867 C 400.23154 416.67522 367.50641 383.97487 362.9668 377.61328 C 356.89248 369.10103 359.2033 359.04583 366.41406 354.28516 C 369.08709 352.60446 372.41554 351.5834 376.2793 351.52539 C 381.32462 351.59486 385.34959 354.15768 396.19727 364.41016 C 398.51582 366.63056 400.65516 368.66284 403.7832 371.73828 L 415.9375 383.6875 L 417.78516 381.86133 L 435.48242 364.41016 C 446.17472 353.86572 460.82056 339.52801 468.0293 332.54883 L 476.6875 324.16602 L 481.17969 319.85938 z " />
  <path
     style="fill:#c8ab37;stroke:none;stroke-width:76.8921;stroke-linecap:round;stroke-linejoin:round;stroke-miterlimit:14.9;paint-order:markers fill stroke"
     d="M 415.48271,509.7025 C 355.48086,502.87539 304.7492,456.33404 292.12269,396.53171 c -5.76738,-27.31574 -1.88638,-61.92996 9.72082,-86.69909 24.55741,-52.40412 73.28986,-83.87071 129.89414,-83.87276 41.47325,-0.002 75.06762,14.55228 104.33439,45.19983 24.7437,25.91109 38.09132,59.7192 38.09132,96.48128 0,24.12697 -4.51068,43.90731 -14.54336,63.77599 -19.51266,38.6428 -56.95895,67.68637 -97.91581,75.94409 -13.4635,2.71452 -33.8613,3.74781 -46.22148,2.34145 z m 7.7666,-86.96356 c 4.95801,-3.26811 48.89781,-46.10325 66.01994,-64.36018 l 14.81905,-15.80122 v -6.10617 c 0,-4.48454 -0.68437,-7.12172 -2.57698,-9.93014 -3.38852,-5.02824 -6.85036,-6.64561 -14.26765,-6.66585 l -6.10732,-0.0167 -13.10681,12.68944 c -7.20874,6.97919 -21.84945,21.31112 -32.53489,31.84873 l -19.42809,19.15929 -14.3607,-13.88123 c -16.36452,-15.81815 -19.67337,-18.1593 -25.67369,-18.1652 -8.83523,-0.009 -15.52328,5.98574 -16.35681,14.66048 -0.46707,4.86095 -0.0858,6.3999 2.59917,10.49162 3.8308,5.83787 37.58487,39.77281 44.49991,44.73836 5.86418,4.21096 11.43116,4.66333 16.47487,1.33873 z"
     id="path4" />
  <path
     style="fill:#71c837;stroke:none;stroke-width:76.8921;stroke-linecap:round;stroke-linejoin:round;stroke-miterlimit:14.9;paint-order:markers fill stroke"
     d="m 408.2831,508.04703 c -45.7766,-8.2979 -84.28204,-37.79446 -104.83303,-80.30589 -10.14068,-20.97685 -13.51514,-38.1424 -12.65369,-64.36807 0.95689,-29.13125 7.43988,-49.81156 22.92707,-73.13593 14.38162,-21.65932 34.33829,-39.09641 57.35328,-50.11229 19.63347,-9.39735 37.55849,-13.27474 61.24115,-13.24716 38.49864,0.0448 68.96408,12.07595 96.48129,38.10147 32.64244,30.8729 47.192,68.95496 44.06948,115.34755 -3.34411,49.68476 -35.22596,94.76307 -82.78374,117.04941 -22.7602,10.66578 -57.11039,15.14672 -81.80181,10.67091 z m 18.09775,-87.30484 c 9.58819,-8.43587 46.99215,-45.10679 62.16661,-60.94826 l 15.54084,-16.22397 v -7.46762 c 0,-7.16752 -0.17634,-7.64396 -4.388,-11.85562 -4.24733,-4.24732 -4.63685,-4.38778 -12.15011,-4.38119 l -7.76211,0.007 -23.18168,22.88061 c -12.74993,12.58434 -27.08624,26.65078 -31.85849,31.25875 l -8.67681,8.37813 -13.91635,-12.97148 c -17.96701,-16.74713 -19.69499,-17.91386 -26.52349,-17.90859 -10.22211,0.008 -16.21404,6.21331 -16.21404,16.79179 0,4.82681 0.6123,6.36602 4.40603,11.07599 6.31804,7.84396 38.29476,39.20842 43.50445,42.6715 6.75662,4.49138 12.94539,4.06689 19.05315,-1.30684 z"
     id="path5" />
  <path
     style="fill:#333333;stroke:#000000;stroke-width:1.13024;stroke-linecap:round;stroke-linejoin:round;stroke-miterlimit:14.9;paint-order:markers fill stroke"
     d="m 179.14349,508.20436 c -3.10817,-1.4538 -7.77876,-4.9608 -10.37909,-7.79331 -7.77528,-8.46952 -8.26992,-11.61029 -8.26992,-52.51038 0,-27.38129 -0.32104,-35.52314 -1.4128,-35.82973 -19.94173,-5.60006 -26.18919,-7.87054 -38.1457,-13.86308 C 83.197316,379.2934 54.262628,346.18358 41.266045,307.04191 34.587202,286.92732 33.728648,281.06403 33.100094,251.27439 l -0.576667,-27.33047 -4.676725,-0.7798 C 1.4070665,218.75554 -8.1245478,186.862 11.588955,168.7644 c 9.632472,-8.8429 -2.8770732,-8.26992 180.552325,-8.26992 182.60507,0 170.3981,-0.54505 180.15591,8.04411 7.14473,6.28905 9.96865,12.1433 10.56743,21.90733 l 0.48518,7.9117 -8.32953,2.59678 c -11.52637,3.5934 -28.92741,12.19005 -41.03351,20.27179 -40.11826,26.782 -66.79815,67.54412 -75.96844,116.06623 -2.19812,11.63078 -2.61695,49.29588 -0.65025,58.47693 l 1.129,5.27044 -9.16615,3.5437 c -5.04139,1.94903 -12.72375,4.44092 -17.07193,5.53754 l -7.90579,1.99384 -0.56512,37.79246 -0.56512,37.79245 -3.00725,5.65122 c -6.14812,11.55355 -15.63212,17.45956 -28.07443,17.4829 -5.35855,0.01 -8.87583,-0.70152 -12.99779,-2.62954 z"
     id="path6" />
  <path
     style="fill:#333333;stroke:#000000;stroke-width:1.13024;stroke-linecap:round;stroke-linejoin:round;stroke-miterlimit:14.9;paint-order:markers fill stroke"
     d="m 256.56512,77.464033 c 0,-47.704183 0.11589,-50.556565 2.28442,-56.229581 10.08523,-26.3836125 45.9663,-27.286266 57.84524,-1.455202 2.57234,5.593635 2.60224,6.172305 2.93495,56.794702 l 0.33612,51.143488 h -31.70036 -31.70037 z"
     id="path7" />
  <path
     style="fill:#333333;stroke:#000000;stroke-width:1.13024;stroke-linecap:round;stroke-linejoin:round;stroke-miterlimit:14.9;paint-order:markers fill stroke"
     d="m 64.423841,78.191896 c 0,-56.217725 0.12136,-57.2058 8.14596,-66.322228 12.464905,-14.1608789 33.968979,-14.5179186 46.362569,-0.769774 8.44388,9.366757 8.16139,7.221207 8.54624,64.908936 l 0.34496,51.70861 H 96.123706 64.423841 Z"
     id="path8" />
</svg>
