<?xml version="1.0" encoding="UTF-8" standalone="no"?>
<svg
   viewBox="0 0 576 512"
   version="1.1"
   id="svg1"
   sodipodi:docname="DisconnectDB.svg"
   inkscape:version="1.3 (0e150ed6c4, 2023-07-21)"
   xmlns:inkscape="http://www.inkscape.org/namespaces/inkscape"
   xmlns:sodipodi="http://sodipodi.sourceforge.net/DTD/sodipodi-0.dtd"
   xmlns="http://www.w3.org/2000/svg"
   xmlns:svg="http://www.w3.org/2000/svg">
  <defs
     id="defs1" />
  <sodipodi:namedview
     id="namedview1"
     pagecolor="#505050"
     bordercolor="#eeeeee"
     borderopacity="1"
     inkscape:showpageshadow="0"
     inkscape:pageopacity="0"
     inkscape:pagecheckerboard="0"
     inkscape:deskcolor="#d1d1d1"
     inkscape:zoom="0.77951389"
     inkscape:cx="288"
     inkscape:cy="255.92873"
     inkscape:window-width="1366"
     inkscape:window-height="694"
     inkscape:window-x="0"
     inkscape:window-y="0"
     inkscape:window-maximized="1"
     inkscape:current-layer="svg1" />
  <!--! Font Awesome Free 6.4.0 by @fontawesome - https://fontawesome.com License - https://fontawesome.com/license/free (Icons: CC BY 4.0, Fonts: SIL OFL 1.1, Code: MIT License) Copyright 2023 Fonticons, Inc. -->
  <path
     d="M96 0C78.3 0 64 14.3 64 32v96h64V32c0-17.7-14.3-32-32-32zM288 0c-17.7 0-32 14.3-32 32v96h64V32c0-17.7-14.3-32-32-32zM32 160c-17.7 0-32 14.3-32 32s14.3 32 32 32v32c0 77.4 55 142 128 156.8V480c0 17.7 14.3 32 32 32s32-14.3 32-32V412.8c12.3-2.5 24.1-6.4 35.1-11.5c-2.1-10.8-3.1-21.9-3.1-33.3c0-80.3 53.8-148 127.3-169.2c.5-2.2 .7-4.5 .7-6.8c0-17.7-14.3-32-32-32H32zM576 368a144 144 0 1 0 -288 0 144 144 0 1 0 288 0zm-64 0c0 8.8-7.2 16-16 16H368c-8.8 0-16-7.2-16-16s7.2-16 16-16H496c8.8 0 16 7.2 16 16z"
     id="path1"
     style="fill:#f2f2f2" />
  <path
     style="fill:#ff2a2a;stroke-width:87.2743;stroke-linecap:round;stroke-linejoin:round;stroke-miterlimit:14.9;paint-order:markers fill stroke"
     d="m 416.7556,510.54176 c -25.6951,-2.89197 -51.04799,-13.12366 -71.8082,-28.97971 -3.95733,-3.02248 -12.03929,-10.64387 -17.95991,-16.93641 -59.90496,-63.66801 -47.79298,-165.82948 25.55925,-215.58592 50.38022,-34.17401 118.27594,-31.89312 167.00783,5.61045 27.00687,20.78422 46.9217,53.44747 53.33104,87.47075 3.18119,16.88697 1.96412,46.80263 -2.56804,63.12297 -12.29717,44.28214 -44.57329,79.96031 -87.32425,96.52866 -19.51019,7.56127 -45.91303,11.05673 -66.23772,8.76921 z m 87.01435,-128.19578 c 5.81969,-3.5485 8.50557,-8.26297 8.40739,-14.75735 -0.0974,-6.44461 -3.04299,-11.59109 -8.14378,-14.22881 -5.55959,-2.87498 -138.09416,-2.75704 -143.67293,0.12785 -8.26649,4.27477 -11.2152,15.30097 -6.26375,23.42229 4.82653,7.91645 4.07125,7.84026 78.22383,7.89027 64.54218,0.0435 67.52056,-0.0588 71.44924,-2.45425 z"
     id="path2" />
  <path
     style="fill:#000000;stroke:#000000;stroke-width:1.28285;stroke-linecap:round;stroke-linejoin:round;stroke-miterlimit:14.9;paint-order:markers fill stroke"
     d="m 182.39907,509.46814 c -7.72208,-2.72407 -14.54686,-8.66393 -18.6273,-16.21202 -2.63576,-4.87569 -2.79339,-7.01725 -3.16316,-42.97565 L 160.21943,412.4362 147.7801,408.84137 C 116.07606,399.67924 87.186689,380.26277 67.515854,354.89599 41.733896,321.64852 32.118283,290.21864 32.082242,239.07662 l -0.01097,-15.56926 -5.739579,-0.86071 C 12.474609,220.56865 1.2828508,206.983 1.2828508,192.23992 c 0,-12.6202 5.8789455,-22.28402 17.3184852,-28.46815 l 5.131403,-2.774 H 191.78619 359.83964 l 6.86069,3.80015 c 10.50724,5.81998 17.91992,18.95103 16.65514,29.50337 -0.37705,3.14575 -1.53481,3.94552 -10.35534,7.15335 -60.10931,21.86042 -102.5417,71.52381 -114.63693,134.17248 -2.40804,12.47277 -3.12391,41.14898 -1.40934,56.45545 l 1.02512,9.1516 -8.43593,3.26019 c -4.63978,1.79309 -12.46144,4.29716 -17.38148,5.56459 l -8.94553,2.30443 -0.0563,36.59782 c -0.0602,39.13761 -0.47623,42.27093 -6.69484,50.42394 -1.76172,2.30974 -6.01464,5.72165 -9.45094,7.582 -8.71984,4.72082 -16.17498,5.47829 -24.61488,2.501 z"
     id="path3" />
  <path
     style="fill:#000000;stroke:#000000;stroke-width:1.28285;stroke-linecap:round;stroke-linejoin:round;stroke-miterlimit:14.9;paint-order:markers fill stroke"
     d="m 256.57016,77.440596 c 0,-34.57874 0.46103,-51.100432 1.52505,-54.651799 0.83877,-2.799591 4.00936,-7.853324 7.04575,-11.230517 15.42157,-17.1524928 41.14044,-12.9723576 51.22632,8.325907 3.03348,6.405763 3.03752,6.480912 3.05003,56.766147 l 0.0125,50.351896 H 288 256.57016 Z"
     id="path4" />
  <path
     style="fill:#000000;stroke:#000000;stroke-width:1.28285;stroke-linecap:round;stroke-linejoin:round;stroke-miterlimit:14.9;paint-order:markers fill stroke"
     d="m 64.142539,79.599891 c 0,-28.881099 0.537332,-49.907827 1.375221,-53.814769 1.685518,-7.8593 7.103256,-15.587925 14.236027,-20.3082726 4.454542,-2.9479412 7.021664,-3.6214814 15.083367,-3.95745 9.082756,-0.3785206 10.171486,-0.1279921 16.724796,3.8485523 4.69578,2.8493994 8.2952,6.3368473 10.90423,10.5650253 l 3.89462,6.311598 0.362,52.378825 0.36199,52.37883 H 95.613666 64.142539 Z"
     id="path5" />
</svg>
