<?xml version="1.0" encoding="UTF-8" standalone="no"?>
<svg
   viewBox="0 0 22 22"
   version="1.1"
   id="svg1"
   sodipodi:docname="document-print.svg"
   inkscape:version="1.3 (0e150ed6c4, 2023-07-21)"
   xmlns:inkscape="http://www.inkscape.org/namespaces/inkscape"
   xmlns:sodipodi="http://sodipodi.sourceforge.net/DTD/sodipodi-0.dtd"
   xmlns="http://www.w3.org/2000/svg"
   xmlns:svg="http://www.w3.org/2000/svg">
  <sodipodi:namedview
     id="namedview1"
     pagecolor="#505050"
     bordercolor="#eeeeee"
     borderopacity="1"
     inkscape:showpageshadow="0"
     inkscape:pageopacity="0"
     inkscape:pagecheckerboard="0"
     inkscape:deskcolor="#d1d1d1"
     inkscape:zoom="20.590909"
     inkscape:cx="10.975717"
     inkscape:cy="11"
     inkscape:window-width="1366"
     inkscape:window-height="694"
     inkscape:window-x="0"
     inkscape:window-y="0"
     inkscape:window-maximized="1"
     inkscape:current-layer="svg1" />
  <defs
     id="defs3051">
    <style
       type="text/css"
       id="current-color-scheme">&#10;      .ColorScheme-Text {&#10;        color:#eff0f1;&#10;      }&#10;      </style>
  </defs>
  <path
     style="fill:#000000;fill-opacity:1;stroke:none"
     d="m5 3v1 4h-2v1 7h1 3v2 1h8v-1-2h4v-1-6-1h-2v-4-1h-12m1 1h10v4h-1v-1h-8v1h-1v-4m1 1v1h8v-1h-8m-3 4h14v6h-2v-2h-10v2h-2v-6m10 1v1h3v-1h-3m-6 6h6v2h-6v-2"
     class="ColorScheme-Text"
     id="path1" />
</svg>
