<?xml version="1.0" encoding="UTF-8" standalone="no"?>
<!-- Created with Inkscape (http://www.inkscape.org/) -->

<svg
   width="255.99998"
   height="128"
   viewBox="0 0 67.733321 33.866667"
   version="1.1"
   id="svg5"
   xml:space="preserve"
   sodipodi:docname="DocumentsDB.svg"
   inkscape:version="1.2.2 (b0a8486541, 2022-12-01)"
   xmlns:inkscape="http://www.inkscape.org/namespaces/inkscape"
   xmlns:sodipodi="http://sodipodi.sourceforge.net/DTD/sodipodi-0.dtd"
   xmlns="http://www.w3.org/2000/svg"
   xmlns:svg="http://www.w3.org/2000/svg"><sodipodi:namedview
     id="namedview2941"
     pagecolor="#505050"
     bordercolor="#eeeeee"
     borderopacity="1"
     inkscape:showpageshadow="0"
     inkscape:pageopacity="0"
     inkscape:pagecheckerboard="0"
     inkscape:deskcolor="#505050"
     showgrid="false"
     inkscape:zoom="1.84375"
     inkscape:cx="127.18644"
     inkscape:cy="64"
     inkscape:window-width="1366"
     inkscape:window-height="694"
     inkscape:window-x="0"
     inkscape:window-y="0"
     inkscape:window-maximized="1"
     inkscape:current-layer="svg5" /><defs
     id="defs2"><rect
       x="7.9878626"
       y="68.10704"
       width="378.06595"
       height="14.420688"
       id="rect387" /><rect
       x="-96.244637"
       y="47.086346"
       width="219.45601"
       height="95.854347"
       id="rect369" /></defs><g
     id="g451"
     transform="translate(-0.03745207,-2.7797758)"><g
       aria-label="Create a new DataTeX database for your documents."
       transform="matrix(0.2587881,0,0,0.2587881,-0.52442507,2.4593541)"
       id="text385"
       style="font-size:18.6667px;line-height:0.75;font-family:KerkisSans;-inkscape-font-specification:KerkisSans;text-align:center;white-space:pre;shape-inside:url(#rect387);display:inline;fill:#f2f2f2"><path
         d="m 33.084669,80.65497 q -2.268723,0 -3.776418,-1.464618 -1.493336,-1.450259 -1.493336,-3.575391 0,-2.225645 1.522054,-3.690263 1.464618,-1.4359 3.675905,-1.4359 2.311799,0 3.790776,1.550772 0.01436,0.02872 0.02872,0.04308 0.516924,0.560001 0.86154,1.277951 h -1.32103 q -0.531283,-0.789745 -1.076925,-1.14872 -0.976412,-0.646155 -2.240004,-0.646155 -1.809235,0 -2.986673,1.263592 -0.01436,0.01436 -0.01436,0.02872 -1.033848,1.120002 -1.033848,2.713851 0,1.680003 1.234874,2.8718 1.177438,1.134361 2.814365,1.134361 1.349746,0 2.354876,-0.775386 0.373334,-0.272821 1.00513,-1.048207 h 1.306669 q -1.608208,2.900518 -4.652316,2.900518 z"
         id="path3418" /><path
         d="m 39.991332,76.419065 v 4.063597 h -1.14872 v -6.992833 h 1.134361 v 0.71795 q 0.603078,-0.832822 1.995901,-0.875899 v 1.076925 q -1.86667,0.172308 -1.967183,1.780516 l -0.01436,0.01436 z"
         id="path3415" /><path
         d="m 43.552375,77.395477 q 0.114872,1.105643 1.105643,1.751798 0.689232,0.459488 1.522054,0.459488 1.206156,0 1.981542,-0.904617 0.244103,-0.28718 0.387693,-0.646155 h 1.177438 q -0.488206,1.478977 -1.823593,2.182568 -0.789745,0.416411 -1.694362,0.416411 -1.694362,0 -2.814364,-1.191797 -0.990771,-1.048207 -0.990771,-2.512825 0,-1.608208 1.191797,-2.670774 1.062566,-0.947694 2.541543,-0.947694 1.593849,0 2.699492,1.091284 0.330257,0.330257 0.560001,0.71795 0.473847,0.86154 0.488206,2.254363 z m 2.570261,-3.029749 q -1.306669,0 -2.067696,1.00513 -0.330257,0.43077 -0.459488,0.990771 h 5.111804 q -0.358975,-1.349746 -1.565131,-1.809234 -0.473847,-0.186667 -1.019489,-0.186667 z"
         id="path3412" /><path
         d="m 57.164724,80.482662 v -1.00513 q -0.933335,1.076925 -2.311799,1.163079 -0.14359,0.01436 -0.301539,0.01436 -1.794875,0 -2.914877,-1.206156 -0.933335,-1.019489 -0.933335,-2.44103 0,-1.694362 1.249233,-2.771287 1.048207,-0.904617 2.541543,-0.904617 1.680003,0 2.656415,1.177438 V 73.48983 h 1.14872 v 6.992833 z m -2.656415,-6.116934 q -1.263592,0 -2.067696,0.947694 -0.588719,0.703591 -0.588719,1.622567 0,1.306669 1.00513,2.096414 0.732309,0.57436 1.708721,0.57436 1.249233,0 2.024619,-0.976412 0.57436,-0.71795 0.57436,-1.680003 0,-1.277951 -0.990771,-2.038978 -0.71795,-0.545642 -1.665644,-0.545642 z"
         id="path3409" /><path
         d="m 61.702163,74.4806 v 6.002062 h -1.14872 V 74.4806 h -1.507695 v -1.033848 h 1.507695 V 71.03444 h 1.134361 v 2.412312 h 1.57949 V 74.4806 Z"
         id="path3406" /><path
         d="m 64.889865,77.395477 q 0.114872,1.105643 1.105643,1.751798 0.689232,0.459488 1.522054,0.459488 1.206156,0 1.981542,-0.904617 0.244103,-0.28718 0.387693,-0.646155 h 1.177439 q -0.488206,1.478977 -1.823594,2.182568 -0.789745,0.416411 -1.694362,0.416411 -1.694362,0 -2.814364,-1.191797 -0.990771,-1.048207 -0.990771,-2.512825 0,-1.608208 1.191797,-2.670774 1.062566,-0.947694 2.541543,-0.947694 1.593849,0 2.699492,1.091284 0.330257,0.330257 0.560002,0.71795 0.473847,0.86154 0.488206,2.254363 z m 2.570261,-3.029749 q -1.306669,0 -2.067696,1.00513 -0.330257,0.43077 -0.459488,0.990771 h 5.111804 q -0.358975,-1.349746 -1.565131,-1.809234 -0.473847,-0.186667 -1.019489,-0.186667 z"
         id="path3403" /><path
         d="m 82.479673,80.482662 v -1.00513 q -0.933335,1.076925 -2.311799,1.163079 -0.14359,0.01436 -0.301539,0.01436 -1.794875,0 -2.914877,-1.206156 -0.933335,-1.019489 -0.933335,-2.44103 0,-1.694362 1.249233,-2.771287 1.048207,-0.904617 2.541543,-0.904617 1.680003,0 2.656415,1.177438 V 73.48983 h 1.14872 v 6.992833 z m -2.656415,-6.116934 q -1.263592,0 -2.067696,0.947694 -0.588719,0.703591 -0.588719,1.622567 0,1.306669 1.00513,2.096414 0.732309,0.57436 1.708721,0.57436 1.249233,0 2.024619,-0.976412 0.57436,-0.71795 0.57436,-1.680003 0,-1.277951 -0.990771,-2.038978 -0.71795,-0.545642 -1.665644,-0.545642 z"
         id="path3400" /><path
         d="m 94.239697,80.482662 v -3.661545 q 0,-1.220515 -0.445129,-1.751798 -0.545642,-0.703591 -1.622567,-0.703591 -1.14872,0 -1.694362,0.789745 -0.344616,0.473847 -0.344616,1.493336 v 3.833853 h -1.14872 v -6.992833 h 1.134361 v 0.732309 q 0.875899,-0.890258 2.168209,-0.890258 1.593849,0 2.44103,1.091284 0.588719,0.746668 0.631796,1.981542 l 0.01436,0.416411 v 3.661545 z"
         id="path3397" /><path
         d="m 97.642787,77.395477 q 0.114872,1.105643 1.105643,1.751798 0.689232,0.459488 1.52205,0.459488 1.20616,0 1.98155,-0.904617 0.2441,-0.28718 0.38769,-0.646155 h 1.17744 q -0.48821,1.478977 -1.8236,2.182568 -0.78974,0.416411 -1.69436,0.416411 -1.69436,0 -2.814362,-1.191797 -0.990771,-1.048207 -0.990771,-2.512825 0,-1.608208 1.191797,-2.670774 1.062566,-0.947694 2.541546,-0.947694 1.59385,0 2.69949,1.091284 0.33026,0.330257 0.56,0.71795 0.47385,0.86154 0.48821,2.254363 z m 2.570263,-3.029749 q -1.306671,0 -2.067698,1.00513 -0.330257,0.43077 -0.459488,0.990771 h 5.111806 q -0.35898,-1.349746 -1.56513,-1.809234 -0.47385,-0.186667 -1.01949,-0.186667 z"
         id="path3394" /><path
         d="m 112.24591,80.482662 h -1.13436 l -1.46462,-4.3077 -1.4359,4.3077 h -1.14872 l -2.75693,-6.992833 h 1.16308 l 2.15385,5.513856 1.57949,-4.681034 h 0.90462 l 1.60821,4.681034 2.19693,-5.513856 h 1.12 z"
         id="path3391" /><path
         d="m 126.03057,79.750353 q -1.29231,0.732309 -3.4318,0.732309 h -2.74257 v -9.821556 h 2.41232 q 2.28308,0 3.51795,0.617437 0.14359,0.07179 0.28718,0.157949 2.05334,1.191797 2.25437,3.661545 0.0287,0.244103 0.0287,0.516924 0,2.627697 -2.09641,3.991802 -0.11487,0.07179 -0.22975,0.14359 z m -0.61743,-7.409244 q -1.00513,-0.617437 -3.10155,-0.617437 h -1.27795 v 7.696424 h 1.27795 q 2.32616,0 3.38873,-0.775386 l 0.0718,-0.05744 q 1.30667,-1.048207 1.39283,-2.800005 0,-0.114872 0,-0.215385 0,-1.837952 -1.27796,-2.900518 -0.22974,-0.186667 -0.47384,-0.330257 z"
         id="path3388" /><path
         d="m 135.72289,80.482662 v -1.00513 q -0.93333,1.076925 -2.3118,1.163079 -0.14359,0.01436 -0.30154,0.01436 -1.79487,0 -2.91487,-1.206156 -0.93334,-1.019489 -0.93334,-2.44103 0,-1.694362 1.24923,-2.771287 1.04821,-0.904617 2.54155,-0.904617 1.68,0 2.65641,1.177438 V 73.48983 h 1.14872 v 6.992833 z m -2.65641,-6.116934 q -1.2636,0 -2.0677,0.947694 -0.58872,0.703591 -0.58872,1.622567 0,1.306669 1.00513,2.096414 0.73231,0.57436 1.70872,0.57436 1.24923,0 2.02462,-0.976412 0.57436,-0.71795 0.57436,-1.680003 0,-1.277951 -0.99077,-2.038978 -0.71795,-0.545642 -1.66564,-0.545642 z"
         id="path3385" /><path
         d="m 140.26033,74.4806 v 6.002062 h -1.14872 V 74.4806 h -1.5077 v -1.033848 h 1.5077 V 71.03444 h 1.13436 v 2.412312 h 1.57949 V 74.4806 Z"
         id="path3382" /><path
         d="m 148.76086,80.482662 v -1.00513 q -0.93333,1.076925 -2.3118,1.163079 -0.14359,0.01436 -0.30154,0.01436 -1.79487,0 -2.91487,-1.206156 -0.93334,-1.019489 -0.93334,-2.44103 0,-1.694362 1.24923,-2.771287 1.04821,-0.904617 2.54155,-0.904617 1.68,0 2.65641,1.177438 V 73.48983 h 1.14872 v 6.992833 z m -2.65641,-6.116934 q -1.2636,0 -2.0677,0.947694 -0.58872,0.703591 -0.58872,1.622567 0,1.306669 1.00513,2.096414 0.73231,0.57436 1.70872,0.57436 1.24924,0 2.02462,-0.976412 0.57436,-0.71795 0.57436,-1.680003 0,-1.277951 -0.99077,-2.038978 -0.71795,-0.545642 -1.66564,-0.545642 z"
         id="path3379" /><path
         d="m 154.01625,71.723672 v 8.75899 h -1.1918 v -8.75899 h -2.25436 v -1.062566 h 5.68616 v 1.062566 z"
         id="path3376" /><path
         d="m 157.82141,77.395477 q 0.11487,1.105643 1.10564,1.751798 0.68923,0.459488 1.52205,0.459488 1.20616,0 1.98155,-0.904617 0.2441,-0.28718 0.38769,-0.646155 h 1.17744 q -0.48821,1.478977 -1.8236,2.182568 -0.78974,0.416411 -1.69436,0.416411 -1.69436,0 -2.81436,-1.191797 -0.99077,-1.048207 -0.99077,-2.512825 0,-1.608208 1.19179,-2.670774 1.06257,-0.947694 2.54155,-0.947694 1.59385,0 2.69949,1.091284 0.33026,0.330257 0.56,0.71795 0.47385,0.86154 0.48821,2.254363 z m 2.57026,-3.029749 q -1.30667,0 -2.0677,1.00513 -0.33026,0.43077 -0.45949,0.990771 h 5.11181 q -0.35898,-1.349746 -1.56513,-1.809234 -0.47385,-0.186667 -1.01949,-0.186667 z"
         id="path3373" /><path
         d="m 171.31888,80.482662 -2.72821,-4.034879 -2.72821,4.034879 h -1.40718 l 3.40308,-5.02565 -3.21642,-4.795906 h 1.40719 l 2.54154,3.776417 2.54154,-3.776417 h 1.37847 l -3.21642,4.795906 3.41744,5.02565 z"
         id="path3370" /><path
         d="m 183.50968,80.482662 v -1.048207 q -0.91898,1.14872 -2.35488,1.220515 h -0.20102 q -1.78052,0 -2.92924,-1.206156 -0.99077,-1.033848 -0.99077,-2.484107 0,-1.680003 1.24923,-2.756928 1.06257,-0.918976 2.57026,-0.918976 1.59385,0 2.65642,1.091284 V 71.03444 h 1.14872 v 9.448222 z m -2.67077,-6.160011 q -1.27796,0 -2.0677,0.962053 -0.58872,0.71795 -0.58872,1.651285 0,1.306669 1.00513,2.096414 0.74667,0.57436 1.73744,0.57436 1.22051,0 2.01026,-0.962053 0.61744,-0.746668 0.61744,-1.708721 0,-1.206156 -0.96206,-1.995901 -0.76102,-0.617437 -1.75179,-0.617437 z"
         id="path3367" /><path
         d="m 192.23997,80.482662 v -1.00513 q -0.93334,1.076925 -2.3118,1.163079 -0.14359,0.01436 -0.30154,0.01436 -1.79488,0 -2.91488,-1.206156 -0.93334,-1.019489 -0.93334,-2.44103 0,-1.694362 1.24924,-2.771287 1.04821,-0.904617 2.54154,-0.904617 1.68,0 2.65642,1.177438 V 73.48983 h 1.14872 v 6.992833 z m -2.65642,-6.116934 q -1.26359,0 -2.0677,0.947694 -0.58872,0.703591 -0.58872,1.622567 0,1.306669 1.00514,2.096414 0.7323,0.57436 1.70872,0.57436 1.24923,0 2.02462,-0.976412 0.57436,-0.71795 0.57436,-1.680003 0,-1.277951 -0.99078,-2.038978 -0.71795,-0.545642 -1.66564,-0.545642 z"
         id="path3364" /><path
         d="m 196.77739,74.4806 v 6.002062 h -1.14872 V 74.4806 h -1.50769 v -1.033848 h 1.50769 V 71.03444 h 1.13436 v 2.412312 h 1.57949 V 74.4806 Z"
         id="path3361" /><path
         d="m 205.27793,80.482662 v -1.00513 q -0.93334,1.076925 -2.3118,1.163079 -0.14359,0.01436 -0.30154,0.01436 -1.79487,0 -2.91488,-1.206156 -0.93333,-1.019489 -0.93333,-2.44103 0,-1.694362 1.24923,-2.771287 1.04821,-0.904617 2.54154,-0.904617 1.68001,0 2.65642,1.177438 V 73.48983 h 1.14872 v 6.992833 z m -2.65642,-6.116934 q -1.26359,0 -2.06769,0.947694 -0.58872,0.703591 -0.58872,1.622567 0,1.306669 1.00513,2.096414 0.73231,0.57436 1.70872,0.57436 1.24923,0 2.02462,-0.976412 0.57436,-0.71795 0.57436,-1.680003 0,-1.277951 -0.99077,-2.038978 -0.71795,-0.545642 -1.66565,-0.545642 z"
         id="path3358" /><path
         d="m 211.58153,80.65497 q -1.66565,0 -2.6277,-1.163079 v 0.990771 h -1.14872 V 71.03444 h 1.13436 v 3.403083 q 0.97641,-1.14872 2.65642,-1.14872 1.70872,0 2.82872,1.191797 0.96205,1.033848 0.96205,2.469748 0,1.708721 -1.23487,2.785646 -1.06257,0.918976 -2.57026,0.918976 z m 0,-6.332319 q -1.32103,0 -2.12513,0.976412 -0.57436,0.703591 -0.57436,1.636926 0,1.076925 0.77538,1.881029 0.77539,0.789745 1.90975,0.789745 1.34975,0 2.12513,-1.00513 0.54564,-0.71795 0.54564,-1.665644 0,-1.306669 -1.00513,-2.067696 -0.70359,-0.545642 -1.65128,-0.545642 z"
         id="path3355" /><path
         d="m 222.69539,80.482662 v -1.00513 q -0.93333,1.076925 -2.31179,1.163079 -0.14359,0.01436 -0.30154,0.01436 -1.79488,0 -2.91488,-1.206156 -0.93334,-1.019489 -0.93334,-2.44103 0,-1.694362 1.24924,-2.771287 1.0482,-0.904617 2.54154,-0.904617 1.68,0 2.65642,1.177438 V 73.48983 h 1.14872 v 6.992833 z m -2.65641,-6.116934 q -1.26359,0 -2.0677,0.947694 -0.58872,0.703591 -0.58872,1.622567 0,1.306669 1.00513,2.096414 0.73231,0.57436 1.70873,0.57436 1.24923,0 2.02461,-0.976412 0.57436,-0.71795 0.57436,-1.680003 0,-1.277951 -0.99077,-2.038978 -0.71795,-0.545642 -1.66564,-0.545642 z"
         id="path3352" /><path
         d="m 227.00309,80.65497 q -1.4359,0 -2.05333,-1.105643 -0.28718,-0.531283 -0.30154,-1.249233 h 1.12 q 0.0861,1.234874 1.23487,1.306669 0.70359,0 0.97641,-0.588719 0.10052,-0.229744 0.10052,-0.488206 0,-0.560001 -0.40205,-0.804104 -0.24411,-0.157949 -0.89026,-0.43077 l -0.91898,-0.373334 q -0.2441,-0.14359 -0.40205,-0.301539 -0.56,-0.502565 -0.56,-1.29231 0,-1.076925 0.8759,-1.651285 0.51692,-0.344616 1.20615,-0.344616 1.22052,0 1.78052,0.976412 v 0 q 0.14359,0.244103 0.21538,0.531283 0.0574,0.244103 0.0718,0.516924 h -1.14872 q -0.0862,-0.990771 -0.93334,-0.990771 -0.58871,0 -0.83282,0.502565 -0.0862,0.172308 -0.0862,0.387693 0,0.545642 0.58872,0.804104 l 1.52205,0.646155 q 0.9477,0.502565 1.04821,1.464618 0.0144,0.129231 0.0144,0.272821 0,1.191797 -0.91898,1.823593 -0.56,0.387693 -1.30667,0.387693 z"
         id="path3349" /><path
         d="m 231.05233,77.395477 q 0.11488,1.105643 1.10565,1.751798 0.68923,0.459488 1.52205,0.459488 1.20616,0 1.98154,-0.904617 0.24411,-0.28718 0.3877,-0.646155 h 1.17743 q -0.4882,1.478977 -1.82359,2.182568 -0.78974,0.416411 -1.69436,0.416411 -1.69436,0 -2.81437,-1.191797 -0.99077,-1.048207 -0.99077,-2.512825 0,-1.608208 1.1918,-2.670774 1.06257,-0.947694 2.54154,-0.947694 1.59385,0 2.6995,1.091284 0.33025,0.330257 0.56,0.71795 0.47384,0.86154 0.4882,2.254363 z m 2.57026,-3.029749 q -1.30666,0 -2.06769,1.00513 -0.33026,0.43077 -0.45949,0.990771 h 5.1118 q -0.35897,-1.349746 -1.56513,-1.809234 -0.47384,-0.186667 -1.01949,-0.186667 z"
         id="path3346" /><path
         d="m 74.962165,89.452602 v 6.002062 h -1.13436 v -6.002062 h -1.10565 v -1.033848 h 1.09129 q 0.0287,-2.412312 2.88616,-2.412312 v 1.019489 q -1.2636,0.01436 -1.57949,0.588719 v 0 q 0,0 0,0 -0.15795,0.28718 -0.15795,0.804104 h 1.73744 v 1.033848 z"
         id="path3343" /><path
         d="m 80.906775,95.626972 q -1.83795,0 -2.94359,-1.249233 -0.90462,-1.019489 -0.90462,-2.469748 0,-1.636926 1.22052,-2.685133 1.06256,-0.918976 2.5559,-0.918976 1.78051,0 2.85744,1.234874 0.8759,1.00513 0.8759,2.44103 0,1.72308 -1.23488,2.785646 -1.00513,0.86154 -2.42667,0.86154 z m -0.0718,-6.289242 q -1.33539,0 -2.09642,0.990771 -0.53128,0.689232 -0.53128,1.608208 0,1.407182 1.04821,2.15385 0.68923,0.488206 1.62256,0.488206 1.33539,0 2.05334,-1.00513 0.48821,-0.674873 0.48821,-1.57949 0,-1.364105 -1.00513,-2.139491 -0.68923,-0.516924 -1.57949,-0.516924 z"
         id="path3340" /><path
         d="m 86.837055,91.391067 v 4.063597 h -1.14872 v -6.992833 h 1.13436 v 0.71795 q 0.60308,-0.832822 1.9959,-0.875899 v 1.076925 q -1.86667,0.172308 -1.96718,1.780516 l -0.0144,0.01436 z"
         id="path3337" /><path
         d="m 95.552985,97.910053 h -1.20616 l 1.17744,-2.72821 -2.75693,-6.720012 h 1.24923 l 2.13949,5.31283 2.29744,-5.31283 h 1.22052 z"
         id="path3334" /><path
         d="m 103.92426,95.626972 q -1.83795,0 -2.9436,-1.249233 -0.90461,-1.019489 -0.90461,-2.469748 0,-1.636926 1.22051,-2.685133 1.06257,-0.918976 2.5559,-0.918976 1.78052,0 2.85744,1.234874 0.8759,1.00513 0.8759,2.44103 0,1.72308 -1.23487,2.785646 -1.00513,0.86154 -2.42667,0.86154 z m -0.0718,-6.289242 q -1.33538,0 -2.09641,0.990771 -0.53128,0.689232 -0.53128,1.608208 0,1.407182 1.0482,2.15385 0.68924,0.488206 1.62257,0.488206 1.33539,0 2.05334,-1.00513 0.4882,-0.674873 0.4882,-1.57949 0,-1.364105 -1.00513,-2.139491 -0.68923,-0.516924 -1.57949,-0.516924 z"
         id="path3331" /><path
         d="m 113.93249,95.454664 v -0.818463 q -0.71795,0.990771 -2.15385,0.990771 -1.66564,0 -2.49846,-1.134361 -0.57436,-0.761027 -0.57436,-2.254363 v -3.776417 h 1.13436 v 3.776417 q 0,0.976412 0.3159,1.536413 0.50256,0.804104 1.69436,0.804104 1.10564,0 1.66564,-0.804104 0.40205,-0.545642 0.40205,-1.72308 v -3.58975 h 1.14872 v 6.992833 z"
         id="path3328" /><path
         d="m 117.62276,91.391067 v 4.063597 h -1.14872 v -6.992833 h 1.13436 v 0.71795 q 0.60307,-0.832822 1.9959,-0.875899 v 1.076925 q -1.86667,0.172308 -1.96719,1.780516 l -0.0143,0.01436 z"
         id="path3325" /><path
         d="m 130.48843,95.454664 v -1.048207 q -0.91897,1.14872 -2.35487,1.220515 h -0.20103 q -1.78051,0 -2.92923,-1.206156 -0.99078,-1.033848 -0.99078,-2.484107 0,-1.680003 1.24924,-2.756928 1.06256,-0.918976 2.57026,-0.918976 1.59385,0 2.65641,1.091284 v -3.345647 h 1.14872 v 9.448222 z m -2.67077,-6.160011 q -1.27795,0 -2.0677,0.962053 -0.58872,0.71795 -0.58872,1.651285 0,1.306669 1.00513,2.096414 0.74667,0.57436 1.73744,0.57436 1.22052,0 2.01026,-0.962053 0.61744,-0.746668 0.61744,-1.708721 0,-1.206156 -0.96205,-1.995901 -0.76103,-0.617437 -1.7518,-0.617437 z"
         id="path3322" /><path
         d="m 136.60537,95.626972 q -1.83796,0 -2.9436,-1.249233 -0.90462,-1.019489 -0.90462,-2.469748 0,-1.636926 1.22052,-2.685133 1.06256,-0.918976 2.5559,-0.918976 1.78052,0 2.85744,1.234874 0.8759,1.00513 0.8759,2.44103 0,1.72308 -1.23487,2.785646 -1.00513,0.86154 -2.42667,0.86154 z m -0.0718,-6.289242 q -1.33539,0 -2.09641,0.990771 -0.53129,0.689232 -0.53129,1.608208 0,1.407182 1.04821,2.15385 0.68923,0.488206 1.62257,0.488206 1.33538,0 2.05333,-1.00513 0.48821,-0.674873 0.48821,-1.57949 0,-1.364105 -1.00513,-2.139491 -0.68923,-0.516924 -1.57949,-0.516924 z"
         id="path3319" /><path
         d="m 147.41772,94.822868 q -1.04821,0.804104 -2.3836,0.804104 -1.76615,0 -2.91487,-1.191797 -1.00513,-1.048207 -1.00513,-2.498466 0,-1.593849 1.22051,-2.656415 1.10565,-0.976412 2.6277,-0.976412 1.83795,0 2.97231,1.335387 0.40205,0.473847 0.64616,1.076925 h -1.24924 q -0.81846,-1.378464 -2.38359,-1.378464 -1.30667,0 -2.11077,0.976412 -0.57436,0.71795 -0.57436,1.651285 0,1.234874 0.99077,2.024619 0.74667,0.588719 1.73744,0.588719 1.10564,0 1.90974,-0.804104 0.15795,-0.157949 0.3159,-0.358975 l 0.11487,-0.14359 h 1.27796 q -0.56001,1.033848 -1.09129,1.464618 z"
         id="path3316" /><path
         d="m 154.87005,95.454664 v -0.818463 q -0.71795,0.990771 -2.15385,0.990771 -1.66564,0 -2.49846,-1.134361 -0.57436,-0.761027 -0.57436,-2.254363 v -3.776417 h 1.13436 v 3.776417 q 0,0.976412 0.3159,1.536413 0.50256,0.804104 1.69436,0.804104 1.10564,0 1.66564,-0.804104 0.40205,-0.545642 0.40205,-1.72308 v -3.58975 h 1.14872 v 6.992833 z"
         id="path3313" /><path
         d="m 166.85979,95.454664 v -4.034879 q 0,-0.990771 -0.37334,-1.478977 -0.45948,-0.617437 -1.39282,-0.617437 -1.00513,0 -1.50769,0.732309 -0.3159,0.502565 -0.3159,1.364105 v 4.034879 h -1.13436 v -4.063597 q 0,-1.00513 -0.41641,-1.464618 -0.50257,-0.588719 -1.37847,-0.588719 -1.33538,0 -1.68,1.234874 -0.10051,0.358975 -0.10051,0.818463 v 4.063597 h -1.14872 v -6.992833 h 1.13436 v 0.617437 q 0.68923,-0.746668 1.88103,-0.775386 1.45026,0 2.22564,1.14872 l 0.0574,0.0718 q 0.86154,-1.234874 2.42667,-1.234874 1.46462,0 2.26872,1.00513 0.58872,0.761027 0.58872,2.024619 v 4.135392 z"
         id="path3310" /><path
         d="m 170.2629,92.367479 q 0.11487,1.105643 1.10564,1.751798 0.68923,0.459488 1.52206,0.459488 1.20615,0 1.98154,-0.904617 0.2441,-0.28718 0.38769,-0.646155 h 1.17744 q -0.48821,1.478977 -1.82359,2.182568 -0.78975,0.416411 -1.69437,0.416411 -1.69436,0 -2.81436,-1.191797 -0.99077,-1.048207 -0.99077,-2.512825 0,-1.608208 1.1918,-2.670774 1.06256,-0.947694 2.54154,-0.947694 1.59385,0 2.69949,1.091284 0.33026,0.330257 0.56,0.71795 0.47385,0.86154 0.48821,2.254363 z m 2.57026,-3.029749 q -1.30667,0 -2.0677,1.00513 -0.33025,0.43077 -0.45948,0.990771 h 5.1118 q -0.35898,-1.349746 -1.56513,-1.809234 -0.47385,-0.186667 -1.01949,-0.186667 z"
         id="path3307" /><path
         d="m 182.94189,95.454664 v -3.661545 q 0,-1.220515 -0.44513,-1.751798 -0.54564,-0.703591 -1.62256,-0.703591 -1.14872,0 -1.69437,0.789745 -0.34461,0.473847 -0.34461,1.493336 v 3.833853 h -1.14872 v -6.992833 h 1.13436 v 0.732309 q 0.8759,-0.890258 2.16821,-0.890258 1.59385,0 2.44103,1.091284 0.58872,0.746668 0.6318,1.981542 l 0.0143,0.416411 v 3.661545 z"
         id="path3304" /><path
         d="m 187.47935,89.452602 v 6.002062 h -1.14872 v -6.002062 h -1.50769 v -1.033848 h 1.50769 v -2.412312 h 1.13436 v 2.412312 h 1.57949 v 1.033848 z"
         id="path3301" /><path
         d="m 191.57166,95.626972 q -1.4359,0 -2.05334,-1.105643 -0.28718,-0.531283 -0.30154,-1.249233 h 1.12001 q 0.0862,1.234874 1.23487,1.306669 0.70359,0 0.97641,-0.588719 0.10051,-0.229744 0.10051,-0.488206 0,-0.560001 -0.40205,-0.804104 -0.2441,-0.157949 -0.89026,-0.43077 l -0.91897,-0.373334 q -0.2441,-0.14359 -0.40205,-0.301539 -0.56,-0.502565 -0.56,-1.29231 0,-1.076925 0.87589,-1.651285 0.51693,-0.344616 1.20616,-0.344616 1.22052,0 1.78052,0.976412 v 0 q 0.14359,0.244103 0.21538,0.531283 0.0574,0.244103 0.0718,0.516924 h -1.14872 q -0.0862,-0.990771 -0.93334,-0.990771 -0.58872,0 -0.83282,0.502565 -0.0862,0.172308 -0.0862,0.387693 0,0.545642 0.58871,0.804104 l 1.52206,0.646155 q 0.94769,0.502565 1.04821,1.464618 0.0143,0.129231 0.0143,0.272821 0,1.191797 -0.91897,1.823593 -0.56,0.387693 -1.30667,0.387693 z"
         id="path3298" /><path
         d="m 195.24757,95.454664 -0.0144,-1.608208 h 1.14872 v 1.608208 z"
         id="path3295" /></g><g
       aria-label="Documents"
       transform="matrix(0.33271755,0,0,0.33271755,43.494126,-9.144245)"
       id="text367"
       style="font-size:40px;line-height:1.25;white-space:pre;shape-inside:url(#rect369);display:inline;fill:#f2f2f2"><path
         d="m -82.521064,82.311714 q -2.338461,1.138462 -6.892307,1.169231 h -5.107693 V 62.434791 h 5.015385 q 4.984615,0 7.569231,1.507692 3.6,2.123077 4.461538,6.584616 0.246154,1.2 0.246154,2.492307 0,4.769231 -2.984615,7.692308 -0.06154,0.03077 -0.09231,0.06154 -0.984615,0.923076 -2.215385,1.538461 z M -84.67491,67.357868 q -1.630769,-0.830769 -4.953846,-0.830769 h -0.584615 v 12.892307 h 0.646153 q 3.353847,0 5.015385,-0.923077 2.092308,-1.107692 2.738462,-3.723076 0.215384,-0.861539 0.215384,-1.753847 0,-3.323077 -2.123077,-5.046153 -0.430769,-0.369231 -0.953846,-0.615385 z"
         style="font-weight:bold;font-family:KerkisSans;-inkscape-font-specification:'KerkisSans Bold'"
         id="path3445" /><path
         d="m -67.197995,83.850176 q -3.630769,0 -6.153846,-2.553847 -2.369231,-2.36923 -2.369231,-5.630769 0,-3.446154 2.615385,-5.876923 2.461538,-2.307692 5.876923,-2.307692 3.846154,0 6.338462,2.646154 2.246153,2.36923 2.246153,5.661538 0,3.353846 -2.615384,5.753846 -2.492308,2.307693 -5.938462,2.307693 z m 0,-12.584616 q -2.123077,0 -3.415384,1.723077 -0.892308,1.169231 -0.892308,2.615385 0,2.338461 1.815385,3.630769 1.107692,0.830769 2.523076,0.830769 2.153847,0 3.446154,-1.753846 0.861539,-1.169231 0.861539,-2.646154 0,-2.215384 -1.753846,-3.538461 -1.138462,-0.861539 -2.584616,-0.861539 z"
         style="font-weight:bold;font-family:KerkisSans;-inkscape-font-specification:'KerkisSans Bold'"
         id="path3442" /><path
         d="m -49.105679,83.850176 q -3.723077,0 -6.246154,-2.553847 -2.338462,-2.36923 -2.338462,-5.630769 0,-3.6 2.676923,-6.030769 2.4,-2.153846 5.784616,-2.153846 3.446154,0 5.907692,2.215384 1.292308,1.169231 1.938462,2.8 0.153846,0.369231 0.307692,0.861539 h -4.646154 q -1.107692,-2.092308 -3.507692,-2.092308 -2.369231,0 -3.569231,1.876923 -0.676923,1.076923 -0.676923,2.492308 0,2.461538 1.876923,3.723077 1.076923,0.707692 2.461538,0.707692 2,0 3.2,-1.630769 0.123077,-0.184615 0.246154,-0.369231 h 4.646154 q -1.753846,4.584616 -6,5.569231 -0.984615,0.215385 -2.061538,0.215385 z"
         style="font-weight:bold;font-family:KerkisSans;-inkscape-font-specification:'KerkisSans Bold'"
         id="path3439" /><path
         d="m -28.521056,83.480945 v -1.2 q -1.723077,1.476923 -3.876923,1.569231 -0.184616,0 -0.4,0 -3.292308,0 -4.923077,-2.338462 -1.138462,-1.538461 -1.230769,-4.307692 -0.03077,-0.461539 -0.03077,-0.984616 v -8.36923 h 4.184616 v 7.661538 q 0,2.830769 0.8,3.784615 0.584615,0.707693 1.969231,0.8 1.753846,0 2.676923,-1.323076 0.523077,-0.8 0.523077,-3.538462 v -7.384615 h 4.215384 v 15.630769 z"
         style="font-weight:bold;font-family:KerkisSans;-inkscape-font-specification:'KerkisSans Bold'"
         id="path3436" /><path
         d="m -2.3364525,83.480945 v -8.553846 q 0,-2.03077 -0.6769231,-2.8 -0.7384616,-0.892308 -2.0615385,-0.892308 -1.6923077,0 -2.4307692,1.353846 -0.4923077,0.892308 -0.4923077,3.2 v 7.692308 h -4.184615 v -8.553846 q 0,-2.061539 -0.615385,-2.8 -0.738462,-0.892308 -2.246154,-0.892308 -1.784615,0 -2.430769,1.476923 -0.369231,0.738462 -0.369231,3.076923 v 7.692308 h -4.215384 V 67.850176 h 3.876923 v 1.107692 q 1.476923,-1.476923 3.846153,-1.476923 3.076924,0 4.6153851,2.246154 1.8461538,-2.246154 5.0153846,-2.246154 3.4153846,0 5.13846153,2.092308 l 0.0307692,0.03077 0.3076923,0.4 Q 1.8481628,71.69633 1.8481628,74.49633 v 8.984616 z"
         style="font-weight:bold;font-family:KerkisSans;-inkscape-font-specification:'KerkisSans Bold'"
         id="path3433" /><path
         d="M 20.309703,77.511714 H 8.3404724 q 0.6153846,1.938462 2.7999996,2.430769 0.584616,0.123077 1.23077,0.123077 1.846153,0 3.015384,-1.138461 0.153846,-0.153846 0.338462,-0.369231 h 4.461538 q -0.430769,1.353846 -1.353846,2.461538 -2.461538,2.83077 -6.369231,2.83077 -3.907692,0 -6.4615381,-2.615385 -2.2461539,-2.307692 -2.2461539,-5.507692 0,-3.6 2.6461539,-6.03077 2.4307692,-2.215384 5.8153841,-2.215384 3.876924,0 6.276924,2.738461 2.030769,2.338462 2.030769,5.661539 0,0.646154 -0.215385,1.630769 z M 12.278934,71.26556 q -3.1076924,0 -4.0615385,2.584616 H 16.309703 Q 15.571242,71.26556 12.278934,71.26556 Z"
         style="font-weight:bold;font-family:KerkisSans;-inkscape-font-specification:'KerkisSans Bold'"
         id="path3430" /><path
         d="m 32.617403,83.480945 v -7.630769 q 0,-2.83077 -0.707692,-3.723077 -0.646154,-0.892308 -2.092308,-0.892308 -1.692307,0 -2.584615,1.323077 -0.553846,0.861538 -0.553846,3.538461 v 7.384616 H 22.463557 V 67.850176 h 3.907692 v 1.2 q 1.815385,-1.569231 4.184616,-1.569231 3.446154,0 5.046154,2.276923 1.076923,1.538461 1.2,4.430769 0,0 0,0 0,0.430769 0,0.923077 v 8.369231 z"
         style="font-weight:bold;font-family:KerkisSans;-inkscape-font-specification:'KerkisSans Bold'"
         id="path3427" /><path
         d="M 44.155853,71.511714 V 83.480945 H 39.971238 V 71.511714 h -1.846154 v -3.784615 h 1.846154 v -5.076923 h 4.153846 v 5.076923 h 2.276923 v 3.784615 z"
         style="font-weight:bold;font-family:KerkisSans;-inkscape-font-specification:'KerkisSans Bold'"
         id="path3424" /><path
         d="m 52.83277,83.850176 q -2.769231,0 -4.492307,-1.784616 L 47.971232,81.634791 Q 47.140463,80.496329 46.894309,78.46556 l -0.03077,-0.246154 h 4.184616 q 0.461538,1.6 1.415384,1.784616 l 0.492308,0.06154 q 1.169231,0 1.446154,-0.892307 l 0.06154,-0.369231 q 0,-1.015385 -2.092307,-1.630769 0.09231,0.03077 -0.246154,-0.06154 l -0.03077,-0.03077 -0.153846,-0.03077 q -3.415385,-1.138462 -4.215385,-2.984616 -0.307692,-0.738461 -0.307692,-1.723077 0,-2.4 2.061538,-3.846154 1.476923,-1.015384 3.353846,-1.015384 2.584616,0 4.184616,1.753846 1.046153,1.107692 1.16923,2.984615 v 0.03077 l 0.03077,0.215384 h -4.061539 q -0.307692,-1.2 -1.323077,-1.2 -0.892307,0 -1.169231,0.738462 v 0.03077 l -0.03077,0.03077 q -0.03077,0.123077 -0.03077,0.276923 0,0.584616 1.046154,0.984616 v 0 h 0.03077 q 0,0 0.09231,0.03077 l 2.738461,0.892308 q 0.984616,0.4 1.569231,0.892307 1.538462,1.2 1.538462,3.292308 0,2.615385 -2.123077,4.246154 -1.6,1.169231 -3.661539,1.169231 z"
         style="font-weight:bold;font-family:KerkisSans;-inkscape-font-specification:'KerkisSans Bold'"
         id="path3421" /></g><path
       d="m 7.3131372,15.234056 c -0.06878,-0.220094 -0.0674,-0.64515 -0.02751,-0.64515 0.115544,0 0.10454,0.507591 0.02751,0.64515 z m -0.02338,0.649277 c -0.105915,0.277869 -0.237965,0.595628 -0.390647,0.862492 0.25172,-0.09629 0.536453,-0.236601 0.865202,-0.301254 -0.174691,-0.132055 -0.342505,-0.321886 -0.474555,-0.561238 z m -1.294364,1.71673 c 0,0.01101 0.181569,-0.07428 0.480056,-0.552985 -0.09216,0.08666 -0.400275,0.337018 -0.480056,0.552985 z m 2.226968,-3.687946 h 1.8707078 v 4.511922 c 0,0.182953 -0.1471806,0.330141 -0.3301248,0.330141 H 5.1411949 c -0.182944,0 -0.330125,-0.147188 -0.330125,-0.330141 V 12.04132 c 0,-0.182953 0.147181,-0.330141 0.330125,-0.330141 h 2.7510413 v 1.870797 c 0,0.181577 0.148556,0.330141 0.330125,0.330141 z m -0.110042,2.363258 c -0.275104,-0.167821 -0.458048,-0.39892 -0.587347,-0.740065 0.0619,-0.254483 0.15956,-0.641024 0.08528,-0.883127 -0.06465,-0.404422 -0.583221,-0.36453 -0.657499,-0.09354 -0.06878,0.251732 -0.0055,0.606633 0.111417,1.059202 -0.15956,0.379662 -0.394774,0.888628 -0.561212,1.180252 -0.0014,0 -0.0014,0.0014 -0.0028,0.0014 -0.372765,0.191206 -1.012382,0.612135 -0.749657,0.935398 0.07703,0.09492 0.220083,0.137558 0.295737,0.137558 0.246218,0 0.491059,-0.247605 0.840442,-0.850112 0.354884,-0.116924 0.744157,-0.262736 1.086661,-0.319135 0.2984881,0.162319 0.64787,0.268239 0.880333,0.268239 0.401653,0 0.4291631,-0.440188 0.270978,-0.597004 -0.191197,-0.187079 -0.746908,-0.133431 -1.012383,-0.09904 z M 9.9967825,13.155544 8.6487723,11.80747 c -0.0619,-0.0619 -0.145805,-0.09629 -0.233839,-0.09629 h -0.08253 v 1.76075 H 10.09307 v -0.08391 c 0,-0.08666 -0.03439,-0.170572 -0.09629,-0.232474 z m -1.0192613,3.511872 c 0.0564,-0.03714 -0.03439,-0.163694 -0.588722,-0.123803 0.510318,0.217343 0.588722,0.123803 0.588722,0.123803 z"
       id="path2"
       style="fill:#f2f2f2;stroke-width:0.0137555" /></g></svg>
