<?xml version="1.0" encoding="UTF-8" standalone="no"?>
<svg
   viewBox="0 0 22 22"
   version="1.1"
   id="svg8"
   sodipodi:docname="edit-table-add-column.svg"
   inkscape:version="1.2.2 (b0a8486541, 2022-12-01)"
   xmlns:inkscape="http://www.inkscape.org/namespaces/inkscape"
   xmlns:sodipodi="http://sodipodi.sourceforge.net/DTD/sodipodi-0.dtd"
   xmlns="http://www.w3.org/2000/svg"
   xmlns:svg="http://www.w3.org/2000/svg">
  <sodipodi:namedview
     id="namedview10"
     pagecolor="#505050"
     bordercolor="#ffffff"
     borderopacity="1"
     inkscape:showpageshadow="0"
     inkscape:pageopacity="0"
     inkscape:pagecheckerboard="1"
     inkscape:deskcolor="#505050"
     showgrid="false"
     inkscape:zoom="10.727273"
     inkscape:cx="11"
     inkscape:cy="11.13983"
     inkscape:window-width="1366"
     inkscape:window-height="694"
     inkscape:window-x="0"
     inkscape:window-y="0"
     inkscape:window-maximized="1"
     inkscape:current-layer="svg8" />
  <defs
     id="defs3051">
    <style
       type="text/css"
       id="current-color-scheme">
      .ColorScheme-Text {
        color:#232629;
      }
      </style>
  </defs>
  <path
     style="fill:currentColor;fill-opacity:1;stroke:none"
     d="M 3 3 L 3 4 L 3 18 L 3 19 L 18 19 L 19 19 L 19 3 L 18 3 L 3 3 z M 4 4 L 6 4 L 6 7 L 6 8 L 4.9003906 8 L 4 8 L 4 4 z M 7 4 L 8 4 L 9 4 L 10 4 L 12 4 L 13 4 L 14 4 L 15 4 L 15 7 L 15 8 L 14 8 L 14 9 L 15 9 L 15 13 L 14 13 L 14 14 L 15 14 L 15 18 L 14 18 L 13 18 L 12 18 L 10 18 L 9 18 L 8 18 L 7 18 L 7 14 L 8 14 L 8 13 L 7 13 L 7 9 L 8 9 L 8 8 L 7 8 L 7 7 L 7 4 z M 16 4 L 18 4 L 18 8 L 17 8 L 16 8 L 16 7 L 16 4 z M 4 9 L 6 9 L 6 13 L 4 13 L 4 9 z M 16 9 L 17 9 L 18 9 L 18 13 L 17 13 L 16 13 L 16 9 z M 4 14 L 6 14 L 6 18 L 4 18 L 4 14 z M 16 14 L 17 14 L 18 14 L 18 18 L 16 18 L 16 15 L 16 14 z "
     class="ColorScheme-Text"
     id="path4" />
  <g
     id="g956"
     style="fill:#009898;fill-opacity:1">
    <path
       id="path6-3"
       style="fill:#009898;fill-opacity:1;stroke-width:0.666389"
       d="M 8,5.604238 V 18 h 6 V 4 H 8 Z"
       sodipodi:nodetypes="cccccc" />
  </g>
</svg>
