<?xml version="1.0" encoding="UTF-8" standalone="no"?>
<!-- Created with Inkscape (http://www.inkscape.org/) -->

<svg
   width="255.99998"
   height="128"
   viewBox="0 0 67.733321 33.866667"
   version="1.1"
   id="svg5"
   xml:space="preserve"
   sodipodi:docname="FiguresDB.svg"
   inkscape:version="1.2.2 (b0a8486541, 2022-12-01)"
   xmlns:inkscape="http://www.inkscape.org/namespaces/inkscape"
   xmlns:sodipodi="http://sodipodi.sourceforge.net/DTD/sodipodi-0.dtd"
   xmlns="http://www.w3.org/2000/svg"
   xmlns:svg="http://www.w3.org/2000/svg"><sodipodi:namedview
     id="namedview4459"
     pagecolor="#505050"
     bordercolor="#eeeeee"
     borderopacity="1"
     inkscape:showpageshadow="0"
     inkscape:pageopacity="0"
     inkscape:pagecheckerboard="0"
     inkscape:deskcolor="#505050"
     showgrid="false"
     inkscape:zoom="1.84375"
     inkscape:cx="78.915254"
     inkscape:cy="64"
     inkscape:window-width="1366"
     inkscape:window-height="694"
     inkscape:window-x="0"
     inkscape:window-y="0"
     inkscape:window-maximized="1"
     inkscape:current-layer="text385" /><defs
     id="defs2"><rect
       x="7.9878626"
       y="68.10704"
       width="390.31607"
       height="59.552677"
       id="rect387" /><rect
       x="-96.244637"
       y="47.086346"
       width="219.45601"
       height="95.854347"
       id="rect369" /><rect
       x="7.9878626"
       y="68.10704"
       width="390.31607"
       height="59.552677"
       id="rect387-3" /></defs><g
     aria-label="Create a DataTeX database for your Tikz, PsTricks, Asymptote and Metapost figures."
     transform="matrix(0.2587881,0,0,0.2587881,-18.703374,1.6736957)"
     id="text385"
     style="font-size:18.6667px;line-height:0.75;font-family:KerkisSans;-inkscape-font-specification:KerkisSans;text-align:center;white-space:pre;shape-inside:url(#rect387);display:inline;fill:#f2f2f2"><g
       aria-label="A DataTeX database for Tikz, Pstricks
and many other types of figures
"
       transform="translate(0.11488273,-1.0984594)"
       id="text385-6"
       style="shape-inside:url(#rect387-3);display:inline"><path
         d="m 97.959573,80.482662 -1.421541,-3.245134 h -4.436931 l -1.4359,3.245134 h -1.249233 l 4.293341,-9.821556 h 1.234874 l 4.293341,9.821556 z m -3.632827,-8.371297 -1.780516,4.063597 h 3.517955 z"
         id="path1232" /><path
         d="m 110.29396,79.750353 q -1.29231,0.732309 -3.4318,0.732309 h -2.74257 v -9.821556 h 2.41231 q 2.28308,0 3.51796,0.617437 0.14359,0.07179 0.28718,0.157949 2.05333,1.191797 2.25436,3.661545 0.0287,0.244103 0.0287,0.516924 0,2.627697 -2.09642,3.991802 -0.11487,0.07179 -0.22974,0.14359 z m -0.61744,-7.409244 q -1.00513,-0.617437 -3.10154,-0.617437 h -1.27795 v 7.696424 h 1.27795 q 2.32616,0 3.38872,-0.775386 l 0.0718,-0.05744 q 1.30667,-1.048207 1.39282,-2.800005 0,-0.114872 0,-0.215385 0,-1.837952 -1.27795,-2.900518 -0.22974,-0.186667 -0.47385,-0.330257 z"
         id="path1229" /><path
         d="m 119.98627,80.482662 v -1.00513 q -0.93333,1.076925 -2.31179,1.163079 -0.14359,0.01436 -0.30154,0.01436 -1.79488,0 -2.91488,-1.206156 -0.93334,-1.019489 -0.93334,-2.44103 0,-1.694362 1.24924,-2.771287 1.0482,-0.904617 2.54154,-0.904617 1.68,0 2.65642,1.177438 v -1.019489 h 1.14872 v 6.992833 z m -2.65641,-6.116934 q -1.26359,0 -2.0677,0.947694 -0.58872,0.703591 -0.58872,1.622567 0,1.306669 1.00513,2.096414 0.73231,0.57436 1.70873,0.57436 1.24923,0 2.02461,-0.976412 0.57436,-0.71795 0.57436,-1.680003 0,-1.277951 -0.99077,-2.038978 -0.71795,-0.545642 -1.66564,-0.545642 z"
         id="path1226" /><path
         d="m 124.52371,74.4806 v 6.002062 h -1.14872 V 74.4806 h -1.50769 v -1.033848 h 1.50769 V 71.03444 h 1.13436 v 2.412312 h 1.57949 V 74.4806 Z"
         id="path1223" /><path
         d="m 133.02425,80.482662 v -1.00513 q -0.93334,1.076925 -2.3118,1.163079 -0.14359,0.01436 -0.30154,0.01436 -1.79488,0 -2.91488,-1.206156 -0.93333,-1.019489 -0.93333,-2.44103 0,-1.694362 1.24923,-2.771287 1.04821,-0.904617 2.54154,-0.904617 1.68,0 2.65642,1.177438 v -1.019489 h 1.14872 v 6.992833 z m -2.65642,-6.116934 q -1.26359,0 -2.0677,0.947694 -0.58871,0.703591 -0.58871,1.622567 0,1.306669 1.00513,2.096414 0.7323,0.57436 1.70872,0.57436 1.24923,0 2.02462,-0.976412 0.57436,-0.71795 0.57436,-1.680003 0,-1.277951 -0.99078,-2.038978 -0.71795,-0.545642 -1.66564,-0.545642 z"
         id="path1220" /><path
         d="m 138.27963,71.723672 v 8.75899 h -1.19179 v -8.75899 h -2.25437 v -1.062566 h 5.68617 v 1.062566 z"
         id="path1217" /><path
         d="m 142.08478,77.395477 q 0.11487,1.105643 1.10565,1.751798 0.68923,0.459488 1.52205,0.459488 1.20616,0 1.98154,-0.904617 0.24411,-0.28718 0.3877,-0.646155 h 1.17743 q -0.4882,1.478977 -1.82359,2.182568 -0.78974,0.416411 -1.69436,0.416411 -1.69436,0 -2.81437,-1.191797 -0.99077,-1.048207 -0.99077,-2.512825 0,-1.608208 1.1918,-2.670774 1.06257,-0.947694 2.54154,-0.947694 1.59385,0 2.6995,1.091284 0.33025,0.330257 0.56,0.71795 0.47384,0.86154 0.4882,2.254363 z m 2.57026,-3.029749 q -1.30666,0 -2.06769,1.00513 -0.33026,0.43077 -0.45949,0.990771 h 5.1118 q -0.35897,-1.349746 -1.56513,-1.809234 -0.47384,-0.186667 -1.01949,-0.186667 z"
         id="path1214" /><path
         d="m 155.58226,80.482662 -2.72821,-4.034879 -2.72821,4.034879 h -1.40718 l 3.40308,-5.02565 -3.21642,-4.795906 h 1.40719 l 2.54154,3.776417 2.54154,-3.776417 h 1.37847 l -3.21642,4.795906 3.41744,5.02565 z"
         id="path1211" /><path
         d="m 167.77306,80.482662 v -1.048207 q -0.91897,1.14872 -2.35487,1.220515 h -0.20103 q -1.78051,0 -2.92923,-1.206156 -0.99078,-1.033848 -0.99078,-2.484107 0,-1.680003 1.24924,-2.756928 1.06256,-0.918976 2.57026,-0.918976 1.59385,0 2.65641,1.091284 V 71.03444 h 1.14872 v 9.448222 z m -2.67077,-6.160011 q -1.27795,0 -2.0677,0.962053 -0.58872,0.71795 -0.58872,1.651285 0,1.306669 1.00513,2.096414 0.74667,0.57436 1.73744,0.57436 1.22052,0 2.01026,-0.962053 0.61744,-0.746668 0.61744,-1.708721 0,-1.206156 -0.96205,-1.995901 -0.76103,-0.617437 -1.7518,-0.617437 z"
         id="path1208" /><path
         d="m 176.50334,80.482662 v -1.00513 q -0.93333,1.076925 -2.3118,1.163079 -0.14359,0.01436 -0.30154,0.01436 -1.79487,0 -2.91487,-1.206156 -0.93334,-1.019489 -0.93334,-2.44103 0,-1.694362 1.24923,-2.771287 1.04821,-0.904617 2.54155,-0.904617 1.68,0 2.65641,1.177438 v -1.019489 h 1.14872 v 6.992833 z m -2.65641,-6.116934 q -1.2636,0 -2.0677,0.947694 -0.58872,0.703591 -0.58872,1.622567 0,1.306669 1.00513,2.096414 0.73231,0.57436 1.70872,0.57436 1.24924,0 2.02462,-0.976412 0.57436,-0.71795 0.57436,-1.680003 0,-1.277951 -0.99077,-2.038978 -0.71795,-0.545642 -1.66564,-0.545642 z"
         id="path1205" /><path
         d="m 181.04078,74.4806 v 6.002062 h -1.14872 V 74.4806 h -1.50769 v -1.033848 h 1.50769 V 71.03444 h 1.13437 v 2.412312 h 1.57949 V 74.4806 Z"
         id="path1202" /><path
         d="m 189.54131,80.482662 v -1.00513 q -0.93333,1.076925 -2.3118,1.163079 -0.14359,0.01436 -0.30154,0.01436 -1.79487,0 -2.91487,-1.206156 -0.93334,-1.019489 -0.93334,-2.44103 0,-1.694362 1.24924,-2.771287 1.0482,-0.904617 2.54154,-0.904617 1.68,0 2.65641,1.177438 v -1.019489 h 1.14872 v 6.992833 z m -2.65641,-6.116934 q -1.26359,0 -2.0677,0.947694 -0.58872,0.703591 -0.58872,1.622567 0,1.306669 1.00513,2.096414 0.73231,0.57436 1.70872,0.57436 1.24924,0 2.02462,-0.976412 0.57436,-0.71795 0.57436,-1.680003 0,-1.277951 -0.99077,-2.038978 -0.71795,-0.545642 -1.66564,-0.545642 z"
         id="path1199" /><path
         d="m 195.84491,80.65497 q -1.66564,0 -2.62769,-1.163079 v 0.990771 H 192.0685 V 71.03444 h 1.13436 v 3.403083 q 0.97641,-1.14872 2.65641,-1.14872 1.70872,0 2.82872,1.191797 0.96206,1.033848 0.96206,2.469748 0,1.708721 -1.23488,2.785646 -1.06256,0.918976 -2.57026,0.918976 z m 0,-6.332319 q -1.32103,0 -2.12513,0.976412 -0.57436,0.703591 -0.57436,1.636926 0,1.076925 0.77539,1.881029 0.77538,0.789745 1.90974,0.789745 1.34975,0 2.12514,-1.00513 0.54564,-0.71795 0.54564,-1.665644 0,-1.306669 -1.00513,-2.067696 -0.70359,-0.545642 -1.65129,-0.545642 z"
         id="path1196" /><path
         d="m 206.95878,80.482662 v -1.00513 q -0.93334,1.076925 -2.3118,1.163079 -0.14359,0.01436 -0.30154,0.01436 -1.79488,0 -2.91488,-1.206156 -0.93333,-1.019489 -0.93333,-2.44103 0,-1.694362 1.24923,-2.771287 1.04821,-0.904617 2.54154,-0.904617 1.68001,0 2.65642,1.177438 v -1.019489 h 1.14872 v 6.992833 z m -2.65642,-6.116934 q -1.26359,0 -2.06769,0.947694 -0.58872,0.703591 -0.58872,1.622567 0,1.306669 1.00513,2.096414 0.73231,0.57436 1.70872,0.57436 1.24923,0 2.02462,-0.976412 0.57436,-0.71795 0.57436,-1.680003 0,-1.277951 -0.99077,-2.038978 -0.71795,-0.545642 -1.66565,-0.545642 z"
         id="path1193" /><path
         d="m 211.26648,80.65497 q -1.4359,0 -2.05334,-1.105643 -0.28718,-0.531283 -0.30154,-1.249233 h 1.12 q 0.0862,1.234874 1.23488,1.306669 0.70359,0 0.97641,-0.588719 0.10051,-0.229744 0.10051,-0.488206 0,-0.560001 -0.40205,-0.804104 -0.2441,-0.157949 -0.89026,-0.43077 l -0.91897,-0.373334 q -0.24411,-0.14359 -0.40206,-0.301539 -0.56,-0.502565 -0.56,-1.29231 0,-1.076925 0.8759,-1.651285 0.51693,-0.344616 1.20616,-0.344616 1.22051,0 1.78051,0.976412 v 0 q 0.14359,0.244103 0.21539,0.531283 0.0574,0.244103 0.0718,0.516924 h -1.14872 q -0.0862,-0.990771 -0.93333,-0.990771 -0.58872,0 -0.83282,0.502565 -0.0862,0.172308 -0.0862,0.387693 0,0.545642 0.58872,0.804104 l 1.52206,0.646155 q 0.94769,0.502565 1.0482,1.464618 0.0144,0.129231 0.0144,0.272821 0,1.191797 -0.91897,1.823593 -0.56001,0.387693 -1.30667,0.387693 z"
         id="path1190" /><path
         d="m 215.31572,77.395477 q 0.11487,1.105643 1.10564,1.751798 0.68923,0.459488 1.52205,0.459488 1.20616,0 1.98155,-0.904617 0.2441,-0.28718 0.38769,-0.646155 h 1.17744 q -0.48821,1.478977 -1.8236,2.182568 -0.78974,0.416411 -1.69436,0.416411 -1.69436,0 -2.81436,-1.191797 -0.99077,-1.048207 -0.99077,-2.512825 0,-1.608208 1.19179,-2.670774 1.06257,-0.947694 2.54155,-0.947694 1.59385,0 2.69949,1.091284 0.33026,0.330257 0.56,0.71795 0.47385,0.86154 0.48821,2.254363 z m 2.57026,-3.029749 q -1.30667,0 -2.0677,1.00513 -0.33025,0.43077 -0.45949,0.990771 h 5.11181 q -0.35898,-1.349746 -1.56513,-1.809234 -0.47385,-0.186667 -1.01949,-0.186667 z"
         id="path1187" /><path
         d="m 228.35371,74.4806 v 6.002062 h -1.13436 V 74.4806 h -1.10564 v -1.033848 h 1.09128 q 0.0287,-2.412312 2.88616,-2.412312 v 1.019489 q -1.26359,0.01436 -1.57949,0.588719 v 0 q 0,0 0,0 -0.15795,0.28718 -0.15795,0.804104 h 1.73744 V 74.4806 Z"
         id="path1184" /><path
         d="m 234.29833,80.65497 q -1.83795,0 -2.9436,-1.249233 -0.90461,-1.019489 -0.90461,-2.469748 0,-1.636926 1.22051,-2.685133 1.06257,-0.918976 2.5559,-0.918976 1.78052,0 2.85744,1.234874 0.8759,1.00513 0.8759,2.44103 0,1.72308 -1.23487,2.785646 -1.00513,0.86154 -2.42667,0.86154 z m -0.0718,-6.289242 q -1.33538,0 -2.09641,0.990771 -0.53128,0.689232 -0.53128,1.608208 0,1.407182 1.0482,2.15385 0.68924,0.488206 1.62257,0.488206 1.33539,0 2.05334,-1.00513 0.4882,-0.674873 0.4882,-1.57949 0,-1.364105 -1.00513,-2.139491 -0.68923,-0.516924 -1.57949,-0.516924 z"
         id="path1181" /><path
         d="m 240.22861,76.419065 v 4.063597 h -1.14872 v -6.992833 h 1.13436 v 0.71795 q 0.60308,-0.832822 1.9959,-0.875899 v 1.076925 q -1.86667,0.172308 -1.96718,1.780516 l -0.0144,0.01436 z"
         id="path1178" /><path
         d="m 249.61942,71.723672 v 8.75899 h -1.1918 v -8.75899 h -2.25436 v -1.062566 h 5.68617 v 1.062566 z"
         id="path1175" /><path
         d="m 252.56303,72.800597 -0.0144,-1.766157 h 1.14872 v 1.766157 z m -0.0144,7.682065 v -7.03591 h 1.14872 v 7.03591 z"
         id="path1172" /><path
         d="m 259.52713,80.482662 -2.28308,-2.685133 -0.99077,1.220515 v 1.464618 h -1.14872 V 71.03444 h 1.13436 v 6.375396 l 3.1159,-3.963084 h 1.40719 l -2.78565,3.532314 2.98667,3.503596 z"
         id="path1169" /><path
         d="m 260.84816,80.482662 -0.0144,-0.962053 3.76206,-5.011291 h -3.63283 v -1.019489 h 5.01129 v 0.904617 l -3.73334,5.068727 h 3.96309 v 1.019489 z"
         id="path1166" /><path
         d="m 268.40101,81.344202 h -1.16308 l 1.22052,-2.469748 h 1.16308 z"
         id="path1163" /><path
         d="m 280.31897,75.973936 q -0.8041,0.57436 -2.3118,0.617437 -0.18666,0 -0.38769,0 h -1.78051 v 3.891289 h -1.1918 v -9.821556 h 2.81436 q 1.76616,0 2.67078,0.516924 1.14872,0.689232 1.22051,2.326158 v 0.172308 q 0,1.550772 -1.03385,2.29744 z m -1.00513,-3.963084 q -0.57436,-0.28718 -2.18256,-0.28718 h -1.30667 v 3.805135 h 1.72308 q 1.26359,0 1.83795,-0.315898 0.71795,-0.387693 0.77538,-1.536413 0,-1.249233 -0.84718,-1.665644 z"
         id="path1160" /><path
         d="m 284.08101,80.65497 q -1.4359,0 -2.05333,-1.105643 -0.28718,-0.531283 -0.30154,-1.249233 h 1.12 q 0.0862,1.234874 1.23487,1.306669 0.70359,0 0.97642,-0.588719 0.10051,-0.229744 0.10051,-0.488206 0,-0.560001 -0.40205,-0.804104 -0.24411,-0.157949 -0.89026,-0.43077 l -0.91898,-0.373334 q -0.2441,-0.14359 -0.40205,-0.301539 -0.56,-0.502565 -0.56,-1.29231 0,-1.076925 0.8759,-1.651285 0.51692,-0.344616 1.20615,-0.344616 1.22052,0 1.78052,0.976412 v 0 q 0.14359,0.244103 0.21539,0.531283 0.0574,0.244103 0.0718,0.516924 h -1.14872 q -0.0862,-0.990771 -0.93333,-0.990771 -0.58872,0 -0.83283,0.502565 -0.0861,0.172308 -0.0861,0.387693 0,0.545642 0.58872,0.804104 l 1.52205,0.646155 q 0.9477,0.502565 1.04821,1.464618 0.0144,0.129231 0.0144,0.272821 0,1.191797 -0.91898,1.823593 -0.56,0.387693 -1.30667,0.387693 z"
         id="path1157" /><path
         d="m 289.26462,74.4806 v 6.002062 H 288.1159 V 74.4806 h -1.5077 v -1.033848 h 1.5077 V 71.03444 h 1.13436 v 2.412312 h 1.57949 V 74.4806 Z"
         id="path1154" /><path
         d="m 292.72514,76.419065 v 4.063597 h -1.14872 v -6.992833 h 1.13436 v 0.71795 q 0.60308,-0.832822 1.9959,-0.875899 v 1.076925 q -1.86667,0.172308 -1.96718,1.780516 l -0.0144,0.01436 z"
         id="path1151" /><path
         d="m 295.42464,72.800597 -0.0144,-1.766157 h 1.14872 v 1.766157 z m -0.0144,7.682065 v -7.03591 h 1.14872 v 7.03591 z"
         id="path1148" /><path
         d="m 303.99696,79.850866 q -1.04821,0.804104 -2.3836,0.804104 -1.76615,0 -2.91487,-1.191797 -1.00513,-1.048207 -1.00513,-2.498466 0,-1.593849 1.22051,-2.656415 1.10564,-0.976412 2.6277,-0.976412 1.83795,0 2.97231,1.335387 0.40205,0.473847 0.64616,1.076925 h -1.24924 q -0.81846,-1.378464 -2.38359,-1.378464 -1.30667,0 -2.11077,0.976412 -0.57436,0.71795 -0.57436,1.651285 0,1.234874 0.99077,2.024619 0.74667,0.588719 1.73744,0.588719 1.10564,0 1.90974,-0.804104 0.15795,-0.157949 0.3159,-0.358975 l 0.11487,-0.14359 h 1.27795 q -0.56,1.033848 -1.09128,1.464618 z"
         id="path1145" /><path
         d="m 310.64519,80.482662 -2.28308,-2.685133 -0.99077,1.220515 v 1.464618 h -1.14872 V 71.03444 h 1.13436 v 6.375396 l 3.1159,-3.963084 h 1.40718 l -2.78564,3.532314 2.98667,3.503596 z"
         id="path1142" /><path
         d="m 314.40725,80.65497 q -1.4359,0 -2.05334,-1.105643 -0.28718,-0.531283 -0.30154,-1.249233 h 1.12 q 0.0862,1.234874 1.23488,1.306669 0.70359,0 0.97641,-0.588719 0.10051,-0.229744 0.10051,-0.488206 0,-0.560001 -0.40205,-0.804104 -0.2441,-0.157949 -0.89026,-0.43077 l -0.91897,-0.373334 q -0.24411,-0.14359 -0.40206,-0.301539 -0.56,-0.502565 -0.56,-1.29231 0,-1.076925 0.8759,-1.651285 0.51693,-0.344616 1.20616,-0.344616 1.22051,0 1.78051,0.976412 v 0 q 0.14359,0.244103 0.21539,0.531283 0.0574,0.244103 0.0718,0.516924 h -1.14872 q -0.0862,-0.990771 -0.93333,-0.990771 -0.58872,0 -0.83282,0.502565 -0.0862,0.172308 -0.0862,0.387693 0,0.545642 0.58872,0.804104 l 1.52206,0.646155 q 0.94769,0.502565 1.0482,1.464618 0.0144,0.129231 0.0144,0.272821 0,1.191797 -0.91897,1.823593 -0.56001,0.387693 -1.30667,0.387693 z"
         id="path1139" /><path
         d="m 110.9401,94.482685 v -1.00513 q -0.93333,1.076925 -2.31179,1.163079 -0.14359,0.01436 -0.30154,0.01436 -1.79488,0 -2.91488,-1.206156 -0.93334,-1.019489 -0.93334,-2.44103 0,-1.694362 1.24924,-2.771287 1.0482,-0.904617 2.54154,-0.904617 1.68,0 2.65642,1.177438 v -1.019489 h 1.14872 v 6.992833 z m -2.65641,-6.116934 q -1.26359,0 -2.0677,0.947694 -0.58872,0.703591 -0.58872,1.622567 0,1.306669 1.00513,2.096414 0.73231,0.57436 1.70873,0.57436 1.24923,0 2.02461,-0.976412 0.57436,-0.71795 0.57436,-1.680003 0,-1.277951 -0.99077,-2.038978 -0.71795,-0.545642 -1.66564,-0.545642 z"
         id="path1136" /><path
         d="M 118.72268,94.482685 V 90.82114 q 0,-1.220515 -0.44513,-1.751798 -0.54564,-0.703591 -1.62257,-0.703591 -1.14872,0 -1.69436,0.789745 -0.34462,0.473847 -0.34462,1.493336 v 3.833853 h -1.14872 v -6.992833 h 1.13436 v 0.732309 q 0.8759,-0.890258 2.16821,-0.890258 1.59385,0 2.44103,1.091284 0.58872,0.746668 0.6318,1.981542 l 0.0144,0.416411 v 3.661545 z"
         id="path1133" /><path
         d="m 127.45296,94.482685 v -1.048207 q -0.91898,1.14872 -2.35488,1.220515 h -0.20103 q -1.78051,0 -2.92923,-1.206156 -0.99077,-1.033848 -0.99077,-2.484107 0,-1.680003 1.24923,-2.756928 1.06257,-0.918976 2.57026,-0.918976 1.59385,0 2.65642,1.091284 v -3.345647 h 1.14872 v 9.448222 z m -2.67078,-6.160011 q -1.27795,0 -2.06769,0.962053 -0.58872,0.71795 -0.58872,1.651285 0,1.306669 1.00513,2.096414 0.74667,0.57436 1.73744,0.57436 1.22051,0 2.01026,-0.962053 0.61743,-0.746668 0.61743,-1.708721 0,-1.206156 -0.96205,-1.995901 -0.76103,-0.617437 -1.7518,-0.617437 z"
         id="path1130" /><path
         d="m 143.42019,94.482685 v -4.034879 q 0,-0.990771 -0.37334,-1.478977 -0.45949,-0.617437 -1.39282,-0.617437 -1.00513,0 -1.5077,0.732309 -0.31589,0.502565 -0.31589,1.364105 v 4.034879 h -1.13436 v -4.063597 q 0,-1.00513 -0.41642,-1.464618 -0.50256,-0.588719 -1.37846,-0.588719 -1.33539,0 -1.68,1.234874 -0.10052,0.358975 -0.10052,0.818463 v 4.063597 h -1.14872 v -6.992833 h 1.13437 v 0.617437 q 0.68923,-0.746668 1.88102,-0.775386 1.45026,0 2.22565,1.14872 l 0.0574,0.0718 q 0.86154,-1.234874 2.42667,-1.234874 1.46461,0 2.26872,1.00513 0.58872,0.761027 0.58872,2.024619 v 4.135392 z"
         id="path1127" /><path
         d="m 152.1361,94.482685 v -1.00513 q -0.93333,1.076925 -2.3118,1.163079 -0.14359,0.01436 -0.30153,0.01436 -1.79488,0 -2.91488,-1.206156 -0.93334,-1.019489 -0.93334,-2.44103 0,-1.694362 1.24924,-2.771287 1.0482,-0.904617 2.54154,-0.904617 1.68,0 2.65641,1.177438 v -1.019489 h 1.14872 v 6.992833 z m -2.65641,-6.116934 q -1.26359,0 -2.0677,0.947694 -0.58872,0.703591 -0.58872,1.622567 0,1.306669 1.00513,2.096414 0.73231,0.57436 1.70872,0.57436 1.24924,0 2.02462,-0.976412 0.57436,-0.71795 0.57436,-1.680003 0,-1.277951 -0.99077,-2.038978 -0.71795,-0.545642 -1.66564,-0.545642 z"
         id="path1124" /><path
         d="M 159.91867,94.482685 V 90.82114 q 0,-1.220515 -0.44513,-1.751798 -0.54564,-0.703591 -1.62256,-0.703591 -1.14872,0 -1.69437,0.789745 -0.34461,0.473847 -0.34461,1.493336 v 3.833853 h -1.14872 v -6.992833 h 1.13436 v 0.732309 q 0.8759,-0.890258 2.16821,-0.890258 1.59385,0 2.44103,1.091284 0.58872,0.746668 0.6318,1.981542 l 0.0144,0.416411 v 3.661545 z"
         id="path1121" /><path
         d="m 164.4992,96.938074 h -1.20615 l 1.17744,-2.72821 -2.75693,-6.720012 h 1.24923 l 2.13949,5.31283 2.29744,-5.31283 h 1.22052 z"
         id="path1118" /><path
         d="m 176.84795,94.654993 q -1.83796,0 -2.9436,-1.249233 -0.90462,-1.019489 -0.90462,-2.469748 0,-1.636926 1.22052,-2.685133 1.06256,-0.918976 2.5559,-0.918976 1.78052,0 2.85744,1.234874 0.8759,1.00513 0.8759,2.44103 0,1.72308 -1.23487,2.785646 -1.00513,0.86154 -2.42667,0.86154 z m -0.0718,-6.289242 q -1.33539,0 -2.09641,0.990771 -0.53129,0.689232 -0.53129,1.608208 0,1.407182 1.04821,2.15385 0.68923,0.488206 1.62257,0.488206 1.33538,0 2.05333,-1.00513 0.48821,-0.674873 0.48821,-1.57949 0,-1.364105 -1.00513,-2.139491 -0.68923,-0.516924 -1.57949,-0.516924 z"
         id="path1115" /><path
         d="m 183.63976,88.480623 v 6.002062 h -1.14872 v -6.002062 h -1.50769 v -1.033848 h 1.50769 v -2.412312 h 1.13436 v 2.412312 h 1.57949 v 1.033848 z"
         id="path1112" /><path
         d="m 191.20696,94.482685 v -3.776417 q 0,-1.076925 -0.45949,-1.665644 -0.60308,-0.71795 -1.60821,-0.71795 -1.07692,0 -1.68,0.804104 -0.35898,0.502565 -0.35898,1.507695 v 3.848212 h -1.14872 v -9.448222 h 1.13436 v 3.115903 q 0.78975,-0.875899 2.1395,-0.875899 1.52205,0 2.36923,0.962053 l 0.0144,0.01436 0.0144,0.01436 0.0862,0.114872 q 0.6318,0.789745 0.6318,2.326158 v 3.776417 z"
         id="path1109" /><path
         d="m 194.61005,91.3955 q 0.11487,1.105643 1.10564,1.751798 0.68923,0.459488 1.52205,0.459488 1.20616,0 1.98155,-0.904617 0.2441,-0.28718 0.38769,-0.646155 h 1.17744 q -0.48821,1.478977 -1.8236,2.182568 -0.78974,0.416411 -1.69436,0.416411 -1.69436,0 -2.81436,-1.191797 -0.99077,-1.048207 -0.99077,-2.512825 0,-1.608208 1.19179,-2.670774 1.06257,-0.947694 2.54155,-0.947694 1.59385,0 2.69949,1.091284 0.33026,0.330257 0.56,0.71795 0.47385,0.86154 0.48821,2.254363 z m 2.57026,-3.029749 q -1.30667,0 -2.0677,1.00513 -0.33025,0.43077 -0.45949,0.990771 h 5.11181 q -0.35898,-1.349746 -1.56513,-1.809234 -0.47385,-0.186667 -1.01949,-0.186667 z"
         id="path1106" /><path
         d="m 203.18239,90.419088 v 4.063597 h -1.14872 v -6.992833 h 1.13436 v 0.71795 q 0.60308,-0.832822 1.9959,-0.875899 v 1.076925 q -1.86667,0.172308 -1.96718,1.780516 l -0.0144,0.01436 z"
         id="path1103" /><path
         d="m 211.85525,88.480623 v 6.002062 h -1.14872 v -6.002062 h -1.5077 v -1.033848 h 1.5077 v -2.412312 h 1.13436 v 2.412312 h 1.57949 v 1.033848 z"
         id="path1100" /><path
         d="m 216.22039,96.938074 h -1.20615 l 1.17743,-2.72821 -2.75692,-6.720012 h 1.24923 l 2.13949,5.31283 2.29744,-5.31283 h 1.22052 z"
         id="path1097" /><path
         d="m 224.7927,94.69807 q -1.66564,0 -2.6277,-1.163079 v 3.403083 h -1.14872 v -9.448222 h 1.13436 v 0.990771 q 0.97642,-1.14872 2.65642,-1.14872 1.72308,0 2.82872,1.206156 0.96206,1.033848 0.96206,2.498466 0,1.636926 -1.22052,2.713851 -1.09128,0.947694 -2.58462,0.947694 z m -0.0144,-6.332319 q -1.30667,0 -2.11077,0.976412 -0.57436,0.703591 -0.57436,1.636926 0,1.349746 1.01949,2.125132 0.71795,0.545642 1.68,0.545642 1.32103,0 2.09641,-0.990771 0.56001,-0.689232 0.56001,-1.622567 0,-1.364105 -1.03385,-2.139491 -0.70359,-0.531283 -1.63693,-0.531283 z"
         id="path1094" /><path
         d="m 230.59374,91.3955 q 0.11488,1.105643 1.10565,1.751798 0.68923,0.459488 1.52205,0.459488 1.20616,0 1.98154,-0.904617 0.24411,-0.28718 0.3877,-0.646155 h 1.17743 q -0.4882,1.478977 -1.82359,2.182568 -0.78974,0.416411 -1.69436,0.416411 -1.69436,0 -2.81437,-1.191797 -0.99077,-1.048207 -0.99077,-2.512825 0,-1.608208 1.1918,-2.670774 1.06257,-0.947694 2.54154,-0.947694 1.59385,0 2.6995,1.091284 0.33025,0.330257 0.56,0.71795 0.47384,0.86154 0.4882,2.254363 z m 2.57026,-3.029749 q -1.30666,0 -2.06769,1.00513 -0.33026,0.43077 -0.45949,0.990771 h 5.1118 q -0.35897,-1.349746 -1.56513,-1.809234 -0.47384,-0.186667 -1.01949,-0.186667 z"
         id="path1091" /><path
         d="m 239.79788,94.654993 q -1.4359,0 -2.05333,-1.105643 -0.28718,-0.531283 -0.30154,-1.249233 h 1.12 q 0.0862,1.234874 1.23487,1.306669 0.70359,0 0.97641,-0.588719 0.10052,-0.229744 0.10052,-0.488206 0,-0.560001 -0.40205,-0.804104 -0.24411,-0.157949 -0.89026,-0.43077 l -0.91898,-0.373334 q -0.2441,-0.14359 -0.40205,-0.301539 -0.56,-0.502565 -0.56,-1.29231 0,-1.076925 0.8759,-1.651285 0.51692,-0.344616 1.20615,-0.344616 1.22052,0 1.78052,0.976412 v 0 q 0.14359,0.244103 0.21538,0.531283 0.0574,0.244103 0.0718,0.516924 h -1.14872 q -0.0861,-0.990771 -0.93334,-0.990771 -0.58871,0 -0.83282,0.502565 -0.0862,0.172308 -0.0862,0.387693 0,0.545642 0.58872,0.804104 l 1.52205,0.646155 q 0.9477,0.502565 1.04821,1.464618 0.0144,0.129231 0.0144,0.272821 0,1.191797 -0.91898,1.823593 -0.56,0.387693 -1.30667,0.387693 z"
         id="path1088" /><path
         d="m 250.52406,94.654993 q -1.83795,0 -2.94359,-1.249233 -0.90462,-1.019489 -0.90462,-2.469748 0,-1.636926 1.22052,-2.685133 1.06256,-0.918976 2.5559,-0.918976 1.78051,0 2.85744,1.234874 0.8759,1.00513 0.8759,2.44103 0,1.72308 -1.23488,2.785646 -1.00513,0.86154 -2.42667,0.86154 z m -0.0718,-6.289242 q -1.33539,0 -2.09642,0.990771 -0.53128,0.689232 -0.53128,1.608208 0,1.407182 1.04821,2.15385 0.68923,0.488206 1.62256,0.488206 1.33539,0 2.05334,-1.00513 0.48821,-0.674873 0.48821,-1.57949 0,-1.364105 -1.00513,-2.139491 -0.68923,-0.516924 -1.57949,-0.516924 z"
         id="path1085" /><path
         d="m 256.94255,88.480623 v 6.002062 h -1.13436 v -6.002062 h -1.10565 v -1.033848 h 1.09129 q 0.0287,-2.412312 2.88616,-2.412312 v 1.019489 q -1.2636,0.01436 -1.57949,0.588719 v 0 q 0,0 0,0 -0.15795,0.28718 -0.15795,0.804104 h 1.73744 v 1.033848 z"
         id="path1082" /><path
         d="m 266.96514,86.80062 -0.0144,-1.766157 h 1.14872 v 1.766157 z m -0.0144,7.682065 v -7.03591 h 1.14872 v 7.03591 z m -2.08206,-6.002062 0.0144,6.002062 h -1.13436 v -6.002062 h -1.10564 v -1.033848 h 1.09128 q 0.0287,-2.412312 2.88616,-2.412312 v 1.019489 q -1.26359,0.01436 -1.57949,0.588719 v 0 q 0,0 0,0 -0.15795,0.28718 -0.15795,0.804104 h 1.73744 v 1.033848 z"
         id="path1079" /><path
         d="m 276.02566,95.961662 q -0.8759,1.14872 -2.61334,1.249233 l -0.30154,0.01436 q -2.57026,0 -3.5036,-2.268722 -0.0718,-0.201026 -0.14359,-0.402052 h 1.10565 q 0.40205,0.689232 0.70359,0.976412 0.74667,0.660514 1.80923,0.660514 1.4359,0 2.0677,-0.947694 0.0718,-0.114872 0.12923,-0.244103 0.28718,-0.57436 0.28718,-1.493336 v -0.114872 q -0.84718,1.306669 -2.58462,1.306669 -1.68,0 -2.78565,-1.191797 -0.96205,-1.019489 -0.96205,-2.455389 0,-1.737439 1.22051,-2.814364 1.03385,-0.904617 2.46975,-0.904617 1.65129,0 2.6277,1.191797 v -1.033848 h 1.14872 v 5.729241 q 0,1.72308 -0.53128,2.541543 z m -3.05847,-7.595911 q -1.36411,0 -2.09641,1.019489 -0.48821,0.674873 -0.48821,1.57949 0,1.378464 1.01949,2.15385 0.67487,0.531283 1.57949,0.531283 1.26359,0 2.02462,-0.990771 0.56,-0.732309 0.56,-1.72308 0,-1.263592 -0.97641,-2.024619 -0.68924,-0.545642 -1.62257,-0.545642 z"
         id="path1076" /><path
         d="m 283.32002,94.482685 v -0.818463 q -0.71795,0.990771 -2.15385,0.990771 -1.66565,0 -2.49847,-1.134361 -0.57436,-0.761027 -0.57436,-2.254363 v -3.776417 h 1.13436 v 3.776417 q 0,0.976412 0.3159,1.536413 0.50256,0.804104 1.69436,0.804104 1.10564,0 1.66565,-0.804104 0.40205,-0.545642 0.40205,-1.72308 v -3.58975 h 1.14872 v 6.992833 z"
         id="path1073" /><path
         d="m 287.01025,90.419088 v 4.063597 h -1.14872 v -6.992833 h 1.13436 v 0.71795 q 0.60308,-0.832822 1.9959,-0.875899 v 1.076925 q -1.86667,0.172308 -1.96718,1.780516 l -0.0144,0.01436 z"
         id="path1070" /><path
         d="m 290.57131,91.3955 q 0.11487,1.105643 1.10564,1.751798 0.68923,0.459488 1.52205,0.459488 1.20616,0 1.98154,-0.904617 0.24411,-0.28718 0.3877,-0.646155 h 1.17744 q -0.48821,1.478977 -1.8236,2.182568 -0.78974,0.416411 -1.69436,0.416411 -1.69436,0 -2.81436,-1.191797 -0.99077,-1.048207 -0.99077,-2.512825 0,-1.608208 1.19179,-2.670774 1.06257,-0.947694 2.54155,-0.947694 1.59384,0 2.69949,1.091284 0.33025,0.330257 0.56,0.71795 0.47385,0.86154 0.4882,2.254363 z m 2.57026,-3.029749 q -1.30667,0 -2.0677,1.00513 -0.33026,0.43077 -0.45949,0.990771 h 5.11181 q -0.35898,-1.349746 -1.56513,-1.809234 -0.47385,-0.186667 -1.01949,-0.186667 z"
         id="path1067" /><path
         d="m 299.77544,94.654993 q -1.4359,0 -2.05334,-1.105643 -0.28718,-0.531283 -0.30154,-1.249233 h 1.12 q 0.0862,1.234874 1.23488,1.306669 0.70359,0 0.97641,-0.588719 0.10051,-0.229744 0.10051,-0.488206 0,-0.560001 -0.40205,-0.804104 -0.2441,-0.157949 -0.89026,-0.43077 l -0.91897,-0.373334 q -0.24411,-0.14359 -0.40206,-0.301539 -0.56,-0.502565 -0.56,-1.29231 0,-1.076925 0.8759,-1.651285 0.51693,-0.344616 1.20616,-0.344616 1.22051,0 1.78051,0.976412 v 0 q 0.14359,0.244103 0.21539,0.531283 0.0574,0.244103 0.0718,0.516924 h -1.14872 q -0.0861,-0.990771 -0.93333,-0.990771 -0.58872,0 -0.83282,0.502565 -0.0862,0.172308 -0.0862,0.387693 0,0.545642 0.58872,0.804104 l 1.52206,0.646155 q 0.94769,0.502565 1.0482,1.464618 0.0144,0.129231 0.0144,0.272821 0,1.191797 -0.91897,1.823593 -0.56,0.387693 -1.30667,0.387693 z"
         id="path1064" /></g></g><g
     aria-label="Figures"
     transform="matrix(0.33271755,0,0,0.33271755,56.541743,-11.529408)"
     id="text367"
     style="font-size:40px;line-height:1.25;white-space:pre;shape-inside:url(#rect369);display:inline;fill:#f2f2f2"><path
       d="m -90.182602,66.527099 -0.03077,4.430769 h 6.523077 v 4.061538 h -6.492308 v 8.461539 h -4.338462 V 62.434791 h 11.138462 v 4.092308 z"
       style="font-weight:bold;font-family:KerkisSans;-inkscape-font-specification:'KerkisSans Bold'"
       id="path5124" /><path
       d="m -81.259488,66.496329 -0.03077,-3.846153 h 4.215385 v 3.846153 z m -0.03077,16.984616 V 67.727099 h 4.215385 v 15.753846 z"
       style="font-weight:bold;font-family:KerkisSans;-inkscape-font-specification:'KerkisSans Bold'"
       id="path5121" /><path
       d="m -60.028747,86.834791 q -2.246154,2.892308 -6.676923,2.892308 -4.984615,0 -7.446154,-3.63077 -0.523077,-0.76923 -0.892307,-1.661538 h 4.646153 q 1.323077,1.415385 3.076923,1.569231 l 0.769231,0.03077 q 3.692308,0 4.092308,-4.092308 -1.938462,2.03077 -4.861539,2.03077 -3.815384,0 -6.061538,-2.83077 -1.846154,-2.276923 -1.846154,-5.538461 0,-3.753846 2.553846,-6.092308 2.215385,-2.030769 5.384616,-2.030769 3.2,0 4.861538,1.938461 v -1.56923 h 4.030769 V 80.49633 q 0,4.276924 -1.630769,6.338461 z M -66.859516,71.26556 q -2.523077,0 -3.6,2.092308 -0.553846,1.046154 -0.553846,2.430769 0,2.8 2.061538,3.876923 0.923077,0.492308 2.123077,0.492308 2.646154,0 3.753846,-2.061539 0.523077,-1.015384 0.523077,-2.307692 0,-2.676923 -2,-3.907692 -1.015384,-0.615385 -2.307692,-0.615385 z"
       style="font-weight:bold;font-family:KerkisSans;-inkscape-font-specification:'KerkisSans Bold'"
       id="path5118" /><path
       d="m -45.505691,83.480945 v -1.2 q -1.723077,1.476923 -3.876923,1.569231 -0.184615,0 -0.4,0 -3.292307,0 -4.923077,-2.338462 -1.138461,-1.538461 -1.230769,-4.307692 -0.03077,-0.461539 -0.03077,-0.984616 v -8.36923 h 4.184615 v 7.661538 q 0,2.830769 0.8,3.784615 0.584616,0.707693 1.969231,0.8 1.753846,0 2.676923,-1.323076 0.523077,-0.8 0.523077,-3.538462 v -7.384615 h 4.215385 v 15.630769 z"
       style="font-weight:bold;font-family:KerkisSans;-inkscape-font-specification:'KerkisSans Bold'"
       id="path5115" /><path
       d="m -34.828779,74.834791 v 8.646154 h -4.215385 V 67.850176 h 3.876923 v 1.046153 q 1.076923,-1.323076 2.769231,-1.415384 h 0.4 0.523077 v 3.938461 q -2.892308,0.03077 -3.292308,2.43077 z"
       style="font-weight:bold;font-family:KerkisSans;-inkscape-font-specification:'KerkisSans Bold'"
       id="path5112" /><path
       d="m -14.182637,77.511714 h -11.969231 q 0.615385,1.938462 2.8,2.430769 0.584616,0.123077 1.23077,0.123077 1.846153,0 3.015384,-1.138461 0.153846,-0.153846 0.338462,-0.369231 h 4.461538 q -0.430769,1.353846 -1.353846,2.461538 -2.461538,2.83077 -6.369231,2.83077 -3.907692,0 -6.461538,-2.615385 -2.246154,-2.307692 -2.246154,-5.507692 0,-3.6 2.646154,-6.03077 2.430769,-2.215384 5.815384,-2.215384 3.876923,0 6.276923,2.738461 2.03077,2.338462 2.03077,5.661539 0,0.646154 -0.215385,1.630769 z m -8.030769,-6.246154 q -3.107692,0 -4.061539,2.584616 h 8.092308 q -0.738461,-2.584616 -4.030769,-2.584616 z"
       style="font-weight:bold;font-family:KerkisSans;-inkscape-font-specification:'KerkisSans Bold'"
       id="path5109" /><path
       d="m -7.0441676,83.850176 q -2.7692308,0 -4.4923074,-1.784616 l -0.369231,-0.430769 q -0.830769,-1.138462 -1.076923,-3.169231 l -0.03077,-0.246154 h 4.184615 q 0.4615385,1.6 1.4153846,1.784616 l 0.4923077,0.06154 q 1.1692308,0 1.4461538,-0.892307 l 0.061539,-0.369231 q 0,-1.015385 -2.0923077,-1.630769 0.092308,0.03077 -0.2461538,-0.06154 l -0.030769,-0.03077 -0.1538461,-0.03077 Q -11.35186,75.911714 -12.15186,74.06556 q -0.307692,-0.738461 -0.307692,-1.723077 0,-2.4 2.061538,-3.846154 1.4769233,-1.015384 3.3538464,-1.015384 2.5846154,0 4.1846154,1.753846 1.0461538,1.107692 1.1692307,2.984615 v 0.03077 l 0.030769,0.215384 H -5.721091 q -0.3076923,-1.2 -1.3230769,-1.2 -0.8923077,0 -1.1692308,0.738462 v 0.03077 l -0.030769,0.03077 q -0.030769,0.123077 -0.030769,0.276923 0,0.584616 1.0461539,0.984616 v 0 h 0.030769 q 0,0 0.092308,0.03077 l 2.7384616,0.892308 q 0.9846153,0.4 1.5692307,0.892307 1.5384616,1.2 1.5384616,3.292308 0,2.615385 -2.123077,4.246154 -1.6,1.169231 -3.6615384,1.169231 z"
       style="font-weight:bold;font-family:KerkisSans;-inkscape-font-specification:'KerkisSans Bold'"
       id="path5106" /></g><path
     d="m 20.78123,15.112909 c 0.121052,0 0.220094,0.09904 0.220094,0.220094 v 0.733646 c 0,0.121051 -0.09904,0.220093 -0.220094,0.220093 h -8.950479 c -0.121052,0 -0.220094,-0.09904 -0.220094,-0.220093 V 9.463836 c 0,-0.1210511 0.09904,-0.2200933 0.220094,-0.2200933 h 0.733646 c 0.121051,0 0.220094,0.099042 0.220094,0.2200933 v 5.649073 z m -2.334828,-4.117587 -1.553495,1.036274 -1.564499,-2.085387 c -0.09354,-0.12472 -0.284289,-0.11555 -0.364989,0.01834 l -1.592012,2.653965 v 1.907479 h 7.043001 l -1.64887,-3.444468 c -0.0587,-0.119217 -0.209089,-0.159568 -0.319136,-0.0862 z"
     id="path2"
     style="fill:#f2f2f2;stroke-width:0.0183411" /></svg>
