<?xml version="1.0" encoding="UTF-8" standalone="no"?>
<!-- Created with Inkscape (http://www.inkscape.org/) -->

<svg
   width="256"
   height="128"
   viewBox="0 0 67.733332 33.866667"
   version="1.1"
   id="svg5"
   inkscape:version="1.2.2 (b0a8486541, 2022-12-01)"
   sodipodi:docname="FilesDB.svg"
   xml:space="preserve"
   xmlns:inkscape="http://www.inkscape.org/namespaces/inkscape"
   xmlns:sodipodi="http://sodipodi.sourceforge.net/DTD/sodipodi-0.dtd"
   xmlns="http://www.w3.org/2000/svg"
   xmlns:svg="http://www.w3.org/2000/svg"><sodipodi:namedview
     id="namedview7"
     pagecolor="#505050"
     bordercolor="#eeeeee"
     borderopacity="1"
     inkscape:showpageshadow="0"
     inkscape:pageopacity="0"
     inkscape:pagecheckerboard="0"
     inkscape:deskcolor="#505050"
     inkscape:document-units="mm"
     showgrid="false"
     inkscape:zoom="2.3786088"
     inkscape:cx="90.599177"
     inkscape:cy="109.30759"
     inkscape:window-width="1366"
     inkscape:window-height="694"
     inkscape:window-x="0"
     inkscape:window-y="0"
     inkscape:window-maximized="1"
     inkscape:current-layer="layer1" /><defs
     id="defs2"><rect
       x="7.9878626"
       y="68.10704"
       width="200.11697"
       height="95.013519"
       id="rect387" /><rect
       x="-96.244637"
       y="47.086346"
       width="219.45601"
       height="95.854347"
       id="rect369" /></defs><g
     inkscape:label="Στρώση 1"
     inkscape:groupmode="layer"
     id="layer1"><path
       d="m 24.270144,12.57151 v -1.8707 h -2.751029 c -0.182943,0 -0.330124,0.14718 -0.330124,0.330124 v 6.382388 c 0,0.182943 0.147181,0.330124 0.330124,0.330124 h 4.62173 c 0.182943,0 0.330123,-0.147181 0.330123,-0.330124 v -4.511688 h -1.8707 c -0.181568,0 -0.330124,-0.148556 -0.330124,-0.330124 z m 0.88033,3.246215 c 0,0.09078 -0.07428,0.165062 -0.165062,0.165062 h -2.310865 c -0.09078,0 -0.165062,-0.07428 -0.165062,-0.165062 v -0.110041 c 0,-0.09078 0.07428,-0.165062 0.165062,-0.165062 h 2.310865 c 0.09078,0 0.165062,0.07428 0.165062,0.165062 z m 0,-0.880329 c 0,0.09078 -0.07428,0.165062 -0.165062,0.165062 h -2.310865 c -0.09078,0 -0.165062,-0.07428 -0.165062,-0.165062 v -0.110042 c 0,-0.09078 0.07428,-0.165061 0.165062,-0.165061 h 2.310865 c 0.09078,0 0.165062,0.07428 0.165062,0.165061 z m 0,-0.990371 v 0.110041 c 0,0.09078 -0.07428,0.165062 -0.165062,0.165062 h -2.310865 c -0.09078,0 -0.165062,-0.07428 -0.165062,-0.165062 v -0.110041 c 0,-0.09078 0.07428,-0.165061 0.165062,-0.165061 h 2.310865 c 0.09078,0 0.165062,0.07428 0.165062,0.165061 z m 1.320494,-1.569462 v 0.08391 H 24.71031 V 10.70081 h 0.08391 c 0.08803,0 0.171939,0.03438 0.233837,0.09629 l 1.346629,1.348005 c 0.0619,0.0619 0.09629,0.145805 0.09629,0.232462 z"
       id="path2"
       style="fill:#f2f2f2;stroke-width:0.0137551" /><g
       aria-label="Files"
       transform="matrix(0.33271755,0,0,0.33271755,59.52477,-10.154979)"
       id="text367"
       style="font-size:40px;line-height:1.25;white-space:pre;shape-inside:url(#rect369);display:inline;fill:#f2f2f2"><path
         d="m -90.182602,66.527099 -0.03077,4.430769 h 6.523077 v 4.061538 h -6.492308 v 8.461539 h -4.338462 V 62.434791 h 11.138462 v 4.092308 z"
         style="font-weight:bold;font-family:KerkisSans;-inkscape-font-specification:'KerkisSans Bold'"
         id="path1083" /><path
         d="m -81.259488,66.496329 -0.03077,-3.846153 h 4.215385 v 3.846153 z m -0.03077,16.984616 V 67.727099 h 4.215385 v 15.753846 z"
         style="font-weight:bold;font-family:KerkisSans;-inkscape-font-specification:'KerkisSans Bold'"
         id="path1080" /><path
         d="m -74.521055,83.480945 -0.03077,-20.830769 h 4.215385 v 20.830769 z"
         style="font-weight:bold;font-family:KerkisSans;-inkscape-font-specification:'KerkisSans Bold'"
         id="path1077" /><path
         d="m -51.936467,77.511714 h -11.969231 q 0.615385,1.938462 2.8,2.430769 0.584616,0.123077 1.23077,0.123077 1.846153,0 3.015384,-1.138461 0.153846,-0.153846 0.338462,-0.369231 h 4.461538 q -0.430769,1.353846 -1.353846,2.461538 -2.461538,2.83077 -6.369231,2.83077 -3.907692,0 -6.461538,-2.615385 -2.246154,-2.307692 -2.246154,-5.507692 0,-3.6 2.646154,-6.03077 2.430769,-2.215384 5.815384,-2.215384 3.876924,0 6.276924,2.738461 2.030769,2.338462 2.030769,5.661539 0,0.646154 -0.215385,1.630769 z m -8.030769,-6.246154 q -3.107692,0 -4.061539,2.584616 h 8.092308 q -0.738461,-2.584616 -4.030769,-2.584616 z"
         style="font-weight:bold;font-family:KerkisSans;-inkscape-font-specification:'KerkisSans Bold'"
         id="path1074" /><path
         d="m -44.797998,83.850176 q -2.76923,0 -4.492307,-1.784616 l -0.369231,-0.430769 q -0.830769,-1.138462 -1.076923,-3.169231 l -0.03077,-0.246154 h 4.184615 q 0.461538,1.6 1.415385,1.784616 l 0.492307,0.06154 q 1.169231,0 1.446154,-0.892307 l 0.06154,-0.369231 q 0,-1.015385 -2.092308,-1.630769 0.09231,0.03077 -0.246154,-0.06154 l -0.03077,-0.03077 -0.153846,-0.03077 q -3.415385,-1.138462 -4.215385,-2.984616 -0.307692,-0.738461 -0.307692,-1.723077 0,-2.4 2.061538,-3.846154 1.476923,-1.015384 3.353846,-1.015384 2.584616,0 4.184616,1.753846 1.046154,1.107692 1.169231,2.984615 v 0.03077 l 0.03077,0.215384 h -4.061539 q -0.307692,-1.2 -1.323077,-1.2 -0.892307,0 -1.16923,0.738462 v 0.03077 l -0.03077,0.03077 q -0.03077,0.123077 -0.03077,0.276923 0,0.584616 1.046154,0.984616 v 0 h 0.03077 q 0,0 0.09231,0.03077 l 2.738461,0.892308 q 0.984616,0.4 1.569231,0.892307 1.538462,1.2 1.538462,3.292308 0,2.615385 -2.123077,4.246154 -1.6,1.169231 -3.661539,1.169231 z"
         style="font-weight:bold;font-family:KerkisSans;-inkscape-font-specification:'KerkisSans Bold'"
         id="path1071" /></g><g
       aria-label="Create a new DataTeX database for LaTeX files."
       transform="matrix(0.2587881,0,0,0.2587881,6.0038839,1.3827298)"
       id="text385"
       style="font-size:18.6667px;line-height:0.75;font-family:KerkisSans;-inkscape-font-specification:KerkisSans;text-align:center;white-space:pre;shape-inside:url(#rect387);display:inline;fill:#f2f2f2"><path
         d="m 41.148236,80.65497 q -2.268722,0 -3.776417,-1.464618 -1.493336,-1.450259 -1.493336,-3.575391 0,-2.225645 1.522054,-3.690263 1.464618,-1.4359 3.675904,-1.4359 2.311799,0 3.790776,1.550772 0.01436,0.02872 0.02872,0.04308 0.516924,0.560001 0.86154,1.277951 h -1.321028 q -0.531283,-0.789745 -1.076925,-1.14872 -0.976412,-0.646155 -2.240004,-0.646155 -1.809234,0 -2.986672,1.263592 -0.01436,0.01436 -0.01436,0.02872 -1.033848,1.120002 -1.033848,2.713851 0,1.680003 1.234874,2.8718 1.177438,1.134361 2.814364,1.134361 1.349746,0 2.354876,-0.775386 0.373334,-0.272821 1.00513,-1.048207 h 1.306669 q -1.608208,2.900518 -4.652316,2.900518 z"
         id="path1068" /><path
         d="m 48.0549,76.419065 v 4.063597 h -1.14872 v -6.992833 h 1.134361 v 0.71795 q 0.603078,-0.832822 1.995901,-0.875899 v 1.076925 q -1.86667,0.172308 -1.967183,1.780516 l -0.01436,0.01436 z"
         id="path1065" /><path
         d="m 51.615943,77.395477 q 0.114872,1.105643 1.105643,1.751798 0.689232,0.459488 1.522054,0.459488 1.206156,0 1.981542,-0.904617 0.244103,-0.28718 0.387693,-0.646155 h 1.177438 q -0.488206,1.478977 -1.823593,2.182568 -0.789745,0.416411 -1.694362,0.416411 -1.694362,0 -2.814364,-1.191797 -0.990771,-1.048207 -0.990771,-2.512825 0,-1.608208 1.191797,-2.670774 1.062566,-0.947694 2.541543,-0.947694 1.593849,0 2.699492,1.091284 0.330257,0.330257 0.560001,0.71795 0.473847,0.86154 0.488206,2.254363 z m 2.570261,-3.029749 q -1.306669,0 -2.067696,1.00513 -0.330257,0.43077 -0.459488,0.990771 h 5.111804 q -0.358975,-1.349746 -1.565131,-1.809234 -0.473847,-0.186667 -1.019489,-0.186667 z"
         id="path1062" /><path
         d="m 65.228292,80.482662 v -1.00513 q -0.933335,1.076925 -2.311799,1.163079 -0.14359,0.01436 -0.301539,0.01436 -1.794875,0 -2.914877,-1.206156 -0.933335,-1.019489 -0.933335,-2.44103 0,-1.694362 1.249233,-2.771287 1.048207,-0.904617 2.541543,-0.904617 1.680003,0 2.656415,1.177438 V 73.48983 h 1.14872 v 6.992833 z m -2.656415,-6.116934 q -1.263592,0 -2.067696,0.947694 -0.588719,0.703591 -0.588719,1.622567 0,1.306669 1.00513,2.096414 0.732309,0.57436 1.708721,0.57436 1.249233,0 2.024619,-0.976412 0.57436,-0.71795 0.57436,-1.680003 0,-1.277951 -0.990771,-2.038978 -0.71795,-0.545642 -1.665644,-0.545642 z"
         id="path1059" /><path
         d="m 69.765731,74.4806 v 6.002062 h -1.14872 V 74.4806 h -1.507695 v -1.033848 h 1.507695 V 71.03444 h 1.134361 v 2.412312 h 1.57949 V 74.4806 Z"
         id="path1056" /><path
         d="m 72.953433,77.395477 q 0.114872,1.105643 1.105643,1.751798 0.689232,0.459488 1.522054,0.459488 1.206156,0 1.981542,-0.904617 0.244103,-0.28718 0.387693,-0.646155 h 1.177438 q -0.488206,1.478977 -1.823593,2.182568 -0.789745,0.416411 -1.694362,0.416411 -1.694362,0 -2.814364,-1.191797 -0.990771,-1.048207 -0.990771,-2.512825 0,-1.608208 1.191797,-2.670774 1.062566,-0.947694 2.541543,-0.947694 1.593849,0 2.699492,1.091284 0.330257,0.330257 0.560001,0.71795 0.473847,0.86154 0.488206,2.254363 z m 2.570261,-3.029749 q -1.306669,0 -2.067696,1.00513 -0.330257,0.43077 -0.459488,0.990771 h 5.111804 q -0.358975,-1.349746 -1.565131,-1.809234 -0.473847,-0.186667 -1.019489,-0.186667 z"
         id="path1053" /><path
         d="m 90.543241,80.482662 v -1.00513 q -0.933335,1.076925 -2.311799,1.163079 -0.14359,0.01436 -0.301539,0.01436 -1.794875,0 -2.914877,-1.206156 -0.933335,-1.019489 -0.933335,-2.44103 0,-1.694362 1.249233,-2.771287 1.048207,-0.904617 2.541543,-0.904617 1.680003,0 2.656415,1.177438 V 73.48983 h 1.14872 v 6.992833 z m -2.656415,-6.116934 q -1.263592,0 -2.067696,0.947694 -0.588719,0.703591 -0.588719,1.622567 0,1.306669 1.00513,2.096414 0.732309,0.57436 1.708721,0.57436 1.249233,0 2.024619,-0.976412 0.57436,-0.71795 0.57436,-1.680003 0,-1.277951 -0.990771,-2.038978 -0.71795,-0.545642 -1.665644,-0.545642 z"
         id="path1050" /><path
         d="m 102.30327,80.482662 v -3.661545 q 0,-1.220515 -0.44513,-1.751798 -0.54565,-0.703591 -1.62257,-0.703591 -1.148721,0 -1.694363,0.789745 -0.344616,0.473847 -0.344616,1.493336 v 3.833853 h -1.14872 v -6.992833 h 1.134361 v 0.732309 q 0.875899,-0.890258 2.168208,-0.890258 1.59385,0 2.44103,1.091284 0.58872,0.746668 0.6318,1.981542 l 0.0144,0.416411 v 3.661545 z"
         id="path1047" /><path
         d="m 105.70636,77.395477 q 0.11487,1.105643 1.10564,1.751798 0.68923,0.459488 1.52205,0.459488 1.20616,0 1.98154,-0.904617 0.24411,-0.28718 0.3877,-0.646155 h 1.17744 q -0.48821,1.478977 -1.8236,2.182568 -0.78974,0.416411 -1.69436,0.416411 -1.69436,0 -2.81436,-1.191797 -0.99077,-1.048207 -0.99077,-2.512825 0,-1.608208 1.19179,-2.670774 1.06257,-0.947694 2.54155,-0.947694 1.59384,0 2.69949,1.091284 0.33025,0.330257 0.56,0.71795 0.47385,0.86154 0.4882,2.254363 z m 2.57026,-3.029749 q -1.30667,0 -2.0677,1.00513 -0.33026,0.43077 -0.45949,0.990771 h 5.11181 q -0.35898,-1.349746 -1.56513,-1.809234 -0.47385,-0.186667 -1.01949,-0.186667 z"
         id="path1044" /><path
         d="m 120.30948,80.482662 h -1.13436 l -1.46462,-4.3077 -1.4359,4.3077 h -1.14872 l -2.75693,-6.992833 h 1.16308 l 2.15385,5.513856 1.57949,-4.681034 h 0.90462 l 1.60821,4.681034 2.19692,-5.513856 h 1.12 z"
         id="path1041" /><path
         d="m 134.09414,79.750353 q -1.29231,0.732309 -3.4318,0.732309 h -2.74257 v -9.821556 h 2.41231 q 2.28309,0 3.51796,0.617437 0.14359,0.07179 0.28718,0.157949 2.05334,1.191797 2.25436,3.661545 0.0287,0.244103 0.0287,0.516924 0,2.627697 -2.09641,3.991802 -0.11488,0.07179 -0.22975,0.14359 z m -0.61743,-7.409244 q -1.00513,-0.617437 -3.10155,-0.617437 h -1.27795 v 7.696424 h 1.27795 q 2.32616,0 3.38873,-0.775386 l 0.0718,-0.05744 q 1.30667,-1.048207 1.39282,-2.800005 0,-0.114872 0,-0.215385 0,-1.837952 -1.27795,-2.900518 -0.22974,-0.186667 -0.47384,-0.330257 z"
         id="path1038" /><path
         d="m 143.78646,80.482662 v -1.00513 q -0.93334,1.076925 -2.3118,1.163079 -0.14359,0.01436 -0.30154,0.01436 -1.79487,0 -2.91488,-1.206156 -0.93333,-1.019489 -0.93333,-2.44103 0,-1.694362 1.24923,-2.771287 1.04821,-0.904617 2.54154,-0.904617 1.68001,0 2.65642,1.177438 V 73.48983 h 1.14872 v 6.992833 z m -2.65642,-6.116934 q -1.26359,0 -2.06769,0.947694 -0.58872,0.703591 -0.58872,1.622567 0,1.306669 1.00513,2.096414 0.73231,0.57436 1.70872,0.57436 1.24923,0 2.02462,-0.976412 0.57436,-0.71795 0.57436,-1.680003 0,-1.277951 -0.99077,-2.038978 -0.71795,-0.545642 -1.66565,-0.545642 z"
         id="path1035" /><path
         d="m 148.32389,74.4806 v 6.002062 h -1.14872 V 74.4806 h -1.50769 v -1.033848 h 1.50769 V 71.03444 h 1.13436 v 2.412312 h 1.57949 V 74.4806 Z"
         id="path1032" /><path
         d="m 156.82443,80.482662 v -1.00513 q -0.93334,1.076925 -2.3118,1.163079 -0.14359,0.01436 -0.30154,0.01436 -1.79487,0 -2.91488,-1.206156 -0.93333,-1.019489 -0.93333,-2.44103 0,-1.694362 1.24923,-2.771287 1.04821,-0.904617 2.54155,-0.904617 1.68,0 2.65641,1.177438 V 73.48983 h 1.14872 v 6.992833 z m -2.65642,-6.116934 q -1.26359,0 -2.06769,0.947694 -0.58872,0.703591 -0.58872,1.622567 0,1.306669 1.00513,2.096414 0.73231,0.57436 1.70872,0.57436 1.24923,0 2.02462,-0.976412 0.57436,-0.71795 0.57436,-1.680003 0,-1.277951 -0.99077,-2.038978 -0.71795,-0.545642 -1.66565,-0.545642 z"
         id="path1029" /><path
         d="m 162.07981,71.723672 v 8.75899 h -1.19179 v -8.75899 h -2.25437 v -1.062566 h 5.68617 v 1.062566 z"
         id="path1026" /><path
         d="m 165.88497,77.395477 q 0.11488,1.105643 1.10565,1.751798 0.68923,0.459488 1.52205,0.459488 1.20616,0 1.98154,-0.904617 0.24411,-0.28718 0.3877,-0.646155 h 1.17743 q -0.4882,1.478977 -1.82359,2.182568 -0.78974,0.416411 -1.69436,0.416411 -1.69436,0 -2.81436,-1.191797 -0.99078,-1.048207 -0.99078,-2.512825 0,-1.608208 1.1918,-2.670774 1.06257,-0.947694 2.54154,-0.947694 1.59385,0 2.6995,1.091284 0.33025,0.330257 0.56,0.71795 0.47384,0.86154 0.4882,2.254363 z m 2.57027,-3.029749 q -1.30667,0 -2.0677,1.00513 -0.33026,0.43077 -0.45949,0.990771 h 5.11181 q -0.35898,-1.349746 -1.56514,-1.809234 -0.47384,-0.186667 -1.01948,-0.186667 z"
         id="path1023" /><path
         d="m 179.38245,80.482662 -2.72821,-4.034879 -2.72821,4.034879 h -1.40718 l 3.40308,-5.02565 -3.21642,-4.795906 h 1.40718 l 2.54155,3.776417 2.54154,-3.776417 h 1.37846 l -3.21641,4.795906 3.41744,5.02565 z"
         id="path1020" /><path
         d="m 39.080564,94.482685 v -1.048207 q -0.918976,1.14872 -2.354876,1.220515 h -0.201026 q -1.780517,0 -2.929237,-1.206156 -0.990771,-1.033848 -0.990771,-2.484107 0,-1.680003 1.249233,-2.756928 1.062566,-0.918976 2.570262,-0.918976 1.593849,0 2.656415,1.091284 v -3.345647 h 1.14872 v 9.448222 z M 36.40979,88.322674 q -1.277952,0 -2.067697,0.962053 -0.588719,0.71795 -0.588719,1.651285 0,1.306669 1.00513,2.096414 0.746669,0.57436 1.73744,0.57436 1.220515,0 2.01026,-0.962053 0.617437,-0.746668 0.617437,-1.708721 0,-1.206156 -0.962053,-1.995901 -0.761027,-0.617437 -1.751798,-0.617437 z"
         id="path1017" /><path
         d="m 47.810844,94.482685 v -1.00513 q -0.933335,1.076925 -2.311799,1.163079 -0.14359,0.01436 -0.301539,0.01436 -1.794875,0 -2.914877,-1.206156 -0.933335,-1.019489 -0.933335,-2.44103 0,-1.694362 1.249233,-2.771287 1.048207,-0.904617 2.541543,-0.904617 1.680003,0 2.656415,1.177438 v -1.019489 h 1.14872 v 6.992833 z m -2.656415,-6.116934 q -1.263592,0 -2.067696,0.947694 -0.588719,0.703591 -0.588719,1.622567 0,1.306669 1.00513,2.096414 0.732309,0.57436 1.708721,0.57436 1.249233,0 2.024619,-0.976412 0.57436,-0.71795 0.57436,-1.680003 0,-1.277951 -0.990771,-2.038978 -0.71795,-0.545642 -1.665644,-0.545642 z"
         id="path1014" /><path
         d="m 52.348282,88.480623 v 6.002062 h -1.14872 v -6.002062 h -1.507695 v -1.033848 h 1.507695 v -2.412312 h 1.134361 v 2.412312 h 1.57949 v 1.033848 z"
         id="path1011" /><path
         d="m 60.848816,94.482685 v -1.00513 q -0.933335,1.076925 -2.311799,1.163079 -0.14359,0.01436 -0.301539,0.01436 -1.794875,0 -2.914877,-1.206156 -0.933335,-1.019489 -0.933335,-2.44103 0,-1.694362 1.249233,-2.771287 1.048207,-0.904617 2.541543,-0.904617 1.680003,0 2.656415,1.177438 v -1.019489 h 1.14872 v 6.992833 z m -2.656415,-6.116934 q -1.263592,0 -2.067696,0.947694 -0.588719,0.703591 -0.588719,1.622567 0,1.306669 1.00513,2.096414 0.732309,0.57436 1.708721,0.57436 1.249233,0 2.024619,-0.976412 0.57436,-0.71795 0.57436,-1.680003 0,-1.277951 -0.990771,-2.038978 -0.71795,-0.545642 -1.665644,-0.545642 z"
         id="path1008" /><path
         d="m 67.152411,94.654993 q -1.665645,0 -2.627698,-1.163079 v 0.990771 h -1.14872 v -9.448222 h 1.134361 v 3.403083 q 0.976412,-1.14872 2.656416,-1.14872 1.708721,0 2.828723,1.191797 0.962053,1.033848 0.962053,2.469748 0,1.708721 -1.234874,2.785646 -1.062566,0.918976 -2.570261,0.918976 z m 0,-6.332319 q -1.321029,0 -2.125133,0.976412 -0.57436,0.703591 -0.57436,1.636926 0,1.076925 0.775386,1.881029 0.775386,0.789745 1.909748,0.789745 1.349746,0 2.125132,-1.00513 0.545642,-0.71795 0.545642,-1.665644 0,-1.306669 -1.00513,-2.067696 -0.703591,-0.545642 -1.651285,-0.545642 z"
         id="path1005" /><path
         d="m 78.266282,94.482685 v -1.00513 q -0.933335,1.076925 -2.311799,1.163079 -0.14359,0.01436 -0.301539,0.01436 -1.794875,0 -2.914877,-1.206156 -0.933335,-1.019489 -0.933335,-2.44103 0,-1.694362 1.249233,-2.771287 1.048207,-0.904617 2.541543,-0.904617 1.680003,0 2.656415,1.177438 v -1.019489 h 1.14872 v 6.992833 z m -2.656415,-6.116934 q -1.263592,0 -2.067696,0.947694 -0.588719,0.703591 -0.588719,1.622567 0,1.306669 1.00513,2.096414 0.732309,0.57436 1.708721,0.57436 1.249233,0 2.024619,-0.976412 0.57436,-0.71795 0.57436,-1.680003 0,-1.277951 -0.990771,-2.038978 -0.71795,-0.545642 -1.665644,-0.545642 z"
         id="path1002" /><path
         d="m 82.573977,94.654993 q -1.4359,0 -2.053337,-1.105643 -0.28718,-0.531283 -0.301539,-1.249233 h 1.120002 q 0.08615,1.234874 1.234874,1.306669 0.703591,0 0.976412,-0.588719 0.100513,-0.229744 0.100513,-0.488206 0,-0.560001 -0.402052,-0.804104 -0.244103,-0.157949 -0.890258,-0.43077 l -0.918976,-0.373334 q -0.244103,-0.14359 -0.402052,-0.301539 -0.560001,-0.502565 -0.560001,-1.29231 0,-1.076925 0.875899,-1.651285 0.516924,-0.344616 1.206156,-0.344616 1.220515,0 1.780516,0.976412 v 0 q 0.14359,0.244103 0.215385,0.531283 0.05744,0.244103 0.07179,0.516924 h -1.14872 q -0.08615,-0.990771 -0.933335,-0.990771 -0.588719,0 -0.832822,0.502565 -0.08615,0.172308 -0.08615,0.387693 0,0.545642 0.588719,0.804104 l 1.522054,0.646155 q 0.947694,0.502565 1.048207,1.464618 0.01436,0.129231 0.01436,0.272821 0,1.191797 -0.918976,1.823593 -0.560001,0.387693 -1.306669,0.387693 z"
         id="path999" /><path
         d="m 86.623217,91.3955 q 0.114872,1.105643 1.105643,1.751798 0.689232,0.459488 1.522054,0.459488 1.206156,0 1.981542,-0.904617 0.244103,-0.28718 0.387693,-0.646155 h 1.177438 q -0.488206,1.478977 -1.823593,2.182568 -0.789745,0.416411 -1.694362,0.416411 -1.694362,0 -2.814364,-1.191797 -0.990771,-1.048207 -0.990771,-2.512825 0,-1.608208 1.191797,-2.670774 1.062566,-0.947694 2.541543,-0.947694 1.593849,0 2.699492,1.091284 0.330257,0.330257 0.560001,0.71795 0.473847,0.86154 0.488206,2.254363 z m 2.570261,-3.029749 q -1.306669,0 -2.067696,1.00513 -0.330257,0.43077 -0.459488,0.990771 h 5.111804 Q 91.419123,89.011906 90.212967,88.552418 89.73912,88.365751 89.193478,88.365751 Z"
         id="path996" /><path
         d="m 99.661214,88.480623 v 6.002062 H 98.526853 V 88.480623 H 97.42121 v -1.033848 h 1.091284 q 0.02872,-2.412312 2.886156,-2.412312 v 1.019489 q -1.26359,0.01436 -1.579487,0.588719 v 0 q 0,0 0,0 -0.157949,0.28718 -0.157949,0.804104 h 1.737436 v 1.033848 z"
         id="path993" /><path
         d="m 105.60584,94.654993 q -1.83796,0 -2.9436,-1.249233 -0.90462,-1.019489 -0.90462,-2.469748 0,-1.636926 1.22052,-2.685133 1.06256,-0.918976 2.5559,-0.918976 1.78052,0 2.85744,1.234874 0.8759,1.00513 0.8759,2.44103 0,1.72308 -1.23487,2.785646 -1.00513,0.86154 -2.42667,0.86154 z m -0.0718,-6.289242 q -1.33539,0 -2.09641,0.990771 -0.53129,0.689232 -0.53129,1.608208 0,1.407182 1.04821,2.15385 0.68923,0.488206 1.62257,0.488206 1.33538,0 2.05333,-1.00513 0.48821,-0.674873 0.48821,-1.57949 0,-1.364105 -1.00513,-2.139491 -0.68923,-0.516924 -1.57949,-0.516924 z"
         id="path990" /><path
         d="m 111.53611,90.419088 v 4.063597 h -1.14872 v -6.992833 h 1.13436 v 0.71795 q 0.60308,-0.832822 1.99591,-0.875899 v 1.076925 q -1.86667,0.172308 -1.96719,1.780516 l -0.0144,0.01436 z"
         id="path987" /><path
         d="m 118.4141,94.482685 -0.0144,-9.821556 h 1.17744 v 8.75899 h 4.07795 v 1.062566 z"
         id="path984" /><path
         d="m 130.51872,94.482685 v -1.00513 q -0.93334,1.076925 -2.3118,1.163079 -0.14359,0.01436 -0.30154,0.01436 -1.79487,0 -2.91488,-1.206156 -0.93333,-1.019489 -0.93333,-2.44103 0,-1.694362 1.24923,-2.771287 1.04821,-0.904617 2.54155,-0.904617 1.68,0 2.65641,1.177438 v -1.019489 h 1.14872 v 6.992833 z m -2.65642,-6.116934 q -1.26359,0 -2.06769,0.947694 -0.58872,0.703591 -0.58872,1.622567 0,1.306669 1.00513,2.096414 0.73231,0.57436 1.70872,0.57436 1.24923,0 2.02462,-0.976412 0.57436,-0.71795 0.57436,-1.680003 0,-1.277951 -0.99077,-2.038978 -0.71795,-0.545642 -1.66565,-0.545642 z"
         id="path981" /><path
         d="m 135.7741,85.723695 v 8.75899 h -1.19179 v -8.75899 h -2.25437 v -1.062566 h 5.68617 v 1.062566 z"
         id="path978" /><path
         d="m 139.57926,91.3955 q 0.11487,1.105643 1.10564,1.751798 0.68923,0.459488 1.52205,0.459488 1.20616,0 1.98155,-0.904617 0.2441,-0.28718 0.38769,-0.646155 h 1.17744 q -0.48821,1.478977 -1.8236,2.182568 -0.78974,0.416411 -1.69436,0.416411 -1.69436,0 -2.81436,-1.191797 -0.99077,-1.048207 -0.99077,-2.512825 0,-1.608208 1.19179,-2.670774 1.06257,-0.947694 2.54155,-0.947694 1.59385,0 2.69949,1.091284 0.33026,0.330257 0.56,0.71795 0.47385,0.86154 0.48821,2.254363 z m 2.57026,-3.029749 q -1.30667,0 -2.0677,1.00513 -0.33026,0.43077 -0.45949,0.990771 h 5.11181 q -0.35898,-1.349746 -1.56513,-1.809234 -0.47385,-0.186667 -1.01949,-0.186667 z"
         id="path975" /><path
         d="m 153.07673,94.482685 -2.72821,-4.034879 -2.72821,4.034879 h -1.40718 l 3.40308,-5.02565 -3.21642,-4.795906 h 1.40719 l 2.54154,3.776417 2.54154,-3.776417 h 1.37847 l -3.21642,4.795906 3.41744,5.02565 z"
         id="path972" /><path
         d="m 162.74035,86.80062 -0.0144,-1.766157 h 1.14872 v 1.766157 z m -0.0144,7.682065 v -7.03591 h 1.14872 v 7.03591 z m -2.08206,-6.002062 0.0144,6.002062 h -1.13436 v -6.002062 h -1.10564 v -1.033848 h 1.09128 q 0.0287,-2.412312 2.88616,-2.412312 v 1.019489 q -1.26359,0.01436 -1.57949,0.588719 v 0 q 0,0 0,0 -0.15795,0.28718 -0.15795,0.804104 h 1.73744 v 1.033848 z"
         id="path969" /><path
         d="m 165.29624,94.482685 -0.0144,-9.448222 h 1.14872 v 9.448222 z"
         id="path966" /><path
         d="m 168.71369,91.3955 q 0.11487,1.105643 1.10564,1.751798 0.68923,0.459488 1.52205,0.459488 1.20616,0 1.98155,-0.904617 0.2441,-0.28718 0.38769,-0.646155 h 1.17744 q -0.48821,1.478977 -1.8236,2.182568 -0.78974,0.416411 -1.69436,0.416411 -1.69436,0 -2.81436,-1.191797 -0.99077,-1.048207 -0.99077,-2.512825 0,-1.608208 1.19179,-2.670774 1.06257,-0.947694 2.54155,-0.947694 1.59385,0 2.69949,1.091284 0.33026,0.330257 0.56,0.71795 0.47385,0.86154 0.48821,2.254363 z m 2.57026,-3.029749 q -1.30667,0 -2.0677,1.00513 -0.33026,0.43077 -0.45949,0.990771 h 5.11181 q -0.35898,-1.349746 -1.56513,-1.809234 -0.47385,-0.186667 -1.01949,-0.186667 z"
         id="path963" /><path
         d="m 177.91782,94.654993 q -1.4359,0 -2.05334,-1.105643 -0.28718,-0.531283 -0.30154,-1.249233 h 1.12 q 0.0862,1.234874 1.23488,1.306669 0.70359,0 0.97641,-0.588719 0.10051,-0.229744 0.10051,-0.488206 0,-0.560001 -0.40205,-0.804104 -0.2441,-0.157949 -0.89026,-0.43077 l -0.91897,-0.373334 q -0.24411,-0.14359 -0.40205,-0.301539 -0.56001,-0.502565 -0.56001,-1.29231 0,-1.076925 0.8759,-1.651285 0.51693,-0.344616 1.20616,-0.344616 1.22051,0 1.78052,0.976412 v 0 q 0.14359,0.244103 0.21538,0.531283 0.0574,0.244103 0.0718,0.516924 h -1.14872 q -0.0862,-0.990771 -0.93334,-0.990771 -0.58872,0 -0.83282,0.502565 -0.0862,0.172308 -0.0862,0.387693 0,0.545642 0.58872,0.804104 l 1.52206,0.646155 q 0.94769,0.502565 1.0482,1.464618 0.0144,0.129231 0.0144,0.272821 0,1.191797 -0.91897,1.823593 -0.56,0.387693 -1.30667,0.387693 z"
         id="path960" /><path
         d="m 181.59372,94.482685 -0.0143,-1.608208 h 1.14872 v 1.608208 z"
         id="path957" /></g></g></svg>
