<?xml version="1.0" encoding="UTF-8" standalone="no"?>
<!-- Created with Inkscape (http://www.inkscape.org/) -->

<svg
   width="128"
   height="128"
   viewBox="0 0 33.866667 33.866667"
   version="1.1"
   id="svg5"
   inkscape:version="1.2.2 (b0a8486541, 2022-12-01)"
   sodipodi:docname="FileDependencies.svg"
   xmlns:inkscape="http://www.inkscape.org/namespaces/inkscape"
   xmlns:sodipodi="http://sodipodi.sourceforge.net/DTD/sodipodi-0.dtd"
   xmlns="http://www.w3.org/2000/svg"
   xmlns:svg="http://www.w3.org/2000/svg">
  <sodipodi:namedview
     id="namedview7"
     pagecolor="#505050"
     bordercolor="#eeeeee"
     borderopacity="1"
     inkscape:showpageshadow="0"
     inkscape:pageopacity="0"
     inkscape:pagecheckerboard="true"
     inkscape:deskcolor="#505050"
     inkscape:document-units="mm"
     showgrid="false"
     inkscape:zoom="2.3786088"
     inkscape:cx="53.182348"
     inkscape:cy="58.017106"
     inkscape:window-width="1366"
     inkscape:window-height="694"
     inkscape:window-x="0"
     inkscape:window-y="0"
     inkscape:window-maximized="1"
     inkscape:current-layer="layer1" />
  <defs
     id="defs2">
    <marker
       style="overflow:visible"
       id="Arrow2"
       refX="0"
       refY="0"
       orient="auto-start-reverse"
       inkscape:stockid="Arrow2"
       markerWidth="4"
       markerHeight="4"
       viewBox="0 0 7.7 5.6"
       inkscape:isstock="true"
       inkscape:collect="always"
       preserveAspectRatio="xMidYMid">
      <path
         transform="scale(0.7)"
         d="M -2,-4 9,0 -2,4 c 2,-2.33 2,-5.66 0,-8 z"
         style="fill:context-stroke;fill-rule:evenodd;stroke:none"
         id="arrow2L" />
    </marker>
    <inkscape:path-effect
       effect="fillet_chamfer"
       id="path-effect1353"
       is_visible="true"
       lpeversion="1"
       nodesatellites_param="F,0,0,1,0,1.0583333,0,1 @ F,0,0,1,0,1.0583333,0,1 @ F,0,0,1,0,1.0583333,0,1 @ F,0,0,1,0,1.0583333,0,1"
       unit="px"
       method="auto"
       mode="F"
       radius="4"
       chamfer_steps="1"
       flexible="false"
       use_knot_distance="true"
       apply_no_radius="true"
       apply_with_radius="true"
       only_selected="false"
       hide_knots="false" />
    <inkscape:path-effect
       effect="fillet_chamfer"
       id="path-effect1351"
       is_visible="true"
       lpeversion="1"
       nodesatellites_param="F,0,0,1,0,1.0583333,0,1 @ F,0,0,1,0,1.0583333,0,1 @ F,0,0,1,0,1.0583333,0,1 @ F,0,0,1,0,1.0583333,0,1"
       unit="px"
       method="auto"
       mode="F"
       radius="4"
       chamfer_steps="1"
       flexible="false"
       use_knot_distance="true"
       apply_no_radius="true"
       apply_with_radius="true"
       only_selected="false"
       hide_knots="false" />
    <inkscape:path-effect
       effect="fillet_chamfer"
       id="path-effect1349"
       is_visible="true"
       lpeversion="1"
       nodesatellites_param="F,0,0,1,0,1.0583333,0,1 @ F,0,0,1,0,1.0583333,0,1 @ F,0,0,1,0,1.0583333,0,1 @ F,0,0,1,0,1.0583333,0,1"
       unit="px"
       method="auto"
       mode="F"
       radius="4"
       chamfer_steps="1"
       flexible="false"
       use_knot_distance="true"
       apply_no_radius="true"
       apply_with_radius="true"
       only_selected="false"
       hide_knots="false" />
    <inkscape:path-effect
       effect="fillet_chamfer"
       id="path-effect1267"
       is_visible="true"
       lpeversion="1"
       nodesatellites_param="F,0,0,1,0,1.0583333,0,1 @ F,0,0,1,0,1.0583333,0,1 @ F,0,0,1,0,1.0583333,0,1 @ F,0,0,1,0,1.0583333,0,1"
       unit="px"
       method="auto"
       mode="F"
       radius="4"
       chamfer_steps="1"
       flexible="false"
       use_knot_distance="true"
       apply_no_radius="true"
       apply_with_radius="true"
       only_selected="false"
       hide_knots="false" />
    <inkscape:path-effect
       effect="fillet_chamfer"
       id="path-effect1267-7"
       is_visible="true"
       lpeversion="1"
       nodesatellites_param="F,0,0,1,0,1.0583333,0,1 @ F,0,0,1,0,1.0583333,0,1 @ F,0,0,1,0,1.0583333,0,1 @ F,0,0,1,0,1.0583333,0,1"
       unit="px"
       method="auto"
       mode="F"
       radius="4"
       chamfer_steps="1"
       flexible="false"
       use_knot_distance="true"
       apply_no_radius="true"
       apply_with_radius="true"
       only_selected="false"
       hide_knots="false" />
    <inkscape:path-effect
       effect="fillet_chamfer"
       id="path-effect1267-5"
       is_visible="true"
       lpeversion="1"
       nodesatellites_param="F,0,0,1,0,1.0583333,0,1 @ F,0,0,1,0,1.0583333,0,1 @ F,0,0,1,0,1.0583333,0,1 @ F,0,0,1,0,1.0583333,0,1"
       unit="px"
       method="auto"
       mode="F"
       radius="4"
       chamfer_steps="1"
       flexible="false"
       use_knot_distance="true"
       apply_no_radius="true"
       apply_with_radius="true"
       only_selected="false"
       hide_knots="false" />
    <marker
       style="overflow:visible"
       id="Arrow2-2"
       refX="0"
       refY="0"
       orient="auto-start-reverse"
       inkscape:stockid="Arrow2"
       markerWidth="4"
       markerHeight="4"
       viewBox="0 0 7.7 5.6"
       inkscape:isstock="true"
       inkscape:collect="always"
       preserveAspectRatio="xMidYMid">
      <path
         transform="scale(0.7)"
         d="M -2,-4 9,0 -2,4 c 2,-2.33 2,-5.66 0,-8 z"
         style="fill:context-stroke;fill-rule:evenodd;stroke:none"
         id="arrow2L-7" />
    </marker>
  </defs>
  <g
     inkscape:label="Στρώση 1"
     inkscape:groupmode="layer"
     id="layer1">
    <path
       id="rect1003"
       style="fill:#1a1a1a;stroke:none;stroke-width:0.290972"
       d="M 7.1210124,5.2482585 A 1.0583333,1.0583333 0 0 0 6.062679,6.3065918 V 9.8242065 A 1.0583333,1.0583333 0 0 0 7.1210124,10.88254 H 27.148214 A 1.0583333,1.0583333 0 0 0 28.206547,9.8242065 V 6.3065918 A 1.0583333,1.0583333 0 0 0 27.148214,5.2482585 Z m 1.49965,1.8159098 A 1.0011104,1.0011104 0 0 1 9.6216349,8.0651408 1.0011104,1.0011104 0 0 1 8.6206624,9.0661133 1.0011104,1.0011104 0 0 1 7.6196899,8.0651408 1.0011104,1.0011104 0 0 1 8.6206624,7.0641683 Z m 3.9196576,0.049609 a 0.95220277,0.95220277 0 0 1 0.14211,0.0062 h 4.001306 A 1.0583333,1.0583333 0 0 1 17.742069,8.1783107 0.95220277,0.95220277 0 0 1 16.683736,9.010818 H 12.68243 a 1.0583333,1.0583333 0 0 1 -1.058333,-1.0583333 0.95220277,0.95220277 0 0 1 0.844909,-0.8340577 0.95220277,0.95220277 0 0 1 0.07131,-0.00465 z" />
    <path
       id="rect1003-9"
       style="fill:#1a1a1a;stroke:none;stroke-width:0.290972"
       d="m 7.2277452,14.285611 a 1.0583333,1.0583333 0 0 0 -1.0583334,1.058334 v 3.517615 a 1.0583333,1.0583333 0 0 0 1.0583334,1.058332 H 27.254947 a 1.0583333,1.0583333 0 0 0 1.058333,-1.058333 v -3.517614 a 1.0583333,1.0583333 0 0 0 -1.058333,-1.058334 z m 1.4996505,1.815909 a 1.0011104,1.0011104 0 0 1 1.000972,1.000973 1.0011104,1.0011104 0 0 1 -1.000972,1.000973 1.0011104,1.0011104 0 0 1 -1.000973,-1.000973 1.0011104,1.0011104 0 0 1 1.000973,-1.000973 z m 3.9196573,0.04961 a 0.95220277,0.95220277 0 0 1 0.14211,0.0062 h 4.001306 a 1.0583333,1.0583333 0 0 1 1.058333,1.058334 0.95220277,0.95220277 0 0 1 -1.058333,0.832507 h -4.001306 a 1.0583333,1.0583333 0 0 1 -1.058333,-1.058333 0.95220277,0.95220277 0 0 1 0.844909,-0.834058 0.95220277,0.95220277 0 0 1 0.07131,-0.0047 z" />
    <path
       id="rect1003-1"
       style="fill:#1a1a1a;stroke:none;stroke-width:0.290972"
       d="m 7.1165107,23.322963 a 1.0583333,1.0583333 0 0 0 -1.0583334,1.058334 v 3.517614 a 1.0583333,1.0583333 0 0 0 1.0583334,1.058334 H 27.143712 a 1.0583333,1.0583333 0 0 0 1.058333,-1.058334 v -3.517614 a 1.0583333,1.0583333 0 0 0 -1.058333,-1.058334 z m 1.4996505,1.81591 a 1.0011104,1.0011104 0 0 1 1.000972,1.000973 1.0011104,1.0011104 0 0 1 -1.000972,1.000972 1.0011104,1.0011104 0 0 1 -1.000973,-1.000972 1.0011104,1.0011104 0 0 1 1.000973,-1.000973 z m 3.9196568,0.04961 a 0.95220277,0.95220277 0 0 1 0.14211,0.0062 h 4.001306 a 1.0583333,1.0583333 0 0 1 1.058333,1.058334 0.95220277,0.95220277 0 0 1 -1.058333,0.832507 h -4.001306 a 1.0583333,1.0583333 0 0 1 -1.058333,-1.058333 0.95220277,0.95220277 0 0 1 0.844909,-0.834058 0.95220277,0.95220277 0 0 1 0.07131,-0.0046 z" />
    <path
       style="fill:none;stroke:#1a1a1a;stroke-width:0.8;stroke-linecap:round;stroke-linejoin:round;stroke-miterlimit:14.9;stroke-dasharray:none;stroke-opacity:1;marker-end:url(#Arrow2);paint-order:markers fill stroke"
       d="m 29.065161,7.5304088 h 3.503886 v 9.3436972 h -1.279198"
       id="path1544"
       sodipodi:nodetypes="cccc" />
    <path
       style="fill:none;stroke:#1a1a1a;stroke-width:0.8;stroke-linecap:round;stroke-linejoin:round;stroke-miterlimit:14.9;stroke-dasharray:none;stroke-opacity:1;marker-end:url(#Arrow2-2);paint-order:markers fill stroke"
       d="M 5.310798,16.567761 H 1.8069118 v 9.343697 h 1.279198"
       id="path1544-0"
       sodipodi:nodetypes="cccc" />
  </g>
</svg>
