<?xml version="1.0" encoding="UTF-8" standalone="no"?>
<svg
   xmlns:dc="http://purl.org/dc/elements/1.1/"
   xmlns:cc="http://creativecommons.org/ns#"
   xmlns:rdf="http://www.w3.org/1999/02/22-rdf-syntax-ns#"
   xmlns:svg="http://www.w3.org/2000/svg"
   xmlns="http://www.w3.org/2000/svg"
   xmlns:sodipodi="http://sodipodi.sourceforge.net/DTD/sodipodi-0.dtd"
   xmlns:inkscape="http://www.inkscape.org/namespaces/inkscape"
   class="svg-icon"
   style="width: 1em; height: 1em;vertical-align: middle;fill: currentColor;overflow: hidden;"
   viewBox="0 0 1024 1024"
   version="1.1"
   id="svg4"
   sodipodi:docname="hdd.svg"
   inkscape:version="1.0.2 (e86c870879, 2021-01-15, custom)">
  <metadata
     id="metadata10">
    <rdf:RDF>
      <cc:Work
         rdf:about="">
        <dc:format>image/svg+xml</dc:format>
        <dc:type
           rdf:resource="http://purl.org/dc/dcmitype/StillImage" />
      </cc:Work>
    </rdf:RDF>
  </metadata>
  <defs
     id="defs8" />
  <sodipodi:namedview
     pagecolor="#ffffff"
     bordercolor="#555555"
     borderopacity="1"
     objecttolerance="10"
     gridtolerance="10"
     guidetolerance="10"
     inkscape:pageopacity="0"
     inkscape:pageshadow="2"
     inkscape:window-width="1366"
     inkscape:window-height="699"
     id="namedview6"
     showgrid="false"
     inkscape:zoom="0.2578125"
     inkscape:cx="762.18182"
     inkscape:cy="723.58388"
     inkscape:window-x="0"
     inkscape:window-y="0"
     inkscape:window-maximized="1"
     inkscape:current-layer="svg4" />
  <g
     id="g858">
    <path
       id="path2"
       d="m 730.78711,160.2832 c -148.13237,0.004 -296.26496,0.003 -444.39718,0.0371 -14.00977,0.25975 -27.8976,4.27024 -39.95881,11.38556 -12.09708,7.08066 -22.73414,16.8772 -30.05531,28.8872 -4.17809,6.72893 -7.07372,14.157 -9.4222,21.69537 -4.48614,13.91887 -9.07296,27.92083 -13.59872,41.88344 -32.66637,100.51044 -65.34175,201.01802 -97.987429,301.53515 -2.962603,9.39629 -5.690237,18.90148 -7.346473,28.62516 -0.89395,5.19769 -0.971396,10.48429 -0.882993,15.74387 0.01092,59.71881 -0.01384,119.43828 0.06452,179.15697 0.38241,13.34517 4.151212,26.69 11.480176,37.90455 5.176582,8.06291 11.824332,15.14003 19.370042,21.0284 0.55584,0.41873 1.35395,1.0369 2.01693,1.51185 10.56254,7.78682 23.30913,12.51433 36.37428,13.64128 2.34992,0.20551 4.56669,0.343 6.94797,0.37082 10.68714,0.0674 21.37526,0.009 32.06278,0.0281 221.90714,-0.006 443.81437,-0.0106 665.72145,-0.0293 2.31072,-0.0377 4.83165,-0.19849 6.99378,-0.41726 5.33077,-0.55527 10.60945,-1.63693 15.71094,-3.28515 0.33634,-0.12123 1.14166,-0.38234 1.51646,-0.51457 7.6486,-2.64429 14.74901,-6.7411 21.10659,-11.72567 0.80143,-0.64085 1.80032,-1.44482 2.65383,-2.18293 3.4739,-2.97115 6.69995,-6.22915 9.66257,-9.70964 0.55093,-0.64528 1.32199,-1.57586 1.84816,-2.24706 6.36105,-7.86613 11.05214,-17.07674 13.63817,-26.85841 0.18337,-0.68336 0.42549,-1.66244 0.60706,-2.46952 1.55262,-6.74741 1.99621,-13.6914 1.95996,-20.59882 -0.0426,-36.1413 -0.001,-72.28284 -0.0198,-108.42424 -0.0137,-23.4918 0.006,-46.98412 -0.0286,-70.47558 -0.0482,-4.39095 -0.56405,-8.76126 -1.3953,-13.06995 -1.76528,-9.38478 -4.53574,-18.54263 -7.38827,-27.64416 -3.32736,-10.4422 -6.81173,-20.83216 -10.15059,-31.27029 -34.35612,-105.66736 -68.70911,-211.33607 -103.102,-316.99127 -3.38958,-9.62664 -8.64864,-18.58512 -15.38677,-26.24953 -0.9101,-1.03426 -2.00362,-2.21996 -3.03449,-3.26824 -5.37149,-5.42417 -11.46925,-10.1199 -17.99679,-14.06942 -4.58461,-2.76491 -9.59404,-5.15702 -14.51754,-6.96312 -8.59406,-3.16052 -17.72626,-4.82083 -26.88102,-4.92702 -2.06144,-0.0472 -4.12349,-0.0518 -6.18539,-0.0437 z m -442.2793,45.14453 c 149.44595,0.002 298.89201,0.008 448.33789,0.0312 13.97842,0.46772 27.50816,8.87853 33.76144,21.44636 2.35102,4.86347 3.58982,10.12414 5.36302,15.16959 30.83681,94.64167 61.6733,189.28346 92.51031,283.92507 -237.62891,0 -475.25781,0 -712.88672,0 32.13115,-98.60648 64.25492,-197.21594 96.42241,-295.81021 3.59981,-9.61707 11.48081,-17.31908 20.82173,-21.41049 4.92591,-2.161 10.28525,-3.34867 15.66992,-3.35157 z M 164.46484,571.14258 c 231.98957,0.008 463.97927,0.0104 695.96875,0.0215 12.05809,0.20673 23.47276,8.02562 28.39902,18.97155 2.32617,5.00054 3.14384,10.5971 2.86097,16.07728 0.0291,60.4552 0.04,120.91102 -0.0302,181.36584 -0.20102,9.51059 -5.21759,18.60248 -12.714,24.34761 -5.30212,4.13495 -11.94273,6.49886 -18.66743,6.62325 -3.66806,0.0688 -7.33784,-0.0354 -11.00698,0.005 -172.59987,0.0426 -345.19974,0.003 -517.79961,0.006 -56.11554,-0.0102 -112.23148,-0.003 -168.34676,-0.0239 -12.07412,-0.3858 -23.41141,-8.37105 -28.17133,-19.42097 -2.1431,-4.83523 -2.91397,-10.19307 -2.65658,-15.45326 -0.002,-60.55955 -0.0382,-121.11946 0.0324,-181.67878 0.3262,-11.71366 7.8929,-22.71112 18.41221,-27.70546 4.26148,-2.0538 8.98545,-3.1564 13.71954,-3.13529 z m 455.625,92.02344 c -1.1238,0.0261 -2.43569,0.15466 -3.40868,0.29949 -0.81038,0.11425 -1.80689,0.31279 -2.46972,0.47615 -5.29516,1.23293 -10.19569,3.98827 -14.07006,7.79428 -5.33601,5.01068 -9.22167,11.80468 -9.90391,19.17042 -0.82662,7.09032 0.51186,14.56619 4.49588,20.56816 3.31449,5.1384 7.99105,9.4289 13.4561,12.18564 0.73621,0.353 1.54711,0.7059 2.19005,0.93967 1.01561,0.39848 2.35594,0.81064 3.55409,1.09939 1.94734,0.47087 4.07968,0.75797 5.96442,0.8341 6.34338,0.29549 12.84538,-1.12135 18.23124,-4.56172 5.98819,-3.84499 10.95347,-9.4886 13.46255,-16.19426 2.02051,-5.64127 2.32561,-11.85178 1.15338,-17.71118 -1.54362,-7.94559 -6.75459,-14.82304 -13.28972,-19.42431 -5.23521,-3.7674 -11.72954,-5.60824 -18.15507,-5.48666 -0.40351,0.004 -0.80703,0.007 -1.21055,0.0108 z" />
    <circle
       style="opacity:0.999137;fill:#000000;fill-rule:evenodd;stroke:none;stroke-width:2.81034;stroke-linecap:round;stroke-linejoin:round"
       id="path26"
       cx="739.7514"
       cy="694.84137"
       r="32.051495" />
  </g>
</svg>
