<?xml version="1.0" encoding="UTF-8" standalone="no"?>
<!-- Created with Inkscape (http://www.inkscape.org/) -->

<svg
   width="255.99998"
   height="128"
   viewBox="0 0 67.733321 33.866667"
   version="1.1"
   id="svg5"
   inkscape:version="1.2.2 (b0a8486541, 2022-12-01)"
   sodipodi:docname="PackagesDB.svg"
   xml:space="preserve"
   inkscape:export-filename="../../../Επιφάνεια εργασίας/PreamblesDB.svg"
   inkscape:export-xdpi="102.557"
   inkscape:export-ydpi="102.557"
   xmlns:inkscape="http://www.inkscape.org/namespaces/inkscape"
   xmlns:sodipodi="http://sodipodi.sourceforge.net/DTD/sodipodi-0.dtd"
   xmlns="http://www.w3.org/2000/svg"
   xmlns:svg="http://www.w3.org/2000/svg"><sodipodi:namedview
     id="namedview7"
     pagecolor="#505050"
     bordercolor="#eeeeee"
     borderopacity="1"
     inkscape:showpageshadow="0"
     inkscape:pageopacity="0"
     inkscape:pagecheckerboard="0"
     inkscape:deskcolor="#505050"
     inkscape:document-units="mm"
     showgrid="false"
     inkscape:zoom="2.3786088"
     inkscape:cx="138.52635"
     inkscape:cy="77.356142"
     inkscape:window-width="1366"
     inkscape:window-height="694"
     inkscape:window-x="0"
     inkscape:window-y="0"
     inkscape:window-maximized="1"
     inkscape:current-layer="text385" /><defs
     id="defs2"><rect
       x="7.9878626"
       y="68.10704"
       width="390.31607"
       height="59.552677"
       id="rect387" /><rect
       x="-96.244637"
       y="47.086346"
       width="219.45601"
       height="95.854347"
       id="rect369" /></defs><g
     inkscape:label="Στρώση 1"
     inkscape:groupmode="layer"
     id="layer1"><g
       aria-label="Organize in a new DataTeX database your custom LaTeX packages. "
       transform="matrix(0.2587881,0,0,0.2587881,-18.677355,0.61536352)"
       id="text385"
       style="font-size:18.6667px;line-height:0.75;font-family:KerkisSans;-inkscape-font-specification:KerkisSans;text-align:center;white-space:pre;shape-inside:url(#rect387);display:inline;fill:#f2f2f2"><g
         id="g3198"
         transform="translate(40.047267,4.089575)"><path
           d="m 50.115344,80.65497 q -2.125132,0 -3.661545,-1.421541 -1.507695,-1.392823 -1.622567,-3.431801 l -0.01436,-0.28718 q 0,-1.924106 1.4359,-3.388724 1.407182,-1.450259 3.417442,-1.622567 l 0.445129,-0.01436 q 2.082055,0 3.618468,1.392823 1.234874,1.105643 1.565131,2.685133 0.114872,0.502565 0.114872,1.019489 0,1.981542 -1.450259,3.460519 -1.4359,1.450259 -3.474878,1.593849 z m 0,-9.089247 q -1.680003,0 -2.900518,1.206156 -1.191797,1.177438 -1.191797,2.771287 0,1.694362 1.234874,2.886159 1.191797,1.14872 2.857441,1.14872 1.708721,0 2.929236,-1.220515 1.163079,-1.163079 1.163079,-2.756928 0,-1.694362 -1.249233,-2.886159 -1.191797,-1.14872 -2.843082,-1.14872 z"
           id="path10049" /><path
           d="m 57.725626,76.419065 v 4.063597 h -1.14872 v -6.992833 h 1.134361 v 0.71795 q 0.603078,-0.832822 1.995901,-0.875899 v 1.076925 q -1.86667,0.172308 -1.967183,1.780516 l -0.01436,0.01436 z"
           id="path10046" /><path
           d="m 66.929756,81.961639 q -0.875899,1.14872 -2.613338,1.249233 l -0.301539,0.01436 q -2.570261,0 -3.503596,-2.268722 -0.0718,-0.201026 -0.14359,-0.402052 h 1.105643 q 0.402052,0.689232 0.703591,0.976412 0.746668,0.660514 1.809234,0.660514 1.4359,0 2.067696,-0.947694 0.0718,-0.114872 0.129231,-0.244103 0.28718,-0.57436 0.28718,-1.493336 v -0.114872 q -0.847181,1.306669 -2.58462,1.306669 -1.680003,0 -2.785646,-1.191797 -0.962053,-1.019489 -0.962053,-2.455389 0,-1.737439 1.220515,-2.814364 1.033848,-0.904617 2.469748,-0.904617 1.651285,0 2.627697,1.191797 V 73.48983 h 1.14872 v 5.729241 q 0,1.72308 -0.531283,2.541543 z m -3.058467,-7.595911 q -1.364105,0 -2.096414,1.019489 -0.488206,0.674873 -0.488206,1.57949 0,1.378464 1.019489,2.15385 0.674873,0.531283 1.57949,0.531283 1.263592,0 2.024619,-0.990771 0.560001,-0.732309 0.560001,-1.72308 0,-1.263592 -0.976412,-2.024619 -0.689232,-0.545642 -1.622567,-0.545642 z"
           id="path10043" /><path
           d="m 75.186163,80.482662 v -1.00513 q -0.933335,1.076925 -2.311799,1.163079 -0.14359,0.01436 -0.301539,0.01436 -1.794875,0 -2.914877,-1.206156 -0.933335,-1.019489 -0.933335,-2.44103 0,-1.694362 1.249233,-2.771287 1.048207,-0.904617 2.541543,-0.904617 1.680003,0 2.656415,1.177438 V 73.48983 h 1.14872 v 6.992833 z m -2.656415,-6.116934 q -1.263592,0 -2.067696,0.947694 -0.588719,0.703591 -0.588719,1.622567 0,1.306669 1.00513,2.096414 0.732309,0.57436 1.708721,0.57436 1.249233,0 2.024619,-0.976412 0.57436,-0.71795 0.57436,-1.680003 0,-1.277951 -0.990771,-2.038978 -0.71795,-0.545642 -1.665644,-0.545642 z"
           id="path10040" /><path
           d="m 82.968736,80.482662 v -3.661545 q 0,-1.220515 -0.445129,-1.751798 -0.545642,-0.703591 -1.622567,-0.703591 -1.14872,0 -1.694362,0.789745 -0.344616,0.473847 -0.344616,1.493336 v 3.833853 h -1.14872 v -6.992833 h 1.134361 v 0.732309 q 0.875899,-0.890258 2.168209,-0.890258 1.593849,0 2.44103,1.091284 0.588719,0.746668 0.631796,1.981542 l 0.01436,0.416411 v 3.661545 z"
           id="path10037" /><path
           d="m 85.510286,72.800597 -0.01436,-1.766157 h 1.14872 v 1.766157 z m -0.01436,7.682065 v -7.03591 h 1.14872 v 7.03591 z"
           id="path10034" /><path
           d="m 87.391314,80.482662 -0.01436,-0.962053 3.762058,-5.011291 h -3.632827 v -1.019489 h 5.011291 v 0.904617 l -3.73334,5.068727 h 3.963084 v 1.019489 z"
           id="path10031" /><path
           d="m 94.355434,77.395477 q 0.114872,1.105643 1.105644,1.751798 0.689232,0.459488 1.522054,0.459488 1.206156,0 1.981542,-0.904617 0.244103,-0.28718 0.387693,-0.646155 h 1.177433 q -0.4882,1.478977 -1.823588,2.182568 -0.789745,0.416411 -1.694362,0.416411 -1.694362,0 -2.814365,-1.191797 -0.990771,-1.048207 -0.990771,-2.512825 0,-1.608208 1.191797,-2.670774 1.062567,-0.947694 2.541544,-0.947694 1.593849,0 2.699492,1.091284 0.330257,0.330257 0.560003,0.71795 0.47384,0.86154 0.4882,2.254363 z m 2.570262,-3.029749 q -1.306669,0 -2.067696,1.00513 -0.330258,0.43077 -0.459489,0.990771 h 5.111805 q -0.358975,-1.349746 -1.565131,-1.809234 -0.473847,-0.186667 -1.019489,-0.186667 z"
           id="path10028" /><path
           d="m 105.77087,72.800597 -0.0144,-1.766157 h 1.14872 v 1.766157 z m -0.0144,7.682065 v -7.03591 h 1.14872 v 7.03591 z"
           id="path10025" /><path
           d="m 113.5678,80.482662 v -3.661545 q 0,-1.220515 -0.44513,-1.751798 -0.54564,-0.703591 -1.62257,-0.703591 -1.14872,0 -1.69436,0.789745 -0.34461,0.473847 -0.34461,1.493336 v 3.833853 h -1.14872 v -6.992833 h 1.13436 v 0.732309 q 0.8759,-0.890258 2.16821,-0.890258 1.59385,0 2.44103,1.091284 0.58872,0.746668 0.63179,1.981542 l 0.0144,0.416411 v 3.661545 z"
           id="path10022" /><path
           d="m 126.26118,80.482662 v -1.00513 q -0.93334,1.076925 -2.3118,1.163079 -0.14359,0.01436 -0.30154,0.01436 -1.79487,0 -2.91488,-1.206156 -0.93333,-1.019489 -0.93333,-2.44103 0,-1.694362 1.24923,-2.771287 1.04821,-0.904617 2.54155,-0.904617 1.68,0 2.65641,1.177438 V 73.48983 h 1.14872 v 6.992833 z m -2.65642,-6.116934 q -1.26359,0 -2.06769,0.947694 -0.58872,0.703591 -0.58872,1.622567 0,1.306669 1.00513,2.096414 0.73231,0.57436 1.70872,0.57436 1.24923,0 2.02462,-0.976412 0.57436,-0.71795 0.57436,-1.680003 0,-1.277951 -0.99077,-2.038978 -0.71795,-0.545642 -1.66565,-0.545642 z"
           id="path10019" /><path
           d="m 138.0212,80.482662 v -3.661545 q 0,-1.220515 -0.44513,-1.751798 -0.54564,-0.703591 -1.62256,-0.703591 -1.14872,0 -1.69436,0.789745 -0.34462,0.473847 -0.34462,1.493336 v 3.833853 h -1.14872 v -6.992833 h 1.13436 v 0.732309 q 0.8759,-0.890258 2.16821,-0.890258 1.59385,0 2.44103,1.091284 0.58872,0.746668 0.6318,1.981542 l 0.0144,0.416411 v 3.661545 z"
           id="path10016" /><path
           d="m 141.42429,77.395477 q 0.11488,1.105643 1.10565,1.751798 0.68923,0.459488 1.52205,0.459488 1.20616,0 1.98154,-0.904617 0.24411,-0.28718 0.3877,-0.646155 h 1.17743 q -0.4882,1.478977 -1.82359,2.182568 -0.78974,0.416411 -1.69436,0.416411 -1.69436,0 -2.81437,-1.191797 -0.99077,-1.048207 -0.99077,-2.512825 0,-1.608208 1.1918,-2.670774 1.06257,-0.947694 2.54154,-0.947694 1.59385,0 2.6995,1.091284 0.33025,0.330257 0.56,0.71795 0.47384,0.86154 0.4882,2.254363 z m 2.57026,-3.029749 q -1.30666,0 -2.06769,1.00513 -0.33026,0.43077 -0.45949,0.990771 h 5.1118 q -0.35897,-1.349746 -1.56513,-1.809234 -0.47384,-0.186667 -1.01949,-0.186667 z"
           id="path10013" /><path
           d="m 156.02742,80.482662 h -1.13436 l -1.46462,-4.3077 -1.4359,4.3077 h -1.14872 l -2.75693,-6.992833 h 1.16308 l 2.15385,5.513856 1.57949,-4.681034 h 0.90462 l 1.6082,4.681034 2.19693,-5.513856 h 1.12 z"
           id="path10010" /><path
           d="m 169.81208,79.750353 q -1.29231,0.732309 -3.4318,0.732309 h -2.74257 v -9.821556 h 2.41231 q 2.28308,0 3.51796,0.617437 0.14359,0.07179 0.28718,0.157949 2.05334,1.191797 2.25436,3.661545 0.0287,0.244103 0.0287,0.516924 0,2.627697 -2.09641,3.991802 -0.11488,0.07179 -0.22975,0.14359 z m -0.61744,-7.409244 q -1.00513,-0.617437 -3.10154,-0.617437 h -1.27795 v 7.696424 h 1.27795 q 2.32616,0 3.38872,-0.775386 l 0.0718,-0.05744 q 1.30667,-1.048207 1.39282,-2.800005 0,-0.114872 0,-0.215385 0,-1.837952 -1.27795,-2.900518 -0.22974,-0.186667 -0.47385,-0.330257 z"
           id="path10007" /><path
           d="m 179.50439,80.482662 v -1.00513 q -0.93334,1.076925 -2.3118,1.163079 -0.14359,0.01436 -0.30154,0.01436 -1.79487,0 -2.91488,-1.206156 -0.93333,-1.019489 -0.93333,-2.44103 0,-1.694362 1.24923,-2.771287 1.04821,-0.904617 2.54154,-0.904617 1.68001,0 2.65642,1.177438 V 73.48983 h 1.14872 v 6.992833 z m -2.65642,-6.116934 q -1.26359,0 -2.06769,0.947694 -0.58872,0.703591 -0.58872,1.622567 0,1.306669 1.00513,2.096414 0.73231,0.57436 1.70872,0.57436 1.24923,0 2.02462,-0.976412 0.57436,-0.71795 0.57436,-1.680003 0,-1.277951 -0.99077,-2.038978 -0.71795,-0.545642 -1.66565,-0.545642 z"
           id="path10004" /><path
           d="m 184.04183,74.4806 v 6.002062 h -1.14872 V 74.4806 h -1.50769 v -1.033848 h 1.50769 V 71.03444 h 1.13436 v 2.412312 h 1.57949 V 74.4806 Z"
           id="path10001" /><path
           d="m 192.54237,80.482662 v -1.00513 q -0.93334,1.076925 -2.3118,1.163079 -0.14359,0.01436 -0.30154,0.01436 -1.79487,0 -2.91488,-1.206156 -0.93333,-1.019489 -0.93333,-2.44103 0,-1.694362 1.24923,-2.771287 1.04821,-0.904617 2.54154,-0.904617 1.68001,0 2.65642,1.177438 V 73.48983 h 1.14872 v 6.992833 z m -2.65642,-6.116934 q -1.26359,0 -2.06769,0.947694 -0.58872,0.703591 -0.58872,1.622567 0,1.306669 1.00513,2.096414 0.73231,0.57436 1.70872,0.57436 1.24923,0 2.02462,-0.976412 0.57436,-0.71795 0.57436,-1.680003 0,-1.277951 -0.99077,-2.038978 -0.71795,-0.545642 -1.66565,-0.545642 z"
           id="path9998" /><path
           d="m 197.79776,71.723672 v 8.75899 h -1.1918 v -8.75899 h -2.25436 v -1.062566 h 5.68616 v 1.062566 z"
           id="path9995" /><path
           d="m 201.60291,77.395477 q 0.11487,1.105643 1.10564,1.751798 0.68923,0.459488 1.52205,0.459488 1.20616,0 1.98154,-0.904617 0.24411,-0.28718 0.3877,-0.646155 h 1.17744 q -0.48821,1.478977 -1.8236,2.182568 -0.78974,0.416411 -1.69436,0.416411 -1.69436,0 -2.81436,-1.191797 -0.99077,-1.048207 -0.99077,-2.512825 0,-1.608208 1.19179,-2.670774 1.06257,-0.947694 2.54155,-0.947694 1.59384,0 2.69949,1.091284 0.33025,0.330257 0.56,0.71795 0.47385,0.86154 0.4882,2.254363 z m 2.57026,-3.029749 q -1.30667,0 -2.0677,1.00513 -0.33026,0.43077 -0.45949,0.990771 h 5.11181 q -0.35898,-1.349746 -1.56513,-1.809234 -0.47385,-0.186667 -1.01949,-0.186667 z"
           id="path9992" /><path
           d="m 215.10038,80.482662 -2.72821,-4.034879 -2.72821,4.034879 h -1.40718 l 3.40308,-5.02565 -3.21642,-4.795906 h 1.40719 l 2.54154,3.776417 2.54154,-3.776417 h 1.37847 l -3.21642,4.795906 3.41744,5.02565 z"
           id="path9989" /><path
           d="m 227.29118,80.482662 v -1.048207 q -0.91898,1.14872 -2.35488,1.220515 h -0.20102 q -1.78052,0 -2.92924,-1.206156 -0.99077,-1.033848 -0.99077,-2.484107 0,-1.680003 1.24923,-2.756928 1.06257,-0.918976 2.57026,-0.918976 1.59385,0 2.65642,1.091284 V 71.03444 h 1.14872 v 9.448222 z m -2.67078,-6.160011 q -1.27795,0 -2.06769,0.962053 -0.58872,0.71795 -0.58872,1.651285 0,1.306669 1.00513,2.096414 0.74667,0.57436 1.73744,0.57436 1.22051,0 2.01026,-0.962053 0.61744,-0.746668 0.61744,-1.708721 0,-1.206156 -0.96206,-1.995901 -0.76102,-0.617437 -1.7518,-0.617437 z"
           id="path9986" /><path
           d="m 236.02146,80.482662 v -1.00513 q -0.93333,1.076925 -2.3118,1.163079 -0.14359,0.01436 -0.30153,0.01436 -1.79488,0 -2.91488,-1.206156 -0.93334,-1.019489 -0.93334,-2.44103 0,-1.694362 1.24924,-2.771287 1.0482,-0.904617 2.54154,-0.904617 1.68,0 2.65641,1.177438 V 73.48983 h 1.14872 v 6.992833 z m -2.65641,-6.116934 q -1.26359,0 -2.0677,0.947694 -0.58872,0.703591 -0.58872,1.622567 0,1.306669 1.00513,2.096414 0.73231,0.57436 1.70872,0.57436 1.24924,0 2.02462,-0.976412 0.57436,-0.71795 0.57436,-1.680003 0,-1.277951 -0.99077,-2.038978 -0.71795,-0.545642 -1.66564,-0.545642 z"
           id="path9983" /><path
           d="m 240.55891,74.4806 v 6.002062 h -1.14872 V 74.4806 h -1.5077 v -1.033848 h 1.5077 V 71.03444 h 1.13436 v 2.412312 h 1.57949 V 74.4806 Z"
           id="path9980" /><path
           d="m 249.05944,80.482662 v -1.00513 q -0.93333,1.076925 -2.3118,1.163079 -0.14359,0.01436 -0.30154,0.01436 -1.79487,0 -2.91487,-1.206156 -0.93334,-1.019489 -0.93334,-2.44103 0,-1.694362 1.24924,-2.771287 1.0482,-0.904617 2.54154,-0.904617 1.68,0 2.65641,1.177438 V 73.48983 h 1.14872 v 6.992833 z m -2.65641,-6.116934 q -1.26359,0 -2.0677,0.947694 -0.58872,0.703591 -0.58872,1.622567 0,1.306669 1.00513,2.096414 0.73231,0.57436 1.70872,0.57436 1.24924,0 2.02462,-0.976412 0.57436,-0.71795 0.57436,-1.680003 0,-1.277951 -0.99077,-2.038978 -0.71795,-0.545642 -1.66564,-0.545642 z"
           id="path9977" /><path
           d="m 255.36303,80.65497 q -1.66565,0 -2.6277,-1.163079 v 0.990771 h -1.14872 V 71.03444 h 1.13436 v 3.403083 q 0.97641,-1.14872 2.65642,-1.14872 1.70872,0 2.82872,1.191797 0.96205,1.033848 0.96205,2.469748 0,1.708721 -1.23487,2.785646 -1.06257,0.918976 -2.57026,0.918976 z m 0,-6.332319 q -1.32103,0 -2.12513,0.976412 -0.57436,0.703591 -0.57436,1.636926 0,1.076925 0.77538,1.881029 0.77539,0.789745 1.90975,0.789745 1.34974,0 2.12513,-1.00513 0.54564,-0.71795 0.54564,-1.665644 0,-1.306669 -1.00513,-2.067696 -0.70359,-0.545642 -1.65128,-0.545642 z"
           id="path9974" /><path
           d="m 266.47691,80.482662 v -1.00513 q -0.93334,1.076925 -2.3118,1.163079 -0.14359,0.01436 -0.30154,0.01436 -1.79488,0 -2.91488,-1.206156 -0.93333,-1.019489 -0.93333,-2.44103 0,-1.694362 1.24923,-2.771287 1.04821,-0.904617 2.54154,-0.904617 1.68001,0 2.65642,1.177438 V 73.48983 h 1.14872 v 6.992833 z m -2.65642,-6.116934 q -1.26359,0 -2.06769,0.947694 -0.58872,0.703591 -0.58872,1.622567 0,1.306669 1.00513,2.096414 0.73231,0.57436 1.70872,0.57436 1.24923,0 2.02462,-0.976412 0.57436,-0.71795 0.57436,-1.680003 0,-1.277951 -0.99077,-2.038978 -0.71795,-0.545642 -1.66565,-0.545642 z"
           id="path9971" /><path
           d="m 270.78459,80.65497 q -1.4359,0 -2.05334,-1.105643 -0.28718,-0.531283 -0.30153,-1.249233 h 1.12 q 0.0862,1.234874 1.23487,1.306669 0.70359,0 0.97641,-0.588719 0.10052,-0.229744 0.10052,-0.488206 0,-0.560001 -0.40206,-0.804104 -0.2441,-0.157949 -0.89025,-0.43077 l -0.91898,-0.373334 q -0.2441,-0.14359 -0.40205,-0.301539 -0.56,-0.502565 -0.56,-1.29231 0,-1.076925 0.8759,-1.651285 0.51692,-0.344616 1.20615,-0.344616 1.22052,0 1.78052,0.976412 v 0 q 0.14359,0.244103 0.21538,0.531283 0.0574,0.244103 0.0718,0.516924 h -1.14872 q -0.0862,-0.990771 -0.93334,-0.990771 -0.58872,0 -0.83282,0.502565 -0.0861,0.172308 -0.0861,0.387693 0,0.545642 0.58872,0.804104 l 1.52205,0.646155 q 0.94769,0.502565 1.04821,1.464618 0.0144,0.129231 0.0144,0.272821 0,1.191797 -0.91898,1.823593 -0.56,0.387693 -1.30667,0.387693 z"
           id="path9968" /><path
           d="m 274.83383,77.395477 q 0.11487,1.105643 1.10564,1.751798 0.68924,0.459488 1.52206,0.459488 1.20615,0 1.98154,-0.904617 0.2441,-0.28718 0.38769,-0.646155 h 1.17744 q -0.4882,1.478977 -1.82359,2.182568 -0.78975,0.416411 -1.69436,0.416411 -1.69437,0 -2.81437,-1.191797 -0.99077,-1.048207 -0.99077,-2.512825 0,-1.608208 1.1918,-2.670774 1.06256,-0.947694 2.54154,-0.947694 1.59385,0 2.69949,1.091284 0.33026,0.330257 0.56,0.71795 0.47385,0.86154 0.48821,2.254363 z m 2.57026,-3.029749 q -1.30667,0 -2.06769,1.00513 -0.33026,0.43077 -0.45949,0.990771 h 5.1118 q -0.35897,-1.349746 -1.56513,-1.809234 -0.47385,-0.186667 -1.01949,-0.186667 z"
           id="path9965" /><g
           id="g3142"
           transform="translate(0,-0.1771355)"><path
             d="m 71.224881,97.12239 h -1.20616 l 1.17744,-2.72821 -2.75693,-6.720012 h 1.24923 l 2.1395,5.31283 2.29744,-5.31283 h 1.22051 z"
             id="path9962" /><path
             d="m 79.596161,94.839309 q -1.83795,0 -2.9436,-1.249233 -0.90461,-1.019489 -0.90461,-2.469748 0,-1.636926 1.22051,-2.685133 1.06257,-0.918976 2.5559,-0.918976 1.78052,0 2.85745,1.234874 0.87589,1.00513 0.87589,2.44103 0,1.72308 -1.23487,2.785646 -1.00513,0.86154 -2.42667,0.86154 z m -0.0718,-6.289242 q -1.33538,0 -2.09641,0.990771 -0.53128,0.689232 -0.53128,1.608208 0,1.407182 1.0482,2.15385 0.68924,0.488206 1.62257,0.488206 1.33539,0 2.05334,-1.00513 0.4882,-0.674873 0.4882,-1.57949 0,-1.364105 -1.00513,-2.139491 -0.68923,-0.516924 -1.57949,-0.516924 z"
             id="path9959" /><path
             d="m 89.604391,94.667001 v -0.818463 q -0.71795,0.990771 -2.15385,0.990771 -1.66564,0 -2.49846,-1.134361 -0.57436,-0.761027 -0.57436,-2.254363 v -3.776417 h 1.13436 v 3.776417 q 0,0.976412 0.3159,1.536413 0.50256,0.804104 1.69436,0.804104 1.10564,0 1.66564,-0.804104 0.40205,-0.545642 0.40205,-1.72308 v -3.58975 h 1.14872 v 6.992833 z"
             id="path9956" /><path
             d="m 93.294661,90.603404 v 4.063597 h -1.14872 v -6.992833 h 1.13436 v 0.71795 q 0.60308,-0.832822 1.9959,-0.875899 v 1.076925 q -1.86667,0.172308 -1.96718,1.780516 l -0.0144,0.01436 z"
             id="path9953" /><path
             d="m 105.98803,94.035205 q -1.04821,0.804104 -2.3836,0.804104 -1.76616,0 -2.91488,-1.191797 -1.005129,-1.048207 -1.005129,-2.498466 0,-1.593849 1.220519,-2.656415 1.10564,-0.976412 2.6277,-0.976412 1.83795,0 2.97231,1.335387 0.40205,0.473847 0.64616,1.076925 h -1.24924 q -0.81846,-1.378464 -2.38359,-1.378464 -1.30667,0 -2.11078,0.976412 -0.57436,0.71795 -0.57436,1.651285 0,1.234874 0.99078,2.024619 0.74666,0.588719 1.73744,0.588719 1.10564,0 1.90974,-0.804104 0.15795,-0.157949 0.3159,-0.358975 l 0.11487,-0.14359 h 1.27795 q -0.56,1.033848 -1.09128,1.464618 z"
             id="path9950" /><path
             d="m 113.44036,94.667001 v -0.818463 q -0.71795,0.990771 -2.15385,0.990771 -1.66564,0 -2.49846,-1.134361 -0.57436,-0.761027 -0.57436,-2.254363 v -3.776417 h 1.13436 v 3.776417 q 0,0.976412 0.31589,1.536413 0.50257,0.804104 1.69437,0.804104 1.10564,0 1.66564,-0.804104 0.40205,-0.545642 0.40205,-1.72308 v -3.58975 h 1.14872 v 6.992833 z"
             id="path9947" /><path
             d="m 117.76239,94.839309 q -1.4359,0 -2.05334,-1.105643 -0.28718,-0.531283 -0.30154,-1.249233 h 1.12001 q 0.0861,1.234874 1.23487,1.306669 0.70359,0 0.97641,-0.588719 0.10051,-0.229744 0.10051,-0.488206 0,-0.560001 -0.40205,-0.804104 -0.2441,-0.157949 -0.89026,-0.43077 l -0.91897,-0.373334 q -0.2441,-0.14359 -0.40205,-0.301539 -0.56,-0.502565 -0.56,-1.29231 0,-1.076925 0.87589,-1.651285 0.51693,-0.344616 1.20616,-0.344616 1.22052,0 1.78052,0.976412 v 0 q 0.14359,0.244103 0.21538,0.531283 0.0574,0.244103 0.0718,0.516924 h -1.14872 q -0.0862,-0.990771 -0.93334,-0.990771 -0.58872,0 -0.83282,0.502565 -0.0862,0.172308 -0.0862,0.387693 0,0.545642 0.58871,0.804104 l 1.52206,0.646155 q 0.94769,0.502565 1.04821,1.464618 0.0143,0.129231 0.0143,0.272821 0,1.191797 -0.91897,1.823593 -0.56,0.387693 -1.30667,0.387693 z"
             id="path9944" /><path
             d="m 122.94599,88.664939 v 6.002062 h -1.14872 v -6.002062 h -1.50769 v -1.033848 h 1.50769 v -2.412312 h 1.13436 v 2.412312 h 1.57949 v 1.033848 z"
             id="path9941" /><path
             d="m 128.8332,94.839309 q -1.83795,0 -2.94359,-1.249233 -0.90462,-1.019489 -0.90462,-2.469748 0,-1.636926 1.22052,-2.685133 1.06256,-0.918976 2.5559,-0.918976 1.78052,0 2.85744,1.234874 0.8759,1.00513 0.8759,2.44103 0,1.72308 -1.23487,2.785646 -1.00513,0.86154 -2.42668,0.86154 z m -0.0718,-6.289242 q -1.33539,0 -2.09641,0.990771 -0.53129,0.689232 -0.53129,1.608208 0,1.407182 1.04821,2.15385 0.68923,0.488206 1.62257,0.488206 1.33538,0 2.05333,-1.00513 0.48821,-0.674873 0.48821,-1.57949 0,-1.364105 -1.00513,-2.139491 -0.68923,-0.516924 -1.57949,-0.516924 z"
             id="path9938" /><path
             d="m 143.06297,94.667001 v -4.034879 q 0,-0.990771 -0.37333,-1.478977 -0.45949,-0.617437 -1.39283,-0.617437 -1.00513,0 -1.50769,0.732309 -0.3159,0.502565 -0.3159,1.364105 v 4.034879 h -1.13436 v -4.063597 q 0,-1.00513 -0.41641,-1.464618 -0.50257,-0.588719 -1.37847,-0.588719 -1.33538,0 -1.68,1.234874 -0.10051,0.358975 -0.10051,0.818463 v 4.063597 h -1.14872 v -6.992833 h 1.13436 v 0.617437 q 0.68923,-0.746668 1.88103,-0.775386 1.45026,0 2.22564,1.14872 l 0.0574,0.0718 q 0.86154,-1.234874 2.42667,-1.234874 1.46462,0 2.26872,1.00513 0.58872,0.761027 0.58872,2.024619 v 4.135392 z"
             id="path9935" /></g><path
           d="m 150.54946,94.482685 -0.0144,-9.821556 h 1.17744 v 8.75899 h 4.07796 v 1.062566 z"
           id="path9932" /><path
           d="m 162.65408,94.482685 v -1.00513 q -0.93333,1.076925 -2.3118,1.163079 -0.14359,0.01436 -0.30153,0.01436 -1.79488,0 -2.91488,-1.206156 -0.93334,-1.019489 -0.93334,-2.44103 0,-1.694362 1.24924,-2.771287 1.0482,-0.904617 2.54154,-0.904617 1.68,0 2.65641,1.177438 v -1.019489 h 1.14872 v 6.992833 z m -2.65641,-6.116934 q -1.26359,0 -2.0677,0.947694 -0.58872,0.703591 -0.58872,1.622567 0,1.306669 1.00513,2.096414 0.73231,0.57436 1.70872,0.57436 1.24924,0 2.02462,-0.976412 0.57436,-0.71795 0.57436,-1.680003 0,-1.277951 -0.99077,-2.038978 -0.71795,-0.545642 -1.66564,-0.545642 z"
           id="path9929" /><path
           d="m 167.90947,85.723695 v 8.75899 h -1.1918 v -8.75899 h -2.25436 v -1.062566 h 5.68617 v 1.062566 z"
           id="path9926" /><path
           d="m 171.71462,91.3955 q 0.11487,1.105643 1.10564,1.751798 0.68924,0.459488 1.52206,0.459488 1.20615,0 1.98154,-0.904617 0.2441,-0.28718 0.38769,-0.646155 h 1.17744 q -0.4882,1.478977 -1.82359,2.182568 -0.78975,0.416411 -1.69436,0.416411 -1.69437,0 -2.81437,-1.191797 -0.99077,-1.048207 -0.99077,-2.512825 0,-1.608208 1.1918,-2.670774 1.06256,-0.947694 2.54154,-0.947694 1.59385,0 2.69949,1.091284 0.33026,0.330257 0.56001,0.71795 0.47384,0.86154 0.4882,2.254363 z m 2.57026,-3.029749 q -1.30667,0 -2.06769,1.00513 -0.33026,0.43077 -0.45949,0.990771 h 5.1118 q -0.35897,-1.349746 -1.56513,-1.809234 -0.47385,-0.186667 -1.01949,-0.186667 z"
           id="path9923" /><path
           d="m 185.2121,94.482685 -2.72821,-4.034879 -2.72821,4.034879 h -1.40718 l 3.40308,-5.02565 -3.21642,-4.795906 h 1.40719 l 2.54154,3.776417 2.54154,-3.776417 h 1.37847 l -3.21642,4.795906 3.41744,5.02565 z"
           id="path9920" /><path
           d="m 194.97623,94.69807 q -1.66565,0 -2.6277,-1.163079 v 3.403083 h -1.14872 v -9.448222 h 1.13436 v 0.990771 q 0.97641,-1.14872 2.65642,-1.14872 1.72308,0 2.82872,1.206156 0.96205,1.033848 0.96205,2.498466 0,1.636926 -1.22051,2.713851 -1.09129,0.947694 -2.58462,0.947694 z m -0.0144,-6.332319 q -1.30667,0 -2.11077,0.976412 -0.57436,0.703591 -0.57436,1.636926 0,1.349746 1.01948,2.125132 0.71795,0.545642 1.68001,0.545642 1.32103,0 2.09641,-0.990771 0.56,-0.689232 0.56,-1.622567 0,-1.364105 -1.03385,-2.139491 -0.70359,-0.531283 -1.63692,-0.531283 z"
           id="path9917" /><path
           d="m 206.0901,94.482685 v -1.00513 q -0.93333,1.076925 -2.3118,1.163079 -0.14359,0.01436 -0.30154,0.01436 -1.79487,0 -2.91487,-1.206156 -0.93334,-1.019489 -0.93334,-2.44103 0,-1.694362 1.24923,-2.771287 1.04821,-0.904617 2.54155,-0.904617 1.68,0 2.65641,1.177438 v -1.019489 h 1.14872 v 6.992833 z m -2.65641,-6.116934 q -1.2636,0 -2.0677,0.947694 -0.58872,0.703591 -0.58872,1.622567 0,1.306669 1.00513,2.096414 0.73231,0.57436 1.70872,0.57436 1.24923,0 2.02462,-0.976412 0.57436,-0.71795 0.57436,-1.680003 0,-1.277951 -0.99077,-2.038978 -0.71795,-0.545642 -1.66564,-0.545642 z"
           id="path9914" /><path
           d="m 214.64806,93.850889 q -1.04821,0.804104 -2.38359,0.804104 -1.76616,0 -2.91488,-1.191797 -1.00513,-1.048207 -1.00513,-2.498466 0,-1.593849 1.22051,-2.656415 1.10565,-0.976412 2.6277,-0.976412 1.83795,0 2.97231,1.335387 0.40206,0.473847 0.64616,1.076925 h -1.24923 q -0.81847,-1.378464 -2.3836,-1.378464 -1.30667,0 -2.11077,0.976412 -0.57436,0.71795 -0.57436,1.651285 0,1.234874 0.99077,2.024619 0.74667,0.588719 1.73744,0.588719 1.10564,0 1.90975,-0.804104 0.15794,-0.157949 0.31589,-0.358975 l 0.11488,-0.14359 h 1.27795 q -0.56,1.033848 -1.09129,1.464618 z"
           id="path9911" /><path
           d="m 221.29629,94.482685 -2.28308,-2.685133 -0.99077,1.220515 v 1.464618 h -1.14872 v -9.448222 h 1.13436 v 6.375396 l 3.1159,-3.963084 h 1.40719 l -2.78565,3.532314 2.98667,3.503596 z"
           id="path9908" /><path
           d="m 229.46655,94.482685 v -1.00513 q -0.93333,1.076925 -2.31179,1.163079 -0.14359,0.01436 -0.30154,0.01436 -1.79488,0 -2.91488,-1.206156 -0.93334,-1.019489 -0.93334,-2.44103 0,-1.694362 1.24924,-2.771287 1.0482,-0.904617 2.54154,-0.904617 1.68,0 2.65642,1.177438 v -1.019489 h 1.14872 v 6.992833 z m -2.65641,-6.116934 q -1.26359,0 -2.0677,0.947694 -0.58872,0.703591 -0.58872,1.622567 0,1.306669 1.00513,2.096414 0.73231,0.57436 1.70873,0.57436 1.24923,0 2.02461,-0.976412 0.57436,-0.71795 0.57436,-1.680003 0,-1.277951 -0.99077,-2.038978 -0.71795,-0.545642 -1.66564,-0.545642 z"
           id="path9905" /><path
           d="m 238.51272,95.961662 q -0.8759,1.14872 -2.61334,1.249233 l -0.30153,0.01436 q -2.57027,0 -3.5036,-2.268722 -0.0718,-0.201026 -0.14359,-0.402052 h 1.10564 q 0.40205,0.689232 0.70359,0.976412 0.74667,0.660514 1.80924,0.660514 1.4359,0 2.06769,-0.947694 0.0718,-0.114872 0.12924,-0.244103 0.28718,-0.57436 0.28718,-1.493336 v -0.114872 q -0.84719,1.306669 -2.58463,1.306669 -1.68,0 -2.78564,-1.191797 -0.96205,-1.019489 -0.96205,-2.455389 0,-1.737439 1.22051,-2.814364 1.03385,-0.904617 2.46975,-0.904617 1.65128,0 2.6277,1.191797 v -1.033848 h 1.14872 v 5.729241 q 0,1.72308 -0.53129,2.541543 z m -3.05846,-7.595911 q -1.36411,0 -2.09642,1.019489 -0.4882,0.674873 -0.4882,1.57949 0,1.378464 1.01948,2.15385 0.67488,0.531283 1.57949,0.531283 1.2636,0 2.02462,-0.990771 0.56001,-0.732309 0.56001,-1.72308 0,-1.263592 -0.97642,-2.024619 -0.68923,-0.545642 -1.62256,-0.545642 z"
           id="path9902" /><path
           d="m 241.4563,91.3955 q 0.11487,1.105643 1.10564,1.751798 0.68923,0.459488 1.52206,0.459488 1.20615,0 1.98154,-0.904617 0.2441,-0.28718 0.38769,-0.646155 h 1.17744 q -0.48821,1.478977 -1.82359,2.182568 -0.78975,0.416411 -1.69437,0.416411 -1.69436,0 -2.81436,-1.191797 -0.99077,-1.048207 -0.99077,-2.512825 0,-1.608208 1.1918,-2.670774 1.06256,-0.947694 2.54154,-0.947694 1.59385,0 2.69949,1.091284 0.33026,0.330257 0.56,0.71795 0.47385,0.86154 0.48821,2.254363 z m 2.57026,-3.029749 q -1.30667,0 -2.0677,1.00513 -0.33025,0.43077 -0.45948,0.990771 h 5.1118 q -0.35898,-1.349746 -1.56513,-1.809234 -0.47385,-0.186667 -1.01949,-0.186667 z"
           id="path9899" /><path
           d="m 250.66044,94.654993 q -1.4359,0 -2.05334,-1.105643 -0.28718,-0.531283 -0.30154,-1.249233 h 1.12 q 0.0862,1.234874 1.23488,1.306669 0.70359,0 0.97641,-0.588719 0.10051,-0.229744 0.10051,-0.488206 0,-0.560001 -0.40205,-0.804104 -0.2441,-0.157949 -0.89026,-0.43077 l -0.91897,-0.373334 q -0.24411,-0.14359 -0.40206,-0.301539 -0.56,-0.502565 -0.56,-1.29231 0,-1.076925 0.8759,-1.651285 0.51693,-0.344616 1.20616,-0.344616 1.22051,0 1.78051,0.976412 v 0 q 0.14359,0.244103 0.21539,0.531283 0.0574,0.244103 0.0718,0.516924 h -1.14872 q -0.0862,-0.990771 -0.93333,-0.990771 -0.58872,0 -0.83282,0.502565 -0.0862,0.172308 -0.0862,0.387693 0,0.545642 0.58872,0.804104 l 1.52206,0.646155 q 0.94769,0.502565 1.0482,1.464618 0.0144,0.129231 0.0144,0.272821 0,1.191797 -0.91897,1.823593 -0.56,0.387693 -1.30667,0.387693 z"
           id="path9896" /><path
           d="m 254.33634,94.482685 -0.0144,-1.608208 h 1.14872 v 1.608208 z"
           id="path9893" /></g></g><g
       aria-label="Packages"
       transform="matrix(0.33271755,0,0,0.33271755,47.885321,-11.529407)"
       id="text367"
       style="font-size:40px;line-height:1.25;white-space:pre;shape-inside:url(#rect369);display:inline;fill:#f2f2f2"><path
         d="m -83.536448,74.680945 q -1.476923,0.923077 -4.8,0.984615 h -0.83077 -1.015384 v 7.815385 h -4.338462 V 62.434791 h 5.415385 q 3.753846,0 5.507692,0.984615 2.707693,1.6 2.923077,5.046154 0.03077,0.276923 0.03077,0.553846 0,3.169231 -2.030769,5.015385 l -0.03077,0.03077 q -0.03077,0.03077 -0.03077,0.03077 z m -3.138462,-7.969231 q -0.738461,-0.184615 -2.430769,-0.184615 h -1.107692 v 5.015384 h 0.953846 q 2.276923,0 3.076923,-0.4 1.169231,-0.615384 1.169231,-2.061538 0,-1.753846 -1.446154,-2.307692 z"
         style="font-weight:bold;font-family:KerkisSans;-inkscape-font-specification:'KerkisSans Bold'"
         id="path10073" /><path
         d="m -66.582572,83.480945 v -1.661539 q -1.938461,1.938462 -5.015384,2.03077 -3.846154,0 -6.184616,-2.707693 -1.907692,-2.215384 -1.907692,-5.415384 0,-3.907693 2.707692,-6.276923 2.246154,-1.969231 5.476923,-1.969231 3.076923,0 4.892308,2.030769 v -1.661538 h 3.876923 V 83.480945 Z M -71.105649,71.26556 q -2.461538,0 -3.661538,1.969231 -0.707693,1.107692 -0.707693,2.584615 0,2.492308 1.969231,3.63077 1.076923,0.615384 2.461539,0.615384 2.092307,0 3.230769,-1.292307 1.107692,-1.261539 1.107692,-2.984616 0,-2.615384 -1.969231,-3.846154 -1.046153,-0.676923 -2.430769,-0.676923 z"
         style="font-weight:bold;font-family:KerkisSans;-inkscape-font-specification:'KerkisSans Bold'"
         id="path10070" /><path
         d="m -52.521054,83.850176 q -3.723077,0 -6.246154,-2.553847 -2.338461,-2.36923 -2.338461,-5.630769 0,-3.6 2.676923,-6.030769 2.4,-2.153846 5.784615,-2.153846 3.446154,0 5.907692,2.215384 1.292308,1.169231 1.938462,2.8 0.153846,0.369231 0.307692,0.861539 h -4.646154 q -1.107692,-2.092308 -3.507692,-2.092308 -2.369231,0 -3.569231,1.876923 -0.676923,1.076923 -0.676923,2.492308 0,2.461538 1.876923,3.723077 1.076923,0.707692 2.461539,0.707692 2,0 3.2,-1.630769 0.123077,-0.184615 0.246154,-0.369231 h 4.646153 q -1.753846,4.584616 -6,5.569231 -0.984615,0.215385 -2.061538,0.215385 z"
         style="font-weight:bold;font-family:KerkisSans;-inkscape-font-specification:'KerkisSans Bold'"
         id="path10067" /><path
         d="m -33.197969,83.480945 -4.984616,-6.738462 v 6.738462 h -4.215384 V 62.650176 h 4.184615 v 11.846153 l 4.676923,-6.76923 h 5.015385 l -5.753846,7.723077 6.676923,8.030769 z"
         style="font-weight:bold;font-family:KerkisSans;-inkscape-font-specification:'KerkisSans Bold'"
         id="path10064" /><path
         d="m -13.628775,83.480945 v -1.661539 q -1.938462,1.938462 -5.015385,2.03077 -3.846154,0 -6.184615,-2.707693 -1.907693,-2.215384 -1.907693,-5.415384 0,-3.907693 2.707693,-6.276923 2.246153,-1.969231 5.476923,-1.969231 3.076923,0 4.892307,2.030769 v -1.661538 h 3.8769234 V 83.480945 Z M -18.151852,71.26556 q -2.461539,0 -3.661539,1.969231 -0.707692,1.107692 -0.707692,2.584615 0,2.492308 1.969231,3.63077 1.076923,0.615384 2.461538,0.615384 2.092308,0 3.230769,-1.292307 1.107693,-1.261539 1.107693,-2.984616 0,-2.615384 -1.969231,-3.846154 -1.046154,-0.676923 -2.430769,-0.676923 z"
         style="font-weight:bold;font-family:KerkisSans;-inkscape-font-specification:'KerkisSans Bold'"
         id="path10061" /><path
         d="m 7.0481269,86.834791 q -2.2461538,2.892308 -6.67692305,2.892308 -4.98461535,0 -7.44615385,-3.63077 -0.5230769,-0.76923 -0.8923077,-1.661538 h 4.6461539 q 1.3230769,1.415385 3.07692303,1.569231 L 0.52505,86.034791 q 3.6923077,0 4.0923077,-4.092308 -1.9384615,2.03077 -4.86153847,2.03077 -3.81538463,0 -6.06153843,-2.83077 -1.8461539,-2.276923 -1.8461539,-5.538461 0,-3.753846 2.5538462,-6.092308 2.2153846,-2.030769 5.38461536,-2.030769 3.20000004,0 4.86153844,1.938461 v -1.56923 h 4.0307693 v 12.646153 q 0,4.276924 -1.6307693,6.338462 z M 0.21735769,71.26556 q -2.52307689,0 -3.59999999,2.092308 -0.5538462,1.046154 -0.5538462,2.430769 0,2.8 2.0615385,3.876923 0.92307692,0.492308 2.12307692,0.492308 2.64615388,0 3.75384618,-2.061539 0.5230769,-1.015384 0.5230769,-2.307692 0,-2.676923 -2,-3.907692 Q 1.5096654,71.26556 0.21735769,71.26556 Z"
         style="font-weight:bold;font-family:KerkisSans;-inkscape-font-specification:'KerkisSans Bold'"
         id="path10058" /><path
         d="M 26.986568,77.511714 H 15.017337 q 0.615385,1.938462 2.8,2.430769 0.584615,0.123077 1.230769,0.123077 1.846154,0 3.015385,-1.138461 0.153846,-0.153846 0.338461,-0.369231 h 4.461539 q -0.430769,1.353846 -1.353846,2.461538 -2.461539,2.83077 -6.369231,2.83077 -3.907692,0 -6.461539,-2.615385 -2.246153,-2.307692 -2.246153,-5.507692 0,-3.6 2.646153,-6.03077 2.43077,-2.215384 5.815385,-2.215384 3.876923,0 6.276923,2.738461 2.030769,2.338462 2.030769,5.661539 0,0.646154 -0.215384,1.630769 z M 18.955799,71.26556 q -3.107693,0 -4.061539,2.584616 h 8.092308 Q 22.248106,71.26556 18.955799,71.26556 Z"
         style="font-weight:bold;font-family:KerkisSans;-inkscape-font-specification:'KerkisSans Bold'"
         id="path10055" /><path
         d="m 34.125037,83.850176 q -2.769231,0 -4.492308,-1.784616 l -0.36923,-0.430769 q -0.83077,-1.138462 -1.076923,-3.169231 l -0.03077,-0.246154 h 4.184616 q 0.461538,1.6 1.415384,1.784616 l 0.492308,0.06154 q 1.169231,0 1.446154,-0.892307 l 0.06154,-0.369231 q 0,-1.015385 -2.092307,-1.630769 0.09231,0.03077 -0.246154,-0.06154 l -0.03077,-0.03077 -0.153847,-0.03077 q -3.415384,-1.138462 -4.215384,-2.984616 -0.307693,-0.738461 -0.307693,-1.723077 0,-2.4 2.061539,-3.846154 1.476923,-1.015384 3.353846,-1.015384 2.584615,0 4.184615,1.753846 1.046154,1.107692 1.169231,2.984615 v 0.03077 l 0.03077,0.215384 h -4.061538 q -0.307692,-1.2 -1.323077,-1.2 -0.892308,0 -1.169231,0.738462 v 0.03077 l -0.03077,0.03077 q -0.03077,0.123077 -0.03077,0.276923 0,0.584616 1.046154,0.984616 v 0 h 0.03077 q 0,0 0.09231,0.03077 l 2.738461,0.892308 q 0.984616,0.4 1.569231,0.892307 1.538461,1.2 1.538461,3.292308 0,2.615385 -2.123076,4.246154 -1.6,1.169231 -3.661539,1.169231 z"
         style="font-weight:bold;font-family:KerkisSans;-inkscape-font-specification:'KerkisSans Bold'"
         id="path10052" /></g><path
       d="M 9.9161581,9.2866128 7.0046866,10.378415 c -0.261752,0.09798 -0.435321,0.349937 -0.435321,0.629886 v 3.150829 c 0,0.254754 0.1441739,0.487111 0.370933,0.600491 l 2.9114715,1.455736 c 0.1889659,0.09518 0.4115259,0.09518 0.6004909,0 l 2.911473,-1.455736 c 0.228158,-0.11338 0.370932,-0.347137 0.370932,-0.600491 v -3.150829 c 0,-0.279949 -0.173568,-0.530504 -0.435321,-0.628486 L 10.387873,9.2880128 c -0.151173,-0.05879 -0.319142,-0.05879 -0.4717149,-0.0014 z m 0.2365579,0.8692422 2.687512,1.007818 v 0.0154 l -2.687512,1.091802 -2.6875125,-1.091802 v -0.0154 z m 0.447918,4.983097 V 13.05473 l 2.239594,-0.909835 v 1.87426 z"
       id="path2"
       style="fill:#f2f2f2;stroke-width:0.0139974" /></g><style
     type="text/css"
     id="current-color-scheme">
        .ColorScheme-Text {
            color:#232629;
        }
    </style></svg>
