<?xml version="1.0" encoding="UTF-8" standalone="no"?>
<!-- Created with Inkscape (http://www.inkscape.org/) -->

<svg
   width="255.99998"
   height="128"
   viewBox="0 0 67.733321 33.866667"
   version="1.1"
   id="svg5"
   xml:space="preserve"
   sodipodi:docname="PreamblesDB.svg"
   inkscape:version="1.2.2 (b0a8486541, 2022-12-01)"
   xmlns:inkscape="http://www.inkscape.org/namespaces/inkscape"
   xmlns:sodipodi="http://sodipodi.sourceforge.net/DTD/sodipodi-0.dtd"
   xmlns="http://www.w3.org/2000/svg"
   xmlns:svg="http://www.w3.org/2000/svg"><sodipodi:namedview
     id="namedview8682"
     pagecolor="#505050"
     bordercolor="#eeeeee"
     borderopacity="1"
     inkscape:showpageshadow="0"
     inkscape:pageopacity="0"
     inkscape:pagecheckerboard="0"
     inkscape:deskcolor="#505050"
     showgrid="false"
     inkscape:zoom="1.3037281"
     inkscape:cx="-21.093355"
     inkscape:cy="58.294364"
     inkscape:window-width="1366"
     inkscape:window-height="694"
     inkscape:window-x="0"
     inkscape:window-y="0"
     inkscape:window-maximized="1"
     inkscape:current-layer="text385" /><defs
     id="defs2"><rect
       x="7.9878626"
       y="68.10704"
       width="390.31607"
       height="59.552677"
       id="rect387" /><rect
       x="-96.244637"
       y="47.086346"
       width="219.45601"
       height="95.854347"
       id="rect369" /><rect
       x="7.9878626"
       y="68.10704"
       width="390.31607"
       height="59.552677"
       id="rect387-7" /><rect
       x="7.9878626"
       y="68.10704"
       width="390.31607"
       height="59.552677"
       id="rect387-3" /></defs><g
     aria-label="Store the preambles you use to compile your projects in a new DataTeX database."
     transform="matrix(0.2587881,0,0,0.2587881,-18.697801,0.15418891)"
     id="text385"
     style="font-size:18.6667px;line-height:0.75;font-family:KerkisSans;-inkscape-font-specification:KerkisSans;text-align:center;white-space:pre;shape-inside:url(#rect387);display:inline;fill:#f2f2f2"><g
       aria-label="Store the preambles of your projects 
in a new DataTeX database."
       transform="translate(1.8666878,3.5422854)"
       id="text385-5"
       style="shape-inside:url(#rect387-3);display:inline"><path
         d="m 91.404618,80.65497 q -1.766157,0 -2.627697,-1.29231 -0.488206,-0.732309 -0.545642,-1.766157 h 1.249233 q 0.08615,0.86154 0.445129,1.29231 0.531283,0.689232 1.507695,0.689232 1.048207,0 1.565131,-0.818463 0.272821,-0.445129 0.272821,-1.00513 0,-0.86154 -0.631796,-1.29231 -0.459488,-0.315898 -1.665644,-0.674873 -1.191797,-0.358975 -1.694362,-0.832822 -0.703591,-0.631796 -0.732309,-1.766157 0,-1.392823 1.076925,-2.15385 0.732309,-0.545642 1.751798,-0.545642 1.608208,0 2.383594,1.191797 0.445129,0.689232 0.473847,1.622567 h -1.220515 q -0.08615,-1.249233 -1.019489,-1.622567 -0.301539,-0.114872 -0.646155,-0.114872 -0.918976,0 -1.378464,0.746668 -0.229744,0.373334 -0.229744,0.847181 0,0.689232 0.445129,1.033848 0.301539,0.258462 1.321028,0.560001 l 0.02872,0.01436 q 0.02872,0 0.05744,0.01436 1.306669,0.387693 1.852311,0.789745 0.976412,0.689232 1.033848,2.139491 0,1.450259 -1.105643,2.29744 -0.832822,0.646155 -1.967183,0.646155 z"
         id="path3897" /><path
         d="m 97.363593,74.4806 v 6.002062 h -1.14872 V 74.4806 h -1.507695 v -1.033848 h 1.507695 V 71.03444 h 1.134361 v 2.412312 h 1.57949 V 74.4806 Z"
         id="path3894" /><path
         d="m 103.25079,80.65497 q -1.83795,0 -2.9436,-1.249233 -0.904613,-1.019489 -0.904613,-2.469748 0,-1.636926 1.220513,-2.685133 1.06257,-0.918976 2.5559,-0.918976 1.78052,0 2.85745,1.234874 0.87589,1.00513 0.87589,2.44103 0,1.72308 -1.23487,2.785646 -1.00513,0.86154 -2.42667,0.86154 z m -0.0718,-6.289242 q -1.33538,0 -2.09641,0.990771 -0.53128,0.689232 -0.53128,1.608208 0,1.407182 1.0482,2.15385 0.68924,0.488206 1.62257,0.488206 1.33539,0 2.05334,-1.00513 0.4882,-0.674873 0.4882,-1.57949 0,-1.364105 -1.00513,-2.139491 -0.68923,-0.516924 -1.57949,-0.516924 z"
         id="path3891" /><path
         d="m 109.18107,76.419065 v 4.063597 h -1.14872 v -6.992833 h 1.13436 v 0.71795 q 0.60308,-0.832822 1.9959,-0.875899 v 1.076925 q -1.86667,0.172308 -1.96718,1.780516 l -0.0144,0.01436 z"
         id="path3888" /><path
         d="m 112.74211,77.395477 q 0.11487,1.105643 1.10564,1.751798 0.68924,0.459488 1.52206,0.459488 1.20615,0 1.98154,-0.904617 0.2441,-0.28718 0.38769,-0.646155 h 1.17744 q -0.48821,1.478977 -1.82359,2.182568 -0.78975,0.416411 -1.69436,0.416411 -1.69437,0 -2.81437,-1.191797 -0.99077,-1.048207 -0.99077,-2.512825 0,-1.608208 1.1918,-2.670774 1.06256,-0.947694 2.54154,-0.947694 1.59385,0 2.69949,1.091284 0.33026,0.330257 0.56,0.71795 0.47385,0.86154 0.48821,2.254363 z m 2.57026,-3.029749 q -1.30667,0 -2.06769,1.00513 -0.33026,0.43077 -0.45949,0.990771 h 5.1118 q -0.35897,-1.349746 -1.56513,-1.809234 -0.47385,-0.186667 -1.01949,-0.186667 z"
         id="path3885" /><path
         d="m 126.15344,74.4806 v 6.002062 h -1.14872 V 74.4806 h -1.50769 v -1.033848 h 1.50769 V 71.03444 h 1.13437 v 2.412312 h 1.57949 V 74.4806 Z"
         id="path3882" /><path
         d="m 133.72065,80.482662 v -3.776417 q 0,-1.076925 -0.45949,-1.665644 -0.60308,-0.71795 -1.60821,-0.71795 -1.07692,0 -1.68,0.804104 -0.35898,0.502565 -0.35898,1.507695 v 3.848212 h -1.14872 V 71.03444 h 1.13436 v 3.115903 q 0.78975,-0.875899 2.13949,-0.875899 1.52206,0 2.36924,0.962053 l 0.0144,0.01436 0.0144,0.01436 0.0862,0.114872 q 0.6318,0.789745 0.6318,2.326158 v 3.776417 z"
         id="path3879" /><path
         d="m 137.12374,77.395477 q 0.11487,1.105643 1.10564,1.751798 0.68923,0.459488 1.52205,0.459488 1.20616,0 1.98155,-0.904617 0.2441,-0.28718 0.38769,-0.646155 h 1.17744 q -0.48821,1.478977 -1.8236,2.182568 -0.78974,0.416411 -1.69436,0.416411 -1.69436,0 -2.81436,-1.191797 -0.99077,-1.048207 -0.99077,-2.512825 0,-1.608208 1.19179,-2.670774 1.06257,-0.947694 2.54155,-0.947694 1.59385,0 2.69949,1.091284 0.33026,0.330257 0.56,0.71795 0.47385,0.86154 0.48821,2.254363 z m 2.57026,-3.029749 q -1.30667,0 -2.0677,1.00513 -0.33026,0.43077 -0.45949,0.990771 h 5.11181 q -0.35898,-1.349746 -1.56513,-1.809234 -0.47385,-0.186667 -1.01949,-0.186667 z"
         id="path3876" /><path
         d="m 152.30123,80.698047 q -1.66565,0 -2.6277,-1.163079 v 3.403083 h -1.14872 v -9.448222 h 1.13436 V 74.4806 q 0.97641,-1.14872 2.65642,-1.14872 1.72308,0 2.82872,1.206156 0.96205,1.033848 0.96205,2.498466 0,1.636926 -1.22051,2.713851 -1.09129,0.947694 -2.58462,0.947694 z m -0.0144,-6.332319 q -1.30667,0 -2.11077,0.976412 -0.57436,0.703591 -0.57436,1.636926 0,1.349746 1.01948,2.125132 0.71795,0.545642 1.68001,0.545642 1.32103,0 2.09641,-0.990771 0.56,-0.689232 0.56,-1.622567 0,-1.364105 -1.03384,-2.139491 -0.7036,-0.531283 -1.63693,-0.531283 z"
         id="path3873" /><path
         d="m 158.37509,76.419065 v 4.063597 h -1.14872 v -6.992833 h 1.13436 v 0.71795 q 0.60308,-0.832822 1.9959,-0.875899 v 1.076925 q -1.86667,0.172308 -1.96718,1.780516 l -0.0144,0.01436 z"
         id="path3870" /><path
         d="m 161.93613,77.395477 q 0.11487,1.105643 1.10564,1.751798 0.68923,0.459488 1.52206,0.459488 1.20615,0 1.98154,-0.904617 0.2441,-0.28718 0.38769,-0.646155 h 1.17744 q -0.48821,1.478977 -1.82359,2.182568 -0.78975,0.416411 -1.69437,0.416411 -1.69436,0 -2.81436,-1.191797 -0.99077,-1.048207 -0.99077,-2.512825 0,-1.608208 1.1918,-2.670774 1.06256,-0.947694 2.54154,-0.947694 1.59385,0 2.69949,1.091284 0.33026,0.330257 0.56,0.71795 0.47385,0.86154 0.48821,2.254363 z m 2.57026,-3.029749 q -1.30667,0 -2.0677,1.00513 -0.33025,0.43077 -0.45948,0.990771 h 5.1118 q -0.35897,-1.349746 -1.56513,-1.809234 -0.47385,-0.186667 -1.01949,-0.186667 z"
         id="path3867" /><path
         d="m 175.54848,80.482662 v -1.00513 q -0.93333,1.076925 -2.3118,1.163079 -0.14359,0.01436 -0.30154,0.01436 -1.79487,0 -2.91487,-1.206156 -0.93334,-1.019489 -0.93334,-2.44103 0,-1.694362 1.24923,-2.771287 1.04821,-0.904617 2.54155,-0.904617 1.68,0 2.65641,1.177438 v -1.019489 h 1.14872 v 6.992833 z m -2.65641,-6.116934 q -1.2636,0 -2.0677,0.947694 -0.58872,0.703591 -0.58872,1.622567 0,1.306669 1.00513,2.096414 0.73231,0.57436 1.70872,0.57436 1.24924,0 2.02462,-0.976412 0.57436,-0.71795 0.57436,-1.680003 0,-1.277951 -0.99077,-2.038978 -0.71795,-0.545642 -1.66564,-0.545642 z"
         id="path3864" /><path
         d="m 187.52388,80.482662 v -4.034879 q 0,-0.990771 -0.37333,-1.478977 -0.45949,-0.617437 -1.39283,-0.617437 -1.00513,0 -1.50769,0.732309 -0.3159,0.502565 -0.3159,1.364105 v 4.034879 h -1.13436 v -4.063597 q 0,-1.00513 -0.41641,-1.464618 -0.50257,-0.588719 -1.37847,-0.588719 -1.33538,0 -1.68,1.234874 -0.10051,0.358975 -0.10051,0.818463 v 4.063597 h -1.14872 v -6.992833 h 1.13436 v 0.617437 q 0.68923,-0.746668 1.88103,-0.775386 1.45026,0 2.22564,1.14872 l 0.0574,0.0718 q 0.86154,-1.234874 2.42667,-1.234874 1.46462,0 2.26872,1.00513 0.58872,0.761027 0.58872,2.024619 v 4.135392 z"
         id="path3861" /><path
         d="m 193.82748,80.65497 q -1.66564,0 -2.62769,-1.163079 v 0.990771 h -1.14872 V 71.03444 h 1.13436 v 3.403083 q 0.97641,-1.14872 2.65641,-1.14872 1.70872,0 2.82873,1.191797 0.96205,1.033848 0.96205,2.469748 0,1.708721 -1.23487,2.785646 -1.06257,0.918976 -2.57027,0.918976 z m 0,-6.332319 q -1.32102,0 -2.12513,0.976412 -0.57436,0.703591 -0.57436,1.636926 0,1.076925 0.77539,1.881029 0.77538,0.789745 1.90975,0.789745 1.34974,0 2.12513,-1.00513 0.54564,-0.71795 0.54564,-1.665644 0,-1.306669 -1.00513,-2.067696 -0.70359,-0.545642 -1.65129,-0.545642 z"
         id="path3858" /><path
         d="m 198.76699,80.482662 -0.0144,-9.448222 h 1.14872 v 9.448222 z"
         id="path3855" /><path
         d="m 202.18443,77.395477 q 0.11487,1.105643 1.10564,1.751798 0.68923,0.459488 1.52206,0.459488 1.20615,0 1.98154,-0.904617 0.2441,-0.28718 0.38769,-0.646155 h 1.17744 q -0.48821,1.478977 -1.82359,2.182568 -0.78975,0.416411 -1.69437,0.416411 -1.69436,0 -2.81436,-1.191797 -0.99077,-1.048207 -0.99077,-2.512825 0,-1.608208 1.1918,-2.670774 1.06256,-0.947694 2.54154,-0.947694 1.59385,0 2.69949,1.091284 0.33026,0.330257 0.56,0.71795 0.47385,0.86154 0.48821,2.254363 z m 2.57026,-3.029749 q -1.30667,0 -2.0677,1.00513 -0.33025,0.43077 -0.45948,0.990771 h 5.1118 q -0.35898,-1.349746 -1.56513,-1.809234 -0.47385,-0.186667 -1.01949,-0.186667 z"
         id="path3852" /><path
         d="m 211.38856,80.65497 q -1.4359,0 -2.05334,-1.105643 -0.28718,-0.531283 -0.30154,-1.249233 h 1.12001 q 0.0861,1.234874 1.23487,1.306669 0.70359,0 0.97641,-0.588719 0.10051,-0.229744 0.10051,-0.488206 0,-0.560001 -0.40205,-0.804104 -0.2441,-0.157949 -0.89026,-0.43077 L 210.2542,76.92163 q -0.2441,-0.14359 -0.40205,-0.301539 -0.56,-0.502565 -0.56,-1.29231 0,-1.076925 0.87589,-1.651285 0.51693,-0.344616 1.20616,-0.344616 1.22052,0 1.78052,0.976412 v 0 q 0.14359,0.244103 0.21538,0.531283 0.0574,0.244103 0.0718,0.516924 h -1.14872 q -0.0862,-0.990771 -0.93334,-0.990771 -0.58872,0 -0.83282,0.502565 -0.0862,0.172308 -0.0862,0.387693 0,0.545642 0.58871,0.804104 l 1.52206,0.646155 q 0.94769,0.502565 1.04821,1.464618 0.0144,0.129231 0.0144,0.272821 0,1.191797 -0.91897,1.823593 -0.56,0.387693 -1.30667,0.387693 z"
         id="path3849" /><path
         d="m 222.11475,80.65497 q -1.83795,0 -2.9436,-1.249233 -0.90461,-1.019489 -0.90461,-2.469748 0,-1.636926 1.22051,-2.685133 1.06257,-0.918976 2.5559,-0.918976 1.78052,0 2.85744,1.234874 0.8759,1.00513 0.8759,2.44103 0,1.72308 -1.23487,2.785646 -1.00513,0.86154 -2.42667,0.86154 z m -0.0718,-6.289242 q -1.33538,0 -2.09641,0.990771 -0.53128,0.689232 -0.53128,1.608208 0,1.407182 1.0482,2.15385 0.68923,0.488206 1.62257,0.488206 1.33539,0 2.05334,-1.00513 0.4882,-0.674873 0.4882,-1.57949 0,-1.364105 -1.00513,-2.139491 -0.68923,-0.516924 -1.57949,-0.516924 z"
         id="path3846" /><path
         d="m 228.53323,74.4806 v 6.002062 h -1.13436 V 74.4806 h -1.10564 v -1.033848 h 1.09128 q 0.0287,-2.412312 2.88616,-2.412312 v 1.019489 q -1.26359,0.01436 -1.57949,0.588719 v 0 q 0,0 0,0 -0.15795,0.28718 -0.15795,0.804104 h 1.73744 V 74.4806 Z"
         id="path3843" /><path
         d="m 236.93325,82.938051 h -1.20615 l 1.17744,-2.72821 -2.75693,-6.720012 h 1.24923 l 2.13949,5.31283 2.29744,-5.31283 h 1.22052 z"
         id="path3840" /><path
         d="m 245.30454,80.65497 q -1.83796,0 -2.9436,-1.249233 -0.90462,-1.019489 -0.90462,-2.469748 0,-1.636926 1.22052,-2.685133 1.06257,-0.918976 2.5559,-0.918976 1.78052,0 2.85744,1.234874 0.8759,1.00513 0.8759,2.44103 0,1.72308 -1.23487,2.785646 -1.00513,0.86154 -2.42667,0.86154 z m -0.0718,-6.289242 q -1.33539,0 -2.09641,0.990771 -0.53129,0.689232 -0.53129,1.608208 0,1.407182 1.04821,2.15385 0.68923,0.488206 1.62257,0.488206 1.33539,0 2.05334,-1.00513 0.4882,-0.674873 0.4882,-1.57949 0,-1.364105 -1.00513,-2.139491 -0.68923,-0.516924 -1.57949,-0.516924 z"
         id="path3837" /><path
         d="m 255.31277,80.482662 v -0.818463 q -0.71795,0.990771 -2.15385,0.990771 -1.66564,0 -2.49847,-1.134361 -0.57436,-0.761027 -0.57436,-2.254363 v -3.776417 h 1.13437 v 3.776417 q 0,0.976412 0.31589,1.536413 0.50257,0.804104 1.69437,0.804104 1.10564,0 1.66564,-0.804104 0.40205,-0.545642 0.40205,-1.72308 v -3.58975 h 1.14872 v 6.992833 z"
         id="path3834" /><path
         d="m 259.00302,76.419065 v 4.063597 h -1.14872 v -6.992833 h 1.13436 v 0.71795 q 0.60308,-0.832822 1.9959,-0.875899 v 1.076925 q -1.86667,0.172308 -1.96718,1.780516 l -0.0144,0.01436 z"
         id="path3831" /><path
         d="m 269.44202,80.698047 q -1.66564,0 -2.62769,-1.163079 v 3.403083 h -1.14872 v -9.448222 h 1.13436 V 74.4806 q 0.97641,-1.14872 2.65641,-1.14872 1.72308,0 2.82873,1.206156 0.96205,1.033848 0.96205,2.498466 0,1.636926 -1.22052,2.713851 -1.09128,0.947694 -2.58462,0.947694 z m -0.0144,-6.332319 q -1.30667,0 -2.11078,0.976412 -0.57436,0.703591 -0.57436,1.636926 0,1.349746 1.01949,2.125132 0.71795,0.545642 1.68,0.545642 1.32103,0 2.09642,-0.990771 0.56,-0.689232 0.56,-1.622567 0,-1.364105 -1.03385,-2.139491 -0.70359,-0.531283 -1.63692,-0.531283 z"
         id="path3828" /><path
         d="m 275.5159,76.419065 v 4.063597 h -1.14872 v -6.992833 h 1.13436 v 0.71795 q 0.60308,-0.832822 1.9959,-0.875899 v 1.076925 q -1.86667,0.172308 -1.96718,1.780516 l -0.0144,0.01436 z"
         id="path3825" /><path
         d="m 281.77643,80.65497 q -1.83795,0 -2.9436,-1.249233 -0.90461,-1.019489 -0.90461,-2.469748 0,-1.636926 1.22051,-2.685133 1.06257,-0.918976 2.5559,-0.918976 1.78052,0 2.85745,1.234874 0.87589,1.00513 0.87589,2.44103 0,1.72308 -1.23487,2.785646 -1.00513,0.86154 -2.42667,0.86154 z m -0.0718,-6.289242 q -1.33538,0 -2.09641,0.990771 -0.53128,0.689232 -0.53128,1.608208 0,1.407182 1.0482,2.15385 0.68924,0.488206 1.62257,0.488206 1.33539,0 2.05334,-1.00513 0.4882,-0.674873 0.4882,-1.57949 0,-1.364105 -1.00513,-2.139491 -0.68923,-0.516924 -1.57949,-0.516924 z"
         id="path3822" /><path
         d="m 286.61542,72.814956 -0.0144,-1.780516 h 1.14872 v 1.780516 z m 0.18667,9.634889 q -0.61744,0.445129 -1.62257,0.488206 v -1.076925 q 0.96206,-0.05744 1.23488,-0.646155 0.18666,-0.416411 0.18666,-1.263592 v -6.504627 h 1.14872 v 6.504627 q 0,1.464618 -0.4882,2.067696 -0.17231,0.229744 -0.45949,0.43077 z"
         id="path3819" /><path
         d="m 290.01851,77.395477 q 0.11487,1.105643 1.10564,1.751798 0.68924,0.459488 1.52206,0.459488 1.20615,0 1.98154,-0.904617 0.2441,-0.28718 0.38769,-0.646155 h 1.17744 q -0.4882,1.478977 -1.82359,2.182568 -0.78975,0.416411 -1.69436,0.416411 -1.69437,0 -2.81437,-1.191797 -0.99077,-1.048207 -0.99077,-2.512825 0,-1.608208 1.1918,-2.670774 1.06256,-0.947694 2.54154,-0.947694 1.59385,0 2.69949,1.091284 0.33026,0.330257 0.56,0.71795 0.47385,0.86154 0.48821,2.254363 z m 2.57026,-3.029749 q -1.30667,0 -2.06769,1.00513 -0.33026,0.43077 -0.45949,0.990771 h 5.1118 q -0.35897,-1.349746 -1.56513,-1.809234 -0.47385,-0.186667 -1.01949,-0.186667 z"
         id="path3816" /><path
         d="m 303.47291,79.850866 q -1.04821,0.804104 -2.3836,0.804104 -1.76615,0 -2.91487,-1.191797 -1.00513,-1.048207 -1.00513,-2.498466 0,-1.593849 1.22051,-2.656415 1.10564,-0.976412 2.6277,-0.976412 1.83795,0 2.97231,1.335387 0.40205,0.473847 0.64616,1.076925 h -1.24924 q -0.81846,-1.378464 -2.38359,-1.378464 -1.30667,0 -2.11077,0.976412 -0.57436,0.71795 -0.57436,1.651285 0,1.234874 0.99077,2.024619 0.74667,0.588719 1.73744,0.588719 1.10564,0 1.90974,-0.804104 0.15795,-0.157949 0.3159,-0.358975 l 0.11487,-0.14359 h 1.27795 q -0.56,1.033848 -1.09128,1.464618 z"
         id="path3813" /><path
         d="m 307.70883,74.4806 v 6.002062 h -1.14872 V 74.4806 h -1.5077 v -1.033848 h 1.5077 V 71.03444 h 1.13436 v 2.412312 h 1.57949 V 74.4806 Z"
         id="path3810" /><path
         d="m 311.80115,80.65497 q -1.4359,0 -2.05334,-1.105643 -0.28718,-0.531283 -0.30154,-1.249233 h 1.12001 q 0.0861,1.234874 1.23487,1.306669 0.70359,0 0.97641,-0.588719 0.10051,-0.229744 0.10051,-0.488206 0,-0.560001 -0.40205,-0.804104 -0.2441,-0.157949 -0.89026,-0.43077 l -0.91897,-0.373334 q -0.2441,-0.14359 -0.40205,-0.301539 -0.56,-0.502565 -0.56,-1.29231 0,-1.076925 0.87589,-1.651285 0.51693,-0.344616 1.20616,-0.344616 1.22052,0 1.78052,0.976412 v 0 q 0.14359,0.244103 0.21538,0.531283 0.0574,0.244103 0.0718,0.516924 h -1.14872 q -0.0862,-0.990771 -0.93334,-0.990771 -0.58872,0 -0.83282,0.502565 -0.0862,0.172308 -0.0862,0.387693 0,0.545642 0.58871,0.804104 l 1.52206,0.646155 q 0.94769,0.502565 1.04821,1.464618 0.0143,0.129231 0.0143,0.272821 0,1.191797 -0.91897,1.823593 -0.56,0.387693 -1.30667,0.387693 z"
         id="path3807" /><path
         d="m 113.84781,86.80062 -0.0144,-1.766157 h 1.14872 v 1.766157 z m -0.0144,7.682065 v -7.03591 h 1.14872 v 7.03591 z"
         id="path3804" /><path
         d="M 121.64474,94.482685 V 90.82114 q 0,-1.220515 -0.44513,-1.751798 -0.54564,-0.703591 -1.62256,-0.703591 -1.14872,0 -1.69437,0.789745 -0.34461,0.473847 -0.34461,1.493336 v 3.833853 h -1.14872 v -6.992833 h 1.13436 v 0.732309 q 0.8759,-0.890258 2.16821,-0.890258 1.59385,0 2.44103,1.091284 0.58872,0.746668 0.63179,1.981542 l 0.0144,0.416411 v 3.661545 z"
         id="path3801" /><path
         d="m 134.33812,94.482685 v -1.00513 q -0.93334,1.076925 -2.3118,1.163079 -0.14359,0.01436 -0.30154,0.01436 -1.79487,0 -2.91488,-1.206156 -0.93333,-1.019489 -0.93333,-2.44103 0,-1.694362 1.24923,-2.771287 1.04821,-0.904617 2.54155,-0.904617 1.68,0 2.65641,1.177438 v -1.019489 h 1.14872 v 6.992833 z m -2.65642,-6.116934 q -1.26359,0 -2.06769,0.947694 -0.58872,0.703591 -0.58872,1.622567 0,1.306669 1.00513,2.096414 0.73231,0.57436 1.70872,0.57436 1.24923,0 2.02462,-0.976412 0.57436,-0.71795 0.57436,-1.680003 0,-1.277951 -0.99077,-2.038978 -0.71795,-0.545642 -1.66565,-0.545642 z"
         id="path3798" /><path
         d="M 146.09815,94.482685 V 90.82114 q 0,-1.220515 -0.44513,-1.751798 -0.54565,-0.703591 -1.62257,-0.703591 -1.14872,0 -1.69436,0.789745 -0.34462,0.473847 -0.34462,1.493336 v 3.833853 h -1.14872 v -6.992833 h 1.13436 v 0.732309 q 0.8759,-0.890258 2.16821,-0.890258 1.59385,0 2.44103,1.091284 0.58872,0.746668 0.6318,1.981542 l 0.0144,0.416411 v 3.661545 z"
         id="path3795" /><path
         d="m 149.50124,91.3955 q 0.11487,1.105643 1.10564,1.751798 0.68923,0.459488 1.52205,0.459488 1.20616,0 1.98154,-0.904617 0.24411,-0.28718 0.3877,-0.646155 h 1.17744 q -0.48821,1.478977 -1.8236,2.182568 -0.78974,0.416411 -1.69436,0.416411 -1.69436,0 -2.81436,-1.191797 -0.99077,-1.048207 -0.99077,-2.512825 0,-1.608208 1.19179,-2.670774 1.06257,-0.947694 2.54155,-0.947694 1.59384,0 2.69949,1.091284 0.33025,0.330257 0.56,0.71795 0.47385,0.86154 0.4882,2.254363 z m 2.57026,-3.029749 q -1.30667,0 -2.0677,1.00513 -0.33026,0.43077 -0.45949,0.990771 h 5.11181 q -0.35898,-1.349746 -1.56513,-1.809234 -0.47385,-0.186667 -1.01949,-0.186667 z"
         id="path3792" /><path
         d="M 164.10436,94.482685 H 162.97 l -1.46462,-4.3077 -1.4359,4.3077 h -1.14872 l -2.75693,-6.992833 h 1.16308 l 2.15385,5.513856 1.57949,-4.681034 h 0.90462 l 1.60821,4.681034 2.19692,-5.513856 h 1.12001 z"
         id="path3789" /><path
         d="m 177.88903,93.750376 q -1.29231,0.732309 -3.4318,0.732309 h -2.74257 v -9.821556 h 2.41231 q 2.28308,0 3.51795,0.617437 0.14359,0.0718 0.28718,0.157949 2.05334,1.191797 2.25437,3.661545 0.0287,0.244103 0.0287,0.516924 0,2.627697 -2.09641,3.991802 -0.11487,0.07179 -0.22974,0.14359 z m -0.61744,-7.409244 q -1.00513,-0.617437 -3.10154,-0.617437 h -1.27796 v 7.696424 h 1.27796 q 2.32615,0 3.38872,-0.775386 l 0.0718,-0.05744 q 1.30667,-1.048207 1.39283,-2.800005 0,-0.114872 0,-0.215385 0,-1.837952 -1.27795,-2.900518 -0.22975,-0.186667 -0.47385,-0.330257 z"
         id="path3786" /><path
         d="m 187.58134,94.482685 v -1.00513 q -0.93334,1.076925 -2.3118,1.163079 -0.14359,0.01436 -0.30154,0.01436 -1.79487,0 -2.91488,-1.206156 -0.93333,-1.019489 -0.93333,-2.44103 0,-1.694362 1.24923,-2.771287 1.04821,-0.904617 2.54154,-0.904617 1.68001,0 2.65642,1.177438 v -1.019489 h 1.14872 v 6.992833 z m -2.65642,-6.116934 q -1.26359,0 -2.06769,0.947694 -0.58872,0.703591 -0.58872,1.622567 0,1.306669 1.00513,2.096414 0.73231,0.57436 1.70872,0.57436 1.24923,0 2.02462,-0.976412 0.57436,-0.71795 0.57436,-1.680003 0,-1.277951 -0.99077,-2.038978 -0.71795,-0.545642 -1.66565,-0.545642 z"
         id="path3783" /><path
         d="m 192.11877,88.480623 v 6.002062 h -1.14872 v -6.002062 h -1.50769 v -1.033848 h 1.50769 v -2.412312 h 1.13436 v 2.412312 h 1.57949 v 1.033848 z"
         id="path3780" /><path
         d="m 200.61931,94.482685 v -1.00513 q -0.93333,1.076925 -2.3118,1.163079 -0.14359,0.01436 -0.30154,0.01436 -1.79487,0 -2.91487,-1.206156 -0.93334,-1.019489 -0.93334,-2.44103 0,-1.694362 1.24923,-2.771287 1.04821,-0.904617 2.54155,-0.904617 1.68,0 2.65641,1.177438 v -1.019489 h 1.14872 v 6.992833 z m -2.65641,-6.116934 q -1.2636,0 -2.0677,0.947694 -0.58872,0.703591 -0.58872,1.622567 0,1.306669 1.00513,2.096414 0.73231,0.57436 1.70872,0.57436 1.24923,0 2.02462,-0.976412 0.57436,-0.71795 0.57436,-1.680003 0,-1.277951 -0.99077,-2.038978 -0.71795,-0.545642 -1.66564,-0.545642 z"
         id="path3777" /><path
         d="m 205.8747,85.723695 v 8.75899 h -1.1918 v -8.75899 h -2.25436 v -1.062566 h 5.68616 v 1.062566 z"
         id="path3774" /><path
         d="m 209.67985,91.3955 q 0.11487,1.105643 1.10564,1.751798 0.68923,0.459488 1.52205,0.459488 1.20616,0 1.98155,-0.904617 0.2441,-0.28718 0.38769,-0.646155 h 1.17744 q -0.48821,1.478977 -1.8236,2.182568 -0.78974,0.416411 -1.69436,0.416411 -1.69436,0 -2.81436,-1.191797 -0.99077,-1.048207 -0.99077,-2.512825 0,-1.608208 1.19179,-2.670774 1.06257,-0.947694 2.54155,-0.947694 1.59385,0 2.69949,1.091284 0.33026,0.330257 0.56,0.71795 0.47385,0.86154 0.48821,2.254363 z m 2.57026,-3.029749 q -1.30667,0 -2.0677,1.00513 -0.33025,0.43077 -0.45949,0.990771 h 5.11181 q -0.35898,-1.349746 -1.56513,-1.809234 -0.47385,-0.186667 -1.01949,-0.186667 z"
         id="path3771" /><path
         d="m 223.17733,94.482685 -2.72821,-4.034879 -2.72821,4.034879 h -1.40718 l 3.40308,-5.02565 -3.21642,-4.795906 h 1.40718 l 2.54155,3.776417 2.54154,-3.776417 h 1.37846 l -3.21641,4.795906 3.41744,5.02565 z"
         id="path3768" /><path
         d="m 235.36813,94.482685 v -1.048207 q -0.91898,1.14872 -2.35488,1.220515 h -0.20102 q -1.78052,0 -2.92924,-1.206156 -0.99077,-1.033848 -0.99077,-2.484107 0,-1.680003 1.24923,-2.756928 1.06257,-0.918976 2.57026,-0.918976 1.59385,0 2.65642,1.091284 v -3.345647 h 1.14872 v 9.448222 z m -2.67078,-6.160011 q -1.27795,0 -2.06769,0.962053 -0.58872,0.71795 -0.58872,1.651285 0,1.306669 1.00513,2.096414 0.74667,0.57436 1.73744,0.57436 1.22051,0 2.01026,-0.962053 0.61744,-0.746668 0.61744,-1.708721 0,-1.206156 -0.96206,-1.995901 -0.76102,-0.617437 -1.7518,-0.617437 z"
         id="path3765" /><path
         d="m 244.09841,94.482685 v -1.00513 q -0.93334,1.076925 -2.3118,1.163079 -0.14359,0.01436 -0.30154,0.01436 -1.79488,0 -2.91488,-1.206156 -0.93333,-1.019489 -0.93333,-2.44103 0,-1.694362 1.24923,-2.771287 1.04821,-0.904617 2.54154,-0.904617 1.68,0 2.65642,1.177438 v -1.019489 h 1.14872 v 6.992833 z m -2.65642,-6.116934 q -1.26359,0 -2.0677,0.947694 -0.58871,0.703591 -0.58871,1.622567 0,1.306669 1.00513,2.096414 0.7323,0.57436 1.70872,0.57436 1.24923,0 2.02462,-0.976412 0.57436,-0.71795 0.57436,-1.680003 0,-1.277951 -0.99078,-2.038978 -0.71795,-0.545642 -1.66564,-0.545642 z"
         id="path3762" /><path
         d="m 248.63584,88.480623 v 6.002062 h -1.14872 v -6.002062 h -1.50769 v -1.033848 h 1.50769 v -2.412312 h 1.13436 v 2.412312 h 1.57949 v 1.033848 z"
         id="path3759" /><path
         d="m 257.13638,94.482685 v -1.00513 q -0.93334,1.076925 -2.3118,1.163079 -0.14359,0.01436 -0.30154,0.01436 -1.79488,0 -2.91488,-1.206156 -0.93333,-1.019489 -0.93333,-2.44103 0,-1.694362 1.24923,-2.771287 1.04821,-0.904617 2.54154,-0.904617 1.68001,0 2.65642,1.177438 v -1.019489 h 1.14872 v 6.992833 z m -2.65642,-6.116934 q -1.26359,0 -2.06769,0.947694 -0.58872,0.703591 -0.58872,1.622567 0,1.306669 1.00513,2.096414 0.73231,0.57436 1.70872,0.57436 1.24923,0 2.02462,-0.976412 0.57436,-0.71795 0.57436,-1.680003 0,-1.277951 -0.99077,-2.038978 -0.71795,-0.545642 -1.66565,-0.545642 z"
         id="path3756" /><path
         d="m 263.43998,94.654993 q -1.66565,0 -2.6277,-1.163079 v 0.990771 h -1.14872 v -9.448222 h 1.13436 v 3.403083 q 0.97641,-1.14872 2.65642,-1.14872 1.70872,0 2.82872,1.191797 0.96205,1.033848 0.96205,2.469748 0,1.708721 -1.23487,2.785646 -1.06257,0.918976 -2.57026,0.918976 z m 0,-6.332319 q -1.32103,0 -2.12514,0.976412 -0.57436,0.703591 -0.57436,1.636926 0,1.076925 0.77539,1.881029 0.77539,0.789745 1.90975,0.789745 1.34974,0 2.12513,-1.00513 0.54564,-0.71795 0.54564,-1.665644 0,-1.306669 -1.00513,-2.067696 -0.70359,-0.545642 -1.65128,-0.545642 z"
         id="path3753" /><path
         d="m 274.55384,94.482685 v -1.00513 q -0.93333,1.076925 -2.3118,1.163079 -0.14359,0.01436 -0.30154,0.01436 -1.79487,0 -2.91487,-1.206156 -0.93334,-1.019489 -0.93334,-2.44103 0,-1.694362 1.24924,-2.771287 1.0482,-0.904617 2.54154,-0.904617 1.68,0 2.65641,1.177438 v -1.019489 h 1.14872 v 6.992833 z m -2.65641,-6.116934 q -1.26359,0 -2.0677,0.947694 -0.58872,0.703591 -0.58872,1.622567 0,1.306669 1.00513,2.096414 0.73231,0.57436 1.70872,0.57436 1.24924,0 2.02462,-0.976412 0.57436,-0.71795 0.57436,-1.680003 0,-1.277951 -0.99077,-2.038978 -0.71795,-0.545642 -1.66564,-0.545642 z"
         id="path3750" /><path
         d="m 278.86154,94.654993 q -1.4359,0 -2.05334,-1.105643 -0.28718,-0.531283 -0.30153,-1.249233 h 1.12 q 0.0862,1.234874 1.23487,1.306669 0.70359,0 0.97641,-0.588719 0.10052,-0.229744 0.10052,-0.488206 0,-0.560001 -0.40206,-0.804104 -0.2441,-0.157949 -0.89025,-0.43077 l -0.91898,-0.373334 q -0.2441,-0.14359 -0.40205,-0.301539 -0.56,-0.502565 -0.56,-1.29231 0,-1.076925 0.8759,-1.651285 0.51692,-0.344616 1.20615,-0.344616 1.22052,0 1.78052,0.976412 v 0 q 0.14359,0.244103 0.21538,0.531283 0.0574,0.244103 0.0718,0.516924 h -1.14872 q -0.0862,-0.990771 -0.93334,-0.990771 -0.58872,0 -0.83282,0.502565 -0.0861,0.172308 -0.0861,0.387693 0,0.545642 0.58872,0.804104 l 1.52205,0.646155 q 0.94769,0.502565 1.04821,1.464618 0.0144,0.129231 0.0144,0.272821 0,1.191797 -0.91898,1.823593 -0.56,0.387693 -1.30667,0.387693 z"
         id="path3747" /><path
         d="m 282.91078,91.3955 q 0.11487,1.105643 1.10564,1.751798 0.68924,0.459488 1.52206,0.459488 1.20615,0 1.98154,-0.904617 0.2441,-0.28718 0.38769,-0.646155 h 1.17744 q -0.4882,1.478977 -1.82359,2.182568 -0.78975,0.416411 -1.69436,0.416411 -1.69437,0 -2.81437,-1.191797 -0.99077,-1.048207 -0.99077,-2.512825 0,-1.608208 1.1918,-2.670774 1.06256,-0.947694 2.54154,-0.947694 1.59385,0 2.69949,1.091284 0.33026,0.330257 0.56,0.71795 0.47385,0.86154 0.48821,2.254363 z m 2.57026,-3.029749 q -1.30667,0 -2.06769,1.00513 -0.33026,0.43077 -0.45949,0.990771 h 5.1118 q -0.35897,-1.349746 -1.56513,-1.809234 -0.47385,-0.186667 -1.01949,-0.186667 z"
         id="path3744" /><path
         d="m 290.83696,94.482685 -0.0144,-1.608208 h 1.14872 v 1.608208 z"
         id="path3741" /></g></g><g
     aria-label="Preambles"
     transform="matrix(0.33271755,0,0,0.33271755,46.86491,-10.51394)"
     id="text367"
     style="font-size:40px;line-height:1.25;white-space:pre;shape-inside:url(#rect369);display:inline;fill:#f2f2f2"><path
       d="m -83.536448,74.680945 q -1.476923,0.923077 -4.8,0.984615 h -0.83077 -1.015384 v 7.815385 h -4.338462 V 62.434791 h 5.415385 q 3.753846,0 5.507692,0.984615 2.707693,1.6 2.923077,5.046154 0.03077,0.276923 0.03077,0.553846 0,3.169231 -2.030769,5.015385 l -0.03077,0.03077 q -0.03077,0.03077 -0.03077,0.03077 z m -3.138462,-7.969231 q -0.738461,-0.184615 -2.430769,-0.184615 h -1.107692 v 5.015384 h 0.953846 q 2.276923,0 3.076923,-0.4 1.169231,-0.615384 1.169231,-2.061538 0,-1.753846 -1.446154,-2.307692 z"
       style="font-weight:bold;font-family:KerkisSans;-inkscape-font-specification:'KerkisSans Bold'"
       id="path9338" /><path
       d="m -74.797956,74.834791 v 8.646154 h -4.215385 V 67.850176 h 3.876923 v 1.046153 q 1.076923,-1.323076 2.769231,-1.415384 h 0.4 0.523077 v 3.938461 q -2.892308,0.03077 -3.292308,2.43077 z"
       style="font-weight:bold;font-family:KerkisSans;-inkscape-font-specification:'KerkisSans Bold'"
       id="path9335" /><path
       d="m -54.151814,77.511714 h -11.969231 q 0.615385,1.938462 2.8,2.430769 0.584615,0.123077 1.230769,0.123077 1.846154,0 3.015385,-1.138461 0.153846,-0.153846 0.338461,-0.369231 h 4.461539 q -0.430769,1.353846 -1.353846,2.461538 -2.461539,2.83077 -6.369231,2.83077 -3.907692,0 -6.461538,-2.615385 -2.246154,-2.307692 -2.246154,-5.507692 0,-3.6 2.646154,-6.03077 2.430769,-2.215384 5.815384,-2.215384 3.876923,0 6.276923,2.738461 2.030769,2.338462 2.030769,5.661539 0,0.646154 -0.215384,1.630769 z m -8.030769,-6.246154 q -3.107693,0 -4.061539,2.584616 h 8.092308 q -0.738462,-2.584616 -4.030769,-2.584616 z"
       style="font-weight:bold;font-family:KerkisSans;-inkscape-font-specification:'KerkisSans Bold'"
       id="path9332" /><path
       d="m -39.567191,83.480945 v -1.661539 q -1.938462,1.938462 -5.015385,2.03077 -3.846153,0 -6.184615,-2.707693 -1.907692,-2.215384 -1.907692,-5.415384 0,-3.907693 2.707692,-6.276923 2.246154,-1.969231 5.476923,-1.969231 3.076923,0 4.892308,2.030769 v -1.661538 h 3.876923 V 83.480945 Z M -44.090268,71.26556 q -2.461538,0 -3.661538,1.969231 -0.707693,1.107692 -0.707693,2.584615 0,2.492308 1.969231,3.63077 1.076923,0.615384 2.461539,0.615384 2.092307,0 3.230769,-1.292307 1.107692,-1.261539 1.107692,-2.984616 0,-2.615384 -1.969231,-3.846154 -1.046154,-0.676923 -2.430769,-0.676923 z"
       style="font-weight:bold;font-family:KerkisSans;-inkscape-font-specification:'KerkisSans Bold'"
       id="path9329" /><path
       d="m -13.690289,83.480945 v -8.553846 q 0,-2.03077 -0.676923,-2.8 -0.738461,-0.892308 -2.061538,-0.892308 -1.692308,0 -2.430769,1.353846 -0.492308,0.892308 -0.492308,3.2 v 7.692308 h -4.184615 v -8.553846 q 0,-2.061539 -0.615385,-2.8 -0.738462,-0.892308 -2.246154,-0.892308 -1.784615,0 -2.430769,1.476923 -0.369231,0.738462 -0.369231,3.076923 v 7.692308 h -4.215385 V 67.850176 h 3.876924 v 1.107692 q 1.476923,-1.476923 3.846153,-1.476923 3.076923,0 4.615385,2.246154 1.846154,-2.246154 5.015385,-2.246154 3.415384,0 5.138461,2.092308 l 0.03077,0.03077 0.307693,0.4 q 1.0769228,1.692307 1.0769228,4.492307 v 8.984616 z"
       style="font-weight:bold;font-family:KerkisSans;-inkscape-font-specification:'KerkisSans Bold'"
       id="path9326" /><path
       d="m 8.1250979,81.080945 q -2.1846154,2.769231 -5.9692308,2.769231 -2.9230769,0 -4.8307692,-1.692308 -0.1538462,-0.153846 -0.3384615,-0.338462 v 1.661539 H -6.921056 V 62.650176 h 4.1846154 v 6.246153 q 1.93846157,-1.692307 4.6461539,-1.692307 3.7230769,0 6.0615384,2.676923 2.0307693,2.338461 2.0307693,5.630769 0,3.2 -1.8769231,5.569231 z M 1.3866364,70.988637 q -2.4,0 -3.6307693,1.907692 -0.7076923,1.138462 -0.7076923,2.615385 0,2.646154 1.96923078,3.876923 1.04615385,0.676923 2.43076922,0.676923 2.4923077,0 3.6923077,-1.969231 0.6769231,-1.107692 0.6769231,-2.584615 0,-2.461538 -1.8769231,-3.753846 -1.1076923,-0.769231 -2.5538461,-0.769231 z"
       style="font-weight:bold;font-family:KerkisSans;-inkscape-font-specification:'KerkisSans Bold'"
       id="path9323" /><path
       d="m 11.694308,83.480945 -0.03077,-20.830769 h 4.215384 v 20.830769 z"
       style="font-weight:bold;font-family:KerkisSans;-inkscape-font-specification:'KerkisSans Bold'"
       id="path9320" /><path
       d="M 34.278896,77.511714 H 22.309665 q 0.615385,1.938462 2.8,2.430769 0.584615,0.123077 1.230769,0.123077 1.846154,0 3.015385,-1.138461 0.153846,-0.153846 0.338461,-0.369231 h 4.461539 q -0.430769,1.353846 -1.353846,2.461538 -2.461539,2.83077 -6.369231,2.83077 -3.907692,0 -6.461539,-2.615385 -2.246153,-2.307692 -2.246153,-5.507692 0,-3.6 2.646153,-6.03077 2.43077,-2.215384 5.815385,-2.215384 3.876923,0 6.276923,2.738461 2.030769,2.338462 2.030769,5.661539 0,0.646154 -0.215384,1.630769 z m -8.03077,-6.246154 q -3.107692,0 -4.061538,2.584616 h 8.092308 Q 29.540434,71.26556 26.248126,71.26556 Z"
       style="font-weight:bold;font-family:KerkisSans;-inkscape-font-specification:'KerkisSans Bold'"
       id="path9317" /><path
       d="m 41.417365,83.850176 q -2.769231,0 -4.492308,-1.784616 l -0.36923,-0.430769 q -0.83077,-1.138462 -1.076924,-3.169231 l -0.03077,-0.246154 h 4.184616 q 0.461538,1.6 1.415384,1.784616 l 0.492308,0.06154 q 1.169231,0 1.446154,-0.892307 l 0.06154,-0.369231 q 0,-1.015385 -2.092307,-1.630769 0.09231,0.03077 -0.246154,-0.06154 l -0.03077,-0.03077 -0.153846,-0.03077 Q 37.109673,75.911714 36.309673,74.06556 36.00198,73.327099 36.00198,72.342483 q 0,-2.4 2.061539,-3.846154 1.476923,-1.015384 3.353846,-1.015384 2.584615,0 4.184615,1.753846 1.046154,1.107692 1.169231,2.984615 v 0.03077 l 0.03077,0.215384 h -4.061538 q -0.307692,-1.2 -1.323077,-1.2 -0.892308,0 -1.169231,0.738462 v 0.03077 l -0.03077,0.03077 q -0.03077,0.123077 -0.03077,0.276923 0,0.584616 1.046154,0.984616 v 0 h 0.03077 q 0,0 0.09231,0.03077 l 2.738461,0.892308 q 0.984615,0.4 1.569231,0.892307 1.538461,1.2 1.538461,3.292308 0,2.615385 -2.123077,4.246154 -1.6,1.169231 -3.661538,1.169231 z"
       style="font-weight:bold;font-family:KerkisSans;-inkscape-font-specification:'KerkisSans Bold'"
       id="path9314" /></g><g
     id="g2403"
     transform="matrix(0.36936395,0,0,0.36936395,4.2526197,9.4306173)"><path
       d="M 3.2832381,4.3728334 V 19.627167 a 1.0895952,1.0895952 0 0 0 1.0895953,1.089595 H 19.627167 a 1.0895952,1.0895952 0 0 0 1.089595,-1.089595 V 4.3728334 A 1.0895952,1.0895952 0 0 0 19.627167,3.2832381 H 4.3728334 A 1.0895952,1.0895952 0 0 0 3.2832381,4.3728334 Z m 2.1791905,0 H 18.537571 a 1.0895952,1.0895952 0 0 1 1.089596,1.0895952 V 18.537571 a 1.0895952,1.0895952 0 0 1 -1.089596,1.089596 H 5.4624286 A 1.0895952,1.0895952 0 0 1 4.3728334,18.537571 V 5.4624286 A 1.0895952,1.0895952 0 0 1 5.4624286,4.3728334 Z"
       id="path3"
       style="color:#232629;fill:#f2f2f2;fill-rule:nonzero;stroke:#f2f2f2;stroke-width:1.63439;stroke-dasharray:none" /><path
       d="M 7.5,6.7929688 6.7929688,7.5 10.292969,11 C 9.1263021,12.166667 7.9596352,13.333333 6.7929688,14.5 L 7.5,15.207031 C 8.9023444,13.804688 10.304687,12.402344 11.707031,11 10.304687,9.5976563 8.9023437,8.1953125 7.5,6.7929688 Z"
       id="path300"
       style="fill:#232629" /><path
       d="M 7.1464466,6.4394154 C 7.003265,6.582597 6.7441,6.841762 6.4394154,7.1464466 a 0.5,0.5 0 0 0 0,0.7071068 C 7.4245035,8.8386415 8.5057127,9.9198506 9.5858622,11 8.4778975,12.107965 7.3936202,13.192242 6.4394154,14.146447 a 0.5,0.5 0 0 0 1e-7,0.707106 c 0.2132218,0.213222 0.4585948,0.458595 0.707031,0.707031 a 0.50000017,0.5 44.999996 0 0 0.7071069,0 c 1.4382209,-1.43822 2.8936956,-2.893695 4.2070306,-4.207031 a 0.5,0.5 0 0 0 0,-0.707106 C 10.247627,8.8334888 8.7055234,7.2913855 7.8535534,6.4394154 Z m 0,0.7071068 C 7.9424669,7.9425425 9.3409531,9.3410288 10.999924,11 c -0.852243,0.852244 -2.1778548,2.177855 -3.4999241,3.499924 0.233935,0.233935 0.1150269,0.115027 7.57e-5,7.6e-5 0.9691031,-0.969103 2.0517673,-2.051767 3.1464464,-3.146446 a 0.5,0.50000086 45 0 0 0,-0.707107 C 9.5776506,9.5775749 8.4973241,8.4972484 7.5000756,7.5 7.6478717,7.3522039 7.7703128,7.2297628 7.8535534,7.1465222 Z"
       id="path5"
       style="color:#232629;fill:#f2f2f2;fill-rule:nonzero;stroke:#f2f2f2;stroke-width:1;stroke-dasharray:none;stroke-opacity:1" /><path
       d="m 11,16 h 6 v 1 h -6 z"
       id="path312"
       style="fill:#232629" /><path
       d="m 11,16.5 c 1.036891,0 3.148927,0 5.5,0 0,-0.335185 0,-0.165189 0,0 -1.135661,0 -3.105745,0 -5,0 0,-0.213983 0,-0.39199 0,-0.5 z M 10.5,16 c 0,0.184986 0,0.575291 0,1 a 0.5,0.5 0 0 0 0.5,0.5 c 2.043541,0 4.219833,0 6,0 A 0.5,0.5 0 0 0 17.5,17 c 0,-0.296695 0,-0.65941 0,-1 A 0.5,0.5 0 0 0 17,15.5 c -2.548253,0 -4.890084,0 -6,0 z"
       id="path7"
       style="color:#232629;fill:#f2f2f2;fill-rule:nonzero;stroke:#f2f2f2;stroke-width:1;stroke-dasharray:none;stroke-opacity:1" /></g><style
     type="text/css"
     id="current-color-scheme">
        .ColorScheme-Text {
            color:#232629;
        }
    </style></svg>
