<?xml version="1.0" encoding="UTF-8" standalone="no"?>
<svg
   width="128"
   viewBox="0 0 128 128"
   height="128"
   id="svg2"
   version="1.1"
   xml:space="preserve"
   xmlns="http://www.w3.org/2000/svg"
   xmlns:svg="http://www.w3.org/2000/svg"
   xmlns:rdf="http://www.w3.org/1999/02/22-rdf-syntax-ns#"
   xmlns:cc="http://creativecommons.org/ns#"
   xmlns:dc="http://purl.org/dc/elements/1.1/"><metadata
     id="metadata24"><rdf:RDF><cc:Work
         rdf:about=""><dc:format>image/svg+xml</dc:format><dc:type
           rdf:resource="http://purl.org/dc/dcmitype/StillImage" /></cc:Work></rdf:RDF></metadata><defs
     id="defs22"><rect
       x="-88.504372"
       y="-72.174271"
       width="135.16824"
       height="83.252541"
       id="rect22" /><rect
       x="-63.433308"
       y="31.385223"
       width="136.16743"
       height="133.1088"
       id="rect864" /><rect
       x="-56.385418"
       y="-24.236706"
       width="215.11685"
       height="186.85213"
       id="rect842" /><rect
       x="-19.409721"
       y="-10.299691"
       width="51.062214"
       height="40.68856"
       id="rect849" /><clipPath
       id="clipPath4157"
       clipPathUnits="userSpaceOnUse"><path
         style="fill:#f9f8f2;fill-opacity:1;stroke-width:1.00658"
         id="path4159"
         d="M 27.642964,3.2951379 40.728548,16.380722 H 29.65613 c -0.977824,0 -2.013166,-1.035372 -2.013166,-2.013167 z" /></clipPath><style
       type="text/css"
       id="current-color-scheme">
      .ColorScheme-Text {
        color:#232629;
      }
      </style></defs><g
     id="g851"
     transform="matrix(1.0164454,0,0,0.97285516,-5.757525,9.522287)"><g
       aria-label="TEX"
       id="text20"
       style="font-style:normal;font-weight:normal;font-size:20.1629px;line-height:1.25;font-family:sans-serif;white-space:pre;shape-inside:url(#rect22);fill:#000000;fill-opacity:1;stroke:none"
       transform="matrix(1.5732834,0,0,1.5732834,177.46573,135.68026)"><path
         d="m -78.160338,-55.458783 c -1.713847,-0.08065 -1.935639,-0.302444 -1.975964,-1.854987 v -10.625849 c 2.480036,0.08065 3.528507,1.008145 3.871277,3.40753 h 0.584724 l -0.04033,-4.052743 h -12.097741 l -0.06049,4.052743 h 0.584724 c 0.342769,-2.399385 1.39124,-3.326878 3.89144,-3.40753 v 10.625849 c -0.04033,1.53238 -0.262118,1.734009 -1.955802,1.854987 v 0.504072 h 7.198156 z"
         style="font-style:normal;font-variant:normal;font-weight:bold;font-stretch:normal;font-family:serif;-inkscape-font-specification:'serif Bold';fill:#000000"
         id="path26" /><path
         d="m -76.547339,-64.048187 c 1.350914,0.06049 1.734009,0.383095 1.774335,1.431566 v 9.758844 c -0.04033,1.068634 -0.322606,1.310588 -1.774335,1.431566 v 0.504072 h 11.795297 l 0.806516,-4.193883 h -0.564561 c -0.62505,1.350914 -1.028308,1.915475 -1.754173,2.5002 -0.927493,0.746027 -2.01629,1.068633 -3.568833,1.068633 -1.310589,0 -1.673521,-0.262117 -1.673521,-1.129122 v -4.879422 c 2.197756,0 3.024435,0.786353 3.26639,3.12525 h 0.524235 v -6.815061 h -0.524235 c -0.302444,2.298571 -1.088797,3.024435 -3.26639,3.004272 v -4.677793 c 0,-0.76619 0.262118,-0.947656 1.310589,-0.947656 3.286552,0 4.274535,0.685539 4.778607,3.367204 h 0.504073 v -4.052743 h -11.633994 z"
         style="font-style:normal;font-variant:normal;font-weight:bold;font-stretch:normal;font-family:serif;-inkscape-font-specification:'serif Bold';fill:#000000"
         id="path28" /><path
         d="m -51.626,-68.584832 h -5.040725 v 0.504073 c 1.290426,0.100814 1.451729,0.201629 1.451729,0.746027 0,0.423421 -0.221792,0.826679 -1.169448,2.137268 -0.241955,0.322606 -0.645213,0.887167 -1.129123,1.552543 l -1.955801,-3.024435 c -0.262118,-0.403258 -0.302444,-0.504073 -0.302444,-0.746028 0,-0.42342 0.241955,-0.584724 0.967819,-0.625049 0.100815,0 0.34277,-0.02016 0.62505,-0.04033 v -0.504073 h -6.976363 v 0.504073 c 0.725864,0.06049 0.987982,0.262117 1.613032,1.169448 l 3.992254,5.867404 -3.528508,4.456001 c -0.604887,0.746028 -1.088796,1.008145 -2.096941,1.129123 v 0.504072 h 5.040725 v -0.504072 c -1.229937,-0.120978 -1.633195,-0.322607 -1.633195,-0.846842 0,-0.423421 0.383095,-1.048471 1.895313,-3.084924 l 0.76619,-1.028308 2.036453,3.26639 c 0.241955,0.383095 0.423421,0.846842 0.423421,1.088797 0,0.342769 -0.34277,0.524235 -1.048471,0.564561 -0.08065,0 -0.302444,0.02016 -0.564561,0.04033 v 0.504072 h 6.855386 v -0.504072 c -0.685539,-0.02016 -0.987982,-0.282281 -1.955801,-1.73401 l -3.669648,-5.706101 1.613032,-2.238082 c 1.774335,-2.419548 2.29857,-2.802643 3.790625,-2.943783 z"
         style="font-style:normal;font-variant:normal;font-weight:bold;font-stretch:normal;font-family:serif;-inkscape-font-specification:'serif Bold';fill:#000000"
         id="path30" /></g><path
       style="fill:none;stroke:#000000;stroke-width:3.53921;stroke-linecap:round;stroke-linejoin:round;stroke-miterlimit:4;stroke-dasharray:none;stroke-opacity:1"
       d="M 107.21015,103.31619 V 24.561823 L 90.896355,8.412126 H 30.047644 V 103.5834 h 77.026196"
       id="path843" /><path
       id="path302"
       style="fill:#000000;fill-opacity:1;stroke:none;stroke-width:3.98527;stroke-dasharray:none"
       class="ColorScheme-Text UnoptimicedTransforms"
       d="M 107.26131,57.969937 C 94.523675,71.439989 81.786044,84.910041 69.048414,98.380093 63.796732,92.825149 58.542575,87.272544 53.292555,81.71603 c -1.820867,1.919431 -3.6387,3.841737 -5.458985,5.761719 6.662588,7.067258 13.376752,14.093671 19.984181,21.193331 0.395732,0.38832 0.773831,1.18128 1.180516,1.31827 0.419064,0.0736 0.775309,-0.82814 1.16825,-1.17745 2.198187,-2.43856 4.471019,-4.7788 6.710674,-7.17639 12.433872,-13.149087 24.869019,-26.296977 37.302089,-39.446823 -1.82029,-1.919981 -3.63812,-3.84229 -5.45899,-5.761719 -0.48632,0.514323 -0.97265,1.028646 -1.45898,1.542969 z"
       transform="translate(-3.1479183)" /></g></svg>
