<?xml version="1.0" encoding="UTF-8" standalone="no"?>
<!-- Created with Inkscape (http://www.inkscape.org/) -->

<svg
   width="255.99998"
   height="128"
   viewBox="0 0 67.733321 33.866667"
   version="1.1"
   id="svg5"
   inkscape:version="1.2.2 (b0a8486541, 2022-12-01)"
   sodipodi:docname="TablesDB.svg"
   xml:space="preserve"
   inkscape:export-filename="../../../Επιφάνεια εργασίας/BibliographyDB.svg"
   inkscape:export-xdpi="102.557"
   inkscape:export-ydpi="102.557"
   xmlns:inkscape="http://www.inkscape.org/namespaces/inkscape"
   xmlns:sodipodi="http://sodipodi.sourceforge.net/DTD/sodipodi-0.dtd"
   xmlns="http://www.w3.org/2000/svg"
   xmlns:svg="http://www.w3.org/2000/svg"><sodipodi:namedview
     id="namedview7"
     pagecolor="#505050"
     bordercolor="#eeeeee"
     borderopacity="1"
     inkscape:showpageshadow="0"
     inkscape:pageopacity="0"
     inkscape:pagecheckerboard="0"
     inkscape:deskcolor="#505050"
     inkscape:document-units="mm"
     showgrid="false"
     inkscape:zoom="1.6819304"
     inkscape:cx="92.453291"
     inkscape:cy="86.210464"
     inkscape:window-width="1366"
     inkscape:window-height="694"
     inkscape:window-x="0"
     inkscape:window-y="0"
     inkscape:window-maximized="1"
     inkscape:current-layer="text385" /><defs
     id="defs2"><rect
       x="7.9878626"
       y="68.10704"
       width="390.31607"
       height="59.552677"
       id="rect387" /><rect
       x="-96.244637"
       y="47.086346"
       width="219.45601"
       height="95.854347"
       id="rect369" /></defs><g
     inkscape:label="Στρώση 1"
     inkscape:groupmode="layer"
     id="layer1"><g
       aria-label="Create a DataTeX database to store your LaTeX tables."
       transform="matrix(0.2587881,0,0,0.2587881,-18.716371,0.91710622)"
       id="text385"
       style="font-size:18.6667px;line-height:0.75;font-family:KerkisSans;-inkscape-font-specification:KerkisSans;text-align:center;white-space:pre;shape-inside:url(#rect387);display:inline;fill:#f2f2f2"><g
         id="g474"
         transform="translate(25.20008)"><path
           d="m 93.809788,80.65497 q -2.268722,0 -3.776417,-1.464618 -1.493336,-1.450259 -1.493336,-3.575391 0,-2.225645 1.522054,-3.690263 1.464618,-1.4359 3.675904,-1.4359 2.311799,0 3.790777,1.550772 0.01436,0.02872 0.02872,0.04308 0.516924,0.560001 0.86154,1.277951 H 97.098 q -0.531283,-0.789745 -1.076926,-1.14872 -0.976412,-0.646155 -2.240004,-0.646155 -1.809234,0 -2.986672,1.263592 -0.01436,0.01436 -0.01436,0.02872 -1.033848,1.120002 -1.033848,2.713851 0,1.680003 1.234874,2.8718 1.177438,1.134361 2.814364,1.134361 1.349746,0 2.354876,-0.775386 0.373335,-0.272821 1.005131,-1.048207 h 1.306669 q -1.608208,2.900518 -4.652317,2.900518 z"
           id="path4367" /><path
           d="m 100.71645,76.419065 v 4.063597 h -1.148718 v -6.992833 h 1.134358 v 0.71795 q 0.60308,-0.832822 1.9959,-0.875899 v 1.076925 q -1.86667,0.172308 -1.96718,1.780516 l -0.0144,0.01436 z"
           id="path4364" /><path
           d="m 104.2775,77.395477 q 0.11487,1.105643 1.10564,1.751798 0.68923,0.459488 1.52205,0.459488 1.20616,0 1.98154,-0.904617 0.24411,-0.28718 0.3877,-0.646155 h 1.17744 q -0.48821,1.478977 -1.8236,2.182568 -0.78974,0.416411 -1.69436,0.416411 -1.69436,0 -2.81436,-1.191797 -0.99077,-1.048207 -0.99077,-2.512825 0,-1.608208 1.19179,-2.670774 1.06257,-0.947694 2.54155,-0.947694 1.59384,0 2.69949,1.091284 0.33025,0.330257 0.56,0.71795 0.47385,0.86154 0.4882,2.254363 z m 2.57026,-3.029749 q -1.30667,0 -2.0677,1.00513 -0.33026,0.43077 -0.45949,0.990771 h 5.11181 q -0.35898,-1.349746 -1.56513,-1.809234 -0.47385,-0.186667 -1.01949,-0.186667 z"
           id="path4361" /><path
           d="m 117.88984,80.482662 v -1.00513 q -0.93333,1.076925 -2.3118,1.163079 -0.14359,0.01436 -0.30153,0.01436 -1.79488,0 -2.91488,-1.206156 -0.93334,-1.019489 -0.93334,-2.44103 0,-1.694362 1.24924,-2.771287 1.0482,-0.904617 2.54154,-0.904617 1.68,0 2.65641,1.177438 V 73.48983 h 1.14872 v 6.992833 z m -2.65641,-6.116934 q -1.26359,0 -2.0677,0.947694 -0.58872,0.703591 -0.58872,1.622567 0,1.306669 1.00513,2.096414 0.73231,0.57436 1.70872,0.57436 1.24924,0 2.02462,-0.976412 0.57436,-0.71795 0.57436,-1.680003 0,-1.277951 -0.99077,-2.038978 -0.71795,-0.545642 -1.66564,-0.545642 z"
           id="path4358" /><path
           d="m 122.42728,74.4806 v 6.002062 h -1.14872 V 74.4806 h -1.50769 v -1.033848 h 1.50769 V 71.03444 h 1.13436 v 2.412312 h 1.57949 V 74.4806 Z"
           id="path4355" /><path
           d="m 125.61499,77.395477 q 0.11487,1.105643 1.10564,1.751798 0.68923,0.459488 1.52205,0.459488 1.20616,0 1.98154,-0.904617 0.24411,-0.28718 0.3877,-0.646155 h 1.17744 q -0.48821,1.478977 -1.8236,2.182568 -0.78974,0.416411 -1.69436,0.416411 -1.69436,0 -2.81436,-1.191797 -0.99077,-1.048207 -0.99077,-2.512825 0,-1.608208 1.19179,-2.670774 1.06257,-0.947694 2.54155,-0.947694 1.59384,0 2.69949,1.091284 0.33025,0.330257 0.56,0.71795 0.47385,0.86154 0.4882,2.254363 z m 2.57026,-3.029749 q -1.30667,0 -2.0677,1.00513 -0.33026,0.43077 -0.45949,0.990771 h 5.11181 q -0.35898,-1.349746 -1.56513,-1.809234 -0.47385,-0.186667 -1.01949,-0.186667 z"
           id="path4352" /><path
           d="m 143.20479,80.482662 v -1.00513 q -0.93333,1.076925 -2.3118,1.163079 -0.14359,0.01436 -0.30154,0.01436 -1.79487,0 -2.91487,-1.206156 -0.93334,-1.019489 -0.93334,-2.44103 0,-1.694362 1.24924,-2.771287 1.0482,-0.904617 2.54154,-0.904617 1.68,0 2.65641,1.177438 V 73.48983 h 1.14872 v 6.992833 z m -2.65641,-6.116934 q -1.26359,0 -2.0677,0.947694 -0.58872,0.703591 -0.58872,1.622567 0,1.306669 1.00513,2.096414 0.73231,0.57436 1.70872,0.57436 1.24924,0 2.02462,-0.976412 0.57436,-0.71795 0.57436,-1.680003 0,-1.277951 -0.99077,-2.038978 -0.71795,-0.545642 -1.66564,-0.545642 z"
           id="path4349" /><path
           d="m 156.08482,79.750353 q -1.29231,0.732309 -3.4318,0.732309 h -2.74257 v -9.821556 h 2.41231 q 2.28308,0 3.51796,0.617437 0.14359,0.07179 0.28718,0.157949 2.05333,1.191797 2.25436,3.661545 0.0287,0.244103 0.0287,0.516924 0,2.627697 -2.09642,3.991802 -0.11487,0.07179 -0.22974,0.14359 z m -0.61744,-7.409244 q -1.00513,-0.617437 -3.10154,-0.617437 h -1.27795 v 7.696424 h 1.27795 q 2.32616,0 3.38872,-0.775386 l 0.0718,-0.05744 q 1.30667,-1.048207 1.39282,-2.800005 0,-0.114872 0,-0.215385 0,-1.837952 -1.27795,-2.900518 -0.22974,-0.186667 -0.47385,-0.330257 z"
           id="path4346" /><path
           d="m 165.77713,80.482662 v -1.00513 q -0.93333,1.076925 -2.31179,1.163079 -0.14359,0.01436 -0.30154,0.01436 -1.79488,0 -2.91488,-1.206156 -0.93334,-1.019489 -0.93334,-2.44103 0,-1.694362 1.24924,-2.771287 1.0482,-0.904617 2.54154,-0.904617 1.68,0 2.65642,1.177438 V 73.48983 h 1.14872 v 6.992833 z m -2.65641,-6.116934 q -1.26359,0 -2.0677,0.947694 -0.58872,0.703591 -0.58872,1.622567 0,1.306669 1.00513,2.096414 0.73231,0.57436 1.70873,0.57436 1.24923,0 2.02461,-0.976412 0.57436,-0.71795 0.57436,-1.680003 0,-1.277951 -0.99077,-2.038978 -0.71795,-0.545642 -1.66564,-0.545642 z"
           id="path4343" /><path
           d="m 170.31457,74.4806 v 6.002062 h -1.14872 V 74.4806 h -1.5077 v -1.033848 h 1.5077 V 71.03444 h 1.13436 v 2.412312 h 1.57949 V 74.4806 Z"
           id="path4340" /><path
           d="m 178.81511,80.482662 v -1.00513 q -0.93334,1.076925 -2.3118,1.163079 -0.14359,0.01436 -0.30154,0.01436 -1.79488,0 -2.91488,-1.206156 -0.93333,-1.019489 -0.93333,-2.44103 0,-1.694362 1.24923,-2.771287 1.04821,-0.904617 2.54154,-0.904617 1.68001,0 2.65642,1.177438 V 73.48983 h 1.14872 v 6.992833 z m -2.65642,-6.116934 q -1.26359,0 -2.06769,0.947694 -0.58872,0.703591 -0.58872,1.622567 0,1.306669 1.00513,2.096414 0.73231,0.57436 1.70872,0.57436 1.24923,0 2.02462,-0.976412 0.57436,-0.71795 0.57436,-1.680003 0,-1.277951 -0.99077,-2.038978 -0.71795,-0.545642 -1.66565,-0.545642 z"
           id="path4337" /><path
           d="m 184.07049,71.723672 v 8.75899 h -1.1918 v -8.75899 h -2.25436 v -1.062566 h 5.68617 v 1.062566 z"
           id="path4334" /><path
           d="m 187.87564,77.395477 q 0.11488,1.105643 1.10565,1.751798 0.68923,0.459488 1.52205,0.459488 1.20616,0 1.98154,-0.904617 0.24411,-0.28718 0.3877,-0.646155 h 1.17743 q -0.4882,1.478977 -1.82359,2.182568 -0.78974,0.416411 -1.69436,0.416411 -1.69436,0 -2.81437,-1.191797 -0.99077,-1.048207 -0.99077,-2.512825 0,-1.608208 1.1918,-2.670774 1.06257,-0.947694 2.54154,-0.947694 1.59385,0 2.6995,1.091284 0.33025,0.330257 0.56,0.71795 0.47384,0.86154 0.4882,2.254363 z m 2.57026,-3.029749 q -1.30666,0 -2.06769,1.00513 -0.33026,0.43077 -0.45949,0.990771 h 5.1118 q -0.35897,-1.349746 -1.56513,-1.809234 -0.47384,-0.186667 -1.01949,-0.186667 z"
           id="path4331" /><path
           d="m 201.37312,80.482662 -2.72821,-4.034879 -2.72821,4.034879 h -1.40719 l 3.40309,-5.02565 -3.21642,-4.795906 h 1.40718 l 2.54155,3.776417 2.54154,-3.776417 h 1.37846 l -3.21641,4.795906 3.41744,5.02565 z"
           id="path4328" /><path
           d="m 213.56392,80.482662 v -1.048207 q -0.91897,1.14872 -2.35487,1.220515 h -0.20103 q -1.78051,0 -2.92923,-1.206156 -0.99077,-1.033848 -0.99077,-2.484107 0,-1.680003 1.24923,-2.756928 1.06256,-0.918976 2.57026,-0.918976 1.59385,0 2.65641,1.091284 V 71.03444 h 1.14872 v 9.448222 z m -2.67077,-6.160011 q -1.27795,0 -2.0677,0.962053 -0.58871,0.71795 -0.58871,1.651285 0,1.306669 1.00513,2.096414 0.74666,0.57436 1.73743,0.57436 1.22052,0 2.01026,-0.962053 0.61744,-0.746668 0.61744,-1.708721 0,-1.206156 -0.96205,-1.995901 -0.76103,-0.617437 -1.7518,-0.617437 z"
           id="path4325" /><path
           d="m 222.2942,80.482662 v -1.00513 q -0.93333,1.076925 -2.3118,1.163079 -0.14359,0.01436 -0.30154,0.01436 -1.79487,0 -2.91487,-1.206156 -0.93334,-1.019489 -0.93334,-2.44103 0,-1.694362 1.24923,-2.771287 1.04821,-0.904617 2.54155,-0.904617 1.68,0 2.65641,1.177438 V 73.48983 h 1.14872 v 6.992833 z m -2.65641,-6.116934 q -1.2636,0 -2.0677,0.947694 -0.58872,0.703591 -0.58872,1.622567 0,1.306669 1.00513,2.096414 0.73231,0.57436 1.70872,0.57436 1.24924,0 2.02462,-0.976412 0.57436,-0.71795 0.57436,-1.680003 0,-1.277951 -0.99077,-2.038978 -0.71795,-0.545642 -1.66564,-0.545642 z"
           id="path4322" /><path
           d="m 226.83164,74.4806 v 6.002062 h -1.14872 V 74.4806 h -1.50769 v -1.033848 h 1.50769 V 71.03444 h 1.13437 v 2.412312 h 1.57949 V 74.4806 Z"
           id="path4319" /><path
           d="m 235.33218,80.482662 v -1.00513 q -0.93333,1.076925 -2.3118,1.163079 -0.14359,0.01436 -0.30154,0.01436 -1.79487,0 -2.91487,-1.206156 -0.93334,-1.019489 -0.93334,-2.44103 0,-1.694362 1.24923,-2.771287 1.04821,-0.904617 2.54155,-0.904617 1.68,0 2.65641,1.177438 V 73.48983 h 1.14872 v 6.992833 z m -2.65641,-6.116934 q -1.2636,0 -2.0677,0.947694 -0.58872,0.703591 -0.58872,1.622567 0,1.306669 1.00513,2.096414 0.73231,0.57436 1.70872,0.57436 1.24923,0 2.02462,-0.976412 0.57436,-0.71795 0.57436,-1.680003 0,-1.277951 -0.99077,-2.038978 -0.71795,-0.545642 -1.66564,-0.545642 z"
           id="path4316" /><path
           d="m 241.63577,80.65497 q -1.66565,0 -2.6277,-1.163079 v 0.990771 h -1.14872 V 71.03444 h 1.13436 v 3.403083 q 0.97641,-1.14872 2.65641,-1.14872 1.70873,0 2.82873,1.191797 0.96205,1.033848 0.96205,2.469748 0,1.708721 -1.23487,2.785646 -1.06257,0.918976 -2.57026,0.918976 z m 0,-6.332319 q -1.32103,0 -2.12514,0.976412 -0.57436,0.703591 -0.57436,1.636926 0,1.076925 0.77539,1.881029 0.77539,0.789745 1.90975,0.789745 1.34974,0 2.12513,-1.00513 0.54564,-0.71795 0.54564,-1.665644 0,-1.306669 -1.00513,-2.067696 -0.70359,-0.545642 -1.65128,-0.545642 z"
           id="path4313" /><path
           d="m 252.74965,80.482662 v -1.00513 q -0.93334,1.076925 -2.3118,1.163079 -0.14359,0.01436 -0.30154,0.01436 -1.79488,0 -2.91488,-1.206156 -0.93333,-1.019489 -0.93333,-2.44103 0,-1.694362 1.24923,-2.771287 1.04821,-0.904617 2.54154,-0.904617 1.68001,0 2.65642,1.177438 V 73.48983 h 1.14872 v 6.992833 z m -2.65642,-6.116934 q -1.26359,0 -2.06769,0.947694 -0.58872,0.703591 -0.58872,1.622567 0,1.306669 1.00513,2.096414 0.73231,0.57436 1.70872,0.57436 1.24923,0 2.02462,-0.976412 0.57436,-0.71795 0.57436,-1.680003 0,-1.277951 -0.99077,-2.038978 -0.71795,-0.545642 -1.66565,-0.545642 z"
           id="path4310" /><path
           d="m 257.05733,80.65497 q -1.4359,0 -2.05334,-1.105643 -0.28718,-0.531283 -0.30154,-1.249233 h 1.12001 q 0.0862,1.234874 1.23487,1.306669 0.70359,0 0.97641,-0.588719 0.10051,-0.229744 0.10051,-0.488206 0,-0.560001 -0.40205,-0.804104 -0.2441,-0.157949 -0.89026,-0.43077 l -0.91897,-0.373334 q -0.2441,-0.14359 -0.40205,-0.301539 -0.56,-0.502565 -0.56,-1.29231 0,-1.076925 0.87589,-1.651285 0.51693,-0.344616 1.20616,-0.344616 1.22052,0 1.78052,0.976412 v 0 q 0.14359,0.244103 0.21538,0.531283 0.0574,0.244103 0.0718,0.516924 h -1.14872 q -0.0862,-0.990771 -0.93334,-0.990771 -0.58872,0 -0.83282,0.502565 -0.0861,0.172308 -0.0861,0.387693 0,0.545642 0.58871,0.804104 l 1.52206,0.646155 q 0.94769,0.502565 1.04821,1.464618 0.0143,0.129231 0.0143,0.272821 0,1.191797 -0.91897,1.823593 -0.56,0.387693 -1.30667,0.387693 z"
           id="path4307" /><path
           d="m 261.10657,77.395477 q 0.11487,1.105643 1.10564,1.751798 0.68924,0.459488 1.52206,0.459488 1.20615,0 1.98154,-0.904617 0.2441,-0.28718 0.38769,-0.646155 h 1.17744 q -0.48821,1.478977 -1.82359,2.182568 -0.78975,0.416411 -1.69436,0.416411 -1.69437,0 -2.81437,-1.191797 -0.99077,-1.048207 -0.99077,-2.512825 0,-1.608208 1.1918,-2.670774 1.06256,-0.947694 2.54154,-0.947694 1.59385,0 2.69949,1.091284 0.33026,0.330257 0.56,0.71795 0.47385,0.86154 0.48821,2.254363 z m 2.57026,-3.029749 q -1.30667,0 -2.06769,1.00513 -0.33026,0.43077 -0.45949,0.990771 h 5.1118 q -0.35897,-1.349746 -1.56513,-1.809234 -0.47385,-0.186667 -1.01949,-0.186667 z"
           id="path4304" /></g><g
         id="g450"
         transform="translate(26.543306)"><g
           id="g405"><path
             d="m 97.627964,87.853723 v 6.002062 h -1.14872 v -6.002062 h -1.5077 v -1.033848 h 1.5077 v -2.412312 h 1.13436 v 2.412312 h 1.57949 v 1.033848 z"
             id="path4301" /><path
             d="m 103.51516,94.028093 q -1.83796,0 -2.9436,-1.249233 -0.904616,-1.019489 -0.904616,-2.469748 0,-1.636926 1.220516,-2.685133 1.06257,-0.918976 2.5559,-0.918976 1.78052,0 2.85744,1.234874 0.8759,1.00513 0.8759,2.44103 0,1.72308 -1.23487,2.785646 -1.00513,0.86154 -2.42667,0.86154 z m -0.0718,-6.289242 q -1.33539,0 -2.09641,0.990771 -0.53129,0.689232 -0.53129,1.608208 0,1.407182 1.04821,2.15385 0.68923,0.488206 1.62257,0.488206 1.33539,0 2.05334,-1.00513 0.4882,-0.674873 0.4882,-1.57949 0,-1.364105 -1.00513,-2.139491 -0.68923,-0.516924 -1.57949,-0.516924 z"
             id="path4298" /><path
             d="m 114.05468,94.028093 q -1.4359,0 -2.05334,-1.105643 -0.28718,-0.531283 -0.30154,-1.249233 h 1.12 q 0.0862,1.234874 1.23488,1.306669 0.70359,0 0.97641,-0.588719 0.10051,-0.229744 0.10051,-0.488206 0,-0.560001 -0.40205,-0.804104 -0.2441,-0.157949 -0.89026,-0.43077 l -0.91897,-0.373334 q -0.24411,-0.14359 -0.40205,-0.301539 -0.56001,-0.502565 -0.56001,-1.29231 0,-1.076925 0.8759,-1.651285 0.51693,-0.344616 1.20616,-0.344616 1.22051,0 1.78052,0.976412 v 0 q 0.14359,0.244103 0.21538,0.531283 0.0574,0.244103 0.0718,0.516924 h -1.14872 q -0.0862,-0.990771 -0.93334,-0.990771 -0.58872,0 -0.83282,0.502565 -0.0862,0.172308 -0.0862,0.387693 0,0.545642 0.58872,0.804104 l 1.52206,0.646155 q 0.94769,0.502565 1.0482,1.464618 0.0144,0.129231 0.0144,0.272821 0,1.191797 -0.91897,1.823593 -0.56,0.387693 -1.30667,0.387693 z"
             id="path4295" /><path
             d="m 119.23828,87.853723 v 6.002062 h -1.14872 v -6.002062 h -1.5077 v -1.033848 h 1.5077 v -2.412312 h 1.13436 v 2.412312 h 1.57949 v 1.033848 z"
             id="path4292" /><path
             d="m 125.12548,94.028093 q -1.83795,0 -2.9436,-1.249233 -0.90461,-1.019489 -0.90461,-2.469748 0,-1.636926 1.22051,-2.685133 1.06257,-0.918976 2.5559,-0.918976 1.78052,0 2.85744,1.234874 0.8759,1.00513 0.8759,2.44103 0,1.72308 -1.23487,2.785646 -1.00513,0.86154 -2.42667,0.86154 z m -0.0718,-6.289242 q -1.33538,0 -2.09641,0.990771 -0.53128,0.689232 -0.53128,1.608208 0,1.407182 1.0482,2.15385 0.68923,0.488206 1.62257,0.488206 1.33539,0 2.05334,-1.00513 0.4882,-0.674873 0.4882,-1.57949 0,-1.364105 -1.00513,-2.139491 -0.68923,-0.516924 -1.57949,-0.516924 z"
             id="path4289" /><path
             d="m 131.05576,89.792188 v 4.063597 h -1.14872 v -6.992833 h 1.13436 v 0.71795 q 0.60307,-0.832822 1.9959,-0.875899 v 1.076925 q -1.86667,0.172308 -1.96719,1.780516 l -0.0143,0.01436 z"
             id="path4286" /><path
             d="m 134.6168,90.7686 q 0.11487,1.105643 1.10564,1.751798 0.68923,0.459488 1.52205,0.459488 1.20616,0 1.98155,-0.904617 0.2441,-0.28718 0.38769,-0.646155 h 1.17744 q -0.48821,1.478977 -1.8236,2.182568 -0.78974,0.416411 -1.69436,0.416411 -1.69436,0 -2.81436,-1.191797 -0.99077,-1.048207 -0.99077,-2.512825 0,-1.608208 1.19179,-2.670774 1.06257,-0.947694 2.54155,-0.947694 1.59385,0 2.69949,1.091284 0.33026,0.330257 0.56,0.71795 0.47385,0.86154 0.48821,2.254363 z m 2.57026,-3.029749 q -1.30667,0 -2.0677,1.00513 -0.33025,0.43077 -0.45949,0.990771 h 5.11181 q -0.35898,-1.349746 -1.56513,-1.809234 -0.47385,-0.186667 -1.01949,-0.186667 z"
             id="path4283" /></g><g
           id="g423"
           transform="translate(0,-0.253566)"><path
             d="m 149.53714,96.938074 h -1.20615 l 1.17743,-2.72821 -2.75692,-6.720012 h 1.24923 l 2.13949,5.31283 2.29744,-5.31283 h 1.22052 z"
             id="path4280" /><path
             d="m 157.90843,94.654993 q -1.83795,0 -2.9436,-1.249233 -0.90461,-1.019489 -0.90461,-2.469748 0,-1.636926 1.22051,-2.685133 1.06257,-0.918976 2.5559,-0.918976 1.78052,0 2.85744,1.234874 0.8759,1.00513 0.8759,2.44103 0,1.72308 -1.23487,2.785646 -1.00513,0.86154 -2.42667,0.86154 z m -0.0718,-6.289242 q -1.33538,0 -2.09641,0.990771 -0.53128,0.689232 -0.53128,1.608208 0,1.407182 1.0482,2.15385 0.68923,0.488206 1.62257,0.488206 1.33539,0 2.05334,-1.00513 0.4882,-0.674873 0.4882,-1.57949 0,-1.364105 -1.00513,-2.139491 -0.68923,-0.516924 -1.57949,-0.516924 z"
             id="path4277" /><path
             d="m 167.91666,94.482685 v -0.818463 q -0.71795,0.990771 -2.15385,0.990771 -1.66564,0 -2.49847,-1.134361 -0.57436,-0.761027 -0.57436,-2.254363 v -3.776417 h 1.13437 v 3.776417 q 0,0.976412 0.31589,1.536413 0.50257,0.804104 1.69437,0.804104 1.10564,0 1.66564,-0.804104 0.40205,-0.545642 0.40205,-1.72308 v -3.58975 h 1.14872 v 6.992833 z"
             id="path4274" /><path
             d="m 171.60691,90.419088 v 4.063597 h -1.14872 v -6.992833 h 1.13436 v 0.71795 q 0.60308,-0.832822 1.9959,-0.875899 v 1.076925 q -1.86667,0.172308 -1.96718,1.780516 l -0.0144,0.01436 z"
             id="path4271" /><path
             d="m 178.48489,94.482685 -0.0144,-9.821556 h 1.17744 v 8.75899 h 4.07796 v 1.062566 z"
             id="path4268" /><path
             d="m 190.58951,94.482685 v -1.00513 q -0.93333,1.076925 -2.3118,1.163079 -0.14359,0.01436 -0.30154,0.01436 -1.79487,0 -2.91487,-1.206156 -0.93334,-1.019489 -0.93334,-2.44103 0,-1.694362 1.24923,-2.771287 1.04821,-0.904617 2.54155,-0.904617 1.68,0 2.65641,1.177438 v -1.019489 h 1.14872 v 6.992833 z m -2.65641,-6.116934 q -1.2636,0 -2.0677,0.947694 -0.58872,0.703591 -0.58872,1.622567 0,1.306669 1.00513,2.096414 0.73231,0.57436 1.70872,0.57436 1.24924,0 2.02462,-0.976412 0.57436,-0.71795 0.57436,-1.680003 0,-1.277951 -0.99077,-2.038978 -0.71795,-0.545642 -1.66564,-0.545642 z"
             id="path4265" /><path
             d="m 195.8449,85.723695 v 8.75899 h -1.1918 v -8.75899 h -2.25436 v -1.062566 h 5.68617 v 1.062566 z"
             id="path4262" /><path
             d="m 199.65005,91.3955 q 0.11487,1.105643 1.10564,1.751798 0.68923,0.459488 1.52206,0.459488 1.20615,0 1.98154,-0.904617 0.2441,-0.28718 0.38769,-0.646155 h 1.17744 q -0.48821,1.478977 -1.82359,2.182568 -0.78975,0.416411 -1.69437,0.416411 -1.69436,0 -2.81436,-1.191797 -0.99077,-1.048207 -0.99077,-2.512825 0,-1.608208 1.1918,-2.670774 1.06256,-0.947694 2.54154,-0.947694 1.59385,0 2.69949,1.091284 0.33026,0.330257 0.56,0.71795 0.47385,0.86154 0.48821,2.254363 z m 2.57026,-3.029749 q -1.30667,0 -2.0677,1.00513 -0.33025,0.43077 -0.45948,0.990771 h 5.1118 q -0.35897,-1.349746 -1.56513,-1.809234 -0.47385,-0.186667 -1.01949,-0.186667 z"
             id="path4259" /><path
             d="m 213.14753,94.482685 -2.72821,-4.034879 -2.72821,4.034879 h -1.40718 l 3.40308,-5.02565 -3.21642,-4.795906 h 1.40719 l 2.54154,3.776417 2.54154,-3.776417 h 1.37847 l -3.21642,4.795906 3.41744,5.02565 z"
             id="path4256" /><path
             d="m 221.1455,88.480623 v 6.002062 h -1.14872 v -6.002062 h -1.50769 v -1.033848 h 1.50769 v -2.412312 h 1.13436 v 2.412312 h 1.57949 v 1.033848 z"
             id="path4253" /><path
             d="m 229.64604,94.482685 v -1.00513 q -0.93334,1.076925 -2.3118,1.163079 -0.14359,0.01436 -0.30154,0.01436 -1.79487,0 -2.91488,-1.206156 -0.93333,-1.019489 -0.93333,-2.44103 0,-1.694362 1.24923,-2.771287 1.04821,-0.904617 2.54154,-0.904617 1.68001,0 2.65642,1.177438 v -1.019489 h 1.14872 v 6.992833 z m -2.65642,-6.116934 q -1.26359,0 -2.06769,0.947694 -0.58872,0.703591 -0.58872,1.622567 0,1.306669 1.00513,2.096414 0.73231,0.57436 1.70872,0.57436 1.24923,0 2.02462,-0.976412 0.57436,-0.71795 0.57436,-1.680003 0,-1.277951 -0.99077,-2.038978 -0.71795,-0.545642 -1.66565,-0.545642 z"
             id="path4250" /><path
             d="m 235.94963,94.654993 q -1.66564,0 -2.6277,-1.163079 v 0.990771 h -1.14872 v -9.448222 h 1.13436 v 3.403083 q 0.97642,-1.14872 2.65642,-1.14872 1.70872,0 2.82872,1.191797 0.96206,1.033848 0.96206,2.469748 0,1.708721 -1.23488,2.785646 -1.06256,0.918976 -2.57026,0.918976 z m 0,-6.332319 q -1.32103,0 -2.12513,0.976412 -0.57436,0.703591 -0.57436,1.636926 0,1.076925 0.77538,1.881029 0.77539,0.789745 1.90975,0.789745 1.34975,0 2.12513,-1.00513 0.54565,-0.71795 0.54565,-1.665644 0,-1.306669 -1.00513,-2.067696 -0.7036,-0.545642 -1.65129,-0.545642 z"
             id="path4247" /><path
             d="m 240.88913,94.482685 -0.0144,-9.448222 h 1.14872 v 9.448222 z"
             id="path4244" /><path
             d="m 244.30657,91.3955 q 0.11487,1.105643 1.10564,1.751798 0.68923,0.459488 1.52205,0.459488 1.20616,0 1.98155,-0.904617 0.2441,-0.28718 0.38769,-0.646155 h 1.17744 q -0.48821,1.478977 -1.8236,2.182568 -0.78974,0.416411 -1.69436,0.416411 -1.69436,0 -2.81436,-1.191797 -0.99077,-1.048207 -0.99077,-2.512825 0,-1.608208 1.19179,-2.670774 1.06257,-0.947694 2.54155,-0.947694 1.59385,0 2.69949,1.091284 0.33026,0.330257 0.56,0.71795 0.47385,0.86154 0.48821,2.254363 z m 2.57026,-3.029749 q -1.30667,0 -2.0677,1.00513 -0.33026,0.43077 -0.45949,0.990771 h 5.11181 q -0.35898,-1.349746 -1.56513,-1.809234 -0.47385,-0.186667 -1.01949,-0.186667 z"
             id="path4241" /><path
             d="m 253.51071,94.654993 q -1.4359,0 -2.05334,-1.105643 -0.28718,-0.531283 -0.30154,-1.249233 h 1.12 q 0.0862,1.234874 1.23488,1.306669 0.70359,0 0.97641,-0.588719 0.10051,-0.229744 0.10051,-0.488206 0,-0.560001 -0.40205,-0.804104 -0.2441,-0.157949 -0.89026,-0.43077 l -0.91898,-0.373334 q -0.2441,-0.14359 -0.40205,-0.301539 -0.56,-0.502565 -0.56,-1.29231 0,-1.076925 0.8759,-1.651285 0.51692,-0.344616 1.20616,-0.344616 1.22051,0 1.78051,0.976412 v 0 q 0.14359,0.244103 0.21539,0.531283 0.0574,0.244103 0.0718,0.516924 h -1.14872 q -0.0862,-0.990771 -0.93333,-0.990771 -0.58872,0 -0.83282,0.502565 -0.0862,0.172308 -0.0862,0.387693 0,0.545642 0.58872,0.804104 l 1.52205,0.646155 q 0.9477,0.502565 1.04821,1.464618 0.0144,0.129231 0.0144,0.272821 0,1.191797 -0.91898,1.823593 -0.56,0.387693 -1.30666,0.387693 z"
             id="path4238" /><path
             d="m 257.18661,94.482685 -0.0144,-1.608208 h 1.14872 v 1.608208 z"
             id="path4235" /></g></g></g><g
       aria-label="Tables"
       transform="matrix(0.33271755,0,0,0.33271755,57.075516,-10.710884)"
       id="text367"
       style="font-size:40px;line-height:1.25;white-space:pre;shape-inside:url(#rect369);display:inline;fill:#f2f2f2"><path
         d="m -88.028756,66.527099 v 16.953846 h -4.307692 V 66.527099 h -3.938462 v -4.092308 h 12.153846 v 4.092308 z"
         style="font-weight:bold;font-family:KerkisSans;-inkscape-font-specification:'KerkisSans Bold'"
         id="path4385" /><path
         d="m -70.582587,83.480945 v -1.661539 q -1.938462,1.938462 -5.015385,2.03077 -3.846154,0 -6.184615,-2.707693 -1.907692,-2.215384 -1.907692,-5.415384 0,-3.907693 2.707692,-6.276923 2.246154,-1.969231 5.476923,-1.969231 3.076923,0 4.892308,2.030769 v -1.661538 h 3.876923 V 83.480945 Z M -75.105664,71.26556 q -2.461539,0 -3.661539,1.969231 -0.707692,1.107692 -0.707692,2.584615 0,2.492308 1.969231,3.63077 1.076923,0.615384 2.461538,0.615384 2.092308,0 3.23077,-1.292307 1.107692,-1.261539 1.107692,-2.984616 0,-2.615384 -1.969231,-3.846154 -1.046154,-0.676923 -2.430769,-0.676923 z"
         style="font-weight:bold;font-family:KerkisSans;-inkscape-font-specification:'KerkisSans Bold'"
         id="path4382" /><path
         d="m -49.382608,81.080945 q -2.184615,2.769231 -5.969231,2.769231 -2.923076,0 -4.830769,-1.692308 -0.153846,-0.153846 -0.338461,-0.338462 v 1.661539 h -3.907693 V 62.650176 h 4.184616 v 6.246153 q 1.938461,-1.692307 4.646154,-1.692307 3.723077,0 6.061538,2.676923 2.030769,2.338461 2.030769,5.630769 0,3.2 -1.876923,5.569231 z m -6.738461,-10.092308 q -2.4,0 -3.63077,1.907692 -0.707692,1.138462 -0.707692,2.615385 0,2.646154 1.969231,3.876923 1.046154,0.676923 2.430769,0.676923 2.492308,0 3.692308,-1.969231 0.676923,-1.107692 0.676923,-2.584615 0,-2.461538 -1.876923,-3.753846 -1.107692,-0.769231 -2.553846,-0.769231 z"
         style="font-weight:bold;font-family:KerkisSans;-inkscape-font-specification:'KerkisSans Bold'"
         id="path4379" /><path
         d="m -45.813398,83.480945 -0.03077,-20.830769 h 4.215385 v 20.830769 z"
         style="font-weight:bold;font-family:KerkisSans;-inkscape-font-specification:'KerkisSans Bold'"
         id="path4376" /><path
         d="m -23.22881,77.511714 h -11.969231 q 0.615385,1.938462 2.8,2.430769 0.584616,0.123077 1.230769,0.123077 1.846154,0 3.015385,-1.138461 0.153846,-0.153846 0.338462,-0.369231 h 4.461538 q -0.430769,1.353846 -1.353846,2.461538 -2.461539,2.83077 -6.369231,2.83077 -3.907692,0 -6.461538,-2.615385 -2.246154,-2.307692 -2.246154,-5.507692 0,-3.6 2.646154,-6.03077 2.430769,-2.215384 5.815384,-2.215384 3.876923,0 6.276923,2.738461 2.03077,2.338462 2.03077,5.661539 0,0.646154 -0.215385,1.630769 z m -8.030769,-6.246154 q -3.107693,0 -4.061539,2.584616 h 8.092308 q -0.738462,-2.584616 -4.030769,-2.584616 z"
         style="font-weight:bold;font-family:KerkisSans;-inkscape-font-specification:'KerkisSans Bold'"
         id="path4373" /><path
         d="m -16.090341,83.850176 q -2.76923,0 -4.492307,-1.784616 l -0.369231,-0.430769 q -0.830769,-1.138462 -1.076923,-3.169231 l -0.03077,-0.246154 h 4.184615 q 0.461538,1.6 1.415385,1.784616 l 0.492307,0.06154 q 1.169231,0 1.446154,-0.892307 l 0.06154,-0.369231 q 0,-1.015385 -2.092308,-1.630769 0.09231,0.03077 -0.246154,-0.06154 l -0.03077,-0.03077 -0.153846,-0.03077 q -3.415385,-1.138462 -4.215385,-2.984616 -0.307692,-0.738461 -0.307692,-1.723077 0,-2.4 2.061538,-3.846154 1.476923,-1.015384 3.353846,-1.015384 2.584616,0 4.184616,1.753846 1.046154,1.107692 1.16923,2.984615 v 0.03077 l 0.03077,0.215384 h -4.061539 q -0.307692,-1.2 -1.323077,-1.2 -0.892307,0 -1.16923,0.738462 v 0.03077 l -0.03077,0.03077 q -0.03077,0.123077 -0.03077,0.276923 0,0.584616 1.046154,0.984616 v 0 h 0.03077 q 0,0 0.09231,0.03077 l 2.738461,0.892308 q 0.984616,0.4 1.569231,0.892307 1.538462,1.2 1.538462,3.292308 0,2.615385 -2.123077,4.246154 -1.6,1.169231 -3.661539,1.169231 z"
         style="font-weight:bold;font-family:KerkisSans;-inkscape-font-specification:'KerkisSans Bold'"
         id="path4370" /></g><path
       d="m 21.437385,10.090341 h -6.590257 c -0.41997,0 -0.760415,0.340444 -0.760415,0.760415 v 5.576371 c 0,0.419971 0.340445,0.760414 0.760415,0.760414 h 6.590257 c 0.41997,0 0.760415,-0.340443 0.760415,-0.760414 v -5.576371 c 0,-0.419971 -0.340445,-0.760415 -0.760415,-0.760415 z m -3.802072,6.083315 h -2.534714 v -1.520829 h 2.534714 z m 0,-2.534715 h -2.534714 v -1.520829 h 2.534714 z m 3.5486,2.534715 h -2.534714 v -1.520829 h 2.534714 z m 0,-2.534715 h -2.534714 v -1.520829 h 2.534714 z"
       id="path2"
       style="fill:#f2f2f2;stroke-width:0.0158419" /></g></svg>
