<?xml version="1.0" encoding="UTF-8" standalone="no"?>
<svg
   xmlns:dc="http://purl.org/dc/elements/1.1/"
   xmlns:cc="http://creativecommons.org/ns#"
   xmlns:rdf="http://www.w3.org/1999/02/22-rdf-syntax-ns#"
   xmlns:svg="http://www.w3.org/2000/svg"
   xmlns="http://www.w3.org/2000/svg"
   xmlns:sodipodi="http://sodipodi.sourceforge.net/DTD/sodipodi-0.dtd"
   xmlns:inkscape="http://www.inkscape.org/namespaces/inkscape"
   version="1.1"
   id="Layer_1"
   x="0px"
   y="0px"
   viewBox="0 0 122.88 120.54"
   style="enable-background:new 0 0 122.88 120.54"
   xml:space="preserve"
   sodipodi:docname="database-info.svg"
   inkscape:version="1.0.2 (e86c870879, 2021-01-15, custom)"><metadata
     id="metadata13"><rdf:RDF><cc:Work
         rdf:about=""><dc:format>image/svg+xml</dc:format><dc:type
           rdf:resource="http://purl.org/dc/dcmitype/StillImage" /></cc:Work></rdf:RDF></metadata><defs
     id="defs11"><clipPath
       clipPathUnits="userSpaceOnUse"
       id="clipPath942"><path
         id="path944"
         style="fill:#ff0000;fill-opacity:1;fill-rule:nonzero;stroke:none"
         d="M 0,0 V 3.6894531 C 1.4222574,3.1438981 2.8994274,3.0808605 4.7109375,2.8613281 6.2783191,2.6739629 7.8499023,2.6210927 9.4238281,2.6210938 c 1.5739259,8e-7 3.1495569,0.052457 4.7226559,0.074219 0.484275,0.00378 0.987525,-0.00794 1.494141,-0.00781 C 16.384356,2.1156073 17.303541,1.6343007 18.378906,1.265625 18.853539,0.75824827 19.287177,0.33287518 19.644531,0 Z m 95.251953,0 c 1.348597,0.95300793 2.059993,1.8657495 3.617188,3.5507812 0.424677,0.3565655 0.846664,0.7162414 1.273439,1.0703126 0.50377,0.4179693 1.07232,0.7662789 1.51758,1.2460937 4.67837,5.0413395 0.84,1.2704834 3.52734,4.5136715 0.0296,0.03576 0.0298,-0.08889 0.0449,-0.132812 0.60789,0.846234 1.21438,1.692829 1.82227,2.539062 1.18559,1.742569 1.37416,3.844178 1.93554,5.8125 0.0256,0.08989 -0.08,-0.34895 -0.0156,-0.28125 0.11249,0.118198 0.14004,0.297292 0.18164,0.455079 0.17886,0.67762 0.31897,1.364457 0.47852,2.046874 -0.51154,3.650302 -0.78461,5.880916 -3.50977,8.517579 -0.91695,0.88718 -2.27459,1.743908 -3.37891,2.476562 -1.14704,0.665338 -2.30715,1.308289 -3.474606,1.9375 0.0059,0.21624 0.01448,0.432205 0.02148,0.648438 0.0656,2.020188 -0.03422,1.133097 0.201172,2.640625 0.06694,0.459285 0.118965,0.922052 0.166015,1.384765 0.02618,0.05205 0.05218,0.09689 0.07813,0.150391 0.330929,0.302366 0.647759,0.617424 0.898439,0.986328 0.57567,0.847158 0.97174,1.818443 1.26172,2.800781 0.0394,0.133574 0.0647,0.251442 0.0957,0.375 6.49084,-0.676712 9.3295,4.219088 2.54883,11.425781 -0.51647,0.548916 -1.01341,1.118022 -1.55078,1.646485 -0.20462,0.201221 -0.42844,0.381531 -0.64649,0.568359 -0.0771,0.116275 -0.22775,0.257453 -0.36523,0.365235 -1.34911,3.755083 -0.9645,4.059106 -2.111329,4.013671 -2.642724,2.481784 -4.816963,3.194289 -8.605469,3.322266 -1.421574,0.04802 -3.201484,-0.280615 -4.794922,-0.53125 -1.110157,0.148768 -3.350448,0.05238 -4.179688,0.04297 -0.182387,-9.23e-4 -0.364519,-0.0062 -0.546874,-0.0098 -0.417644,0.500381 -1.242042,0.489297 -1.875,0.685547 -0.910123,0.282187 -1.845442,0.478714 -2.767579,0.71875 -8.801912,0.818929 2.293607,-0.07446 -6.003906,0.177734 -0.153154,0.0047 -0.258691,0.171611 -0.40625,0.212891 -0.452811,0.126678 -0.917399,0.207804 -1.380859,0.287109 -2.033689,0.348023 -1.841503,0.270802 -3.964844,0.363282 -0.976735,0.09471 -1.947324,-0.205232 -2.921875,-0.169922 -0.07805,0.0028 0.266592,0.08039 0.201172,0.123047 -0.0645,0.04206 -1.332784,0.288928 -1.333985,0.289062 -0.66107,0.07288 -1.325169,0.101274 -1.988281,0.152344 -2.900039,-0.09636 -5.799786,-0.153828 -8.701172,-0.111328 -2.082873,0.01842 -4.165096,0.0024 -6.248047,0.002 -3.747908,0.0022 -7.496232,0.0025 -11.24414,0.002 -2.823566,-3.33e-4 -5.647137,-2.8e-5 -8.470703,0 -2.337213,-5.2e-5 -4.674506,-6e-6 -7.011719,0 -2.36996,-0.02046 -4.968678,0.290807 -7.080078,-1.193359 -0.236104,-0.165985 -0.454059,-0.351966 -0.6640626,-0.546875 -0.029713,0.395052 -0.053048,0.7904 -0.080078,1.185547 -0.1028605,1.174867 -0.2928577,2.338752 -0.4863281,3.501953 0.8411617,2.539956 1.5170617,5.144778 1.9492187,7.84375 0.04829,0.301594 0.08573,0.593088 0.113281,0.876953 0.300947,-0.03763 0.596615,-0.09454 0.873047,-0.189453 -0.05894,-0.0011 -0.230024,0.02537 -0.177734,-0.002 0.142853,-0.07436 0.301538,-0.121552 0.460937,-0.144532 1.993104,-0.287361 1.546651,-0.21766 3.171875,-0.15039 1.088281,0.04504 1.290551,0.04482 2.300781,0.06641 1.677579,-0.05885 2.290661,0.14489 4.320313,0.986328 0.604859,0.250758 1.107205,0.698412 1.669922,1.033203 0.822682,0.489458 1.672918,0.933614 2.509765,1.398438 1.158619,0.734494 1.706163,1.126537 2.822266,1.710937 0.177435,0.09291 0.741417,0.295677 0.546875,0.248047 -0.396854,-0.09715 -1.489735,-0.637221 -1.158203,-0.398437 3.115746,2.244094 2.213157,2.432819 3.722656,2.021484 1.044777,0.216995 2.038012,0.586084 3.015625,0.996094 0.937048,-3e-5 1.8735,-5e-5 2.810547,0 2.010663,3e-4 4.022541,0.0032 6.033203,0 1.968505,-0.0012 3.935807,0.0082 5.904297,0.0059 0.260759,-0.0053 0.522305,-0.0045 0.783203,-0.0098 0.440652,-0.287791 0.904303,-0.526019 1.365234,-0.734376 0.218377,-0.254965 0.448489,-0.510176 0.705079,-0.765624 2.952297,-2.939174 1.354172,-1.895455 2.90625,0.164062 0.04821,0.0033 0.09629,0.0019 0.144531,0.0059 0.421753,-0.158479 0.760794,-0.260911 1.134766,-0.386718 -0.945617,-1.568216 -1.374448,-2.783809 -0.05664,-2.845703 0.435728,-0.02047 1.061197,0.08437 1.921875,0.34375 l 1.36914,0.412109 c 0.03742,0.04821 0.08086,0.09309 0.123047,0.138672 0.6835,-0.46895 1.441699,-0.703125 2.199219,-0.703125 2.421439,0 4.841797,2.395248 4.841797,7.189453 0,1.327535 0.03996,1.134349 -0.205078,2.753906 -0.05251,0.347076 -0.08715,0.702319 -0.214844,1.029297 -0.60968,1.561205 -0.852788,2.035678 -0.947265,2.146484 -0.02925,0.160939 -0.05359,0.31278 -0.09375,0.494141 -0.111075,0.501579 -0.0962,0.475363 -0.01172,-0.0918 0.171981,-0.934622 -0.03966,-0.232138 0.105469,-0.402344 1.415207,-7.787487 -9.686418,7.824954 -9.8125,1.048828 -0.349722,-0.004 -0.707885,-0.0067 -1.021485,-0.01367 -0.08713,-0.0091 -0.174549,-0.01159 -0.261719,-0.01953 -0.177827,0.168256 -0.362331,0.325303 -0.570312,0.457032 -1.615978,1.023504 -3.187033,0.905037 -4.90625,0.898437 -0.669408,6e-4 -1.338407,0.0018 -2.007813,-0.002 -0.946679,-0.0017 -1.893363,0.0085 -2.839843,0.01172 -0.965549,-0.02288 -1.938527,-0.0083 -2.902344,-0.06641 -0.061,-0.0037 -0.130874,-0.0096 -0.177734,-0.04883 -0.02078,-0.01739 0.0968,-0.04672 0.07031,-0.04102 -0.333437,0.07181 -0.662528,0.160424 -0.994141,0.240234 -0.558882,0.03978 -1.119095,0.162201 -1.677734,0.119141 -1.384304,-0.106696 -2.165277,-0.323392 -3.300781,-0.894531 -0.06625,-0.03332 -0.09168,-0.125847 -0.160156,-0.154297 -0.465171,-0.193272 -0.971025,-0.285162 -1.423829,-0.50586 -0.09766,-0.0476 0.216085,-0.02073 0.324219,-0.03125 -0.102932,-0.01899 -0.205105,-0.04013 -0.308594,-0.05664 -1.031299,4e-5 -2.062451,1.5e-5 -3.09375,0 -0.09572,-1e-6 -2.308522,-9e-6 -2.308593,0 -0.09098,0.01192 -0.117125,0.157433 -0.203125,0.189453 -0.352879,0.131379 -0.721691,0.213929 -1.089844,0.292968 -1.56222,0.335444 -1.440419,0.263762 -3.015625,0.326172 -0.819297,0.05643 -1.621037,-0.203898 -2.433594,-0.230468 -0.05221,-0.0017 0.206347,0.02294 0.154297,0.02734 -0.497837,0.04222 -0.998582,0.02647 -1.498047,0.03906 -1.569402,0.06866 -3.153766,-0.161386 -4.546875,-0.945313 -0.597357,-0.336143 -1.104156,-0.815049 -1.638672,-1.24414 -0.393632,-0.315993 -0.578944,-0.645826 -0.365234,-0.294922 -1.955472,-1.16487 -2.724918,-3.167985 -3.134766,-5.259766 -0.0343,-0.175062 -0.05555,-0.341909 -0.08203,-0.511719 -0.725112,0.01182 -1.4010608,-0.01909 -2.0742186,-0.08008 0.00196,1.729774 -2.332e-4,3.45954 0,5.189454 -0.00167,2.333095 -0.00244,4.666898 -0.00195,7 2.274e-4,2.037861 1.98e-5,4.075421 0,6.113281 0.2448994,-0.0215 0.4895444,-0.0442 0.734375,-0.0664 2.6169736,-0.30956 5.2493666,-0.14153 7.8749996,-0.11133 0.89884,0.004 1.798477,-0.01 2.697266,-0.0156 0.422842,-0.002 0.849053,-0.0638 1.267578,-0.004 0.6335,0.0913 1.258976,0.2291 1.888672,0.34375 0.428381,0.15919 0.862789,0.304 1.285156,0.47852 0.353997,0.14627 1.493648,0.70765 1.953125,0.87305 0.269087,0.35421 0.65553,0.11503 0.972656,0.21093 0.555989,0.16821 1.09895,0.3761 1.648438,0.56446 0.762835,0.33803 1.130282,0.49075 1.662109,0.9082 1.205712,0.0106 2.411431,0.0187 3.617188,0.0273 4.757234,0.0597 9.514259,-0.006 14.271484,-0.006 1.311842,0.009 2.623682,0.008 3.935547,0.006 1.377621,-7.6e-4 2.755192,0 4.132812,0 0.524687,0.13469 1.089948,-0.10992 1.617188,0 1.234387,0.25735 2.198677,0.50825 3.070312,0.92774 0.751712,-0.41337 1.680456,-0.9154 2.75,-1.53516 0.806034,-1.24058 1.334115,-1.94522 1.832032,-2.06055 0.291699,-0.0676 0.590352,0.0615 0.945312,0.3379 0.0026,-0.002 0.0052,-0.002 0.0078,-0.004 0.344959,-0.23077 0.624752,0.54821 0.912109,0.84765 0.190572,0.19863 0.367498,0.41006 0.548828,0.61719 0.32783,0.3565 0.657104,0.71972 1.085938,1.17383 0.269256,0.33966 0.584975,0.72405 0.896484,1.10938 0.09296,0.10625 0.210808,0.24981 0.275391,0.32031 0.144281,0.15749 0.341695,0.26633 0.466796,0.43945 0.437168,0.60498 0.889933,1.20188 1.277344,1.83984 0.121244,0.19967 0.160095,0.4388 0.240235,0.65821 0.374552,0.89746 0.701942,1.53394 0.917968,2.07422 0.01769,0.005 0.04517,0.0145 0.0625,0.0195 4.072564,1.17119 2.020295,2.9909 -0.720703,4.69922 H 122.88086 V 0 Z m 6.728517,56.744141 c 0.008,-0.02103 0.0138,-0.03929 0.0215,-0.06055 -0.0656,0.05538 -0.12803,0.114266 -0.19336,0.169922 -0.0982,0.08365 0.0184,0.01091 0.17188,-0.109375 z m 0.0215,-0.06055 c 0.11709,-0.09882 0.2274,-0.204991 0.34375,-0.304688 0.0112,-0.01693 0.036,-0.03741 0.043,-0.05273 0.50131,-1.358076 1.00261,-2.716144 1.50391,-4.074219 -0.004,-0.04283 -0.0146,-0.08586 -0.0215,-0.128906 -0.89531,1.974123 -1.44352,3.381587 -1.86914,4.560547 z M 67.515625,11.310547 c -0.695023,0.224007 -1.38412,0.465602 -2.064453,0.695312 -1.550088,0.523379 -2.99967,0.818801 -4.332031,0.931641 -1.132901,0.560457 -2.521305,0.95662 -4.140625,1.144531 -1.799398,0.80838 -3.700757,1.676391 -5.25,2.5625 -1.390097,0.795084 -4.531334,2.980154 -6.310547,4.19336 0.353501,-1.75e-4 0.707058,-1.8e-5 1.060547,0 4.485997,0.0027 8.971033,2.86e-4 13.457031,0 2.546221,-7.6e-5 5.092451,-2.1e-5 7.638672,0 -0.20969,-1.644029 -0.179138,-3.688674 0.71289,-4.748047 0.602196,-0.715168 1.339748,-1.28125 2.13086,-1.78711 -0.875441,-1.10745 -1.80175,-2.164206 -2.902344,-2.992187 z m -43.576172,2.898437 c -0.08436,1.395588 -0.201979,2.822828 -0.244141,3.388672 -0.110513,1.041107 -0.173955,2.171227 -0.263671,3.304688 1.513226,-0.03037 3.025833,-0.04534 4.539062,-0.05664 1.124078,-1.031369 2.349322,-1.954926 3.710938,-2.726562 2.066511,-1.305602 4.148578,-2.586252 6.203125,-3.910157 z m 50.914063,6.595704 c -0.0057,0.01142 -0.01191,0.02179 -0.01758,0.0332 H 74.875 c -0.0069,-0.01125 -0.01463,-0.02195 -0.02148,-0.0332 z m 8.845703,17.058593 c -1.702524,0.410853 -1.102014,0.285975 -4.320313,0.363281 -0.925756,0.02223 -1.849799,0.08711 -2.77539,0.115235 0.103111,0.0201 0.411741,0.04063 0.308593,0.06055 -2.269664,0.438207 -2.371402,0.275355 -4.675781,0.476562 -1.337318,0.116768 -2.667098,0.352601 -3.986328,0.591797 -1.084839,0.962206 -0.371088,0.383139 -3.847656,0.767578 -3.260341,0.360529 -6.611242,-0.01273 -9.876953,-0.130859 -1.371538,-0.01431 -0.877537,-0.04886 -1.482422,0.002 -2.252357,0.188093 -4.136446,-0.06116 -5.66211,-0.601563 -8.290338,0.420204 -16.604977,0.221652 -24.902343,0.1875 -3.027214,-0.01246 -6.055747,0.05611 -9.082032,0 0.142954,0.499522 0.277547,1.000794 0.41211,1.501954 0.05154,0.191944 0.05511,0.395184 0.117187,0.583984 0.418224,1.272 1.202198,2.410937 1.480469,3.734375 0.150902,0.611201 0.367875,1.210229 0.453125,1.833984 0.0091,0.06631 -0.217536,-0.02276 -0.197266,0.04102 0.133806,0.421046 0.374373,0.800727 0.587891,1.1875 0.524107,0.949384 1.143064,1.846887 1.625,2.818359 0.198711,0.400556 0.378131,0.811388 0.558594,1.220704 2.067655,-7e-6 4.135469,-4.6e-5 6.203125,0 2.824251,-2.9e-5 5.648406,-3.35e-4 8.472656,0 3.748358,4.98e-4 7.495784,4.76e-4 11.244141,-0.002 2.015446,4.88e-4 4.031497,0.01591 6.046875,0 2.848158,-0.04117 5.697047,-0.02027 8.542968,0.113282 -0.117124,0.03682 -0.474279,0.115128 -0.351562,0.111328 0.703695,-0.02173 1.372016,-0.326346 2.070312,-0.416016 1.494212,-0.191877 2.899409,-0.3463 4.376953,-0.0918 1.233926,0.0779 2.321681,-0.314728 3.546876,-0.490234 1.906689,-0.273128 3.481509,-0.458678 5.330078,-0.177735 2.589902,-0.476514 -0.800935,0.214249 2.767578,-0.841796 2.833379,-0.838491 3.398179,-1.043352 5.767578,-0.927735 0.659957,0.0082 1.324793,-0.05987 1.980469,0.01563 0.03712,0.0043 -0.04069,0.06597 -0.07227,0.08594 -6.630929,4.194607 -3.019257,1.558827 1.847656,-0.244141 0.337512,-0.125028 0.718861,0.04457 1.078125,0.06641 0.828448,0.109568 1.944171,0.252727 2.730469,0.38086 0.09502,0.01548 0.206854,0.01111 0.318359,0.0078 -1.317326,-0.632732 -2.563088,-1.701781 -3.144531,-2.757812 -0.891127,-1.618487 -1.114692,-3.525037 -1.755859,-5.257813 -0.539407,-1.457768 -1.140042,-2.891612 -1.734375,-4.328125 z m 5.882812,4.863281 c -0.0057,0.0052 -0.0099,0.01239 -0.01563,0.01758 -0.07653,0.162202 -0.31429,0.644885 -0.230468,0.486328 0.08738,-0.165285 0.164659,-0.335608 0.246093,-0.503907 z m 1.025391,7.960938 c -0.122971,0.04101 -0.24556,0.08443 -0.320313,0.148438 -0.238098,0.203864 -0.952114,0.652488 -0.640625,0.6875 0.343048,0.03856 0.52461,-0.44768 0.78711,-0.671876 0.06861,-0.06307 0.108932,-0.103507 0.173828,-0.164062 z m 8.873047,10.070312 c -0.68874,-0.02467 -1.756537,-0.02976 -3.585938,0.302735 -0.640773,0.11646 1.308271,0.189996 1.951172,0.08594 0.854893,-0.138391 1.342987,-0.271732 1.634766,-0.388672 z M 0,111.72852 v 8.80078 h 20.660156 c -0.384297,-0.3863 -0.736138,-0.84287 -1.232422,-0.97071 -0.262028,-0.0675 0.580023,0.21155 0.664063,0.46875 0.05355,0.16385 -0.347029,0.006 -0.517578,-0.0195 -1.44468,-0.27699 -0.868093,-0.18896 -1.716797,-0.30859 -0.004,0.007 -0.0097,0.0145 -0.01367,0.0215 -0.809267,-0.30473 -1.665962,-0.50822 -2.439453,-0.88867 -1.237157,0.0271 -2.477643,-0.1096 -3.707031,-0.24219 -0.295987,-0.032 -0.590449,-0.0681 -0.886719,-0.0977 -0.06143,-0.006 -0.136367,0.0301 -0.185547,-0.008 -1.2448478,-0.94452 -2.4595115,-1.92849 -3.6816406,-2.90235 -0.2211438,-0.0133 -0.4438581,-0.0212 -0.6621094,-0.0508 C 3.7499321,115.18891 1.2587908,114.05282 0,111.72852 Z m 13.251953,3.57031 c -0.298321,0.002 -0.596439,-10e-4 -0.894531,0.01 0.554512,1.1975 1.109138,2.01357 1.689453,1.83399 -0.200357,-0.56138 -0.49396,-1.20242 -0.794922,-1.84375 z m 0.382813,2 c 0.02032,0.0811 0.689031,0.90833 0.65039,0.66406 v -0.002 c -0.199862,-0.22179 -0.393758,-0.45138 -0.615234,-0.64649 -0.0279,-0.0246 -0.03807,-0.0273 -0.03516,-0.0156 z" /></clipPath></defs><sodipodi:namedview
     pagecolor="#ffffff"
     bordercolor="#666666"
     borderopacity="1"
     objecttolerance="10"
     gridtolerance="10"
     guidetolerance="10"
     inkscape:pageopacity="0"
     inkscape:pageshadow="2"
     inkscape:window-width="1366"
     inkscape:window-height="699"
     id="namedview9"
     showgrid="false"
     inkscape:zoom="3.0973318"
     inkscape:cx="20.674686"
     inkscape:cy="59.322261"
     inkscape:window-x="0"
     inkscape:window-y="0"
     inkscape:window-maximized="1"
     inkscape:current-layer="Layer_1" /><style
     type="text/css"
     id="style2">.st0{fill-rule:evenodd;clip-rule:evenodd;}</style><path
     class="st0"
     d="m 95.7,65.5 c 15.01,0 27.18,12.17 27.18,27.18 0,15.01 -12.17,27.18 -27.18,27.18 -15.01,0 -27.18,-12.17 -27.18,-27.18 0,-15.01 12.17,-27.18 27.18,-27.18 z m 1.04,11.55 c 1.18,0 2.12,0.34 2.79,1.02 0.67,0.68 1.01,1.6 1.01,2.8 0,1.21 -0.58,2.29 -1.74,3.23 -1.17,0.94 -2.53,1.42 -4.07,1.42 -1.16,0 -2.09,-0.32 -2.79,-0.98 -0.71,-0.66 -1.06,-1.51 -1.06,-2.57 0,-1.34 0.58,-2.49 1.73,-3.47 1.14,-0.97 2.52,-1.45 4.13,-1.45 z m -5.8,30.04 V 91.56 h -2.87 c 0,-3.91 7.19,-1.37 12.48,-2.71 v 18.24 c 9.99,0 -19.87,0 -9.61,0 z M 17.69,26.67 c 8.1,2.71 19.38,4.38 31.91,4.38 12.53,0 23.81,-1.67 31.91,-4.38 7.11,-2.37 11.51,-5.25 11.51,-8.06 0,-2.81 -4.4,-5.69 -11.51,-8.06 C 73.41,7.85 62.13,6.17 49.6,6.17 37.07,6.17 25.79,7.84 17.69,10.55 2.6,15.59 2.18,21.5 17.69,26.67 Z M 6.24,47.86 c 0.56,2.62 4.83,5.26 11.45,7.47 8.1,2.71 19.38,4.38 31.91,4.38 12.53,0 23.81,-1.67 31.91,-4.38 7.11,-2.37 11.51,-5.25 11.51,-8.06 h 0.03 V 27.97 C 90.52,29.7 87.27,31.23 83.46,32.5 74.73,35.41 62.75,37.22 49.6,37.22 36.44,37.22 24.47,35.42 15.74,32.5 11.97,31.24 8.76,29.74 6.25,28.03 V 47.86 Z M 63.3,92.54 c -4.35,0.44 -8.95,0.67 -13.7,0.67 -13.16,0 -25.13,-1.8 -33.86,-4.72 -3.77,-1.26 -6.98,-2.76 -9.49,-4.47 v 18.49 c 0.56,2.62 4.83,5.26 11.45,7.47 8.1,2.7 19.38,4.38 31.91,4.38 7.52,0 14.58,-0.6 20.78,-1.67 1.56,1.94 3.33,3.7 5.29,5.24 -7.53,1.65 -16.49,2.6 -26.07,2.6 -13.16,0 -25.13,-1.8 -33.86,-4.72 -4.6,-1.54 -15.67,-6.58 -15.67,-12.62 0,-0.71 0,-1.3 0,-1.98 C 0.06,73.69 0,46.15 0,18.61 0,12.85 6.01,7.96 15.73,4.71 24.46,1.8 36.44,0 49.6,0 c 13.16,0 25.13,1.8 33.86,4.72 8.85,2.95 14.62,7.27 15.59,12.37 0.12,0.32 0.18,0.67 0.18,1.04 V 60.5 c -1.2,-0.14 -2.42,-0.21 -3.66,-0.21 -0.85,0 -1.68,0.03 -2.51,0.1 v -3.74 c -2.53,1.73 -5.78,3.26 -9.59,4.53 C 74.74,64.09 62.76,65.9 49.61,65.9 36.45,65.9 24.48,64.1 15.75,61.18 11.98,59.92 8.77,58.42 6.26,56.71 V 75.2 c 0.56,2.62 4.83,5.26 11.45,7.47 8.1,2.7 19.38,4.38 31.91,4.38 5.01,0 9.82,-0.27 14.31,-0.76 -0.42,2.01 -0.63,4.11 -0.63,6.25 z"
     id="path4"
     clip-path="url(#clipPath942)" /></svg>
