<?xml version="1.0" encoding="UTF-8" standalone="no"?>
<svg
   xmlns:dc="http://purl.org/dc/elements/1.1/"
   xmlns:cc="http://creativecommons.org/ns#"
   xmlns:rdf="http://www.w3.org/1999/02/22-rdf-syntax-ns#"
   xmlns:svg="http://www.w3.org/2000/svg"
   xmlns="http://www.w3.org/2000/svg"
   xmlns:sodipodi="http://sodipodi.sourceforge.net/DTD/sodipodi-0.dtd"
   xmlns:inkscape="http://www.inkscape.org/namespaces/inkscape"
   version="1.1"
   viewBox="0 0 24 24"
   id="svg6"
   sodipodi:docname="lualatex.svg"
   inkscape:version="1.0.2 (e86c870879, 2021-01-15, custom)">
  <metadata
     id="metadata12">
    <rdf:RDF>
      <cc:Work
         rdf:about="">
        <dc:format>image/svg+xml</dc:format>
        <dc:type
           rdf:resource="http://purl.org/dc/dcmitype/StillImage" />
      </cc:Work>
    </rdf:RDF>
  </metadata>
  <defs
     id="defs10">
    <rect
       x="-103.11439"
       y="-31.283234"
       width="93.235204"
       height="50.291957"
       id="rect15" />
    <rect
       x="-40.184256"
       y="-7.0413437"
       width="54.094192"
       height="43.573538"
       id="rect16" />
  </defs>
  <sodipodi:namedview
     pagecolor="#ffffff"
     bordercolor="#666666"
     borderopacity="1"
     objecttolerance="10"
     gridtolerance="10"
     guidetolerance="10"
     inkscape:pageopacity="0"
     inkscape:pageshadow="2"
     inkscape:window-width="1366"
     inkscape:window-height="699"
     id="namedview8"
     showgrid="false"
     inkscape:zoom="20.54"
     inkscape:cx="23.535055"
     inkscape:cy="12"
     inkscape:window-x="0"
     inkscape:window-y="0"
     inkscape:window-maximized="1"
     inkscape:current-layer="svg6"
     inkscape:document-rotation="0" />
  <g
     id="g24"
     transform="translate(-1.1180669,0.21330919)">
    <g
       transform="translate(1,0.73680728)"
       id="g4">
      <path
         id="path2"
         d="m 5,4 v 10 l 3,-2 3,2 V 4 Z m 7,0 v 1 h 2 v 4 h 4 v 5 h 1 V 8 L 15,4 Z M 8,7 h 2 C 8.93838,8.56429 7.64844,10.03808 6,11 6.37765,9.71307 6.7045562,8.3437687 7.5351562,7.2617188 7.6571063,7.1320187 7.81187,7.00207 8,7 Z m -3,8 v 5 h 6 V 19 H 6 v -4 z"
         transform="translate(-1,-1)" />
    </g>
    <g
       aria-label="Xe"
       transform="matrix(0.88898387,0,0,0.88898387,46.444165,17.780348)"
       id="text14"
       style="font-style:normal;font-weight:normal;font-size:10.6667px;line-height:1.25;font-family:sans-serif;white-space:pre;shape-inside:url(#rect16);fill:#000000;fill-opacity:1;stroke:none">
      <g
         id="g34">
        <g
           id="g29">
          <g
             aria-label="Lu"
             transform="matrix(0.89159235,0,0,0.89159235,51.706043,20.565958)"
             id="text13"
             style="font-style:normal;font-weight:normal;font-size:11.9987px;line-height:1.25;font-family:sans-serif;white-space:pre;shape-inside:url(#rect15);fill:#000000;fill-opacity:1;stroke:none">
            <path
               d="m -100.55951,-21.648178 q 0,0.311967 0.048,0.455951 0.048,0.131986 0.17998,0.179981 0.14399,0.04799 0.455955,0.04799 h 0.407955 q 0.935899,0 1.619825,-0.491946 0.683926,-0.503946 0.911901,-1.355853 0,-0.024 0.048,-0.024 0.024,0 0.048,0.024 0.036,0.012 0.036,0.024 -0.107988,1.187871 -0.107988,1.979785 0,0.09599 -0.048,0.143985 -0.036,0.036 -0.131986,0.036 h -5.663382 q -0.024,0 -0.024,-0.07199 0,-0.07199 0.024,-0.07199 0.38396,0 0.55194,-0.05999 0.17998,-0.05999 0.23997,-0.227975 0.072,-0.179981 0.072,-0.539942 v -5.555398 q 0,-0.359961 -0.072,-0.527943 -0.06,-0.167982 -0.23997,-0.227975 -0.17998,-0.07199 -0.55194,-0.07199 -0.024,0 -0.024,-0.07199 0,-0.07199 0.024,-0.07199 l 0.61193,0.012 q 0.55194,0.024 0.9119,0.024 0.35996,0 0.9119,-0.024 l 0.611935,-0.012 q 0.036,0 0.036,0.07199 0,0.07199 -0.036,0.07199 -0.371955,0 -0.551935,0.07199 -0.17998,0.05999 -0.23998,0.239974 -0.06,0.167982 -0.06,0.527943 z"
               style="font-style:normal;font-variant:normal;font-weight:bold;font-stretch:normal;font-size:11.9987px;font-family:'Cormorant SC';-inkscape-font-specification:'Cormorant SC Bold'"
               id="path36" />
            <path
               d="m -91.032565,-24.85183 q 0,-0.635932 -0.251973,-0.935899 -0.239974,-0.311966 -0.767917,-0.311966 -0.036,0 -0.036,-0.07199 0,-0.07199 0.036,-0.07199 l 0.503945,0.012 q 0.407956,0.024 0.659929,0.024 0.191979,0 0.575938,-0.024 l 0.491946,-0.012 q 0.024,0 0.024,0.07199 0,0.07199 -0.024,0.07199 -0.479948,0 -0.695924,0.299967 -0.215977,0.299968 -0.215977,0.947898 v 2.015781 q 0,1.115879 -0.611934,1.739812 -0.611933,0.623932 -1.65582,0.623932 -0.671927,0 -1.247865,-0.263971 -0.563939,-0.27597 -0.911901,-0.779916 -0.335964,-0.503945 -0.335964,-1.19987 v -2.555723 q 0,-0.359961 -0.05999,-0.527943 -0.04799,-0.167982 -0.215977,-0.227975 -0.155983,-0.07199 -0.491947,-0.07199 -0.036,0 -0.036,-0.07199 0,-0.07199 0.036,-0.07199 l 0.575938,0.012 q 0.479948,0.024 0.767917,0.024 0.323965,0 0.803913,-0.024 l 0.575937,-0.012 q 0.024,0 0.024,0.07199 0,0.07199 -0.024,0.07199 -0.335963,0 -0.503945,0.07199 -0.155983,0.07199 -0.215977,0.251973 -0.05999,0.167981 -0.05999,0.527942 v 2.21976 q 0,1.067884 0.45595,1.57183 0.46795,0.491946 1.211869,0.491946 0.743919,0 1.175873,-0.479948 0.443952,-0.479948 0.443952,-1.367851 z"
               style="font-style:normal;font-variant:normal;font-weight:bold;font-stretch:normal;font-size:11.9987px;font-family:'Cormorant SC';-inkscape-font-specification:'Cormorant SC Bold'"
               id="path38" />
          </g>
        </g>
      </g>
    </g>
  </g>
</svg>
