<?xml version="1.0" encoding="UTF-8" standalone="no"?>
<svg
   version="1.1"
   id="svg2"
   width="128"
   height="128"
   viewBox="0 0 128 128"
   sodipodi:docname="add-button2.svg"
   inkscape:version="1.1 (c4e8f9ed74, 2021-05-24)"
   xmlns:inkscape="http://www.inkscape.org/namespaces/inkscape"
   xmlns:sodipodi="http://sodipodi.sourceforge.net/DTD/sodipodi-0.dtd"
   xmlns="http://www.w3.org/2000/svg"
   xmlns:svg="http://www.w3.org/2000/svg"
   xmlns:rdf="http://www.w3.org/1999/02/22-rdf-syntax-ns#"
   xmlns:cc="http://creativecommons.org/ns#"
   xmlns:dc="http://purl.org/dc/elements/1.1/">
  <metadata
     id="metadata8">
    <rdf:RDF>
      <cc:Work
         rdf:about="">
        <dc:format>image/svg+xml</dc:format>
        <dc:type
           rdf:resource="http://purl.org/dc/dcmitype/StillImage" />
        <dc:title />
      </cc:Work>
    </rdf:RDF>
  </metadata>
  <defs
     id="defs6" />
  <sodipodi:namedview
     pagecolor="#ffffff"
     bordercolor="#666666"
     borderopacity="1"
     objecttolerance="10"
     gridtolerance="10"
     guidetolerance="10"
     inkscape:pageopacity="0"
     inkscape:pageshadow="2"
     inkscape:window-width="1366"
     inkscape:window-height="694"
     id="namedview4"
     showgrid="false"
     inkscape:zoom="2.5378497"
     inkscape:cx="52.406571"
     inkscape:cy="63.833567"
     inkscape:window-x="0"
     inkscape:window-y="0"
     inkscape:window-maximized="1"
     inkscape:current-layer="g10"
     inkscape:document-rotation="0"
     inkscape:pagecheckerboard="0" />
  <g
     inkscape:groupmode="layer"
     inkscape:label="Image"
     id="g10">
    <path
       id="path853"
       style="fill:#000000;stroke-width:0.930791"
       d="m 63.052482,11.338096 c -3.59371,0.06349 -7.06935,0.33822 -10.62633,1.035742 -4.5626,0.916323 -8.89388,2.761864 -12.9815,4.954015 -0.35268,0.192858 -0.85142,0.474228 -1.25863,0.715173 -9.037046,5.256726 -16.468188,13.224582 -21.090067,22.609045 -0.32774,0.660464 -0.754519,1.56338 -1.087766,2.336606 -0.662429,1.518672 -1.341725,3.288611 -1.874277,4.955641 -1.452401,4.45349 -2.226883,9.100559 -2.718187,13.749425 -0.367639,4.182894 0.53019,8.331983 1.241608,12.430594 0.145757,0.752307 0.376189,1.808347 0.563949,2.560813 1.514097,6.495562 4.393215,12.677669 8.522665,17.922253 4.468662,5.656637 9.776376,10.718657 15.911645,14.532017 5.51841,3.44904 11.76957,5.63758 18.18899,6.62562 3.86977,0.70357 7.83194,1.22476 11.75774,0.67413 4.95429,-0.63962 9.92362,-1.51195 14.59267,-3.34845 11.7133,-4.50617 21.820598,-13.135363 28.055018,-24.044032 6.28531,-11.051784 7.97317,-24.521082 4.98419,-36.849327 -3.25071,-13.797375 -12.15373,-26.161685 -24.243828,-33.554458 -4.36354,-2.658576 -9.08789,-4.788711 -14.05444,-6.022457 -2.50147,-0.569957 -5.05143,-0.901327 -7.60764,-1.098637 -1.08053,-0.07767 -2.39125,-0.147323 -3.56478,-0.17043 -0.90348,-0.02322 -1.80733,-0.02619 -2.71103,-0.01328 z m 0.77221,5.94974 c 13.01201,-0.110212 25.81766,5.801843 34.51218,15.433212 7.978108,8.729259 12.606868,20.557918 12.210648,32.42311 -0.30383,9.712743 -3.91944,19.230438 -9.82985,26.906444 -6.857048,8.941398 -17.035048,15.228938 -28.078338,17.406678 -9.83077,2.00945 -20.29292,0.42644 -29.17995,-4.20114 C 31.092977,98.919622 21.639542,86.98936 18.668456,73.363208 16.621694,64.299283 17.651289,54.638577 21.288423,46.110999 25.968445,34.934941 35.120403,25.740952 46.256472,20.996 c 5.53528,-2.381159 11.54147,-3.66631 17.56822,-3.708164 z m -21.97983,45.195108 c -0.16475,0.361349 -0.67565,0.875638 -0.72679,1.364202 0.49617,1.008179 1.1017,1.777354 1.70068,2.737498 14.18627,10e-7 28.37254,0 42.55881,0 0.60056,-0.983116 1.25304,-1.760915 1.71702,-2.801161 -0.48195,-1.034905 -1.1149,-1.810137 -1.71702,-2.78661 -14.18627,0 -28.37254,10e-7 -42.55881,0 -0.32463,0.495357 -0.64927,0.990714 -0.97389,1.486071 z" />
  </g>
</svg>
