<?xml version="1.0" encoding="UTF-8" standalone="no"?>
<svg
   xmlns:dc="http://purl.org/dc/elements/1.1/"
   xmlns:cc="http://creativecommons.org/ns#"
   xmlns:rdf="http://www.w3.org/1999/02/22-rdf-syntax-ns#"
   xmlns:svg="http://www.w3.org/2000/svg"
   xmlns="http://www.w3.org/2000/svg"
   xmlns:sodipodi="http://sodipodi.sourceforge.net/DTD/sodipodi-0.dtd"
   xmlns:inkscape="http://www.inkscape.org/namespaces/inkscape"
   width="128"
   height="128"
   viewBox="0 0 33.866666 33.866668"
   version="1.1"
   id="svg8"
   inkscape:version="1.0.2 (e86c870879, 2021-01-15, custom)"
   sodipodi:docname="settings.svg">
  <defs
     id="defs2" />
  <sodipodi:namedview
     id="base"
     pagecolor="#ffffff"
     bordercolor="#666666"
     borderopacity="1.0"
     inkscape:pageopacity="0.0"
     inkscape:pageshadow="2"
     inkscape:zoom="2"
     inkscape:cx="40.427352"
     inkscape:cy="105.86107"
     inkscape:document-units="mm"
     inkscape:current-layer="layer1"
     inkscape:document-rotation="0"
     showgrid="false"
     units="px"
     inkscape:window-width="1366"
     inkscape:window-height="699"
     inkscape:window-x="0"
     inkscape:window-y="0"
     inkscape:window-maximized="1" />
  <metadata
     id="metadata5">
    <rdf:RDF>
      <cc:Work
         rdf:about="">
        <dc:format>image/svg+xml</dc:format>
        <dc:type
           rdf:resource="http://purl.org/dc/dcmitype/StillImage" />
        <dc:title />
      </cc:Work>
    </rdf:RDF>
  </metadata>
  <g
     inkscape:label="Στρώση 1"
     inkscape:groupmode="layer"
     id="layer1">
    <path
       style="fill:#000000;stroke-width:0.200203"
       d="M 14.25425,30.232056 C 9.2392317,29.070965 5.5886186,25.786884 4.0002389,21.007573 3.2262706,18.67876 3.2262706,15.12963 4.0002389,12.800825 4.7204048,10.633895 5.7830988,8.904802 7.3691101,7.3193779 8.9551226,5.7339539 10.684855,4.6716526 12.852583,3.9517536 14.244044,3.48965 14.783311,3.4197621 16.957481,3.4197621 c 2.174159,0 2.713427,0.069889 4.104892,0.5319915 2.167723,0.719899 3.897465,1.7822003 5.483469,3.3676243 1.586016,1.5854241 2.648709,3.3145171 3.368874,5.4814471 0.462278,1.390944 0.532187,1.930014 0.532187,4.103373 0,2.173353 -0.06993,2.712422 -0.532187,4.103375 -1.850349,5.567559 -6.644906,9.194755 -12.456639,9.423743 -1.274664,0.05023 -2.439025,-0.02219 -3.203827,-0.19926 z M 12.472133,24.03006 c 0.458056,-0.457899 0.680808,-0.868578 0.680808,-1.255204 0,-0.456384 0.362582,-0.935414 1.761835,-2.327668 l 1.761839,-1.753023 0.440785,0.469028 c 0.242441,0.257967 0.440797,0.632986 0.440797,0.833376 0,0.429855 3.447214,4.015211 4.27664,4.448022 0.682155,0.355971 1.368844,0.222345 1.925216,-0.374633 0.702221,-0.753465 0.528326,-1.461679 -0.669547,-2.726959 -0.591563,-0.624849 -1.455376,-1.55727 -1.919579,-2.072055 -0.464212,-0.514786 -1.179232,-1.070055 -1.588936,-1.233922 -0.409705,-0.163877 -0.868019,-0.446216 -1.018468,-0.627438 -0.238912,-0.287757 -0.182823,-0.420176 0.442926,-1.045686 0.685624,-0.685374 0.779787,-0.717166 2.187153,-0.73849 1.197633,-0.01816 1.592349,-0.109034 2.12599,-0.489507 1.152854,-0.821971 1.761007,-2.671594 1.279035,-3.890031 -0.118924,-0.300651 -0.289072,-0.202678 -1.129772,0.650538 -0.785489,0.797186 -1.124161,1.0045 -1.641011,1.0045 -0.663658,0 -1.065831,-0.41497 -1.065831,-1.099734 0,-0.178961 0.455613,-0.806951 1.01247,-1.395529 0.658094,-0.6955731 0.932049,-1.1198312 0.782698,-1.2121019 -0.416857,-0.2575368 -2.114947,-0.147763 -2.743949,0.1773848 -1.310117,0.6772411 -2.088047,2.3649161 -1.721993,3.7358101 0.199643,0.747693 0.179936,0.797944 -0.621167,1.583882 l -0.827356,0.811687 -1.081515,-1.094708 c -0.594829,-0.602093 -1.100947,-1.227075 -1.124698,-1.388847 -0.02373,-0.161768 -0.150073,-0.617886 -0.280716,-1.013585 -0.209422,-0.63432 -0.451541,-0.826901 -2.046136,-1.627451 L 10.301037,9.4697121 9.7246038,10.021769 c -0.3170388,0.30363 -0.5764373,0.660146 -0.5764373,0.792262 0,0.132109 0.4087754,1.008335 0.9083885,1.947163 0.908899,1.707916 1.411361,2.141354 2.48233,2.141354 0.180054,0 0.817407,0.496017 1.416341,1.102249 l 1.08896,1.102248 -1.792461,1.800137 c -1.372034,1.377909 -1.919,1.800145 -2.331932,1.800145 -0.69874,0 -1.6948022,0.843231 -1.829775,1.549026 -0.1345877,0.703792 0.2815008,1.70705 0.8825079,2.127855 0.7885851,0.552143 1.7258091,0.419355 2.4996071,-0.354148 z m -1.922294,-0.720595 c -0.220267,-0.220179 -0.400477,-0.490405 -0.400477,-0.600497 0,-0.259601 0.741495,-1.000823 1.001192,-1.000823 0.259695,0 1.001193,0.741222 1.001193,1.000823 0,0.2596 -0.741498,1.000825 -1.001193,1.000825 -0.110123,0 -0.380451,-0.180145 -0.600715,-0.400328 z"
       id="path24" />
  </g>
</svg>
