<?xml version="1.0" encoding="UTF-8" standalone="no"?>
<svg
   xmlns:dc="http://purl.org/dc/elements/1.1/"
   xmlns:cc="http://creativecommons.org/ns#"
   xmlns:rdf="http://www.w3.org/1999/02/22-rdf-syntax-ns#"
   xmlns:svg="http://www.w3.org/2000/svg"
   xmlns="http://www.w3.org/2000/svg"
   xmlns:sodipodi="http://sodipodi.sourceforge.net/DTD/sodipodi-0.dtd"
   xmlns:inkscape="http://www.inkscape.org/namespaces/inkscape"
   version="1.1"
   id="Layer_1"
   x="0px"
   y="0px"
   viewBox="0 0 128 128"
   xml:space="preserve"
   sodipodi:docname="table.svg"
   width="128"
   height="128"
   inkscape:version="1.0.2 (e86c870879, 2021-01-15, custom)"><metadata
     id="metadata13"><rdf:RDF><cc:Work
         rdf:about=""><dc:format>image/svg+xml</dc:format><dc:type
           rdf:resource="http://purl.org/dc/dcmitype/StillImage" /><dc:title></dc:title></cc:Work></rdf:RDF></metadata><defs
     id="defs11" /><sodipodi:namedview
     pagecolor="#ffffff"
     bordercolor="#666666"
     borderopacity="1"
     objecttolerance="10"
     gridtolerance="10"
     guidetolerance="10"
     inkscape:pageopacity="0"
     inkscape:pageshadow="2"
     inkscape:window-width="1366"
     inkscape:window-height="699"
     id="namedview9"
     showgrid="false"
     inkscape:zoom="3.6417518"
     inkscape:cx="33.405681"
     inkscape:cy="57.694115"
     inkscape:window-x="0"
     inkscape:window-y="0"
     inkscape:window-maximized="1"
     inkscape:current-layer="Layer_1" /><style
     type="text/css"
     id="style2">.st0{fill-rule:evenodd;clip-rule:evenodd;}</style><g
     id="g6"
     transform="translate(2.56,12.74)"><path
       class="st0"
       d="m 5.42,0 h 112.04 c 2.98,0 5.42,2.44 5.42,5.42 V 97.1 c 0,2.98 -2.44,5.42 -5.42,5.42 H 5.42 C 2.44,102.52 0,100.08 0,97.1 V 5.42 C 0,2.44 2.44,0 5.42,0 Z M 8.48,23.58 H 38.1 c 0.82,0 1.48,0.67 1.48,1.48 v 9.76 c 0,0.81 -0.67,1.48 -1.48,1.48 H 8.48 C 7.67,36.3 7,35.63 7,34.82 V 25.06 C 6.99,24.25 7.66,23.58 8.48,23.58 Z m 76.3,58.77 h 29.63 c 0.82,0 1.48,0.67 1.48,1.48 v 9.76 c 0,0.81 -0.67,1.48 -1.48,1.48 H 84.78 c -0.81,0 -1.48,-0.67 -1.48,-1.48 v -9.76 c -0.01,-0.81 0.66,-1.48 1.48,-1.48 z m -37.98,0 h 29.28 c 0.82,0 1.48,0.67 1.48,1.48 v 9.76 c 0,0.81 -0.67,1.48 -1.48,1.48 H 46.8 c -0.81,0 -1.48,-0.67 -1.48,-1.48 v -9.76 c -0.01,-0.81 0.66,-1.48 1.48,-1.48 z m -38.32,0 H 38.1 c 0.82,0 1.48,0.67 1.48,1.48 v 9.76 c 0,0.81 -0.67,1.48 -1.48,1.48 H 8.48 C 7.67,95.07 7,94.4 7,93.59 V 83.83 C 6.99,83.02 7.66,82.35 8.48,82.35 Z m 76.3,-19.59 h 29.63 c 0.82,0 1.48,0.67 1.48,1.48 V 74 c 0,0.81 -0.67,1.48 -1.48,1.48 H 84.78 C 83.97,75.48 83.3,74.81 83.3,74 v -9.76 c -0.01,-0.81 0.66,-1.48 1.48,-1.48 z m -37.98,0 h 29.28 c 0.82,0 1.48,0.67 1.48,1.48 V 74 c 0,0.81 -0.67,1.48 -1.48,1.48 H 46.8 c -0.81,0 -1.48,-0.67 -1.48,-1.48 v -9.76 c -0.01,-0.81 0.66,-1.48 1.48,-1.48 z m -38.32,0 H 38.1 c 0.82,0 1.48,0.67 1.48,1.48 V 74 c 0,0.81 -0.67,1.48 -1.48,1.48 H 8.48 C 7.67,75.48 7,74.81 7,74 V 64.24 C 6.99,63.43 7.66,62.76 8.48,62.76 Z m 76.3,-19.59 h 29.63 c 0.82,0 1.48,0.67 1.48,1.48 v 9.76 c 0,0.81 -0.67,1.48 -1.48,1.48 H 84.78 c -0.81,0 -1.48,-0.67 -1.48,-1.48 v -9.76 c -0.01,-0.81 0.66,-1.48 1.48,-1.48 z m -37.98,0 h 29.28 c 0.82,0 1.48,0.67 1.48,1.48 v 9.76 c 0,0.81 -0.67,1.48 -1.48,1.48 H 46.8 c -0.81,0 -1.48,-0.67 -1.48,-1.48 v -9.76 c -0.01,-0.81 0.66,-1.48 1.48,-1.48 z m -38.32,0 H 38.1 c 0.82,0 1.48,0.67 1.48,1.48 v 9.76 c 0,0.81 -0.67,1.48 -1.48,1.48 H 8.48 C 7.67,55.89 7,55.22 7,54.41 V 44.65 C 6.99,43.84 7.66,43.17 8.48,43.17 Z m 76.3,-19.59 h 29.63 c 0.82,0 1.48,0.67 1.48,1.48 v 9.76 c 0,0.81 -0.67,1.48 -1.48,1.48 H 84.78 c -0.81,0 -1.48,-0.67 -1.48,-1.48 v -9.76 c -0.01,-0.81 0.66,-1.48 1.48,-1.48 z m -37.98,0 h 29.28 c 0.82,0 1.48,0.67 1.48,1.48 v 9.76 c 0,0.81 -0.67,1.48 -1.48,1.48 H 46.8 c -0.81,0 -1.48,-0.67 -1.48,-1.48 v -9.76 c -0.01,-0.81 0.66,-1.48 1.48,-1.48 z"
       id="path4" /></g></svg>
