<svg height="64" viewBox="0 0 64 64" width="64" xmlns="http://www.w3.org/2000/svg"><path d="m56 12c0-2.206-1.794-4-4-4h-42c-2.206 0-4 1.794-4 4v42c0 2.206 1.794 4 4 4h42c2.206 0 4-1.794 4-4zm-26 10v10h-10v-10zm12 0v10h-10v-10zm12 0v10h-10v-10zm-36 10h-10v-10h10zm-10 2h10v10h-10zm12 0h10v10h-10zm10 12v10h-10v-10zm2 0h10v10h-10zm0-2v-10h10v10zm12-10h10v10h-10zm-34-24h42c1.103 0 2 .897 2 2v8h-46v-8c0-1.103.897-2 2-2zm-2 44v-8h10v10h-8c-1.103 0-2-.897-2-2zm44 2h-8v-10h10v8c0 1.103-.897 2-2 2z" fill-rule="evenodd"/></svg>