<?xml version="1.0" encoding="UTF-8" standalone="no"?>
<svg
   viewBox="0 0 448 512"
   version="1.1"
   id="svg4"
   sodipodi:docname="expand2.svg"
   inkscape:version="1.2.2 (b0a8486541, 2022-12-01)"
   xml:space="preserve"
   xmlns:inkscape="http://www.inkscape.org/namespaces/inkscape"
   xmlns:sodipodi="http://sodipodi.sourceforge.net/DTD/sodipodi-0.dtd"
   xmlns="http://www.w3.org/2000/svg"
   xmlns:svg="http://www.w3.org/2000/svg"><defs
     id="defs8" /><sodipodi:namedview
     id="namedview6"
     pagecolor="#505050"
     bordercolor="#ffffff"
     borderopacity="1"
     inkscape:showpageshadow="0"
     inkscape:pageopacity="0"
     inkscape:pagecheckerboard="1"
     inkscape:deskcolor="#505050"
     showgrid="false"
     inkscape:zoom="0.5"
     inkscape:cx="-20"
     inkscape:cy="313"
     inkscape:window-width="1366"
     inkscape:window-height="694"
     inkscape:window-x="0"
     inkscape:window-y="0"
     inkscape:window-maximized="1"
     inkscape:current-layer="svg4" /><!--! Font Awesome Free 6.4.0 by @fontawesome - https://fontawesome.com License - https://fontawesome.com/license/free (Icons: CC BY 4.0, Fonts: SIL OFL 1.1, Code: MIT License) Copyright 2023 Fonticons, Inc. --><g
     id="g299"
     transform="matrix(0.96528763,0,0,0.96528763,605.14137,-87.87309)"><path
       d="m -417.44746,570.789 c 12.5,12.5 32.8,12.5 45.3,0 l 192,-192 c 12.5,-12.5 12.5,-32.8 0,-45.3 -12.5,-12.5 -32.8,-12.5 -45.3,0 l -169.4,169.4 -169.4,-169.3 c -12.5,-12.5 -32.8,-12.5 -45.3,0 -12.5,12.5 -12.5,32.8 0,45.3 l 192,192 z"
       id="path2"
       style="fill:#f2f2f2" /><path
       d="m -417.44746,141.68898 c 12.5,-12.5 32.8,-12.5 45.3,0 l 192,192 c 12.5,12.5 12.5,32.8 0,45.3 -12.5,12.5 -32.8,12.5 -45.3,0 l -169.4,-169.4 -169.4,169.3 c -12.5,12.5 -32.8,12.5 -45.3,0 -12.5,-12.5 -12.5,-32.8 0,-45.3 l 192,-192 z"
       id="path2-6"
       style="fill:#f2f2f2" /></g></svg>
