<?xml version="1.0" encoding="UTF-8" standalone="no"?>
<svg
   fill="none"
   height="22"
   viewBox="0 0 22 22"
   width="22"
   version="1.1"
   id="svg4"
   sodipodi:docname="settings.svg"
   inkscape:version="1.2.2 (b0a8486541, 2022-12-01)"
   xmlns:inkscape="http://www.inkscape.org/namespaces/inkscape"
   xmlns:sodipodi="http://sodipodi.sourceforge.net/DTD/sodipodi-0.dtd"
   xmlns="http://www.w3.org/2000/svg"
   xmlns:svg="http://www.w3.org/2000/svg">
  <defs
     id="defs8" />
  <sodipodi:namedview
     id="namedview6"
     pagecolor="#505050"
     bordercolor="#ffffff"
     borderopacity="1"
     inkscape:showpageshadow="0"
     inkscape:pageopacity="0"
     inkscape:pagecheckerboard="1"
     inkscape:deskcolor="#505050"
     showgrid="false"
     inkscape:zoom="14.75"
     inkscape:cx="-2.1694915"
     inkscape:cy="13.457627"
     inkscape:window-width="1366"
     inkscape:window-height="694"
     inkscape:window-x="0"
     inkscape:window-y="0"
     inkscape:window-maximized="1"
     inkscape:current-layer="svg4" />
  <path
     d="M 0.61326156,7.6537444 C 1.087448,6.1935357 1.8685729,4.8531601 2.8992561,3.7172288 3.073534,3.5251408 3.3469721,3.4566726 3.5917836,3.5438387 l 2.463117,0.8769152 C 6.7226787,4.6583725 7.4574756,4.3119725 7.6961089,3.6470573 7.719572,3.581669 7.7376536,3.5145055 7.750137,3.446309 L 8.2193954,0.8816403 C 8.2660493,0.62664635 8.4627393,0.4249378 8.7173528,0.37096402 9.4623313,0.21308299 10.226154,0.1327837 10.999995,0.1327837 c 0.77337,0 1.53674,0.0802084 2.281284,0.23789036 0.25454,0.0539189 0.451212,0.25550122 0.497975,0.51040455 l 0.470581,2.56512169 c 0.127229,0.6946292 0.795819,1.1550459 1.493546,1.0283824 0.06867,-0.012469 0.136066,-0.030456 0.201654,-0.053793 l 2.463154,-0.8769513 c 0.244775,-0.087167 0.518176,-0.018698 0.692472,0.17339 1.030738,1.1359313 1.811809,2.4763069 2.28614,3.9365156 0.0799,0.2463334 0.0027,0.5164015 -0.195494,0.6839576 l -1.996432,1.6877354 c -0.540461,0.457029 -0.606592,1.263845 -0.147662,1.802079 0.04511,0.05292 0.09457,0.102092 0.147662,0.14701 l 1.996432,1.687754 c 0.198211,0.167556 0.275395,0.437623 0.195494,0.683975 -0.474331,1.460281 -1.255402,2.800657 -2.28614,3.936479 -0.174296,0.192052 -0.447697,0.260538 -0.692472,0.17339 L 15.945035,17.57921 c -0.66765,-0.237528 -1.40252,0.108891 -1.641154,0.773643 -0.02346,0.0654 -0.04154,0.132618 -0.05408,0.201109 l -0.470545,2.564978 c -0.04676,0.254921 -0.243434,0.456394 -0.497974,0.510387 -0.744545,0.157626 -1.507914,0.237889 -2.281285,0.237889 -0.773841,0 -1.537663,-0.08027 -2.2826416,-0.238253 -0.2546161,-0.05399 -0.4513061,-0.255646 -0.49796,-0.510567 L 7.7501551,18.553781 C 7.6229301,17.859135 6.9542641,17.398754 6.2566274,17.5254 6.1880144,17.53791 6.1205605,17.55583 6.0550093,17.57921 L 3.5917836,18.456125 C 3.3469721,18.543273 3.073534,18.474787 2.8992561,18.282735 1.8685729,17.146913 1.087448,15.806537 0.61326156,14.346256 0.53327019,14.099904 0.61039894,13.829837 0.80862889,13.662281 L 2.8050602,11.974544 C 3.3456132,11.517516 3.4117261,10.7107 2.9527407,10.172466 2.9076086,10.119543 2.8582187,10.07037 2.8050783,10.025456 L 0.80862889,8.337702 C 0.61039894,8.1701459 0.53327019,7.9000778 0.61326156,7.6537444 Z M 7.8291137,10.999883 c 0,1.751112 1.419551,3.170664 3.1706643,3.170664 1.751111,0 3.170664,-1.419552 3.170664,-3.170664 0,-1.7511133 -1.419553,-3.170665 -3.170664,-3.170665 -1.7511133,0 -3.1706643,1.4195517 -3.1706643,3.170665 z"
     fill="#f2f2f2"
     id="path2"
     style="fill:#f2f2f2;stroke-width:1.81181" />
</svg>
