<?xml version="1.0" encoding="UTF-8" standalone="no"?>
<svg
   version="1.1"
   width="128"
   height="128"
   id="svg4"
   sodipodi:docname="Asymptote.svg"
   inkscape:version="1.2.2 (b0a8486541, 2022-12-01)"
   xmlns:inkscape="http://www.inkscape.org/namespaces/inkscape"
   xmlns:sodipodi="http://sodipodi.sourceforge.net/DTD/sodipodi-0.dtd"
   xmlns="http://www.w3.org/2000/svg"
   xmlns:svg="http://www.w3.org/2000/svg"
   xmlns:rdf="http://www.w3.org/1999/02/22-rdf-syntax-ns#"
   xmlns:cc="http://creativecommons.org/ns#"
   xmlns:dc="http://purl.org/dc/elements/1.1/">
  <metadata
     id="metadata10">
    <rdf:RDF>
      <cc:Work
         rdf:about="">
        <dc:format>image/svg+xml</dc:format>
        <dc:type
           rdf:resource="http://purl.org/dc/dcmitype/StillImage" />
        <dc:title />
      </cc:Work>
    </rdf:RDF>
  </metadata>
  <defs
     id="defs8" />
  <sodipodi:namedview
     pagecolor="#ffffff"
     bordercolor="#555555"
     borderopacity="1"
     objecttolerance="10"
     gridtolerance="10"
     guidetolerance="10"
     inkscape:pageopacity="0"
     inkscape:pageshadow="2"
     inkscape:window-width="1366"
     inkscape:window-height="694"
     id="namedview6"
     showgrid="false"
     inkscape:zoom="1.03125"
     inkscape:cx="110.54545"
     inkscape:cy="217.69697"
     inkscape:window-x="0"
     inkscape:window-y="0"
     inkscape:window-maximized="1"
     inkscape:current-layer="svg4"
     inkscape:showpageshadow="0"
     inkscape:pagecheckerboard="1"
     inkscape:deskcolor="#d1d1d1" />
  <path
     id="path2"
     style="stroke-width:0.231;stroke-miterlimit:4;stroke-dasharray:none;fill:#f2f2f2"
     d="M 69.28125,2.8769531 C 67.500732,2.9074313 65.910598,4.4159163 65.861862,6.2104987 64.879975,13.310775 63.80996,20.53997 62.167969,27.441406 59.843351,37.18742 56.30248,46.887313 50.024408,54.819395 c -4.831291,6.167617 -11.421294,10.902367 -18.775536,13.58887 -6.716689,2.506328 -13.918,3.412896 -21.05356,3.51361 -1.9452511,0.117173 -3.4990933,2.082463 -3.1113276,4.001953 0.2261272,1.83459 2.0729956,3.147097 3.8785156,2.945313 18.306771,0 36.613542,0 54.920312,0 0.0078,14.264114 -0.01563,28.529899 0.01172,42.792969 0.04912,1.95679 1.873645,3.78088 3.881137,3.4329 1.654317,-0.21261 2.675677,-1.71718 3.214438,-3.16429 3.370208,-7.22975 6.567919,-14.55022 10.959113,-21.2608 4.436204,-6.843083 10.267762,-12.950477 17.531781,-16.791285 5.14611,-2.773776 10.86386,-4.362922 16.64791,-5.08176 1.82579,-0.298525 3.19421,-2.189188 2.77148,-4.015625 -0.27138,-1.749475 -1.99129,-3.106651 -3.76289,-2.876953 -14.76133,0 -29.522656,0 -44.283984,0 -0.0078,-21.963442 0.01563,-43.927681 -0.01172,-65.8906251 C 72.764251,4.1814199 71.107562,2.7304852 69.28125,2.8769531 Z M 65.884766,56.988281 c -2.968099,0 -5.936198,0 -8.904297,0 3.84758,-5.377513 6.724261,-11.398644 8.904297,-17.626953 0,5.875651 0,11.751302 0,17.626953 z m 0,5.478516 c 0,3.145182 0,6.290364 0,9.435547 -8.548828,0 -17.097657,0 -25.646485,0 4.544576,-2.461024 8.687144,-5.662546 12.21875,-9.435547 4.475912,0 8.951823,0 13.427735,0 z m 29.195312,16.40625 c -7.082913,3.7894 -12.774284,9.795213 -16.965208,16.584764 -1.994303,3.186532 -3.701565,6.544529 -5.261354,9.962109 0,-8.849608 0,-17.699217 0,-26.548826 7.408854,6.51e-4 14.817708,0.0013 22.226562,0.002 z" />
</svg>
