<?xml version="1.0" encoding="UTF-8" standalone="no"?>
<svg
   viewBox="0 0 24 24"
   width="24"
   height="24"
   version="1.1"
   id="svg8"
   sodipodi:docname="bib-edit.svg"
   inkscape:version="1.2.2 (b0a8486541, 2022-12-01)"
   xmlns:inkscape="http://www.inkscape.org/namespaces/inkscape"
   xmlns:sodipodi="http://sodipodi.sourceforge.net/DTD/sodipodi-0.dtd"
   xmlns="http://www.w3.org/2000/svg"
   xmlns:svg="http://www.w3.org/2000/svg">
  <sodipodi:namedview
     id="namedview10"
     pagecolor="#505050"
     bordercolor="#ffffff"
     borderopacity="1"
     inkscape:pageshadow="0"
     inkscape:pageopacity="0"
     inkscape:pagecheckerboard="1"
     showgrid="false"
     inkscape:zoom="19.916667"
     inkscape:cx="7.1799162"
     inkscape:cy="12.025104"
     inkscape:window-width="1366"
     inkscape:window-height="694"
     inkscape:window-x="0"
     inkscape:window-y="0"
     inkscape:window-maximized="1"
     inkscape:current-layer="svg8"
     inkscape:showpageshadow="0"
     inkscape:deskcolor="#505050" />
  <defs
     id="defs3051">
    <style
       type="text/css"
       id="current-color-scheme">
      .ColorScheme-Text {
        color:#232629;
      }
      </style>
  </defs>
  <g
     transform="translate(1,1)"
     id="g6"
     style="fill:#f2f2f2">
    <path
       style="fill:#f2f2f2;fill-opacity:1;stroke:none"
       d="M 5,3 V 4 5 H 3 v 3 h 2 v 6 H 3 v 3 h 2 v 2 h 1 4.4 V 18 H 9 V 4 h 9 v 7 h 1 V 4 3 Z M 6,4 H 8 V 18 H 6 Z"
       class="ColorScheme-Text"
       id="path4"
       sodipodi:nodetypes="ccccccccccccccccccccccccccc" />
  </g>
  <path
     d="M 17.999994,12.004 17.0039,12.998141 H 17 l -5,4.994141 0.0078,0.002 -0.0039,1.001954 H 12 v 0.990234 h 2 0.0059 0.0039 0.0098 L 14.0137,19.98447 15,18.998142 19,15.005954 18.294922,14.29697 13.304688,19.279392 12.710938,18.687595 17.703125,13.70322 18.294922,14.29697 19,15.000095 l 1,-1 z"
     style="color:#232629;fill:#f2f2f2;fill-opacity:1;stroke:none"
     id="path1934" />
</svg>
