<?xml version="1.0" encoding="UTF-8" standalone="no"?>
<!-- Created with Inkscape (http://www.inkscape.org/) -->

<svg
   width="255.99998"
   height="128"
   viewBox="0 0 67.733321 33.866667"
   version="1.1"
   id="svg5"
   inkscape:version="1.3 (0e150ed6c4, 2023-07-21)"
   sodipodi:docname="BibliographyDB.svg"
   xml:space="preserve"
   inkscape:export-filename="../../../Επιφάνεια εργασίας/DocumentsDB.svg"
   inkscape:export-xdpi="102.557"
   inkscape:export-ydpi="102.557"
   xmlns:inkscape="http://www.inkscape.org/namespaces/inkscape"
   xmlns:sodipodi="http://sodipodi.sourceforge.net/DTD/sodipodi-0.dtd"
   xmlns="http://www.w3.org/2000/svg"
   xmlns:svg="http://www.w3.org/2000/svg"><sodipodi:namedview
     id="namedview7"
     pagecolor="#505050"
     bordercolor="#eeeeee"
     borderopacity="1"
     inkscape:showpageshadow="0"
     inkscape:pageopacity="0"
     inkscape:pagecheckerboard="0"
     inkscape:deskcolor="#505050"
     inkscape:document-units="mm"
     showgrid="false"
     inkscape:zoom="2.3786088"
     inkscape:cx="122.13021"
     inkscape:cy="45.614899"
     inkscape:window-width="1366"
     inkscape:window-height="694"
     inkscape:window-x="0"
     inkscape:window-y="0"
     inkscape:window-maximized="1"
     inkscape:current-layer="g1807" /><defs
     id="defs2"><rect
       x="7.9878626"
       y="68.10704"
       width="390.31607"
       height="59.552677"
       id="rect387" /><rect
       x="-96.244637"
       y="47.086346"
       width="219.45601"
       height="95.854347"
       id="rect369" /></defs><g
     inkscape:label="Στρώση 1"
     inkscape:groupmode="layer"
     id="layer1"><g
       id="g453"
       transform="translate(-0.90217765,2.2088038)"><g
         id="g598"
         transform="translate(1.5792373,1.2076798)"><g
           id="g1807"
           transform="translate(-2.1932715,-1.9458126)"><g
             aria-label="Create a database for the bibliographical references used in DataTex"
             transform="matrix(0.2587881,0,0,0.2587881,-17.161144,0.65019162)"
             id="text385"
             style="font-size:18.6667px;line-height:0.75;font-family:KerkisSans;-inkscape-font-specification:KerkisSans;text-align:center;white-space:pre;shape-inside:url(#rect387);display:inline;fill:#f2f2f2" /><g
             aria-label="Bibliography"
             transform="matrix(0.33271755,0,0,0.33271755,41.992072,-9.8508033)"
             id="text367"
             style="font-size:40px;line-height:1.25;white-space:pre;shape-inside:url(#rect369);display:inline;fill:#f2f2f2"><path
               d="m -83.259525,82.311714 q -1.969231,1.169231 -5.446154,1.169231 h -5.815385 V 62.434791 h 4.553846 q 3.723077,0 5.261539,0.769231 0.246154,0.123077 0.523077,0.276923 2.184615,1.353846 2.492308,3.969231 0.03077,0.338461 0.03077,0.676923 0,2.461538 -1.753846,3.661538 -0.153847,0.123077 -0.338462,0.215385 1.538462,0.676923 2.246154,1.630769 1.076923,1.415385 1.076923,3.507692 0,3.015385 -2.246154,4.769231 z m -5.569231,-15.723077 h -1.384615 v 3.784616 h 1.046153 q 2.8,0 3.107693,-1.384616 l 0.03077,-0.03077 0.03077,-0.461539 q 0,-1.907692 -2.830769,-1.907692 z m 0.276923,7.969231 h -1.661538 v 4.861538 h 1.753846 q 3.230769,0 3.630769,-1.692307 0.06154,-0.307693 0.06154,-0.676923 0,-2.153847 -2.76923,-2.43077 z"
               style="font-weight:bold;font-family:KerkisSans;-inkscape-font-specification:'KerkisSans Bold'"
               id="path7605" /><path
               d="m -78.428754,66.496329 -0.03077,-3.846153 h 4.215384 v 3.846153 z m -0.03077,16.984616 V 67.727099 h 4.215384 v 15.753846 z"
               style="font-weight:bold;font-family:KerkisSans;-inkscape-font-specification:'KerkisSans Bold'"
               id="path7602" /><path
               d="m -56.674936,81.080945 q -2.184615,2.769231 -5.96923,2.769231 -2.923077,0 -4.83077,-1.692308 -0.153846,-0.153846 -0.338461,-0.338462 v 1.661539 H -71.72109 V 62.650176 h 4.184616 v 6.246153 q 1.938461,-1.692307 4.646154,-1.692307 3.723077,0 6.061538,2.676923 2.030769,2.338461 2.030769,5.630769 0,3.2 -1.876923,5.569231 z m -6.738461,-10.092308 q -2.4,0 -3.630769,1.907692 -0.707693,1.138462 -0.707693,2.615385 0,2.646154 1.969231,3.876923 1.046154,0.676923 2.430769,0.676923 2.492308,0 3.692308,-1.969231 0.676923,-1.107692 0.676923,-2.584615 0,-2.461538 -1.876923,-3.753846 -1.107692,-0.769231 -2.553846,-0.769231 z"
               style="font-weight:bold;font-family:KerkisSans;-inkscape-font-specification:'KerkisSans Bold'"
               id="path7599" /><path
               d="m -53.105726,83.480945 -0.03077,-20.830769 h 4.215385 v 20.830769 z"
               style="font-weight:bold;font-family:KerkisSans;-inkscape-font-specification:'KerkisSans Bold'"
               id="path7596" /><path
               d="m -46.367292,66.496329 -0.03077,-3.846153 h 4.215385 v 3.846153 z m -0.03077,16.984616 V 67.727099 h 4.215385 v 15.753846 z"
               style="font-weight:bold;font-family:KerkisSans;-inkscape-font-specification:'KerkisSans Bold'"
               id="path7593" /><path
               d="m -31.813473,83.850176 q -3.63077,0 -6.153846,-2.553847 -2.369231,-2.36923 -2.369231,-5.630769 0,-3.446154 2.615384,-5.876923 2.461539,-2.307692 5.876923,-2.307692 3.846154,0 6.338462,2.646154 2.246154,2.36923 2.246154,5.661538 0,3.353846 -2.615385,5.753846 -2.492307,2.307693 -5.938461,2.307693 z m 0,-12.584616 q -2.123077,0 -3.415385,1.723077 -0.892308,1.169231 -0.892308,2.615385 0,2.338461 1.815385,3.630769 1.107692,0.830769 2.523077,0.830769 2.153846,0 3.446154,-1.753846 0.861538,-1.169231 0.861538,-2.646154 0,-2.215384 -1.753846,-3.538461 -1.138461,-0.861539 -2.584615,-0.861539 z"
               style="font-weight:bold;font-family:KerkisSans;-inkscape-font-specification:'KerkisSans Bold'"
               id="path7590" /><path
               d="m -7.1057732,86.834791 q -2.2461539,2.892308 -6.6769228,2.892308 -4.984616,0 -7.446154,-3.63077 -0.523077,-0.76923 -0.892308,-1.661538 h 4.646154 q 1.323077,1.415385 3.076923,1.569231 l 0.769231,0.03077 q 3.6923075,0 4.0923075,-4.092308 -1.9384615,2.03077 -4.8615385,2.03077 -3.815385,0 -6.061538,-2.83077 -1.846154,-2.276923 -1.846154,-5.538461 0,-3.753846 2.553846,-6.092308 2.215385,-2.030769 5.384615,-2.030769 3.2,0 4.8615388,1.938461 v -1.56923 H -5.475004 V 80.49633 q 0,4.276924 -1.6307692,6.338461 z M -13.936542,71.26556 q -2.523077,0 -3.6,2.092308 -0.553847,1.046154 -0.553847,2.430769 0,2.8 2.061539,3.876923 0.923077,0.492308 2.123077,0.492308 2.646154,0 3.753846,-2.061539 0.5230769,-1.015384 0.5230769,-2.307692 0,-2.676923 -1.9999999,-3.907692 -1.015385,-0.615385 -2.307692,-0.615385 z"
               style="font-weight:bold;font-family:KerkisSans;-inkscape-font-specification:'KerkisSans Bold'"
               id="path7587" /><path
               d="m 1.1711292,74.834791 v 8.646154 H -3.0442554 V 67.850176 h 3.87692306 v 1.046153 Q 1.9095907,67.573253 3.6018984,67.480945 h 0.4 0.523077 v 3.938461 q -2.8923077,0.03077 -3.2923077,2.43077 z"
               style="font-weight:bold;font-family:KerkisSans;-inkscape-font-specification:'KerkisSans Bold'"
               id="path7584" /><path
               d="m 18.371118,83.480945 v -1.661539 q -1.938462,1.938462 -5.015385,2.03077 -3.8461538,0 -6.1846153,-2.707693 -1.9076923,-2.215384 -1.9076923,-5.415384 0,-3.907693 2.7076923,-6.276923 2.2461543,-1.969231 5.4769233,-1.969231 3.076923,0 4.892307,2.030769 v -1.661538 h 3.876924 V 83.480945 Z M 13.848041,71.26556 q -2.461539,0 -3.661539,1.969231 -0.707692,1.107692 -0.707692,2.584615 0,2.492308 1.969231,3.63077 1.076923,0.615384 2.461538,0.615384 2.092308,0 3.230769,-1.292307 1.107693,-1.261539 1.107693,-2.984616 0,-2.615384 -1.969231,-3.846154 -1.046154,-0.676923 -2.430769,-0.676923 z"
               style="font-weight:bold;font-family:KerkisSans;-inkscape-font-specification:'KerkisSans Bold'"
               id="path7581" /><path
               d="m 33.294174,83.942483 q -2.615385,0 -4.553846,-1.56923 v 6.338461 H 24.524943 V 67.850176 h 3.876923 v 1.476923 q 1.907693,-1.846154 4.923077,-1.846154 3.815385,0 6.123077,2.738461 1.907692,2.215385 1.907692,5.446154 0,3.907693 -2.646153,6.276923 -2.246154,2 -5.415385,2 z M 32.863405,71.26556 q -2.369231,0 -3.63077,1.876923 -0.738461,1.107693 -0.738461,2.553846 0,2.4 1.846154,3.692308 1.107692,0.769231 2.553846,0.769231 2.184615,0 3.446154,-1.784615 0.8,-1.169231 0.8,-2.615385 0,-2.430769 -1.815385,-3.723077 Q 34.24802,71.26556 32.863405,71.26556 Z"
               style="font-weight:bold;font-family:KerkisSans;-inkscape-font-specification:'KerkisSans Bold'"
               id="path7578" /><path
               d="m 53.232615,83.480945 v -8.030769 q 0,-3.323077 -1.476923,-4.03077 v 0 q -0.553846,-0.246153 -1.353846,-0.246153 -1.815385,0 -2.584616,1.353846 -0.492307,0.861538 -0.492307,2.984615 v 7.969231 H 43.109538 V 62.650176 h 4.184615 v 5.907692 q 1.569231,-1.169231 3.784616,-1.169231 3.538461,0 5.230769,2.492308 1.076923,1.630769 1.107692,4.738461 v 8.861539 z"
               style="font-weight:bold;font-family:KerkisSans;-inkscape-font-specification:'KerkisSans Bold'"
               id="path7575" /><path
               d="m 65.878757,88.711714 h -4.492308 l 3.015385,-6.769231 -5.815385,-14.092307 h 4.738462 l 3.353846,9.507692 3.630769,-9.507692 h 4.769231 z"
               style="font-weight:bold;font-family:KerkisSans;-inkscape-font-specification:'KerkisSans Bold'"
               id="path7572" /></g><path
             d="m 9.075661,15.874458 v -4.62197 c 0,-0.182952 -0.126155,-0.330141 -0.282964,-0.330141 H 4.9255178 c -0.624879,0 -1.131857,0.591504 -1.131857,1.320563 v 4.401876 c 0,0.729058 0.506978,1.320561 1.131857,1.320561 H 8.792697 c 0.156809,0 0.282964,-0.147188 0.282964,-0.330141 v -0.220093 c 0,-0.103165 -0.04127,-0.196709 -0.104933,-0.257234 -0.04952,-0.21184 -0.04952,-0.815722 0,-1.027563 0.06367,-0.05915 0.104933,-0.152689 0.104933,-0.255858 z M 5.3028038,12.765631 c 0,-0.04539 0.03183,-0.08254 0.07074,-0.08254 H 7.873062 c 0.03891,0 0.07074,0.03714 0.07074,0.08254 v 0.275117 c 0,0.04539 -0.03183,0.08254 -0.07074,0.08254 H 5.3735438 c -0.03891,0 -0.07074,-0.03713 -0.07074,-0.08254 z m 0,0.880375 c 0,-0.04539 0.03183,-0.08254 0.07074,-0.08254 H 7.873062 c 0.03891,0 0.07074,0.03713 0.07074,0.08254 v 0.275117 c 0,0.0454 -0.03183,0.08254 -0.07074,0.08254 H 5.3735438 c -0.03891,0 -0.07074,-0.03714 -0.07074,-0.08254 z M 8.290435,17.084973 H 4.9255178 c -0.208686,0 -0.377286,-0.196709 -0.377286,-0.440187 0,-0.242102 0.169779,-0.440187 0.377286,-0.440187 H 8.290435 c -0.0224,0.235224 -0.0224,0.64515 0,0.880374 z"
             id="path2"
             style="fill:#f2f2f2;stroke-width:0.0127351" /></g></g></g></g></svg>
