<?xml version="1.0" encoding="UTF-8" standalone="no"?>
<!-- Created with Inkscape (http://www.inkscape.org/) -->

<svg
   width="255.99998"
   height="128"
   viewBox="0 0 67.733321 33.866667"
   version="1.1"
   id="svg5"
   xml:space="preserve"
   sodipodi:docname="ClassesDB.svg"
   inkscape:version="1.3 (0e150ed6c4, 2023-07-21)"
   xmlns:inkscape="http://www.inkscape.org/namespaces/inkscape"
   xmlns:sodipodi="http://sodipodi.sourceforge.net/DTD/sodipodi-0.dtd"
   xmlns="http://www.w3.org/2000/svg"
   xmlns:svg="http://www.w3.org/2000/svg"><sodipodi:namedview
     id="namedview10300"
     pagecolor="#505050"
     bordercolor="#eeeeee"
     borderopacity="1"
     inkscape:showpageshadow="0"
     inkscape:pageopacity="0"
     inkscape:pagecheckerboard="0"
     inkscape:deskcolor="#505050"
     showgrid="false"
     inkscape:zoom="2.6074563"
     inkscape:cx="107.76787"
     inkscape:cy="71.142132"
     inkscape:window-width="1366"
     inkscape:window-height="694"
     inkscape:window-x="0"
     inkscape:window-y="0"
     inkscape:window-maximized="1"
     inkscape:current-layer="svg5" /><defs
     id="defs2"><rect
       x="7.9878626"
       y="68.10704"
       width="390.31607"
       height="59.552677"
       id="rect387" /><rect
       x="-96.244637"
       y="47.086346"
       width="219.45601"
       height="95.854347"
       id="rect369" /><rect
       x="7.9878626"
       y="68.10704"
       width="390.31607"
       height="59.552677"
       id="rect387-6" /></defs><g
     id="g1"><g
       aria-label="Classes"
       transform="matrix(0.33271755,0,0,0.33271755,55.872459,-7.341031)"
       id="text367"
       style="font-size:40px;line-height:1.25;white-space:pre;shape-inside:url(#rect369);display:inline;fill:#f2f2f2"><path
         d="m -84.305679,83.850176 q -4.584615,0 -7.876923,-3.076923 -3.230769,-3.015385 -3.446154,-7.323077 v -0.553847 q 0,-4.276923 3.046154,-7.415384 3.015384,-3.138462 7.323077,-3.384616 l 0.676923,-0.03077 q 4.061538,0 7.107692,2.430769 1.661539,1.323077 2.676923,3.2 v 0 l 0.523077,1.076924 h -4.8 q -1.815384,-2.338462 -4.676923,-2.553847 -0.338461,-0.03077 -0.738461,-0.03077 -3.169231,0 -5.076924,2.184616 -1.692307,1.938461 -1.692307,4.553846 0,3.015384 2.276923,5.046154 1.969231,1.784615 4.584615,1.784615 2.430769,0 4.338462,-1.692308 l 0.03077,-0.03077 q 0.369231,-0.307692 0.738462,-0.707692 h 4.984615 q -1.723077,3.96923 -5.6,5.630769 -2.061539,0.892308 -4.4,0.892308 z"
         style="font-weight:bold;font-family:KerkisSans;-inkscape-font-specification:'KerkisSans Bold'"
         id="path10954" /><path
         d="m -72.736463,83.480945 -0.03077,-20.830769 h 4.215385 v 20.830769 z"
         style="font-weight:bold;font-family:KerkisSans;-inkscape-font-specification:'KerkisSans Bold'"
         id="path10951" /><path
         d="m -53.598029,83.480945 v -1.661539 q -1.938462,1.938462 -5.015385,2.03077 -3.846153,0 -6.184615,-2.707693 -1.907692,-2.215384 -1.907692,-5.415384 0,-3.907693 2.707692,-6.276923 2.246154,-1.969231 5.476923,-1.969231 3.076923,0 4.892308,2.030769 v -1.661538 h 3.876923 V 83.480945 Z M -58.121106,71.26556 q -2.461538,0 -3.661538,1.969231 -0.707693,1.107692 -0.707693,2.584615 0,2.492308 1.969231,3.63077 1.076923,0.615384 2.461539,0.615384 2.092307,0 3.230769,-1.292307 1.107692,-1.261539 1.107692,-2.984616 0,-2.615384 -1.969231,-3.846154 -1.046154,-0.676923 -2.430769,-0.676923 z"
         style="font-weight:bold;font-family:KerkisSans;-inkscape-font-specification:'KerkisSans Bold'"
         id="path10948" /><path
         d="m -42.459588,83.850176 q -2.769231,0 -4.492308,-1.784616 l -0.369231,-0.430769 q -0.830769,-1.138462 -1.076923,-3.169231 l -0.03077,-0.246154 h 4.184615 q 0.461539,1.6 1.415385,1.784616 l 0.492308,0.06154 q 1.169231,0 1.446154,-0.892307 l 0.06154,-0.369231 q 0,-1.015385 -2.092308,-1.630769 0.09231,0.03077 -0.246153,-0.06154 l -0.03077,-0.03077 -0.153846,-0.03077 q -3.415384,-1.138462 -4.215384,-2.984616 -0.307693,-0.738461 -0.307693,-1.723077 0,-2.4 2.061539,-3.846154 1.476923,-1.015384 3.353846,-1.015384 2.584615,0 4.184615,1.753846 1.046154,1.107692 1.169231,2.984615 v 0.03077 l 0.03077,0.215384 h -4.061538 q -0.307693,-1.2 -1.323077,-1.2 -0.892308,0 -1.169231,0.738462 v 0.03077 l -0.03077,0.03077 q -0.03077,0.123077 -0.03077,0.276923 0,0.584616 1.046153,0.984616 v 0 h 0.03077 q 0,0 0.09231,0.03077 l 2.738462,0.892308 q 0.984615,0.4 1.569231,0.892307 1.538461,1.2 1.538461,3.292308 0,2.615385 -2.123077,4.246154 -1.6,1.169231 -3.661538,1.169231 z"
         style="font-weight:bold;font-family:KerkisSans;-inkscape-font-specification:'KerkisSans Bold'"
         id="path10945" /><path
         d="m -30.090356,83.850176 q -2.769231,0 -4.492308,-1.784616 l -0.36923,-0.430769 q -0.83077,-1.138462 -1.076924,-3.169231 l -0.03077,-0.246154 h 4.184616 q 0.461538,1.6 1.415384,1.784616 l 0.492308,0.06154 q 1.169231,0 1.446154,-0.892307 l 0.06154,-0.369231 q 0,-1.015385 -2.092307,-1.630769 0.09231,0.03077 -0.246154,-0.06154 l -0.03077,-0.03077 -0.153846,-0.03077 q -3.415384,-1.138462 -4.215384,-2.984616 -0.307693,-0.738461 -0.307693,-1.723077 0,-2.4 2.061539,-3.846154 1.476923,-1.015384 3.353846,-1.015384 2.584615,0 4.184615,1.753846 1.046154,1.107692 1.169231,2.984615 v 0.03077 l 0.03077,0.215384 h -4.061538 q -0.307692,-1.2 -1.323077,-1.2 -0.892308,0 -1.169231,0.738462 v 0.03077 l -0.03077,0.03077 q -0.03077,0.123077 -0.03077,0.276923 0,0.584616 1.046154,0.984616 v 0 h 0.03077 q 0,0 0.09231,0.03077 l 2.738461,0.892308 q 0.984615,0.4 1.569231,0.892307 1.538461,1.2 1.538461,3.292308 0,2.615385 -2.123077,4.246154 -1.6,1.169231 -3.661538,1.169231 z"
         style="font-weight:bold;font-family:KerkisSans;-inkscape-font-specification:'KerkisSans Bold'"
         id="path10942" /><path
         d="M -6.8288161,77.511714 H -18.798047 q 0.615385,1.938462 2.8,2.430769 0.584616,0.123077 1.230769,0.123077 1.846154,0 3.015385,-1.138461 0.153846,-0.153846 0.338462,-0.369231 h 4.461538 q -0.4307693,1.353846 -1.3538462,2.461538 -2.4615388,2.83077 -6.3692308,2.83077 -3.907692,0 -6.461538,-2.615385 -2.246154,-2.307692 -2.246154,-5.507692 0,-3.6 2.646154,-6.03077 2.430769,-2.215384 5.815384,-2.215384 3.876923,0 6.2769233,2.738461 2.0307692,2.338462 2.0307692,5.661539 0,0.646154 -0.2153846,1.630769 z M -14.859585,71.26556 q -3.107693,0 -4.061539,2.584616 h 8.092308 q -0.738462,-2.584616 -4.030769,-2.584616 z"
         style="font-weight:bold;font-family:KerkisSans;-inkscape-font-specification:'KerkisSans Bold'"
         id="path10939" /><path
         d="m 0.30965318,83.850176 q -2.76923078,0 -4.49230768,-1.784616 L -4.5518853,81.634791 Q -5.3826545,80.496329 -5.6288084,78.46556 l -0.030769,-0.246154 h 4.1846154 q 0.4615385,1.6 1.41538461,1.784616 l 0.49230769,0.06154 q 1.1692308,0 1.4461538,-0.892307 l 0.061539,-0.369231 q 0,-1.015385 -2.09230768,-1.630769 0.09230769,0.03077 -0.24615385,-0.06154 l -0.0307692,-0.03077 -0.15384615,-0.03077 Q -3.9980391,75.911714 -4.7980391,74.06556 q -0.3076923,-0.738461 -0.3076923,-1.723077 0,-2.4 2.0615384,-3.846154 1.4769231,-1.015384 3.35384618,-1.015384 2.58461542,0 4.18461542,1.753846 1.0461538,1.107692 1.1692307,2.984615 v 0.03077 l 0.030769,0.215384 H 1.6327301 q -0.3076923,-1.2 -1.32307692,-1.2 -0.89230769,0 -1.16923077,0.738462 v 0.03077 l -0.0307692,0.03077 q -0.0307692,0.123077 -0.0307692,0.276923 0,0.584616 1.04615384,0.984616 v 0 h 0.0307692 q 0,0 0.0923077,0.03077 l 2.73846155,0.892308 q 0.9846153,0.4 1.5692307,0.892307 1.5384616,1.2 1.5384616,3.292308 0,2.615385 -2.123077,4.246154 -1.6,1.169231 -3.66153839,1.169231 z"
         style="font-weight:bold;font-family:KerkisSans;-inkscape-font-specification:'KerkisSans Bold'"
         id="path10936" /></g><g
       id="g489"
       transform="matrix(0.01947583,0,0,0.01947583,9.6176439,11.674306)"
       style="fill:#f2f2f2"><path
         d="M 36.465046,95.476889 H 229.90251 q 11.13309,0 16.35173,2.783273 5.21864,2.435368 6.95818,8.001908 1.73955,5.56655 1.73955,14.61219 0,9.04563 -1.73955,14.61218 -1.73954,5.21864 -5.91445,7.30609 -6.26237,3.13118 -17.74337,3.13118 h -66.45064 v 174.9983 q 0,8.00191 -0.69582,11.82891 -0.34791,3.827 -3.13118,9.04563 -2.43536,4.87073 -9.04564,6.95818 -6.61027,2.08746 -17.39545,2.08746 -10.78518,0 -17.39546,-2.08746 -6.26236,-2.08745 -9.04563,-6.95818 -2.43536,-5.21863 -3.13118,-9.04563 -0.34791,-4.17491 -0.34791,-12.17682 V 145.92371 H 36.117137 q -11.133092,0 -16.351729,-2.43536 -5.218637,-2.78327 -6.958182,-8.34982 -1.739546,-5.56654 -1.739546,-14.61218 0,-9.04564 1.739546,-14.26428 1.739545,-5.56654 5.914455,-7.653999 6.262364,-3.131182 17.743365,-3.131182 z"
         style="font-weight:bold;font-size:40px;line-height:1.25;font-family:'Fredoka One';-inkscape-font-specification:'Fredoka One Bold';white-space:pre;fill:#f2f2f2;stroke-width:8.69773"
         id="path476" /><path
         d="m 255.6672,389.26228 h 107.15601 q 8.00191,0 11.82891,0.69581 4.17491,0.34791 9.39354,3.13119 9.39355,4.87072 9.39355,27.13691 0,24.35364 -12.87264,28.52854 -5.91445,2.08746 -18.09127,2.08746 H 224.70329 q -24.35364,0 -28.52855,-13.22055 -2.08746,-5.56654 -2.08746,-17.74336 V 226.44081 q 0,-17.74337 6.61028,-24.00574 6.61027,-6.61027 25.04945,-6.61027 h 137.0762 q 8.00191,0 11.82891,0.69582 4.17491,0.34791 9.39354,3.13118 9.39355,4.87073 9.39355,27.13692 0,24.35364 -12.87264,28.52854 -5.91445,2.08746 -18.09127,2.08746 H 255.6672 v 35.13882 h 68.886 q 8.00191,0 11.82891,0.69582 4.17491,0.34791 9.39355,3.13118 9.39355,4.87073 9.39355,27.13691 0,24.35364 -13.22055,28.52855 -5.91446,2.08745 -18.09128,2.08745 H 255.6672 Z"
         style="font-weight:bold;font-size:40px;line-height:1.25;font-family:'Fredoka One';-inkscape-font-specification:'Fredoka One Bold';white-space:pre;fill:#f2f2f2;stroke-width:8.69773"
         id="path478" /><path
         d="m 552.96049,221.76791 69.92973,76.88791 q 11.82891,13.22055 11.82891,22.26619 0,9.04563 -13.56845,21.22245 -13.22055,12.17682 -22.6141,12.17682 -9.04563,0 -21.22245,-13.91636 l -66.10274,-75.84419 -66.10273,75.84419 q -12.52473,13.91636 -21.57036,13.91636 -8.69773,0 -22.6141,-12.17682 -13.56845,-12.52473 -13.56845,-21.22245 0,-8.69773 12.17682,-22.26619 l 69.92973,-76.88791 -69.92973,-76.88792 q -12.17682,-12.87264 -12.17682,-21.91828 0,-9.04564 13.56845,-21.22246 13.56846,-12.524725 22.6141,-12.524725 9.39354,0 21.57036,13.916365 l 66.10273,75.84419 66.10274,-75.84419 q 12.52472,-13.916365 21.22245,-13.916365 9.04564,0 22.6141,12.176815 13.56845,12.17682 13.56845,21.57037 0,9.39355 -11.82891,21.91828 z"
         style="font-weight:bold;font-size:40px;line-height:1.25;font-family:'Fredoka One';-inkscape-font-specification:'Fredoka One Bold';white-space:pre;fill:#f2f2f2;stroke-width:8.69773"
         id="path480" /></g></g><style
     type="text/css"
     id="current-color-scheme">&#10;        .ColorScheme-Text {&#10;            color:#232629;&#10;        }&#10;    </style></svg>
