<?xml version="1.0" encoding="UTF-8" standalone="no"?>
<svg
   viewBox="0 0 22 22"
   version="1.1"
   id="svg6"
   sodipodi:docname="clean.svg"
   inkscape:version="1.2.2 (b0a8486541, 2022-12-01)"
   xmlns:inkscape="http://www.inkscape.org/namespaces/inkscape"
   xmlns:sodipodi="http://sodipodi.sourceforge.net/DTD/sodipodi-0.dtd"
   xmlns="http://www.w3.org/2000/svg"
   xmlns:svg="http://www.w3.org/2000/svg">
  <sodipodi:namedview
     id="namedview8"
     pagecolor="#505050"
     bordercolor="#ffffff"
     borderopacity="1"
     inkscape:showpageshadow="0"
     inkscape:pageopacity="0"
     inkscape:pagecheckerboard="1"
     inkscape:deskcolor="#505050"
     showgrid="false"
     inkscape:zoom="10.727273"
     inkscape:cx="-9.6483048"
     inkscape:cy="11.04661"
     inkscape:window-width="1366"
     inkscape:window-height="694"
     inkscape:window-x="0"
     inkscape:window-y="0"
     inkscape:window-maximized="1"
     inkscape:current-layer="svg6" />
  <defs
     id="defs3051">
    <style
       type="text/css"
       id="current-color-scheme">
      .ColorScheme-Text {
        color:#232629;
      }
      </style>
  </defs>
  <path
     id="path4"
     style="fill:#f2f2f2;fill-opacity:1;stroke:none"
     class="ColorScheme-Text"
     d="M 17.564453 2.7558594 L 14.298828 8.5742188 L 11.882812 7.1386719 L 10.861328 8.8574219 L 16.511719 12.216797 L 17.533203 10.496094 L 15.158203 9.0839844 L 18.435547 3.2441406 L 17.564453 2.7558594 z M 10 10 C 8.8815136 11.564266 6.8355017 12.810894 3 13 L 3 14 C 5.1137114 17.371689 8.000004 19 12 19 L 13 19 C 14.311248 17.412807 15.357514 15.967617 16 14 L 16 13 L 11 10 L 10 10 z M 10.529297 11.101562 L 14.857422 13.699219 C 14.284594 15.245858 13.385402 16.602834 12.273438 17.96875 C 9.0000023 18 6.0527662 16.540535 4.3261719 13.830078 C 7.4443848 13.51946 9.3457167 12.545305 10.529297 11.101562 z " />
</svg>
