<?xml version="1.0" encoding="UTF-8" standalone="no"?>
<!-- Created with Inkscape (http://www.inkscape.org/) -->

<svg
   width="255.99998"
   height="128"
   viewBox="0 0 67.733321 33.866667"
   version="1.1"
   id="svg5"
   xml:space="preserve"
   sodipodi:docname="CommandsDB.svg"
   inkscape:version="1.3 (0e150ed6c4, 2023-07-21)"
   xmlns:inkscape="http://www.inkscape.org/namespaces/inkscape"
   xmlns:sodipodi="http://sodipodi.sourceforge.net/DTD/sodipodi-0.dtd"
   xmlns="http://www.w3.org/2000/svg"
   xmlns:svg="http://www.w3.org/2000/svg"><sodipodi:namedview
     id="namedview5223"
     pagecolor="#505050"
     bordercolor="#eeeeee"
     borderopacity="1"
     inkscape:showpageshadow="0"
     inkscape:pageopacity="0"
     inkscape:pagecheckerboard="0"
     inkscape:deskcolor="#505050"
     showgrid="false"
     inkscape:zoom="1.3037281"
     inkscape:cx="128.86122"
     inkscape:cy="44.104288"
     inkscape:window-width="1366"
     inkscape:window-height="694"
     inkscape:window-x="0"
     inkscape:window-y="0"
     inkscape:window-maximized="1"
     inkscape:current-layer="layer1" /><defs
     id="defs2"><rect
       x="7.9878626"
       y="68.10704"
       width="390.31607"
       height="59.552677"
       id="rect387" /><rect
       x="-96.244637"
       y="47.086346"
       width="219.45601"
       height="95.854347"
       id="rect369" /></defs><g
     id="layer1"><g
       aria-label="Store your comands, environments and scripts in a DataTeX database."
       transform="matrix(0.2587881,0,0,0.2587881,-18.740529,0.21561391)"
       id="text385"
       style="font-size:18.6667px;line-height:0.75;font-family:KerkisSans;-inkscape-font-specification:KerkisSans;text-align:center;white-space:pre;shape-inside:url(#rect387);display:inline;fill:#f2f2f2" /><g
       aria-label="Commands"
       transform="matrix(0.33271755,0,0,0.33271755,44.515168,-7.3410309)"
       id="text367"
       style="font-size:40px;line-height:1.25;white-space:pre;shape-inside:url(#rect369);display:inline;fill:#f2f2f2"><path
         d="m -84.305679,83.850176 q -4.584615,0 -7.876923,-3.076923 -3.230769,-3.015385 -3.446154,-7.323077 v -0.553847 q 0,-4.276923 3.046154,-7.415384 3.015384,-3.138462 7.323077,-3.384616 l 0.676923,-0.03077 q 4.061538,0 7.107692,2.430769 1.661539,1.323077 2.676923,3.2 v 0 l 0.523077,1.076924 h -4.8 q -1.815384,-2.338462 -4.676923,-2.553847 -0.338461,-0.03077 -0.738461,-0.03077 -3.169231,0 -5.076924,2.184616 -1.692307,1.938461 -1.692307,4.553846 0,3.015384 2.276923,5.046154 1.969231,1.784615 4.584615,1.784615 2.430769,0 4.338462,-1.692308 l 0.03077,-0.03077 q 0.369231,-0.307692 0.738462,-0.707692 h 4.984615 q -1.723077,3.96923 -5.6,5.630769 -2.061539,0.892308 -4.4,0.892308 z"
         style="font-weight:bold;font-family:KerkisSans;-inkscape-font-specification:'KerkisSans Bold'"
         id="path8290" /><path
         d="m -64.921078,83.850176 q -3.630769,0 -6.153846,-2.553847 -2.369231,-2.36923 -2.369231,-5.630769 0,-3.446154 2.615384,-5.876923 2.461539,-2.307692 5.876924,-2.307692 3.846153,0 6.338461,2.646154 2.246154,2.36923 2.246154,5.661538 0,3.353846 -2.615385,5.753846 -2.492307,2.307693 -5.938461,2.307693 z m 0,-12.584616 q -2.123077,0 -3.415385,1.723077 -0.892308,1.169231 -0.892308,2.615385 0,2.338461 1.815385,3.630769 1.107692,0.830769 2.523077,0.830769 2.153846,0 3.446154,-1.753846 0.861538,-1.169231 0.861538,-2.646154 0,-2.215384 -1.753846,-3.538461 -1.138461,-0.861539 -2.584615,-0.861539 z"
         style="font-weight:bold;font-family:KerkisSans;-inkscape-font-specification:'KerkisSans Bold'"
         id="path8287" /><path
         d="m -35.013378,83.480945 v -8.553846 q 0,-2.03077 -0.676923,-2.8 -0.738462,-0.892308 -2.061539,-0.892308 -1.692307,0 -2.430769,1.353846 -0.492308,0.892308 -0.492308,3.2 v 7.692308 h -4.184615 v -8.553846 q 0,-2.061539 -0.615385,-2.8 -0.738461,-0.892308 -2.246154,-0.892308 -1.784615,0 -2.430769,1.476923 -0.369231,0.738462 -0.369231,3.076923 v 7.692308 h -4.215384 V 67.850176 h 3.876923 v 1.107692 q 1.476923,-1.476923 3.846154,-1.476923 3.076923,0 4.615384,2.246154 1.846154,-2.246154 5.015385,-2.246154 3.415385,0 5.138462,2.092308 l 0.03077,0.03077 0.307692,0.4 q 1.076923,1.692307 1.076923,4.492307 v 8.984616 z"
         style="font-weight:bold;font-family:KerkisSans;-inkscape-font-specification:'KerkisSans Bold'"
         id="path8284" /><path
         d="m -8.5210686,83.480945 v -8.553846 q 0,-2.03077 -0.6769231,-2.8 -0.7384615,-0.892308 -2.0615383,-0.892308 -1.692308,0 -2.430769,1.353846 -0.492308,0.892308 -0.492308,3.2 v 7.692308 h -4.184615 v -8.553846 q 0,-2.061539 -0.615385,-2.8 -0.738462,-0.892308 -2.246154,-0.892308 -1.784615,0 -2.430769,1.476923 -0.369231,0.738462 -0.369231,3.076923 v 7.692308 h -4.215385 V 67.850176 h 3.876924 v 1.107692 q 1.476923,-1.476923 3.846153,-1.476923 3.076923,0 4.615385,2.246154 1.846154,-2.246154 5.015385,-2.246154 3.4153842,0 5.1384611,2.092308 l 0.030769,0.03077 0.3076923,0.4 q 1.0769231,1.692307 1.0769231,4.492307 v 8.984616 z"
         style="font-weight:bold;font-family:KerkisSans;-inkscape-font-specification:'KerkisSans Bold'"
         id="path8281" /><path
         d="m 10.678933,83.480945 v -1.661539 q -1.9384613,1.938462 -5.0153844,2.03077 -3.8461538,0 -6.18461535,-2.707693 -1.90769235,-2.215384 -1.90769235,-5.415384 0,-3.907693 2.70769235,-6.276923 2.24615385,-1.969231 5.47692305,-1.969231 3.0769231,0 4.8923077,2.030769 v -1.661538 h 3.876923 V 83.480945 Z M 6.1558563,71.26556 q -2.4615384,0 -3.6615384,1.969231 -0.7076923,1.107692 -0.7076923,2.584615 0,2.492308 1.9692307,3.63077 1.0769231,0.615384 2.4615385,0.615384 2.0923077,0 3.2307692,-1.292307 1.107692,-1.261539 1.107692,-2.984616 0,-2.615384 -1.9692304,-3.846154 Q 7.5404717,71.26556 6.1558563,71.26556 Z"
         style="font-weight:bold;font-family:KerkisSans;-inkscape-font-specification:'KerkisSans Bold'"
         id="path8278" /><path
         d="m 26.986605,83.480945 v -7.630769 q 0,-2.83077 -0.707692,-3.723077 -0.646154,-0.892308 -2.092308,-0.892308 -1.692308,0 -2.584615,1.323077 -0.553847,0.861538 -0.553847,3.538461 v 7.384616 H 16.832759 V 67.850176 h 3.907692 v 1.2 q 1.815385,-1.569231 4.184615,-1.569231 3.446154,0 5.046154,2.276923 1.076923,1.538461 1.2,4.430769 0,0 0,0 0,0.430769 0,0.923077 v 8.369231 z"
         style="font-weight:bold;font-family:KerkisSans;-inkscape-font-specification:'KerkisSans Bold'"
         id="path8275" /><path
         d="m 46.125055,83.480945 v -1.661539 q -2.061539,2.03077 -4.984616,2.03077 -3.6,0 -5.96923,-2.646154 -2.092308,-2.338462 -2.092308,-5.630769 0,-3.692308 2.553846,-6.153847 2.307692,-2.215384 5.476923,-2.215384 2.830769,0 4.676923,1.6 v -6.153846 h 4.184616 V 83.480945 Z M 41.663516,70.988637 q -2.276923,0 -3.569231,1.815385 -0.8,1.138461 -0.8,2.615384 0,2.4 1.815385,3.784616 1.169231,0.861538 2.646154,0.861538 2.184615,0 3.476923,-1.815384 0.861538,-1.2 0.861538,-2.738462 0,-2.369231 -1.815384,-3.692308 -1.169231,-0.830769 -2.615385,-0.830769 z"
         style="font-weight:bold;font-family:KerkisSans;-inkscape-font-specification:'KerkisSans Bold'"
         id="path8272" /><path
         d="m 57.325034,83.850176 q -2.769231,0 -4.492308,-1.784616 l -0.36923,-0.430769 q -0.83077,-1.138462 -1.076923,-3.169231 l -0.03077,-0.246154 h 4.184616 q 0.461538,1.6 1.415384,1.784616 l 0.492308,0.06154 q 1.169231,0 1.446154,-0.892307 l 0.06154,-0.369231 q 0,-1.015385 -2.092307,-1.630769 0.09231,0.03077 -0.246154,-0.06154 l -0.03077,-0.03077 -0.153847,-0.03077 q -3.415384,-1.138462 -4.215384,-2.984616 -0.307693,-0.738461 -0.307693,-1.723077 0,-2.4 2.061539,-3.846154 1.476923,-1.015384 3.353846,-1.015384 2.584615,0 4.184615,1.753846 1.046154,1.107692 1.169231,2.984615 v 0.03077 l 0.03077,0.215384 h -4.061538 q -0.307692,-1.2 -1.323077,-1.2 -0.892308,0 -1.169231,0.738462 v 0.03077 l -0.03077,0.03077 q -0.03077,0.123077 -0.03077,0.276923 0,0.584616 1.046154,0.984616 v 0 h 0.03077 q 0,0 0.09231,0.03077 l 2.738461,0.892308 q 0.984616,0.4 1.569231,0.892307 1.538461,1.2 1.538461,3.292308 0,2.615385 -2.123076,4.246154 -1.6,1.169231 -3.661539,1.169231 z"
         style="font-weight:bold;font-family:KerkisSans;-inkscape-font-specification:'KerkisSans Bold'"
         id="path8269" /></g><path
       d="m 5.7145049,20.447972 -0.839171,-0.243497 c -0.08805,-0.02476 -0.137569,-0.116933 -0.112806,-0.204978 l 1.877816,-6.46849 c 0.02476,-0.08804 0.116934,-0.13757 0.204978,-0.112807 l 0.83917,0.243497 c 0.08805,0.02476 0.137569,0.116933 0.112807,0.204977 l -1.877816,6.468492 c -0.02614,0.08805 -0.116934,0.138944 -0.204978,0.112806 z m -1.568286,-1.543523 0.598425,-0.63832 c 0.06328,-0.06741 0.05916,-0.174713 -0.01101,-0.236618 l -1.24637,-1.096425 1.246375,-1.096424 c 0.07016,-0.06191 0.07566,-0.16921 0.01101,-0.236619 l -0.598429,-0.63832 c -0.06191,-0.06603 -0.166458,-0.07016 -0.233867,-0.0069 l -1.982368,1.857181 c -0.07016,0.06466 -0.07016,0.176088 0,0.240746 l 1.982368,1.858556 c 0.0674,0.06328 0.171961,0.06053 0.233867,-0.0068 z m 4.501255,0.0082 1.9823691,-1.858557 c 0.07016,-0.06466 0.07016,-0.176088 0,-0.240746 L 8.6474739,14.953469 c -0.06604,-0.06191 -0.170585,-0.05915 -0.233866,0.0069 l -0.598425,0.638317 c -0.06328,0.06741 -0.05916,0.174713 0.01101,0.236619 l 1.246374,1.0978 -1.246374,1.096424 c -0.07016,0.0619 -0.07566,0.16921 -0.01101,0.236619 l 0.598425,0.63832 c 0.0619,0.0674 0.166458,0.07016 0.233866,0.0082 z"
       id="path2"
       style="fill:#f2f2f2;stroke-width:0.0137568" /></g></svg>
