<?xml version="1.0" encoding="UTF-8" standalone="no"?>
<svg
   viewBox="0 0 512 512"
   version="1.1"
   id="svg1"
   sodipodi:docname="server.svg"
   xml:space="preserve"
   inkscape:version="1.3 (0e150ed6c4, 2023-07-21)"
   xmlns:inkscape="http://www.inkscape.org/namespaces/inkscape"
   xmlns:sodipodi="http://sodipodi.sourceforge.net/DTD/sodipodi-0.dtd"
   xmlns="http://www.w3.org/2000/svg"
   xmlns:svg="http://www.w3.org/2000/svg"><defs
     id="defs1" /><sodipodi:namedview
     id="namedview1"
     pagecolor="#505050"
     bordercolor="#eeeeee"
     borderopacity="1"
     inkscape:showpageshadow="0"
     inkscape:pageopacity="0"
     inkscape:pagecheckerboard="0"
     inkscape:deskcolor="#d1d1d1"
     inkscape:zoom="0.88443247"
     inkscape:cx="258.35777"
     inkscape:cy="252.70443"
     inkscape:window-width="1366"
     inkscape:window-height="694"
     inkscape:window-x="0"
     inkscape:window-y="0"
     inkscape:window-maximized="1"
     inkscape:current-layer="g3"
     showguides="false" /><!--! Font Awesome Free 6.4.0 by @fontawesome - https://fontawesome.com License - https://fontawesome.com/license/free (Icons: CC BY 4.0, Fonts: SIL OFL 1.1, Code: MIT License) Copyright 2023 Fonticons, Inc. --><g
     id="g3"
     style="fill:#f2f2f2"><g
       id="g4"
       transform="translate(0,6)"><path
         style="color:#000000;fill:#f2f2f2;-inkscape-stroke:none"
         d="m 114.26953,289.60742 v 44.99024 h 13.22852 v -31.76172 h 257.0039 v 42.95508 h 13.22852 v -56.1836 z"
         id="path6" /><path
         style="color:#000000;fill:#f2f2f2;stroke-width:1.64954;-inkscape-stroke:none"
         d="m 249.38672,231.32932 v 66.14334 h 13.22656 v -66.14334 z"
         id="path5" /></g><g
       id="g1"
       transform="translate(-10.29485,2)"
       style="fill:#71c837"><path
         d="m 471.50528,351.64522 v 15.85718 c 0,14.60183 -33.13488,26.42863 -74.00015,26.42863 -40.86528,0 -74.00017,-11.8268 -74.00017,-26.42863 v -15.85718 c 0,-14.60181 33.13489,-26.42863 74.00017,-26.42863 40.86527,0 74.00015,11.82682 74.00015,26.42863 z m -18.1036,44.4992 c 6.87143,-2.44464 13.18127,-5.58305 18.1036,-9.44823 v 33.66347 c 0,14.60182 -33.13488,26.42863 -74.00015,26.42863 -40.86528,0 -74.00017,-11.82681 -74.00017,-26.42863 v -33.66347 c 4.92234,3.89823 11.23216,7.00359 18.10361,9.44823 14.83307,5.28573 34.58847,8.35806 55.89656,8.35806 21.30808,0 41.06348,-3.07233 55.89655,-8.35806 z m -129.89672,43.40903 c 4.92234,3.89823 11.23216,7.00359 18.10361,9.44823 14.83307,5.28573 34.58847,8.35806 55.89656,8.35806 21.30808,0 41.06348,-3.07233 55.89655,-8.35806 6.87143,-2.44464 13.18127,-5.58305 18.1036,-9.44823 v 28.37774 c 0,14.60181 -33.13488,26.42863 -74.00015,26.42863 -40.86528,0 -74.00017,-11.82682 -74.00017,-26.42863 z"
         id="path1-5-5"
         style="fill:#71c837;stroke-width:0.330357" /><path
         d="m 209.08474,350.8782 v 15.85718 c 0,14.60183 -33.13488,26.42863 -74.00015,26.42863 -40.865279,0 -74.000171,-11.8268 -74.000171,-26.42863 V 350.8782 c 0,-14.60181 33.134892,-26.42863 74.000171,-26.42863 40.86527,0 74.00015,11.82682 74.00015,26.42863 z m -18.10361,44.4992 c 6.87144,-2.44464 13.18128,-5.58305 18.10361,-9.44823 v 33.66347 c 0,14.60182 -33.13488,26.42863 -74.00015,26.42863 -40.865279,0 -74.000171,-11.82681 -74.000171,-26.42863 v -33.66347 c 4.922335,3.89823 11.232162,7.00359 18.103607,9.44823 14.83307,5.28573 34.588464,8.35806 55.896564,8.35806 21.30808,0 41.06348,-3.07233 55.89654,-8.35806 z M 61.084419,438.78643 c 4.922335,3.89823 11.232162,7.00359 18.103607,9.44823 14.83307,5.28573 34.588464,8.35806 55.896564,8.35806 21.30808,0 41.06348,-3.07233 55.89654,-8.35806 6.87144,-2.44464 13.18128,-5.58305 18.10361,-9.44823 v 28.37774 c 0,14.60181 -33.13488,26.42863 -74.00015,26.42863 -40.865279,0 -74.000171,-11.82682 -74.000171,-26.42863 z"
         id="path1-5-2"
         style="fill:#71c837;stroke-width:0.330357" /></g><path
       d="m 149.56033,16.513632 c -17.14531,0 -31.08498,13.93967 -31.08498,31.08498 V 187.48103 c 0,17.14531 13.93967,31.08498 31.08498,31.08498 h 85.4837 l -5.19702,15.54249 h -33.6592 c -8.59694,0 -15.5425,6.94555 -15.5425,15.54249 0,8.59695 6.94556,15.5425 15.5425,15.5425 h 124.33992 c 8.59694,0 15.54249,-6.94555 15.54249,-15.5425 0,-8.59694 -6.94555,-15.54249 -15.54249,-15.54249 h -33.6592 l -5.19702,-15.54249 h 85.4837 c 17.14531,0 31.08498,-13.93967 31.08498,-31.08498 V 47.598612 c 0,-17.14531 -13.93967,-31.08498 -31.08498,-31.08498 z m 217.59488,31.08498 V 156.39605 H 149.56033 V 47.598612 Z"
       id="path1-7"
       style="stroke-width:0.485703" /></g></svg>
