<?xml version="1.0" encoding="UTF-8" standalone="no"?>
<svg
   viewBox="0 0 576 512"
   version="1.1"
   id="svg1"
   sodipodi:docname="ConnectDB2.svg"
   inkscape:version="1.3.2 (091e20ef0f, 2023-11-25, custom)"
   xml:space="preserve"
   xmlns:inkscape="http://www.inkscape.org/namespaces/inkscape"
   xmlns:sodipodi="http://sodipodi.sourceforge.net/DTD/sodipodi-0.dtd"
   xmlns="http://www.w3.org/2000/svg"
   xmlns:svg="http://www.w3.org/2000/svg"><defs
     id="defs1"><style
       type="text/css"
       id="current-color-scheme">
      .ColorScheme-Text {
        color:#232629;
      }
      </style></defs><sodipodi:namedview
     id="namedview1"
     pagecolor="#505050"
     bordercolor="#eeeeee"
     borderopacity="1"
     inkscape:showpageshadow="0"
     inkscape:pageopacity="0"
     inkscape:pagecheckerboard="0"
     inkscape:deskcolor="#d1d1d1"
     inkscape:zoom="0.88476562"
     inkscape:cx="676.45033"
     inkscape:cy="375.24062"
     inkscape:window-width="1920"
     inkscape:window-height="1012"
     inkscape:window-x="0"
     inkscape:window-y="0"
     inkscape:window-maximized="1"
     inkscape:current-layer="svg1" /><!--! Font Awesome Free 6.4.0 by @fontawesome - https://fontawesome.com License - https://fontawesome.com/license/free (Icons: CC BY 4.0, Fonts: SIL OFL 1.1, Code: MIT License) Copyright 2023 Fonticons, Inc. --><path
     d="M 96,0 C 78.3,0 64,14.3 64,32 v 96 h 64 V 32 C 128,14.3 113.7,0 96,0 Z m 192,0 c -17.7,0 -32,14.3 -32,32 v 96 h 64 V 32 C 320,14.3 305.7,0 288,0 Z M 32,160 c -17.7,0 -32,14.3 -32,32 0,17.7 14.3,32 32,32 v 32 c 0,77.4 55,142 128,156.8 V 480 c 0,17.7 14.3,32 32,32 17.7,0 32,-14.3 32,-32 v -67.2 c 12.3,-2.5 24.1,-6.4 35.1,-11.5 C 257,390.5 256,379.4 256,368 c 0,-80.3 53.8,-148 127.3,-169.2 0.5,-2.2 0.7,-4.5 0.7,-6.8 0,-17.7 -14.3,-32 -32,-32 z"
     id="path1"
     style="fill:#f2f2f2"
     sodipodi:nodetypes="ssccssssccsssscscsssccscsss" /><path
     id="path3"
     style="fill:#71c837;stroke-width:27.4835;stroke-dasharray:none"
     d="M 432.85742,225.7168 A 143.142,143.142 0 0 0 289.71679,368.85938 143.142,143.142 0 0 0 432.85742,512 143.142,143.142 0 0 0 576,368.85938 143.142,143.142 0 0 0 432.85742,225.7168 Z m 65.94726,62.76758 32.25391,32.60742 -98.72461,99.92578 0.0176,0.0449 -27.82227,28.12891 -0.0859,-0.0879 -0.1289,0.13086 -27.86524,-28.17188 0.0195,-0.0449 -41.8125,-42.32422 32.25196,-32.60937 37.49414,37.95117 81.33203,-82.32227 z" /><g
     id="path4"
     class="ColorScheme-Text"
     transform="translate(442.00851,-71.020256)" /></svg>
