<?xml version="1.0" encoding="UTF-8" standalone="no"?>
<!-- Created with Inkscape (http://www.inkscape.org/) -->

<svg
   width="366.95224"
   height="430.05975"
   viewBox="0 0 97.089323 113.78668"
   version="1.1"
   id="svg5"
   xml:space="preserve"
   inkscape:export-filename="./ψηφιογραφία.png"
   inkscape:export-xdpi="30.49"
   inkscape:export-ydpi="30.49"
   inkscape:version="1.2.2 (b0a8486541, 2022-12-01)"
   sodipodi:docname="DatatexIcon.svg"
   xmlns:inkscape="http://www.inkscape.org/namespaces/inkscape"
   xmlns:sodipodi="http://sodipodi.sourceforge.net/DTD/sodipodi-0.dtd"
   xmlns="http://www.w3.org/2000/svg"
   xmlns:svg="http://www.w3.org/2000/svg"><sodipodi:namedview
     id="namedview7"
     pagecolor="#505050"
     bordercolor="#ffffff"
     borderopacity="1"
     inkscape:showpageshadow="0"
     inkscape:pageopacity="0"
     inkscape:pagecheckerboard="1"
     inkscape:deskcolor="#505050"
     inkscape:document-units="mm"
     showgrid="false"
     inkscape:zoom="0.98470626"
     inkscape:cx="27.92711"
     inkscape:cy="177.21021"
     inkscape:window-width="1366"
     inkscape:window-height="694"
     inkscape:window-x="0"
     inkscape:window-y="0"
     inkscape:window-maximized="1"
     inkscape:current-layer="layer1" /><defs
     id="defs2"><rect
       x="618.3222"
       y="128.32988"
       width="507.40704"
       height="342.70807"
       id="rect3353" /></defs><g
     inkscape:label="Στρώση 1"
     inkscape:groupmode="layer"
     id="layer1"
     transform="translate(-320.95598,384.77756)"><g
       id="g919"><g
         id="g904"><g
           id="g8631-5-3"
           transform="matrix(1.2111644,0,0,1.2111644,248.72155,-485.17934)"
           style="fill:#f2f2f2;fill-opacity:1"><path
             style="color:#000000;fill:#f2f2f2;fill-opacity:1;stroke-width:0.660111"
             d="M 97.334089,91.701184 67.7275,108.91478 a 4.5376733,4.5376733 0 0 0 -2.256879,3.93659 l 0.103991,34.24717 a 4.5375989,4.5375989 0 0 0 2.280765,3.92279 l 29.711837,17.03362 a 4.5376965,4.5376965 0 0 0 4.537646,-0.0142 l 29.6066,-17.21359 a 3.445093,3.445093 0 0 0 2.26087,-2.59962 l -0.10802,-35.58414 a 4.5376082,4.5376082 0 0 0 -2.28076,-3.92279 L 101.87178,91.687033 a 4.5376904,4.5376904 0 0 0 -4.537628,0.01415 z m 4.553121,5.114912 25.26247,14.482224 a 4.5375185,4.5375185 0 0 1 2.28081,3.92275 l 0.0885,29.11841 a 4.5377363,4.5377363 0 0 1 -2.25686,3.93665 l -25.17279,14.63622 a 4.5377116,4.5377116 0 0 1 -4.537654,0.0142 L 72.289251,148.44428 a 4.5375212,4.5375212 0 0 1 -2.280795,-3.92274 l -0.08851,-29.11843 a 4.5377385,4.5377385 0 0 1 2.256851,-3.93663 L 97.349576,96.830262 a 4.53771,4.53771 0 0 1 4.537644,-0.01415 z"
             id="path28632-3-6"
             sodipodi:nodetypes="ccccccccccccccc" /></g><g
           id="path14948-5-0"
           style="fill:#f2f2f2"><path
             style="color:#000000;fill:#f2f2f2;stroke-width:2;-inkscape-stroke:none"
             d="m 369.85346,-289.59671 v -13.51887"
             id="path870" /><path
             style="color:#000000;fill:#f2f2f2;-inkscape-stroke:none"
             d="m 368.85352,-303.11523 v 13.51757 h 2 v -13.51757 z"
             id="path872" /></g><g
           id="path14948-7-6-6"
           style="fill:#f2f2f2"><path
             style="color:#000000;fill:#f2f2f2;stroke-width:2;-inkscape-stroke:none"
             d="m 336.2849,-347.3093 11.70768,6.75941"
             id="path864" /><path
             style="color:#000000;fill:#f2f2f2;-inkscape-stroke:none"
             d="m 336.78516,-348.17578 -1,1.73242 11.70703,6.75977 1,-1.73243 z"
             id="path866" /></g><g
           id="path14948-7-5-2-2"
           style="fill:#f2f2f2"><path
             style="color:#000000;fill:#f2f2f2;stroke-width:2;-inkscape-stroke:none"
             d="m 402.80913,-347.08451 -11.70768,6.75943"
             id="path858" /><path
             style="color:#000000;fill:#f2f2f2;-inkscape-stroke:none"
             d="m 402.30859,-347.95117 -11.70703,6.75976 1,1.73243 11.70703,-6.75977 z"
             id="path860" /></g><path
           d="m 358.46584,-339.17545 c 2.80066,0.90976 6.6999,1.4701 11.02973,1.4701 4.32985,0 8.22908,-0.56363 11.02974,-1.4701 2.4582,-0.79769 3.98061,-1.76348 3.98061,-2.70949 0,-0.94602 -1.51901,-1.91181 -3.98061,-2.70951 -2.80066,-0.90645 -6.69989,-1.4701 -11.02974,-1.4701 -4.32983,0 -8.22907,0.56365 -11.02973,1.4701 -5.21479,1.69428 -5.36059,3.6786 0,5.419 z m 26.04348,19.24994 c -0.8748,0.58344 -1.99032,1.09435 -3.30928,1.52286 -3.01766,0.97898 -7.15762,1.58548 -11.70447,1.58548 -4.54684,0 -8.6868,-0.6065 -11.70446,-1.58548 -1.30201,-0.42192 -2.41075,-0.92954 -3.28215,-1.49978 v 6.21338 c 0.19328,0.8801 1.66821,1.77007 3.95688,2.51171 2.80066,0.90976 6.6999,1.47012 11.02973,1.47012 4.32985,0 8.22908,-0.56365 11.02974,-1.47012 1.69871,-0.55046 2.94646,-1.18334 3.56017,-1.8294 0.5052,-0.53399 0.42384,-0.88668 0.42384,-1.52945 z m -32.1568,-21.95943 c 0,-1.93489 2.07847,-3.57641 5.43859,-4.66746 3.01766,-0.97898 7.15762,-1.58548 11.70446,-1.58548 4.54685,0 8.68681,0.6065 11.70447,1.58548 3.05836,0.99217 5.05546,2.44251 5.38773,4.15653 0.0407,0.10874 0.061,0.22745 0.061,0.3494 v 28.59145 c 0,1.98103 -3.89583,3.73462 -5.44875,4.23894 -3.01766,0.97897 -7.15763,1.58548 -11.70447,1.58548 -4.54686,0 -8.68681,-0.60651 -11.70447,-1.58548 -1.59022,-0.51752 -5.41485,-2.21177 -5.41485,-4.23894 0,-0.23733 0,-0.43511 0,-0.66255 0,-9.25907 -0.0237,-18.51488 -0.0237,-27.76737 z m 2.15644,19.00931 c 0.19328,0.88009 1.66821,1.77008 3.95688,2.51172 2.80066,0.90976 6.6999,1.47012 11.02973,1.47012 4.32985,0 8.22908,-0.56366 11.02974,-1.47012 2.4582,-0.79768 3.98061,-1.76347 3.98061,-2.70949 h 0.009 v -6.03539 c -0.87478,0.58344 -1.99709,1.09435 -3.31604,1.52285 -3.01767,0.97899 -7.15764,1.58549 -11.70448,1.58549 -4.54686,0 -8.68681,-0.6065 -11.70447,-1.58549 -1.302,-0.42191 -2.41075,-0.92953 -3.28214,-1.49977 z m 0,-9.18327 c 0.19328,0.88008 1.66821,1.77006 3.95688,2.51172 2.80066,0.90976 6.6999,1.47011 11.02973,1.47011 4.32985,0 8.22908,-0.56365 11.02974,-1.47011 2.4582,-0.79769 3.98061,-1.76348 3.98061,-2.7095 h 0.009 v -6.48037 c -0.87478,0.58342 -1.99709,1.09435 -3.31604,1.52285 -3.01767,0.97897 -7.15764,1.58549 -11.70448,1.58549 -4.54686,0 -8.68681,-0.60652 -11.70447,-1.58549 -1.30202,-0.42191 -2.41075,-0.92953 -3.28216,-1.49979 z"
           id="path2-6"
           style="fill:#f2f2f2;fill-opacity:1;stroke-width:0.334311" /></g></g></g><style
     type="text/css"
     id="style2">.st0{fill-rule:evenodd;clip-rule:evenodd;}</style></svg>
