<?xml version="1.0" encoding="utf-8"?><svg version="1.1" id="Layer_1" xmlns="http://www.w3.org/2000/svg" xmlns:xlink="http://www.w3.org/1999/xlink" x="0px" y="0px" viewBox="0 0 240 235.44" style="enable-background:new 0 0 240 235.44" xml:space="preserve"><style type="text/css">.st0{fill-rule:evenodd;clip-rule:evenodd;}</style><g><path class="st0" d="M186.92,127.93c29.32,0,53.08,23.77,53.08,53.08c0,29.32-23.77,53.08-53.08,53.08s-53.08-23.77-53.08-53.08 C133.83,151.69,157.6,127.93,186.92,127.93L186.92,127.93z M34.54,52.09c15.83,5.28,37.85,8.55,62.33,8.55 c24.47,0,46.5-3.27,62.32-8.55c13.89-4.64,22.48-10.25,22.48-15.74c0-5.49-8.59-11.11-22.48-15.74 c-15.83-5.28-37.85-8.55-62.32-8.55c-24.47,0-46.5,3.27-62.33,8.55C5.07,30.45,4.26,41.99,34.54,52.09L34.54,52.09z M12.18,93.47 c1.1,5.12,9.43,10.28,22.36,14.6c15.83,5.28,37.85,8.55,62.32,8.55c24.47,0,46.5-3.27,62.33-8.55 c13.89-4.64,22.48-10.25,22.48-15.74h0.07V54.64c-4.95,3.39-11.28,6.37-18.74,8.86c-17.05,5.69-40.44,9.21-66.14,9.21 c-25.7,0-49.09-3.52-66.14-9.21c-7.36-2.46-13.62-5.39-18.54-8.73V93.47L12.18,93.47z M217.72,175.09v11.85 c0,2.42-1.98,4.39-4.39,4.39h-16.09H176.6h-16.09c-2.42,0-4.39-1.98-4.39-4.39v-11.85c0-2.42,1.98-4.39,4.39-4.39h16.09h20.64 h16.09C215.74,170.69,217.72,172.67,217.72,175.09L217.72,175.09z M123.63,180.74c-8.49,0.86-17.48,1.32-26.76,1.32 c-25.7,0-49.09-3.52-66.14-9.21c-7.36-2.46-13.62-5.39-18.54-8.73v36.11c1.1,5.12,9.43,10.28,22.36,14.6 c15.83,5.28,37.85,8.55,62.32,8.55c14.68,0,28.48-1.18,40.58-3.26c3.04,3.79,6.51,7.23,10.34,10.24 c-14.71,3.21-32.2,5.08-50.92,5.08c-25.7,0-49.09-3.52-66.14-9.21c-8.99-3-30.6-12.86-30.6-24.65c0-1.38,0-2.54,0-3.86 C0.12,143.93,0,90.13,0,36.35C0,25.1,11.74,15.55,30.73,9.21C47.78,3.52,71.17,0,96.87,0c25.7,0,49.09,3.52,66.14,9.21 c17.28,5.77,28.56,14.2,30.45,24.15c0.23,0.63,0.35,1.31,0.35,2.02v82.74c-2.35-0.27-4.73-0.41-7.15-0.41 c-1.65,0-3.29,0.06-4.91,0.19v-7.31c-4.95,3.39-11.28,6.37-18.74,8.86c-17.05,5.69-40.44,9.21-66.14,9.21 c-25.7,0-49.09-3.52-66.14-9.21c-7.36-2.46-13.62-5.39-18.54-8.73v36.11c1.1,5.12,9.43,10.28,22.36,14.6 C50.37,166.73,72.4,170,96.87,170c9.79,0,19.19-0.52,27.96-1.49C124.04,172.47,123.63,176.56,123.63,180.74L123.63,180.74z"/></g></svg>