<?xml version="1.0" encoding="UTF-8" standalone="no"?>
<svg
   version="1.1"
   id="Layer_1"
   x="0px"
   y="0px"
   viewBox="0 0 101.15 122.88"
   style="enable-background:new 0 0 101.15 122.88"
   xml:space="preserve"
   sodipodi:docname="database-line.svg"
   inkscape:version="1.2.2 (b0a8486541, 2022-12-01)"
   xmlns:inkscape="http://www.inkscape.org/namespaces/inkscape"
   xmlns:sodipodi="http://sodipodi.sourceforge.net/DTD/sodipodi-0.dtd"
   xmlns="http://www.w3.org/2000/svg"
   xmlns:svg="http://www.w3.org/2000/svg"
   xmlns:rdf="http://www.w3.org/1999/02/22-rdf-syntax-ns#"
   xmlns:cc="http://creativecommons.org/ns#"
   xmlns:dc="http://purl.org/dc/elements/1.1/"><metadata
     id="metadata11"><rdf:RDF><cc:Work
         rdf:about=""><dc:format>image/svg+xml</dc:format><dc:type
           rdf:resource="http://purl.org/dc/dcmitype/StillImage" /></cc:Work></rdf:RDF></metadata><defs
     id="defs9" /><sodipodi:namedview
     pagecolor="#000000"
     bordercolor="#555555"
     borderopacity="1"
     objecttolerance="10"
     gridtolerance="10"
     guidetolerance="10"
     inkscape:pageopacity="0"
     inkscape:pageshadow="2"
     inkscape:window-width="1366"
     inkscape:window-height="694"
     id="namedview7"
     showgrid="false"
     inkscape:zoom="2.1484375"
     inkscape:cx="3.7236364"
     inkscape:cy="83.083636"
     inkscape:window-x="0"
     inkscape:window-y="0"
     inkscape:window-maximized="1"
     inkscape:current-layer="Layer_1"
     inkscape:showpageshadow="0"
     inkscape:pagecheckerboard="1"
     inkscape:deskcolor="#d1d1d1" /><g
     id="g4"
     transform="matrix(0.79314879,0,0,0.77106355,10.461501,14.061999)"
     style="fill:#ffffff;stroke:#ffffff;stroke-width:3.19682;stroke-dasharray:none;stroke-opacity:1"><path
       d="m 18.03,27.19 c 8.26,2.76 19.76,4.46 32.53,4.46 12.77,0 24.27,-1.71 32.53,-4.46 7.25,-2.42 11.74,-5.35 11.74,-8.22 0,-2.87 -4.48,-5.8 -11.74,-8.22 C 74.83,8 63.33,6.29 50.56,6.29 37.79,6.29 26.29,8 18.03,10.75 2.65,15.89 2.22,21.91 18.03,27.19 Z m 76.81,58.4 c -2.58,1.77 -5.87,3.32 -9.76,4.62 -8.9,2.97 -21.11,4.81 -34.52,4.81 -13.41,0 -25.62,-1.84 -34.52,-4.81 C 12.2,88.93 8.93,87.39 6.36,85.66 v 18.85 c 0.57,2.67 4.92,5.37 11.67,7.62 8.26,2.76 19.76,4.46 32.53,4.46 12.77,0 24.27,-1.71 32.53,-4.46 5.01,-1.67 8.69,-3.59 10.5,-5.55 1.49,-1.62 1.25,-2.69 1.25,-4.64 z M 0,18.97 C 0,13.1 6.13,8.12 16.04,4.81 24.94,1.84 37.15,0 50.56,0 c 13.41,0 25.62,1.84 34.52,4.81 9.02,3.01 14.91,7.41 15.89,12.61 0.12,0.33 0.18,0.69 0.18,1.06 v 86.74 c 0,6.01 -11.49,11.33 -16.07,12.86 -8.9,2.97 -21.11,4.81 -34.52,4.81 -13.41,0 -25.62,-1.84 -34.52,-4.81 -4.69,-1.57 -15.97,-6.71 -15.97,-12.86 0,-0.72 0,-1.32 0,-2.01 C 0.07,75.12 0,47.04 0,18.97 Z m 6.36,57.67 c 0.57,2.67 4.92,5.37 11.67,7.62 8.26,2.76 19.76,4.46 32.53,4.46 12.77,0 24.27,-1.71 32.53,-4.46 7.25,-2.42 11.74,-5.35 11.74,-8.22 h 0.03 V 57.73 c -2.58,1.77 -5.89,3.32 -9.78,4.62 -8.9,2.97 -21.11,4.81 -34.52,4.81 -13.41,0 -25.62,-1.84 -34.52,-4.81 C 12.2,61.07 8.93,59.53 6.36,57.8 Z m 0,-27.86 c 0.57,2.67 4.92,5.37 11.67,7.62 8.26,2.76 19.76,4.46 32.53,4.46 12.77,0 24.27,-1.71 32.53,-4.46 7.25,-2.42 11.74,-5.35 11.74,-8.22 h 0.03 V 28.52 c -2.58,1.77 -5.89,3.32 -9.78,4.62 -8.9,2.97 -21.11,4.81 -34.52,4.81 -13.41,0 -25.62,-1.84 -34.52,-4.81 C 12.2,31.86 8.93,30.32 6.36,28.59 Z"
       id="path2"
       style="fill:#ffffff;stroke:#ffffff;stroke-width:3.19682;stroke-dasharray:none;stroke-opacity:1" /></g></svg>
