<?xml version="1.0" encoding="UTF-8" standalone="no"?>
<svg
   viewBox="0 0 24 24"
   version="1.1"
   id="svg6"
   sodipodi:docname="dialog-cancel.svg"
   inkscape:version="1.2.2 (b0a8486541, 2022-12-01)"
   xmlns:inkscape="http://www.inkscape.org/namespaces/inkscape"
   xmlns:sodipodi="http://sodipodi.sourceforge.net/DTD/sodipodi-0.dtd"
   xmlns="http://www.w3.org/2000/svg"
   xmlns:svg="http://www.w3.org/2000/svg">
  <sodipodi:namedview
     id="namedview8"
     pagecolor="#505050"
     bordercolor="#ffffff"
     borderopacity="1"
     inkscape:showpageshadow="0"
     inkscape:pageopacity="0"
     inkscape:pagecheckerboard="1"
     inkscape:deskcolor="#505050"
     showgrid="false"
     inkscape:zoom="9.8333333"
     inkscape:cx="2.3389831"
     inkscape:cy="12.050847"
     inkscape:window-width="1366"
     inkscape:window-height="694"
     inkscape:window-x="0"
     inkscape:window-y="0"
     inkscape:window-maximized="1"
     inkscape:current-layer="svg6" />
  <defs
     id="defs3051">
    <style
       type="text/css"
       id="current-color-scheme">
      .ColorScheme-Text {
        color:#232629;
      }
      </style>
  </defs>
  <path
     style="fill:#f2f2f2;fill-opacity:1;stroke:none"
     d="M 12 4 C 9.972402 4 8.12868 4.756694 6.71875 6 C 6.592511 6.11132 6.46272 6.22478 6.34375 6.34375 L 6 6.71875 C 4.756694 8.12868 4 9.972402 4 12 C 4 16.41828 7.58172 20 12 20 C 14.027598 20 15.87132 19.243306 17.28125 18 L 17.65625 17.65625 C 17.77522 17.53728 17.88868 17.407489 18 17.28125 C 19.243306 15.87132 20 14.027598 20 12 C 20 7.58172 16.41828 4 12 4 z M 12 5 C 15.86599 5 19 8.13401 19 12 C 19 13.75366 18.346785 15.334268 17.28125 16.5625 L 7.4375 6.71875 C 8.665731 5.653215 10.24634 5 12 5 z M 6.71875 7.4375 L 16.5625 17.28125 C 15.334268 18.346785 13.75366 19 12 19 C 8.13401 19 5 15.86599 5 12 C 5 10.24634 5.653215 8.665731 6.71875 7.4375 z "
     class="ColorScheme-Text"
     id="path4" />
</svg>
