<?xml version="1.0" encoding="UTF-8" standalone="no"?>
<svg
   viewBox="0 0 576 512"
   version="1.1"
   id="svg1"
   sodipodi:docname="DisconnectDB.svg"
   inkscape:version="1.3.2 (091e20ef0f, 2023-11-25, custom)"
   xmlns:inkscape="http://www.inkscape.org/namespaces/inkscape"
   xmlns:sodipodi="http://sodipodi.sourceforge.net/DTD/sodipodi-0.dtd"
   xmlns="http://www.w3.org/2000/svg"
   xmlns:svg="http://www.w3.org/2000/svg">
  <defs
     id="defs1" />
  <sodipodi:namedview
     id="namedview1"
     pagecolor="#505050"
     bordercolor="#eeeeee"
     borderopacity="1"
     inkscape:showpageshadow="0"
     inkscape:pageopacity="0"
     inkscape:pagecheckerboard="0"
     inkscape:deskcolor="#d1d1d1"
     inkscape:zoom="1.5590278"
     inkscape:cx="484.59688"
     inkscape:cy="301.46993"
     inkscape:window-width="1920"
     inkscape:window-height="1012"
     inkscape:window-x="0"
     inkscape:window-y="0"
     inkscape:window-maximized="1"
     inkscape:current-layer="svg1" />
  <!--! Font Awesome Free 6.4.0 by @fontawesome - https://fontawesome.com License - https://fontawesome.com/license/free (Icons: CC BY 4.0, Fonts: SIL OFL 1.1, Code: MIT License) Copyright 2023 Fonticons, Inc. -->
  <path
     d="M 96,0 C 78.3,0 64,14.3 64,32 v 96 h 64 V 32 C 128,14.3 113.7,0 96,0 Z m 192,0 c -17.7,0 -32,14.3 -32,32 v 96 h 64 V 32 C 320,14.3 305.7,0 288,0 Z M 32,160 c -17.7,0 -32,14.3 -32,32 0,17.7 14.3,32 32,32 v 32 c 0,77.4 55,142 128,156.8 V 480 c 0,17.7 14.3,32 32,32 17.7,0 32,-14.3 32,-32 v -67.2 c 12.3,-2.5 24.1,-6.4 35.1,-11.5 C 257,390.5 256,379.4 256,368 c 0,-80.3 53.8,-148 127.3,-169.2 0.5,-2.2 0.7,-4.5 0.7,-6.8 0,-17.7 -14.3,-32 -32,-32 z"
     id="path1"
     style="fill:#f2f2f2"
     sodipodi:nodetypes="ssccssssccsssscscsssccscsss" />
  <path
     id="path2"
     style="fill:#ff2a2a;stroke-width:87.2743;stroke-linecap:round;stroke-linejoin:round;stroke-miterlimit:14.9;paint-order:markers fill stroke"
     d="m 436.66797,224.9668 c -29.36292,-0.98642 -58.93101,6.98527 -84.12109,24.07226 -73.35216,49.75639 -85.4635,151.91799 -25.5586,215.58594 5.92062,6.29253 14.00166,13.91502 17.95899,16.9375 20.76018,15.85603 46.11352,26.08655 71.80859,28.97852 20.32467,2.28751 46.72811,-1.20632 66.23828,-8.76758 42.75092,-16.56834 75.02706,-52.2472 87.32422,-96.5293 4.53215,-16.32032 5.74759,-46.23609 2.56641,-63.12305 -6.40934,-34.02324 -26.32324,-66.6865 -53.33008,-87.4707 -24.36592,-18.75177 -53.52381,-28.69718 -82.88672,-29.68359 z m -95.4043,116.73437 h 180.93945 v 52.71485 H 341.26367 Z"
     sodipodi:nodetypes="ssssssssssccccc" />
</svg>
