<?xml version="1.0" encoding="UTF-8" standalone="no"?>
<svg
   viewBox="0 0 512 512"
   version="1.1"
   id="svg1"
   sodipodi:docname="DisconnectAllDB.svg"
   xml:space="preserve"
   inkscape:version="1.3 (0e150ed6c4, 2023-07-21)"
   xmlns:inkscape="http://www.inkscape.org/namespaces/inkscape"
   xmlns:sodipodi="http://sodipodi.sourceforge.net/DTD/sodipodi-0.dtd"
   xmlns="http://www.w3.org/2000/svg"
   xmlns:svg="http://www.w3.org/2000/svg"><defs
     id="defs1" /><sodipodi:namedview
     id="namedview1"
     pagecolor="#505050"
     bordercolor="#eeeeee"
     borderopacity="1"
     inkscape:showpageshadow="0"
     inkscape:pageopacity="0"
     inkscape:pagecheckerboard="0"
     inkscape:deskcolor="#d1d1d1"
     inkscape:zoom="0.89197561"
     inkscape:cx="202.35979"
     inkscape:cy="343.61926"
     inkscape:window-width="1366"
     inkscape:window-height="694"
     inkscape:window-x="0"
     inkscape:window-y="0"
     inkscape:window-maximized="1"
     inkscape:current-layer="svg1"
     showguides="false" /><!--! Font Awesome Free 6.4.0 by @fontawesome - https://fontawesome.com License - https://fontawesome.com/license/free (Icons: CC BY 4.0, Fonts: SIL OFL 1.1, Code: MIT License) Copyright 2023 Fonticons, Inc. --><path
     style="color:#000000;fill:#ff2a2a;-inkscape-stroke:none"
     d="M 455.76758,29.505859 29.505859,455.76758 56.232422,482.49414 482.49414,56.232422 Z"
     id="path7" /><path
     id="path6"
     style="color:#000000;fill:#f2f2f2;-inkscape-stroke:none"
     d="m 149.56055,16.513672 c -17.14528,0 -31.08594,13.938725 -31.08594,31.083984 V 187.48047 c 0,17.14525 13.94066,31.08594 31.08594,31.08594 h 85.48437 l -5.16601,15.44921 77.61914,-77.61914 H 149.56055 V 47.597656 H 367.1543 V 96.740234 L 398.24023,65.654297 V 47.597656 c 0,-17.145259 -13.94068,-31.083984 -31.08593,-31.083984 z m 248.67968,145.351558 -56.70117,56.70118 h 25.61524 c 17.14525,0 31.08593,-13.94069 31.08593,-31.08594 z M 196.1875,234.10938 c -8.59691,0 -15.54297,6.9441 -15.54297,15.54101 0,8.59692 6.94606,15.54297 15.54297,15.54297 h 2.51367 l 31.08399,-31.08398 z m 129.01758,0.79101 -30.29297,30.29297 h 25.61523 c 8.59694,0 15.54297,-6.94605 15.54297,-15.54297 0,-6.95488 -4.57682,-12.76016 -10.86523,-14.75 z m -68.57227,68.57227 -5.36328,5.36328 h 133.23242 v 18.42968 c -39.60007,0.51302 -71.29101,12.1039 -71.29101,26.37891 v 15.85742 c 0,14.6018 33.13484,26.42969 74,26.42969 40.86515,0 74,-11.82789 74,-26.42969 v -15.85742 c 0,-13.32213 -27.61077,-24.30304 -63.48047,-26.13086 V 295.60742 H 264.49805 l -1.88477,1.88477 z m -142.36328,-7.86524 v 31.13867 c -35.869718,1.82782 -63.480468,12.81068 -63.480468,26.13282 v 15.85742 c 0,7.81625 9.675331,14.76424 24.767579,19.60156 l 61.384769,-61.38477 c -3.1198,-0.18556 -6.20476,-0.41312 -9.44336,-0.45507 v -17.66211 h 27.56054 l 13.22852,-13.22852 z m 84.51953,65.70899 -27.96094,27.96093 c 16.91468,-4.84222 27.96094,-12.19259 27.96094,-20.54101 z M 50.789062,387.92969 v 25.17578 L 67.183594,396.71094 C 60.98805,394.37042 55.29362,391.49705 50.789062,387.92969 Z m 147.999998,0 c -4.9223,3.86515 -11.2321,7.00265 -18.10351,9.44726 -6.93992,2.47303 -15.03145,4.40789 -23.78125,5.82422 l -44.37891,44.37891 c 4.00994,0.24015 8.06276,0.4414 12.26367,0.4414 40.86515,0 74,-11.82792 74,-26.42968 z m 114.42188,0.76562 v 33.66407 c 0,14.60176 33.13484,26.42968 74,26.42968 40.86515,0 74,-11.82792 74,-26.42968 v -33.66407 c -4.92233,3.86518 -11.23209,7.00458 -18.10352,9.44922 -14.83301,5.28573 -34.58846,8.35742 -55.89648,8.35742 -21.30803,0 -41.06345,-3.07169 -55.89649,-8.35742 -6.87142,-2.44464 -13.1812,-5.55099 -18.10351,-9.44922 z m -114.42188,52.0918 c -4.9223,3.86518 -11.2321,7.00263 -18.10351,9.44727 -14.83303,5.2857 -34.58847,8.35742 -55.89649,8.35742 -7.62879,0 -14.92975,-0.52144 -22.00586,-1.26953 l -30.472653,30.47265 c 13.404417,4.81627 31.963463,7.79883 52.478513,7.79883 40.86515,0 74,-11.82791 74,-26.42969 z m 114.42188,0.76562 v 28.37891 c 0,14.60178 33.13484,26.42774 74,26.42774 40.86515,0 74,-11.82596 74,-26.42774 v -28.37891 c -4.92233,3.86518 -11.23209,7.00461 -18.10352,9.44922 -14.83301,5.28573 -34.58846,8.35742 -55.89648,8.35743 -21.30803,-10e-6 -41.06345,-3.0717 -55.89649,-8.35743 -6.87142,-2.44461 -13.1812,-5.55099 -18.10351,-9.44922 z"
     sodipodi:nodetypes="ssssccccccccsssccsscsssccsccsscccccssssscccccccsscccccccccscccccccccssccsssccsccccsccssccsssccscc" /><g
     id="g1"
     transform="translate(-10.29485,2)"
     style="fill:#ff2a2a" /><path
     style="fill:#ff0000;stroke:#ff2a2a;stroke-width:1;stroke-linecap:round;stroke-linejoin:round;stroke-miterlimit:14.9;paint-order:markers fill stroke;stroke-dasharray:none"
     d="m 68.644326,384.98471 c -8.823863,-3.63743 -15.050551,-8.76348 -16.693988,-13.74315 -2.08909,-6.33 -0.880048,-20.76046 2.08871,-24.9297 6.138687,-8.62099 32.100581,-17.26482 56.201142,-18.71178 l 4.52267,-0.27153 0.31457,-15.54669 0.31458,-15.54669 h 25.65218 25.65218 l -6.14143,6.21867 -6.14143,6.21868 h -13.88932 -13.88931 v 9.04535 9.04535 h 3.95734 c 2.17654,0 3.95734,0.3852 3.95734,0.856 0,0.4708 -13.35602,14.1777 -29.68005,30.45978 l -29.68005,29.60378 z"
     id="path1" /><path
     style="fill:#ff0000;stroke:#ff2a2a;stroke-width:1.12111;stroke-linecap:round;stroke-linejoin:round;stroke-miterlimit:14.9;stroke-dasharray:none;paint-order:markers fill stroke"
     d="m 134.80694,425.86069 21.57514,-21.70166 12.32154,-2.96951 c 10.16751,-2.45038 16.70393,-4.94378 28.33092,-10.80715 1.52079,-0.76692 0.89599,33.71409 -0.66175,36.52023 -2.32321,4.18506 -11.61131,10.03192 -20.79472,13.09028 -13.7597,4.5824 -24.11446,6.2152 -43.84801,6.91421 l -18.49826,0.65525 z"
     id="path2" /><path
     style="fill:#ff0000;stroke:#ff2a2a;stroke-width:1.12111;stroke-linecap:round;stroke-linejoin:round;stroke-miterlimit:14.9;stroke-dasharray:none;paint-order:markers fill stroke"
     d="m 109.30792,494.42086 c -11.321559,-0.90499 -20.303575,-2.45687 -30.170559,-5.21274 l -6.066762,-1.69447 14.736617,-14.77074 14.736614,-14.77075 10.94952,0.56784 c 28.5992,1.48315 56.98709,-2.71963 74.82179,-11.07726 l 9.56023,-4.48007 v 15.23581 15.2358 l -4.30372,4.09403 c -13.02407,12.3895 -49.35063,19.66335 -84.26373,16.87255 z"
     id="path3" /><path
     style="fill:#ff0000;stroke:#ff2a2a;stroke-width:1.12111;stroke-linecap:round;stroke-linejoin:round;stroke-miterlimit:14.9;stroke-dasharray:none;paint-order:markers fill stroke"
     d="m 51.010363,400.36451 v -11.08173 l 7.400914,3.92991 7.400914,3.9299 -7.08825,7.15182 c -3.898538,3.9335 -7.228949,7.15182 -7.400914,7.15182 -0.171965,0 -0.312664,-4.98678 -0.312664,-11.08172 z"
     id="path4" /><path
     style="fill:#ff0000;stroke:#ff2a2a;stroke-width:1.12111;stroke-linecap:round;stroke-linejoin:round;stroke-miterlimit:14.9;stroke-dasharray:none;paint-order:markers fill stroke"
     d="m 185.54319,375.01025 c 6.45236,-6.47439 11.8667,-11.77162 12.03187,-11.77162 0.16517,0 0.30031,2.00044 0.30031,4.44542 0,3.36085 -0.83765,5.39945 -3.43336,8.3558 -3.399,3.87123 -15.46701,10.74203 -18.86754,10.74203 -0.97011,0 3.51269,-5.29355 9.96872,-11.77163 z"
     id="path5" /><path
     style="fill:#ff0000;stroke:#ff2a2a;stroke-width:1.12111;stroke-linecap:round;stroke-linejoin:round;stroke-miterlimit:14.9;stroke-dasharray:none;paint-order:markers fill stroke"
     d=""
     id="path8" /><path
     style="fill:#ff0000;stroke:#ff2a2a;stroke-width:1.12111;stroke-linecap:round;stroke-linejoin:round;stroke-miterlimit:14.9;stroke-dasharray:none;paint-order:markers fill stroke"
     d="m 375.01025,395.02456 c -29.85351,-2.79474 -48.33521,-8.52716 -57.17645,-17.73425 l -3.92387,-4.08625 v -11.61904 c 0,-13.16243 0.7195,-14.57879 10.65051,-20.96572 9.04697,-5.81839 34.15552,-12.11813 48.34774,-12.13047 2.85181,-0.002 6.76168,-0.31982 8.68858,-0.7052 l 3.50346,-0.70069 v -9.38928 -9.38927 h -66.38729 -66.38729 l 6.0895,-6.16608 6.08949,-6.16609 h 66.46388 66.46388 v 16.08988 16.08988 l 8.68858,0.68158 c 21.09077,1.65446 41.07443,8.09306 49.15781,15.8383 l 4.9356,4.72914 v 12.15597 12.15598 l -4.9356,4.72913 c -11.90268,11.40477 -50.46925,19.37215 -80.26853,16.58248 z"
     id="path9" /><path
     style="fill:#ff0000;stroke:#ff2a2a;stroke-width:1.12111;stroke-linecap:round;stroke-linejoin:round;stroke-miterlimit:14.9;stroke-dasharray:none;paint-order:markers fill stroke"
     d="m 367.72306,447.33405 c -26.80052,-2.88562 -48.12748,-11.29216 -52.6095,-20.73731 -1.35346,-2.85221 -1.76418,-7.5123 -1.76418,-20.01642 v -16.29867 l 8.68857,4.36466 c 32.89252,16.52338 99.55636,16.25754 131.16951,-0.52307 l 7.00692,-3.71935 v 17.76935 17.76936 l -3.54268,4.03488 c -5.98139,6.81244 -19.78825,12.43132 -38.49883,15.6676 -12.31338,2.12979 -38.28134,2.99915 -50.44981,1.68897 z"
     id="path10" /><path
     id="path11"
     style="fill:#ff0000;stroke:#ff0000;stroke-width:1.12111;stroke-linecap:round;stroke-linejoin:round;stroke-miterlimit:14.9;stroke-dasharray:none;paint-order:markers fill stroke"
     d="M 264.48828 297.09375 L 259.53711 302.13867 L 254.58594 307.18359 L 320.40234 307.18359 L 386.2207 307.18359 L 386.2207 317.74414 L 386.2207 328.30664 L 378.6543 328.94531 C 354.46068 330.98779 337.95324 334.85943 326.32031 341.2207 C 316.60998 346.53065 315.51377 348.48009 314.7832 361.73828 L 314.16797 372.89453 L 319.04297 377.06641 C 328.26924 384.96376 342.29263 389.77965 364.91992 392.81836 C 387.47827 395.84781 411.46574 394.27366 431.57812 388.44531 C 443.3862 385.02347 448.82573 382.34527 454.66016 377.07422 L 459.09375 373.06836 L 459.09375 361.6543 L 459.09375 350.24023 L 454.88867 346.20703 C 446.14383 337.81916 428.65281 332.04924 405.2793 329.83984 L 396.87109 329.04492 L 396.56055 313.06836 L 396.25 297.09375 L 330.36914 297.09375 L 264.48828 297.09375 z M 313.34961 443.07812 L 313.34961 456.44727 C 313.34961 471.73432 314.54794 475.8505 320.23828 480.11914 C 328.79875 486.54082 345.27644 492.09955 362.11719 494.24609 C 373.34097 495.6767 399.78328 495.73273 410.91602 494.34961 C 431.36628 491.8089 448.74265 485.62454 456.09375 478.27344 L 460.21484 474.1543 L 460.21484 458.96289 C 460.21484 450.60785 459.8355 443.93899 459.37305 444.14453 C 458.91059 444.35007 455.25405 446.12358 451.24609 448.08398 C 419.02225 463.84563 353.79537 463.53651 322.03711 447.47266 L 313.34961 443.07812 z " /><path
     id="path12"
     style="fill:#ff0000;stroke:#ff0000;stroke-width:1.12111;stroke-linecap:round;stroke-linejoin:round;stroke-miterlimit:14.9;stroke-dasharray:none;paint-order:markers fill stroke"
     d="M 116.03516 297.09375 L 116.03516 312.56445 L 116.03516 328.03516 L 103.76367 329.39844 C 82.340411 331.78061 60.319451 339.63734 55.033203 346.7832 C 53.032186 349.48816 52.691406 351.54911 52.691406 361 C 52.691406 371.73945 52.787075 372.15758 56.054688 375.63477 C 57.904506 377.6032 62.94938 380.9442 67.265625 383.06055 L 75.113281 386.9082 L 104.1875 357.41602 C 132.53638 328.65904 133.17316 327.91482 129.69336 327.57227 L 126.125 327.2207 L 126.125 317.20312 L 126.125 307.18359 L 140.46484 307.18359 L 154.80664 307.18359 L 159.75781 302.13867 L 164.70898 297.09375 L 140.37109 297.09375 L 116.03516 297.09375 z M 264.48828 297.09375 L 264.41797 297.16602 L 263.46094 297.16602 L 259.33398 301.99609 L 257.0293 304.69141 L 254.60352 307.16406 L 275.32812 307.25586 L 289.60352 307.5625 C 308.52136 307.96831 337.74833 308.30173 354.55078 308.30273 L 385.09961 308.30469 L 385.09961 317.8125 C 385.09961 328.85311 386.85205 327.645 368.0332 329.58203 C 353.46241 331.08181 339.93603 334.36129 330.18945 338.75586 C 322.71626 342.1254 318.65585 344.97028 316.54297 349.57812 C 316.1631 350.30605 315.8459 351.0437 315.63672 351.79688 C 315.575 352.01904 315.52211 352.40438 315.46289 352.6875 C 314.72867 355.61559 314.4707 359.18962 314.4707 363.7793 C 314.4707 364.0539 314.47829 364.16647 314.47852 364.42578 C 314.47846 364.45292 314.47658 364.48269 314.47656 364.50977 C 314.4754 366.10234 314.49724 367.15914 314.52539 368.24023 C 314.53378 368.54052 314.52861 369.03221 314.54102 369.30273 C 314.55817 369.65547 314.59069 369.97786 314.61914 370.2832 C 314.88902 373.57486 315.68424 374.49812 318.11328 376.77539 C 319.8473 378.40106 322.08677 379.97465 324.70508 381.47656 C 325.84522 382.23184 326.94909 382.92061 327.83594 383.37305 C 329.75712 384.35316 332.48645 385.40453 335.625 386.44727 C 343.93945 389.52571 354.0155 392.00471 364.91992 393.48828 C 367.74718 393.87293 371.94318 394.09765 376.80273 394.1875 C 376.80829 394.1876 376.81476 394.1874 376.82031 394.1875 C 388.09797 394.84496 399.34726 394.44314 409.8457 393.10547 C 413.82755 392.76106 417.34047 392.35927 419.70117 391.88672 C 433.02143 389.22033 446.4033 384.09657 452.92773 379.16211 L 458.5332 374.92188 L 458.53906 374.69922 L 459.09375 374.26172 L 459.09375 361.55664 L 459.09375 348.85352 L 456.74609 347.00391 C 455.50234 345.60006 453.63787 344.30923 450.71094 342.33008 C 444.72783 338.28446 436.18967 335.10743 424.50781 332.57617 C 421.23772 331.82002 417.91856 331.18001 414.5625 330.71289 C 410.91569 330.11558 407.109 329.54682 402.94727 329.03516 L 398.59961 328.5 C 398.29384 328.28664 397.99827 326.98201 397.71875 325.14453 L 397.62695 321.99805 C 397.52452 318.47464 397.12757 311.42875 396.74414 306.3418 L 396.04688 297.09375 L 395.96484 297.09375 L 330.22656 297.09375 L 264.48828 297.09375 z M 52.130859 391.22852 L 52.130859 400.45898 L 52.130859 409.6875 L 58.269531 403.625 C 61.645619 400.29085 64.295148 397.46963 64.15625 397.35352 C 64.017353 397.23742 61.254768 395.81163 58.017578 394.18555 L 52.130859 391.22852 z M 459.09375 392.34961 L 453.76758 395.01562 C 420.29535 411.77429 354.69615 412.07724 322.07031 395.62305 C 318.54246 393.84381 315.38838 392.38672 315.0625 392.38672 C 313.9705 392.38672 314.46838 419.80307 315.63672 424.00977 C 316.34052 426.54381 318.41464 429.5053 320.95508 431.60156 C 328.67134 437.96874 349.4902 444.40332 368.1582 446.19141 C 380.72912 447.39554 382.97978 447.39361 400.99414 446.16797 C 427.22578 444.38326 445.44601 438.795 454.88867 429.64062 L 459.09375 425.56641 L 459.09375 408.95703 L 459.09375 392.34961 z M 195.72461 392.64258 C 195.65277 392.64972 195.57646 392.6722 195.49609 392.70703 C 186.03034 396.8099 175.23787 400.53807 166.99609 402.55273 C 157.09 404.97426 156.83783 405.12266 148.18359 413.55273 C 143.35921 418.25219 134.34731 427.5199 128.1582 434.14844 L 116.90625 446.20117 L 123.47656 446.18359 C 136.1056 446.14948 157.02767 443.93137 165.92383 441.68359 C 176.5356 439.00237 189.53833 432.92447 193.35547 428.86133 C 195.93687 426.11355 196.10355 425.08682 196.56055 409 C 196.93652 395.76548 196.80225 392.53538 195.72461 392.64258 z M 313.05078 443.76953 L 313.875 457.5957 C 314.35059 465.56393 315.35682 472.69075 316.25 474.41797 C 320.16801 481.99452 337.68558 489.58913 359.48633 493.16211 C 373.52302 495.46262 403.75992 495.23133 417.48633 492.71875 C 434.96488 489.51934 446.90227 484.87222 455.44922 477.94141 C 460.79704 473.60476 460.9245 472.86759 459.49023 454.44531 L 458.7793 445.31445 L 451.36914 448.65039 C 439.38765 454.04523 415.95668 459.36826 403.59766 459.50391 C 373.71363 459.83192 366.6691 459.53933 354.49805 457.45508 C 340.27044 455.01866 327.83672 451.26188 318.74023 446.65234 L 313.05078 443.76953 z M 196.34961 445.08008 C 196.12659 445.08008 192.72033 446.52973 188.78125 448.30273 C 171.66913 456.005 156.03306 458.74467 126.125 459.2793 L 102.02148 459.71094 L 88.617188 473.0918 C 81.245155 480.45153 75.491369 486.74918 75.830078 487.08789 C 77.214487 488.4723 98.284034 492.3916 108.74805 493.21094 C 114.91413 493.69375 120.96795 494.14886 122.20117 494.22266 C 127.58808 494.54494 152.12551 492.08991 160.31836 490.4082 C 173.62058 487.67772 185.63842 482.70108 191.59375 477.45898 L 196.75391 472.91602 L 196.75391 458.99805 C 196.75391 451.34285 196.57262 445.08008 196.34961 445.08008 z " /></svg>
