<?xml version="1.0" encoding="UTF-8" standalone="no"?>
<svg
   viewBox="0 0 448 512"
   version="1.1"
   id="svg1"
   sodipodi:docname="floppy-diskAs.svg"
   inkscape:version="1.3 (0e150ed6c4, 2023-07-21)"
   xml:space="preserve"
   xmlns:inkscape="http://www.inkscape.org/namespaces/inkscape"
   xmlns:sodipodi="http://sodipodi.sourceforge.net/DTD/sodipodi-0.dtd"
   xmlns="http://www.w3.org/2000/svg"
   xmlns:svg="http://www.w3.org/2000/svg"><defs
     id="defs1"><style
       type="text/css"
       id="current-color-scheme">&#10;      .ColorScheme-Text {&#10;        color:#232629;&#10;      }&#10;      </style></defs><sodipodi:namedview
     id="namedview1"
     pagecolor="#505050"
     bordercolor="#eeeeee"
     borderopacity="1"
     inkscape:showpageshadow="0"
     inkscape:pageopacity="0"
     inkscape:pagecheckerboard="0"
     inkscape:deskcolor="#d1d1d1"
     inkscape:zoom="0.63095958"
     inkscape:cx="236.14825"
     inkscape:cy="287.65709"
     inkscape:window-width="1366"
     inkscape:window-height="694"
     inkscape:window-x="0"
     inkscape:window-y="0"
     inkscape:window-maximized="1"
     inkscape:current-layer="svg1" /><!--! Font Awesome Free 6.4.0 by @fontawesome - https://fontawesome.com License - https://fontawesome.com/license/free (Icons: CC BY 4.0, Fonts: SIL OFL 1.1, Code: MIT License) Copyright 2023 Fonticons, Inc. --><path
     id="path1"
     style="fill:#f2f2f2;stroke-width:0.723214"
     d="M 108.28516 94 C 82.755722 94 62 114.75572 62 140.28516 L 62 371.71484 C 62 397.24428 82.755722 418 108.28516 418 L 199.87109 418 L 199.87109 394.54688 L 204.22852 394.54688 L 227.52539 371.25 A 46.285715 46.285715 0 0 1 224 371.71484 A 46.286133 46.286133 0 0 1 224 279.14258 A 46.285715 46.285715 0 0 1 269.82227 328.95312 L 363.91211 234.86133 L 369.10352 240.05078 L 374.29492 234.85938 L 369.12891 229.69336 L 369.15625 229.66602 L 386 246.50977 L 386 196.18945 C 386 183.89483 381.15512 172.1063 372.47656 163.42773 L 316.57227 107.52344 C 307.8937 98.844872 296.10517 94 283.81055 94 L 108.28516 94 z M 131.42773 140.28516 L 270.28516 140.28516 C 283.08604 140.28516 293.42773 150.62686 293.42773 163.42773 L 293.42773 209.71484 C 293.42773 222.51572 283.08604 232.85742 270.28516 232.85742 L 131.42773 232.85742 C 118.62686 232.85742 108.28516 222.51572 108.28516 209.71484 L 108.28516 163.42773 C 108.28516 150.62686 118.62686 140.28516 131.42773 140.28516 z M 369.15625 250.43555 L 369.12891 250.46289 L 369.10547 250.43945 L 337.79297 281.75195 L 342.13867 286.09766 L 347.33203 280.9043 L 386 319.57227 L 386 267.2793 L 369.15625 250.43555 z M 342.13867 296.48438 L 255.04297 383.58008 L 255.04297 388.49805 L 255.04297 394.64844 L 261.19531 394.64844 L 282.0332 394.64844 L 282.0332 405.71875 L 366.70312 321.04883 L 342.13867 296.48438 z M 386 341.60938 L 309.60742 418 L 339.71484 418 C 365.24428 418 386 397.24428 386 371.71484 L 386 341.60938 z M 240.35547 379.18945 L 229.85938 389.68555 L 234.20703 394.0332 L 240.35547 394.0332 L 240.35547 388.49805 L 240.35547 379.18945 z " /><g
     id="path2"
     class="ColorScheme-Text"
     transform="translate(-240)"
     style="stroke-width:1;stroke-dasharray:none"><path
       style="color:#232629;fill:#f2f2f2;stroke-width:1;stroke-dasharray:none"
       d="M 609.10549,240.05374 447.2694,401.88983 h -0.054 v 54.0859 h 13.49513 26.99025 13.60051 v -0.054 l 161.83596,-161.8361 -0.027,-0.027 0.027,-0.027 -53.98049,-53.98051 -0.027,0.027 -0.027,-0.027 m -26.9638,46.04685 34.95021,34.95022 -102.39952,102.39951 v -21.45502 h -13.49507 -13.49511 v -13.49511 -7.96012 L 582.13909,286.0981 M 474.20432,394.03256 v 21.45524 h 13.49513 13.49512 v 13.49513 7.95996 l -5.53381,5.53501 H 474.20553 L 460.7104,428.98277 v -21.4552 l 13.49513,-13.49513"
       id="path3" /></g></svg>
