<?xml version="1.0" encoding="UTF-8" standalone="no"?>
<svg
   viewBox="0 0 24 24"
   version="1.1"
   id="svg6"
   sodipodi:docname="document-edit-sign.svg"
   inkscape:version="1.2.2 (b0a8486541, 2022-12-01)"
   xmlns:inkscape="http://www.inkscape.org/namespaces/inkscape"
   xmlns:sodipodi="http://sodipodi.sourceforge.net/DTD/sodipodi-0.dtd"
   xmlns="http://www.w3.org/2000/svg"
   xmlns:svg="http://www.w3.org/2000/svg">
  <sodipodi:namedview
     id="namedview8"
     pagecolor="#505050"
     bordercolor="#ffffff"
     borderopacity="1"
     inkscape:showpageshadow="0"
     inkscape:pageopacity="0"
     inkscape:pagecheckerboard="1"
     inkscape:deskcolor="#505050"
     showgrid="false"
     inkscape:zoom="9.8333333"
     inkscape:cx="2.3389831"
     inkscape:cy="12.050847"
     inkscape:window-width="1366"
     inkscape:window-height="694"
     inkscape:window-x="0"
     inkscape:window-y="0"
     inkscape:window-maximized="1"
     inkscape:current-layer="svg6" />
  <defs
     id="defs3051">
    <style
       type="text/css"
       id="current-color-scheme">
      .ColorScheme-Text {
        color:#232629;
      }
      </style>
  </defs>
  <path
     style="fill:#f2f2f2;fill-opacity:1;stroke:none"
     d="M 5 4 L 5 5 L 5 19 L 5 20 L 10 20 L 10 19 L 6 19 L 6 5 L 18 5 L 18 12 L 19 12 L 19 4 L 5 4 z M 17 12 L 16.003906 12.994141 L 16 12.994141 L 11 17.988281 L 11.007812 17.990234 L 11.003906 18.992188 L 11 18.992188 L 11 19.982422 L 13 19.982422 L 13.005859 19.982422 L 13.009766 19.982422 L 13.019531 19.982422 L 13.013672 19.980469 L 14 18.994141 L 18 15.001953 L 17.294922 14.292969 L 12.304688 19.275391 L 11.710938 18.683594 L 16.703125 13.699219 L 17.294922 14.292969 L 18 14.996094 L 19 13.996094 L 17 12 z "
     class="ColorScheme-Text"
     id="path4" />
</svg>
