<?xml version="1.0" encoding="UTF-8" standalone="no"?>
<svg
   viewBox="0 0 24 24"
   width="24"
   height="24"
   version="1.1"
   id="svg8"
   sodipodi:docname="document-encrypted.svg"
   inkscape:version="1.2.2 (b0a8486541, 2022-12-01)"
   xmlns:inkscape="http://www.inkscape.org/namespaces/inkscape"
   xmlns:sodipodi="http://sodipodi.sourceforge.net/DTD/sodipodi-0.dtd"
   xmlns="http://www.w3.org/2000/svg"
   xmlns:svg="http://www.w3.org/2000/svg">
  <sodipodi:namedview
     id="namedview10"
     pagecolor="#505050"
     bordercolor="#ffffff"
     borderopacity="1"
     inkscape:showpageshadow="0"
     inkscape:pageopacity="0"
     inkscape:pagecheckerboard="1"
     inkscape:deskcolor="#505050"
     showgrid="false"
     inkscape:zoom="9.8333333"
     inkscape:cx="2.3389831"
     inkscape:cy="12.050847"
     inkscape:window-width="1366"
     inkscape:window-height="694"
     inkscape:window-x="0"
     inkscape:window-y="0"
     inkscape:window-maximized="1"
     inkscape:current-layer="svg8" />
  <defs
     id="defs3051">
    <style
       type="text/css"
       id="current-color-scheme">
      .ColorScheme-Text {
        color:#232629;
      }
      </style>
  </defs>
  <g
     transform="translate(1,1)"
     id="g6"
     style="fill:#f2f2f2">
    <path
       style="fill:#f2f2f2;fill-opacity:1;stroke:none"
       d="M 11,3 C 8.784,3 7,4.784 7,7 l 0,4 -2,0 c 0,2.666667 0,5.333333 0,8 4,0 8,0 12,0 l 0,-8 c -0.666667,0 -1.333333,0 -2,0 L 15,7 C 15,4.784 13.216,3 11,3 m 0,1 c 1.662,0 3,1.561 3,3.5 L 14,11 8,11 8,7.5 C 8,5.561 9.338,4 11,4"
       class="ColorScheme-Text"
       id="path4" />
  </g>
</svg>
