<?xml version="1.0" encoding="UTF-8" standalone="no"?>
<svg
   viewBox="0 0 448 512"
   version="1.1"
   id="svg1"
   sodipodi:docname="floppy-disk.svg"
   inkscape:version="1.3 (0e150ed6c4, 2023-07-21)"
   xmlns:inkscape="http://www.inkscape.org/namespaces/inkscape"
   xmlns:sodipodi="http://sodipodi.sourceforge.net/DTD/sodipodi-0.dtd"
   xmlns="http://www.w3.org/2000/svg"
   xmlns:svg="http://www.w3.org/2000/svg">
  <defs
     id="defs1" />
  <sodipodi:namedview
     id="namedview1"
     pagecolor="#505050"
     bordercolor="#eeeeee"
     borderopacity="1"
     inkscape:showpageshadow="0"
     inkscape:pageopacity="0"
     inkscape:pagecheckerboard="0"
     inkscape:deskcolor="#d1d1d1"
     inkscape:zoom="0.88476562"
     inkscape:cx="224.3532"
     inkscape:cy="256"
     inkscape:window-width="1366"
     inkscape:window-height="694"
     inkscape:window-x="0"
     inkscape:window-y="0"
     inkscape:window-maximized="1"
     inkscape:current-layer="svg1" />
  <!--! Font Awesome Free 6.4.0 by @fontawesome - https://fontawesome.com License - https://fontawesome.com/license/free (Icons: CC BY 4.0, Fonts: SIL OFL 1.1, Code: MIT License) Copyright 2023 Fonticons, Inc. -->
  <path
     d="M 108.28571,94 C 82.75625,94 62,114.75625 62,140.28571 V 371.71429 C 62,397.24375 82.75625,418 108.28571,418 H 339.71429 C 365.24375,418 386,397.24375 386,371.71429 V 196.19018 c 0,-12.29464 -4.84554,-24.08304 -13.52411,-32.76161 L 316.57143,107.52411 C 307.89286,98.845536 296.10446,94 283.80982,94 Z m 0,69.42857 c 0,-12.80089 10.34197,-23.14286 23.14286,-23.14286 h 138.85714 c 12.8009,0 23.14286,10.34197 23.14286,23.14286 v 46.28572 c 0,12.80089 -10.34196,23.14285 -23.14286,23.14285 H 131.42857 c -12.80089,0 -23.14286,-10.34196 -23.14286,-23.14285 z M 224,279.14286 a 46.285715,46.285715 0 1 1 0,92.57143 46.285715,46.285715 0 1 1 0,-92.57143 z"
     id="path1"
     style="fill:#f2f2f2;stroke-width:0.723214" />
</svg>
