<?xml version="1.0" encoding="UTF-8" standalone="no"?>
<!-- Created with Inkscape (http://www.inkscape.org/) -->

<svg
   width="255.99998"
   height="128"
   viewBox="0 0 67.733321 33.866667"
   version="1.1"
   id="svg5"
   xml:space="preserve"
   sodipodi:docname="DocumentsDB.svg"
   inkscape:version="1.3 (0e150ed6c4, 2023-07-21)"
   xmlns:inkscape="http://www.inkscape.org/namespaces/inkscape"
   xmlns:sodipodi="http://sodipodi.sourceforge.net/DTD/sodipodi-0.dtd"
   xmlns="http://www.w3.org/2000/svg"
   xmlns:svg="http://www.w3.org/2000/svg"><sodipodi:namedview
     id="namedview2941"
     pagecolor="#505050"
     bordercolor="#eeeeee"
     borderopacity="1"
     inkscape:showpageshadow="0"
     inkscape:pageopacity="0"
     inkscape:pagecheckerboard="0"
     inkscape:deskcolor="#505050"
     showgrid="false"
     inkscape:zoom="1.84375"
     inkscape:cx="127.18644"
     inkscape:cy="63.728814"
     inkscape:window-width="1366"
     inkscape:window-height="694"
     inkscape:window-x="0"
     inkscape:window-y="0"
     inkscape:window-maximized="1"
     inkscape:current-layer="svg5" /><defs
     id="defs2"><rect
       x="7.9878626"
       y="68.10704"
       width="378.06595"
       height="14.420688"
       id="rect387" /><rect
       x="-96.244637"
       y="47.086346"
       width="219.45601"
       height="95.854347"
       id="rect369" /></defs><g
     aria-label="Documents"
     transform="matrix(0.33271755,0,0,0.33271755,43.456674,-7.4024559)"
     id="text367"
     style="font-size:40px;line-height:1.25;white-space:pre;shape-inside:url(#rect369);display:inline;fill:#f2f2f2"><path
       d="m -82.521064,82.311714 q -2.338461,1.138462 -6.892307,1.169231 h -5.107693 V 62.434791 h 5.015385 q 4.984615,0 7.569231,1.507692 3.6,2.123077 4.461538,6.584616 0.246154,1.2 0.246154,2.492307 0,4.769231 -2.984615,7.692308 -0.06154,0.03077 -0.09231,0.06154 -0.984615,0.923076 -2.215385,1.538461 z M -84.67491,67.357868 q -1.630769,-0.830769 -4.953846,-0.830769 h -0.584615 v 12.892307 h 0.646153 q 3.353847,0 5.015385,-0.923077 2.092308,-1.107692 2.738462,-3.723076 0.215384,-0.861539 0.215384,-1.753847 0,-3.323077 -2.123077,-5.046153 -0.430769,-0.369231 -0.953846,-0.615385 z"
       style="font-weight:bold;font-family:KerkisSans;-inkscape-font-specification:'KerkisSans Bold'"
       id="path3445" /><path
       d="m -67.197995,83.850176 q -3.630769,0 -6.153846,-2.553847 -2.369231,-2.36923 -2.369231,-5.630769 0,-3.446154 2.615385,-5.876923 2.461538,-2.307692 5.876923,-2.307692 3.846154,0 6.338462,2.646154 2.246153,2.36923 2.246153,5.661538 0,3.353846 -2.615384,5.753846 -2.492308,2.307693 -5.938462,2.307693 z m 0,-12.584616 q -2.123077,0 -3.415384,1.723077 -0.892308,1.169231 -0.892308,2.615385 0,2.338461 1.815385,3.630769 1.107692,0.830769 2.523076,0.830769 2.153847,0 3.446154,-1.753846 0.861539,-1.169231 0.861539,-2.646154 0,-2.215384 -1.753846,-3.538461 -1.138462,-0.861539 -2.584616,-0.861539 z"
       style="font-weight:bold;font-family:KerkisSans;-inkscape-font-specification:'KerkisSans Bold'"
       id="path3442" /><path
       d="m -49.105679,83.850176 q -3.723077,0 -6.246154,-2.553847 -2.338462,-2.36923 -2.338462,-5.630769 0,-3.6 2.676923,-6.030769 2.4,-2.153846 5.784616,-2.153846 3.446154,0 5.907692,2.215384 1.292308,1.169231 1.938462,2.8 0.153846,0.369231 0.307692,0.861539 h -4.646154 q -1.107692,-2.092308 -3.507692,-2.092308 -2.369231,0 -3.569231,1.876923 -0.676923,1.076923 -0.676923,2.492308 0,2.461538 1.876923,3.723077 1.076923,0.707692 2.461538,0.707692 2,0 3.2,-1.630769 0.123077,-0.184615 0.246154,-0.369231 h 4.646154 q -1.753846,4.584616 -6,5.569231 -0.984615,0.215385 -2.061538,0.215385 z"
       style="font-weight:bold;font-family:KerkisSans;-inkscape-font-specification:'KerkisSans Bold'"
       id="path3439" /><path
       d="m -28.521056,83.480945 v -1.2 q -1.723077,1.476923 -3.876923,1.569231 -0.184616,0 -0.4,0 -3.292308,0 -4.923077,-2.338462 -1.138462,-1.538461 -1.230769,-4.307692 -0.03077,-0.461539 -0.03077,-0.984616 v -8.36923 h 4.184616 v 7.661538 q 0,2.830769 0.8,3.784615 0.584615,0.707693 1.969231,0.8 1.753846,0 2.676923,-1.323076 0.523077,-0.8 0.523077,-3.538462 v -7.384615 h 4.215384 v 15.630769 z"
       style="font-weight:bold;font-family:KerkisSans;-inkscape-font-specification:'KerkisSans Bold'"
       id="path3436" /><path
       d="m -2.3364525,83.480945 v -8.553846 q 0,-2.03077 -0.6769231,-2.8 -0.7384616,-0.892308 -2.0615385,-0.892308 -1.6923077,0 -2.4307692,1.353846 -0.4923077,0.892308 -0.4923077,3.2 v 7.692308 h -4.184615 v -8.553846 q 0,-2.061539 -0.615385,-2.8 -0.738462,-0.892308 -2.246154,-0.892308 -1.784615,0 -2.430769,1.476923 -0.369231,0.738462 -0.369231,3.076923 v 7.692308 h -4.215384 V 67.850176 h 3.876923 v 1.107692 q 1.476923,-1.476923 3.846153,-1.476923 3.076924,0 4.6153851,2.246154 1.8461538,-2.246154 5.0153846,-2.246154 3.4153846,0 5.13846153,2.092308 l 0.0307692,0.03077 0.3076923,0.4 Q 1.8481628,71.69633 1.8481628,74.49633 v 8.984616 z"
       style="font-weight:bold;font-family:KerkisSans;-inkscape-font-specification:'KerkisSans Bold'"
       id="path3433" /><path
       d="M 20.309703,77.511714 H 8.3404724 q 0.6153846,1.938462 2.7999996,2.430769 0.584616,0.123077 1.23077,0.123077 1.846153,0 3.015384,-1.138461 0.153846,-0.153846 0.338462,-0.369231 h 4.461538 q -0.430769,1.353846 -1.353846,2.461538 -2.461538,2.83077 -6.369231,2.83077 -3.907692,0 -6.4615381,-2.615385 -2.2461539,-2.307692 -2.2461539,-5.507692 0,-3.6 2.6461539,-6.03077 2.4307692,-2.215384 5.8153841,-2.215384 3.876924,0 6.276924,2.738461 2.030769,2.338462 2.030769,5.661539 0,0.646154 -0.215385,1.630769 z M 12.278934,71.26556 q -3.1076924,0 -4.0615385,2.584616 H 16.309703 Q 15.571242,71.26556 12.278934,71.26556 Z"
       style="font-weight:bold;font-family:KerkisSans;-inkscape-font-specification:'KerkisSans Bold'"
       id="path3430" /><path
       d="m 32.617403,83.480945 v -7.630769 q 0,-2.83077 -0.707692,-3.723077 -0.646154,-0.892308 -2.092308,-0.892308 -1.692307,0 -2.584615,1.323077 -0.553846,0.861538 -0.553846,3.538461 v 7.384616 H 22.463557 V 67.850176 h 3.907692 v 1.2 q 1.815385,-1.569231 4.184616,-1.569231 3.446154,0 5.046154,2.276923 1.076923,1.538461 1.2,4.430769 0,0 0,0 0,0.430769 0,0.923077 v 8.369231 z"
       style="font-weight:bold;font-family:KerkisSans;-inkscape-font-specification:'KerkisSans Bold'"
       id="path3427" /><path
       d="M 44.155853,71.511714 V 83.480945 H 39.971238 V 71.511714 h -1.846154 v -3.784615 h 1.846154 v -5.076923 h 4.153846 v 5.076923 h 2.276923 v 3.784615 z"
       style="font-weight:bold;font-family:KerkisSans;-inkscape-font-specification:'KerkisSans Bold'"
       id="path3424" /><path
       d="m 52.83277,83.850176 q -2.769231,0 -4.492307,-1.784616 L 47.971232,81.634791 Q 47.140463,80.496329 46.894309,78.46556 l -0.03077,-0.246154 h 4.184616 q 0.461538,1.6 1.415384,1.784616 l 0.492308,0.06154 q 1.169231,0 1.446154,-0.892307 l 0.06154,-0.369231 q 0,-1.015385 -2.092307,-1.630769 0.09231,0.03077 -0.246154,-0.06154 l -0.03077,-0.03077 -0.153846,-0.03077 q -3.415385,-1.138462 -4.215385,-2.984616 -0.307692,-0.738461 -0.307692,-1.723077 0,-2.4 2.061538,-3.846154 1.476923,-1.015384 3.353846,-1.015384 2.584616,0 4.184616,1.753846 1.046153,1.107692 1.16923,2.984615 v 0.03077 l 0.03077,0.215384 h -4.061539 q -0.307692,-1.2 -1.323077,-1.2 -0.892307,0 -1.169231,0.738462 v 0.03077 l -0.03077,0.03077 q -0.03077,0.123077 -0.03077,0.276923 0,0.584616 1.046154,0.984616 v 0 h 0.03077 q 0,0 0.09231,0.03077 l 2.738461,0.892308 q 0.984616,0.4 1.569231,0.892307 1.538462,1.2 1.538462,3.292308 0,2.615385 -2.123077,4.246154 -1.6,1.169231 -3.661539,1.169231 z"
       style="font-weight:bold;font-family:KerkisSans;-inkscape-font-specification:'KerkisSans Bold'"
       id="path3421" /></g><path
     d="m 7.2756851,16.934709 c -0.06878,-0.220094 -0.0674,-0.64515 -0.02751,-0.64515 0.115544,0 0.10454,0.507591 0.02751,0.64515 z m -0.02338,0.649277 c -0.105915,0.277869 -0.237965,0.595628 -0.390647,0.862492 0.25172,-0.09629 0.536453,-0.236601 0.865202,-0.301254 -0.174691,-0.132055 -0.342505,-0.321886 -0.474555,-0.561238 z m -1.294364,1.71673 c 0,0.01101 0.181569,-0.07428 0.480056,-0.552985 -0.09216,0.08666 -0.400275,0.337018 -0.480056,0.552985 z m 2.226968,-3.687946 h 1.8707079 v 4.511922 c 0,0.182953 -0.1471807,0.330141 -0.3301249,0.330141 H 5.1037428 c -0.182944,0 -0.330125,-0.147188 -0.330125,-0.330141 v -6.382719 c 0,-0.182953 0.147181,-0.330141 0.330125,-0.330141 h 2.7510413 v 1.870797 c 0,0.181577 0.148556,0.330141 0.330125,0.330141 z m -0.110042,2.363258 c -0.275104,-0.167821 -0.458048,-0.39892 -0.587347,-0.740065 0.0619,-0.254483 0.15956,-0.641024 0.08528,-0.883127 -0.06465,-0.404422 -0.583221,-0.36453 -0.657499,-0.09354 -0.06878,0.251732 -0.0055,0.606633 0.111417,1.059202 -0.15956,0.379662 -0.394774,0.888628 -0.561212,1.180252 -0.0014,0 -0.0014,0.0014 -0.0028,0.0014 -0.372765,0.191206 -1.012382,0.612135 -0.749657,0.935398 0.07703,0.09492 0.220083,0.137558 0.295737,0.137558 0.246218,0 0.491059,-0.247605 0.840442,-0.850112 0.354884,-0.116924 0.744157,-0.262736 1.086661,-0.319135 0.2984881,0.162319 0.64787,0.268239 0.880333,0.268239 0.401653,0 0.4291631,-0.440188 0.270978,-0.597004 -0.191197,-0.187079 -0.746908,-0.133431 -1.012383,-0.09904 z M 9.9593304,14.856197 8.6113202,13.508123 c -0.0619,-0.0619 -0.145805,-0.09629 -0.233839,-0.09629 h -0.08253 v 1.76075 h 1.7606668 v -0.08391 c 0,-0.08666 -0.03439,-0.170572 -0.09629,-0.232474 z m -1.0192613,3.511872 c 0.0564,-0.03714 -0.03439,-0.163694 -0.588722,-0.123803 0.510318,0.217343 0.588722,0.123803 0.588722,0.123803 z"
     id="path2"
     style="fill:#f2f2f2;stroke-width:0.0137555" /></svg>
