<?xml version="1.0" encoding="UTF-8" standalone="no"?>
<svg
   viewBox="0 0 24 24"
   version="1.1"
   id="svg8"
   sodipodi:docname="eyeOff.svg"
   inkscape:version="1.2.2 (b0a8486541, 2022-12-01)"
   xmlns:inkscape="http://www.inkscape.org/namespaces/inkscape"
   xmlns:sodipodi="http://sodipodi.sourceforge.net/DTD/sodipodi-0.dtd"
   xmlns="http://www.w3.org/2000/svg"
   xmlns:svg="http://www.w3.org/2000/svg">
  <sodipodi:namedview
     id="namedview10"
     pagecolor="#505050"
     bordercolor="#ffffff"
     borderopacity="1"
     inkscape:showpageshadow="0"
     inkscape:pageopacity="0"
     inkscape:pagecheckerboard="1"
     inkscape:deskcolor="#505050"
     showgrid="false"
     inkscape:zoom="9.8333333"
     inkscape:cx="2.3389831"
     inkscape:cy="12.050847"
     inkscape:window-width="1366"
     inkscape:window-height="694"
     inkscape:window-x="0"
     inkscape:window-y="0"
     inkscape:window-maximized="1"
     inkscape:current-layer="svg8" />
  <defs
     id="defs3051">
    <style
       type="text/css"
       id="current-color-scheme">
      .ColorScheme-Text {
        color:#232629;
      }
      </style>
  </defs>
  <g
     transform="translate(1,1)"
     id="g6"
     style="fill:#f2f2f2">
    <path
       style="fill:#f2f2f2;fill-opacity:1;stroke:none"
       d="M 18.292969 3 L 3 18.292969 L 3.7070312 19 L 19 3.7070312 L 18.292969 3 z M 11 6 A 10 9.9999781 0 0 0 2.2871094 11.119141 C 2.4663699 11.420241 2.7209984 11.668644 3.0273438 11.839844 A 9 8.99998 0 0 1 11 7 A 4 4 0 0 0 7 11 A 4 4 0 0 0 7.3574219 12.642578 L 8.1308594 11.869141 A 3 3 0 0 1 8 11 A 3 3 0 0 1 11 8 A 3 3 0 0 1 11.869141 8.1308594 L 12.640625 7.359375 A 4 4 0 0 0 11.34375 7.0175781 A 9 8.99998 0 0 1 12.796875 7.203125 L 13.640625 6.359375 A 10 9.9999781 0 0 0 11 6 z M 16.404297 7.5957031 L 15.675781 8.3242188 A 9 8.99998 0 0 1 18.974609 11.837891 C 19.282742 11.665091 19.539718 11.415428 19.71875 11.111328 A 10 9.9999781 0 0 0 16.404297 7.5957031 z M 11 9 A 2 2 0 0 0 9 11 L 11 9 z M 14.642578 9.3574219 L 13.869141 10.130859 A 3 3 0 0 1 14 11 A 3 3 0 0 1 11 14 A 3 3 0 0 1 10.130859 13.869141 L 9.3574219 14.642578 A 4 4 0 0 0 11 15 A 4 4 0 0 0 15 11 A 4 4 0 0 0 14.642578 9.3574219 z M 13 11 L 11 13 A 2 2 0 0 0 13 11 z M 1 13 C 0.33333333 19 0.66666667 16 1 13 z "
       class="ColorScheme-Text"
       id="path4" />
  </g>
</svg>
