<?xml version="1.0" encoding="UTF-8" standalone="no"?>
<!-- Created with Inkscape (http://www.inkscape.org/) -->

<svg
   width="255.99998"
   height="128"
   viewBox="0 0 67.733321 33.866667"
   version="1.1"
   id="svg5"
   xml:space="preserve"
   sodipodi:docname="FiguresDB.svg"
   inkscape:version="1.3 (0e150ed6c4, 2023-07-21)"
   xmlns:inkscape="http://www.inkscape.org/namespaces/inkscape"
   xmlns:sodipodi="http://sodipodi.sourceforge.net/DTD/sodipodi-0.dtd"
   xmlns="http://www.w3.org/2000/svg"
   xmlns:svg="http://www.w3.org/2000/svg"><sodipodi:namedview
     id="namedview4459"
     pagecolor="#505050"
     bordercolor="#eeeeee"
     borderopacity="1"
     inkscape:showpageshadow="0"
     inkscape:pageopacity="0"
     inkscape:pagecheckerboard="0"
     inkscape:deskcolor="#505050"
     showgrid="false"
     inkscape:zoom="1.84375"
     inkscape:cx="78.915254"
     inkscape:cy="63.728814"
     inkscape:window-width="1366"
     inkscape:window-height="694"
     inkscape:window-x="0"
     inkscape:window-y="0"
     inkscape:window-maximized="1"
     inkscape:current-layer="svg5" /><defs
     id="defs2"><rect
       x="7.9878626"
       y="68.10704"
       width="390.31607"
       height="59.552677"
       id="rect387" /><rect
       x="-96.244637"
       y="47.086346"
       width="219.45601"
       height="95.854347"
       id="rect369" /><rect
       x="7.9878626"
       y="68.10704"
       width="390.31607"
       height="59.552677"
       id="rect387-3" /></defs><g
     aria-label="Create a DataTeX database for your Tikz, PsTricks, Asymptote and Metapost figures."
     transform="matrix(0.2587881,0,0,0.2587881,-18.703374,1.6736957)"
     id="text385"
     style="font-size:18.6667px;line-height:0.75;font-family:KerkisSans;-inkscape-font-specification:KerkisSans;text-align:center;white-space:pre;shape-inside:url(#rect387);display:inline;fill:#f2f2f2" /><g
     id="g1"
     transform="translate(-0.52916675)"><g
       aria-label="Figures"
       transform="matrix(0.33271755,0,0,0.33271755,56.541743,-8.3801332)"
       id="text367"
       style="font-size:40px;line-height:1.25;white-space:pre;shape-inside:url(#rect369);display:inline;fill:#f2f2f2"><path
         d="m -90.182602,66.527099 -0.03077,4.430769 h 6.523077 v 4.061538 h -6.492308 v 8.461539 h -4.338462 V 62.434791 h 11.138462 v 4.092308 z"
         style="font-weight:bold;font-family:KerkisSans;-inkscape-font-specification:'KerkisSans Bold'"
         id="path5124" /><path
         d="m -81.259488,66.496329 -0.03077,-3.846153 h 4.215385 v 3.846153 z m -0.03077,16.984616 V 67.727099 h 4.215385 v 15.753846 z"
         style="font-weight:bold;font-family:KerkisSans;-inkscape-font-specification:'KerkisSans Bold'"
         id="path5121" /><path
         d="m -60.028747,86.834791 q -2.246154,2.892308 -6.676923,2.892308 -4.984615,0 -7.446154,-3.63077 -0.523077,-0.76923 -0.892307,-1.661538 h 4.646153 q 1.323077,1.415385 3.076923,1.569231 l 0.769231,0.03077 q 3.692308,0 4.092308,-4.092308 -1.938462,2.03077 -4.861539,2.03077 -3.815384,0 -6.061538,-2.83077 -1.846154,-2.276923 -1.846154,-5.538461 0,-3.753846 2.553846,-6.092308 2.215385,-2.030769 5.384616,-2.030769 3.2,0 4.861538,1.938461 v -1.56923 h 4.030769 V 80.49633 q 0,4.276924 -1.630769,6.338461 z M -66.859516,71.26556 q -2.523077,0 -3.6,2.092308 -0.553846,1.046154 -0.553846,2.430769 0,2.8 2.061538,3.876923 0.923077,0.492308 2.123077,0.492308 2.646154,0 3.753846,-2.061539 0.523077,-1.015384 0.523077,-2.307692 0,-2.676923 -2,-3.907692 -1.015384,-0.615385 -2.307692,-0.615385 z"
         style="font-weight:bold;font-family:KerkisSans;-inkscape-font-specification:'KerkisSans Bold'"
         id="path5118" /><path
         d="m -45.505691,83.480945 v -1.2 q -1.723077,1.476923 -3.876923,1.569231 -0.184615,0 -0.4,0 -3.292307,0 -4.923077,-2.338462 -1.138461,-1.538461 -1.230769,-4.307692 -0.03077,-0.461539 -0.03077,-0.984616 v -8.36923 h 4.184615 v 7.661538 q 0,2.830769 0.8,3.784615 0.584616,0.707693 1.969231,0.8 1.753846,0 2.676923,-1.323076 0.523077,-0.8 0.523077,-3.538462 v -7.384615 h 4.215385 v 15.630769 z"
         style="font-weight:bold;font-family:KerkisSans;-inkscape-font-specification:'KerkisSans Bold'"
         id="path5115" /><path
         d="m -34.828779,74.834791 v 8.646154 h -4.215385 V 67.850176 h 3.876923 v 1.046153 q 1.076923,-1.323076 2.769231,-1.415384 h 0.4 0.523077 v 3.938461 q -2.892308,0.03077 -3.292308,2.43077 z"
         style="font-weight:bold;font-family:KerkisSans;-inkscape-font-specification:'KerkisSans Bold'"
         id="path5112" /><path
         d="m -14.182637,77.511714 h -11.969231 q 0.615385,1.938462 2.8,2.430769 0.584616,0.123077 1.23077,0.123077 1.846153,0 3.015384,-1.138461 0.153846,-0.153846 0.338462,-0.369231 h 4.461538 q -0.430769,1.353846 -1.353846,2.461538 -2.461538,2.83077 -6.369231,2.83077 -3.907692,0 -6.461538,-2.615385 -2.246154,-2.307692 -2.246154,-5.507692 0,-3.6 2.646154,-6.03077 2.430769,-2.215384 5.815384,-2.215384 3.876923,0 6.276923,2.738461 2.03077,2.338462 2.03077,5.661539 0,0.646154 -0.215385,1.630769 z m -8.030769,-6.246154 q -3.107692,0 -4.061539,2.584616 h 8.092308 q -0.738461,-2.584616 -4.030769,-2.584616 z"
         style="font-weight:bold;font-family:KerkisSans;-inkscape-font-specification:'KerkisSans Bold'"
         id="path5109" /><path
         d="m -7.0441676,83.850176 q -2.7692308,0 -4.4923074,-1.784616 l -0.369231,-0.430769 q -0.830769,-1.138462 -1.076923,-3.169231 l -0.03077,-0.246154 h 4.184615 q 0.4615385,1.6 1.4153846,1.784616 l 0.4923077,0.06154 q 1.1692308,0 1.4461538,-0.892307 l 0.061539,-0.369231 q 0,-1.015385 -2.0923077,-1.630769 0.092308,0.03077 -0.2461538,-0.06154 l -0.030769,-0.03077 -0.1538461,-0.03077 Q -11.35186,75.911714 -12.15186,74.06556 q -0.307692,-0.738461 -0.307692,-1.723077 0,-2.4 2.061538,-3.846154 1.4769233,-1.015384 3.3538464,-1.015384 2.5846154,0 4.1846154,1.753846 1.0461538,1.107692 1.1692307,2.984615 v 0.03077 l 0.030769,0.215384 H -5.721091 q -0.3076923,-1.2 -1.3230769,-1.2 -0.8923077,0 -1.1692308,0.738462 v 0.03077 l -0.030769,0.03077 q -0.030769,0.123077 -0.030769,0.276923 0,0.584616 1.0461539,0.984616 v 0 h 0.030769 q 0,0 0.092308,0.03077 l 2.7384616,0.892308 q 0.9846153,0.4 1.5692307,0.892307 1.5384616,1.2 1.5384616,3.292308 0,2.615385 -2.123077,4.246154 -1.6,1.169231 -3.6615384,1.169231 z"
         style="font-weight:bold;font-family:KerkisSans;-inkscape-font-specification:'KerkisSans Bold'"
         id="path5106" /></g><path
       d="m 21.839564,18.262183 c 0.121052,0 0.220094,0.09904 0.220094,0.220094 v 0.733646 c 0,0.121051 -0.09904,0.220093 -0.220094,0.220093 h -8.950479 c -0.121052,0 -0.220094,-0.09904 -0.220094,-0.220093 V 12.61311 c 0,-0.121051 0.09904,-0.220093 0.220094,-0.220093 h 0.733646 c 0.121051,0 0.220094,0.09904 0.220094,0.220093 v 5.649073 z m -2.334828,-4.117587 -1.553495,1.036274 -1.564499,-2.085387 c -0.09354,-0.12472 -0.284289,-0.11555 -0.364989,0.01834 l -1.592012,2.653965 v 1.907479 h 7.043001 l -1.64887,-3.444468 c -0.0587,-0.119217 -0.209089,-0.159568 -0.319136,-0.0862 z"
       id="path2"
       style="fill:#f2f2f2;stroke-width:0.0183411" /></g></svg>
