<?xml version="1.0" encoding="UTF-8" standalone="no"?>
<!-- Created with Inkscape (http://www.inkscape.org/) -->

<svg
   width="256"
   height="128"
   viewBox="0 0 67.733332 33.866667"
   version="1.1"
   id="svg5"
   inkscape:version="1.3 (0e150ed6c4, 2023-07-21)"
   sodipodi:docname="FilesDB.svg"
   xml:space="preserve"
   xmlns:inkscape="http://www.inkscape.org/namespaces/inkscape"
   xmlns:sodipodi="http://sodipodi.sourceforge.net/DTD/sodipodi-0.dtd"
   xmlns="http://www.w3.org/2000/svg"
   xmlns:svg="http://www.w3.org/2000/svg"><sodipodi:namedview
     id="namedview7"
     pagecolor="#505050"
     bordercolor="#eeeeee"
     borderopacity="1"
     inkscape:showpageshadow="0"
     inkscape:pageopacity="0"
     inkscape:pagecheckerboard="0"
     inkscape:deskcolor="#505050"
     inkscape:document-units="mm"
     showgrid="false"
     inkscape:zoom="2.3786088"
     inkscape:cx="90.599177"
     inkscape:cy="109.09738"
     inkscape:window-width="1366"
     inkscape:window-height="694"
     inkscape:window-x="0"
     inkscape:window-y="0"
     inkscape:window-maximized="1"
     inkscape:current-layer="layer1" /><defs
     id="defs2"><rect
       x="7.9878626"
       y="68.10704"
       width="200.11697"
       height="95.013519"
       id="rect387" /><rect
       x="-96.244637"
       y="47.086346"
       width="219.45601"
       height="95.854347"
       id="rect369" /></defs><g
     inkscape:label="Στρώση 1"
     inkscape:groupmode="layer"
     id="layer1"><path
       d="m 24.270144,15.282715 v -1.8707 h -2.751029 c -0.182943,0 -0.330124,0.14718 -0.330124,0.330124 v 6.382388 c 0,0.182943 0.147181,0.330124 0.330124,0.330124 h 4.62173 c 0.182943,0 0.330123,-0.147181 0.330123,-0.330124 v -4.511688 h -1.8707 c -0.181568,0 -0.330124,-0.148556 -0.330124,-0.330124 z m 0.88033,3.246215 c 0,0.09078 -0.07428,0.165062 -0.165062,0.165062 h -2.310865 c -0.09078,0 -0.165062,-0.07428 -0.165062,-0.165062 v -0.110041 c 0,-0.09078 0.07428,-0.165062 0.165062,-0.165062 h 2.310865 c 0.09078,0 0.165062,0.07428 0.165062,0.165062 z m 0,-0.880329 c 0,0.09078 -0.07428,0.165062 -0.165062,0.165062 h -2.310865 c -0.09078,0 -0.165062,-0.07428 -0.165062,-0.165062 v -0.110042 c 0,-0.09078 0.07428,-0.165061 0.165062,-0.165061 h 2.310865 c 0.09078,0 0.165062,0.07428 0.165062,0.165061 z m 0,-0.990371 v 0.110041 c 0,0.09078 -0.07428,0.165062 -0.165062,0.165062 h -2.310865 c -0.09078,0 -0.165062,-0.07428 -0.165062,-0.165062 V 16.65823 c 0,-0.09078 0.07428,-0.165061 0.165062,-0.165061 h 2.310865 c 0.09078,0 0.165062,0.07428 0.165062,0.165061 z m 1.320494,-1.569462 v 0.08391 H 24.71031 v -1.760663 h 0.08391 c 0.08803,0 0.171939,0.03438 0.233837,0.09629 l 1.346629,1.348005 c 0.0619,0.0619 0.09629,0.145805 0.09629,0.232462 z"
       id="path2"
       style="fill:#f2f2f2;stroke-width:0.0137551" /><g
       aria-label="Files"
       transform="matrix(0.33271755,0,0,0.33271755,59.52477,-7.4024549)"
       id="text367"
       style="font-size:40px;line-height:1.25;white-space:pre;shape-inside:url(#rect369);display:inline;fill:#f2f2f2"><path
         d="m -90.182602,66.527099 -0.03077,4.430769 h 6.523077 v 4.061538 h -6.492308 v 8.461539 h -4.338462 V 62.434791 h 11.138462 v 4.092308 z"
         style="font-weight:bold;font-family:KerkisSans;-inkscape-font-specification:'KerkisSans Bold'"
         id="path1083" /><path
         d="m -81.259488,66.496329 -0.03077,-3.846153 h 4.215385 v 3.846153 z m -0.03077,16.984616 V 67.727099 h 4.215385 v 15.753846 z"
         style="font-weight:bold;font-family:KerkisSans;-inkscape-font-specification:'KerkisSans Bold'"
         id="path1080" /><path
         d="m -74.521055,83.480945 -0.03077,-20.830769 h 4.215385 v 20.830769 z"
         style="font-weight:bold;font-family:KerkisSans;-inkscape-font-specification:'KerkisSans Bold'"
         id="path1077" /><path
         d="m -51.936467,77.511714 h -11.969231 q 0.615385,1.938462 2.8,2.430769 0.584616,0.123077 1.23077,0.123077 1.846153,0 3.015384,-1.138461 0.153846,-0.153846 0.338462,-0.369231 h 4.461538 q -0.430769,1.353846 -1.353846,2.461538 -2.461538,2.83077 -6.369231,2.83077 -3.907692,0 -6.461538,-2.615385 -2.246154,-2.307692 -2.246154,-5.507692 0,-3.6 2.646154,-6.03077 2.430769,-2.215384 5.815384,-2.215384 3.876924,0 6.276924,2.738461 2.030769,2.338462 2.030769,5.661539 0,0.646154 -0.215385,1.630769 z m -8.030769,-6.246154 q -3.107692,0 -4.061539,2.584616 h 8.092308 q -0.738461,-2.584616 -4.030769,-2.584616 z"
         style="font-weight:bold;font-family:KerkisSans;-inkscape-font-specification:'KerkisSans Bold'"
         id="path1074" /><path
         d="m -44.797998,83.850176 q -2.76923,0 -4.492307,-1.784616 l -0.369231,-0.430769 q -0.830769,-1.138462 -1.076923,-3.169231 l -0.03077,-0.246154 h 4.184615 q 0.461538,1.6 1.415385,1.784616 l 0.492307,0.06154 q 1.169231,0 1.446154,-0.892307 l 0.06154,-0.369231 q 0,-1.015385 -2.092308,-1.630769 0.09231,0.03077 -0.246154,-0.06154 l -0.03077,-0.03077 -0.153846,-0.03077 q -3.415385,-1.138462 -4.215385,-2.984616 -0.307692,-0.738461 -0.307692,-1.723077 0,-2.4 2.061538,-3.846154 1.476923,-1.015384 3.353846,-1.015384 2.584616,0 4.184616,1.753846 1.046154,1.107692 1.169231,2.984615 v 0.03077 l 0.03077,0.215384 h -4.061539 q -0.307692,-1.2 -1.323077,-1.2 -0.892307,0 -1.16923,0.738462 v 0.03077 l -0.03077,0.03077 q -0.03077,0.123077 -0.03077,0.276923 0,0.584616 1.046154,0.984616 v 0 h 0.03077 q 0,0 0.09231,0.03077 l 2.738461,0.892308 q 0.984616,0.4 1.569231,0.892307 1.538462,1.2 1.538462,3.292308 0,2.615385 -2.123077,4.246154 -1.6,1.169231 -3.661539,1.169231 z"
         style="font-weight:bold;font-family:KerkisSans;-inkscape-font-specification:'KerkisSans Bold'"
         id="path1071" /></g></g></svg>
