<?xml version="1.0" encoding="UTF-8" standalone="no"?>
<svg
   version="1.1"
   viewBox="0 0 22 22"
   id="svg9"
   sodipodi:docname="FormatBorderSetExternal.svg"
   inkscape:version="1.2.2 (b0a8486541, 2022-12-01)"
   xmlns:inkscape="http://www.inkscape.org/namespaces/inkscape"
   xmlns:sodipodi="http://sodipodi.sourceforge.net/DTD/sodipodi-0.dtd"
   xmlns="http://www.w3.org/2000/svg"
   xmlns:svg="http://www.w3.org/2000/svg">
  <sodipodi:namedview
     id="namedview11"
     pagecolor="#505050"
     bordercolor="#eeeeee"
     borderopacity="1"
     inkscape:showpageshadow="0"
     inkscape:pageopacity="0"
     inkscape:pagecheckerboard="0"
     inkscape:deskcolor="#505050"
     showgrid="false"
     inkscape:zoom="10.727273"
     inkscape:cx="2.8898305"
     inkscape:cy="11.04661"
     inkscape:window-width="1366"
     inkscape:window-height="694"
     inkscape:window-x="0"
     inkscape:window-y="0"
     inkscape:window-maximized="1"
     inkscape:current-layer="svg9" />
  <defs
     id="defs3">
    <style
       type="text/css"
       id="current-color-scheme">
            .ColorScheme-Text {
                color:#232629;
            }
        </style>
  </defs>
  <path
     style="fill:#f2f2f2;fill-opacity:0.5;stroke:none"
     d="M 4 3 L 4 10 L 11 10 L 11 3 L 4 3 Z M 12 3 L 12 10 L 19 10 L 19 3 L 12 3 Z M 4 11 L 4 18 L 11 18 L 11 11 L 4 11 Z M 12 11 L 12 18 L 19 18 L 19 11 L 12 11 Z"
     class="ColorScheme-Text"
     id="path5" />
  <path
     style="fill:currentColor; fill-opacity:1; stroke:none"
     d="M 3 2 L 3 3 L 3 18 L 3 19 L 4 19 L 19 19 L 20 19 L 20 18 L 20 3 L 20 2 L 19 2 L 4 2 L 3 2 Z M 4 3 L 19 3 L 19 18 L 4 18 L 4 3 Z"
     class="ColorScheme-Text"
     id="path7" />
</svg>
