<?xml version="1.0" encoding="UTF-8" standalone="no"?>
<svg
   viewBox="0 0 22 22"
   version="1.1"
   id="svg298"
   sodipodi:docname="format-text-bold.svg"
   inkscape:version="1.2.2 (b0a8486541, 2022-12-01)"
   xmlns:inkscape="http://www.inkscape.org/namespaces/inkscape"
   xmlns:sodipodi="http://sodipodi.sourceforge.net/DTD/sodipodi-0.dtd"
   xmlns="http://www.w3.org/2000/svg"
   xmlns:svg="http://www.w3.org/2000/svg">
  <sodipodi:namedview
     id="namedview300"
     pagecolor="#505050"
     bordercolor="#ffffff"
     borderopacity="1"
     inkscape:showpageshadow="0"
     inkscape:pageopacity="0"
     inkscape:pagecheckerboard="1"
     inkscape:deskcolor="#505050"
     showgrid="false"
     inkscape:zoom="10.727273"
     inkscape:cx="1.5381356"
     inkscape:cy="11.04661"
     inkscape:window-width="1366"
     inkscape:window-height="694"
     inkscape:window-x="0"
     inkscape:window-y="0"
     inkscape:window-maximized="1"
     inkscape:current-layer="svg298" />
  <defs
     id="defs3051">
    <style
       type="text/css"
       id="current-color-scheme">
      .ColorScheme-Text {
        color:#232629;
      }
      </style>
  </defs>
  <path
     style="fill:#f2f2f2;fill-opacity:1;stroke:none"
     d="M 3.5 3 C 3.3286269 3 3.1646509 3.0248281 3 3.0488281 L 3 5 C 4.108 5 5 5.892 5 7 L 5 10 L 5 15 C 5 16.108 4.108 17 3 17 L 3 18.951172 C 3.1646509 18.975172 3.3286269 19 3.5 19 L 5 19 L 9 19 L 14 19 C 16.769995 19 19 16.77 19 14 C 19 11.7951 17.577117 9.9533563 15.603516 9.2851562 C 16.447639 8.6468562 17 7.6443 17 6.5 C 17 4.561 15.439 3 13.5 3 L 9 3 L 5 3 L 3.5 3 z M 9 5 L 11 5 C 12.108 5 13 5.892 13 7 C 13 8.108 12.108 9 11 9 L 9 9 L 9 5 z M 9 11 L 12 11 C 13.662 11 15 12.338 15 14 C 15 15.662 13.662 17 12 17 L 9 17 L 9 11 z "
     class="ColorScheme-Text"
     id="path296" />
</svg>
