<?xml version="1.0" encoding="UTF-8" standalone="no"?>
<svg
   viewBox="0 0 24 24"
   version="1.1"
   id="svg6"
   sodipodi:docname="ImUser.svg"
   inkscape:version="1.2.2 (b0a8486541, 2022-12-01)"
   xmlns:inkscape="http://www.inkscape.org/namespaces/inkscape"
   xmlns:sodipodi="http://sodipodi.sourceforge.net/DTD/sodipodi-0.dtd"
   xmlns="http://www.w3.org/2000/svg"
   xmlns:svg="http://www.w3.org/2000/svg">
  <sodipodi:namedview
     id="namedview8"
     pagecolor="#505050"
     bordercolor="#ffffff"
     borderopacity="1"
     inkscape:showpageshadow="0"
     inkscape:pageopacity="0"
     inkscape:pagecheckerboard="1"
     inkscape:deskcolor="#505050"
     showgrid="false"
     inkscape:zoom="9.8333333"
     inkscape:cx="-16.983051"
     inkscape:cy="12.050847"
     inkscape:window-width="1366"
     inkscape:window-height="694"
     inkscape:window-x="0"
     inkscape:window-y="0"
     inkscape:window-maximized="1"
     inkscape:current-layer="svg6" />
  <defs
     id="defs3051">
    <style
       type="text/css"
       id="current-color-scheme">
      .ColorScheme-Text {
        color:#232629;
      }
      </style>
  </defs>
  <path
     style="fill:#f2f2f2;fill-opacity:1;stroke:#f2f2f2"
     d="M 12 4 A 3.9999902 4.0000296 0 0 0 8 8 A 3.9999902 4.0000296 0 0 0 12 12 A 3.9999902 4.0000296 0 0 0 16 8 A 3.9999902 4.0000296 0 0 0 12 4 z M 12 5 A 3 3.0000296 0 0 1 15 8 A 3 3.0000296 0 0 1 12 11 A 3 3.0000296 0 0 1 9 8 A 3 3.0000296 0 0 1 12 5 z M 12 13 A 7.9999504 8.0000296 0 0 0 4.0722656 20 L 5.0800781 20 A 6.9999604 7.0000296 0 0 1 12 14 A 6.9999604 7.0000296 0 0 1 18.921875 20 L 19.929688 20 A 7.9999504 8.0000296 0 0 0 12 13 z "
     class="ColorScheme-Text"
     id="path4" />
</svg>
