<?xml version="1.0" encoding="UTF-8" standalone="no"?>
<!-- Generator: Adobe Illustrator 16.0.0, SVG Export Plug-In . SVG Version: 6.00 Build 0)  -->

<svg
   version="1.1"
   id="Layer_1"
   x="0px"
   y="0px"
   width="64"
   height="64"
   viewBox="0 0 64 64"
   enable-background="new 0 0 300 300"
   xml:space="preserve"
   sodipodi:docname="Key.svg"
   inkscape:version="1.2.2 (b0a8486541, 2022-12-01)"
   xmlns:inkscape="http://www.inkscape.org/namespaces/inkscape"
   xmlns:sodipodi="http://sodipodi.sourceforge.net/DTD/sodipodi-0.dtd"
   xmlns="http://www.w3.org/2000/svg"
   xmlns:svg="http://www.w3.org/2000/svg"><defs
   id="defs7" /><sodipodi:namedview
   id="namedview5"
   pagecolor="#505050"
   bordercolor="#ffffff"
   borderopacity="1"
   inkscape:showpageshadow="0"
   inkscape:pageopacity="0"
   inkscape:pagecheckerboard="1"
   inkscape:deskcolor="#505050"
   showgrid="false"
   inkscape:zoom="6.2933333"
   inkscape:cx="10.963983"
   inkscape:cy="28.681144"
   inkscape:window-width="1366"
   inkscape:window-height="694"
   inkscape:window-x="0"
   inkscape:window-y="0"
   inkscape:window-maximized="1"
   inkscape:current-layer="Layer_1" />
<path
   d="m 58.301791,49.815614 c -0.02599,-0.33944 -0.177759,-0.665855 -0.426599,-0.909319 L 36.374204,27.405297 c 0.84592,-1.992769 1.292433,-4.150859 1.292433,-6.381157 0,-4.358703 -1.700071,-8.459759 -4.777053,-11.5444132 -3.081398,-3.0785234 -7.179579,-4.7768672 -11.540775,-4.7768672 -4.363295,0 -8.454393,1.6989225 -11.5407645,4.7793588 -6.3679431,6.3644996 -6.369287,16.7164596 -9.63e-4,23.0803906 3.0861845,3.08695 7.1786275,4.787021 11.5396265,4.787021 2.230877,0 4.383601,-0.450163 6.381157,-1.29723 l 7.063491,7.068858 c 0.293856,0.290206 0.681374,0.444217 1.099547,0.430621 l 3.849352,-0.135049 -0.125671,3.858925 c -0.01187,0.407059 0.135048,0.803199 0.430052,1.093023 0.284272,0.289638 0.68367,0.447102 1.089002,0.430622 l 3.863526,-0.131978 -0.138689,3.854717 c -0.01206,0.407441 0.144437,0.804347 0.428709,1.094171 0.293846,0.289638 0.636162,0.445374 1.099537,0.4312 l 3.853951,-0.131027 -0.129113,3.855286 c -0.02256,0.427551 0.157463,0.838828 0.463189,1.130761 0.281967,0.256501 0.633856,0.39461 1.004718,0.39461 0.05327,0 0.107846,-0.0019 0.162251,-0.0068 l 5.909736,-0.656281 c 0.798609,-0.08721 1.38017,-0.799756 1.311591,-1.600081 z M 19.377494,19.053394 c -1.815196,1.813283 -4.749862,1.813283 -6.561231,0 -1.814048,-1.813861 -1.814048,-4.747948 0,-6.560083 1.811369,-1.812135 4.745074,-1.813852 6.561231,-5.69e-4 1.811556,1.811939 1.810408,4.747939 0,6.560652 z m 33.879629,31.254524 c -0.215693,0.215694 -0.504752,0.323354 -0.785572,0.323354 -0.280828,0 -0.570074,-0.107847 -0.785581,-0.323354 L 33.39203,32.008623 c 0.509354,-0.5492 0.972542,-1.127318 1.393207,-1.73513 l 18.471699,18.46806 c 0.431387,0.431386 0.431387,1.135175 1.87e-4,1.566365 z"
   id="path2"
   style="stroke-width:0.191557;fill:#f2f2f2" />
</svg>
