<?xml version="1.0" encoding="UTF-8" standalone="no"?>
<svg
   viewBox="0 0 24 24"
   version="1.1"
   id="svg10"
   sodipodi:docname="KtRemoveFilters.svg"
   inkscape:version="1.2.2 (b0a8486541, 2022-12-01)"
   xmlns:inkscape="http://www.inkscape.org/namespaces/inkscape"
   xmlns:sodipodi="http://sodipodi.sourceforge.net/DTD/sodipodi-0.dtd"
   xmlns="http://www.w3.org/2000/svg"
   xmlns:svg="http://www.w3.org/2000/svg">
  <sodipodi:namedview
     id="namedview12"
     pagecolor="#505050"
     bordercolor="#ffffff"
     borderopacity="1"
     inkscape:showpageshadow="0"
     inkscape:pageopacity="0"
     inkscape:pagecheckerboard="1"
     inkscape:deskcolor="#505050"
     showgrid="false"
     inkscape:zoom="9.8333333"
     inkscape:cx="-7.3220339"
     inkscape:cy="12.050847"
     inkscape:window-width="1366"
     inkscape:window-height="694"
     inkscape:window-x="0"
     inkscape:window-y="0"
     inkscape:window-maximized="1"
     inkscape:current-layer="svg10" />
  <defs
     id="defs3051">
    <style
       type="text/css"
       id="current-color-scheme">
      .ColorScheme-Text {
        color:#232629;
      }
      </style>
  </defs>
  <path
     style="fill:#f2f2f2;fill-opacity:1;stroke:none"
     d="M 6,4 5,5 v 1 0.3046875 l 5,7.0625005 V 17 17.039062 L 13.990234,20 H 14 V 13.367188 L 19,6.3046875 V 5 L 18,4 Z M 6,5 H 18 V 5.9882812 L 13.035156,13 H 13 V 13.048828 14 18.019531 L 11,16.535156 V 14 13.048828 13 h -0.03516 L 6,5.9882812 Z M 7,6 9,9 V 7 l 2,-1 z"
     class="ColorScheme-Text"
     id="path4" />
  <path
     style="fill:#da4453;fill-opacity:1;stroke:none"
     d="M 15.990234,14 15,14.990234 17.009766,17 15,19.009766 15.990234,20 18,17.990234 20.009766,20 21,19.009766 18.990234,17 21,14.990234 20.009766,14 18,16.009766 Z"
     id="path6" />
</svg>
