<?xml version="1.0" encoding="UTF-8" standalone="no"?>
<svg
   viewBox="0 0 24 24"
   width="24"
   height="24"
   version="1.1"
   id="svg8"
   sodipodi:docname="LabplotWorkbook.svg"
   inkscape:version="1.2.2 (b0a8486541, 2022-12-01)"
   xmlns:inkscape="http://www.inkscape.org/namespaces/inkscape"
   xmlns:sodipodi="http://sodipodi.sourceforge.net/DTD/sodipodi-0.dtd"
   xmlns="http://www.w3.org/2000/svg"
   xmlns:svg="http://www.w3.org/2000/svg">
  <sodipodi:namedview
     id="namedview10"
     pagecolor="#505050"
     bordercolor="#ffffff"
     borderopacity="1"
     inkscape:showpageshadow="0"
     inkscape:pageopacity="0"
     inkscape:pagecheckerboard="1"
     inkscape:deskcolor="#505050"
     showgrid="false"
     inkscape:zoom="9.8333333"
     inkscape:cx="2.3389831"
     inkscape:cy="12.050847"
     inkscape:window-width="1366"
     inkscape:window-height="694"
     inkscape:window-x="0"
     inkscape:window-y="0"
     inkscape:window-maximized="1"
     inkscape:current-layer="svg8" />
  <defs
     id="defs3051">
    <style
       type="text/css"
       id="current-color-scheme">
      .ColorScheme-Text {
        color:#232629;
      }
      </style>
  </defs>
  <g
     transform="translate(1,1)"
     id="g6"
     style="fill:#f2f2f2">
    <path
       style="fill:#f2f2f2;fill-opacity:1;stroke:none"
       d="M 4 3 L 4 4 L 4 5 L 3 5 L 3 8 L 4 8 L 4 14 L 3 14 L 3 17 L 4 17 L 4 19 L 5 19 L 6 19 L 6 18 L 5 18 L 5 4 L 18 4 L 18 6 L 19 6 L 19 4 L 19 3 L 4 3 z M 13 7 A 6 2 0 0 0 7 9 L 7 17 A 6 2 0 0 0 13 19 A 6 2 0 0 0 19 17 L 19 9 A 6 2 0 0 0 13 7 z M 13 8 A 5 1 0 0 1 18 9 A 5 1 0 0 1 13 10 A 5 1 0 0 1 8 9 A 5 1 0 0 1 13 8 z M 8 10.101562 A 6 2 0 0 0 13 11 A 6 2 0 0 0 18 10.103516 L 18 13 A 5 1 0 0 1 13 14 A 5 1 0 0 1 8 13 L 8 10.101562 z M 8 14.101562 A 6 2 0 0 0 13 15 A 6 2 0 0 0 18 14.103516 L 18 17 A 5 1 0 0 1 13 18 A 5 1 0 0 1 8 17 L 8 14.101562 z "
       class="ColorScheme-Text"
       id="path4" />
  </g>
</svg>
