<?xml version="1.0" encoding="UTF-8" standalone="no"?>
<svg
   viewBox="0 0 512 512"
   version="1.1"
   id="svg1"
   sodipodi:docname="Music.svg"
   inkscape:version="1.3 (0e150ed6c4, 2023-07-21)"
   xmlns:inkscape="http://www.inkscape.org/namespaces/inkscape"
   xmlns:sodipodi="http://sodipodi.sourceforge.net/DTD/sodipodi-0.dtd"
   xmlns="http://www.w3.org/2000/svg"
   xmlns:svg="http://www.w3.org/2000/svg">
  <defs
     id="defs1" />
  <sodipodi:namedview
     id="namedview1"
     pagecolor="#505050"
     bordercolor="#eeeeee"
     borderopacity="1"
     inkscape:showpageshadow="0"
     inkscape:pageopacity="0"
     inkscape:pagecheckerboard="0"
     inkscape:deskcolor="#d1d1d1"
     inkscape:zoom="0.87695312"
     inkscape:cx="256"
     inkscape:cy="255.42985"
     inkscape:window-width="1366"
     inkscape:window-height="695"
     inkscape:window-x="0"
     inkscape:window-y="0"
     inkscape:window-maximized="1"
     inkscape:current-layer="svg1" />
  <!-- Font Awesome Free 5.15.4 by @fontawesome - https://fontawesome.com License - https://fontawesome.com/license/free (Icons: CC BY 4.0, Fonts: SIL OFL 1.1, Code: MIT License) -->
  <path
     d="M 429.6478,49.865927 170.4721,126.40283 a 25.92,25.92 0 0 0 -18.1521,24.7131 v 211.7421 a 112.59,112.59 0 0 0 -25.92,-3.1752 c -42.93,0 -77.76,23.2146 -77.76,51.84 0,28.6254 34.83,51.84 77.76,51.84 42.93,0 77.76,-23.2146 77.76,-51.84 v -189.2808 l 207.36,-60.75 v 149.5341 a 112.104,112.104 0 0 0 -25.92,-3.1833 c -42.93,0 -77.76,23.2146 -77.76,51.84 0,28.6254 34.83,51.84 77.76,51.84 42.93,0 77.76,-23.2065 77.76,-51.84 V 74.562827 a 25.92,25.92 0 0 0 -33.7122,-24.6969 z"
     id="path1"
     style="fill:#f2f2f2;stroke-width:0.81" />
</svg>
