<?xml version="1.0" encoding="UTF-8" standalone="no"?>
<svg
   viewBox="0 0 16 16"
   version="1.1"
   id="svg6"
   sodipodi:docname="not.svg"
   inkscape:version="1.2.1 (9c6d41e410, 2022-07-14, custom)"
   inkscape:export-filename="not.png"
   inkscape:export-xdpi="384"
   inkscape:export-ydpi="384"
   xml:space="preserve"
   xmlns:inkscape="http://www.inkscape.org/namespaces/inkscape"
   xmlns:sodipodi="http://sodipodi.sourceforge.net/DTD/sodipodi-0.dtd"
   xmlns="http://www.w3.org/2000/svg"
   xmlns:svg="http://www.w3.org/2000/svg"><sodipodi:namedview
     id="namedview8"
     pagecolor="#505050"
     bordercolor="#ffffff"
     borderopacity="1"
     inkscape:showpageshadow="0"
     inkscape:pageopacity="0"
     inkscape:pagecheckerboard="1"
     inkscape:deskcolor="#505050"
     showgrid="false"
     inkscape:zoom="14.75"
     inkscape:cx="7.9661017"
     inkscape:cy="8"
     inkscape:window-width="1366"
     inkscape:window-height="694"
     inkscape:window-x="0"
     inkscape:window-y="0"
     inkscape:window-maximized="1"
     inkscape:current-layer="svg6" /><defs
     id="defs3051"><style
       type="text/css"
       id="current-color-scheme">
      .ColorScheme-Text {
        color:#232629;
      }
      .ColorScheme-NegativeText {
        color:#da4453;
      }
      </style><style
       type="text/css"
       id="current-color-scheme-0">
      .ColorScheme-Text {
        color:#232629;
      }
      </style></defs><g
     id="g49793"
     transform="matrix(1.2829215,0,0,1.2829215,-2.2635133,-2.2635133)"><circle
       style="fill:#d45500;stroke:none;stroke-width:2.27856"
       id="path45516"
       cx="8.0004997"
       cy="8.0004997"
       r="5.9835" /><path
       style="fill:#ffffff;fill-opacity:1;stroke:none;stroke-width:0.553635"
       d="m 8.0000001,3.5709169 c -2.4537111,0 -4.4290834,1.9753722 -4.4290834,4.4290833 0,2.4537108 1.9753723,4.4290828 4.4290834,4.4290828 2.4537109,0 4.4290829,-1.975372 4.4290829,-4.4290828 0,-2.4537111 -1.975372,-4.4290834 -4.4290829,-4.4290834 m 0,0.5536354 c 2.1469979,0 3.8754479,1.7284503 3.8754479,3.875448 0,2.1469978 -1.72845,3.8754478 -3.8754479,3.8754478 -2.1469977,0 -3.8754479,-1.72845 -3.8754479,-3.8754478 0,-2.1469977 1.7284502,-3.875448 3.8754479,-3.875448 M 7.4463646,4.6781876 V 8.5536357 H 8.0000001 10.768177 V 8.0000002 H 8.0000001 V 4.6781876 H 7.4463646"
       class="ColorScheme-Text"
       id="path49155" /></g></svg>
