<?xml version="1.0" encoding="UTF-8" standalone="no"?>
<!-- Created with Inkscape (http://www.inkscape.org/) -->

<svg
   width="255.99998"
   height="128"
   viewBox="0 0 67.733321 33.866667"
   version="1.1"
   id="svg5"
   inkscape:version="1.3 (0e150ed6c4, 2023-07-21)"
   sodipodi:docname="PackagesDB.svg"
   xml:space="preserve"
   inkscape:export-filename="../../../Επιφάνεια εργασίας/PreamblesDB.svg"
   inkscape:export-xdpi="102.557"
   inkscape:export-ydpi="102.557"
   xmlns:inkscape="http://www.inkscape.org/namespaces/inkscape"
   xmlns:sodipodi="http://sodipodi.sourceforge.net/DTD/sodipodi-0.dtd"
   xmlns="http://www.w3.org/2000/svg"
   xmlns:svg="http://www.w3.org/2000/svg"><sodipodi:namedview
     id="namedview7"
     pagecolor="#505050"
     bordercolor="#eeeeee"
     borderopacity="1"
     inkscape:showpageshadow="0"
     inkscape:pageopacity="0"
     inkscape:pagecheckerboard="0"
     inkscape:deskcolor="#505050"
     inkscape:document-units="mm"
     showgrid="false"
     inkscape:zoom="2.3786088"
     inkscape:cx="45.194485"
     inkscape:cy="77.145935"
     inkscape:window-width="1366"
     inkscape:window-height="694"
     inkscape:window-x="0"
     inkscape:window-y="0"
     inkscape:window-maximized="1"
     inkscape:current-layer="layer1" /><defs
     id="defs2"><rect
       x="7.9878626"
       y="68.10704"
       width="390.31607"
       height="59.552677"
       id="rect387" /><rect
       x="-96.244637"
       y="47.086346"
       width="219.45601"
       height="95.854347"
       id="rect369" /></defs><g
     inkscape:label="Στρώση 1"
     inkscape:groupmode="layer"
     id="layer1"><g
       aria-label="Organize in a new DataTeX database your custom LaTeX packages. "
       transform="matrix(0.2587881,0,0,0.2587881,-18.677355,0.61536352)"
       id="text385"
       style="font-size:18.6667px;line-height:0.75;font-family:KerkisSans;-inkscape-font-specification:KerkisSans;text-align:center;white-space:pre;shape-inside:url(#rect387);display:inline;fill:#f2f2f2" /><g
       aria-label="Packages"
       transform="matrix(0.33271755,0,0,0.33271755,47.885321,-8.3801323)"
       id="text367"
       style="font-size:40px;line-height:1.25;white-space:pre;shape-inside:url(#rect369);display:inline;fill:#f2f2f2"><path
         d="m -83.536448,74.680945 q -1.476923,0.923077 -4.8,0.984615 h -0.83077 -1.015384 v 7.815385 h -4.338462 V 62.434791 h 5.415385 q 3.753846,0 5.507692,0.984615 2.707693,1.6 2.923077,5.046154 0.03077,0.276923 0.03077,0.553846 0,3.169231 -2.030769,5.015385 l -0.03077,0.03077 q -0.03077,0.03077 -0.03077,0.03077 z m -3.138462,-7.969231 q -0.738461,-0.184615 -2.430769,-0.184615 h -1.107692 v 5.015384 h 0.953846 q 2.276923,0 3.076923,-0.4 1.169231,-0.615384 1.169231,-2.061538 0,-1.753846 -1.446154,-2.307692 z"
         style="font-weight:bold;font-family:KerkisSans;-inkscape-font-specification:'KerkisSans Bold'"
         id="path10073" /><path
         d="m -66.582572,83.480945 v -1.661539 q -1.938461,1.938462 -5.015384,2.03077 -3.846154,0 -6.184616,-2.707693 -1.907692,-2.215384 -1.907692,-5.415384 0,-3.907693 2.707692,-6.276923 2.246154,-1.969231 5.476923,-1.969231 3.076923,0 4.892308,2.030769 v -1.661538 h 3.876923 V 83.480945 Z M -71.105649,71.26556 q -2.461538,0 -3.661538,1.969231 -0.707693,1.107692 -0.707693,2.584615 0,2.492308 1.969231,3.63077 1.076923,0.615384 2.461539,0.615384 2.092307,0 3.230769,-1.292307 1.107692,-1.261539 1.107692,-2.984616 0,-2.615384 -1.969231,-3.846154 -1.046153,-0.676923 -2.430769,-0.676923 z"
         style="font-weight:bold;font-family:KerkisSans;-inkscape-font-specification:'KerkisSans Bold'"
         id="path10070" /><path
         d="m -52.521054,83.850176 q -3.723077,0 -6.246154,-2.553847 -2.338461,-2.36923 -2.338461,-5.630769 0,-3.6 2.676923,-6.030769 2.4,-2.153846 5.784615,-2.153846 3.446154,0 5.907692,2.215384 1.292308,1.169231 1.938462,2.8 0.153846,0.369231 0.307692,0.861539 h -4.646154 q -1.107692,-2.092308 -3.507692,-2.092308 -2.369231,0 -3.569231,1.876923 -0.676923,1.076923 -0.676923,2.492308 0,2.461538 1.876923,3.723077 1.076923,0.707692 2.461539,0.707692 2,0 3.2,-1.630769 0.123077,-0.184615 0.246154,-0.369231 h 4.646153 q -1.753846,4.584616 -6,5.569231 -0.984615,0.215385 -2.061538,0.215385 z"
         style="font-weight:bold;font-family:KerkisSans;-inkscape-font-specification:'KerkisSans Bold'"
         id="path10067" /><path
         d="m -33.197969,83.480945 -4.984616,-6.738462 v 6.738462 h -4.215384 V 62.650176 h 4.184615 v 11.846153 l 4.676923,-6.76923 h 5.015385 l -5.753846,7.723077 6.676923,8.030769 z"
         style="font-weight:bold;font-family:KerkisSans;-inkscape-font-specification:'KerkisSans Bold'"
         id="path10064" /><path
         d="m -13.628775,83.480945 v -1.661539 q -1.938462,1.938462 -5.015385,2.03077 -3.846154,0 -6.184615,-2.707693 -1.907693,-2.215384 -1.907693,-5.415384 0,-3.907693 2.707693,-6.276923 2.246153,-1.969231 5.476923,-1.969231 3.076923,0 4.892307,2.030769 v -1.661538 h 3.8769234 V 83.480945 Z M -18.151852,71.26556 q -2.461539,0 -3.661539,1.969231 -0.707692,1.107692 -0.707692,2.584615 0,2.492308 1.969231,3.63077 1.076923,0.615384 2.461538,0.615384 2.092308,0 3.230769,-1.292307 1.107693,-1.261539 1.107693,-2.984616 0,-2.615384 -1.969231,-3.846154 -1.046154,-0.676923 -2.430769,-0.676923 z"
         style="font-weight:bold;font-family:KerkisSans;-inkscape-font-specification:'KerkisSans Bold'"
         id="path10061" /><path
         d="m 7.0481269,86.834791 q -2.2461538,2.892308 -6.67692305,2.892308 -4.98461535,0 -7.44615385,-3.63077 -0.5230769,-0.76923 -0.8923077,-1.661538 h 4.6461539 q 1.3230769,1.415385 3.07692303,1.569231 L 0.52505,86.034791 q 3.6923077,0 4.0923077,-4.092308 -1.9384615,2.03077 -4.86153847,2.03077 -3.81538463,0 -6.06153843,-2.83077 -1.8461539,-2.276923 -1.8461539,-5.538461 0,-3.753846 2.5538462,-6.092308 2.2153846,-2.030769 5.38461536,-2.030769 3.20000004,0 4.86153844,1.938461 v -1.56923 h 4.0307693 v 12.646153 q 0,4.276924 -1.6307693,6.338462 z M 0.21735769,71.26556 q -2.52307689,0 -3.59999999,2.092308 -0.5538462,1.046154 -0.5538462,2.430769 0,2.8 2.0615385,3.876923 0.92307692,0.492308 2.12307692,0.492308 2.64615388,0 3.75384618,-2.061539 0.5230769,-1.015384 0.5230769,-2.307692 0,-2.676923 -2,-3.907692 Q 1.5096654,71.26556 0.21735769,71.26556 Z"
         style="font-weight:bold;font-family:KerkisSans;-inkscape-font-specification:'KerkisSans Bold'"
         id="path10058" /><path
         d="M 26.986568,77.511714 H 15.017337 q 0.615385,1.938462 2.8,2.430769 0.584615,0.123077 1.230769,0.123077 1.846154,0 3.015385,-1.138461 0.153846,-0.153846 0.338461,-0.369231 h 4.461539 q -0.430769,1.353846 -1.353846,2.461538 -2.461539,2.83077 -6.369231,2.83077 -3.907692,0 -6.461539,-2.615385 -2.246153,-2.307692 -2.246153,-5.507692 0,-3.6 2.646153,-6.03077 2.43077,-2.215384 5.815385,-2.215384 3.876923,0 6.276923,2.738461 2.030769,2.338462 2.030769,5.661539 0,0.646154 -0.215384,1.630769 z M 18.955799,71.26556 q -3.107693,0 -4.061539,2.584616 h 8.092308 Q 22.248106,71.26556 18.955799,71.26556 Z"
         style="font-weight:bold;font-family:KerkisSans;-inkscape-font-specification:'KerkisSans Bold'"
         id="path10055" /><path
         d="m 34.125037,83.850176 q -2.769231,0 -4.492308,-1.784616 l -0.36923,-0.430769 q -0.83077,-1.138462 -1.076923,-3.169231 l -0.03077,-0.246154 h 4.184616 q 0.461538,1.6 1.415384,1.784616 l 0.492308,0.06154 q 1.169231,0 1.446154,-0.892307 l 0.06154,-0.369231 q 0,-1.015385 -2.092307,-1.630769 0.09231,0.03077 -0.246154,-0.06154 l -0.03077,-0.03077 -0.153847,-0.03077 q -3.415384,-1.138462 -4.215384,-2.984616 -0.307693,-0.738461 -0.307693,-1.723077 0,-2.4 2.061539,-3.846154 1.476923,-1.015384 3.353846,-1.015384 2.584615,0 4.184615,1.753846 1.046154,1.107692 1.169231,2.984615 v 0.03077 l 0.03077,0.215384 h -4.061538 q -0.307692,-1.2 -1.323077,-1.2 -0.892308,0 -1.169231,0.738462 v 0.03077 l -0.03077,0.03077 q -0.03077,0.123077 -0.03077,0.276923 0,0.584616 1.046154,0.984616 v 0 h 0.03077 q 0,0 0.09231,0.03077 l 2.738461,0.892308 q 0.984616,0.4 1.569231,0.892307 1.538461,1.2 1.538461,3.292308 0,2.615385 -2.123076,4.246154 -1.6,1.169231 -3.661539,1.169231 z"
         style="font-weight:bold;font-family:KerkisSans;-inkscape-font-specification:'KerkisSans Bold'"
         id="path10052" /></g><path
       d="m 9.9161581,12.435887 -2.9114715,1.091802 c -0.261752,0.09798 -0.435321,0.349937 -0.435321,0.629886 v 3.150829 c 0,0.254754 0.1441739,0.487111 0.370933,0.600491 l 2.9114715,1.455736 c 0.1889659,0.09518 0.4115259,0.09518 0.6004909,0 l 2.911473,-1.455736 c 0.228158,-0.11338 0.370932,-0.347137 0.370932,-0.600491 v -3.150829 c 0,-0.279949 -0.173568,-0.530504 -0.435321,-0.628486 l -2.911472,-1.091802 c -0.151173,-0.05879 -0.319142,-0.05879 -0.4717149,-0.0014 z m 0.2365579,0.869242 2.687512,1.007818 v 0.0154 l -2.687512,1.091802 -2.6875125,-1.091802 v -0.0154 z m 0.447918,4.983097 v -2.084222 l 2.239594,-0.909835 v 1.87426 z"
       id="path2"
       style="fill:#f2f2f2;stroke-width:0.0139974" /></g><style
     type="text/css"
     id="current-color-scheme">&#10;        .ColorScheme-Text {&#10;            color:#232629;&#10;        }&#10;    </style></svg>
