<?xml version="1.0" encoding="UTF-8" standalone="no"?>
<svg
   width="128"
   viewBox="0 0 128 128"
   height="128"
   id="svg2"
   version="1.1"
   inkscape:version="1.2.2 (b0a8486541, 2022-12-01)"
   sodipodi:docname="Pdf.svg"
   inkscape:export-filename="/home/Spyros/texstudio-3.0.1/images-ng/pdf.png"
   inkscape:export-xdpi="102"
   inkscape:export-ydpi="102"
   xml:space="preserve"
   xmlns:inkscape="http://www.inkscape.org/namespaces/inkscape"
   xmlns:sodipodi="http://sodipodi.sourceforge.net/DTD/sodipodi-0.dtd"
   xmlns="http://www.w3.org/2000/svg"
   xmlns:svg="http://www.w3.org/2000/svg"
   xmlns:rdf="http://www.w3.org/1999/02/22-rdf-syntax-ns#"
   xmlns:cc="http://creativecommons.org/ns#"
   xmlns:dc="http://purl.org/dc/elements/1.1/"><metadata
     id="metadata24"><rdf:RDF><cc:Work
         rdf:about=""><dc:format>image/svg+xml</dc:format><dc:type
           rdf:resource="http://purl.org/dc/dcmitype/StillImage" /></cc:Work></rdf:RDF></metadata><defs
     id="defs22"><rect
       x="-19.409721"
       y="-10.299691"
       width="51.062214"
       height="40.68856"
       id="rect849" /><clipPath
       id="clipPath4157"
       clipPathUnits="userSpaceOnUse"><path
         style="fill:#f9f8f2;fill-opacity:1;stroke-width:1.00658"
         inkscape:connector-curvature="0"
         id="path4159"
         d="M 27.642964,3.2951379 40.728548,16.380722 H 29.65613 c -0.977824,0 -2.013166,-1.035372 -2.013166,-2.013167 z" /></clipPath></defs><sodipodi:namedview
     pagecolor="#000000"
     bordercolor="#555555"
     borderopacity="1"
     objecttolerance="10"
     gridtolerance="10"
     guidetolerance="10"
     inkscape:pageopacity="0"
     inkscape:pageshadow="2"
     inkscape:window-width="1366"
     inkscape:window-height="694"
     id="namedview20"
     showgrid="false"
     inkscape:zoom="3.1256606"
     inkscape:cx="32.313169"
     inkscape:cy="66.066034"
     inkscape:window-x="0"
     inkscape:window-y="0"
     inkscape:window-maximized="1"
     inkscape:current-layer="svg2"
     inkscape:document-rotation="0"
     inkscape:showpageshadow="false"
     inkscape:pagecheckerboard="1"
     inkscape:deskcolor="#d1d1d1" /><path
     id="path843"
     style="fill:#f2f2f2;stroke:none;stroke-width:8.28585;stroke-linecap:butt;stroke-linejoin:round;stroke-miterlimit:4;stroke-dasharray:none;stroke-opacity:1"
     d="M 23.911998,17.387499 V 110.6125 L 104.088,110.5402 V 33.205567 L 87.136319,17.387499 Z m 36.549304,19.267776 h 0.01941 l 0.938047,0.02763 c 1.587892,-0.0625 2.601652,1.115872 3.118194,2.231789 l 0.161733,0.39322 c 0.133918,0.366022 0.183187,0.498636 0.250145,0.962857 0.497412,3.410244 -1.397364,13.480004 -1.397364,13.480004 -0.09566,0.374948 -0.191425,0.740945 -0.306213,1.16053 1.760071,4.490451 4.571934,8.570436 7.948595,11.507528 1.253095,1.098063 2.851641,2.009443 4.40127,2.839686 3.46275,-0.455295 6.75252,-0.679315 9.488283,-0.652533 4.03669,0.05357 6.687262,0.633806 7.892529,1.740795 0.420887,0.383875 0.812863,0.956047 0.879822,1.411341 0.210443,1.553357 0.05766,3.070068 -0.726716,4.168132 -0.401757,0.553494 -1.05168,0.964128 -1.826494,1.16053 -0.497412,0.124981 -1.119855,0.18917 -1.837277,0.18917 -4.036688,0 -10.427038,-1.90228 -15.621167,-4.625117 -6.820283,0.946297 -14.607207,2.677254 -21.437055,4.748397 -5.921114,9.641522 -10.215696,13.945491 -13.917588,13.945491 -0.688724,0 -1.366739,-0.151755 -2.007635,-0.446359 l -1.474996,-0.69717 c -0.927864,-0.491005 -1.06157,-1.552034 -0.879823,-2.391203 0.573938,-2.606782 4.018135,-5.891863 9.212263,-8.793247 0.612198,-0.339239 3.223362,-1.634094 3.33815,-1.687657 l 1.522439,-0.750306 c 1.482669,-2.356817 3.107538,-5.142825 4.905874,-8.419157 l 0.219956,-0.401723 c 1.702679,-3.11564 3.635364,-6.651084 5.175429,-10.168454 l 0.554202,-1.249802 C 56.90305,48.662139 55.716508,42.725393 56.864382,38.761654 57.247006,37.502901 58.6821,36.655271 60.461304,36.655271 Z m 0.623208,1.78543 c -0.54524,0 -0.498136,3.972585 -0.498136,3.972585 0,2.080068 0.325738,5.258052 1.004897,7.27563 0.813076,-1.365882 1.47201,-3.20352 1.414616,-5.828156 -0.05739,-2.624637 -0.735242,-5.420059 -1.921377,-5.420059 z m 0.103508,22.247746 c -1.00439,2.437162 -2.361141,5.400852 -4.513404,9.194969 -0.880038,1.544429 -1.742568,3.007573 -2.574776,4.391309 4.553232,-1.633702 9.728915,-2.980797 15.707423,-4.078859 -0.401754,-0.294602 -0.793567,-0.590037 -1.166627,-0.875711 -2.936643,-2.321108 -5.443837,-5.221466 -7.452616,-8.631708 z m 23.906165,11.025035 c -1.186137,0 -2.516952,0.0527 -3.961359,0.150911 3.759286,1.508721 6.446633,2.429462 8.608461,2.429462 0.669593,0 1.713148,-0.126251 2.076642,-0.33158 0.373058,-0.214256 0.344511,-1.24044 -1.779055,-1.749297 -2.133132,-0.508859 -2.773295,-0.499496 -4.944689,-0.499496 z m -38.692794,7.64122 c -0.554806,0.499931 -1.168068,1.036821 -1.416773,1.224295 -3.950599,3.017439 -6.627761,6.426241 -7.297355,8.149217 1.817468,-0.776678 4.581783,-3.222578 8.714128,-9.373512 z" /><g
     id="g26"
     transform="matrix(0.86637971,0,0,0.82032995,8.5528147,5.2397657)"
     style="fill:#f2f2f2;fill-opacity:1;stroke:#f2f2f2;stroke-width:1.06591;stroke-dasharray:none;stroke-opacity:1"><g
       id="g24"
       style="fill:#f2f2f2;fill-opacity:1;stroke:#f2f2f2;stroke-width:1.06591;stroke-dasharray:none;stroke-opacity:1" /></g></svg>
