<?xml version="1.0" encoding="UTF-8" standalone="no"?>
<!-- Created with Inkscape (http://www.inkscape.org/) -->

<svg
   width="255.99998"
   height="128"
   viewBox="0 0 67.733321 33.866667"
   version="1.1"
   id="svg5"
   xml:space="preserve"
   sodipodi:docname="PreamblesDB.svg"
   inkscape:version="1.3 (0e150ed6c4, 2023-07-21)"
   xmlns:inkscape="http://www.inkscape.org/namespaces/inkscape"
   xmlns:sodipodi="http://sodipodi.sourceforge.net/DTD/sodipodi-0.dtd"
   xmlns="http://www.w3.org/2000/svg"
   xmlns:svg="http://www.w3.org/2000/svg"><sodipodi:namedview
     id="namedview8682"
     pagecolor="#505050"
     bordercolor="#eeeeee"
     borderopacity="1"
     inkscape:showpageshadow="0"
     inkscape:pageopacity="0"
     inkscape:pagecheckerboard="0"
     inkscape:deskcolor="#505050"
     showgrid="false"
     inkscape:zoom="1.3037281"
     inkscape:cx="-21.093355"
     inkscape:cy="57.910848"
     inkscape:window-width="1366"
     inkscape:window-height="694"
     inkscape:window-x="0"
     inkscape:window-y="0"
     inkscape:window-maximized="1"
     inkscape:current-layer="svg5" /><defs
     id="defs2"><rect
       x="7.9878626"
       y="68.10704"
       width="390.31607"
       height="59.552677"
       id="rect387" /><rect
       x="-96.244637"
       y="47.086346"
       width="219.45601"
       height="95.854347"
       id="rect369" /><rect
       x="7.9878626"
       y="68.10704"
       width="390.31607"
       height="59.552677"
       id="rect387-7" /><rect
       x="7.9878626"
       y="68.10704"
       width="390.31607"
       height="59.552677"
       id="rect387-3" /></defs><g
     aria-label="Store the preambles you use to compile your projects in a new DataTeX database."
     transform="matrix(0.2587881,0,0,0.2587881,-18.697801,0.15418891)"
     id="text385"
     style="font-size:18.6667px;line-height:0.75;font-family:KerkisSans;-inkscape-font-specification:KerkisSans;text-align:center;white-space:pre;shape-inside:url(#rect387);display:inline;fill:#f2f2f2" /><g
     aria-label="Preambles"
     transform="matrix(0.33271755,0,0,0.33271755,46.86491,-7.402456)"
     id="text367"
     style="font-size:40px;line-height:1.25;white-space:pre;shape-inside:url(#rect369);display:inline;fill:#f2f2f2"><path
       d="m -83.536448,74.680945 q -1.476923,0.923077 -4.8,0.984615 h -0.83077 -1.015384 v 7.815385 h -4.338462 V 62.434791 h 5.415385 q 3.753846,0 5.507692,0.984615 2.707693,1.6 2.923077,5.046154 0.03077,0.276923 0.03077,0.553846 0,3.169231 -2.030769,5.015385 l -0.03077,0.03077 q -0.03077,0.03077 -0.03077,0.03077 z m -3.138462,-7.969231 q -0.738461,-0.184615 -2.430769,-0.184615 h -1.107692 v 5.015384 h 0.953846 q 2.276923,0 3.076923,-0.4 1.169231,-0.615384 1.169231,-2.061538 0,-1.753846 -1.446154,-2.307692 z"
       style="font-weight:bold;font-family:KerkisSans;-inkscape-font-specification:'KerkisSans Bold'"
       id="path9338" /><path
       d="m -74.797956,74.834791 v 8.646154 h -4.215385 V 67.850176 h 3.876923 v 1.046153 q 1.076923,-1.323076 2.769231,-1.415384 h 0.4 0.523077 v 3.938461 q -2.892308,0.03077 -3.292308,2.43077 z"
       style="font-weight:bold;font-family:KerkisSans;-inkscape-font-specification:'KerkisSans Bold'"
       id="path9335" /><path
       d="m -54.151814,77.511714 h -11.969231 q 0.615385,1.938462 2.8,2.430769 0.584615,0.123077 1.230769,0.123077 1.846154,0 3.015385,-1.138461 0.153846,-0.153846 0.338461,-0.369231 h 4.461539 q -0.430769,1.353846 -1.353846,2.461538 -2.461539,2.83077 -6.369231,2.83077 -3.907692,0 -6.461538,-2.615385 -2.246154,-2.307692 -2.246154,-5.507692 0,-3.6 2.646154,-6.03077 2.430769,-2.215384 5.815384,-2.215384 3.876923,0 6.276923,2.738461 2.030769,2.338462 2.030769,5.661539 0,0.646154 -0.215384,1.630769 z m -8.030769,-6.246154 q -3.107693,0 -4.061539,2.584616 h 8.092308 q -0.738462,-2.584616 -4.030769,-2.584616 z"
       style="font-weight:bold;font-family:KerkisSans;-inkscape-font-specification:'KerkisSans Bold'"
       id="path9332" /><path
       d="m -39.567191,83.480945 v -1.661539 q -1.938462,1.938462 -5.015385,2.03077 -3.846153,0 -6.184615,-2.707693 -1.907692,-2.215384 -1.907692,-5.415384 0,-3.907693 2.707692,-6.276923 2.246154,-1.969231 5.476923,-1.969231 3.076923,0 4.892308,2.030769 v -1.661538 h 3.876923 V 83.480945 Z M -44.090268,71.26556 q -2.461538,0 -3.661538,1.969231 -0.707693,1.107692 -0.707693,2.584615 0,2.492308 1.969231,3.63077 1.076923,0.615384 2.461539,0.615384 2.092307,0 3.230769,-1.292307 1.107692,-1.261539 1.107692,-2.984616 0,-2.615384 -1.969231,-3.846154 -1.046154,-0.676923 -2.430769,-0.676923 z"
       style="font-weight:bold;font-family:KerkisSans;-inkscape-font-specification:'KerkisSans Bold'"
       id="path9329" /><path
       d="m -13.690289,83.480945 v -8.553846 q 0,-2.03077 -0.676923,-2.8 -0.738461,-0.892308 -2.061538,-0.892308 -1.692308,0 -2.430769,1.353846 -0.492308,0.892308 -0.492308,3.2 v 7.692308 h -4.184615 v -8.553846 q 0,-2.061539 -0.615385,-2.8 -0.738462,-0.892308 -2.246154,-0.892308 -1.784615,0 -2.430769,1.476923 -0.369231,0.738462 -0.369231,3.076923 v 7.692308 h -4.215385 V 67.850176 h 3.876924 v 1.107692 q 1.476923,-1.476923 3.846153,-1.476923 3.076923,0 4.615385,2.246154 1.846154,-2.246154 5.015385,-2.246154 3.415384,0 5.138461,2.092308 l 0.03077,0.03077 0.307693,0.4 q 1.0769228,1.692307 1.0769228,4.492307 v 8.984616 z"
       style="font-weight:bold;font-family:KerkisSans;-inkscape-font-specification:'KerkisSans Bold'"
       id="path9326" /><path
       d="m 8.1250979,81.080945 q -2.1846154,2.769231 -5.9692308,2.769231 -2.9230769,0 -4.8307692,-1.692308 -0.1538462,-0.153846 -0.3384615,-0.338462 v 1.661539 H -6.921056 V 62.650176 h 4.1846154 v 6.246153 q 1.93846157,-1.692307 4.6461539,-1.692307 3.7230769,0 6.0615384,2.676923 2.0307693,2.338461 2.0307693,5.630769 0,3.2 -1.8769231,5.569231 z M 1.3866364,70.988637 q -2.4,0 -3.6307693,1.907692 -0.7076923,1.138462 -0.7076923,2.615385 0,2.646154 1.96923078,3.876923 1.04615385,0.676923 2.43076922,0.676923 2.4923077,0 3.6923077,-1.969231 0.6769231,-1.107692 0.6769231,-2.584615 0,-2.461538 -1.8769231,-3.753846 -1.1076923,-0.769231 -2.5538461,-0.769231 z"
       style="font-weight:bold;font-family:KerkisSans;-inkscape-font-specification:'KerkisSans Bold'"
       id="path9323" /><path
       d="m 11.694308,83.480945 -0.03077,-20.830769 h 4.215384 v 20.830769 z"
       style="font-weight:bold;font-family:KerkisSans;-inkscape-font-specification:'KerkisSans Bold'"
       id="path9320" /><path
       d="M 34.278896,77.511714 H 22.309665 q 0.615385,1.938462 2.8,2.430769 0.584615,0.123077 1.230769,0.123077 1.846154,0 3.015385,-1.138461 0.153846,-0.153846 0.338461,-0.369231 h 4.461539 q -0.430769,1.353846 -1.353846,2.461538 -2.461539,2.83077 -6.369231,2.83077 -3.907692,0 -6.461539,-2.615385 -2.246153,-2.307692 -2.246153,-5.507692 0,-3.6 2.646153,-6.03077 2.43077,-2.215384 5.815385,-2.215384 3.876923,0 6.276923,2.738461 2.030769,2.338462 2.030769,5.661539 0,0.646154 -0.215384,1.630769 z m -8.03077,-6.246154 q -3.107692,0 -4.061538,2.584616 h 8.092308 Q 29.540434,71.26556 26.248126,71.26556 Z"
       style="font-weight:bold;font-family:KerkisSans;-inkscape-font-specification:'KerkisSans Bold'"
       id="path9317" /><path
       d="m 41.417365,83.850176 q -2.769231,0 -4.492308,-1.784616 l -0.36923,-0.430769 q -0.83077,-1.138462 -1.076924,-3.169231 l -0.03077,-0.246154 h 4.184616 q 0.461538,1.6 1.415384,1.784616 l 0.492308,0.06154 q 1.169231,0 1.446154,-0.892307 l 0.06154,-0.369231 q 0,-1.015385 -2.092307,-1.630769 0.09231,0.03077 -0.246154,-0.06154 l -0.03077,-0.03077 -0.153846,-0.03077 Q 37.109673,75.911714 36.309673,74.06556 36.00198,73.327099 36.00198,72.342483 q 0,-2.4 2.061539,-3.846154 1.476923,-1.015384 3.353846,-1.015384 2.584615,0 4.184615,1.753846 1.046154,1.107692 1.169231,2.984615 v 0.03077 l 0.03077,0.215384 h -4.061538 q -0.307692,-1.2 -1.323077,-1.2 -0.892308,0 -1.169231,0.738462 v 0.03077 l -0.03077,0.03077 q -0.03077,0.123077 -0.03077,0.276923 0,0.584616 1.046154,0.984616 v 0 h 0.03077 q 0,0 0.09231,0.03077 l 2.738461,0.892308 q 0.984615,0.4 1.569231,0.892307 1.538461,1.2 1.538461,3.292308 0,2.615385 -2.123077,4.246154 -1.6,1.169231 -3.661538,1.169231 z"
       style="font-weight:bold;font-family:KerkisSans;-inkscape-font-specification:'KerkisSans Bold'"
       id="path9314" /></g><g
     id="g2403"
     transform="matrix(0.36936395,0,0,0.36936395,4.2526197,12.500965)"><path
       d="M 3.2832381,4.3728334 V 19.627167 a 1.0895952,1.0895952 0 0 0 1.0895953,1.089595 H 19.627167 a 1.0895952,1.0895952 0 0 0 1.089595,-1.089595 V 4.3728334 A 1.0895952,1.0895952 0 0 0 19.627167,3.2832381 H 4.3728334 A 1.0895952,1.0895952 0 0 0 3.2832381,4.3728334 Z m 2.1791905,0 H 18.537571 a 1.0895952,1.0895952 0 0 1 1.089596,1.0895952 V 18.537571 a 1.0895952,1.0895952 0 0 1 -1.089596,1.089596 H 5.4624286 A 1.0895952,1.0895952 0 0 1 4.3728334,18.537571 V 5.4624286 A 1.0895952,1.0895952 0 0 1 5.4624286,4.3728334 Z"
       id="path3"
       style="color:#232629;fill:#f2f2f2;fill-rule:nonzero;stroke:#f2f2f2;stroke-width:1.63439;stroke-dasharray:none" /><path
       d="M 7.5,6.7929688 6.7929688,7.5 10.292969,11 C 9.1263021,12.166667 7.9596352,13.333333 6.7929688,14.5 L 7.5,15.207031 C 8.9023444,13.804688 10.304687,12.402344 11.707031,11 10.304687,9.5976563 8.9023437,8.1953125 7.5,6.7929688 Z"
       id="path300"
       style="fill:#232629" /><path
       d="M 7.1464466,6.4394154 C 7.003265,6.582597 6.7441,6.841762 6.4394154,7.1464466 a 0.5,0.5 0 0 0 0,0.7071068 C 7.4245035,8.8386415 8.5057127,9.9198506 9.5858622,11 8.4778975,12.107965 7.3936202,13.192242 6.4394154,14.146447 a 0.5,0.5 0 0 0 1e-7,0.707106 c 0.2132218,0.213222 0.4585948,0.458595 0.707031,0.707031 a 0.50000017,0.5 44.999996 0 0 0.7071069,0 c 1.4382209,-1.43822 2.8936956,-2.893695 4.2070306,-4.207031 a 0.5,0.5 0 0 0 0,-0.707106 C 10.247627,8.8334888 8.7055234,7.2913855 7.8535534,6.4394154 Z m 0,0.7071068 C 7.9424669,7.9425425 9.3409531,9.3410288 10.999924,11 c -0.852243,0.852244 -2.1778548,2.177855 -3.4999241,3.499924 0.233935,0.233935 0.1150269,0.115027 7.57e-5,7.6e-5 0.9691031,-0.969103 2.0517673,-2.051767 3.1464464,-3.146446 a 0.5,0.50000086 45 0 0 0,-0.707107 C 9.5776506,9.5775749 8.4973241,8.4972484 7.5000756,7.5 7.6478717,7.3522039 7.7703128,7.2297628 7.8535534,7.1465222 Z"
       id="path5"
       style="color:#232629;fill:#f2f2f2;fill-rule:nonzero;stroke:#f2f2f2;stroke-width:1;stroke-dasharray:none;stroke-opacity:1" /><path
       d="m 11,16 h 6 v 1 h -6 z"
       id="path312"
       style="fill:#232629" /><path
       d="m 11,16.5 c 1.036891,0 3.148927,0 5.5,0 0,-0.335185 0,-0.165189 0,0 -1.135661,0 -3.105745,0 -5,0 0,-0.213983 0,-0.39199 0,-0.5 z M 10.5,16 c 0,0.184986 0,0.575291 0,1 a 0.5,0.5 0 0 0 0.5,0.5 c 2.043541,0 4.219833,0 6,0 A 0.5,0.5 0 0 0 17.5,17 c 0,-0.296695 0,-0.65941 0,-1 A 0.5,0.5 0 0 0 17,15.5 c -2.548253,0 -4.890084,0 -6,0 z"
       id="path7"
       style="color:#232629;fill:#f2f2f2;fill-rule:nonzero;stroke:#f2f2f2;stroke-width:1;stroke-dasharray:none;stroke-opacity:1" /></g><style
     type="text/css"
     id="current-color-scheme">&#10;        .ColorScheme-Text {&#10;            color:#232629;&#10;        }&#10;    </style></svg>
