<?xml version="1.0" encoding="UTF-8" standalone="no"?>
<svg
   width="128"
   viewBox="0 0 128 128"
   height="128"
   id="svg2"
   version="1.1"
   xml:space="preserve"
   xmlns="http://www.w3.org/2000/svg"
   xmlns:svg="http://www.w3.org/2000/svg"
   xmlns:rdf="http://www.w3.org/1999/02/22-rdf-syntax-ns#"
   xmlns:cc="http://creativecommons.org/ns#"
   xmlns:dc="http://purl.org/dc/elements/1.1/"><metadata
     id="metadata24"><rdf:RDF><cc:Work
         rdf:about=""><dc:format>image/svg+xml</dc:format><dc:type
           rdf:resource="http://purl.org/dc/dcmitype/StillImage" /></cc:Work></rdf:RDF></metadata><defs
     id="defs22"><rect
       x="-73.264515"
       y="33.912832"
       width="126.05336"
       height="82.542554"
       id="rect385" /><rect
       x="-19.409721"
       y="-10.299691"
       width="51.062214"
       height="40.68856"
       id="rect849" /><clipPath
       id="clipPath4157"
       clipPathUnits="userSpaceOnUse"><path
         style="fill:#f9f8f2;fill-opacity:1;stroke-width:1.00658"
         id="path4159"
         d="M 27.642964,3.2951379 40.728548,16.380722 H 29.65613 c -0.977824,0 -2.013166,-1.035372 -2.013166,-2.013167 z" /></clipPath><style
       type="text/css"
       id="current-color-scheme">
      .ColorScheme-Text {
        color:#232629;
      }
      </style><rect
       x="-79.663162"
       y="18.236146"
       width="163.80538"
       height="103.65809"
       id="rect483" /><rect
       x="-19.409721"
       y="-10.299691"
       width="51.062214"
       height="40.68856"
       id="rect849-53" /><clipPath
       id="clipPath4157-5"
       clipPathUnits="userSpaceOnUse"><path
         style="fill:#f9f8f2;fill-opacity:1;stroke-width:1.00658"
         id="path4159-6"
         d="M 27.642964,3.2951379 40.728548,16.380722 H 29.65613 c -0.977824,0 -2.013166,-1.035372 -2.013166,-2.013167 z" /></clipPath><rect
       x="-88.504372"
       y="-72.174271"
       width="135.16824"
       height="83.252541"
       id="rect22" /><rect
       x="-63.433308"
       y="31.385223"
       width="136.16743"
       height="133.1088"
       id="rect864" /><rect
       x="-56.385418"
       y="-24.236706"
       width="215.11685"
       height="186.85213"
       id="rect842" /><rect
       x="-19.409721"
       y="-10.299691"
       width="51.062214"
       height="40.68856"
       id="rect849-5" /><clipPath
       id="clipPath4157-3"
       clipPathUnits="userSpaceOnUse"><path
         style="fill:#f9f8f2;fill-opacity:1;stroke-width:1.00658"
         id="path4159-5"
         d="M 27.642964,3.2951379 40.728548,16.380722 H 29.65613 c -0.977824,0 -2.013166,-1.035372 -2.013166,-2.013167 z" /></clipPath></defs><g
     id="g300"
     transform="matrix(1.0224872,0,0,1.0078069,-1.4391828,-0.49964261)"
     style="fill:#ffffff;fill-opacity:1;stroke:none;stroke-width:8.16233;stroke-dasharray:none"><path
       id="path843"
       style="fill:#ffffff;fill-opacity:1;stroke:none;stroke-width:8.16233;stroke-linecap:butt;stroke-linejoin:round;stroke-miterlimit:4;stroke-dasharray:none;stroke-opacity:1"
       d="M 24.79375 17.747806 L 24.79375 110.2522 L 50.055756 110.22894 L 38.33686 98.193989 L 57.03552 79.015588 L 69.881417 92.207522 L 93.884621 67.55816 L 95.701193 65.691871 C 95.268718 65.931551 94.873206 66.056214 94.514977 66.056214 C 93.836893 66.056214 93.04198 65.525461 92.129174 64.467058 L 84.696701 55.815847 L 77.262317 64.467058 C 76.32343 65.525461 75.516394 66.056214 74.83831 66.056214 C 74.186306 66.056214 73.33717 65.592774 72.293963 64.666671 C 71.276836 63.714109 70.769647 62.907617 70.769647 62.246115 C 70.769647 61.584614 71.226433 60.737346 72.139239 59.705403 L 80.001501 50.934037 L 72.139239 42.16267 C 71.226433 41.183648 70.769647 40.34868 70.769647 39.660718 C 70.769647 38.972757 71.276836 38.166265 72.293963 37.240162 C 73.311089 36.2876 74.160226 35.81186 74.83831 35.81186 C 75.542475 35.81186 76.349511 36.340675 77.262317 37.399078 L 84.696701 46.052227 L 92.129174 37.399078 C 93.06806 36.340675 93.862973 35.81186 94.514977 35.81186 C 95.193062 35.81186 96.040288 36.2753 97.057415 37.201402 C 98.074541 38.127505 98.583641 38.946297 98.583641 39.660718 C 98.583641 40.37514 98.140888 41.210108 97.254162 42.16267 L 89.38999 50.934037 L 97.254162 59.705403 C 98.140888 60.710886 98.583641 61.558153 98.583641 62.246115 C 98.583641 62.446009 98.528159 62.657903 98.442288 62.877902 L 102.22825 58.988345 L 103.20625 59.992227 L 103.20625 33.445568 L 86.627883 17.747806 L 24.79375 17.747806 z M 32.272068 36.52698 L 54.023181 36.52698 C 54.857744 36.52698 55.469562 36.631195 55.860765 36.842873 C 56.251968 37.028094 56.513534 37.33231 56.643935 37.755669 C 56.774336 38.17903 56.838772 38.736323 56.838772 39.424283 C 56.838772 40.112243 56.774336 40.667598 56.643935 41.090959 C 56.513534 41.48786 56.292156 41.765537 55.979196 41.924297 C 55.509752 42.162438 54.843711 42.280888 53.983067 42.280888 L 46.51239 42.280888 L 46.51239 62.246115 C 46.51239 62.854697 46.486233 63.303899 46.434073 63.59496 C 46.407993 63.886021 46.289333 64.229074 46.080691 64.625973 C 45.898132 64.996414 45.560002 65.261791 45.064481 65.420552 C 44.568957 65.57931 43.916949 65.658925 43.108466 65.658925 C 42.299983 65.658925 41.647975 65.57931 41.152451 65.420552 C 40.68301 65.261791 40.34488 64.996414 40.136241 64.625973 C 39.953679 64.229074 39.835019 63.886021 39.782859 63.59496 C 39.756779 63.277439 39.744656 62.813999 39.744656 62.205417 L 39.744656 42.280888 L 32.233865 42.280888 C 31.399301 42.280888 30.785573 42.188975 30.39437 42.003755 C 30.00317 41.792074 29.741601 41.473622 29.6112 41.050261 C 29.480802 40.626902 29.416363 40.071545 29.416363 39.383585 C 29.416363 38.695625 29.480802 38.15257 29.6112 37.755669 C 29.741601 37.33231 29.964888 37.042332 30.27785 36.883571 C 30.747293 36.645431 31.411424 36.52698 32.272068 36.52698 z M 53.595303 47.457273 L 69.008469 47.457273 C 69.608313 47.457273 70.051066 47.483811 70.337948 47.536731 C 70.65091 47.563191 71.003071 47.683581 71.394272 47.89526 C 72.098437 48.265701 72.450597 49.296795 72.450597 50.990239 C 72.450597 52.842442 71.967653 53.92855 71.002687 54.246071 C 70.559326 54.404831 69.881161 54.482506 68.968356 54.482506 L 56.959113 54.482506 L 56.959113 58.492218 L 64.704855 58.492218 C 65.304698 58.492218 65.747452 58.518756 66.034334 58.571676 C 66.347295 58.598136 66.699455 58.716588 67.090658 58.928267 C 67.794822 59.298708 68.146982 60.331741 68.146982 62.025184 C 68.146982 63.877387 67.651915 64.961557 66.66087 65.279078 C 66.217507 65.437838 65.539343 65.517451 64.626538 65.517451 L 56.959113 65.517451 L 56.959113 69.525226 L 69.008469 69.525226 C 69.608313 69.525226 70.051066 69.551763 70.337948 69.604683 C 70.65091 69.631143 71.003071 69.751533 71.394272 69.963212 C 72.098437 70.333653 72.450597 71.364748 72.450597 73.058191 C 72.450597 74.910394 71.967653 75.994564 71.002687 76.312085 C 70.559326 76.470845 69.881161 76.550458 68.968356 76.550458 L 53.476872 76.550458 C 51.651262 76.550458 50.582657 76.04818 50.269696 75.042698 C 50.113215 74.619337 50.034745 73.945532 50.034745 73.019431 L 50.034745 50.951479 C 50.034745 49.602016 50.282278 48.689372 50.777801 48.213092 C 51.273323 47.71035 52.213055 47.457273 53.595303 47.457273 z M 103.20625 96.36646 L 89.743371 110.19212 L 103.20625 110.17855 L 103.20625 96.36646 z " /></g><path
     style="color:#232629;fill:#78ce00;-inkscape-stroke:none;fill-opacity:1"
     d="m 103.08984,66.0625 -4.976559,5.037109 -28.099609,28.441407 -13.136719,-13.296875 -12.085937,12.21875 14.537109,14.716799 -0.0059,0.0156 10.65625,10.77539 0.0332,-0.0332 0.03516,0.0332 10.65625,-10.77539 -0.0059,-0.0137 34.478514,-34.90039 z"
     id="path869" /><g
     id="g452"
     transform="translate(-0.1162385)" /></svg>
