<?xml version="1.0" encoding="UTF-8" standalone="no"?>
<svg
   viewBox="0 0 22 22"
   version="1.1"
   id="svg10"
   sodipodi:docname="sort-presence.svg"
   inkscape:version="1.2.2 (b0a8486541, 2022-12-01)"
   xmlns:inkscape="http://www.inkscape.org/namespaces/inkscape"
   xmlns:sodipodi="http://sodipodi.sourceforge.net/DTD/sodipodi-0.dtd"
   xmlns="http://www.w3.org/2000/svg"
   xmlns:svg="http://www.w3.org/2000/svg">
  <sodipodi:namedview
     id="namedview12"
     pagecolor="#505050"
     bordercolor="#ffffff"
     borderopacity="1"
     inkscape:showpageshadow="0"
     inkscape:pageopacity="0"
     inkscape:pagecheckerboard="1"
     inkscape:deskcolor="#505050"
     showgrid="false"
     inkscape:zoom="10.727273"
     inkscape:cx="2.1440678"
     inkscape:cy="11.04661"
     inkscape:window-width="1366"
     inkscape:window-height="694"
     inkscape:window-x="0"
     inkscape:window-y="0"
     inkscape:window-maximized="1"
     inkscape:current-layer="svg10" />
  <defs
     id="defs3051">
    <style
       type="text/css"
       id="current-color-scheme">
      .ColorScheme-Text {
        color:#232629;
      }
      </style>
  </defs>
  <path
     style="fill:#f2f2f2;fill-opacity:1;stroke:none"
     d="M 7 3 L 7 4 L 19 4 L 19 3 L 7 3 z M 7 5 L 7 6 L 12 6 L 12 5 L 7 5 z M 7 9 L 7 10 L 19 10 L 19 9 L 7 9 z M 7 11 L 7 12 L 13 12 L 13 11 L 7 11 z M 7 15 L 7 16 L 19 16 L 19 15 L 7 15 z M 7 17 L 7 18 L 16 18 L 16 17 L 7 17 z "
     class="ColorScheme-Text"
     id="path4" />
  <path
     style="fill:#2ecc71;fill-opacity:1;stroke:none"
     d="M 4.5 3 C 3.67158 3 3.00001 3.67157 3 4.5 C 3.00001 5.32843 3.67158 6 4.5 6 C 5.32842 6 5.99999 5.32843 6 4.5 C 5.99999 3.67157 5.32842 3 4.5 3 z M 4.5 9 C 3.67157 9 3 9.67157 3 10.5 C 3 11.32843 3.67157 12 4.5 12 C 5.32843 12 6 11.32843 6 10.5 C 6 9.67157 5.32843 9 4.5 9 z "
     id="path6" />
  <path
     style="opacity:1;fill:#da4453;fill-opacity:1;stroke:none"
     d="M 4.5 15 C 3.67157 15 3 15.67157 3 16.5 C 3 17.32843 3.67157 18 4.5 18 C 5.32843 18 6 17.32843 6 16.5 C 6 15.67157 5.32843 15 4.5 15 z M 17 18 L 17 19 L 19 19 L 19 18 L 17 18 z "
     id="path8" />
</svg>
