<?xml version="1.0" encoding="UTF-8" standalone="no"?>
<svg
   viewBox="0 0 22 22"
   version="1.1"
   id="svg6"
   sodipodi:docname="swap-panels.svg"
   inkscape:version="1.2.2 (b0a8486541, 2022-12-01)"
   xmlns:inkscape="http://www.inkscape.org/namespaces/inkscape"
   xmlns:sodipodi="http://sodipodi.sourceforge.net/DTD/sodipodi-0.dtd"
   xmlns="http://www.w3.org/2000/svg"
   xmlns:svg="http://www.w3.org/2000/svg">
  <sodipodi:namedview
     id="namedview8"
     pagecolor="#505050"
     bordercolor="#ffffff"
     borderopacity="1"
     inkscape:showpageshadow="0"
     inkscape:pageopacity="0"
     inkscape:pagecheckerboard="1"
     inkscape:deskcolor="#505050"
     showgrid="false"
     inkscape:zoom="10.727273"
     inkscape:cx="2.1440678"
     inkscape:cy="11.04661"
     inkscape:window-width="1366"
     inkscape:window-height="694"
     inkscape:window-x="0"
     inkscape:window-y="0"
     inkscape:window-maximized="1"
     inkscape:current-layer="svg6" />
  <defs
     id="defs3051">
    <style
       type="text/css"
       id="current-color-scheme">
      .ColorScheme-Text {
        color:#232629;
      }
      </style>
  </defs>
  <path
     style="fill:#f2f2f2;fill-opacity:1;stroke:none"
     d="M 3 3 L 3 19 L 9 19 L 9 18 L 4 18 L 4 7 L 9 7 L 9 9 L 10 9 L 10 7 L 10 3 L 3 3 z M 11 3 L 11 9 L 12 9 L 12 7 L 13 7 L 18 7 L 18 12 L 19 12 L 19 3 L 13 3 L 12 3 L 11 3 z M 11.292969 10 L 8.5 12.792969 L 7.7929688 13.5 L 8.5 14.207031 L 11.292969 17 L 12 16.292969 L 9.7070312 14 L 15 14 L 15 13 L 14 13 L 13 13 L 9.7070312 13 L 12 10.707031 L 11.292969 10 z M 16.707031 13 L 16 13.707031 L 18.292969 16 L 13 16 L 13 17 L 14 17 L 15 17 L 18.292969 17 L 16 19.292969 L 16.707031 20 L 19.5 17.207031 L 20.207031 16.5 L 19.5 15.792969 L 16.707031 13 z "
     class="ColorScheme-Text"
     id="path4" />
</svg>
