<?xml version="1.0" encoding="UTF-8" standalone="no"?>
<!-- Created with Inkscape (http://www.inkscape.org/) -->

<svg
   width="255.99998"
   height="128"
   viewBox="0 0 67.733321 33.866667"
   version="1.1"
   id="svg5"
   inkscape:version="1.3 (0e150ed6c4, 2023-07-21)"
   sodipodi:docname="TablesDB.svg"
   xml:space="preserve"
   inkscape:export-filename="../../../Επιφάνεια εργασίας/BibliographyDB.svg"
   inkscape:export-xdpi="102.557"
   inkscape:export-ydpi="102.557"
   xmlns:inkscape="http://www.inkscape.org/namespaces/inkscape"
   xmlns:sodipodi="http://sodipodi.sourceforge.net/DTD/sodipodi-0.dtd"
   xmlns="http://www.w3.org/2000/svg"
   xmlns:svg="http://www.w3.org/2000/svg"><sodipodi:namedview
     id="namedview7"
     pagecolor="#505050"
     bordercolor="#eeeeee"
     borderopacity="1"
     inkscape:showpageshadow="0"
     inkscape:pageopacity="0"
     inkscape:pagecheckerboard="0"
     inkscape:deskcolor="#505050"
     inkscape:document-units="mm"
     showgrid="false"
     inkscape:zoom="1.6819304"
     inkscape:cx="92.453291"
     inkscape:cy="85.913186"
     inkscape:window-width="1366"
     inkscape:window-height="694"
     inkscape:window-x="0"
     inkscape:window-y="0"
     inkscape:window-maximized="1"
     inkscape:current-layer="layer1" /><defs
     id="defs2"><rect
       x="7.9878626"
       y="68.10704"
       width="390.31607"
       height="59.552677"
       id="rect387" /><rect
       x="-96.244637"
       y="47.086346"
       width="219.45601"
       height="95.854347"
       id="rect369" /></defs><g
     inkscape:label="Στρώση 1"
     inkscape:groupmode="layer"
     id="layer1"><g
       aria-label="Create a DataTeX database to store your LaTeX tables."
       transform="matrix(0.2587881,0,0,0.2587881,-18.716371,0.91710622)"
       id="text385"
       style="font-size:18.6667px;line-height:0.75;font-family:KerkisSans;-inkscape-font-specification:KerkisSans;text-align:center;white-space:pre;shape-inside:url(#rect387);display:inline;fill:#f2f2f2" /><g
       id="g1"
       transform="translate(0,3.3084291)"><g
         aria-label="Tables"
         transform="matrix(0.33271755,0,0,0.33271755,57.075516,-10.710884)"
         id="text367"
         style="font-size:40px;line-height:1.25;white-space:pre;shape-inside:url(#rect369);display:inline;fill:#f2f2f2"><path
           d="m -88.028756,66.527099 v 16.953846 h -4.307692 V 66.527099 h -3.938462 v -4.092308 h 12.153846 v 4.092308 z"
           style="font-weight:bold;font-family:KerkisSans;-inkscape-font-specification:'KerkisSans Bold'"
           id="path4385" /><path
           d="m -70.582587,83.480945 v -1.661539 q -1.938462,1.938462 -5.015385,2.03077 -3.846154,0 -6.184615,-2.707693 -1.907692,-2.215384 -1.907692,-5.415384 0,-3.907693 2.707692,-6.276923 2.246154,-1.969231 5.476923,-1.969231 3.076923,0 4.892308,2.030769 v -1.661538 h 3.876923 V 83.480945 Z M -75.105664,71.26556 q -2.461539,0 -3.661539,1.969231 -0.707692,1.107692 -0.707692,2.584615 0,2.492308 1.969231,3.63077 1.076923,0.615384 2.461538,0.615384 2.092308,0 3.23077,-1.292307 1.107692,-1.261539 1.107692,-2.984616 0,-2.615384 -1.969231,-3.846154 -1.046154,-0.676923 -2.430769,-0.676923 z"
           style="font-weight:bold;font-family:KerkisSans;-inkscape-font-specification:'KerkisSans Bold'"
           id="path4382" /><path
           d="m -49.382608,81.080945 q -2.184615,2.769231 -5.969231,2.769231 -2.923076,0 -4.830769,-1.692308 -0.153846,-0.153846 -0.338461,-0.338462 v 1.661539 h -3.907693 V 62.650176 h 4.184616 v 6.246153 q 1.938461,-1.692307 4.646154,-1.692307 3.723077,0 6.061538,2.676923 2.030769,2.338461 2.030769,5.630769 0,3.2 -1.876923,5.569231 z m -6.738461,-10.092308 q -2.4,0 -3.63077,1.907692 -0.707692,1.138462 -0.707692,2.615385 0,2.646154 1.969231,3.876923 1.046154,0.676923 2.430769,0.676923 2.492308,0 3.692308,-1.969231 0.676923,-1.107692 0.676923,-2.584615 0,-2.461538 -1.876923,-3.753846 -1.107692,-0.769231 -2.553846,-0.769231 z"
           style="font-weight:bold;font-family:KerkisSans;-inkscape-font-specification:'KerkisSans Bold'"
           id="path4379" /><path
           d="m -45.813398,83.480945 -0.03077,-20.830769 h 4.215385 v 20.830769 z"
           style="font-weight:bold;font-family:KerkisSans;-inkscape-font-specification:'KerkisSans Bold'"
           id="path4376" /><path
           d="m -23.22881,77.511714 h -11.969231 q 0.615385,1.938462 2.8,2.430769 0.584616,0.123077 1.230769,0.123077 1.846154,0 3.015385,-1.138461 0.153846,-0.153846 0.338462,-0.369231 h 4.461538 q -0.430769,1.353846 -1.353846,2.461538 -2.461539,2.83077 -6.369231,2.83077 -3.907692,0 -6.461538,-2.615385 -2.246154,-2.307692 -2.246154,-5.507692 0,-3.6 2.646154,-6.03077 2.430769,-2.215384 5.815384,-2.215384 3.876923,0 6.276923,2.738461 2.03077,2.338462 2.03077,5.661539 0,0.646154 -0.215385,1.630769 z m -8.030769,-6.246154 q -3.107693,0 -4.061539,2.584616 h 8.092308 q -0.738462,-2.584616 -4.030769,-2.584616 z"
           style="font-weight:bold;font-family:KerkisSans;-inkscape-font-specification:'KerkisSans Bold'"
           id="path4373" /><path
           d="m -16.090341,83.850176 q -2.76923,0 -4.492307,-1.784616 l -0.369231,-0.430769 q -0.830769,-1.138462 -1.076923,-3.169231 l -0.03077,-0.246154 h 4.184615 q 0.461538,1.6 1.415385,1.784616 l 0.492307,0.06154 q 1.169231,0 1.446154,-0.892307 l 0.06154,-0.369231 q 0,-1.015385 -2.092308,-1.630769 0.09231,0.03077 -0.246154,-0.06154 l -0.03077,-0.03077 -0.153846,-0.03077 q -3.415385,-1.138462 -4.215385,-2.984616 -0.307692,-0.738461 -0.307692,-1.723077 0,-2.4 2.061538,-3.846154 1.476923,-1.015384 3.353846,-1.015384 2.584616,0 4.184616,1.753846 1.046154,1.107692 1.16923,2.984615 v 0.03077 l 0.03077,0.215384 h -4.061539 q -0.307692,-1.2 -1.323077,-1.2 -0.892307,0 -1.16923,0.738462 v 0.03077 l -0.03077,0.03077 q -0.03077,0.123077 -0.03077,0.276923 0,0.584616 1.046154,0.984616 v 0 h 0.03077 q 0,0 0.09231,0.03077 l 2.738461,0.892308 q 0.984616,0.4 1.569231,0.892307 1.538462,1.2 1.538462,3.292308 0,2.615385 -2.123077,4.246154 -1.6,1.169231 -3.661539,1.169231 z"
           style="font-weight:bold;font-family:KerkisSans;-inkscape-font-specification:'KerkisSans Bold'"
           id="path4370" /></g><path
         d="m 21.437385,10.090341 h -6.590257 c -0.41997,0 -0.760415,0.340444 -0.760415,0.760415 v 5.576371 c 0,0.419971 0.340445,0.760414 0.760415,0.760414 h 6.590257 c 0.41997,0 0.760415,-0.340443 0.760415,-0.760414 v -5.576371 c 0,-0.419971 -0.340445,-0.760415 -0.760415,-0.760415 z m -3.802072,6.083315 h -2.534714 v -1.520829 h 2.534714 z m 0,-2.534715 h -2.534714 v -1.520829 h 2.534714 z m 3.5486,2.534715 h -2.534714 v -1.520829 h 2.534714 z m 0,-2.534715 h -2.534714 v -1.520829 h 2.534714 z"
         id="path2"
         style="fill:#f2f2f2;stroke-width:0.0158419" /></g></g></svg>
