<?xml version="1.0" encoding="UTF-8" standalone="no"?>
<svg
   width="128"
   viewBox="0 0 128 128"
   height="128"
   id="svg2"
   version="1.1"
   sodipodi:docname="Texfile.svg"
   inkscape:version="1.2.2 (b0a8486541, 2022-12-01)"
   xmlns:inkscape="http://www.inkscape.org/namespaces/inkscape"
   xmlns:sodipodi="http://sodipodi.sourceforge.net/DTD/sodipodi-0.dtd"
   xmlns="http://www.w3.org/2000/svg"
   xmlns:svg="http://www.w3.org/2000/svg"
   xmlns:rdf="http://www.w3.org/1999/02/22-rdf-syntax-ns#"
   xmlns:cc="http://creativecommons.org/ns#"
   xmlns:dc="http://purl.org/dc/elements/1.1/">
  <sodipodi:namedview
     id="namedview12"
     pagecolor="#505050"
     bordercolor="#ffffff"
     borderopacity="1"
     inkscape:showpageshadow="0"
     inkscape:pageopacity="0"
     inkscape:pagecheckerboard="1"
     inkscape:deskcolor="#505050"
     showgrid="false"
     inkscape:zoom="1.84375"
     inkscape:cx="12.474576"
     inkscape:cy="64.271186"
     inkscape:window-width="1366"
     inkscape:window-height="694"
     inkscape:window-x="0"
     inkscape:window-y="0"
     inkscape:window-maximized="1"
     inkscape:current-layer="svg2" />
  <metadata
     id="metadata24">
    <rdf:RDF>
      <cc:Work
         rdf:about="">
        <dc:format>image/svg+xml</dc:format>
        <dc:type
           rdf:resource="http://purl.org/dc/dcmitype/StillImage" />
      </cc:Work>
    </rdf:RDF>
  </metadata>
  <defs
     id="defs22">
    <rect
       x="-79.663162"
       y="18.236146"
       width="163.80538"
       height="103.65809"
       id="rect483" />
    <rect
       x="-19.409721"
       y="-10.299691"
       width="51.062214"
       height="40.68856"
       id="rect849" />
    <clipPath
       id="clipPath4157"
       clipPathUnits="userSpaceOnUse">
      <path
         style="fill:#f9f8f2;fill-opacity:1;stroke-width:1.00658"
         id="path4159"
         d="M 27.642964,3.2951379 40.728548,16.380722 H 29.65613 c -0.977824,0 -2.013166,-1.035372 -2.013166,-2.013167 z" />
    </clipPath>
  </defs>
  <g
     id="g300"
     transform="matrix(1.0224872,0,0,1.0078069,-1.4391828,-0.49964261)"
     style="fill:#f2f2f2;fill-opacity:1;stroke:none;stroke-width:8.16233;stroke-dasharray:none">
    <path
       id="path843"
       style="fill:#f2f2f2;fill-opacity:1;stroke:none;stroke-width:8.16233;stroke-linecap:butt;stroke-linejoin:round;stroke-miterlimit:4;stroke-dasharray:none;stroke-opacity:1"
       d="M 24.79375 17.747806 L 24.79375 110.2522 L 103.20625 110.17855 L 103.20625 33.445568 L 86.627883 17.747806 L 24.79375 17.747806 z M 75.417092 36.280855 C 76.084324 36.280855 76.850096 36.781847 77.715027 37.784739 L 84.757826 45.982459 L 91.800625 37.784739 C 92.690269 36.781847 93.444459 36.280855 94.062267 36.280855 C 94.704787 36.280855 95.509122 36.719223 96.472902 37.596754 C 97.436683 38.474284 97.916991 39.25121 97.916991 39.928162 C 97.916991 40.605114 97.498408 41.393789 96.658189 42.296392 L 89.206613 50.608454 L 96.658189 58.920515 C 97.498408 59.873263 97.916991 60.675626 97.916991 61.327506 C 97.916991 61.979385 97.436683 62.744562 96.472902 63.622092 C 95.533834 64.499622 94.7295 64.937991 94.062267 64.937991 C 93.419747 64.937991 92.665556 64.436998 91.800625 63.434106 L 84.757826 55.234448 L 77.715027 63.434106 C 76.825383 64.436998 76.059612 64.937991 75.417092 64.937991 C 74.799284 64.937991 73.996859 64.499622 73.008367 63.622092 C 72.044586 62.719489 71.562367 61.954313 71.562367 61.327506 C 71.562367 60.700698 71.994442 59.898335 72.859373 58.920515 L 80.310949 50.608454 L 72.859373 42.296392 C 71.994442 41.368717 71.562367 40.580041 71.562367 39.928162 C 71.562367 39.276282 72.044586 38.511106 73.008367 37.633575 C 73.972147 36.730973 74.774571 36.280855 75.417092 36.280855 z M 32.787814 36.957215 L 53.398555 36.957215 C 54.189347 36.957215 54.769946 37.057028 55.140631 37.257604 C 55.511313 37.43311 55.758215 37.720796 55.881777 38.12195 C 56.005339 38.523107 56.067063 39.049539 56.067063 39.701416 C 56.067063 40.353296 56.005339 40.879726 55.881777 41.280883 C 55.758215 41.656965 55.547966 41.921151 55.251421 42.071585 C 54.806599 42.297233 54.177766 42.410734 53.362262 42.410734 L 46.281259 42.410734 L 46.281259 61.327506 C 46.281259 61.904166 46.256187 62.330789 46.206763 62.606582 C 46.18205 62.882378 46.072092 63.207248 45.874393 63.583332 C 45.701407 63.934344 45.379289 64.18484 44.909757 64.335274 C 44.440223 64.485708 43.822974 64.56202 43.056891 64.56202 C 42.290812 64.56202 41.671648 64.485708 41.202116 64.335274 C 40.757294 64.18484 40.437088 63.934344 40.23939 63.583332 C 40.066404 63.207248 39.954535 62.882378 39.90511 62.606582 C 39.880398 62.305717 39.868817 61.865406 39.868817 61.288746 L 39.868817 42.410734 L 32.751521 42.410734 C 31.960729 42.410734 31.380131 42.322672 31.009445 42.147166 C 30.638763 41.94659 30.391861 41.645215 30.268299 41.244061 C 30.144738 40.842904 30.083013 40.316474 30.083013 39.664594 C 30.083013 39.012717 30.144738 38.498035 30.268299 38.12195 C 30.391861 37.720796 30.60211 37.44486 30.898655 37.294426 C 31.343477 37.068776 31.97231 36.957215 32.787814 36.957215 z M 54.065205 48.277045 L 68.670369 48.277045 C 69.238753 48.277045 69.659246 48.302483 69.931082 48.352627 C 70.227629 48.3777 70.561327 48.489261 70.932011 48.689838 C 71.599243 49.040851 71.932941 50.019338 71.932941 51.623963 C 71.932941 53.379022 71.475793 54.406446 70.561438 54.707314 C 70.141329 54.857747 69.499006 54.934059 68.634076 54.934059 L 57.253279 54.934059 L 57.253279 58.73253 L 64.594065 58.73253 C 65.162447 58.73253 65.581033 58.757967 65.852867 58.808112 C 66.149415 58.833184 66.483112 58.944745 66.853797 59.145323 C 67.521029 59.496335 67.854726 60.474822 67.854726 62.079448 C 67.854726 63.834506 67.385998 64.861931 66.446931 65.162798 C 66.026821 65.313232 65.3845 65.389544 64.519568 65.389544 L 57.253279 65.389544 L 57.253279 69.188014 L 68.670369 69.188014 C 69.238753 69.188014 69.659246 69.211514 69.931082 69.261658 C 70.227629 69.28673 70.561327 69.40023 70.932011 69.600807 C 71.599243 69.951819 71.932941 70.930307 71.932941 72.534932 C 71.932941 74.289991 71.475793 75.317415 70.561438 75.618283 C 70.141329 75.768715 69.499006 75.84309 68.634076 75.84309 L 53.954415 75.84309 C 52.224553 75.84309 51.211881 75.367534 50.915333 74.414788 C 50.767059 74.013631 50.691843 73.373702 50.691843 72.496172 L 50.691843 51.587141 C 50.691843 50.308456 50.927163 49.443466 51.396696 48.992166 C 51.86623 48.515792 52.755453 48.277045 54.065205 48.277045 z " />
  </g>
  <g
     id="g550"
     transform="matrix(0.94755211,0,0,0.94755211,104.23689,12.038628)" />
</svg>
