<?xml version="1.0" encoding="UTF-8" standalone="no"?>
<svg
   viewBox="0 0 24 24"
   width="24"
   height="24"
   version="1.1"
   id="svg8"
   sodipodi:docname="UserGroupNew.svg"
   inkscape:version="1.2.2 (b0a8486541, 2022-12-01)"
   xmlns:inkscape="http://www.inkscape.org/namespaces/inkscape"
   xmlns:sodipodi="http://sodipodi.sourceforge.net/DTD/sodipodi-0.dtd"
   xmlns="http://www.w3.org/2000/svg"
   xmlns:svg="http://www.w3.org/2000/svg">
  <sodipodi:namedview
     id="namedview10"
     pagecolor="#505050"
     bordercolor="#ffffff"
     borderopacity="1"
     inkscape:showpageshadow="0"
     inkscape:pageopacity="0"
     inkscape:pagecheckerboard="1"
     inkscape:deskcolor="#505050"
     showgrid="false"
     inkscape:zoom="9.8333333"
     inkscape:cx="-7.3220339"
     inkscape:cy="12.050847"
     inkscape:window-width="1366"
     inkscape:window-height="694"
     inkscape:window-x="0"
     inkscape:window-y="0"
     inkscape:window-maximized="1"
     inkscape:current-layer="svg8" />
  <defs
     id="defs3051">
    <style
       type="text/css"
       id="current-color-scheme">
      .ColorScheme-Text {
        color:#232629;
      }
      </style>
  </defs>
  <g
     transform="translate(1,1)"
     id="g6"
     style="fill:#f2f2f2;stroke:#f2f2f2">
    <path
       style="fill:#f2f2f2;fill-opacity:1;stroke:#f2f2f2"
       d="M 14 3 C 12.338 3 11 4.338 11 6 C 11 7.662 12.338 9 14 9 C 15.662 9 17 7.662 17 6 C 17 4.338 15.662 3 14 3 z M 8 6 C 6.338 6 5 7.338 5 9 C 5 10.662 6.338 12 8 12 C 9.662 12 11 10.662 11 9 C 11 7.338 9.662 6 8 6 z M 14 10 C 13.353654 10 12.744006 10.134157 12.181641 10.361328 L 12.636719 11.275391 C 13.064535 11.114885 13.514485 11 14 11 C 16.21602 11 18 12.78398 18 15 L 14.5 15 L 15 16 L 19 16 L 19 15 C 19 12.22998 16.77002 10 14 10 z M 8 13 C 5.229983 13 3 15.229983 3 18 L 3 19 L 13 19 L 13 18 C 13 15.229983 10.770017 13 8 13 z M 8 14 C 10.216017 14 12 15.783983 12 18 L 4 18 C 4 15.783983 5.783983 14 8 14 z "
       class="ColorScheme-Text"
       id="path4" />
  </g>
</svg>
