<?xml version="1.0" encoding="UTF-8" standalone="no"?>
<svg
   viewBox="0 0 512 512"
   version="1.1"
   id="svg1"
   sodipodi:docname="VectorSquare.svg"
   inkscape:version="1.3 (0e150ed6c4, 2023-07-21)"
   xmlns:inkscape="http://www.inkscape.org/namespaces/inkscape"
   xmlns:sodipodi="http://sodipodi.sourceforge.net/DTD/sodipodi-0.dtd"
   xmlns="http://www.w3.org/2000/svg"
   xmlns:svg="http://www.w3.org/2000/svg">
  <defs
     id="defs1" />
  <sodipodi:namedview
     id="namedview1"
     pagecolor="#505050"
     bordercolor="#eeeeee"
     borderopacity="1"
     inkscape:showpageshadow="0"
     inkscape:pageopacity="0"
     inkscape:pagecheckerboard="0"
     inkscape:deskcolor="#d1d1d1"
     inkscape:zoom="0.87695312"
     inkscape:cx="256"
     inkscape:cy="255.42985"
     inkscape:window-width="1366"
     inkscape:window-height="695"
     inkscape:window-x="0"
     inkscape:window-y="0"
     inkscape:window-maximized="1"
     inkscape:current-layer="svg1" />
  <!-- Font Awesome Free 5.15.4 by @fontawesome - https://fontawesome.com License - https://fontawesome.com/license/free (Icons: CC BY 4.0, Fonts: SIL OFL 1.1, Code: MIT License) -->
  <path
     d="M 463.36,152.32 V 74.56 c 0,-14.3127 -11.6073,-25.92 -25.92,-25.92 h -77.76 c -14.3127,0 -25.92,11.6073 -25.92,25.92 H 178.24 c 0,-14.3127 -11.6073,-25.92 -25.92,-25.92 H 74.56 c -14.3127,0 -25.92,11.6073 -25.92,25.92 v 77.76 c 0,14.3127 11.6073,25.92 25.92,25.92 v 155.52 c -14.3127,0 -25.92,11.6073 -25.92,25.92 v 77.76 c 0,14.3127 11.6073,25.92 25.92,25.92 h 77.76 c 14.3127,0 25.92,-11.6073 25.92,-25.92 h 155.52 c 0,14.3127 11.6073,25.92 25.92,25.92 h 77.76 c 14.3127,0 25.92,-11.6073 25.92,-25.92 v -77.76 c 0,-14.3127 -11.6073,-25.92 -25.92,-25.92 V 178.24 c 14.3127,0 25.92,-11.6073 25.92,-25.92 z M 385.6,100.48 h 25.92 V 126.4 H 385.6 Z m -285.12,0 H 126.4 V 126.4 H 100.48 Z M 126.4,411.52 H 100.48 V 385.6 h 25.92 z m 285.12,0 H 385.6 V 385.6 h 25.92 z M 385.6,333.76 h -25.92 c -14.3127,0 -25.92,11.6073 -25.92,25.92 V 385.6 H 178.24 v -25.92 c 0,-14.3127 -11.6073,-25.92 -25.92,-25.92 H 126.4 V 178.24 h 25.92 c 14.3127,0 25.92,-11.6073 25.92,-25.92 V 126.4 h 155.52 v 25.92 c 0,14.3127 11.6073,25.92 25.92,25.92 h 25.92 z"
     id="path1"
     style="fill:#f2f2f2;stroke-width:0.81" />
</svg>
