<?xml version="1.0" encoding="UTF-8" standalone="no"?>
<svg
   viewBox="0 0 24 24"
   version="1.1"
   id="svg6"
   sodipodi:docname="ViewFilter.svg"
   inkscape:version="1.2.2 (b0a8486541, 2022-12-01)"
   xmlns:inkscape="http://www.inkscape.org/namespaces/inkscape"
   xmlns:sodipodi="http://sodipodi.sourceforge.net/DTD/sodipodi-0.dtd"
   xmlns="http://www.w3.org/2000/svg"
   xmlns:svg="http://www.w3.org/2000/svg">
  <sodipodi:namedview
     id="namedview8"
     pagecolor="#505050"
     bordercolor="#ffffff"
     borderopacity="1"
     inkscape:showpageshadow="0"
     inkscape:pageopacity="0"
     inkscape:pagecheckerboard="1"
     inkscape:deskcolor="#505050"
     showgrid="false"
     inkscape:zoom="9.8333333"
     inkscape:cx="-7.3220339"
     inkscape:cy="12.050847"
     inkscape:window-width="1366"
     inkscape:window-height="694"
     inkscape:window-x="0"
     inkscape:window-y="0"
     inkscape:window-maximized="1"
     inkscape:current-layer="svg6" />
  <defs
     id="defs3051">
    <style
       type="text/css"
       id="current-color-scheme">
      .ColorScheme-Text {
        color:#232629;
      }
      </style>
  </defs>
  <path
     style="fill:#f2f2f2;fill-opacity:1;stroke:none"
     d="M 6 4 L 5 5 L 5 6 L 5 6.3046875 L 10 13.367188 L 10 17 L 10 17.039062 L 13.990234 20 L 14 20 L 14 13.367188 L 19 6.3046875 L 19 5 L 18 4 L 6 4 z M 6 5 L 18 5 L 18 5.9882812 L 13.035156 13 L 13 13 L 13 13.048828 L 13 14 L 13 18.019531 L 11 16.535156 L 11 14 L 11 13.048828 L 11 13 L 10.964844 13 L 6 5.9882812 L 6 5 z M 7 6 L 9 9 L 9 7 L 11 6 L 7 6 z "
     class="ColorScheme-Text"
     id="path4" />
</svg>
