<?xml version="1.0" encoding="UTF-8" standalone="no"?>
<svg
   viewBox="0 0 22 22"
   version="1.1"
   id="svg6"
   sodipodi:docname="view-table-of-contents-rtl.svg"
   inkscape:version="1.2.2 (b0a8486541, 2022-12-01)"
   xmlns:inkscape="http://www.inkscape.org/namespaces/inkscape"
   xmlns:sodipodi="http://sodipodi.sourceforge.net/DTD/sodipodi-0.dtd"
   xmlns="http://www.w3.org/2000/svg"
   xmlns:svg="http://www.w3.org/2000/svg">
  <sodipodi:namedview
     id="namedview8"
     pagecolor="#505050"
     bordercolor="#ffffff"
     borderopacity="1"
     inkscape:showpageshadow="0"
     inkscape:pageopacity="0"
     inkscape:pagecheckerboard="1"
     inkscape:deskcolor="#505050"
     showgrid="false"
     inkscape:zoom="10.727273"
     inkscape:cx="2.1440678"
     inkscape:cy="11.04661"
     inkscape:window-width="1366"
     inkscape:window-height="694"
     inkscape:window-x="0"
     inkscape:window-y="0"
     inkscape:window-maximized="1"
     inkscape:current-layer="svg6" />
  <defs
     id="defs3051">
    <style
       type="text/css"
       id="current-color-scheme">
      .ColorScheme-Text {
        color:#232629;
      }
      </style>
  </defs>
  <path
     style="fill:#f2f2f2;fill-opacity:1;stroke:none"
     d="M 3 2.9980469 L 3 3.9980469 L 13 3.9980469 L 13 2.9980469 L 3 2.9980469 z M 16 3 L 16 4 L 17 4 L 17 6 L 16 6 L 16 7 L 17 7 L 18 7 L 19 7 L 19 6 L 18 6 L 18 4 L 19 4 L 19 3 L 18 3 L 17 3 L 16 3 z M 3 4.9980469 L 3 5.9980469 L 9 5.9980469 L 9 4.9980469 L 3 4.9980469 z M 10 4.9980469 L 10 5.9980469 L 11 5.9980469 L 11 4.9980469 L 10 4.9980469 z M 12 4.9980469 L 12 5.9980469 L 13 5.9980469 L 13 4.9980469 L 12 4.9980469 z M 14 4.9980469 L 14 5.9980469 L 15 5.9980469 L 15 4.9980469 L 14 4.9980469 z M 3 8.9980469 L 3 9.9980469 L 11 9.9980469 L 11 8.9980469 L 3 8.9980469 z M 14 9 L 14 10 L 15 10 L 15 12 L 14 12 L 14 13 L 19 13 L 19 12 L 18 12 L 18 10 L 19 10 L 19 9 L 14 9 z M 16 10 L 17 10 L 17 12 L 16 12 L 16 10 z M 3 10.998047 L 3 11.998047 L 7 11.998047 L 7 10.998047 L 3 10.998047 z M 8 10.998047 L 8 11.998047 L 9 11.998047 L 9 10.998047 L 8 10.998047 z M 10 10.998047 L 10 11.998047 L 11 11.998047 L 11 10.998047 L 10 10.998047 z M 12 10.998047 L 12 11.998047 L 13 11.998047 L 13 10.998047 L 12 10.998047 z M 3 14.998047 L 3 15.998047 L 10 15.998047 L 10 14.998047 L 3 14.998047 z M 12 15 L 12 16 L 13 16 L 13 18 L 12 18 L 12 19 L 13 19 L 14 19 L 15 19 L 19 19 L 19 18 L 18 18 L 18 16 L 19 16 L 19 15 L 15 15 L 14 15 L 13 15 L 12 15 z M 14 16 L 15 16 L 15 18 L 14 18 L 14 16 z M 16 16 L 17 16 L 17 18 L 16 18 L 16 16 z M 3 16.998047 L 3 17.998047 L 5 17.998047 L 5 16.998047 L 3 16.998047 z M 6 16.998047 L 6 17.998047 L 7 17.998047 L 7 16.998047 L 6 16.998047 z M 8 16.998047 L 8 17.998047 L 9 17.998047 L 9 16.998047 L 8 16.998047 z M 10 16.998047 L 10 17.998047 L 11 17.998047 L 11 16.998047 L 10 16.998047 z "
     class="ColorScheme-Text"
     id="path4" />
</svg>
