<?xml version="1.0" encoding="UTF-8" standalone="no"?>
<svg
   version="1.1"
   viewBox="0 0 24 24"
   id="svg6"
   sodipodi:docname="xelatex.svg"
   inkscape:version="1.2.2 (b0a8486541, 2022-12-01)"
   xmlns:inkscape="http://www.inkscape.org/namespaces/inkscape"
   xmlns:sodipodi="http://sodipodi.sourceforge.net/DTD/sodipodi-0.dtd"
   xmlns="http://www.w3.org/2000/svg"
   xmlns:svg="http://www.w3.org/2000/svg"
   xmlns:rdf="http://www.w3.org/1999/02/22-rdf-syntax-ns#"
   xmlns:cc="http://creativecommons.org/ns#"
   xmlns:dc="http://purl.org/dc/elements/1.1/">
  <metadata
     id="metadata12">
    <rdf:RDF>
      <cc:Work
         rdf:about="">
        <dc:format>image/svg+xml</dc:format>
        <dc:type
           rdf:resource="http://purl.org/dc/dcmitype/StillImage" />
      </cc:Work>
    </rdf:RDF>
  </metadata>
  <defs
     id="defs10">
    <rect
       x="-40.184256"
       y="-7.0413437"
       width="54.094192"
       height="43.573538"
       id="rect16" />
  </defs>
  <sodipodi:namedview
     pagecolor="#ffffff"
     bordercolor="#555555"
     borderopacity="1"
     objecttolerance="10"
     gridtolerance="10"
     guidetolerance="10"
     inkscape:pageopacity="0"
     inkscape:pageshadow="2"
     inkscape:window-width="1366"
     inkscape:window-height="694"
     id="namedview8"
     showgrid="false"
     inkscape:zoom="10.26"
     inkscape:cx="2.7290448"
     inkscape:cy="12.037037"
     inkscape:window-x="0"
     inkscape:window-y="0"
     inkscape:window-maximized="1"
     inkscape:current-layer="svg6"
     inkscape:document-rotation="0"
     inkscape:showpageshadow="0"
     inkscape:pagecheckerboard="1"
     inkscape:deskcolor="#d1d1d1" />
  <g
     id="g24"
     style="fill:#f2f2f2">
    <g
       transform="translate(1,1)"
       id="g4"
       style="fill:#f2f2f2">
      <path
         id="path2"
         d="M 5 4 L 5 14 L 8 12 L 11 14 L 11 4 L 5 4 z M 12 4 L 12 5 L 14 5 L 14 9 L 18 9 L 18 14 L 19 14 L 19 8 L 15 4 L 12 4 z M 8 7 L 10 7 C 8.93838 8.56429 7.64844 10.03808 6 11 C 6.37765 9.71307 6.7045562 8.3437687 7.5351562 7.2617188 C 7.6571063 7.1320187 7.81187 7.00207 8 7 z M 5 15 L 5 20 L 11 20 L 11 19 L 6 19 L 6 15 L 5 15 z "
         transform="translate(-1,-1)"
         style="fill:#f2f2f2" />
    </g>
    <g
       aria-label="Xe"
       transform="matrix(0.88898387,0,0,0.88898387,46.444165,17.780348)"
       id="text14"
       style="font-style:normal;font-weight:normal;font-size:10.6667px;line-height:1.25;font-family:sans-serif;white-space:pre;shape-inside:url(#rect16);fill:#f2f2f2;fill-opacity:1;stroke:none">
      <path
         d="m -33.314239,2.3030756 q 0.032,0 0.032,0.064 0,0.064 -0.032,0.064 -0.309334,0 -0.480001,-0.010667 l -0.640002,-0.010667 -0.87467,0.010667 q -0.202667,0.010667 -0.565335,0.010667 -0.032,0 -0.032,-0.064 0,-0.064 0.032,-0.064 0.352001,0 0.352001,-0.181334 0,-0.096 -0.096,-0.2346674 l -1.461338,-2.26134044 -0.917336,1.31200414 q -0.416001,0.5866685 -0.416001,0.9493363 0,0.4160014 0.554668,0.4160014 0.02133,0 0.02133,0.064 0,0.064 -0.02133,0.064 -0.352001,0 -0.533335,-0.010667 l -0.789336,-0.010667 -0.501335,0.010667 q -0.138667,0.010667 -0.448001,0.010667 -0.032,0 -0.032,-0.064 0,-0.064 0.032,-0.064 0.330667,0 0.810669,-0.3520012 0.480001,-0.3520011 1.00267,-1.0773367 l 1.088003,-1.47200465 -1.706672,-2.65600835 q -0.288001,-0.4586682 -0.554668,-0.6506688 -0.266668,-0.2026673 -0.565335,-0.2026673 -0.032,0 -0.032,-0.064 0,-0.064 0.032,-0.064 l 0.458668,0.010667 q 0.298667,0.021333 0.448001,0.021333 0.373335,0 0.928003,-0.021333 l 0.608002,-0.010667 q 0.02133,0 0.02133,0.064 0,0.064 -0.02133,0.064 -0.362668,0 -0.362668,0.1813339 0,0.085334 0.096,0.2453341 l 1.408004,2.1653402 0.853336,-1.2160038 q 0.416001,-0.5973352 0.416001,-0.9600031 0,-0.4160013 -0.554668,-0.4160013 -0.02133,0 -0.02133,-0.064 0,-0.064 0.02133,-0.064 l 0.533335,0.010667 q 0.426668,0.021333 0.789336,0.021333 0.224,0 0.501335,-0.021333 l 0.448001,-0.010667 q 0.032,0 0.032,0.064 0,0.064 -0.032,0.064 -0.341334,0 -0.821336,0.3626678 -0.469335,0.3520012 -1.00267,1.0773368 l -1.013336,1.386671 1.824006,2.8266756 q 0.266667,0.3946679 0.544001,0.5760018 0.277334,0.181334 0.640002,0.181334 z"
         style="font-style:normal;font-variant:normal;font-weight:bold;font-stretch:normal;font-size:10.6667px;font-family:'Cormorant SC';-inkscape-font-specification:'Cormorant SC Bold';fill:#f2f2f2"
         id="path14" />
      <path
         d="m -28.844898,1.0124048 q 0.02133,-0.0320001 0.07467,-0.0320001 0.05333,0 0.05333,0.0320001 -0.07467,0.7680024 -0.07467,1.2586706 0,0.085334 -0.032,0.1280005 -0.032,0.032 -0.128,0.032 h -4.01068 q -0.02133,0 -0.02133,-0.064 0,-0.064 0.02133,-0.064 0.309335,0 0.448002,-0.053334 0.138667,-0.053333 0.192,-0.2026673 0.05333,-0.1600005 0.05333,-0.4800015 v -3.2640103 q 0,-0.320001 -0.05333,-0.4693348 -0.05333,-0.1493338 -0.202667,-0.2026673 -0.138667,-0.064 -0.437335,-0.064 -0.02133,0 -0.02133,-0.064 0,-0.064 0.02133,-0.064 h 3.818679 q 0.106667,0 0.106667,0.085334 l 0.01067,0.6613354 q 0.01067,0.2026673 0.01067,0.5120016 0,0.032 -0.064,0.032 -0.05333,0 -0.064,-0.032 -0.202667,-0.4693348 -0.618669,-0.7893358 -0.416001,-0.3306677 -0.842669,-0.3306677 h -0.07467 q -0.234667,0 -0.352001,0.064 -0.106667,0.053333 -0.149334,0.2026673 -0.032,0.1493338 -0.032,0.4693348 v 1.44000456 q 0.810669,-0.0106667 1.194671,-0.0640002 0.384001,-0.0533335 0.437334,-0.0533335 0.07467,0 0.07467,0.23466741 0,0.106667 -0.02133,0.1920006 -0.02133,0.08533361 -0.05333,0.08533361 -0.064,0 -0.448001,-0.0533335 -0.384001,-0.05333351 -1.184004,-0.07466691 V 1.5244064 q 0,0.320001 0.032,0.4693348 0.04267,0.1493338 0.149334,0.213334 0.117334,0.053334 0.352001,0.053334 h 0.117334 q 0.501335,0 0.992003,-0.3520011 0.490668,-0.3626678 0.725336,-0.8960028 z"
         style="font-style:normal;font-variant:normal;font-weight:bold;font-stretch:normal;font-size:10.6667px;font-family:'Cormorant SC';-inkscape-font-specification:'Cormorant SC Bold';fill:#f2f2f2"
         id="path16" />
    </g>
  </g>
</svg>
