<?xml version="1.0" encoding="UTF-8" standalone="no"?>
<svg
   viewBox="0 0 24 24"
   version="1.1"
   id="svg6"
   sodipodi:docname="ZoomIn.svg"
   inkscape:version="1.2.2 (b0a8486541, 2022-12-01)"
   xmlns:inkscape="http://www.inkscape.org/namespaces/inkscape"
   xmlns:sodipodi="http://sodipodi.sourceforge.net/DTD/sodipodi-0.dtd"
   xmlns="http://www.w3.org/2000/svg"
   xmlns:svg="http://www.w3.org/2000/svg">
  <sodipodi:namedview
     id="namedview8"
     pagecolor="#505050"
     bordercolor="#ffffff"
     borderopacity="1"
     inkscape:showpageshadow="0"
     inkscape:pageopacity="0"
     inkscape:pagecheckerboard="1"
     inkscape:deskcolor="#505050"
     showgrid="false"
     inkscape:zoom="9.8333333"
     inkscape:cx="2.3389831"
     inkscape:cy="12.050847"
     inkscape:window-width="1366"
     inkscape:window-height="694"
     inkscape:window-x="0"
     inkscape:window-y="0"
     inkscape:window-maximized="1"
     inkscape:current-layer="svg6" />
  <defs
     id="defs3051">
    <style
       type="text/css"
       id="current-color-scheme">
      .ColorScheme-Text {
        color:#232629;
      }
      </style>
  </defs>
  <path
     style="fill:#f2f2f2;fill-opacity:1;stroke:none"
     d="M 4 4 L 4 6 L 5 6 L 5 5 L 6 5 L 6 4 L 4 4 z M 9 4 L 9 5 L 11 5 L 11 4 L 9 4 z M 13 4 L 13 5 L 15 5 L 15 4 L 13 4 z M 18 4 L 18 5 L 19 5 L 19 6 L 20 6 L 20 4 L 18 4 z M 12 8 L 12 9 L 14.292969 9 L 11 12.292969 L 11.707031 13 L 15 9.7070312 L 15 12 L 16 12 L 16 8 L 15 8 L 12 8 z M 4 9 L 4 11 L 5 11 L 5 9 L 4 9 z M 19 9 L 19 11 L 20 11 L 20 9 L 19 9 z M 19 13 L 19 15 L 20 15 L 20 13 L 19 13 z M 4 14 L 4 20 L 10 20 L 10 14 L 4 14 z M 5 15 L 9 15 L 9 19 L 5 19 L 5 15 z M 19 18 L 19 19 L 18 19 L 18 20 L 20 20 L 20 18 L 19 18 z "
     class="ColorScheme-Text"
     id="path4" />
</svg>
