<?xml version="1.0" encoding="UTF-8" standalone="no"?>
<svg
   viewBox="0 0 24 24"
   version="1.1"
   id="svg6"
   sodipodi:docname="ZoomOut.svg"
   inkscape:version="1.2.2 (b0a8486541, 2022-12-01)"
   xmlns:inkscape="http://www.inkscape.org/namespaces/inkscape"
   xmlns:sodipodi="http://sodipodi.sourceforge.net/DTD/sodipodi-0.dtd"
   xmlns="http://www.w3.org/2000/svg"
   xmlns:svg="http://www.w3.org/2000/svg">
  <sodipodi:namedview
     id="namedview8"
     pagecolor="#505050"
     bordercolor="#ffffff"
     borderopacity="1"
     inkscape:showpageshadow="0"
     inkscape:pageopacity="0"
     inkscape:pagecheckerboard="1"
     inkscape:deskcolor="#505050"
     showgrid="false"
     inkscape:zoom="9.8333333"
     inkscape:cx="2.3389831"
     inkscape:cy="12.050847"
     inkscape:window-width="1366"
     inkscape:window-height="694"
     inkscape:window-x="0"
     inkscape:window-y="0"
     inkscape:window-maximized="1"
     inkscape:current-layer="svg6" />
  <defs
     id="defs3051">
    <style
       type="text/css"
       id="current-color-scheme">
      .ColorScheme-Text {
        color:#232629;
      }
      </style>
  </defs>
  <path
     style="fill:#f2f2f2;fill-opacity:1;stroke:none"
     d="M 4 4 L 4 11 L 5 11 L 5 5 L 19 5 L 19 19 L 13 19 L 13 20 L 20 20 L 20 19 L 20 5 L 20 4 L 5 4 L 4 4 z M 15.292969 8 L 12 11.292969 L 12 9 L 11 9 L 11 13 L 12 13 L 15 13 L 15 12 L 12.707031 12 L 16 8.7070312 L 15.292969 8 z M 4 14 L 4 16 L 5 16 L 5 15 L 6 15 L 6 14 L 4 14 z M 8 14 L 8 15 L 9 15 L 9 16 L 10 16 L 10 14 L 8 14 z M 4 18 L 4 20 L 6 20 L 6 19 L 5 19 L 5 18 L 4 18 z M 9 18 L 9 19 L 8 19 L 8 20 L 10 20 L 10 18 L 9 18 z "
     class="ColorScheme-Text"
     id="path4" />
</svg>
